<svg width="250" height="167" viewBox="0 0 250 167" fill="none" xmlns="http://www.w3.org/2000/svg">
<path d="M3.02701 1C1.86034 38.8333 38.6527 88.3 81.0527 97.5" stroke="#FA4238" stroke-width="5" stroke-dasharray="15 15"/>
<path d="M81.4281 112.967C84.25 96.0384 100.252 84.6046 117.168 87.4284L224.051 105.269C240.968 108.093 252.394 124.105 249.572 141.033C246.75 157.962 230.748 169.395 213.832 166.572L106.949 148.731C90.0324 145.907 78.6062 129.895 81.4281 112.967Z" fill="#FA4238"/>
<path d="M114.89 103.165L110.227 131.137L103.418 130.001L108.081 102.028L114.89 103.165Z" fill="#FEFBF7"/>
<path d="M121.377 104.248L128.346 105.411L122.106 115.346L117.527 114.581L121.377 104.248Z" fill="#FEFBF7"/>
<path d="M164.003 111.363L159.34 139.335L152.531 138.199L155.327 121.423L146.279 137.155L140.784 136.238L137.295 118.373L134.492 135.188L127.683 134.051L132.346 106.079L140.39 107.422L145.006 128.096L155.999 110.027L164.003 111.363Z" fill="#FEFBF7"/>
<path d="M184.147 114.726L179.484 142.698L172.675 141.561L177.338 113.589L184.147 114.726Z" fill="#FEFBF7"/>
<path d="M209.426 147.696L202.617 146.559L194.104 127.405L191.228 144.658L184.419 143.522L189.082 115.549L195.891 116.686L204.39 135.92L207.28 118.587L214.089 119.724L209.426 147.696Z" fill="#FEFBF7"/>
<path d="M228.15 121.047L224.172 140L218.398 139.037L220.784 119.817L228.15 121.047ZM219.684 149.736C218.49 149.536 217.565 149.027 216.91 148.208C216.287 147.367 216.061 146.428 216.234 145.392C216.411 144.329 216.931 143.501 217.794 142.908C218.683 142.32 219.725 142.125 220.92 142.324C222.088 142.519 222.984 143.037 223.608 143.879C224.258 144.724 224.494 145.679 224.317 146.741C224.145 147.777 223.613 148.59 222.724 149.178C221.866 149.745 220.852 149.931 219.684 149.736Z" fill="#FEFBF7"/>
</svg>
