<svg width="372" height="72" viewBox="0 0 372 72" fill="none" xmlns="http://www.w3.org/2000/svg">
<path d="M0.0494717 24.5613C0.927695 10.1413 13.2711 -0.832903 27.6192 0.0497193L347.561 19.7309C361.909 20.6135 372.829 33.0187 371.951 47.4387C371.072 61.8587 358.729 72.8329 344.381 71.9503L24.4389 52.2691C10.0907 51.3865 -0.828752 38.9813 0.0494717 24.5613Z" fill="#86171E"/>
<path d="M58.5924 15.3621L50.9607 38.8096L43.9696 38.3795L41.142 22.4654L36.2692 37.9059L29.2781 37.4758L24.7176 13.2783L30.8982 13.6585L33.253 31.213L38.531 14.128L44.8804 14.5186L47.8769 32.1126L52.3781 14.9798L58.5924 15.3621Z" fill="#FEFBF7"/>
<path d="M82.023 16.8034L80.5719 40.6311L74.7966 40.2759L75.394 30.4664L66.4103 29.9138L65.8129 39.7232L60.0376 39.368L61.4888 15.5402L67.264 15.8955L66.6956 25.2297L75.6793 25.7824L76.2478 16.4481L82.023 16.8034Z" fill="#FEFBF7"/>
<path d="M99.7564 37.5866L90.9077 37.0423L89.2329 41.1639L83.1875 40.792L93.2171 17.492L99.9043 17.9034L107.032 42.2588L100.919 41.8827L99.7564 37.5866ZM98.5432 33.0148L96.1362 24.1108L92.7004 32.6553L98.5432 33.0148Z" fill="#FEFBF7"/>
<path d="M128.149 19.6408L127.866 24.291L121.584 23.9045L120.416 43.0821L114.641 42.7269L115.809 23.5493L109.527 23.1629L109.81 18.5127L128.149 19.6408Z" fill="#FEFBF7"/>
<path d="M132.365 19.9002L138.275 20.2637L133.939 29.1277L130.055 28.8888L132.365 19.9002Z" fill="#FEFBF7"/>
<path d="M148.781 45.0655C147.047 44.9588 145.511 44.5804 144.172 43.9302C142.833 43.28 141.78 42.3749 141.015 41.2148C140.272 40.0562 139.925 38.6948 139.975 37.1307L146.122 37.5088C146.158 38.3968 146.421 39.0944 146.91 39.6014C147.4 40.0858 148.062 40.3537 148.895 40.4049C149.751 40.4576 150.438 40.3068 150.957 39.9526C151.477 39.5757 151.758 39.0366 151.801 38.3351C151.837 37.7467 151.664 37.2478 151.282 36.8381C150.922 36.4299 150.458 36.0833 149.887 35.7984C149.34 35.5149 148.546 35.1822 147.507 34.8003C146.005 34.2309 144.785 33.6788 143.845 33.1441C142.906 32.6093 142.116 31.8566 141.474 30.8859C140.833 29.9152 140.558 28.6831 140.648 27.1896C140.784 24.972 141.688 23.2901 143.363 22.1439C145.038 20.975 147.16 20.4696 149.727 20.6275C152.338 20.7881 154.405 21.5512 155.926 22.9168C157.449 24.2597 158.199 26.0547 158.175 28.3018L151.927 27.9175C151.929 27.1453 151.684 26.5284 151.192 26.0666C150.702 25.5821 150.051 25.315 149.241 25.2651C148.543 25.2222 147.968 25.3799 147.517 25.7383C147.067 26.074 146.821 26.5926 146.778 27.2941C146.731 28.0635 147.055 28.6853 147.749 29.1596C148.444 29.6338 149.541 30.167 151.042 30.759C152.541 31.3736 153.749 31.9476 154.666 32.481C155.605 33.0157 156.396 33.7571 157.039 34.7052C157.682 35.6533 157.96 36.8401 157.873 38.2657C157.79 39.6234 157.366 40.8352 156.601 41.901C155.858 42.9683 154.813 43.7899 153.468 44.3657C152.122 44.9416 150.559 45.1749 148.781 45.0655Z" fill="#FEFBF7"/>
<path d="M175.379 22.5462L173.928 46.3739L168.152 46.0186L169.603 22.1909L175.379 22.5462Z" fill="#FEFBF7"/>
<path d="M199.323 47.936L193.547 47.5808L184.783 32.2894L183.888 46.9866L178.113 46.6313L179.564 22.8036L185.339 23.1589L194.099 38.5181L194.999 23.7531L200.774 24.1083L199.323 47.936Z" fill="#FEFBF7"/>
<path d="M227.217 25.735L217.356 49.0454L210.129 48.6008L203.17 24.2557L209.317 24.6338L214.098 42.9849L221.104 25.3589L227.217 25.735Z" fill="#FEFBF7"/>
<path d="M239.378 50.6385C237.149 50.5014 235.131 49.8549 233.326 48.699C231.543 47.5446 230.157 46.0056 229.166 44.0822C228.2 42.1376 227.788 39.9999 227.93 37.6692C228.072 35.3384 228.739 33.2785 229.933 31.4895C231.15 29.7018 232.712 28.3443 234.622 27.417C236.554 26.4911 238.635 26.0966 240.864 26.2338C243.093 26.3709 245.099 27.0167 246.882 28.1712C248.687 29.327 250.063 30.8653 251.008 32.7859C251.976 34.7079 252.389 36.8343 252.247 39.165C252.105 41.4957 251.436 43.5669 250.241 45.3786C249.047 47.1677 247.495 48.5259 245.586 49.4532C243.676 50.3805 241.607 50.7756 239.378 50.6385ZM239.7 45.3435C241.592 45.4598 243.139 44.919 244.342 43.7211C245.567 42.5245 246.243 40.8853 246.37 38.8035C246.498 36.6991 246.026 34.9893 244.954 33.6741C243.905 32.3376 242.435 31.6112 240.544 31.4949C238.63 31.3771 237.061 31.9052 235.837 33.0792C234.635 34.2545 233.97 35.9057 233.84 38.0327C233.712 40.1372 234.172 41.8576 235.221 43.1941C236.293 44.5093 237.786 45.2257 239.7 45.3435Z" fill="#FEFBF7"/>
<path d="M260.778 47.2192L268.343 47.6846L268.07 52.165L254.73 51.3444L256.181 27.5167L261.956 27.8719L260.778 47.2192Z" fill="#FEFBF7"/>
<path d="M294.533 29.8759L284.672 53.1863L277.445 52.7417L270.486 28.3967L276.633 28.7748L281.414 47.1259L288.42 29.4999L294.533 29.8759Z" fill="#FEFBF7"/>
<path d="M302.439 35.0298L302.145 39.8496L309.879 40.3254L309.606 44.8058L301.872 44.3301L301.554 49.5572L310.301 50.0953L310.018 54.7454L295.495 53.8521L296.947 30.0244L311.469 30.9177L311.186 35.5679L302.439 35.0298Z" fill="#FEFBF7"/>
<path d="M324.101 31.6948C326.6 31.8485 328.754 32.4807 330.562 33.5913C332.37 34.7019 333.726 36.1935 334.629 38.0661C335.556 39.9175 335.947 42.0198 335.804 44.3732C335.662 46.7039 335.018 48.7425 333.872 50.4891C332.749 52.2371 331.211 53.5507 329.259 54.43C327.33 55.3107 325.127 55.6748 322.65 55.5225L313.767 54.9761L315.219 31.1484L324.101 31.6948ZM322.584 50.4761C324.768 50.6105 326.505 50.1154 327.794 48.9909C329.083 47.8664 329.794 46.2066 329.928 44.0117C330.061 41.8167 329.557 40.0709 328.416 38.7742C327.274 37.4774 325.612 36.7619 323.428 36.6275L320.692 36.4593L319.849 50.3078L322.584 50.4761Z" fill="#FEFBF7"/>
<path d="M346.761 31.76C349.171 31.9082 351.057 32.6602 352.421 34.016C353.807 35.3733 354.43 37.2059 354.29 39.514C354.16 41.6411 353.361 43.2613 351.892 44.3748C350.447 45.467 348.586 45.9544 346.311 45.8372L345.987 48.3725L340.921 48.0608L341.137 41.7371L343.163 41.8618C344.897 41.9684 346.227 41.8345 347.154 41.4599C348.103 41.0868 348.612 40.3345 348.681 39.2031C348.729 38.4111 348.553 37.7757 348.153 37.2968C347.753 36.8179 347.17 36.5549 346.404 36.5078C345.594 36.4579 344.949 36.6568 344.47 37.1043C343.992 37.5291 343.729 38.1376 343.681 38.9295L338.243 38.5951C338.282 37.212 338.639 35.9847 339.315 34.9133C340.013 33.8433 340.989 33.0289 342.243 32.4701C343.522 31.89 345.028 31.6533 346.761 31.76ZM342.984 57.0459C341.971 56.9836 341.156 56.6382 340.538 56.0097C339.945 55.3599 339.676 54.5938 339.729 53.7113C339.784 52.8061 340.146 52.0675 340.813 51.4953C341.504 50.9245 342.355 50.6702 343.368 50.7326C344.359 50.7935 345.151 51.1489 345.744 51.7986C346.36 52.4497 346.64 53.2279 346.585 54.133C346.532 55.0155 346.16 55.7422 345.469 56.313C344.803 56.8625 343.975 57.1068 342.984 57.0459Z" fill="#FEFBF7"/>
</svg>
