<svg width="266" height="485" viewBox="0 0 266 485" fill="none" xmlns="http://www.w3.org/2000/svg">
<path d="M140.221 1C140.221 1 184.748 205.955 91.1921 300.667C-58.6354 452.347 64.8105 483.5 64.8105 483.5" stroke="#86171E" stroke-width="2" stroke-dasharray="8 8"/>
<path d="M0.180179 231.571C-1.444 218.216 8.09334 206.076 21.4824 204.456L238.636 178.18C252.025 176.56 264.196 186.073 265.82 199.429C267.444 212.784 257.907 224.924 244.518 226.544L27.3641 252.82C13.975 254.44 1.80435 244.927 0.180179 231.571Z" fill="#86171E"/>
<path d="M37.058 215.817L37.5818 220.123L31.7198 220.833L33.8799 238.595L28.4906 239.247L26.3306 221.485L20.4686 222.194L19.9448 217.887L37.058 215.817Z" fill="#FEFBF7"/>
<path d="M45.6757 219.144L46.2186 223.608L53.4358 222.735L53.9404 226.885L46.7233 227.758L47.312 232.599L55.4747 231.611L55.9984 235.918L42.4466 237.558L39.7627 215.489L53.3146 213.85L53.8384 218.156L45.6757 219.144Z" fill="#FEFBF7"/>
<path d="M64.3818 230.693L71.4414 229.839L71.946 233.989L59.4972 235.495L56.8134 213.426L62.2026 212.774L64.3818 230.693Z" fill="#FEFBF7"/>
<path d="M79.4011 228.876L86.4607 228.022L86.9654 232.171L74.5165 233.678L71.8327 211.609L77.222 210.957L79.4011 228.876Z" fill="#FEFBF7"/>
<path d="M118.586 205.952L121.27 228.02L115.881 228.672L114.271 215.437L110.933 229.271L106.583 229.797L99.9905 217.134L101.604 230.4L96.2146 231.052L93.5308 208.983L99.897 208.213L107.964 222.74L112.251 206.718L118.586 205.952Z" fill="#FEFBF7"/>
<path d="M128.374 209.137L128.917 213.601L136.135 212.728L136.639 216.878L129.422 217.751L130.011 222.592L138.173 221.605L138.697 225.912L125.145 227.551L122.461 205.483L136.013 203.843L136.537 208.15L128.374 209.137Z" fill="#FEFBF7"/>
<path d="M171.246 199.58L173.93 221.648L168.541 222.3L166.931 209.065L163.593 222.899L159.243 223.425L152.65 210.762L154.264 224.028L148.875 224.68L146.191 202.611L152.557 201.841L160.624 216.368L164.911 200.346L171.246 199.58Z" fill="#FEFBF7"/>
<path d="M188.295 220.133C186.215 220.385 184.245 220.134 182.384 219.381C180.544 218.626 179.004 217.451 177.766 215.857C176.546 214.239 175.804 212.351 175.542 210.193C175.279 208.034 175.548 206.034 176.347 204.194C177.168 202.351 178.381 200.843 179.987 199.67C181.613 198.495 183.467 197.782 185.547 197.53C187.627 197.279 189.587 197.53 191.427 198.286C193.288 199.039 194.817 200.215 196.013 201.814C197.231 203.411 197.971 205.288 198.233 207.447C198.496 209.606 198.229 211.616 197.432 213.477C196.632 215.318 195.43 216.825 193.824 217.997C192.218 219.17 190.375 219.882 188.295 220.133ZM187.699 215.229C189.464 215.016 190.8 214.259 191.708 212.958C192.637 211.654 192.984 210.039 192.75 208.111C192.513 206.161 191.788 204.675 190.576 203.652C189.383 202.606 187.904 202.189 186.139 202.403C184.353 202.619 182.995 203.368 182.063 204.651C181.153 205.93 180.818 207.555 181.057 209.525C181.294 211.474 182.009 212.972 183.203 214.019C184.414 215.042 185.913 215.445 187.699 215.229Z" fill="#FEFBF7"/>
<path d="M213.864 216.816L208.249 209.042L206.957 209.199L207.97 217.529L202.581 218.181L199.897 196.113L208.942 195.018C210.686 194.807 212.204 194.932 213.497 195.392C214.811 195.85 215.837 196.576 216.576 197.572C217.313 198.546 217.76 199.683 217.918 200.982C218.097 202.449 217.836 203.81 217.136 205.064C216.456 206.316 215.337 207.281 213.778 207.959L219.946 216.08L213.864 216.816ZM206.495 205.395L209.835 204.99C210.823 204.871 211.529 204.541 211.953 204C212.399 203.457 212.568 202.746 212.461 201.866C212.359 201.027 212.027 200.398 211.464 199.977C210.922 199.553 210.158 199.401 209.17 199.52L205.829 199.925L206.495 205.395Z" fill="#FEFBF7"/>
<path d="M226.37 197.28L226.912 201.744L234.13 200.871L234.634 205.02L227.417 205.894L228.006 210.735L236.168 209.747L236.692 214.054L223.14 215.694L220.457 193.625L234.008 191.985L234.532 196.292L226.37 197.28Z" fill="#FEFBF7"/>
<path d="M244.503 189.918L245.704 205.052L241.134 205.605L238.672 190.623L244.503 189.918ZM244.476 213.367C243.531 213.482 242.72 213.303 242.045 212.832C241.388 212.337 241.009 211.681 240.91 210.864C240.808 210.026 241.017 209.288 241.536 208.651C242.077 208.011 242.82 207.634 243.765 207.52C244.69 207.408 245.48 207.6 246.138 208.094C246.816 208.586 247.206 209.252 247.308 210.09C247.407 210.907 247.186 211.636 246.646 212.275C246.124 212.891 245.401 213.255 244.476 213.367Z" fill="#FEFBF7"/>
</svg>
