<svg width="340" height="125" viewBox="0 0 340 125" fill="none" xmlns="http://www.w3.org/2000/svg">
<path d="M0 0H340V125H0V0Z" fill="#069851"/>
<path d="M103.679 57.9462C103.532 57.9462 103.415 57.9095 103.327 57.8362C103.253 57.7775 103.217 57.7042 103.217 57.6162C103.217 57.5135 103.261 57.4255 103.349 57.3522C103.437 57.2642 103.547 57.1982 103.679 57.1542C104.177 57.0222 104.529 56.8682 104.735 56.6922C104.955 56.5162 105.065 56.2008 105.065 55.7462V45.6702C105.065 45.3475 105.028 45.0982 104.955 44.9222C104.881 44.7462 104.742 44.6068 104.537 44.5042C104.331 44.4015 104.031 44.3062 103.635 44.2182C103.327 44.1448 103.173 43.9908 103.173 43.7562C103.173 43.6535 103.217 43.5728 103.305 43.5142C103.393 43.4555 103.495 43.4262 103.613 43.4262C103.95 43.4262 104.302 43.4335 104.669 43.4482C105.05 43.4628 105.417 43.4848 105.769 43.5142C106.135 43.5288 106.465 43.5362 106.759 43.5362C107.067 43.5362 107.411 43.5288 107.793 43.5142C108.174 43.4995 108.563 43.4848 108.959 43.4702C109.369 43.4555 109.736 43.4482 110.059 43.4482C110.191 43.4482 110.286 43.4775 110.345 43.5362C110.418 43.5802 110.455 43.6535 110.455 43.7562C110.455 43.9028 110.411 44.0055 110.323 44.0642C110.249 44.1228 110.139 44.1742 109.993 44.2182C109.391 44.3795 108.981 44.5555 108.761 44.7462C108.555 44.9222 108.453 45.2302 108.453 45.6702V55.5702C108.453 55.9808 108.541 56.2742 108.717 56.4502C108.907 56.6262 109.215 56.7142 109.641 56.7142H111.885C112.207 56.7142 112.493 56.6628 112.743 56.5602C113.007 56.4428 113.241 56.2962 113.447 56.1202C113.696 55.8855 113.916 55.6215 114.107 55.3282C114.297 55.0202 114.466 54.7048 114.613 54.3822C114.759 54.0888 114.869 53.8982 114.943 53.8102C115.031 53.7222 115.119 53.6782 115.207 53.6782C115.324 53.6782 115.405 53.7295 115.449 53.8322C115.493 53.9348 115.515 54.0302 115.515 54.1182C115.515 54.1475 115.5 54.2135 115.471 54.3162C115.441 54.4188 115.427 54.4995 115.427 54.5582C115.324 54.9835 115.229 55.3575 115.141 55.6802C115.053 55.9882 114.979 56.2888 114.921 56.5822C114.877 56.8608 114.833 57.1762 114.789 57.5282C114.774 57.6308 114.737 57.7262 114.679 57.8142C114.635 57.9022 114.554 57.9462 114.437 57.9462C114.129 57.9462 113.681 57.9388 113.095 57.9242C112.508 57.9095 111.848 57.8948 111.115 57.8802C110.396 57.8802 109.655 57.8728 108.893 57.8582C108.145 57.8435 107.448 57.8362 106.803 57.8362C106.495 57.8362 106.143 57.8435 105.747 57.8582C105.351 57.8728 104.962 57.8875 104.581 57.9022C104.214 57.9315 103.913 57.9462 103.679 57.9462ZM116.437 57.9022C116.32 57.9022 116.217 57.8802 116.129 57.8362C116.041 57.7775 115.997 57.6968 115.997 57.5942C115.997 57.3595 116.151 57.2055 116.459 57.1322C117.017 57.0148 117.405 56.8682 117.625 56.6922C117.845 56.5015 117.955 56.1715 117.955 55.7022V45.7142C117.955 45.2448 117.86 44.9148 117.669 44.7242C117.479 44.5188 117.09 44.3502 116.503 44.2182C116.195 44.1448 116.041 43.9908 116.041 43.7562C116.041 43.6535 116.085 43.5728 116.173 43.5142C116.261 43.4555 116.364 43.4262 116.481 43.4262C116.819 43.4262 117.171 43.4335 117.537 43.4482C117.919 43.4628 118.285 43.4848 118.637 43.5142C119.004 43.5288 119.341 43.5362 119.649 43.5362C119.943 43.5362 120.273 43.5288 120.639 43.5142C121.021 43.4995 121.402 43.4848 121.783 43.4702C122.179 43.4555 122.539 43.4482 122.861 43.4482C122.993 43.4482 123.096 43.4775 123.169 43.5362C123.243 43.5802 123.279 43.6535 123.279 43.7562C123.279 43.9028 123.235 44.0055 123.147 44.0642C123.074 44.1228 122.957 44.1742 122.795 44.2182C122.209 44.3795 121.82 44.5628 121.629 44.7682C121.439 44.9588 121.343 45.2815 121.343 45.7362V55.6802C121.343 56.1055 121.446 56.4208 121.651 56.6262C121.871 56.8168 122.267 56.9855 122.839 57.1322C122.986 57.1762 123.096 57.2275 123.169 57.2862C123.257 57.3448 123.301 57.4402 123.301 57.5722C123.301 57.6748 123.265 57.7555 123.191 57.8142C123.133 57.8728 123.037 57.9022 122.905 57.9022C122.583 57.9022 122.223 57.8875 121.827 57.8582C121.431 57.8435 121.043 57.8288 120.661 57.8142C120.28 57.7995 119.943 57.7922 119.649 57.7922C119.341 57.7922 119.004 57.7995 118.637 57.8142C118.271 57.8288 117.897 57.8435 117.515 57.8582C117.134 57.8875 116.775 57.9022 116.437 57.9022ZM128.191 57.9022C128.088 57.9022 127.978 57.8802 127.861 57.8362C127.744 57.7775 127.685 57.6968 127.685 57.5942C127.685 57.4622 127.736 57.3595 127.839 57.2862C127.942 57.2128 128.066 57.1615 128.213 57.1322C128.77 57.0148 129.174 56.8608 129.423 56.6702C129.687 56.4795 129.819 56.1495 129.819 55.6802V46.5942C129.819 46.0222 129.804 45.6042 129.775 45.3402C129.746 45.0615 129.702 44.8782 129.643 44.7902C129.599 44.6875 129.54 44.6215 129.467 44.5922C129.335 44.5188 129.159 44.4822 128.939 44.4822C128.734 44.4675 128.565 44.4602 128.433 44.4602H127.949C127.48 44.4602 127.032 44.5775 126.607 44.8122C126.196 45.0322 125.866 45.3108 125.617 45.6482C125.544 45.7508 125.434 45.8975 125.287 46.0882C125.155 46.2642 125.008 46.4255 124.847 46.5722C124.7 46.7042 124.554 46.7702 124.407 46.7702C124.29 46.7702 124.209 46.7335 124.165 46.6602C124.121 46.5722 124.099 46.4768 124.099 46.3742C124.099 46.1982 124.143 46.0148 124.231 45.8242C124.51 45.2668 124.715 44.7902 124.847 44.3942C124.979 43.9982 125.067 43.5435 125.111 43.0302C125.14 42.8102 125.206 42.6635 125.309 42.5902C125.412 42.5022 125.529 42.4582 125.661 42.4582C125.764 42.4582 125.874 42.5535 125.991 42.7442C126.108 42.9348 126.233 43.0888 126.365 43.2062C126.512 43.3235 126.754 43.4115 127.091 43.4702C127.443 43.5288 127.729 43.5582 127.949 43.5582H136.221C136.588 43.5582 136.896 43.5215 137.145 43.4482C137.409 43.3748 137.607 43.3015 137.739 43.2282C137.974 43.0962 138.157 42.9495 138.289 42.7882C138.436 42.6268 138.604 42.5462 138.795 42.5462C138.883 42.5462 138.942 42.5828 138.971 42.6562C139.015 42.7148 139.037 42.8028 139.037 42.9202C139.037 42.9788 139.03 43.0522 139.015 43.1402C139.015 43.2282 139.008 43.3088 138.993 43.3822C138.92 43.6608 138.846 43.9322 138.773 44.1962C138.7 44.4455 138.641 44.6875 138.597 44.9222C138.553 45.1568 138.531 45.3988 138.531 45.6482V46.0882C138.531 46.3228 138.502 46.5135 138.443 46.6602C138.399 46.8068 138.304 46.8802 138.157 46.8802C138.025 46.8802 137.915 46.8142 137.827 46.6822C137.739 46.5355 137.644 46.3082 137.541 46.0002C137.38 45.4722 137.138 45.0835 136.815 44.8342C136.507 44.5848 136.03 44.4602 135.385 44.4602H134.241C133.992 44.4602 133.786 44.5188 133.625 44.6362C133.478 44.7388 133.368 44.9588 133.295 45.2962C133.222 45.6188 133.185 46.1175 133.185 46.7922V55.6582C133.185 56.0982 133.302 56.4208 133.537 56.6262C133.786 56.8168 134.197 56.9855 134.769 57.1322C134.916 57.1762 135.04 57.2275 135.143 57.2862C135.246 57.3448 135.297 57.4402 135.297 57.5722C135.297 57.6748 135.253 57.7555 135.165 57.8142C135.077 57.8728 134.967 57.9022 134.835 57.9022C134.512 57.9022 134.146 57.8875 133.735 57.8582C133.339 57.8435 132.936 57.8288 132.525 57.8142C132.129 57.7995 131.784 57.7922 131.491 57.7922C131.183 57.7922 130.831 57.7995 130.435 57.8142C130.054 57.8288 129.665 57.8435 129.269 57.8582C128.888 57.8875 128.528 57.9022 128.191 57.9022ZM147.162 58.1442C145.783 58.1442 144.632 57.9022 143.708 57.4182C142.784 56.9195 142.087 56.2302 141.618 55.3502C141.163 54.4702 140.936 53.4435 140.936 52.2702V46.0002C140.936 45.5895 140.841 45.2155 140.65 44.8782C140.459 44.5408 140.181 44.3282 139.814 44.2402C139.403 44.1228 139.198 43.9615 139.198 43.7562C139.198 43.6535 139.249 43.5728 139.352 43.5142C139.469 43.4555 139.609 43.4262 139.77 43.4262C140.239 43.4262 140.723 43.4482 141.222 43.4922C141.721 43.5215 142.19 43.5362 142.63 43.5362C143.041 43.5362 143.532 43.5215 144.104 43.4922C144.691 43.4628 145.189 43.4482 145.6 43.4482C145.776 43.4482 145.915 43.4775 146.018 43.5362C146.135 43.5802 146.194 43.6608 146.194 43.7782C146.194 43.9395 146.084 44.0568 145.864 44.1302C145.644 44.2035 145.409 44.2988 145.16 44.4162C144.94 44.5042 144.749 44.6875 144.588 44.9662C144.427 45.2302 144.346 45.6115 144.346 46.1102V51.8742C144.346 52.8715 144.507 53.6928 144.83 54.3382C145.153 54.9835 145.578 55.4602 146.106 55.7682C146.649 56.0762 147.25 56.2302 147.91 56.2302C149.245 56.2302 150.235 55.8342 150.88 55.0422C151.54 54.2502 151.87 53.0402 151.87 51.4122C151.87 51.0308 151.87 50.6055 151.87 50.1362C151.885 49.6522 151.892 49.1608 151.892 48.6622C151.892 48.1488 151.885 47.6648 151.87 47.2102C151.855 46.5502 151.804 46.0368 151.716 45.6702C151.643 45.3035 151.525 45.0175 151.364 44.8122C151.203 44.6068 150.983 44.4382 150.704 44.3062C150.543 44.2182 150.352 44.1448 150.132 44.0862C149.927 44.0128 149.824 43.9102 149.824 43.7782C149.824 43.6608 149.883 43.5802 150 43.5362C150.117 43.4922 150.279 43.4702 150.484 43.4702C151.012 43.4702 151.408 43.4775 151.672 43.4922C151.951 43.5068 152.259 43.5142 152.596 43.5142C152.875 43.5142 153.102 43.5068 153.278 43.4922C153.469 43.4775 153.659 43.4628 153.85 43.4482C154.055 43.4335 154.297 43.4262 154.576 43.4262C154.752 43.4262 154.891 43.4482 154.994 43.4922C155.097 43.5362 155.148 43.6242 155.148 43.7562C155.148 43.9468 154.95 44.1008 154.554 44.2182C154.07 44.3502 153.725 44.5775 153.52 44.9002C153.329 45.2082 153.219 45.6262 153.19 46.1542C153.146 47.2688 153.117 48.2955 153.102 49.2342C153.087 50.1582 153.08 51.1042 153.08 52.0722C153.065 53.2602 152.794 54.3162 152.266 55.2402C151.753 56.1495 151.049 56.8608 150.154 57.3742C149.259 57.8875 148.262 58.1442 147.162 58.1442ZM169.539 58.2982C168.791 58.2982 168.16 58.2028 167.647 58.0122C167.133 57.8362 166.693 57.6015 166.327 57.3082C165.975 57.0002 165.659 56.6555 165.381 56.2742C165.058 55.8488 164.743 55.4235 164.435 54.9982C164.141 54.5728 163.848 54.1108 163.555 53.6122C163.261 53.1135 162.953 52.5415 162.631 51.8962C162.484 51.5735 162.286 51.3462 162.037 51.2142C161.905 51.1262 161.773 51.0675 161.641 51.0382C161.509 51.0088 161.391 50.9942 161.289 50.9942C161.215 50.9942 161.157 51.0382 161.113 51.1262C161.069 51.1995 161.047 51.3022 161.047 51.4342V55.6362C161.047 56.0908 161.171 56.4208 161.421 56.6262C161.67 56.8315 162.103 57.0002 162.719 57.1322C162.88 57.1615 162.997 57.2128 163.071 57.2862C163.159 57.3448 163.203 57.4402 163.203 57.5722C163.203 57.6748 163.166 57.7555 163.093 57.8142C163.019 57.8728 162.917 57.9022 162.785 57.9022C162.462 57.9022 162.088 57.8875 161.663 57.8582C161.252 57.8435 160.841 57.8288 160.431 57.8142C160.02 57.7995 159.668 57.7922 159.375 57.7922C159.067 57.7922 158.729 57.7995 158.363 57.8142C157.996 57.8288 157.615 57.8435 157.219 57.8582C156.837 57.8875 156.485 57.9022 156.163 57.9022C156.045 57.9022 155.943 57.8802 155.855 57.8362C155.767 57.7775 155.723 57.6968 155.723 57.5942C155.723 57.3595 155.877 57.2055 156.185 57.1322C156.742 57.0148 157.123 56.8682 157.329 56.6922C157.549 56.5015 157.659 56.1642 157.659 55.6802V45.8022C157.659 45.4502 157.622 45.1715 157.549 44.9662C157.49 44.7608 157.365 44.6068 157.175 44.5042C156.984 44.3868 156.705 44.2915 156.339 44.2182C156.148 44.1742 156.016 44.1155 155.943 44.0422C155.869 43.9542 155.833 43.8588 155.833 43.7562C155.833 43.6682 155.877 43.5948 155.965 43.5362C156.053 43.4628 156.17 43.4262 156.317 43.4262C156.786 43.4262 157.167 43.4408 157.461 43.4702C157.769 43.4995 158.055 43.5288 158.319 43.5582C158.597 43.5728 158.92 43.5802 159.287 43.5802C159.624 43.5802 159.917 43.5655 160.167 43.5362C160.431 43.4922 160.724 43.4555 161.047 43.4262C161.384 43.3968 161.809 43.3822 162.323 43.3822C164.039 43.3822 165.359 43.6755 166.283 44.2622C167.207 44.8488 167.669 45.7362 167.669 46.9242C167.669 47.5842 167.522 48.1415 167.229 48.5962C166.95 49.0362 166.591 49.4028 166.151 49.6962C165.725 49.9748 165.293 50.1875 164.853 50.3342C164.794 50.3488 164.765 50.3855 164.765 50.4442C164.779 50.4882 164.801 50.5395 164.831 50.5982C165.271 51.2435 165.696 51.8742 166.107 52.4902C166.532 53.0915 166.965 53.6562 167.405 54.1842C167.845 54.6975 168.299 55.1742 168.769 55.6142C169.267 56.0835 169.773 56.3622 170.287 56.4502C170.815 56.5235 171.335 56.5602 171.849 56.5602C172.069 56.5602 172.179 56.6922 172.179 56.9562C172.179 57.2788 172.061 57.5428 171.827 57.7482C171.607 57.9388 171.299 58.0782 170.903 58.1662C170.507 58.2542 170.052 58.2982 169.539 58.2982ZM161.883 50.2902C162.44 50.2902 162.902 50.1655 163.269 49.9162C163.635 49.6668 163.914 49.3295 164.105 48.9042C164.295 48.4642 164.391 47.9655 164.391 47.4082C164.391 46.7335 164.303 46.1688 164.127 45.7142C163.951 45.2595 163.687 44.9222 163.335 44.7022C162.983 44.4675 162.528 44.3502 161.971 44.3502C161.648 44.3502 161.413 44.4822 161.267 44.7462C161.135 44.9955 161.069 45.5382 161.069 46.3742C161.054 46.7115 161.047 47.1368 161.047 47.6502C161.047 48.1635 161.047 48.7722 161.047 49.4762C161.047 49.7695 161.12 49.9822 161.267 50.1142C161.428 50.2315 161.633 50.2902 161.883 50.2902ZM179.778 58.1442C178.722 58.1442 177.725 57.9755 176.786 57.6382C175.862 57.2862 175.041 56.7875 174.322 56.1422C173.618 55.4968 173.068 54.7342 172.672 53.8542C172.276 52.9742 172.078 51.9988 172.078 50.9282C172.078 49.9162 172.269 48.9482 172.65 48.0242C173.046 47.1002 173.604 46.2788 174.322 45.5602C175.056 44.8415 175.936 44.2768 176.962 43.8662C177.989 43.4408 179.126 43.2282 180.372 43.2282C180.68 43.2282 181.032 43.2502 181.428 43.2942C181.839 43.3382 182.257 43.3968 182.682 43.4702C183.108 43.5435 183.504 43.6315 183.87 43.7342C184.252 43.8222 184.56 43.9175 184.794 44.0202C184.926 44.0642 185.029 44.1302 185.102 44.2182C185.176 44.2915 185.22 44.4015 185.234 44.5482C185.308 45.0615 185.366 45.5455 185.41 46.0002C185.469 46.4548 185.498 46.8362 185.498 47.1442C185.498 47.2908 185.462 47.4008 185.388 47.4742C185.33 47.5475 185.242 47.5842 185.124 47.5842C184.948 47.5842 184.816 47.5402 184.728 47.4522C184.655 47.3642 184.589 47.2542 184.53 47.1222C184.398 46.8435 184.244 46.5575 184.068 46.2642C183.907 45.9562 183.709 45.6775 183.474 45.4282C183.298 45.2522 183.086 45.0835 182.836 44.9222C182.602 44.7608 182.308 44.6288 181.956 44.5262C181.604 44.4235 181.179 44.3722 180.68 44.3722C179.888 44.3722 179.184 44.5335 178.568 44.8562C177.952 45.1788 177.432 45.6262 177.006 46.1982C176.596 46.7555 176.28 47.3935 176.06 48.1122C175.855 48.8162 175.752 49.5642 175.752 50.3562C175.752 51.3388 175.848 52.2408 176.038 53.0622C176.229 53.8688 176.508 54.5655 176.874 55.1522C177.241 55.7388 177.696 56.1935 178.238 56.5162C178.781 56.8242 179.412 56.9782 180.13 56.9782C180.512 56.9782 180.82 56.9122 181.054 56.7802C181.304 56.6482 181.502 56.5308 181.648 56.4282C181.795 56.3108 181.912 56.1275 182 55.8782C182.103 55.6142 182.154 55.3208 182.154 54.9982C182.169 54.8662 182.176 54.6828 182.176 54.4482C182.176 54.2135 182.176 53.9788 182.176 53.7442C182.191 53.5095 182.198 53.3262 182.198 53.1942C182.198 53.0328 182.162 52.8862 182.088 52.7542C182.03 52.6075 181.905 52.4975 181.714 52.4242C181.582 52.3362 181.428 52.2628 181.252 52.2042C181.091 52.1455 180.922 52.1015 180.746 52.0722C180.585 52.0282 180.438 51.9915 180.306 51.9622C180.189 51.9475 180.072 51.8962 179.954 51.8082C179.837 51.7202 179.778 51.6102 179.778 51.4782C179.778 51.3755 179.83 51.2948 179.932 51.2362C180.035 51.1775 180.138 51.1482 180.24 51.1482C180.578 51.1482 180.944 51.1555 181.34 51.1702C181.751 51.1848 182.154 51.2068 182.55 51.2362C182.946 51.2508 183.298 51.2582 183.606 51.2582C184.032 51.2582 184.479 51.2435 184.948 51.2142C185.432 51.1848 185.894 51.1702 186.334 51.1702C186.437 51.1702 186.525 51.1995 186.598 51.2582C186.672 51.3022 186.708 51.3828 186.708 51.5002C186.708 51.6468 186.664 51.7568 186.576 51.8302C186.503 51.8888 186.4 51.9328 186.268 51.9622C185.858 52.0648 185.579 52.1968 185.432 52.3582C185.286 52.5195 185.183 52.7468 185.124 53.0402C185.066 53.3628 185.022 53.6488 184.992 53.8982C184.978 54.1328 184.97 54.3968 184.97 54.6902V55.3942C184.97 55.4675 185 55.5408 185.058 55.6142C185.117 55.6875 185.183 55.7608 185.256 55.8342C185.315 55.9075 185.366 55.9808 185.41 56.0542C185.454 56.1275 185.476 56.2082 185.476 56.2962C185.476 56.3842 185.447 56.4795 185.388 56.5822C185.33 56.6702 185.22 56.7288 185.058 56.7582C184.941 56.7728 184.736 56.8535 184.442 57.0002C184.149 57.1322 183.782 57.2935 183.342 57.4842C182.902 57.6602 182.382 57.8142 181.78 57.9462C181.179 58.0782 180.512 58.1442 179.778 58.1442ZM191.134 57.9682C190.943 57.9682 190.789 57.9315 190.672 57.8582C190.554 57.7995 190.496 57.7188 190.496 57.6162C190.496 57.4842 190.562 57.3815 190.694 57.3082C190.826 57.2348 190.98 57.1835 191.156 57.1542C191.713 57.0368 192.102 56.8388 192.322 56.5602C192.542 56.2668 192.652 55.8855 192.652 55.4162V52.3802C192.652 51.8668 192.578 51.4415 192.432 51.1042C192.3 50.7668 192.146 50.4515 191.97 50.1582L189.132 45.7802C189.014 45.5748 188.875 45.3695 188.714 45.1642C188.552 44.9588 188.362 44.7755 188.142 44.6142C187.936 44.4382 187.694 44.3135 187.416 44.2402C187.269 44.1815 187.144 44.1228 187.042 44.0642C186.939 44.0055 186.888 43.9028 186.888 43.7562C186.888 43.6535 186.932 43.5802 187.02 43.5362C187.122 43.4775 187.232 43.4482 187.35 43.4482C187.966 43.4482 188.552 43.4702 189.11 43.5142C189.682 43.5582 190.283 43.5802 190.914 43.5802C191.398 43.5802 191.852 43.5582 192.278 43.5142C192.718 43.4702 193.18 43.4482 193.664 43.4482C193.796 43.4482 193.928 43.4775 194.06 43.5362C194.192 43.5802 194.258 43.6535 194.258 43.7562C194.258 43.8735 194.192 43.9762 194.06 44.0642C193.928 44.1375 193.781 44.1888 193.62 44.2182C193.224 44.3208 192.938 44.4308 192.762 44.5482C192.586 44.6508 192.498 44.8195 192.498 45.0542C192.498 45.2742 192.578 45.5308 192.74 45.8242L195.006 49.7182C195.138 49.9822 195.27 50.1142 195.402 50.1142C195.46 50.1142 195.519 50.0848 195.578 50.0262C195.651 49.9528 195.724 49.8502 195.798 49.7182C196.15 49.1168 196.48 48.5228 196.788 47.9362C197.11 47.3348 197.426 46.6968 197.734 46.0222C197.807 45.8755 197.866 45.7215 197.91 45.5602C197.968 45.3988 197.998 45.2522 197.998 45.1202C197.998 44.8415 197.866 44.6288 197.602 44.4822C197.352 44.3355 197.088 44.2548 196.81 44.2402C196.663 44.2108 196.509 44.1595 196.348 44.0862C196.201 43.9982 196.128 43.8882 196.128 43.7562C196.128 43.6535 196.194 43.5802 196.326 43.5362C196.472 43.4922 196.619 43.4702 196.766 43.4702C197.191 43.4702 197.572 43.4848 197.91 43.5142C198.247 43.5435 198.614 43.5582 199.01 43.5582C199.391 43.5582 199.758 43.5362 200.11 43.4922C200.462 43.4335 200.843 43.4042 201.254 43.4042C201.415 43.4042 201.562 43.4262 201.694 43.4702C201.84 43.5142 201.914 43.6095 201.914 43.7562C201.914 43.8882 201.84 43.9835 201.694 44.0422C201.547 44.1008 201.393 44.1595 201.232 44.2182C200.792 44.3208 200.418 44.5042 200.11 44.7682C199.802 45.0322 199.538 45.3475 199.318 45.7142C199.083 46.0955 198.848 46.4695 198.614 46.8362C198.394 47.1882 198.174 47.5402 197.954 47.8922C197.748 48.2442 197.536 48.5962 197.316 48.9482C197.096 49.3002 196.876 49.6668 196.656 50.0482C196.538 50.2535 196.428 50.4662 196.326 50.6862C196.238 50.9062 196.164 51.1335 196.106 51.3682C196.062 51.6028 196.04 51.8742 196.04 52.1822V55.4162C196.04 55.9588 196.15 56.3475 196.37 56.5822C196.59 56.8022 196.986 56.9928 197.558 57.1542C197.734 57.1982 197.88 57.2495 197.998 57.3082C198.13 57.3668 198.196 57.4622 198.196 57.5942C198.196 57.6968 198.137 57.7775 198.02 57.8362C197.917 57.9095 197.785 57.9462 197.624 57.9462C197.301 57.9462 196.942 57.9315 196.546 57.9022C196.15 57.8728 195.754 57.8508 195.358 57.8362C194.976 57.8068 194.639 57.7922 194.346 57.7922C194.038 57.7922 193.7 57.8068 193.334 57.8362C192.967 57.8508 192.593 57.8728 192.212 57.9022C191.83 57.9462 191.471 57.9682 191.134 57.9682ZM214.753 58.1442C213.741 58.1442 212.773 57.9755 211.849 57.6382C210.939 57.2862 210.125 56.7948 209.407 56.1642C208.703 55.5188 208.145 54.7562 207.735 53.8762C207.339 52.9815 207.141 51.9915 207.141 50.9062C207.141 49.9088 207.302 48.9555 207.625 48.0462C207.962 47.1222 208.461 46.3008 209.121 45.5822C209.781 44.8635 210.595 44.2915 211.563 43.8662C212.545 43.4408 213.675 43.2282 214.951 43.2282C215.977 43.2282 216.945 43.4042 217.855 43.7562C218.779 44.0935 219.593 44.5848 220.297 45.2302C221.001 45.8608 221.558 46.6235 221.969 47.5182C222.379 48.3982 222.585 49.3808 222.585 50.4662C222.585 51.4488 222.416 52.4022 222.079 53.3262C221.741 54.2502 221.243 55.0715 220.583 55.7902C219.923 56.5088 219.101 57.0808 218.119 57.5062C217.151 57.9315 216.029 58.1442 214.753 58.1442ZM215.149 57.1322C215.985 57.1322 216.681 56.8975 217.239 56.4282C217.811 55.9588 218.236 55.3062 218.515 54.4702C218.793 53.6342 218.933 52.6735 218.933 51.5882C218.933 50.6935 218.845 49.8135 218.669 48.9482C218.507 48.0682 218.243 47.2762 217.877 46.5722C217.525 45.8682 217.07 45.3108 216.513 44.9002C215.955 44.4748 215.295 44.2622 214.533 44.2622C213.711 44.2622 213.015 44.4968 212.443 44.9662C211.885 45.4355 211.467 46.0808 211.189 46.9022C210.91 47.7235 210.771 48.6768 210.771 49.7622C210.771 50.6715 210.859 51.5662 211.035 52.4462C211.211 53.3115 211.475 54.0962 211.827 54.8002C212.179 55.5042 212.626 56.0688 213.169 56.4942C213.726 56.9195 214.386 57.1322 215.149 57.1322ZM224.054 57.9022C223.936 57.9022 223.834 57.8802 223.746 57.8362C223.658 57.7775 223.614 57.6968 223.614 57.5942C223.614 57.3595 223.768 57.2055 224.076 57.1322C224.633 57.0148 225.014 56.8682 225.22 56.6922C225.425 56.5015 225.528 56.1642 225.528 55.6802V45.8242C225.528 45.3255 225.44 44.9662 225.264 44.7462C225.088 44.5115 224.736 44.3355 224.208 44.2182C224.017 44.1742 223.885 44.1155 223.812 44.0422C223.738 43.9542 223.702 43.8588 223.702 43.7562C223.702 43.6682 223.746 43.5948 223.834 43.5362C223.922 43.4628 224.039 43.4262 224.186 43.4262C224.538 43.4262 224.904 43.4335 225.286 43.4482C225.667 43.4628 226.041 43.4848 226.408 43.5142C226.774 43.5288 227.126 43.5362 227.464 43.5362C228.036 43.5362 228.659 43.5362 229.334 43.5362C230.023 43.5362 230.683 43.5362 231.314 43.5362C231.915 43.5362 232.458 43.4995 232.942 43.4262C233.44 43.3382 233.844 43.2942 234.152 43.2942C234.269 43.2942 234.386 43.3235 234.504 43.3822C234.621 43.4408 234.687 43.5508 234.702 43.7122C234.731 44.0495 234.753 44.4015 234.768 44.7682C234.782 45.1348 234.79 45.4868 234.79 45.8242C234.804 46.1615 234.812 46.4475 234.812 46.6822C234.812 46.9755 234.724 47.1222 234.548 47.1222C234.474 47.1222 234.386 47.0928 234.284 47.0342C234.196 46.9755 234.137 46.8875 234.108 46.7702C234.005 46.4035 233.895 46.0808 233.778 45.8022C233.66 45.5088 233.506 45.2668 233.316 45.0762C233.125 44.8708 232.898 44.7242 232.634 44.6362C232.384 44.5482 232.084 44.5042 231.732 44.5042H230.082C229.715 44.5042 229.429 44.5995 229.224 44.7902C229.018 44.9662 228.916 45.2082 228.916 45.5162C228.916 45.7802 228.916 46.0882 228.916 46.4402C228.916 46.7922 228.916 47.1075 228.916 47.3862C228.916 47.7088 228.916 48.0608 228.916 48.4422C228.916 48.8235 228.916 49.1755 228.916 49.4982C228.916 49.6888 228.96 49.8282 229.048 49.9162C229.136 49.9895 229.26 50.0262 229.422 50.0262C229.788 50.0262 230.155 50.0262 230.522 50.0262C230.888 50.0262 231.233 50.0262 231.556 50.0262C231.937 50.0262 232.216 49.9162 232.392 49.6962C232.568 49.4615 232.722 49.1902 232.854 48.8822C232.912 48.7648 232.978 48.6695 233.052 48.5962C233.14 48.5228 233.22 48.4862 233.294 48.4862C233.367 48.4862 233.433 48.5302 233.492 48.6182C233.565 48.7062 233.594 48.8235 233.58 48.9702C233.55 49.2782 233.521 49.5715 233.492 49.8502C233.477 50.1142 233.47 50.3488 233.47 50.5542C233.47 50.8328 233.477 51.0748 233.492 51.2802C233.506 51.4708 233.528 51.7348 233.558 52.0722C233.572 52.2628 233.558 52.4095 233.514 52.5122C233.47 52.6002 233.411 52.6442 233.338 52.6442C233.22 52.6442 233.11 52.5928 233.008 52.4902C232.92 52.3728 232.854 52.2482 232.81 52.1162C232.692 51.6762 232.546 51.3828 232.37 51.2362C232.194 51.0748 231.974 50.9942 231.71 50.9942C231.548 50.9942 231.372 50.9942 231.182 50.9942C231.006 50.9942 230.837 50.9942 230.676 50.9942C230.47 50.9942 230.25 50.9942 230.016 50.9942C229.796 50.9942 229.583 51.0015 229.378 51.0162C229.216 51.0162 229.092 51.0602 229.004 51.1482C228.93 51.2362 228.894 51.3608 228.894 51.5222C228.894 52.1822 228.894 52.8715 228.894 53.5902C228.908 54.3088 228.923 54.9982 228.938 55.6582C228.938 56.1275 229.062 56.4575 229.312 56.6482C229.561 56.8388 229.994 57.0002 230.61 57.1322C230.756 57.1615 230.866 57.2128 230.94 57.2862C231.028 57.3448 231.072 57.4402 231.072 57.5722C231.072 57.6748 231.035 57.7555 230.962 57.8142C230.903 57.8728 230.808 57.9022 230.676 57.9022C230.353 57.9022 229.979 57.8875 229.554 57.8582C229.128 57.8435 228.71 57.8288 228.3 57.8142C227.889 57.7995 227.537 57.7922 227.244 57.7922C226.95 57.7922 226.62 57.7995 226.254 57.8142C225.887 57.8288 225.513 57.8435 225.132 57.8582C224.75 57.8875 224.391 57.9022 224.054 57.9022ZM112.25 86.9022C112.147 86.9022 112.037 86.8802 111.92 86.8362C111.802 86.7775 111.744 86.6968 111.744 86.5942C111.744 86.4622 111.795 86.3595 111.898 86.2862C112 86.2128 112.125 86.1615 112.272 86.1322C112.829 86.0148 113.232 85.8608 113.482 85.6702C113.746 85.4795 113.878 85.1495 113.878 84.6802V75.5942C113.878 75.0222 113.863 74.6042 113.834 74.3402C113.804 74.0615 113.76 73.8782 113.702 73.7902C113.658 73.6875 113.599 73.6215 113.526 73.5922C113.394 73.5188 113.218 73.4822 112.998 73.4822C112.792 73.4675 112.624 73.4602 112.492 73.4602H112.008C111.538 73.4602 111.091 73.5775 110.666 73.8122C110.255 74.0322 109.925 74.3108 109.676 74.6482C109.602 74.7508 109.492 74.8975 109.346 75.0882C109.214 75.2642 109.067 75.4255 108.906 75.5722C108.759 75.7042 108.612 75.7702 108.466 75.7702C108.348 75.7702 108.268 75.7335 108.224 75.6602C108.18 75.5722 108.158 75.4768 108.158 75.3742C108.158 75.1982 108.202 75.0148 108.29 74.8242C108.568 74.2668 108.774 73.7902 108.906 73.3942C109.038 72.9982 109.126 72.5435 109.17 72.0302C109.199 71.8102 109.265 71.6635 109.368 71.5902C109.47 71.5022 109.588 71.4582 109.72 71.4582C109.822 71.4582 109.932 71.5535 110.05 71.7442C110.167 71.9348 110.292 72.0888 110.424 72.2062C110.57 72.3235 110.812 72.4115 111.15 72.4702C111.502 72.5288 111.788 72.5582 112.008 72.5582H120.28C120.646 72.5582 120.954 72.5215 121.204 72.4482C121.468 72.3748 121.666 72.3015 121.798 72.2282C122.032 72.0962 122.216 71.9495 122.348 71.7882C122.494 71.6268 122.663 71.5462 122.854 71.5462C122.942 71.5462 123 71.5828 123.03 71.6562C123.074 71.7148 123.096 71.8028 123.096 71.9202C123.096 71.9788 123.088 72.0522 123.074 72.1402C123.074 72.2282 123.066 72.3088 123.052 72.3822C122.978 72.6608 122.905 72.9322 122.832 73.1962C122.758 73.4455 122.7 73.6875 122.656 73.9222C122.612 74.1568 122.59 74.3988 122.59 74.6482V75.0882C122.59 75.3228 122.56 75.5135 122.502 75.6602C122.458 75.8068 122.362 75.8802 122.216 75.8802C122.084 75.8802 121.974 75.8142 121.886 75.6822C121.798 75.5355 121.702 75.3082 121.6 75.0002C121.438 74.4722 121.196 74.0835 120.874 73.8342C120.566 73.5848 120.089 73.4602 119.444 73.4602H118.3C118.05 73.4602 117.845 73.5188 117.684 73.6362C117.537 73.7388 117.427 73.9588 117.354 74.2962C117.28 74.6188 117.244 75.1175 117.244 75.7922V84.6582C117.244 85.0982 117.361 85.4208 117.596 85.6262C117.845 85.8168 118.256 85.9855 118.828 86.1322C118.974 86.1762 119.099 86.2275 119.202 86.2862C119.304 86.3448 119.356 86.4402 119.356 86.5722C119.356 86.6748 119.312 86.7555 119.224 86.8142C119.136 86.8728 119.026 86.9022 118.894 86.9022C118.571 86.9022 118.204 86.8875 117.794 86.8582C117.398 86.8435 116.994 86.8288 116.584 86.8142C116.188 86.7995 115.843 86.7922 115.55 86.7922C115.242 86.7922 114.89 86.7995 114.494 86.8142C114.112 86.8288 113.724 86.8435 113.328 86.8582C112.946 86.8875 112.587 86.9022 112.25 86.9022ZM123.873 86.9022C123.77 86.9022 123.667 86.8802 123.565 86.8362C123.477 86.7775 123.433 86.6968 123.433 86.5942C123.433 86.3595 123.587 86.2055 123.895 86.1322C124.408 86.0148 124.753 85.8682 124.929 85.6922C125.119 85.5015 125.215 85.1715 125.215 84.7022V74.7142C125.215 74.2302 125.127 73.8928 124.951 73.7022C124.789 73.5115 124.452 73.3502 123.939 73.2182C123.616 73.1448 123.455 72.9908 123.455 72.7562C123.455 72.6535 123.499 72.5728 123.587 72.5142C123.689 72.4555 123.792 72.4262 123.895 72.4262C124.232 72.4262 124.577 72.4335 124.929 72.4482C125.281 72.4628 125.625 72.4848 125.963 72.5142C126.3 72.5288 126.615 72.5362 126.909 72.5362C127.202 72.5362 127.532 72.5288 127.899 72.5142C128.28 72.4995 128.661 72.4848 129.043 72.4702C129.439 72.4555 129.798 72.4482 130.121 72.4482C130.385 72.4482 130.517 72.5582 130.517 72.7782C130.517 72.9102 130.473 73.0055 130.385 73.0642C130.311 73.1228 130.201 73.1742 130.055 73.2182C129.468 73.3795 129.079 73.5628 128.889 73.7682C128.698 73.9735 128.603 74.2962 128.603 74.7362V78.6962C128.603 78.8135 128.632 78.8942 128.691 78.9382C128.764 78.9822 128.852 79.0042 128.955 79.0042H134.763C134.953 79.0042 135.049 78.9015 135.049 78.6962V74.7362C135.049 74.2962 134.953 73.9735 134.763 73.7682C134.587 73.5628 134.205 73.3795 133.619 73.2182C133.457 73.1742 133.333 73.1228 133.245 73.0642C133.171 73.0055 133.135 72.9102 133.135 72.7782C133.135 72.5582 133.274 72.4482 133.553 72.4482C133.875 72.4482 134.235 72.4555 134.631 72.4702C135.027 72.4848 135.415 72.4995 135.797 72.5142C136.178 72.5288 136.515 72.5362 136.809 72.5362C137.087 72.5362 137.388 72.5288 137.711 72.5142C138.048 72.4848 138.385 72.4628 138.723 72.4482C139.075 72.4335 139.419 72.4262 139.757 72.4262C139.874 72.4262 139.977 72.4555 140.065 72.5142C140.153 72.5728 140.197 72.6535 140.197 72.7562C140.197 72.9908 140.043 73.1448 139.735 73.2182C139.207 73.3502 138.855 73.5188 138.679 73.7242C138.517 73.9148 138.437 74.2448 138.437 74.7142V84.6802C138.437 85.1642 138.525 85.5015 138.701 85.6922C138.891 85.8682 139.236 86.0148 139.735 86.1322C140.043 86.2055 140.197 86.3595 140.197 86.5942C140.197 86.6968 140.153 86.7775 140.065 86.8362C139.977 86.8802 139.881 86.9022 139.779 86.9022C139.471 86.9022 139.141 86.8875 138.789 86.8582C138.437 86.8435 138.085 86.8288 137.733 86.8142C137.381 86.7995 137.058 86.7922 136.765 86.7922C136.471 86.7922 136.134 86.7995 135.753 86.8142C135.386 86.8288 135.005 86.8435 134.609 86.8582C134.213 86.8875 133.853 86.9022 133.531 86.9022C133.413 86.9022 133.318 86.8728 133.245 86.8142C133.171 86.7555 133.135 86.6748 133.135 86.5722C133.135 86.4255 133.171 86.3302 133.245 86.2862C133.333 86.2275 133.45 86.1762 133.597 86.1322C134.154 85.9855 134.535 85.8168 134.741 85.6262C134.946 85.4208 135.049 85.1055 135.049 84.6802V80.5662C135.049 80.4488 135.027 80.3608 134.983 80.3022C134.953 80.2288 134.887 80.1922 134.785 80.1922H128.911C128.705 80.1922 128.603 80.3095 128.603 80.5442V84.6582C128.603 85.0688 128.713 85.3842 128.933 85.6042C129.153 85.8095 129.541 85.9855 130.099 86.1322C130.245 86.1762 130.355 86.2275 130.429 86.2862C130.517 86.3302 130.561 86.4255 130.561 86.5722C130.561 86.6748 130.524 86.7555 130.451 86.8142C130.392 86.8728 130.297 86.9022 130.165 86.9022C129.842 86.9022 129.483 86.8875 129.087 86.8582C128.691 86.8435 128.302 86.8288 127.921 86.8142C127.539 86.7995 127.202 86.7922 126.909 86.7922C126.615 86.7922 126.285 86.7995 125.919 86.8142C125.567 86.8288 125.207 86.8435 124.841 86.8582C124.489 86.8875 124.166 86.9022 123.873 86.9022ZM141.534 86.9462C141.387 86.9462 141.27 86.9095 141.182 86.8362C141.108 86.7775 141.072 86.7042 141.072 86.6162C141.072 86.3962 141.233 86.2422 141.556 86.1542C142.054 86.0222 142.406 85.8682 142.612 85.6922C142.832 85.5162 142.942 85.1935 142.942 84.7242V74.7142C142.942 74.2448 142.846 73.9075 142.656 73.7022C142.465 73.4968 142.106 73.3355 141.578 73.2182C141.387 73.1742 141.255 73.1155 141.182 73.0422C141.108 72.9542 141.072 72.8588 141.072 72.7562C141.072 72.6682 141.116 72.5948 141.204 72.5362C141.292 72.4628 141.409 72.4262 141.556 72.4262C141.922 72.4262 142.296 72.4335 142.678 72.4482C143.059 72.4628 143.433 72.4848 143.8 72.5142C144.166 72.5288 144.518 72.5362 144.856 72.5362C145.618 72.5362 146.432 72.5288 147.298 72.5142C148.163 72.4995 148.933 72.4848 149.608 72.4702C150.077 72.4702 150.466 72.4482 150.774 72.4042C151.082 72.3455 151.265 72.3162 151.324 72.3162C151.426 72.3162 151.536 72.3528 151.654 72.4262C151.786 72.4848 151.859 72.5875 151.874 72.7342C151.932 73.2622 152.006 73.7755 152.094 74.2742C152.182 74.7728 152.226 75.2128 152.226 75.5942C152.226 75.7262 152.196 75.8288 152.138 75.9022C152.079 75.9755 152.013 76.0122 151.94 76.0122C151.866 76.0122 151.786 75.9828 151.698 75.9242C151.624 75.8655 151.566 75.7775 151.522 75.6602C151.375 75.2935 151.243 74.9782 151.126 74.7142C151.008 74.4502 150.876 74.2375 150.73 74.0762C150.554 73.9148 150.341 73.7608 150.092 73.6142C149.842 73.4675 149.527 73.3942 149.146 73.3942H147.496C147.173 73.3942 146.894 73.4822 146.66 73.6582C146.425 73.8195 146.308 74.0542 146.308 74.3622V78.5202C146.308 78.6962 146.359 78.8282 146.462 78.9162C146.564 79.0042 146.696 79.0482 146.858 79.0482H148.794C149.175 79.0482 149.446 78.9235 149.608 78.6742C149.784 78.4102 149.938 78.0948 150.07 77.7282C150.172 77.4495 150.319 77.3102 150.51 77.3102C150.583 77.3102 150.649 77.3542 150.708 77.4422C150.766 77.5155 150.788 77.6328 150.774 77.7942C150.759 77.9702 150.744 78.1608 150.73 78.3662C150.715 78.5715 150.7 78.7768 150.686 78.9822C150.686 79.1875 150.686 79.3855 150.686 79.5762C150.686 79.7522 150.686 79.9428 150.686 80.1482C150.7 80.3535 150.708 80.5588 150.708 80.7642C150.722 80.9695 150.737 81.1675 150.752 81.3582C150.781 81.5635 150.774 81.7175 150.73 81.8202C150.686 81.9082 150.62 81.9522 150.532 81.9522C150.297 81.9522 150.128 81.7615 150.026 81.3802C149.894 80.9402 149.747 80.6028 149.586 80.3682C149.424 80.1335 149.197 80.0162 148.904 80.0162H146.858C146.682 80.0162 146.542 80.0602 146.44 80.1482C146.352 80.2215 146.308 80.3462 146.308 80.5222V84.7022C146.308 85.1422 146.403 85.4502 146.594 85.6262C146.784 85.8022 147.078 85.8902 147.474 85.8902H149.366C149.688 85.8902 149.996 85.8535 150.29 85.7802C150.583 85.7068 150.832 85.5822 151.038 85.4062C151.287 85.2008 151.514 84.9442 151.72 84.6362C151.925 84.3282 152.116 83.9982 152.292 83.6462C152.35 83.5435 152.409 83.4775 152.468 83.4482C152.541 83.4042 152.622 83.3822 152.71 83.3822C152.783 83.3822 152.834 83.4262 152.864 83.5142C152.908 83.6022 152.93 83.6975 152.93 83.8002C152.93 84.0495 152.893 84.3282 152.82 84.6362C152.746 84.9442 152.651 85.2742 152.534 85.6262C152.431 85.9635 152.328 86.3008 152.226 86.6382C152.196 86.7408 152.13 86.8142 152.028 86.8582C151.94 86.9022 151.844 86.9242 151.742 86.9242C151.551 86.9242 151.192 86.9168 150.664 86.9022C150.15 86.9022 149.542 86.8948 148.838 86.8802C148.134 86.8655 147.408 86.8508 146.66 86.8362C145.912 86.8362 145.215 86.8362 144.57 86.8362C144.276 86.8362 143.954 86.8435 143.602 86.8582C143.25 86.8728 142.89 86.8875 142.524 86.9022C142.172 86.9315 141.842 86.9462 141.534 86.9462ZM166.647 87.2102C166.529 87.2102 166.441 87.1515 166.383 87.0342C166.324 86.9168 166.258 86.7848 166.185 86.6382L160.641 74.6482C160.479 74.2962 160.296 74.0028 160.091 73.7682C159.885 73.5188 159.57 73.3428 159.145 73.2402C158.998 73.1815 158.851 73.1228 158.705 73.0642C158.573 73.0055 158.507 72.9028 158.507 72.7562C158.507 72.6535 158.573 72.5802 158.705 72.5362C158.837 72.4775 158.961 72.4482 159.079 72.4482C159.519 72.4482 160.01 72.4628 160.553 72.4922C161.11 72.5215 161.594 72.5362 162.005 72.5362C162.445 72.5362 162.892 72.5215 163.347 72.4922C163.801 72.4628 164.249 72.4482 164.689 72.4482C164.879 72.4482 165.033 72.4775 165.151 72.5362C165.283 72.5802 165.349 72.6535 165.349 72.7562C165.349 72.8882 165.29 72.9908 165.173 73.0642C165.055 73.1228 164.879 73.1742 164.645 73.2182C164.41 73.2768 164.271 73.3648 164.227 73.4822C164.183 73.5995 164.161 73.7388 164.161 73.9002C164.161 73.9882 164.175 74.1055 164.205 74.2522C164.234 74.3988 164.256 74.4942 164.271 74.5382C164.564 75.2275 164.857 75.9095 165.151 76.5842C165.444 77.2442 165.73 77.9115 166.009 78.5862C166.287 79.2462 166.573 79.9135 166.867 80.5882C167.16 81.2482 167.446 81.9302 167.725 82.6342C167.798 82.7955 167.857 82.8835 167.901 82.8982C167.945 82.9128 168.011 82.8322 168.099 82.6562L169.309 80.3682C169.353 80.2802 169.382 80.2068 169.397 80.1482C169.426 80.0748 169.441 80.0088 169.441 79.9502C169.441 79.8915 169.426 79.8328 169.397 79.7742C169.382 79.7008 169.36 79.6202 169.331 79.5322L167.065 74.7142C166.918 74.3475 166.698 74.0395 166.405 73.7902C166.111 73.5262 165.745 73.3428 165.305 73.2402C165.158 73.1815 165.033 73.1228 164.931 73.0642C164.843 73.0055 164.799 72.9028 164.799 72.7562C164.799 72.6535 164.843 72.5802 164.931 72.5362C165.019 72.4775 165.121 72.4482 165.239 72.4482C165.532 72.4482 165.869 72.4555 166.251 72.4702C166.632 72.4848 167.006 72.4995 167.373 72.5142C167.754 72.5288 168.084 72.5362 168.363 72.5362C168.788 72.5362 169.221 72.5215 169.661 72.4922C170.115 72.4628 170.563 72.4482 171.003 72.4482C171.223 72.4482 171.399 72.4775 171.531 72.5362C171.663 72.5802 171.729 72.6535 171.729 72.7562C171.729 72.8442 171.692 72.9248 171.619 72.9982C171.545 73.0568 171.443 73.1082 171.311 73.1522C171.193 73.1962 171.069 73.2475 170.937 73.3062C170.673 73.3648 170.519 73.4675 170.475 73.6142C170.445 73.7608 170.46 73.9222 170.519 74.0982C170.577 74.2302 170.643 74.4208 170.717 74.6702C170.805 74.9048 170.9 75.1615 171.003 75.4402C171.12 75.7042 171.223 75.9608 171.311 76.2102C171.413 76.4595 171.494 76.6575 171.553 76.8042C171.655 77.0242 171.729 77.1122 171.773 77.0682C171.831 77.0242 171.89 76.9362 171.949 76.8042C172.051 76.5988 172.169 76.3348 172.301 76.0122C172.433 75.6748 172.557 75.3448 172.675 75.0222C172.792 74.6995 172.88 74.4575 172.939 74.2962C173.012 74.1788 173.049 74.0395 173.049 73.8782C173.049 73.6582 172.953 73.5042 172.763 73.4162C172.587 73.3135 172.411 73.2255 172.235 73.1522C172.059 73.0642 171.971 72.9395 171.971 72.7782C171.971 72.6902 171.993 72.6168 172.037 72.5582C172.095 72.4995 172.242 72.4702 172.477 72.4702C172.873 72.4702 173.129 72.4848 173.247 72.5142C173.379 72.5288 173.547 72.5362 173.753 72.5362C173.987 72.5215 174.207 72.4995 174.413 72.4702C174.618 72.4408 174.933 72.4262 175.359 72.4262C175.535 72.4262 175.689 72.4555 175.821 72.5142C175.953 72.5582 176.019 72.6462 176.019 72.7782C176.019 72.9248 175.953 73.0275 175.821 73.0862C175.703 73.1302 175.571 73.1742 175.425 73.2182C174.97 73.3355 174.64 73.5115 174.435 73.7462C174.229 73.9808 174.039 74.2668 173.863 74.6042C173.716 74.8828 173.555 75.1982 173.379 75.5502C173.203 75.9022 173.027 76.2615 172.851 76.6282C172.689 76.9948 172.528 77.3395 172.367 77.6622C172.293 77.8382 172.264 78.0215 172.279 78.2122C172.293 78.3882 172.337 78.5715 172.411 78.7622L174.105 82.6562C174.149 82.7882 174.193 82.8395 174.237 82.8102C174.295 82.7662 174.339 82.7002 174.369 82.6122C174.926 81.3655 175.476 80.0675 176.019 78.7182C176.561 77.3688 177.045 76.1222 177.471 74.9782C177.617 74.6115 177.698 74.3622 177.713 74.2302C177.742 74.0835 177.749 73.9735 177.735 73.9002C177.72 73.7388 177.661 73.5995 177.559 73.4822C177.456 73.3648 177.309 73.2842 177.119 73.2402C176.972 73.1962 176.818 73.1375 176.657 73.0642C176.51 72.9908 176.437 72.8882 176.437 72.7562C176.437 72.6535 176.503 72.5802 176.635 72.5362C176.767 72.4922 176.913 72.4702 177.075 72.4702C177.515 72.4702 177.823 72.4848 177.999 72.5142C178.189 72.5288 178.395 72.5288 178.615 72.5142C178.849 72.4995 179.091 72.4775 179.341 72.4482C179.59 72.4188 179.92 72.4042 180.331 72.4042C180.536 72.4042 180.712 72.4262 180.859 72.4702C181.005 72.5142 181.079 72.6095 181.079 72.7562C181.079 72.8882 180.998 72.9835 180.837 73.0422C180.69 73.0862 180.543 73.1375 180.397 73.1962C180.089 73.2695 179.832 73.3868 179.627 73.5482C179.421 73.7095 179.253 73.8928 179.121 74.0982C178.989 74.2888 178.871 74.5015 178.769 74.7362L173.643 86.7482C173.599 86.8655 173.54 86.9608 173.467 87.0342C173.393 87.1075 173.305 87.1442 173.203 87.1442C173.085 87.1442 172.983 87.1075 172.895 87.0342C172.821 86.9755 172.748 86.8728 172.675 86.7262C172.513 86.3595 172.315 85.9342 172.081 85.4502C171.846 84.9662 171.575 84.3942 171.267 83.7342C170.959 83.0595 170.599 82.2675 170.189 81.3582C170.145 81.2555 170.093 81.2115 170.035 81.2262C169.976 81.2408 169.925 81.2922 169.881 81.3802C169.587 81.9668 169.287 82.5535 168.979 83.1402C168.671 83.7268 168.363 84.3208 168.055 84.9222C167.747 85.5088 167.439 86.0955 167.131 86.6822C167.072 86.8288 167.006 86.9535 166.933 87.0562C166.874 87.1588 166.779 87.2102 166.647 87.2102ZM188.241 87.1442C187.229 87.1442 186.261 86.9755 185.337 86.6382C184.428 86.2862 183.614 85.7948 182.895 85.1642C182.191 84.5188 181.634 83.7562 181.223 82.8762C180.827 81.9815 180.629 80.9915 180.629 79.9062C180.629 78.9088 180.79 77.9555 181.113 77.0462C181.45 76.1222 181.949 75.3008 182.609 74.5822C183.269 73.8635 184.083 73.2915 185.051 72.8662C186.034 72.4408 187.163 72.2282 188.439 72.2282C189.466 72.2282 190.434 72.4042 191.343 72.7562C192.267 73.0935 193.081 73.5848 193.785 74.2302C194.489 74.8608 195.046 75.6235 195.457 76.5182C195.868 77.3982 196.073 78.3808 196.073 79.4662C196.073 80.4488 195.904 81.4022 195.567 82.3262C195.23 83.2502 194.731 84.0715 194.071 84.7902C193.411 85.5088 192.59 86.0808 191.607 86.5062C190.639 86.9315 189.517 87.1442 188.241 87.1442ZM188.637 86.1322C189.473 86.1322 190.17 85.8975 190.727 85.4282C191.299 84.9588 191.724 84.3062 192.003 83.4702C192.282 82.6342 192.421 81.6735 192.421 80.5882C192.421 79.6935 192.333 78.8135 192.157 77.9482C191.996 77.0682 191.732 76.2762 191.365 75.5722C191.013 74.8682 190.558 74.3108 190.001 73.9002C189.444 73.4748 188.784 73.2622 188.021 73.2622C187.2 73.2622 186.503 73.4968 185.931 73.9662C185.374 74.4355 184.956 75.0808 184.677 75.9022C184.398 76.7235 184.259 77.6768 184.259 78.7622C184.259 79.6715 184.347 80.5662 184.523 81.4462C184.699 82.3115 184.963 83.0962 185.315 83.8002C185.667 84.5042 186.114 85.0688 186.657 85.4942C187.214 85.9195 187.874 86.1322 188.637 86.1322ZM210.896 87.2982C210.148 87.2982 209.517 87.2028 209.004 87.0122C208.491 86.8362 208.051 86.6015 207.684 86.3082C207.332 86.0002 207.017 85.6555 206.738 85.2742C206.415 84.8488 206.1 84.4235 205.792 83.9982C205.499 83.5728 205.205 83.1108 204.912 82.6122C204.619 82.1135 204.311 81.5415 203.988 80.8962C203.841 80.5735 203.643 80.3462 203.394 80.2142C203.262 80.1262 203.13 80.0675 202.998 80.0382C202.866 80.0088 202.749 79.9942 202.646 79.9942C202.573 79.9942 202.514 80.0382 202.47 80.1262C202.426 80.1995 202.404 80.3022 202.404 80.4342V84.6362C202.404 85.0908 202.529 85.4208 202.778 85.6262C203.027 85.8315 203.46 86.0002 204.076 86.1322C204.237 86.1615 204.355 86.2128 204.428 86.2862C204.516 86.3448 204.56 86.4402 204.56 86.5722C204.56 86.6748 204.523 86.7555 204.45 86.8142C204.377 86.8728 204.274 86.9022 204.142 86.9022C203.819 86.9022 203.445 86.8875 203.02 86.8582C202.609 86.8435 202.199 86.8288 201.788 86.8142C201.377 86.7995 201.025 86.7922 200.732 86.7922C200.424 86.7922 200.087 86.7995 199.72 86.8142C199.353 86.8288 198.972 86.8435 198.576 86.8582C198.195 86.8875 197.843 86.9022 197.52 86.9022C197.403 86.9022 197.3 86.8802 197.212 86.8362C197.124 86.7775 197.08 86.6968 197.08 86.5942C197.08 86.3595 197.234 86.2055 197.542 86.1322C198.099 86.0148 198.481 85.8682 198.686 85.6922C198.906 85.5015 199.016 85.1642 199.016 84.6802V74.8022C199.016 74.4502 198.979 74.1715 198.906 73.9662C198.847 73.7608 198.723 73.6068 198.532 73.5042C198.341 73.3868 198.063 73.2915 197.696 73.2182C197.505 73.1742 197.373 73.1155 197.3 73.0422C197.227 72.9542 197.19 72.8588 197.19 72.7562C197.19 72.6682 197.234 72.5948 197.322 72.5362C197.41 72.4628 197.527 72.4262 197.674 72.4262C198.143 72.4262 198.525 72.4408 198.818 72.4702C199.126 72.4995 199.412 72.5288 199.676 72.5582C199.955 72.5728 200.277 72.5802 200.644 72.5802C200.981 72.5802 201.275 72.5655 201.524 72.5362C201.788 72.4922 202.081 72.4555 202.404 72.4262C202.741 72.3968 203.167 72.3822 203.68 72.3822C205.396 72.3822 206.716 72.6755 207.64 73.2622C208.564 73.8488 209.026 74.7362 209.026 75.9242C209.026 76.5842 208.879 77.1415 208.586 77.5962C208.307 78.0362 207.948 78.4028 207.508 78.6962C207.083 78.9748 206.65 79.1875 206.21 79.3342C206.151 79.3488 206.122 79.3855 206.122 79.4442C206.137 79.4882 206.159 79.5395 206.188 79.5982C206.628 80.2435 207.053 80.8742 207.464 81.4902C207.889 82.0915 208.322 82.6562 208.762 83.1842C209.202 83.6975 209.657 84.1742 210.126 84.6142C210.625 85.0835 211.131 85.3622 211.644 85.4502C212.172 85.5235 212.693 85.5602 213.206 85.5602C213.426 85.5602 213.536 85.6922 213.536 85.9562C213.536 86.2788 213.419 86.5428 213.184 86.7482C212.964 86.9388 212.656 87.0782 212.26 87.1662C211.864 87.2542 211.409 87.2982 210.896 87.2982ZM203.24 79.2902C203.797 79.2902 204.259 79.1655 204.626 78.9162C204.993 78.6668 205.271 78.3295 205.462 77.9042C205.653 77.4642 205.748 76.9655 205.748 76.4082C205.748 75.7335 205.66 75.1688 205.484 74.7142C205.308 74.2595 205.044 73.9222 204.692 73.7022C204.34 73.4675 203.885 73.3502 203.328 73.3502C203.005 73.3502 202.771 73.4822 202.624 73.7462C202.492 73.9955 202.426 74.5382 202.426 75.3742C202.411 75.7115 202.404 76.1368 202.404 76.6502C202.404 77.1635 202.404 77.7722 202.404 78.4762C202.404 78.7695 202.477 78.9822 202.624 79.1142C202.785 79.2315 202.991 79.2902 203.24 79.2902ZM221.825 86.9902C221.326 86.9902 220.776 86.9755 220.175 86.9462C219.588 86.9168 219.038 86.8875 218.525 86.8582C218.011 86.8435 217.623 86.8362 217.359 86.8362C217.065 86.8362 216.743 86.8362 216.391 86.8362C216.039 86.8508 215.672 86.8655 215.291 86.8802C214.924 86.8948 214.572 86.9022 214.235 86.9022C214.132 86.9022 214.037 86.8802 213.949 86.8362C213.861 86.7775 213.817 86.6968 213.817 86.5942C213.817 86.4622 213.853 86.3595 213.927 86.2862C214.015 86.2128 214.132 86.1615 214.279 86.1322C214.836 86.0148 215.217 85.8682 215.423 85.6922C215.628 85.5015 215.731 85.1715 215.731 84.7022V74.7142C215.731 74.2448 215.635 73.9148 215.445 73.7242C215.254 73.5188 214.865 73.3502 214.279 73.2182C214.132 73.1888 214.015 73.1375 213.927 73.0642C213.853 72.9908 213.817 72.8882 213.817 72.7562C213.817 72.6535 213.861 72.5728 213.949 72.5142C214.037 72.4555 214.132 72.4262 214.235 72.4262C214.572 72.4262 214.924 72.4335 215.291 72.4482C215.672 72.4628 216.039 72.4848 216.391 72.5142C216.757 72.5288 217.087 72.5362 217.381 72.5362C217.615 72.5362 217.923 72.5288 218.305 72.5142C218.686 72.4848 219.097 72.4628 219.537 72.4482C219.991 72.4188 220.424 72.3968 220.835 72.3822C221.26 72.3528 221.605 72.3382 221.869 72.3382C222.983 72.3382 224.01 72.5142 224.949 72.8662C225.902 73.2035 226.731 73.6948 227.435 74.3402C228.153 74.9708 228.711 75.7188 229.107 76.5842C229.503 77.4495 229.701 78.4028 229.701 79.4442C229.701 80.4268 229.525 81.3728 229.173 82.2822C228.821 83.1768 228.307 83.9835 227.633 84.7022C226.958 85.4062 226.137 85.9635 225.169 86.3742C224.201 86.7848 223.086 86.9902 221.825 86.9902ZM221.495 85.8682C222.492 85.8682 223.328 85.6262 224.003 85.1422C224.677 84.6435 225.176 83.9615 225.499 83.0962C225.836 82.2162 226.005 81.1968 226.005 80.0382C226.005 79.0555 225.895 78.1682 225.675 77.3762C225.469 76.5695 225.161 75.8802 224.751 75.3082C224.355 74.7362 223.856 74.2962 223.255 73.9882C222.668 73.6655 222.001 73.5042 221.253 73.5042C220.783 73.5042 220.387 73.5188 220.065 73.5482C219.757 73.5775 219.522 73.6508 219.361 73.7682C219.199 73.8855 219.119 74.0762 219.119 74.3402V83.9322C219.119 84.4162 219.207 84.7975 219.383 85.0762C219.573 85.3548 219.845 85.5602 220.197 85.6922C220.563 85.8095 220.996 85.8682 221.495 85.8682Z" fill="white"/>
</svg>
