<svg width="215" height="125" viewBox="0 0 215 125" fill="none" xmlns="http://www.w3.org/2000/svg">
<path d="M0 10C0 4.47715 4.47715 0 10 0H215V125H10C4.47716 125 0 120.523 0 115V10Z" fill="#75149C"/>
<path d="M14.8467 54.9266C14.7294 54.9266 14.6267 54.9046 14.5387 54.8606C14.4507 54.8019 14.4067 54.7213 14.4067 54.6186C14.4067 54.3839 14.5607 54.2299 14.8687 54.1566C15.426 54.0393 15.8147 53.8926 16.0347 53.7166C16.2547 53.5259 16.3647 53.1959 16.3647 52.7266V42.7386C16.3647 42.2693 16.2694 41.9393 16.0787 41.7486C15.888 41.5433 15.4994 41.3746 14.9127 41.2426C14.6047 41.1693 14.4507 41.0153 14.4507 40.7806C14.4507 40.6779 14.4947 40.5973 14.5827 40.5386C14.6707 40.4799 14.7734 40.4506 14.8907 40.4506C15.228 40.4506 15.58 40.4579 15.9467 40.4726C16.328 40.4873 16.6947 40.5093 17.0467 40.5386C17.4134 40.5533 17.7507 40.5606 18.0587 40.5606C18.352 40.5606 18.682 40.5533 19.0487 40.5386C19.43 40.5239 19.8114 40.5093 20.1927 40.4946C20.5887 40.4799 20.948 40.4726 21.2707 40.4726C21.4027 40.4726 21.5054 40.5019 21.5787 40.5606C21.652 40.6046 21.6887 40.6779 21.6887 40.7806C21.6887 40.9273 21.6447 41.0299 21.5567 41.0886C21.4834 41.1473 21.366 41.1986 21.2047 41.2426C20.618 41.4039 20.2294 41.5873 20.0387 41.7926C19.848 41.9833 19.7527 42.3059 19.7527 42.7606V52.7046C19.7527 53.1299 19.8554 53.4453 20.0607 53.6506C20.2807 53.8413 20.6767 54.0099 21.2487 54.1566C21.3954 54.2006 21.5054 54.2519 21.5787 54.3106C21.6667 54.3693 21.7107 54.4646 21.7107 54.5966C21.7107 54.6993 21.674 54.7799 21.6007 54.8386C21.542 54.8973 21.4467 54.9266 21.3147 54.9266C20.992 54.9266 20.6327 54.9119 20.2367 54.8826C19.8407 54.8679 19.452 54.8533 19.0707 54.8386C18.6894 54.8239 18.352 54.8166 18.0587 54.8166C17.7507 54.8166 17.4134 54.8239 17.0467 54.8386C16.68 54.8533 16.306 54.8679 15.9247 54.8826C15.5434 54.9119 15.184 54.9266 14.8467 54.9266ZM37.0284 55.2786C36.8377 55.2786 36.5297 55.1613 36.1044 54.9266C35.679 54.7066 35.239 54.3106 34.7844 53.7386C34.4324 53.3719 34.0657 52.9759 33.6844 52.5506C33.303 52.1253 32.8997 51.6853 32.4744 51.2306C32.049 50.7759 31.6164 50.3139 31.1764 49.8446C30.751 49.3753 30.3257 48.9133 29.9004 48.4586C29.475 47.9893 29.0497 47.5273 28.6244 47.0726C28.199 46.6179 27.7957 46.1779 27.4144 45.7526C27.033 45.3273 26.6664 44.9313 26.3144 44.5646C26.285 44.5059 26.2337 44.4546 26.1604 44.4106C26.1017 44.3519 26.0577 44.3226 26.0284 44.3226C25.9697 44.3226 25.9257 44.3739 25.8964 44.4766C25.8817 44.5793 25.8744 44.6673 25.8744 44.7406C25.8597 45.4153 25.8597 46.2073 25.8744 47.1166C25.889 48.0259 25.9037 48.9499 25.9184 49.8886C25.9477 50.8126 25.9624 51.6559 25.9624 52.4186C25.9624 52.8879 26.109 53.2619 26.4024 53.5406C26.6957 53.8046 27.1284 54.0099 27.7004 54.1566C27.8617 54.1859 28.001 54.2373 28.1184 54.3106C28.2504 54.3693 28.3164 54.4646 28.3164 54.5966C28.3164 54.6993 28.2577 54.7799 28.1404 54.8386C28.023 54.8973 27.8984 54.9266 27.7664 54.9266C27.3704 54.9266 27.0477 54.9119 26.7984 54.8826C26.549 54.8679 26.3144 54.8606 26.0944 54.8606C25.889 54.8459 25.6324 54.8386 25.3244 54.8386C25.0017 54.8386 24.6937 54.8459 24.4004 54.8606C24.1217 54.8753 23.8797 54.8899 23.6744 54.9046C23.4837 54.9193 23.3517 54.9266 23.2784 54.9266C23.1757 54.9266 23.0584 54.9046 22.9264 54.8606C22.809 54.8019 22.7504 54.7213 22.7504 54.6186C22.7504 54.4866 22.809 54.3913 22.9264 54.3326C23.0437 54.2739 23.1757 54.2153 23.3224 54.1566C23.6744 54.0246 23.9384 53.8046 24.1144 53.4966C24.305 53.1886 24.415 52.8073 24.4444 52.3526C24.503 51.8099 24.5617 51.0913 24.6204 50.1966C24.6937 49.3019 24.7597 48.2973 24.8184 47.1826C24.877 46.0533 24.9064 44.8873 24.9064 43.6846C24.9064 42.9219 24.7084 42.3719 24.3124 42.0346C23.931 41.6973 23.4617 41.4259 22.9044 41.2206C22.787 41.1913 22.655 41.1399 22.5084 41.0666C22.3617 40.9786 22.2884 40.8686 22.2884 40.7366C22.2884 40.6046 22.347 40.5166 22.4644 40.4726C22.5817 40.4139 22.7137 40.3846 22.8604 40.3846C23.1244 40.3846 23.4177 40.3919 23.7404 40.4066C24.0777 40.4213 24.4297 40.4359 24.7964 40.4506C25.163 40.4506 25.5444 40.4579 25.9404 40.4726C26.3364 40.4873 26.7324 40.4946 27.1284 40.4946C27.2457 40.4946 27.3337 40.5166 27.3924 40.5606C27.4657 40.6046 27.5317 40.6633 27.5904 40.7366C27.913 41.1033 28.2577 41.4993 28.6244 41.9246C29.0057 42.3499 29.4017 42.7973 29.8124 43.2666C30.223 43.7213 30.641 44.1906 31.0664 44.6746C31.4917 45.1439 31.9097 45.6206 32.3204 46.1046C32.7457 46.5886 33.1564 47.0579 33.5524 47.5126C33.963 47.9673 34.359 48.4073 34.7404 48.8326C35.1217 49.2579 35.4737 49.6539 35.7964 50.0206C35.8404 50.0793 35.8917 50.1453 35.9504 50.2186C36.0237 50.2773 36.0897 50.3066 36.1484 50.3066C36.2657 50.3066 36.3244 50.1966 36.3244 49.9766C36.3244 49.5219 36.3244 48.9939 36.3244 48.3926C36.339 47.7913 36.3464 47.1533 36.3464 46.4786C36.3464 45.8039 36.339 45.1366 36.3244 44.4766C36.3244 43.8166 36.3097 43.2079 36.2804 42.6506C36.2657 42.2546 36.1117 41.9613 35.8184 41.7706C35.5397 41.5653 35.151 41.3966 34.6524 41.2646C34.491 41.2353 34.3517 41.1839 34.2344 41.1106C34.117 41.0373 34.0584 40.9346 34.0584 40.8026C34.0584 40.6999 34.117 40.6266 34.2344 40.5826C34.3517 40.5239 34.4764 40.4946 34.6084 40.4946C34.9457 40.4946 35.2317 40.5019 35.4664 40.5166C35.701 40.5166 35.9137 40.5166 36.1044 40.5166C36.295 40.5166 36.5077 40.5166 36.7424 40.5166C37.0357 40.5166 37.285 40.5166 37.4904 40.5166C37.6957 40.5019 37.9157 40.4873 38.1504 40.4726C38.3997 40.4579 38.715 40.4506 39.0964 40.4506C39.2724 40.4506 39.4044 40.4799 39.4924 40.5386C39.595 40.5973 39.6464 40.6779 39.6464 40.7806C39.6464 41.0006 39.4557 41.1473 39.0744 41.2206C38.561 41.3233 38.1944 41.4699 37.9744 41.6606C37.7544 41.8513 37.637 42.1593 37.6224 42.5846C37.6224 43.1126 37.615 43.6773 37.6004 44.2786C37.6004 44.8799 37.5857 45.4959 37.5564 46.1266C37.527 46.7573 37.4977 47.3879 37.4684 48.0186C37.4537 48.6346 37.439 49.2286 37.4244 49.8006C37.4097 50.3726 37.4024 50.9006 37.4024 51.3846C37.4024 51.7219 37.4244 52.0959 37.4684 52.5066C37.5124 52.9026 37.549 53.2693 37.5784 53.6066C37.6224 53.9293 37.6444 54.1566 37.6444 54.2886C37.6444 54.6553 37.5857 54.9119 37.4684 55.0586C37.3657 55.2053 37.219 55.2786 37.0284 55.2786ZM44.3894 54.9266C44.2868 54.9266 44.1768 54.9046 44.0594 54.8606C43.9421 54.8019 43.8834 54.7213 43.8834 54.6186C43.8834 54.4866 43.9348 54.3839 44.0374 54.3106C44.1401 54.2373 44.2648 54.1859 44.4114 54.1566C44.9688 54.0393 45.3721 53.8853 45.6214 53.6946C45.8854 53.5039 46.0174 53.1739 46.0174 52.7046V43.6186C46.0174 43.0466 46.0028 42.6286 45.9734 42.3646C45.9441 42.0859 45.9001 41.9026 45.8414 41.8146C45.7974 41.7119 45.7388 41.6459 45.6654 41.6166C45.5334 41.5433 45.3574 41.5066 45.1374 41.5066C44.9321 41.4919 44.7634 41.4846 44.6314 41.4846H44.1474C43.6781 41.4846 43.2308 41.6019 42.8054 41.8366C42.3948 42.0566 42.0648 42.3353 41.8154 42.6726C41.7421 42.7753 41.6321 42.9219 41.4854 43.1126C41.3534 43.2886 41.2068 43.4499 41.0454 43.5966C40.8988 43.7286 40.7521 43.7946 40.6054 43.7946C40.4881 43.7946 40.4074 43.7579 40.3634 43.6846C40.3194 43.5966 40.2974 43.5013 40.2974 43.3986C40.2974 43.2226 40.3414 43.0393 40.4294 42.8486C40.7081 42.2913 40.9134 41.8146 41.0454 41.4186C41.1774 41.0226 41.2654 40.5679 41.3094 40.0546C41.3388 39.8346 41.4048 39.6879 41.5074 39.6146C41.6101 39.5266 41.7274 39.4826 41.8594 39.4826C41.9621 39.4826 42.0721 39.5779 42.1894 39.7686C42.3068 39.9593 42.4314 40.1133 42.5634 40.2306C42.7101 40.3479 42.9521 40.4359 43.2894 40.4946C43.6414 40.5533 43.9274 40.5826 44.1474 40.5826H52.4194C52.7861 40.5826 53.0941 40.5459 53.3434 40.4726C53.6074 40.3993 53.8054 40.3259 53.9374 40.2526C54.1721 40.1206 54.3554 39.9739 54.4874 39.8126C54.6341 39.6513 54.8028 39.5706 54.9934 39.5706C55.0814 39.5706 55.1401 39.6073 55.1694 39.6806C55.2134 39.7393 55.2354 39.8273 55.2354 39.9446C55.2354 40.0033 55.2281 40.0766 55.2134 40.1646C55.2134 40.2526 55.2061 40.3333 55.1914 40.4066C55.1181 40.6853 55.0448 40.9566 54.9714 41.2206C54.8981 41.4699 54.8394 41.7119 54.7954 41.9466C54.7514 42.1813 54.7294 42.4233 54.7294 42.6726V43.1126C54.7294 43.3473 54.7001 43.5379 54.6414 43.6846C54.5974 43.8313 54.5021 43.9046 54.3554 43.9046C54.2234 43.9046 54.1134 43.8386 54.0254 43.7066C53.9374 43.5599 53.8421 43.3326 53.7394 43.0246C53.5781 42.4966 53.3361 42.1079 53.0134 41.8586C52.7054 41.6093 52.2288 41.4846 51.5834 41.4846H50.4394C50.1901 41.4846 49.9848 41.5433 49.8234 41.6606C49.6768 41.7633 49.5668 41.9833 49.4934 42.3206C49.4201 42.6433 49.3834 43.1419 49.3834 43.8166V52.6826C49.3834 53.1226 49.5008 53.4453 49.7354 53.6506C49.9848 53.8413 50.3954 54.0099 50.9674 54.1566C51.1141 54.2006 51.2388 54.2519 51.3414 54.3106C51.4441 54.3693 51.4954 54.4646 51.4954 54.5966C51.4954 54.6993 51.4514 54.7799 51.3634 54.8386C51.2754 54.8973 51.1654 54.9266 51.0334 54.9266C50.7108 54.9266 50.3441 54.9119 49.9334 54.8826C49.5374 54.8679 49.1341 54.8533 48.7234 54.8386C48.3274 54.8239 47.9828 54.8166 47.6894 54.8166C47.3814 54.8166 47.0294 54.8239 46.6334 54.8386C46.2521 54.8533 45.8634 54.8679 45.4674 54.8826C45.0861 54.9119 44.7268 54.9266 44.3894 54.9266ZM69.3443 55.3226C68.5963 55.3226 67.9656 55.2273 67.4523 55.0366C66.939 54.8606 66.499 54.6259 66.1323 54.3326C65.7803 54.0246 65.465 53.6799 65.1863 53.2986C64.8636 52.8733 64.5483 52.4479 64.2403 52.0226C63.947 51.5973 63.6536 51.1353 63.3603 50.6366C63.067 50.1379 62.759 49.5659 62.4363 48.9206C62.2896 48.5979 62.0916 48.3706 61.8423 48.2386C61.7103 48.1506 61.5783 48.0919 61.4463 48.0626C61.3143 48.0333 61.197 48.0186 61.0943 48.0186C61.021 48.0186 60.9623 48.0626 60.9183 48.1506C60.8743 48.2239 60.8523 48.3266 60.8523 48.4586V52.6606C60.8523 53.1153 60.977 53.4453 61.2263 53.6506C61.4756 53.8559 61.9083 54.0246 62.5243 54.1566C62.6856 54.1859 62.803 54.2373 62.8763 54.3106C62.9643 54.3693 63.0083 54.4646 63.0083 54.5966C63.0083 54.6993 62.9716 54.7799 62.8983 54.8386C62.825 54.8973 62.7223 54.9266 62.5903 54.9266C62.2676 54.9266 61.8936 54.9119 61.4683 54.8826C61.0576 54.8679 60.647 54.8533 60.2363 54.8386C59.8256 54.8239 59.4736 54.8166 59.1803 54.8166C58.8723 54.8166 58.535 54.8239 58.1683 54.8386C57.8016 54.8533 57.4203 54.8679 57.0243 54.8826C56.643 54.9119 56.291 54.9266 55.9683 54.9266C55.851 54.9266 55.7483 54.9046 55.6603 54.8606C55.5723 54.8019 55.5283 54.7213 55.5283 54.6186C55.5283 54.3839 55.6823 54.2299 55.9903 54.1566C56.5476 54.0393 56.929 53.8926 57.1343 53.7166C57.3543 53.5259 57.4643 53.1886 57.4643 52.7046V42.8266C57.4643 42.4746 57.4276 42.1959 57.3543 41.9906C57.2956 41.7853 57.171 41.6313 56.9803 41.5286C56.7896 41.4113 56.511 41.3159 56.1443 41.2426C55.9536 41.1986 55.8216 41.1399 55.7483 41.0666C55.675 40.9786 55.6383 40.8833 55.6383 40.7806C55.6383 40.6926 55.6823 40.6193 55.7703 40.5606C55.8583 40.4873 55.9756 40.4506 56.1223 40.4506C56.5916 40.4506 56.973 40.4653 57.2663 40.4946C57.5743 40.5239 57.8603 40.5533 58.1243 40.5826C58.403 40.5973 58.7256 40.6046 59.0923 40.6046C59.4296 40.6046 59.723 40.5899 59.9723 40.5606C60.2363 40.5166 60.5296 40.4799 60.8523 40.4506C61.1896 40.4213 61.615 40.4066 62.1283 40.4066C63.8443 40.4066 65.1643 40.6999 66.0883 41.2866C67.0123 41.8733 67.4743 42.7606 67.4743 43.9486C67.4743 44.6086 67.3276 45.1659 67.0343 45.6206C66.7556 46.0606 66.3963 46.4273 65.9563 46.7206C65.531 46.9993 65.0983 47.2119 64.6583 47.3586C64.5996 47.3733 64.5703 47.4099 64.5703 47.4686C64.585 47.5126 64.607 47.5639 64.6363 47.6226C65.0763 48.2679 65.5016 48.8986 65.9123 49.5146C66.3376 50.1159 66.7703 50.6806 67.2103 51.2086C67.6503 51.7219 68.105 52.1986 68.5743 52.6386C69.073 53.1079 69.579 53.3866 70.0923 53.4746C70.6203 53.5479 71.141 53.5846 71.6543 53.5846C71.8743 53.5846 71.9843 53.7166 71.9843 53.9806C71.9843 54.3033 71.867 54.5673 71.6323 54.7726C71.4123 54.9633 71.1043 55.1026 70.7083 55.1906C70.3123 55.2786 69.8576 55.3226 69.3443 55.3226ZM61.6883 47.3146C62.2456 47.3146 62.7076 47.1899 63.0743 46.9406C63.441 46.6913 63.7196 46.3539 63.9103 45.9286C64.101 45.4886 64.1963 44.9899 64.1963 44.4326C64.1963 43.7579 64.1083 43.1933 63.9323 42.7386C63.7563 42.2839 63.4923 41.9466 63.1403 41.7266C62.7883 41.4919 62.3336 41.3746 61.7763 41.3746C61.4536 41.3746 61.219 41.5066 61.0723 41.7706C60.9403 42.0199 60.8743 42.5626 60.8743 43.3986C60.8596 43.7359 60.8523 44.1613 60.8523 44.6746C60.8523 45.1879 60.8523 45.7966 60.8523 46.5006C60.8523 46.7939 60.9256 47.0066 61.0723 47.1386C61.2336 47.2559 61.439 47.3146 61.6883 47.3146ZM79.4961 55.1686C78.4841 55.1686 77.5161 54.9999 76.5921 54.6626C75.6828 54.3106 74.8688 53.8193 74.1501 53.1886C73.4461 52.5433 72.8888 51.7806 72.4781 50.9006C72.0821 50.0059 71.8841 49.0159 71.8841 47.9306C71.8841 46.9333 72.0454 45.9799 72.3681 45.0706C72.7054 44.1466 73.2041 43.3253 73.8641 42.6066C74.5241 41.8879 75.3381 41.3159 76.3061 40.8906C77.2888 40.4653 78.4181 40.2526 79.6941 40.2526C80.7208 40.2526 81.6888 40.4286 82.5981 40.7806C83.5221 41.1179 84.3361 41.6093 85.0401 42.2546C85.7441 42.8853 86.3014 43.6479 86.7121 44.5426C87.1228 45.4226 87.3281 46.4053 87.3281 47.4906C87.3281 48.4733 87.1594 49.4266 86.8221 50.3506C86.4848 51.2746 85.9861 52.0959 85.3261 52.8146C84.6661 53.5333 83.8448 54.1053 82.8621 54.5306C81.8941 54.9559 80.7721 55.1686 79.4961 55.1686ZM79.8921 54.1566C80.7281 54.1566 81.4248 53.9219 81.9821 53.4526C82.5541 52.9833 82.9794 52.3306 83.2581 51.4946C83.5368 50.6586 83.6761 49.6979 83.6761 48.6126C83.6761 47.7179 83.5881 46.8379 83.4121 45.9726C83.2508 45.0926 82.9868 44.3006 82.6201 43.5966C82.2681 42.8926 81.8134 42.3353 81.2561 41.9246C80.6988 41.4993 80.0388 41.2866 79.2761 41.2866C78.4548 41.2866 77.7581 41.5213 77.1861 41.9906C76.6288 42.4599 76.2108 43.1053 75.9321 43.9266C75.6534 44.7479 75.5141 45.7013 75.5141 46.7866C75.5141 47.6959 75.6021 48.5906 75.7781 49.4706C75.9541 50.3359 76.2181 51.1206 76.5701 51.8246C76.9221 52.5286 77.3694 53.0933 77.9121 53.5186C78.4694 53.9439 79.1294 54.1566 79.8921 54.1566ZM96.3649 55.0146C95.8663 55.0146 95.3163 54.9999 94.7149 54.9706C94.1283 54.9413 93.5783 54.9119 93.0649 54.8826C92.5516 54.8679 92.1629 54.8606 91.8989 54.8606C91.6056 54.8606 91.2829 54.8606 90.9309 54.8606C90.5789 54.8753 90.2123 54.8899 89.8309 54.9046C89.4643 54.9193 89.1123 54.9266 88.7749 54.9266C88.6723 54.9266 88.5769 54.9046 88.4889 54.8606C88.4009 54.8019 88.3569 54.7213 88.3569 54.6186C88.3569 54.4866 88.3936 54.3839 88.4669 54.3106C88.5549 54.2373 88.6723 54.1859 88.8189 54.1566C89.3763 54.0393 89.7576 53.8926 89.9629 53.7166C90.1683 53.5259 90.2709 53.1959 90.2709 52.7266V42.7386C90.2709 42.2693 90.1756 41.9393 89.9849 41.7486C89.7943 41.5433 89.4056 41.3746 88.8189 41.2426C88.6723 41.2133 88.5549 41.1619 88.4669 41.0886C88.3936 41.0153 88.3569 40.9126 88.3569 40.7806C88.3569 40.6779 88.4009 40.5973 88.4889 40.5386C88.5769 40.4799 88.6723 40.4506 88.7749 40.4506C89.1123 40.4506 89.4643 40.4579 89.8309 40.4726C90.2123 40.4873 90.5789 40.5093 90.9309 40.5386C91.2976 40.5533 91.6276 40.5606 91.9209 40.5606C92.1556 40.5606 92.4636 40.5533 92.8449 40.5386C93.2263 40.5093 93.6369 40.4873 94.0769 40.4726C94.5316 40.4433 94.9643 40.4213 95.3749 40.4066C95.8003 40.3773 96.1449 40.3626 96.4089 40.3626C97.5236 40.3626 98.5503 40.5386 99.4889 40.8906C100.442 41.2279 101.271 41.7193 101.975 42.3646C102.694 42.9953 103.251 43.7433 103.647 44.6086C104.043 45.4739 104.241 46.4273 104.241 47.4686C104.241 48.4513 104.065 49.3973 103.713 50.3066C103.361 51.2013 102.848 52.0079 102.173 52.7266C101.498 53.4306 100.677 53.9879 99.7089 54.3986C98.7409 54.8093 97.6263 55.0146 96.3649 55.0146ZM96.0349 53.8926C97.0323 53.8926 97.8683 53.6506 98.5429 53.1666C99.2176 52.6679 99.7163 51.9859 100.039 51.1206C100.376 50.2406 100.545 49.2213 100.545 48.0626C100.545 47.0799 100.435 46.1926 100.215 45.4006C100.01 44.5939 99.7016 43.9046 99.2909 43.3326C98.8949 42.7606 98.3963 42.3206 97.7949 42.0126C97.2083 41.6899 96.5409 41.5286 95.7929 41.5286C95.3236 41.5286 94.9276 41.5433 94.6049 41.5726C94.2969 41.6019 94.0623 41.6753 93.9009 41.7926C93.7396 41.9099 93.6589 42.1006 93.6589 42.3646V51.9566C93.6589 52.4406 93.7469 52.8219 93.9229 53.1006C94.1136 53.3793 94.3849 53.5846 94.7369 53.7166C95.1036 53.8339 95.5363 53.8926 96.0349 53.8926ZM113.011 55.1686C111.632 55.1686 110.481 54.9266 109.557 54.4426C108.633 53.9439 107.936 53.2546 107.467 52.3746C107.012 51.4946 106.785 50.4679 106.785 49.2946V43.0246C106.785 42.6139 106.689 42.2399 106.499 41.9026C106.308 41.5653 106.029 41.3526 105.663 41.2646C105.252 41.1473 105.047 40.9859 105.047 40.7806C105.047 40.6779 105.098 40.5973 105.201 40.5386C105.318 40.4799 105.457 40.4506 105.619 40.4506C106.088 40.4506 106.572 40.4726 107.071 40.5166C107.569 40.5459 108.039 40.5606 108.479 40.5606C108.889 40.5606 109.381 40.5459 109.953 40.5166C110.539 40.4873 111.038 40.4726 111.449 40.4726C111.625 40.4726 111.764 40.5019 111.867 40.5606C111.984 40.6046 112.043 40.6853 112.043 40.8026C112.043 40.9639 111.933 41.0813 111.713 41.1546C111.493 41.2279 111.258 41.3233 111.009 41.4406C110.789 41.5286 110.598 41.7119 110.437 41.9906C110.275 42.2546 110.195 42.6359 110.195 43.1346V48.8986C110.195 49.8959 110.356 50.7173 110.679 51.3626C111.001 52.0079 111.427 52.4846 111.955 52.7926C112.497 53.1006 113.099 53.2546 113.759 53.2546C115.093 53.2546 116.083 52.8586 116.729 52.0666C117.389 51.2746 117.719 50.0646 117.719 48.4366C117.719 48.0553 117.719 47.6299 117.719 47.1606C117.733 46.6766 117.741 46.1853 117.741 45.6866C117.741 45.1733 117.733 44.6893 117.719 44.2346C117.704 43.5746 117.653 43.0613 117.565 42.6946C117.491 42.3279 117.374 42.0419 117.213 41.8366C117.051 41.6313 116.831 41.4626 116.553 41.3306C116.391 41.2426 116.201 41.1693 115.981 41.1106C115.775 41.0373 115.673 40.9346 115.673 40.8026C115.673 40.6853 115.731 40.6046 115.849 40.5606C115.966 40.5166 116.127 40.4946 116.333 40.4946C116.861 40.4946 117.257 40.5019 117.521 40.5166C117.799 40.5313 118.107 40.5386 118.445 40.5386C118.723 40.5386 118.951 40.5313 119.127 40.5166C119.317 40.5019 119.508 40.4873 119.699 40.4726C119.904 40.4579 120.146 40.4506 120.425 40.4506C120.601 40.4506 120.74 40.4726 120.843 40.5166C120.945 40.5606 120.997 40.6486 120.997 40.7806C120.997 40.9713 120.799 41.1253 120.403 41.2426C119.919 41.3746 119.574 41.6019 119.369 41.9246C119.178 42.2326 119.068 42.6506 119.039 43.1786C118.995 44.2933 118.965 45.3199 118.951 46.2586C118.936 47.1826 118.929 48.1286 118.929 49.0966C118.914 50.2846 118.643 51.3406 118.115 52.2646C117.601 53.1739 116.897 53.8853 116.003 54.3986C115.108 54.9119 114.111 55.1686 113.011 55.1686ZM130.107 55.1686C128.963 55.1686 127.893 54.9999 126.895 54.6626C125.898 54.3106 125.018 53.8193 124.255 53.1886C123.493 52.5433 122.899 51.7733 122.473 50.8786C122.048 49.9839 121.835 48.9939 121.835 47.9086C121.835 46.8966 122.033 45.9359 122.429 45.0266C122.84 44.1026 123.434 43.2886 124.211 42.5846C124.989 41.8659 125.92 41.3013 127.005 40.8906C128.105 40.4653 129.345 40.2526 130.723 40.2526C131.193 40.2526 131.662 40.2893 132.131 40.3626C132.615 40.4213 133.077 40.5093 133.517 40.6266C133.972 40.7439 134.383 40.8686 134.749 41.0006C134.881 41.0593 134.991 41.1399 135.079 41.2426C135.182 41.3306 135.241 41.4626 135.255 41.6386C135.314 42.1226 135.358 42.5919 135.387 43.0466C135.417 43.5013 135.431 43.9119 135.431 44.2786C135.431 44.4399 135.373 44.5499 135.255 44.6086C135.138 44.6673 135.006 44.6746 134.859 44.6306C134.727 44.5719 134.632 44.4546 134.573 44.2786C134.471 43.9413 134.346 43.6039 134.199 43.2666C134.067 42.9293 133.862 42.6359 133.583 42.3866C133.29 42.0933 132.879 41.8513 132.351 41.6606C131.838 41.4699 131.215 41.3746 130.481 41.3746C129.733 41.3746 129.051 41.5359 128.435 41.8586C127.834 42.1813 127.313 42.6213 126.873 43.1786C126.448 43.7359 126.118 44.3666 125.883 45.0706C125.649 45.7746 125.531 46.5079 125.531 47.2706C125.531 48.2386 125.634 49.1406 125.839 49.9766C126.045 50.7979 126.36 51.5093 126.785 52.1106C127.211 52.7119 127.731 53.1813 128.347 53.5186C128.963 53.8559 129.689 54.0246 130.525 54.0246C131.611 54.0246 132.491 53.7973 133.165 53.3426C133.84 52.8733 134.405 52.1619 134.859 51.2086C134.977 50.9446 135.138 50.8199 135.343 50.8346C135.563 50.8493 135.673 50.9739 135.673 51.2086C135.673 51.3993 135.651 51.6339 135.607 51.9126C135.578 52.1766 135.527 52.4626 135.453 52.7706C135.38 53.0786 135.292 53.3939 135.189 53.7166C135.131 53.8926 135.05 54.0319 134.947 54.1346C134.859 54.2226 134.742 54.3033 134.595 54.3766C134.038 54.6113 133.378 54.8019 132.615 54.9486C131.853 55.0953 131.017 55.1686 130.107 55.1686ZM141.327 54.9266C141.224 54.9266 141.114 54.9046 140.997 54.8606C140.88 54.8019 140.821 54.7213 140.821 54.6186C140.821 54.4866 140.872 54.3839 140.975 54.3106C141.078 54.2373 141.202 54.1859 141.349 54.1566C141.906 54.0393 142.31 53.8853 142.559 53.6946C142.823 53.5039 142.955 53.1739 142.955 52.7046V43.6186C142.955 43.0466 142.94 42.6286 142.911 42.3646C142.882 42.0859 142.838 41.9026 142.779 41.8146C142.735 41.7119 142.676 41.6459 142.603 41.6166C142.471 41.5433 142.295 41.5066 142.075 41.5066C141.87 41.4919 141.701 41.4846 141.569 41.4846H141.085C140.616 41.4846 140.168 41.6019 139.743 41.8366C139.332 42.0566 139.002 42.3353 138.753 42.6726C138.68 42.7753 138.57 42.9219 138.423 43.1126C138.291 43.2886 138.144 43.4499 137.983 43.5966C137.836 43.7286 137.69 43.7946 137.543 43.7946C137.426 43.7946 137.345 43.7579 137.301 43.6846C137.257 43.5966 137.235 43.5013 137.235 43.3986C137.235 43.2226 137.279 43.0393 137.367 42.8486C137.646 42.2913 137.851 41.8146 137.983 41.4186C138.115 41.0226 138.203 40.5679 138.247 40.0546C138.276 39.8346 138.342 39.6879 138.445 39.6146C138.548 39.5266 138.665 39.4826 138.797 39.4826C138.9 39.4826 139.01 39.5779 139.127 39.7686C139.244 39.9593 139.369 40.1133 139.501 40.2306C139.648 40.3479 139.89 40.4359 140.227 40.4946C140.579 40.5533 140.865 40.5826 141.085 40.5826H149.357C149.724 40.5826 150.032 40.5459 150.281 40.4726C150.545 40.3993 150.743 40.3259 150.875 40.2526C151.11 40.1206 151.293 39.9739 151.425 39.8126C151.572 39.6513 151.74 39.5706 151.931 39.5706C152.019 39.5706 152.078 39.6073 152.107 39.6806C152.151 39.7393 152.173 39.8273 152.173 39.9446C152.173 40.0033 152.166 40.0766 152.151 40.1646C152.151 40.2526 152.144 40.3333 152.129 40.4066C152.056 40.6853 151.982 40.9566 151.909 41.2206C151.836 41.4699 151.777 41.7119 151.733 41.9466C151.689 42.1813 151.667 42.4233 151.667 42.6726V43.1126C151.667 43.3473 151.638 43.5379 151.579 43.6846C151.535 43.8313 151.44 43.9046 151.293 43.9046C151.161 43.9046 151.051 43.8386 150.963 43.7066C150.875 43.5599 150.78 43.3326 150.677 43.0246C150.516 42.4966 150.274 42.1079 149.951 41.8586C149.643 41.6093 149.166 41.4846 148.521 41.4846H147.377C147.128 41.4846 146.922 41.5433 146.761 41.6606C146.614 41.7633 146.504 41.9833 146.431 42.3206C146.358 42.6433 146.321 43.1419 146.321 43.8166V52.6826C146.321 53.1226 146.438 53.4453 146.673 53.6506C146.922 53.8413 147.333 54.0099 147.905 54.1566C148.052 54.2006 148.176 54.2519 148.279 54.3106C148.382 54.3693 148.433 54.4646 148.433 54.5966C148.433 54.6993 148.389 54.7799 148.301 54.8386C148.213 54.8973 148.103 54.9266 147.971 54.9266C147.648 54.9266 147.282 54.9119 146.871 54.8826C146.475 54.8679 146.072 54.8533 145.661 54.8386C145.265 54.8239 144.92 54.8166 144.627 54.8166C144.319 54.8166 143.967 54.8239 143.571 54.8386C143.19 54.8533 142.801 54.8679 142.405 54.8826C142.024 54.9119 141.664 54.9266 141.327 54.9266ZM159.912 55.1686C158.9 55.1686 157.932 54.9999 157.008 54.6626C156.099 54.3106 155.285 53.8193 154.566 53.1886C153.862 52.5433 153.305 51.7806 152.894 50.9006C152.498 50.0059 152.3 49.0159 152.3 47.9306C152.3 46.9333 152.461 45.9799 152.784 45.0706C153.121 44.1466 153.62 43.3253 154.28 42.6066C154.94 41.8879 155.754 41.3159 156.722 40.8906C157.705 40.4653 158.834 40.2526 160.11 40.2526C161.137 40.2526 162.105 40.4286 163.014 40.7806C163.938 41.1179 164.752 41.6093 165.456 42.2546C166.16 42.8853 166.717 43.6479 167.128 44.5426C167.539 45.4226 167.744 46.4053 167.744 47.4906C167.744 48.4733 167.575 49.4266 167.238 50.3506C166.901 51.2746 166.402 52.0959 165.742 52.8146C165.082 53.5333 164.261 54.1053 163.278 54.5306C162.31 54.9559 161.188 55.1686 159.912 55.1686ZM160.308 54.1566C161.144 54.1566 161.841 53.9219 162.398 53.4526C162.97 52.9833 163.395 52.3306 163.674 51.4946C163.953 50.6586 164.092 49.6979 164.092 48.6126C164.092 47.7179 164.004 46.8379 163.828 45.9726C163.667 45.0926 163.403 44.3006 163.036 43.5966C162.684 42.8926 162.229 42.3353 161.672 41.9246C161.115 41.4993 160.455 41.2866 159.692 41.2866C158.871 41.2866 158.174 41.5213 157.602 41.9906C157.045 42.4599 156.627 43.1053 156.348 43.9266C156.069 44.7479 155.93 45.7013 155.93 46.7866C155.93 47.6959 156.018 48.5906 156.194 49.4706C156.37 50.3359 156.634 51.1206 156.986 51.8246C157.338 52.5286 157.785 53.0933 158.328 53.5186C158.885 53.9439 159.545 54.1566 160.308 54.1566ZM182.567 55.3226C181.819 55.3226 181.188 55.2273 180.675 55.0366C180.162 54.8606 179.722 54.6259 179.355 54.3326C179.003 54.0246 178.688 53.6799 178.409 53.2986C178.086 52.8733 177.771 52.4479 177.463 52.0226C177.17 51.5973 176.876 51.1353 176.583 50.6366C176.29 50.1379 175.982 49.5659 175.659 48.9206C175.512 48.5979 175.314 48.3706 175.065 48.2386C174.933 48.1506 174.801 48.0919 174.669 48.0626C174.537 48.0333 174.42 48.0186 174.317 48.0186C174.244 48.0186 174.185 48.0626 174.141 48.1506C174.097 48.2239 174.075 48.3266 174.075 48.4586V52.6606C174.075 53.1153 174.2 53.4453 174.449 53.6506C174.698 53.8559 175.131 54.0246 175.747 54.1566C175.908 54.1859 176.026 54.2373 176.099 54.3106C176.187 54.3693 176.231 54.4646 176.231 54.5966C176.231 54.6993 176.194 54.7799 176.121 54.8386C176.048 54.8973 175.945 54.9266 175.813 54.9266C175.49 54.9266 175.116 54.9119 174.691 54.8826C174.28 54.8679 173.87 54.8533 173.459 54.8386C173.048 54.8239 172.696 54.8166 172.403 54.8166C172.095 54.8166 171.758 54.8239 171.391 54.8386C171.024 54.8533 170.643 54.8679 170.247 54.8826C169.866 54.9119 169.514 54.9266 169.191 54.9266C169.074 54.9266 168.971 54.9046 168.883 54.8606C168.795 54.8019 168.751 54.7213 168.751 54.6186C168.751 54.3839 168.905 54.2299 169.213 54.1566C169.77 54.0393 170.152 53.8926 170.357 53.7166C170.577 53.5259 170.687 53.1886 170.687 52.7046V42.8266C170.687 42.4746 170.65 42.1959 170.577 41.9906C170.518 41.7853 170.394 41.6313 170.203 41.5286C170.012 41.4113 169.734 41.3159 169.367 41.2426C169.176 41.1986 169.044 41.1399 168.971 41.0666C168.898 40.9786 168.861 40.8833 168.861 40.7806C168.861 40.6926 168.905 40.6193 168.993 40.5606C169.081 40.4873 169.198 40.4506 169.345 40.4506C169.814 40.4506 170.196 40.4653 170.489 40.4946C170.797 40.5239 171.083 40.5533 171.347 40.5826C171.626 40.5973 171.948 40.6046 172.315 40.6046C172.652 40.6046 172.946 40.5899 173.195 40.5606C173.459 40.5166 173.752 40.4799 174.075 40.4506C174.412 40.4213 174.838 40.4066 175.351 40.4066C177.067 40.4066 178.387 40.6999 179.311 41.2866C180.235 41.8733 180.697 42.7606 180.697 43.9486C180.697 44.6086 180.55 45.1659 180.257 45.6206C179.978 46.0606 179.619 46.4273 179.179 46.7206C178.754 46.9993 178.321 47.2119 177.881 47.3586C177.822 47.3733 177.793 47.4099 177.793 47.4686C177.808 47.5126 177.83 47.5639 177.859 47.6226C178.299 48.2679 178.724 48.8986 179.135 49.5146C179.56 50.1159 179.993 50.6806 180.433 51.2086C180.873 51.7219 181.328 52.1986 181.797 52.6386C182.296 53.1079 182.802 53.3866 183.315 53.4746C183.843 53.5479 184.364 53.5846 184.877 53.5846C185.097 53.5846 185.207 53.7166 185.207 53.9806C185.207 54.3033 185.09 54.5673 184.855 54.7726C184.635 54.9633 184.327 55.1026 183.931 55.1906C183.535 55.2786 183.08 55.3226 182.567 55.3226ZM174.911 47.3146C175.468 47.3146 175.93 47.1899 176.297 46.9406C176.664 46.6913 176.942 46.3539 177.133 45.9286C177.324 45.4886 177.419 44.9899 177.419 44.4326C177.419 43.7579 177.331 43.1933 177.155 42.7386C176.979 42.2839 176.715 41.9466 176.363 41.7266C176.011 41.4919 175.556 41.3746 174.999 41.3746C174.676 41.3746 174.442 41.5066 174.295 41.7706C174.163 42.0199 174.097 42.5626 174.097 43.3986C174.082 43.7359 174.075 44.1613 174.075 44.6746C174.075 45.1879 174.075 45.7966 174.075 46.5006C174.075 46.7939 174.148 47.0066 174.295 47.1386C174.456 47.2559 174.662 47.3146 174.911 47.3146ZM187.576 54.9926C187.385 54.9926 187.231 54.9559 187.114 54.8826C186.997 54.8239 186.938 54.7433 186.938 54.6406C186.938 54.5086 187.004 54.4059 187.136 54.3326C187.268 54.2593 187.422 54.2079 187.598 54.1786C188.155 54.0613 188.544 53.8633 188.764 53.5846C188.984 53.2913 189.094 52.9099 189.094 52.4406V49.4046C189.094 48.8913 189.021 48.4659 188.874 48.1286C188.742 47.7913 188.588 47.4759 188.412 47.1826L185.574 42.8046C185.457 42.5993 185.317 42.3939 185.156 42.1886C184.995 41.9833 184.804 41.7999 184.584 41.6386C184.379 41.4626 184.137 41.3379 183.858 41.2646C183.711 41.2059 183.587 41.1473 183.484 41.0886C183.381 41.0299 183.33 40.9273 183.33 40.7806C183.33 40.6779 183.374 40.6046 183.462 40.5606C183.565 40.5019 183.675 40.4726 183.792 40.4726C184.408 40.4726 184.995 40.4946 185.552 40.5386C186.124 40.5826 186.725 40.6046 187.356 40.6046C187.84 40.6046 188.295 40.5826 188.72 40.5386C189.16 40.4946 189.622 40.4726 190.106 40.4726C190.238 40.4726 190.37 40.5019 190.502 40.5606C190.634 40.6046 190.7 40.6779 190.7 40.7806C190.7 40.8979 190.634 41.0006 190.502 41.0886C190.37 41.1619 190.223 41.2133 190.062 41.2426C189.666 41.3453 189.38 41.4553 189.204 41.5726C189.028 41.6753 188.94 41.8439 188.94 42.0786C188.94 42.2986 189.021 42.5553 189.182 42.8486L191.448 46.7426C191.58 47.0066 191.712 47.1386 191.844 47.1386C191.903 47.1386 191.961 47.1093 192.02 47.0506C192.093 46.9773 192.167 46.8746 192.24 46.7426C192.592 46.1413 192.922 45.5473 193.23 44.9606C193.553 44.3593 193.868 43.7213 194.176 43.0466C194.249 42.8999 194.308 42.7459 194.352 42.5846C194.411 42.4233 194.44 42.2766 194.44 42.1446C194.44 41.8659 194.308 41.6533 194.044 41.5066C193.795 41.3599 193.531 41.2793 193.252 41.2646C193.105 41.2353 192.951 41.1839 192.79 41.1106C192.643 41.0226 192.57 40.9126 192.57 40.7806C192.57 40.6779 192.636 40.6046 192.768 40.5606C192.915 40.5166 193.061 40.4946 193.208 40.4946C193.633 40.4946 194.015 40.5093 194.352 40.5386C194.689 40.5679 195.056 40.5826 195.452 40.5826C195.833 40.5826 196.2 40.5606 196.552 40.5166C196.904 40.4579 197.285 40.4286 197.696 40.4286C197.857 40.4286 198.004 40.4506 198.136 40.4946C198.283 40.5386 198.356 40.6339 198.356 40.7806C198.356 40.9126 198.283 41.0079 198.136 41.0666C197.989 41.1253 197.835 41.1839 197.674 41.2426C197.234 41.3453 196.86 41.5286 196.552 41.7926C196.244 42.0566 195.98 42.3719 195.76 42.7386C195.525 43.1199 195.291 43.4939 195.056 43.8606C194.836 44.2126 194.616 44.5646 194.396 44.9166C194.191 45.2686 193.978 45.6206 193.758 45.9726C193.538 46.3246 193.318 46.6913 193.098 47.0726C192.981 47.2779 192.871 47.4906 192.768 47.7106C192.68 47.9306 192.607 48.1579 192.548 48.3926C192.504 48.6273 192.482 48.8986 192.482 49.2066V52.4406C192.482 52.9833 192.592 53.3719 192.812 53.6066C193.032 53.8266 193.428 54.0173 194 54.1786C194.176 54.2226 194.323 54.2739 194.44 54.3326C194.572 54.3913 194.638 54.4866 194.638 54.6186C194.638 54.7213 194.579 54.8019 194.462 54.8606C194.359 54.9339 194.227 54.9706 194.066 54.9706C193.743 54.9706 193.384 54.9559 192.988 54.9266C192.592 54.8973 192.196 54.8753 191.8 54.8606C191.419 54.8313 191.081 54.8166 190.788 54.8166C190.48 54.8166 190.143 54.8313 189.776 54.8606C189.409 54.8753 189.035 54.8973 188.654 54.9266C188.273 54.9706 187.913 54.9926 187.576 54.9926ZM90.9146 84.3226C90.1666 84.3226 89.5359 84.2273 89.0226 84.0366C88.5093 83.8606 88.0693 83.6259 87.7026 83.3326C87.3506 83.0246 87.0353 82.6799 86.7566 82.2986C86.4339 81.8733 86.1186 81.4479 85.8106 81.0226C85.5173 80.5973 85.2239 80.1353 84.9306 79.6366C84.6373 79.1379 84.3293 78.5659 84.0066 77.9206C83.8599 77.5979 83.6619 77.3706 83.4126 77.2386C83.2806 77.1506 83.1486 77.0919 83.0166 77.0626C82.8846 77.0333 82.7673 77.0186 82.6646 77.0186C82.5913 77.0186 82.5326 77.0626 82.4886 77.1506C82.4446 77.2239 82.4226 77.3266 82.4226 77.4586V81.6606C82.4226 82.1153 82.5473 82.4453 82.7966 82.6506C83.0459 82.8559 83.4786 83.0246 84.0946 83.1566C84.2559 83.1859 84.3733 83.2373 84.4466 83.3106C84.5346 83.3693 84.5786 83.4646 84.5786 83.5966C84.5786 83.6993 84.5419 83.7799 84.4686 83.8386C84.3953 83.8973 84.2926 83.9266 84.1606 83.9266C83.8379 83.9266 83.4639 83.9119 83.0386 83.8826C82.6279 83.8679 82.2173 83.8533 81.8066 83.8386C81.3959 83.8239 81.0439 83.8166 80.7506 83.8166C80.4426 83.8166 80.1053 83.8239 79.7386 83.8386C79.3719 83.8533 78.9906 83.8679 78.5946 83.8826C78.2133 83.9119 77.8613 83.9266 77.5386 83.9266C77.4213 83.9266 77.3186 83.9046 77.2306 83.8606C77.1426 83.8019 77.0986 83.7213 77.0986 83.6186C77.0986 83.3839 77.2526 83.2299 77.5606 83.1566C78.1179 83.0393 78.4993 82.8926 78.7046 82.7166C78.9246 82.5259 79.0346 82.1886 79.0346 81.7046V71.8266C79.0346 71.4746 78.9979 71.1959 78.9246 70.9906C78.8659 70.7853 78.7413 70.6313 78.5506 70.5286C78.3599 70.4113 78.0813 70.3159 77.7146 70.2426C77.5239 70.1986 77.3919 70.1399 77.3186 70.0666C77.2453 69.9786 77.2086 69.8833 77.2086 69.7806C77.2086 69.6926 77.2526 69.6193 77.3406 69.5606C77.4286 69.4873 77.5459 69.4506 77.6926 69.4506C78.1619 69.4506 78.5433 69.4653 78.8366 69.4946C79.1446 69.5239 79.4306 69.5533 79.6946 69.5826C79.9733 69.5973 80.2959 69.6046 80.6626 69.6046C80.9999 69.6046 81.2933 69.5899 81.5426 69.5606C81.8066 69.5166 82.0999 69.4799 82.4226 69.4506C82.7599 69.4213 83.1853 69.4066 83.6986 69.4066C85.4146 69.4066 86.7346 69.6999 87.6586 70.2866C88.5826 70.8733 89.0446 71.7606 89.0446 72.9486C89.0446 73.6086 88.8979 74.1659 88.6046 74.6206C88.3259 75.0606 87.9666 75.4273 87.5266 75.7206C87.1013 75.9993 86.6686 76.2119 86.2286 76.3586C86.1699 76.3733 86.1406 76.4099 86.1406 76.4686C86.1553 76.5126 86.1773 76.5639 86.2066 76.6226C86.6466 77.2679 87.0719 77.8986 87.4826 78.5146C87.9079 79.1159 88.3406 79.6806 88.7806 80.2086C89.2206 80.7219 89.6753 81.1986 90.1446 81.6386C90.6433 82.1079 91.1493 82.3866 91.6626 82.4746C92.1906 82.5479 92.7113 82.5846 93.2246 82.5846C93.4446 82.5846 93.5546 82.7166 93.5546 82.9806C93.5546 83.3033 93.4373 83.5673 93.2026 83.7726C92.9826 83.9633 92.6746 84.1026 92.2786 84.1906C91.8826 84.2786 91.4279 84.3226 90.9146 84.3226ZM83.2586 76.3146C83.8159 76.3146 84.2779 76.1899 84.6446 75.9406C85.0113 75.6913 85.2899 75.3539 85.4806 74.9286C85.6713 74.4886 85.7666 73.9899 85.7666 73.4326C85.7666 72.7579 85.6786 72.1933 85.5026 71.7386C85.3266 71.2839 85.0626 70.9466 84.7106 70.7266C84.3586 70.4919 83.9039 70.3746 83.3466 70.3746C83.0239 70.3746 82.7893 70.5066 82.6426 70.7706C82.5106 71.0199 82.4446 71.5626 82.4446 72.3986C82.4299 72.7359 82.4226 73.1613 82.4226 73.6746C82.4226 74.1879 82.4226 74.7966 82.4226 75.5006C82.4226 75.7939 82.4959 76.0066 82.6426 76.1386C82.8039 76.2559 83.0093 76.3146 83.2586 76.3146ZM94.2315 83.9266C94.1141 83.9266 94.0115 83.9046 93.9235 83.8606C93.8355 83.8019 93.7915 83.7213 93.7915 83.6186C93.7915 83.3839 93.9455 83.2299 94.2535 83.1566C94.8108 83.0393 95.1995 82.8926 95.4195 82.7166C95.6395 82.5259 95.7495 82.1959 95.7495 81.7266V71.7386C95.7495 71.2693 95.6541 70.9393 95.4635 70.7486C95.2728 70.5433 94.8841 70.3746 94.2975 70.2426C93.9895 70.1693 93.8355 70.0153 93.8355 69.7806C93.8355 69.6779 93.8795 69.5973 93.9675 69.5386C94.0555 69.4799 94.1581 69.4506 94.2755 69.4506C94.6128 69.4506 94.9648 69.4579 95.3315 69.4726C95.7128 69.4873 96.0795 69.5093 96.4315 69.5386C96.7981 69.5533 97.1355 69.5606 97.4435 69.5606C97.7368 69.5606 98.0668 69.5533 98.4335 69.5386C98.8148 69.5239 99.1961 69.5093 99.5775 69.4946C99.9735 69.4799 100.333 69.4726 100.655 69.4726C100.787 69.4726 100.89 69.5019 100.963 69.5606C101.037 69.6046 101.073 69.6779 101.073 69.7806C101.073 69.9273 101.029 70.0299 100.941 70.0886C100.868 70.1473 100.751 70.1986 100.589 70.2426C100.003 70.4039 99.6141 70.5873 99.4235 70.7926C99.2328 70.9833 99.1375 71.3059 99.1375 71.7606V81.7046C99.1375 82.1299 99.2401 82.4453 99.4455 82.6506C99.6655 82.8413 100.061 83.0099 100.633 83.1566C100.78 83.2006 100.89 83.2519 100.963 83.3106C101.051 83.3693 101.095 83.4646 101.095 83.5966C101.095 83.6993 101.059 83.7799 100.985 83.8386C100.927 83.8973 100.831 83.9266 100.699 83.9266C100.377 83.9266 100.017 83.9119 99.6215 83.8826C99.2255 83.8679 98.8368 83.8533 98.4555 83.8386C98.0741 83.8239 97.7368 83.8166 97.4435 83.8166C97.1355 83.8166 96.7981 83.8239 96.4315 83.8386C96.0648 83.8533 95.6908 83.8679 95.3095 83.8826C94.9281 83.9119 94.5688 83.9266 94.2315 83.9266ZM105.985 83.9266C105.882 83.9266 105.772 83.9046 105.655 83.8606C105.538 83.8019 105.479 83.7213 105.479 83.6186C105.479 83.4866 105.53 83.3839 105.633 83.3106C105.736 83.2373 105.86 83.1859 106.007 83.1566C106.564 83.0393 106.968 82.8853 107.217 82.6946C107.481 82.5039 107.613 82.1739 107.613 81.7046V72.6186C107.613 72.0466 107.598 71.6286 107.569 71.3646C107.54 71.0859 107.496 70.9026 107.437 70.8146C107.393 70.7119 107.334 70.6459 107.261 70.6166C107.129 70.5433 106.953 70.5066 106.733 70.5066C106.528 70.4919 106.359 70.4846 106.227 70.4846H105.743C105.274 70.4846 104.826 70.6019 104.401 70.8366C103.99 71.0566 103.66 71.3353 103.411 71.6726C103.338 71.7753 103.228 71.9219 103.081 72.1126C102.949 72.2886 102.802 72.4499 102.641 72.5966C102.494 72.7286 102.348 72.7946 102.201 72.7946C102.084 72.7946 102.003 72.7579 101.959 72.6846C101.915 72.5966 101.893 72.5013 101.893 72.3986C101.893 72.2226 101.937 72.0393 102.025 71.8486C102.304 71.2913 102.509 70.8146 102.641 70.4186C102.773 70.0226 102.861 69.5679 102.905 69.0546C102.934 68.8346 103 68.6879 103.103 68.6146C103.206 68.5266 103.323 68.4826 103.455 68.4826C103.558 68.4826 103.668 68.5779 103.785 68.7686C103.902 68.9593 104.027 69.1133 104.159 69.2306C104.306 69.3479 104.548 69.4359 104.885 69.4946C105.237 69.5533 105.523 69.5826 105.743 69.5826H114.015C114.382 69.5826 114.69 69.5459 114.939 69.4726C115.203 69.3993 115.401 69.3259 115.533 69.2526C115.768 69.1206 115.951 68.9739 116.083 68.8126C116.23 68.6513 116.398 68.5706 116.589 68.5706C116.677 68.5706 116.736 68.6073 116.765 68.6806C116.809 68.7393 116.831 68.8273 116.831 68.9446C116.831 69.0033 116.824 69.0766 116.809 69.1646C116.809 69.2526 116.802 69.3333 116.787 69.4066C116.714 69.6853 116.64 69.9566 116.567 70.2206C116.494 70.4699 116.435 70.7119 116.391 70.9466C116.347 71.1813 116.325 71.4233 116.325 71.6726V72.1126C116.325 72.3473 116.296 72.5379 116.237 72.6846C116.193 72.8313 116.098 72.9046 115.951 72.9046C115.819 72.9046 115.709 72.8386 115.621 72.7066C115.533 72.5599 115.438 72.3326 115.335 72.0246C115.174 71.4966 114.932 71.1079 114.609 70.8586C114.301 70.6093 113.824 70.4846 113.179 70.4846H112.035C111.786 70.4846 111.58 70.5433 111.419 70.6606C111.272 70.7633 111.162 70.9833 111.089 71.3206C111.016 71.6433 110.979 72.1419 110.979 72.8166V81.6826C110.979 82.1226 111.096 82.4453 111.331 82.6506C111.58 82.8413 111.991 83.0099 112.563 83.1566C112.71 83.2006 112.834 83.2519 112.937 83.3106C113.04 83.3693 113.091 83.4646 113.091 83.5966C113.091 83.6993 113.047 83.7799 112.959 83.8386C112.871 83.8973 112.761 83.9266 112.629 83.9266C112.306 83.9266 111.94 83.9119 111.529 83.8826C111.133 83.8679 110.73 83.8533 110.319 83.8386C109.923 83.8239 109.578 83.8166 109.285 83.8166C108.977 83.8166 108.625 83.8239 108.229 83.8386C107.848 83.8533 107.459 83.8679 107.063 83.8826C106.682 83.9119 106.322 83.9266 105.985 83.9266ZM117.652 83.9706C117.505 83.9706 117.388 83.9339 117.3 83.8606C117.227 83.8019 117.19 83.7286 117.19 83.6406C117.19 83.4206 117.351 83.2666 117.674 83.1786C118.173 83.0466 118.525 82.8926 118.73 82.7166C118.95 82.5406 119.06 82.2179 119.06 81.7486V71.7386C119.06 71.2693 118.965 70.9319 118.774 70.7266C118.583 70.5213 118.224 70.3599 117.696 70.2426C117.505 70.1986 117.373 70.1399 117.3 70.0666C117.227 69.9786 117.19 69.8833 117.19 69.7806C117.19 69.6926 117.234 69.6193 117.322 69.5606C117.41 69.4873 117.527 69.4506 117.674 69.4506C118.041 69.4506 118.415 69.4579 118.796 69.4726C119.177 69.4873 119.551 69.5093 119.918 69.5386C120.285 69.5533 120.637 69.5606 120.974 69.5606C121.737 69.5606 122.551 69.5533 123.416 69.5386C124.281 69.5239 125.051 69.5093 125.726 69.4946C126.195 69.4946 126.584 69.4726 126.892 69.4286C127.2 69.3699 127.383 69.3406 127.442 69.3406C127.545 69.3406 127.655 69.3773 127.772 69.4506C127.904 69.5093 127.977 69.6119 127.992 69.7586C128.051 70.2866 128.124 70.7999 128.212 71.2986C128.3 71.7973 128.344 72.2373 128.344 72.6186C128.344 72.7506 128.315 72.8533 128.256 72.9266C128.197 72.9999 128.131 73.0366 128.058 73.0366C127.985 73.0366 127.904 73.0073 127.816 72.9486C127.743 72.8899 127.684 72.8019 127.64 72.6846C127.493 72.3179 127.361 72.0026 127.244 71.7386C127.127 71.4746 126.995 71.2619 126.848 71.1006C126.672 70.9393 126.459 70.7853 126.21 70.6386C125.961 70.4919 125.645 70.4186 125.264 70.4186H123.614C123.291 70.4186 123.013 70.5066 122.778 70.6826C122.543 70.8439 122.426 71.0786 122.426 71.3866V75.5446C122.426 75.7206 122.477 75.8526 122.58 75.9406C122.683 76.0286 122.815 76.0726 122.976 76.0726H124.912C125.293 76.0726 125.565 75.9479 125.726 75.6986C125.902 75.4346 126.056 75.1193 126.188 74.7526C126.291 74.4739 126.437 74.3346 126.628 74.3346C126.701 74.3346 126.767 74.3786 126.826 74.4666C126.885 74.5399 126.907 74.6573 126.892 74.8186C126.877 74.9946 126.863 75.1853 126.848 75.3906C126.833 75.5959 126.819 75.8013 126.804 76.0066C126.804 76.2119 126.804 76.4099 126.804 76.6006C126.804 76.7766 126.804 76.9673 126.804 77.1726C126.819 77.3779 126.826 77.5833 126.826 77.7886C126.841 77.9939 126.855 78.1919 126.87 78.3826C126.899 78.5879 126.892 78.7419 126.848 78.8446C126.804 78.9326 126.738 78.9766 126.65 78.9766C126.415 78.9766 126.247 78.7859 126.144 78.4046C126.012 77.9646 125.865 77.6273 125.704 77.3926C125.543 77.1579 125.315 77.0406 125.022 77.0406H122.976C122.8 77.0406 122.661 77.0846 122.558 77.1726C122.47 77.2459 122.426 77.3706 122.426 77.5466V81.7266C122.426 82.1666 122.521 82.4746 122.712 82.6506C122.903 82.8266 123.196 82.9146 123.592 82.9146H125.484C125.807 82.9146 126.115 82.8779 126.408 82.8046C126.701 82.7313 126.951 82.6066 127.156 82.4306C127.405 82.2253 127.633 81.9686 127.838 81.6606C128.043 81.3526 128.234 81.0226 128.41 80.6706C128.469 80.5679 128.527 80.5019 128.586 80.4726C128.659 80.4286 128.74 80.4066 128.828 80.4066C128.901 80.4066 128.953 80.4506 128.982 80.5386C129.026 80.6266 129.048 80.7219 129.048 80.8246C129.048 81.0739 129.011 81.3526 128.938 81.6606C128.865 81.9686 128.769 82.2986 128.652 82.6506C128.549 82.9879 128.447 83.3253 128.344 83.6626C128.315 83.7653 128.249 83.8386 128.146 83.8826C128.058 83.9266 127.963 83.9486 127.86 83.9486C127.669 83.9486 127.31 83.9413 126.782 83.9266C126.269 83.9266 125.66 83.9193 124.956 83.9046C124.252 83.8899 123.526 83.8753 122.778 83.8606C122.03 83.8606 121.333 83.8606 120.688 83.8606C120.395 83.8606 120.072 83.8679 119.72 83.8826C119.368 83.8973 119.009 83.9119 118.642 83.9266C118.29 83.9559 117.96 83.9706 117.652 83.9706ZM134.222 84.1686C133.592 84.1686 132.983 84.0953 132.396 83.9486C131.81 83.8019 131.26 83.5673 130.746 83.2446C130.658 83.1713 130.57 83.0906 130.482 83.0026C130.394 82.9146 130.328 82.8193 130.284 82.7166C130.138 82.3206 130.035 81.8366 129.976 81.2646C129.932 80.6926 129.918 80.1133 129.932 79.5266C129.932 79.4239 129.976 79.3506 130.064 79.3066C130.152 79.2626 130.255 79.2406 130.372 79.2406C130.519 79.2406 130.614 79.2626 130.658 79.3066C130.717 79.3359 130.776 79.4019 130.834 79.5046C131.157 80.6046 131.634 81.4919 132.264 82.1666C132.91 82.8413 133.658 83.1786 134.508 83.1786C134.978 83.1786 135.359 83.0759 135.652 82.8706C135.96 82.6506 136.195 82.3793 136.356 82.0566C136.518 81.7193 136.598 81.3819 136.598 81.0446C136.598 80.5753 136.503 80.1793 136.312 79.8566C136.136 79.5339 135.865 79.2406 135.498 78.9766C135.132 78.7126 134.662 78.4266 134.09 78.1186C133.474 77.7666 132.88 77.3999 132.308 77.0186C131.736 76.6226 131.267 76.1459 130.9 75.5886C130.534 75.0313 130.35 74.3346 130.35 73.4986C130.35 72.6333 130.57 71.8853 131.01 71.2546C131.465 70.6239 132.081 70.1326 132.858 69.7806C133.636 69.4286 134.508 69.2526 135.476 69.2526C136.034 69.2526 136.562 69.3113 137.06 69.4286C137.574 69.5459 137.984 69.6633 138.292 69.7806C138.468 69.8539 138.593 69.9346 138.666 70.0226C138.754 70.1106 138.828 70.2646 138.886 70.4846C138.96 70.7926 139.018 71.1666 139.062 71.6066C139.121 72.0466 139.15 72.5306 139.15 73.0586C139.15 73.2493 139.018 73.3446 138.754 73.3446C138.622 73.3446 138.498 73.3153 138.38 73.2566C138.278 73.1833 138.212 73.0953 138.182 72.9926C137.933 72.1126 137.566 71.4453 137.082 70.9906C136.598 70.5359 136.004 70.3086 135.3 70.3086C134.86 70.3086 134.486 70.3819 134.178 70.5286C133.87 70.6753 133.636 70.8953 133.474 71.1886C133.328 71.4819 133.254 71.8486 133.254 72.2886C133.254 72.6406 133.372 72.9706 133.606 73.2786C133.856 73.5719 134.208 73.8726 134.662 74.1806C135.117 74.4886 135.638 74.8186 136.224 75.1706C137.016 75.6399 137.647 76.1019 138.116 76.5566C138.586 77.0113 138.923 77.4953 139.128 78.0086C139.348 78.5073 139.458 79.0866 139.458 79.7466C139.458 80.7439 139.238 81.5726 138.798 82.2326C138.373 82.8926 137.764 83.3839 136.972 83.7066C136.195 84.0146 135.278 84.1686 134.222 84.1686Z" fill="white"/>
</svg>
