<svg width="195" height="125" viewBox="0 0 195 125" fill="none" xmlns="http://www.w3.org/2000/svg">
<path d="M0 0H195V85H0V0Z" fill="#B90000"/>
<rect y="85" width="195" height="40" fill="#E09191"/>
<path d="M58.6391 109.504C58.0411 109.504 57.4691 109.404 56.9231 109.205C56.3858 108.997 55.9048 108.706 55.4801 108.334C55.0641 107.952 54.7348 107.502 54.4921 106.982C54.2581 106.453 54.1411 105.868 54.1411 105.227C54.1411 104.637 54.2364 104.074 54.4271 103.537C54.6264 102.991 54.9211 102.505 55.3111 102.081C55.7011 101.656 56.1821 101.318 56.7541 101.067C57.3348 100.815 58.0021 100.69 58.7561 100.69C59.3628 100.69 59.9348 100.794 60.4721 101.002C61.0181 101.201 61.4991 101.491 61.9151 101.873C62.3311 102.245 62.6604 102.696 62.9031 103.225C63.1458 103.745 63.2671 104.325 63.2671 104.967C63.2671 105.547 63.1674 106.111 62.9681 106.657C62.7688 107.203 62.4741 107.688 62.0841 108.113C61.6941 108.537 61.2088 108.875 60.6281 109.127C60.0561 109.378 59.3931 109.504 58.6391 109.504ZM58.8731 108.906C59.3671 108.906 59.7788 108.767 60.1081 108.49C60.4461 108.212 60.6974 107.827 60.8621 107.333C61.0268 106.839 61.1091 106.271 61.1091 105.63C61.1091 105.101 61.0571 104.581 60.9531 104.07C60.8578 103.55 60.7018 103.082 60.4851 102.666C60.2771 102.25 60.0084 101.92 59.6791 101.678C59.3498 101.426 58.9598 101.301 58.5091 101.301C58.0238 101.301 57.6121 101.439 57.2741 101.717C56.9448 101.994 56.6978 102.375 56.5331 102.861C56.3684 103.346 56.2861 103.909 56.2861 104.551C56.2861 105.088 56.3381 105.617 56.4421 106.137C56.5461 106.648 56.7021 107.112 56.9101 107.528C57.1181 107.944 57.3824 108.277 57.7031 108.529C58.0324 108.78 58.4224 108.906 58.8731 108.906ZM65.4351 109.361C65.3657 109.361 65.3051 109.348 65.2531 109.322C65.2011 109.287 65.1751 109.239 65.1751 109.179C65.1751 109.04 65.2661 108.949 65.4481 108.906C65.7774 108.836 66.0027 108.75 66.1241 108.646C66.2454 108.533 66.3061 108.334 66.3061 108.048V102.224C66.3061 101.929 66.2541 101.717 66.1501 101.587C66.0461 101.448 65.8381 101.344 65.5261 101.275C65.4134 101.249 65.3354 101.214 65.2921 101.171C65.2487 101.119 65.2271 101.062 65.2271 101.002C65.2271 100.95 65.2531 100.906 65.3051 100.872C65.3571 100.828 65.4264 100.807 65.5131 100.807C65.7211 100.807 65.9377 100.811 66.1631 100.82C66.3884 100.828 66.6094 100.841 66.8261 100.859C67.0427 100.867 67.2507 100.872 67.4501 100.872C67.7881 100.872 68.1564 100.872 68.5551 100.872C68.9624 100.872 69.3524 100.872 69.7251 100.872C70.0804 100.872 70.4011 100.85 70.6871 100.807C70.9817 100.755 71.2201 100.729 71.4021 100.729C71.4714 100.729 71.5407 100.746 71.6101 100.781C71.6794 100.815 71.7184 100.88 71.7271 100.976C71.7444 101.175 71.7574 101.383 71.7661 101.6C71.7747 101.816 71.7791 102.024 71.7791 102.224C71.7877 102.423 71.7921 102.592 71.7921 102.731C71.7921 102.904 71.7401 102.991 71.6361 102.991C71.5927 102.991 71.5407 102.973 71.4801 102.939C71.4281 102.904 71.3934 102.852 71.3761 102.783C71.3154 102.566 71.2504 102.375 71.1811 102.211C71.1117 102.037 71.0207 101.894 70.9081 101.782C70.7954 101.66 70.6611 101.574 70.5051 101.522C70.3577 101.47 70.1801 101.444 69.9721 101.444H68.9971C68.7804 101.444 68.6114 101.5 68.4901 101.613C68.3687 101.717 68.3081 101.86 68.3081 102.042C68.3081 102.198 68.3081 102.38 68.3081 102.588C68.3081 102.796 68.3081 102.982 68.3081 103.147C68.3081 103.337 68.3081 103.545 68.3081 103.771C68.3081 103.996 68.3081 104.204 68.3081 104.395C68.3081 104.507 68.3341 104.59 68.3861 104.642C68.4381 104.685 68.5117 104.707 68.6071 104.707C68.8237 104.707 69.0404 104.707 69.2571 104.707C69.4737 104.707 69.6774 104.707 69.8681 104.707C70.0934 104.707 70.2581 104.642 70.3621 104.512C70.4661 104.373 70.5571 104.213 70.6351 104.031C70.6697 103.961 70.7087 103.905 70.7521 103.862C70.8041 103.818 70.8517 103.797 70.8951 103.797C70.9384 103.797 70.9774 103.823 71.0121 103.875C71.0554 103.927 71.0727 103.996 71.0641 104.083C71.0467 104.265 71.0294 104.438 71.0121 104.603C71.0034 104.759 70.9991 104.897 70.9991 105.019C70.9991 105.183 71.0034 105.326 71.0121 105.448C71.0207 105.56 71.0337 105.716 71.0511 105.916C71.0597 106.028 71.0511 106.115 71.0251 106.176C70.9991 106.228 70.9644 106.254 70.9211 106.254C70.8517 106.254 70.7867 106.223 70.7261 106.163C70.6741 106.093 70.6351 106.02 70.6091 105.942C70.5397 105.682 70.4531 105.508 70.3491 105.422C70.2451 105.326 70.1151 105.279 69.9591 105.279C69.8637 105.279 69.7597 105.279 69.6471 105.279C69.5431 105.279 69.4434 105.279 69.3481 105.279C69.2267 105.279 69.0967 105.279 68.9581 105.279C68.8281 105.279 68.7024 105.283 68.5811 105.292C68.4857 105.292 68.4121 105.318 68.3601 105.37C68.3167 105.422 68.2951 105.495 68.2951 105.591C68.2951 105.981 68.2951 106.388 68.2951 106.813C68.3037 107.237 68.3124 107.645 68.3211 108.035C68.3211 108.312 68.3947 108.507 68.5421 108.62C68.6894 108.732 68.9451 108.828 69.3091 108.906C69.3957 108.923 69.4607 108.953 69.5041 108.997C69.5561 109.031 69.5821 109.088 69.5821 109.166C69.5821 109.226 69.5604 109.274 69.5171 109.309C69.4824 109.343 69.4261 109.361 69.3481 109.361C69.1574 109.361 68.9364 109.352 68.6851 109.335C68.4337 109.326 68.1867 109.317 67.9441 109.309C67.7014 109.3 67.4934 109.296 67.3201 109.296C67.1467 109.296 66.9517 109.3 66.7351 109.309C66.5184 109.317 66.2974 109.326 66.0721 109.335C65.8467 109.352 65.6344 109.361 65.4351 109.361ZM73.8317 109.361C73.7624 109.361 73.7017 109.348 73.6497 109.322C73.5977 109.287 73.5717 109.239 73.5717 109.179C73.5717 109.04 73.6627 108.949 73.8447 108.906C74.1741 108.836 74.3994 108.75 74.5207 108.646C74.6421 108.533 74.7027 108.334 74.7027 108.048V102.224C74.7027 101.929 74.6507 101.717 74.5467 101.587C74.4427 101.448 74.2347 101.344 73.9227 101.275C73.8101 101.249 73.7321 101.214 73.6887 101.171C73.6454 101.119 73.6237 101.062 73.6237 101.002C73.6237 100.95 73.6497 100.906 73.7017 100.872C73.7537 100.828 73.8231 100.807 73.9097 100.807C74.1177 100.807 74.3344 100.811 74.5597 100.82C74.7851 100.828 75.0061 100.841 75.2227 100.859C75.4394 100.867 75.6474 100.872 75.8467 100.872C76.1847 100.872 76.5531 100.872 76.9517 100.872C77.3591 100.872 77.7491 100.872 78.1217 100.872C78.4771 100.872 78.7977 100.85 79.0837 100.807C79.3784 100.755 79.6167 100.729 79.7987 100.729C79.8681 100.729 79.9374 100.746 80.0067 100.781C80.0761 100.815 80.1151 100.88 80.1237 100.976C80.1411 101.175 80.1541 101.383 80.1627 101.6C80.1714 101.816 80.1757 102.024 80.1757 102.224C80.1844 102.423 80.1887 102.592 80.1887 102.731C80.1887 102.904 80.1367 102.991 80.0327 102.991C79.9894 102.991 79.9374 102.973 79.8767 102.939C79.8247 102.904 79.7901 102.852 79.7727 102.783C79.7121 102.566 79.6471 102.375 79.5777 102.211C79.5084 102.037 79.4174 101.894 79.3047 101.782C79.1921 101.66 79.0577 101.574 78.9017 101.522C78.7544 101.47 78.5767 101.444 78.3687 101.444H77.3937C77.1771 101.444 77.0081 101.5 76.8867 101.613C76.7654 101.717 76.7047 101.86 76.7047 102.042C76.7047 102.198 76.7047 102.38 76.7047 102.588C76.7047 102.796 76.7047 102.982 76.7047 103.147C76.7047 103.337 76.7047 103.545 76.7047 103.771C76.7047 103.996 76.7047 104.204 76.7047 104.395C76.7047 104.507 76.7307 104.59 76.7827 104.642C76.8347 104.685 76.9084 104.707 77.0037 104.707C77.2204 104.707 77.4371 104.707 77.6537 104.707C77.8704 104.707 78.0741 104.707 78.2647 104.707C78.4901 104.707 78.6547 104.642 78.7587 104.512C78.8627 104.373 78.9537 104.213 79.0317 104.031C79.0664 103.961 79.1054 103.905 79.1487 103.862C79.2007 103.818 79.2484 103.797 79.2917 103.797C79.3351 103.797 79.3741 103.823 79.4087 103.875C79.4521 103.927 79.4694 103.996 79.4607 104.083C79.4434 104.265 79.4261 104.438 79.4087 104.603C79.4001 104.759 79.3957 104.897 79.3957 105.019C79.3957 105.183 79.4001 105.326 79.4087 105.448C79.4174 105.56 79.4304 105.716 79.4477 105.916C79.4564 106.028 79.4477 106.115 79.4217 106.176C79.3957 106.228 79.3611 106.254 79.3177 106.254C79.2484 106.254 79.1834 106.223 79.1227 106.163C79.0707 106.093 79.0317 106.02 79.0057 105.942C78.9364 105.682 78.8497 105.508 78.7457 105.422C78.6417 105.326 78.5117 105.279 78.3557 105.279C78.2604 105.279 78.1564 105.279 78.0437 105.279C77.9397 105.279 77.8401 105.279 77.7447 105.279C77.6234 105.279 77.4934 105.279 77.3547 105.279C77.2247 105.279 77.0991 105.283 76.9777 105.292C76.8824 105.292 76.8087 105.318 76.7567 105.37C76.7134 105.422 76.6917 105.495 76.6917 105.591C76.6917 105.981 76.6917 106.388 76.6917 106.813C76.7004 107.237 76.7091 107.645 76.7177 108.035C76.7177 108.312 76.7914 108.507 76.9387 108.62C77.0861 108.732 77.3417 108.828 77.7057 108.906C77.7924 108.923 77.8574 108.953 77.9007 108.997C77.9527 109.031 77.9787 109.088 77.9787 109.166C77.9787 109.226 77.9571 109.274 77.9137 109.309C77.8791 109.343 77.8227 109.361 77.7447 109.361C77.5541 109.361 77.3331 109.352 77.0817 109.335C76.8304 109.326 76.5834 109.317 76.3407 109.309C76.0981 109.3 75.8901 109.296 75.7167 109.296C75.5434 109.296 75.3484 109.3 75.1317 109.309C74.9151 109.317 74.6941 109.326 74.4687 109.335C74.2434 109.352 74.0311 109.361 73.8317 109.361ZM82.2674 109.387C82.1808 109.387 82.1114 109.365 82.0594 109.322C82.0161 109.287 81.9944 109.244 81.9944 109.192C81.9944 109.062 82.0898 108.971 82.2804 108.919C82.5751 108.841 82.7831 108.75 82.9044 108.646C83.0344 108.542 83.0994 108.351 83.0994 108.074V102.159C83.0994 101.881 83.0431 101.682 82.9304 101.561C82.8178 101.439 82.6054 101.344 82.2934 101.275C82.1808 101.249 82.1028 101.214 82.0594 101.171C82.0161 101.119 81.9944 101.062 81.9944 101.002C81.9944 100.95 82.0204 100.906 82.0724 100.872C82.1244 100.828 82.1938 100.807 82.2804 100.807C82.4971 100.807 82.7181 100.811 82.9434 100.82C83.1688 100.828 83.3898 100.841 83.6064 100.859C83.8231 100.867 84.0311 100.872 84.2304 100.872C84.6811 100.872 85.1621 100.867 85.6734 100.859C86.1848 100.85 86.6398 100.841 87.0384 100.833C87.3158 100.833 87.5454 100.82 87.7274 100.794C87.9094 100.759 88.0178 100.742 88.0524 100.742C88.1131 100.742 88.1781 100.763 88.2474 100.807C88.3254 100.841 88.3688 100.902 88.3774 100.989C88.4121 101.301 88.4554 101.604 88.5074 101.899C88.5594 102.193 88.5854 102.453 88.5854 102.679C88.5854 102.757 88.5681 102.817 88.5334 102.861C88.4988 102.904 88.4598 102.926 88.4164 102.926C88.3731 102.926 88.3254 102.908 88.2734 102.874C88.2301 102.839 88.1954 102.787 88.1694 102.718C88.0828 102.501 88.0048 102.315 87.9354 102.159C87.8661 102.003 87.7881 101.877 87.7014 101.782C87.5974 101.686 87.4718 101.595 87.3244 101.509C87.1771 101.422 86.9908 101.379 86.7654 101.379H85.7904C85.5998 101.379 85.4351 101.431 85.2964 101.535C85.1578 101.63 85.0884 101.769 85.0884 101.951V104.408C85.0884 104.512 85.1188 104.59 85.1794 104.642C85.2401 104.694 85.3181 104.72 85.4134 104.72H86.5574C86.7828 104.72 86.9431 104.646 87.0384 104.499C87.1424 104.343 87.2334 104.156 87.3114 103.94C87.3721 103.775 87.4588 103.693 87.5714 103.693C87.6148 103.693 87.6538 103.719 87.6884 103.771C87.7231 103.814 87.7361 103.883 87.7274 103.979C87.7188 104.083 87.7101 104.195 87.7014 104.317C87.6928 104.438 87.6841 104.559 87.6754 104.681C87.6754 104.802 87.6754 104.919 87.6754 105.032C87.6754 105.136 87.6754 105.248 87.6754 105.37C87.6841 105.491 87.6884 105.612 87.6884 105.734C87.6971 105.855 87.7058 105.972 87.7144 106.085C87.7318 106.206 87.7274 106.297 87.7014 106.358C87.6754 106.41 87.6364 106.436 87.5844 106.436C87.4458 106.436 87.3461 106.323 87.2854 106.098C87.2074 105.838 87.1208 105.638 87.0254 105.5C86.9301 105.361 86.7958 105.292 86.6224 105.292H85.4134C85.3094 105.292 85.2271 105.318 85.1664 105.37C85.1144 105.413 85.0884 105.487 85.0884 105.591V108.061C85.0884 108.321 85.1448 108.503 85.2574 108.607C85.3701 108.711 85.5434 108.763 85.7774 108.763H86.8954C87.0861 108.763 87.2681 108.741 87.4414 108.698C87.6148 108.654 87.7621 108.581 87.8834 108.477C88.0308 108.355 88.1651 108.204 88.2864 108.022C88.4078 107.84 88.5204 107.645 88.6244 107.437C88.6591 107.376 88.6938 107.337 88.7284 107.32C88.7718 107.294 88.8194 107.281 88.8714 107.281C88.9148 107.281 88.9451 107.307 88.9624 107.359C88.9884 107.411 89.0014 107.467 89.0014 107.528C89.0014 107.675 88.9798 107.84 88.9364 108.022C88.8931 108.204 88.8368 108.399 88.7674 108.607C88.7068 108.806 88.6461 109.005 88.5854 109.205C88.5681 109.265 88.5291 109.309 88.4684 109.335C88.4164 109.361 88.3601 109.374 88.2994 109.374C88.1868 109.374 87.9744 109.369 87.6624 109.361C87.3591 109.361 86.9994 109.356 86.5834 109.348C86.1674 109.339 85.7384 109.33 85.2964 109.322C84.8544 109.322 84.4428 109.322 84.0614 109.322C83.8881 109.322 83.6974 109.326 83.4894 109.335C83.2814 109.343 83.0691 109.352 82.8524 109.361C82.6444 109.378 82.4494 109.387 82.2674 109.387ZM98.897 109.595C98.455 109.595 98.0823 109.538 97.779 109.426C97.4756 109.322 97.2156 109.183 96.999 109.01C96.791 108.828 96.6046 108.624 96.44 108.399C96.2493 108.147 96.063 107.896 95.881 107.645C95.7076 107.393 95.5343 107.12 95.361 106.826C95.1876 106.531 95.0056 106.193 94.815 105.812C94.7283 105.621 94.6113 105.487 94.464 105.409C94.386 105.357 94.308 105.322 94.23 105.305C94.152 105.287 94.0826 105.279 94.022 105.279C93.9786 105.279 93.944 105.305 93.918 105.357C93.892 105.4 93.879 105.461 93.879 105.539V108.022C93.879 108.29 93.9526 108.485 94.1 108.607C94.2473 108.728 94.503 108.828 94.867 108.906C94.9623 108.923 95.0316 108.953 95.075 108.997C95.127 109.031 95.153 109.088 95.153 109.166C95.153 109.226 95.1313 109.274 95.088 109.309C95.0446 109.343 94.984 109.361 94.906 109.361C94.7153 109.361 94.4943 109.352 94.243 109.335C94.0003 109.326 93.7576 109.317 93.515 109.309C93.2723 109.3 93.0643 109.296 92.891 109.296C92.709 109.296 92.5096 109.3 92.293 109.309C92.0763 109.317 91.851 109.326 91.617 109.335C91.3916 109.352 91.1836 109.361 90.993 109.361C90.9236 109.361 90.863 109.348 90.811 109.322C90.759 109.287 90.733 109.239 90.733 109.179C90.733 109.04 90.824 108.949 91.006 108.906C91.3353 108.836 91.5606 108.75 91.682 108.646C91.812 108.533 91.877 108.334 91.877 108.048V102.211C91.877 102.003 91.8553 101.838 91.812 101.717C91.7773 101.595 91.7036 101.504 91.591 101.444C91.4783 101.374 91.3136 101.318 91.097 101.275C90.9843 101.249 90.9063 101.214 90.863 101.171C90.8196 101.119 90.798 101.062 90.798 101.002C90.798 100.95 90.824 100.906 90.876 100.872C90.928 100.828 90.9973 100.807 91.084 100.807C91.3613 100.807 91.5866 100.815 91.76 100.833C91.942 100.85 92.111 100.867 92.267 100.885C92.4316 100.893 92.6223 100.898 92.839 100.898C93.0383 100.898 93.2116 100.889 93.359 100.872C93.515 100.846 93.6883 100.824 93.879 100.807C94.0783 100.789 94.3296 100.781 94.633 100.781C95.647 100.781 96.427 100.954 96.973 101.301C97.519 101.647 97.792 102.172 97.792 102.874C97.792 103.264 97.7053 103.593 97.532 103.862C97.3673 104.122 97.155 104.338 96.895 104.512C96.6436 104.676 96.388 104.802 96.128 104.889C96.0933 104.897 96.076 104.919 96.076 104.954C96.0846 104.98 96.0976 105.01 96.115 105.045C96.375 105.426 96.6263 105.799 96.869 106.163C97.1203 106.518 97.376 106.852 97.636 107.164C97.896 107.467 98.1646 107.749 98.442 108.009C98.7366 108.286 99.0356 108.451 99.339 108.503C99.651 108.546 99.9586 108.568 100.262 108.568C100.392 108.568 100.457 108.646 100.457 108.802C100.457 108.992 100.388 109.148 100.249 109.27C100.119 109.382 99.937 109.465 99.703 109.517C99.469 109.569 99.2003 109.595 98.897 109.595ZM94.373 104.863C94.7023 104.863 94.9753 104.789 95.192 104.642C95.4086 104.494 95.5733 104.295 95.686 104.044C95.7986 103.784 95.855 103.489 95.855 103.16C95.855 102.761 95.803 102.427 95.699 102.159C95.595 101.89 95.439 101.691 95.231 101.561C95.023 101.422 94.7543 101.353 94.425 101.353C94.2343 101.353 94.0956 101.431 94.009 101.587C93.931 101.734 93.892 102.055 93.892 102.549C93.8833 102.748 93.879 102.999 93.879 103.303C93.879 103.606 93.879 103.966 93.879 104.382C93.879 104.555 93.9223 104.681 94.009 104.759C94.1043 104.828 94.2256 104.863 94.373 104.863ZM103.072 109.361C103.011 109.361 102.946 109.348 102.877 109.322C102.808 109.287 102.773 109.239 102.773 109.179C102.773 109.101 102.803 109.04 102.864 108.997C102.925 108.953 102.998 108.923 103.085 108.906C103.414 108.836 103.653 108.745 103.8 108.633C103.956 108.52 104.034 108.325 104.034 108.048V102.679C104.034 102.341 104.025 102.094 104.008 101.938C103.991 101.773 103.965 101.665 103.93 101.613C103.904 101.552 103.869 101.513 103.826 101.496C103.748 101.452 103.644 101.431 103.514 101.431C103.393 101.422 103.293 101.418 103.215 101.418H102.929C102.652 101.418 102.387 101.487 102.136 101.626C101.893 101.756 101.698 101.92 101.551 102.12C101.508 102.18 101.443 102.267 101.356 102.38C101.278 102.484 101.191 102.579 101.096 102.666C101.009 102.744 100.923 102.783 100.836 102.783C100.767 102.783 100.719 102.761 100.693 102.718C100.667 102.666 100.654 102.609 100.654 102.549C100.654 102.445 100.68 102.336 100.732 102.224C100.897 101.894 101.018 101.613 101.096 101.379C101.174 101.145 101.226 100.876 101.252 100.573C101.269 100.443 101.308 100.356 101.369 100.313C101.43 100.261 101.499 100.235 101.577 100.235C101.638 100.235 101.703 100.291 101.772 100.404C101.841 100.516 101.915 100.607 101.993 100.677C102.08 100.746 102.223 100.798 102.422 100.833C102.63 100.867 102.799 100.885 102.929 100.885H107.817C108.034 100.885 108.216 100.863 108.363 100.82C108.519 100.776 108.636 100.733 108.714 100.69C108.853 100.612 108.961 100.525 109.039 100.43C109.126 100.334 109.225 100.287 109.338 100.287C109.39 100.287 109.425 100.308 109.442 100.352C109.468 100.386 109.481 100.438 109.481 100.508C109.481 100.542 109.477 100.586 109.468 100.638C109.468 100.69 109.464 100.737 109.455 100.781C109.412 100.945 109.368 101.106 109.325 101.262C109.282 101.409 109.247 101.552 109.221 101.691C109.195 101.829 109.182 101.972 109.182 102.12V102.38C109.182 102.518 109.165 102.631 109.13 102.718C109.104 102.804 109.048 102.848 108.961 102.848C108.883 102.848 108.818 102.809 108.766 102.731C108.714 102.644 108.658 102.51 108.597 102.328C108.502 102.016 108.359 101.786 108.168 101.639C107.986 101.491 107.704 101.418 107.323 101.418H106.647C106.5 101.418 106.378 101.452 106.283 101.522C106.196 101.582 106.131 101.712 106.088 101.912C106.045 102.102 106.023 102.397 106.023 102.796V108.035C106.023 108.295 106.092 108.485 106.231 108.607C106.378 108.719 106.621 108.819 106.959 108.906C107.046 108.932 107.119 108.962 107.18 108.997C107.241 109.031 107.271 109.088 107.271 109.166C107.271 109.226 107.245 109.274 107.193 109.309C107.141 109.343 107.076 109.361 106.998 109.361C106.807 109.361 106.591 109.352 106.348 109.335C106.114 109.326 105.876 109.317 105.633 109.309C105.399 109.3 105.195 109.296 105.022 109.296C104.84 109.296 104.632 109.3 104.398 109.309C104.173 109.317 103.943 109.326 103.709 109.335C103.484 109.352 103.271 109.361 103.072 109.361ZM115.354 109.504C114.756 109.504 114.184 109.404 113.638 109.205C113.101 108.997 112.62 108.706 112.195 108.334C111.779 107.952 111.45 107.502 111.207 106.982C110.973 106.453 110.856 105.868 110.856 105.227C110.856 104.637 110.951 104.074 111.142 103.537C111.341 102.991 111.636 102.505 112.026 102.081C112.416 101.656 112.897 101.318 113.469 101.067C114.05 100.815 114.717 100.69 115.471 100.69C116.078 100.69 116.65 100.794 117.187 101.002C117.733 101.201 118.214 101.491 118.63 101.873C119.046 102.245 119.375 102.696 119.618 103.225C119.861 103.745 119.982 104.325 119.982 104.967C119.982 105.547 119.882 106.111 119.683 106.657C119.484 107.203 119.189 107.688 118.799 108.113C118.409 108.537 117.924 108.875 117.343 109.127C116.771 109.378 116.108 109.504 115.354 109.504ZM115.588 108.906C116.082 108.906 116.494 108.767 116.823 108.49C117.161 108.212 117.412 107.827 117.577 107.333C117.742 106.839 117.824 106.271 117.824 105.63C117.824 105.101 117.772 104.581 117.668 104.07C117.573 103.55 117.417 103.082 117.2 102.666C116.992 102.25 116.723 101.92 116.394 101.678C116.065 101.426 115.675 101.301 115.224 101.301C114.739 101.301 114.327 101.439 113.989 101.717C113.66 101.994 113.413 102.375 113.248 102.861C113.083 103.346 113.001 103.909 113.001 104.551C113.001 105.088 113.053 105.617 113.157 106.137C113.261 106.648 113.417 107.112 113.625 107.528C113.833 107.944 114.097 108.277 114.418 108.529C114.747 108.78 115.137 108.906 115.588 108.906ZM130.041 109.595C129.599 109.595 129.226 109.538 128.923 109.426C128.62 109.322 128.36 109.183 128.143 109.01C127.935 108.828 127.749 108.624 127.584 108.399C127.393 108.147 127.207 107.896 127.025 107.645C126.852 107.393 126.678 107.12 126.505 106.826C126.332 106.531 126.15 106.193 125.959 105.812C125.872 105.621 125.755 105.487 125.608 105.409C125.53 105.357 125.452 105.322 125.374 105.305C125.296 105.287 125.227 105.279 125.166 105.279C125.123 105.279 125.088 105.305 125.062 105.357C125.036 105.4 125.023 105.461 125.023 105.539V108.022C125.023 108.29 125.097 108.485 125.244 108.607C125.391 108.728 125.647 108.828 126.011 108.906C126.106 108.923 126.176 108.953 126.219 108.997C126.271 109.031 126.297 109.088 126.297 109.166C126.297 109.226 126.275 109.274 126.232 109.309C126.189 109.343 126.128 109.361 126.05 109.361C125.859 109.361 125.638 109.352 125.387 109.335C125.144 109.326 124.902 109.317 124.659 109.309C124.416 109.3 124.208 109.296 124.035 109.296C123.853 109.296 123.654 109.3 123.437 109.309C123.22 109.317 122.995 109.326 122.761 109.335C122.536 109.352 122.328 109.361 122.137 109.361C122.068 109.361 122.007 109.348 121.955 109.322C121.903 109.287 121.877 109.239 121.877 109.179C121.877 109.04 121.968 108.949 122.15 108.906C122.479 108.836 122.705 108.75 122.826 108.646C122.956 108.533 123.021 108.334 123.021 108.048V102.211C123.021 102.003 122.999 101.838 122.956 101.717C122.921 101.595 122.848 101.504 122.735 101.444C122.622 101.374 122.458 101.318 122.241 101.275C122.128 101.249 122.05 101.214 122.007 101.171C121.964 101.119 121.942 101.062 121.942 101.002C121.942 100.95 121.968 100.906 122.02 100.872C122.072 100.828 122.141 100.807 122.228 100.807C122.505 100.807 122.731 100.815 122.904 100.833C123.086 100.85 123.255 100.867 123.411 100.885C123.576 100.893 123.766 100.898 123.983 100.898C124.182 100.898 124.356 100.889 124.503 100.872C124.659 100.846 124.832 100.824 125.023 100.807C125.222 100.789 125.474 100.781 125.777 100.781C126.791 100.781 127.571 100.954 128.117 101.301C128.663 101.647 128.936 102.172 128.936 102.874C128.936 103.264 128.849 103.593 128.676 103.862C128.511 104.122 128.299 104.338 128.039 104.512C127.788 104.676 127.532 104.802 127.272 104.889C127.237 104.897 127.22 104.919 127.22 104.954C127.229 104.98 127.242 105.01 127.259 105.045C127.519 105.426 127.77 105.799 128.013 106.163C128.264 106.518 128.52 106.852 128.78 107.164C129.04 107.467 129.309 107.749 129.586 108.009C129.881 108.286 130.18 108.451 130.483 108.503C130.795 108.546 131.103 108.568 131.406 108.568C131.536 108.568 131.601 108.646 131.601 108.802C131.601 108.992 131.532 109.148 131.393 109.27C131.263 109.382 131.081 109.465 130.847 109.517C130.613 109.569 130.344 109.595 130.041 109.595ZM125.517 104.863C125.846 104.863 126.119 104.789 126.336 104.642C126.553 104.494 126.717 104.295 126.83 104.044C126.943 103.784 126.999 103.489 126.999 103.16C126.999 102.761 126.947 102.427 126.843 102.159C126.739 101.89 126.583 101.691 126.375 101.561C126.167 101.422 125.898 101.353 125.569 101.353C125.378 101.353 125.24 101.431 125.153 101.587C125.075 101.734 125.036 102.055 125.036 102.549C125.027 102.748 125.023 102.999 125.023 103.303C125.023 103.606 125.023 103.966 125.023 104.382C125.023 104.555 125.066 104.681 125.153 104.759C125.248 104.828 125.37 104.863 125.517 104.863ZM134.301 109.4C134.188 109.4 134.097 109.378 134.028 109.335C133.959 109.3 133.924 109.252 133.924 109.192C133.924 109.114 133.963 109.053 134.041 109.01C134.119 108.966 134.21 108.936 134.314 108.919C134.643 108.849 134.873 108.732 135.003 108.568C135.133 108.394 135.198 108.169 135.198 107.892V106.098C135.198 105.794 135.155 105.543 135.068 105.344C134.99 105.144 134.899 104.958 134.795 104.785L133.118 102.198C133.049 102.076 132.966 101.955 132.871 101.834C132.776 101.712 132.663 101.604 132.533 101.509C132.412 101.405 132.269 101.331 132.104 101.288C132.017 101.253 131.944 101.218 131.883 101.184C131.822 101.149 131.792 101.088 131.792 101.002C131.792 100.941 131.818 100.898 131.87 100.872C131.931 100.837 131.996 100.82 132.065 100.82C132.429 100.82 132.776 100.833 133.105 100.859C133.443 100.885 133.798 100.898 134.171 100.898C134.457 100.898 134.726 100.885 134.977 100.859C135.237 100.833 135.51 100.82 135.796 100.82C135.874 100.82 135.952 100.837 136.03 100.872C136.108 100.898 136.147 100.941 136.147 101.002C136.147 101.071 136.108 101.132 136.03 101.184C135.952 101.227 135.865 101.257 135.77 101.275C135.536 101.335 135.367 101.4 135.263 101.47C135.159 101.53 135.107 101.63 135.107 101.769C135.107 101.899 135.155 102.05 135.25 102.224L136.589 104.525C136.667 104.681 136.745 104.759 136.823 104.759C136.858 104.759 136.892 104.741 136.927 104.707C136.97 104.663 137.014 104.603 137.057 104.525C137.265 104.169 137.46 103.818 137.642 103.472C137.833 103.116 138.019 102.739 138.201 102.341C138.244 102.254 138.279 102.163 138.305 102.068C138.34 101.972 138.357 101.886 138.357 101.808C138.357 101.643 138.279 101.517 138.123 101.431C137.976 101.344 137.82 101.296 137.655 101.288C137.568 101.27 137.477 101.24 137.382 101.197C137.295 101.145 137.252 101.08 137.252 101.002C137.252 100.941 137.291 100.898 137.369 100.872C137.456 100.846 137.542 100.833 137.629 100.833C137.88 100.833 138.106 100.841 138.305 100.859C138.504 100.876 138.721 100.885 138.955 100.885C139.18 100.885 139.397 100.872 139.605 100.846C139.813 100.811 140.038 100.794 140.281 100.794C140.376 100.794 140.463 100.807 140.541 100.833C140.628 100.859 140.671 100.915 140.671 101.002C140.671 101.08 140.628 101.136 140.541 101.171C140.454 101.205 140.363 101.24 140.268 101.275C140.008 101.335 139.787 101.444 139.605 101.6C139.423 101.756 139.267 101.942 139.137 102.159C138.998 102.384 138.86 102.605 138.721 102.822C138.591 103.03 138.461 103.238 138.331 103.446C138.21 103.654 138.084 103.862 137.954 104.07C137.824 104.278 137.694 104.494 137.564 104.72C137.495 104.841 137.43 104.967 137.369 105.097C137.317 105.227 137.274 105.361 137.239 105.5C137.213 105.638 137.2 105.799 137.2 105.981V107.892C137.2 108.212 137.265 108.442 137.395 108.581C137.525 108.711 137.759 108.823 138.097 108.919C138.201 108.945 138.288 108.975 138.357 109.01C138.435 109.044 138.474 109.101 138.474 109.179C138.474 109.239 138.439 109.287 138.37 109.322C138.309 109.365 138.231 109.387 138.136 109.387C137.945 109.387 137.733 109.378 137.499 109.361C137.265 109.343 137.031 109.33 136.797 109.322C136.572 109.304 136.372 109.296 136.199 109.296C136.017 109.296 135.818 109.304 135.601 109.322C135.384 109.33 135.163 109.343 134.938 109.361C134.713 109.387 134.5 109.4 134.301 109.4Z" fill="white"/>
</svg>
