<svg width="195" height="125" viewBox="0 0 195 125" fill="none" xmlns="http://www.w3.org/2000/svg">
<path d="M0 0H195V85H0V0Z" fill="#B90000"/>
<rect y="85" width="195" height="40" fill="#E09191"/>
<path d="M33.0928 109.634C32.4168 109.634 31.7842 109.534 31.1948 109.335C30.6055 109.127 30.0855 108.837 29.6348 108.464C29.1842 108.083 28.8332 107.628 28.5818 107.099C28.3305 106.57 28.2048 105.985 28.2048 105.344C28.2048 104.746 28.3218 104.178 28.5558 103.641C28.7985 103.095 29.1495 102.614 29.6088 102.198C30.0682 101.773 30.6185 101.44 31.2598 101.197C31.9098 100.946 32.6422 100.82 33.4568 100.82C33.7342 100.82 34.0115 100.842 34.2888 100.885C34.5748 100.92 34.8478 100.972 35.1078 101.041C35.3765 101.11 35.6192 101.184 35.8358 101.262C35.9138 101.297 35.9788 101.344 36.0308 101.405C36.0915 101.457 36.1262 101.535 36.1348 101.639C36.1695 101.925 36.1955 102.202 36.2128 102.471C36.2302 102.74 36.2388 102.982 36.2388 103.199C36.2388 103.294 36.2042 103.359 36.1348 103.394C36.0655 103.429 35.9875 103.433 35.9008 103.407C35.8228 103.372 35.7665 103.303 35.7318 103.199C35.6712 103 35.5975 102.8 35.5108 102.601C35.4328 102.402 35.3115 102.228 35.1468 102.081C34.9735 101.908 34.7308 101.765 34.4188 101.652C34.1155 101.539 33.7472 101.483 33.3138 101.483C32.8718 101.483 32.4688 101.578 32.1048 101.769C31.7495 101.96 31.4418 102.22 31.1818 102.549C30.9305 102.878 30.7355 103.251 30.5968 103.667C30.4582 104.083 30.3888 104.516 30.3888 104.967C30.3888 105.539 30.4495 106.072 30.5708 106.566C30.6922 107.051 30.8785 107.472 31.1298 107.827C31.3812 108.182 31.6888 108.46 32.0528 108.659C32.4168 108.858 32.8458 108.958 33.3398 108.958C33.9812 108.958 34.5012 108.824 34.8998 108.555C35.2985 108.278 35.6322 107.857 35.9008 107.294C35.9702 107.138 36.0655 107.064 36.1868 107.073C36.3168 107.082 36.3818 107.155 36.3818 107.294C36.3818 107.407 36.3688 107.545 36.3428 107.71C36.3255 107.866 36.2952 108.035 36.2518 108.217C36.2085 108.399 36.1565 108.585 36.0958 108.776C36.0612 108.88 36.0135 108.962 35.9528 109.023C35.9008 109.075 35.8315 109.123 35.7448 109.166C35.4155 109.305 35.0255 109.417 34.5748 109.504C34.1242 109.591 33.6302 109.634 33.0928 109.634ZM43.2196 109.634C42.6216 109.634 42.0496 109.534 41.5036 109.335C40.9663 109.127 40.4853 108.837 40.0606 108.464C39.6446 108.083 39.3153 107.632 39.0726 107.112C38.8386 106.583 38.7216 105.998 38.7216 105.357C38.7216 104.768 38.817 104.204 39.0076 103.667C39.207 103.121 39.5016 102.636 39.8916 102.211C40.2816 101.786 40.7626 101.448 41.3346 101.197C41.9153 100.946 42.5826 100.82 43.3366 100.82C43.9433 100.82 44.5153 100.924 45.0526 101.132C45.5986 101.331 46.0796 101.622 46.4956 102.003C46.9116 102.376 47.241 102.826 47.4836 103.355C47.7263 103.875 47.8476 104.456 47.8476 105.097C47.8476 105.678 47.748 106.241 47.5486 106.787C47.3493 107.333 47.0546 107.818 46.6646 108.243C46.2746 108.668 45.7893 109.006 45.2086 109.257C44.6366 109.508 43.9736 109.634 43.2196 109.634ZM43.4536 109.036C43.9476 109.036 44.3593 108.897 44.6886 108.62C45.0266 108.343 45.278 107.957 45.4426 107.463C45.6073 106.969 45.6896 106.401 45.6896 105.76C45.6896 105.231 45.6376 104.711 45.5336 104.2C45.4383 103.68 45.2823 103.212 45.0656 102.796C44.8576 102.38 44.589 102.051 44.2596 101.808C43.9303 101.557 43.5403 101.431 43.0896 101.431C42.6043 101.431 42.1926 101.57 41.8546 101.847C41.5253 102.124 41.2783 102.506 41.1136 102.991C40.949 103.476 40.8666 104.04 40.8666 104.681C40.8666 105.218 40.9186 105.747 41.0226 106.267C41.1266 106.778 41.2826 107.242 41.4906 107.658C41.6986 108.074 41.963 108.408 42.2836 108.659C42.613 108.91 43.003 109.036 43.4536 109.036ZM50.0936 109.491C49.9896 109.491 49.9116 109.478 49.8596 109.452C49.8076 109.417 49.7816 109.37 49.7816 109.309C49.7816 109.231 49.8163 109.183 49.8856 109.166C49.9636 109.14 50.0503 109.11 50.1456 109.075C50.3449 109.006 50.5183 108.884 50.6656 108.711C50.8216 108.538 50.9169 108.317 50.9516 108.048C51.0036 107.649 51.0556 107.16 51.1076 106.579C51.1683 105.99 51.2289 105.361 51.2896 104.694C51.3503 104.027 51.4023 103.368 51.4456 102.718C51.4543 102.666 51.4586 102.601 51.4586 102.523C51.4586 102.445 51.4586 102.363 51.4586 102.276C51.4586 102.12 51.4326 101.999 51.3806 101.912C51.3373 101.817 51.2593 101.739 51.1466 101.678C51.0426 101.609 50.9299 101.552 50.8086 101.509C50.6873 101.457 50.5573 101.414 50.4186 101.379C50.3146 101.353 50.2323 101.318 50.1716 101.275C50.1109 101.232 50.0806 101.175 50.0806 101.106C50.0806 101.028 50.1153 100.976 50.1846 100.95C50.2539 100.924 50.3363 100.911 50.4316 100.911C50.5616 100.911 50.7219 100.915 50.9126 100.924C51.1033 100.933 51.3113 100.941 51.5366 100.95C51.7706 100.95 52.0046 100.954 52.2386 100.963C52.4813 100.972 52.7023 100.976 52.9016 100.976C52.9709 100.976 53.0359 101.002 53.0966 101.054C53.1573 101.097 53.1963 101.149 53.2136 101.21C53.2743 101.375 53.3306 101.535 53.3826 101.691C53.4346 101.838 53.4909 101.994 53.5516 102.159L55.4626 106.722C55.4799 106.757 55.5016 106.778 55.5276 106.787C55.5623 106.787 55.5883 106.765 55.6056 106.722L57.4646 102.406C57.5253 102.103 57.5729 101.856 57.6076 101.665C57.6509 101.474 57.6899 101.323 57.7246 101.21C57.7593 101.097 57.8286 101.041 57.9326 101.041H58.4916C58.8556 101.024 59.2326 100.998 59.6226 100.963C60.0213 100.92 60.3333 100.898 60.5586 100.898C60.6453 100.898 60.7189 100.915 60.7796 100.95C60.8489 100.976 60.8836 101.024 60.8836 101.093C60.8836 101.171 60.8533 101.227 60.7926 101.262C60.7406 101.297 60.6713 101.327 60.5846 101.353C60.5326 101.37 60.4719 101.396 60.4026 101.431C60.3333 101.457 60.2726 101.483 60.2206 101.509C59.9953 101.613 59.8263 101.734 59.7136 101.873C59.6096 102.003 59.5663 102.215 59.5836 102.51C59.6009 103.134 59.6226 103.68 59.6486 104.148C59.6746 104.616 59.6963 105.049 59.7136 105.448C59.7396 105.847 59.7656 106.263 59.7916 106.696C59.8263 107.121 59.8609 107.619 59.8956 108.191C59.9129 108.416 60.0039 108.598 60.1686 108.737C60.3419 108.867 60.5673 108.967 60.8446 109.036C60.9313 109.062 61.0049 109.092 61.0656 109.127C61.1263 109.162 61.1566 109.218 61.1566 109.296C61.1566 109.357 61.1306 109.404 61.0786 109.439C61.0266 109.474 60.9616 109.491 60.8836 109.491C60.6929 109.491 60.4719 109.482 60.2206 109.465C59.9779 109.456 59.7353 109.448 59.4926 109.439C59.2586 109.43 59.0549 109.426 58.8816 109.426C58.7083 109.426 58.5133 109.43 58.2966 109.439C58.0886 109.448 57.8763 109.456 57.6596 109.465C57.4429 109.482 57.2349 109.491 57.0356 109.491C56.9576 109.491 56.8883 109.478 56.8276 109.452C56.7669 109.417 56.7366 109.37 56.7366 109.309C56.7366 109.231 56.7669 109.17 56.8276 109.127C56.8883 109.084 56.9619 109.053 57.0486 109.036C57.3693 108.975 57.5903 108.889 57.7116 108.776C57.8329 108.655 57.8893 108.46 57.8806 108.191C57.8546 107.654 57.8329 107.121 57.8156 106.592C57.7983 106.055 57.7809 105.53 57.7636 105.019C57.7549 104.499 57.7376 103.996 57.7116 103.511C57.7116 103.45 57.6943 103.424 57.6596 103.433C57.6336 103.433 57.6076 103.463 57.5816 103.524L55.0986 109.426C55.0553 109.547 54.9903 109.599 54.9036 109.582C54.8169 109.565 54.7563 109.521 54.7216 109.452C54.2969 108.447 53.8506 107.454 53.3826 106.475C52.9233 105.496 52.4986 104.525 52.1086 103.563C52.0826 103.485 52.0393 103.459 51.9786 103.485C51.9266 103.502 51.8963 103.559 51.8876 103.654C51.8616 104.087 51.8399 104.564 51.8226 105.084C51.8053 105.595 51.7966 106.115 51.7966 106.644C51.7966 107.164 51.7966 107.649 51.7966 108.1C51.7966 108.343 51.8746 108.542 52.0306 108.698C52.1866 108.845 52.4336 108.958 52.7716 109.036C52.8583 109.053 52.9406 109.084 53.0186 109.127C53.0966 109.162 53.1356 109.218 53.1356 109.296C53.1356 109.357 53.1009 109.404 53.0316 109.439C52.9623 109.474 52.8886 109.491 52.8106 109.491C52.5766 109.491 52.3946 109.482 52.2646 109.465C52.1346 109.456 52.0176 109.452 51.9136 109.452C51.8096 109.443 51.6666 109.439 51.4846 109.439C51.2939 109.439 51.0989 109.443 50.8996 109.452C50.7003 109.461 50.5269 109.469 50.3796 109.478C50.2323 109.487 50.1369 109.491 50.0936 109.491ZM63.3145 109.491C63.2105 109.491 63.1325 109.478 63.0805 109.452C63.0285 109.417 63.0025 109.37 63.0025 109.309C63.0025 109.231 63.0372 109.183 63.1065 109.166C63.1845 109.14 63.2712 109.11 63.3665 109.075C63.5658 109.006 63.7392 108.884 63.8865 108.711C64.0425 108.538 64.1378 108.317 64.1725 108.048C64.2245 107.649 64.2765 107.16 64.3285 106.579C64.3892 105.99 64.4498 105.361 64.5105 104.694C64.5712 104.027 64.6232 103.368 64.6665 102.718C64.6752 102.666 64.6795 102.601 64.6795 102.523C64.6795 102.445 64.6795 102.363 64.6795 102.276C64.6795 102.12 64.6535 101.999 64.6015 101.912C64.5582 101.817 64.4802 101.739 64.3675 101.678C64.2635 101.609 64.1508 101.552 64.0295 101.509C63.9082 101.457 63.7782 101.414 63.6395 101.379C63.5355 101.353 63.4532 101.318 63.3925 101.275C63.3318 101.232 63.3015 101.175 63.3015 101.106C63.3015 101.028 63.3362 100.976 63.4055 100.95C63.4748 100.924 63.5572 100.911 63.6525 100.911C63.7825 100.911 63.9428 100.915 64.1335 100.924C64.3242 100.933 64.5322 100.941 64.7575 100.95C64.9915 100.95 65.2255 100.954 65.4595 100.963C65.7022 100.972 65.9232 100.976 66.1225 100.976C66.1918 100.976 66.2568 101.002 66.3175 101.054C66.3782 101.097 66.4172 101.149 66.4345 101.21C66.4952 101.375 66.5515 101.535 66.6035 101.691C66.6555 101.838 66.7118 101.994 66.7725 102.159L68.6835 106.722C68.7008 106.757 68.7225 106.778 68.7485 106.787C68.7832 106.787 68.8092 106.765 68.8265 106.722L70.6855 102.406C70.7462 102.103 70.7938 101.856 70.8285 101.665C70.8718 101.474 70.9108 101.323 70.9455 101.21C70.9802 101.097 71.0495 101.041 71.1535 101.041H71.7125C72.0765 101.024 72.4535 100.998 72.8435 100.963C73.2422 100.92 73.5542 100.898 73.7795 100.898C73.8662 100.898 73.9398 100.915 74.0005 100.95C74.0698 100.976 74.1045 101.024 74.1045 101.093C74.1045 101.171 74.0742 101.227 74.0135 101.262C73.9615 101.297 73.8922 101.327 73.8055 101.353C73.7535 101.37 73.6928 101.396 73.6235 101.431C73.5542 101.457 73.4935 101.483 73.4415 101.509C73.2162 101.613 73.0472 101.734 72.9345 101.873C72.8305 102.003 72.7872 102.215 72.8045 102.51C72.8218 103.134 72.8435 103.68 72.8695 104.148C72.8955 104.616 72.9172 105.049 72.9345 105.448C72.9605 105.847 72.9865 106.263 73.0125 106.696C73.0472 107.121 73.0818 107.619 73.1165 108.191C73.1338 108.416 73.2248 108.598 73.3895 108.737C73.5628 108.867 73.7882 108.967 74.0655 109.036C74.1522 109.062 74.2258 109.092 74.2865 109.127C74.3472 109.162 74.3775 109.218 74.3775 109.296C74.3775 109.357 74.3515 109.404 74.2995 109.439C74.2475 109.474 74.1825 109.491 74.1045 109.491C73.9138 109.491 73.6928 109.482 73.4415 109.465C73.1988 109.456 72.9562 109.448 72.7135 109.439C72.4795 109.43 72.2758 109.426 72.1025 109.426C71.9292 109.426 71.7342 109.43 71.5175 109.439C71.3095 109.448 71.0972 109.456 70.8805 109.465C70.6638 109.482 70.4558 109.491 70.2565 109.491C70.1785 109.491 70.1092 109.478 70.0485 109.452C69.9878 109.417 69.9575 109.37 69.9575 109.309C69.9575 109.231 69.9878 109.17 70.0485 109.127C70.1092 109.084 70.1828 109.053 70.2695 109.036C70.5902 108.975 70.8112 108.889 70.9325 108.776C71.0538 108.655 71.1102 108.46 71.1015 108.191C71.0755 107.654 71.0538 107.121 71.0365 106.592C71.0192 106.055 71.0018 105.53 70.9845 105.019C70.9758 104.499 70.9585 103.996 70.9325 103.511C70.9325 103.45 70.9152 103.424 70.8805 103.433C70.8545 103.433 70.8285 103.463 70.8025 103.524L68.3195 109.426C68.2762 109.547 68.2112 109.599 68.1245 109.582C68.0378 109.565 67.9772 109.521 67.9425 109.452C67.5178 108.447 67.0715 107.454 66.6035 106.475C66.1442 105.496 65.7195 104.525 65.3295 103.563C65.3035 103.485 65.2602 103.459 65.1995 103.485C65.1475 103.502 65.1172 103.559 65.1085 103.654C65.0825 104.087 65.0608 104.564 65.0435 105.084C65.0262 105.595 65.0175 106.115 65.0175 106.644C65.0175 107.164 65.0175 107.649 65.0175 108.1C65.0175 108.343 65.0955 108.542 65.2515 108.698C65.4075 108.845 65.6545 108.958 65.9925 109.036C66.0792 109.053 66.1615 109.084 66.2395 109.127C66.3175 109.162 66.3565 109.218 66.3565 109.296C66.3565 109.357 66.3218 109.404 66.2525 109.439C66.1832 109.474 66.1095 109.491 66.0315 109.491C65.7975 109.491 65.6155 109.482 65.4855 109.465C65.3555 109.456 65.2385 109.452 65.1345 109.452C65.0305 109.443 64.8875 109.439 64.7055 109.439C64.5148 109.439 64.3198 109.443 64.1205 109.452C63.9212 109.461 63.7478 109.469 63.6005 109.478C63.4532 109.487 63.3578 109.491 63.3145 109.491ZM80.8124 109.634C79.9977 109.634 79.3174 109.491 78.7714 109.205C78.2254 108.91 77.8137 108.503 77.5364 107.983C77.2677 107.463 77.1334 106.856 77.1334 106.163V102.458C77.1334 102.215 77.077 101.994 76.9644 101.795C76.8517 101.596 76.687 101.47 76.4704 101.418C76.2277 101.349 76.1064 101.253 76.1064 101.132C76.1064 101.071 76.1367 101.024 76.1974 100.989C76.2667 100.954 76.349 100.937 76.4444 100.937C76.7217 100.937 77.0077 100.95 77.3024 100.976C77.597 100.993 77.8744 101.002 78.1344 101.002C78.377 101.002 78.6674 100.993 79.0054 100.976C79.352 100.959 79.6467 100.95 79.8894 100.95C79.9934 100.95 80.0757 100.967 80.1364 101.002C80.2057 101.028 80.2404 101.076 80.2404 101.145C80.2404 101.24 80.1754 101.31 80.0454 101.353C79.9154 101.396 79.7767 101.453 79.6294 101.522C79.4994 101.574 79.3867 101.682 79.2914 101.847C79.196 102.003 79.1484 102.228 79.1484 102.523V105.929C79.1484 106.518 79.2437 107.004 79.4344 107.385C79.625 107.766 79.8764 108.048 80.1884 108.23C80.509 108.412 80.8644 108.503 81.2544 108.503C82.043 108.503 82.628 108.269 83.0094 107.801C83.3994 107.333 83.5944 106.618 83.5944 105.656C83.5944 105.431 83.5944 105.179 83.5944 104.902C83.603 104.616 83.6074 104.326 83.6074 104.031C83.6074 103.728 83.603 103.442 83.5944 103.173C83.5857 102.783 83.5554 102.48 83.5034 102.263C83.46 102.046 83.3907 101.877 83.2954 101.756C83.2 101.635 83.07 101.535 82.9054 101.457C82.81 101.405 82.6974 101.362 82.5674 101.327C82.446 101.284 82.3854 101.223 82.3854 101.145C82.3854 101.076 82.42 101.028 82.4894 101.002C82.5587 100.976 82.6541 100.963 82.7754 100.963C83.0874 100.963 83.3214 100.967 83.4774 100.976C83.642 100.985 83.824 100.989 84.0234 100.989C84.188 100.989 84.3224 100.985 84.4264 100.976C84.539 100.967 84.6517 100.959 84.7644 100.95C84.8857 100.941 85.0287 100.937 85.1934 100.937C85.2974 100.937 85.3797 100.95 85.4404 100.976C85.5011 101.002 85.5314 101.054 85.5314 101.132C85.5314 101.245 85.4144 101.336 85.1804 101.405C84.8944 101.483 84.6907 101.617 84.5694 101.808C84.4567 101.99 84.3917 102.237 84.3744 102.549C84.3484 103.208 84.331 103.814 84.3224 104.369C84.3137 104.915 84.3094 105.474 84.3094 106.046C84.3007 106.748 84.1404 107.372 83.8284 107.918C83.525 108.455 83.109 108.876 82.5804 109.179C82.0517 109.482 81.4624 109.634 80.8124 109.634ZM95.7899 109.699C95.6772 109.699 95.4952 109.63 95.2439 109.491C94.9926 109.361 94.7326 109.127 94.4639 108.789C94.2559 108.572 94.0392 108.338 93.8139 108.087C93.5886 107.836 93.3502 107.576 93.0989 107.307C92.8476 107.038 92.5919 106.765 92.3319 106.488C92.0806 106.211 91.8292 105.938 91.5779 105.669C91.3266 105.392 91.0752 105.119 90.8239 104.85C90.5726 104.581 90.3342 104.321 90.1089 104.07C89.8836 103.819 89.6669 103.585 89.4589 103.368C89.4416 103.333 89.4112 103.303 89.3679 103.277C89.3332 103.242 89.3072 103.225 89.2899 103.225C89.2552 103.225 89.2292 103.255 89.2119 103.316C89.2032 103.377 89.1989 103.429 89.1989 103.472C89.1902 103.871 89.1902 104.339 89.1989 104.876C89.2076 105.413 89.2162 105.959 89.2249 106.514C89.2422 107.06 89.2509 107.558 89.2509 108.009C89.2509 108.286 89.3376 108.507 89.5109 108.672C89.6842 108.828 89.9399 108.949 90.2779 109.036C90.3732 109.053 90.4556 109.084 90.5249 109.127C90.6029 109.162 90.6419 109.218 90.6419 109.296C90.6419 109.357 90.6072 109.404 90.5379 109.439C90.4686 109.474 90.3949 109.491 90.3169 109.491C90.0829 109.491 89.8922 109.482 89.7449 109.465C89.5976 109.456 89.4589 109.452 89.3289 109.452C89.2076 109.443 89.0559 109.439 88.8739 109.439C88.6832 109.439 88.5012 109.443 88.3279 109.452C88.1632 109.461 88.0202 109.469 87.8989 109.478C87.7862 109.487 87.7082 109.491 87.6649 109.491C87.6042 109.491 87.5349 109.478 87.4569 109.452C87.3876 109.417 87.3529 109.37 87.3529 109.309C87.3529 109.231 87.3876 109.175 87.4569 109.14C87.5262 109.105 87.6042 109.071 87.6909 109.036C87.8989 108.958 88.0549 108.828 88.1589 108.646C88.2716 108.464 88.3366 108.239 88.3539 107.97C88.3886 107.649 88.4232 107.225 88.4579 106.696C88.5012 106.167 88.5402 105.574 88.5749 104.915C88.6096 104.248 88.6269 103.559 88.6269 102.848C88.6269 102.397 88.5099 102.072 88.2759 101.873C88.0506 101.674 87.7732 101.513 87.4439 101.392C87.3746 101.375 87.2966 101.344 87.2099 101.301C87.1232 101.249 87.0799 101.184 87.0799 101.106C87.0799 101.028 87.1146 100.976 87.1839 100.95C87.2532 100.915 87.3312 100.898 87.4179 100.898C87.5739 100.898 87.7472 100.902 87.9379 100.911C88.1372 100.92 88.3452 100.928 88.5619 100.937C88.7786 100.937 89.0039 100.941 89.2379 100.95C89.4719 100.959 89.7059 100.963 89.9399 100.963C90.0092 100.963 90.0612 100.976 90.0959 101.002C90.1392 101.028 90.1782 101.063 90.2129 101.106C90.4036 101.323 90.6072 101.557 90.8239 101.808C91.0492 102.059 91.2832 102.324 91.5259 102.601C91.7686 102.87 92.0156 103.147 92.2669 103.433C92.5182 103.71 92.7652 103.992 93.0079 104.278C93.2592 104.564 93.5019 104.841 93.7359 105.11C93.9786 105.379 94.2126 105.639 94.4379 105.89C94.6632 106.141 94.8712 106.375 95.0619 106.592C95.0879 106.627 95.1182 106.666 95.1529 106.709C95.1962 106.744 95.2352 106.761 95.2699 106.761C95.3392 106.761 95.3739 106.696 95.3739 106.566C95.3739 106.297 95.3739 105.985 95.3739 105.63C95.3826 105.275 95.3869 104.898 95.3869 104.499C95.3869 104.1 95.3826 103.706 95.3739 103.316C95.3739 102.926 95.3652 102.566 95.3479 102.237C95.3392 102.003 95.2482 101.83 95.0749 101.717C94.9102 101.596 94.6806 101.496 94.3859 101.418C94.2906 101.401 94.2082 101.37 94.1389 101.327C94.0696 101.284 94.0349 101.223 94.0349 101.145C94.0349 101.084 94.0696 101.041 94.1389 101.015C94.2082 100.98 94.2819 100.963 94.3599 100.963C94.5592 100.963 94.7282 100.967 94.8669 100.976C95.0056 100.976 95.1312 100.976 95.2439 100.976C95.3566 100.976 95.4822 100.976 95.6209 100.976C95.7942 100.976 95.9416 100.976 96.0629 100.976C96.1842 100.967 96.3142 100.959 96.4529 100.95C96.6002 100.941 96.7866 100.937 97.0119 100.937C97.1159 100.937 97.1939 100.954 97.2459 100.989C97.3066 101.024 97.3369 101.071 97.3369 101.132C97.3369 101.262 97.2242 101.349 96.9989 101.392C96.6956 101.453 96.4789 101.539 96.3489 101.652C96.2189 101.765 96.1496 101.947 96.1409 102.198C96.1409 102.51 96.1366 102.844 96.1279 103.199C96.1279 103.554 96.1192 103.918 96.1019 104.291C96.0846 104.664 96.0672 105.036 96.0499 105.409C96.0412 105.773 96.0326 106.124 96.0239 106.462C96.0152 106.8 96.0109 107.112 96.0109 107.398C96.0109 107.597 96.0239 107.818 96.0499 108.061C96.0759 108.295 96.0976 108.512 96.1149 108.711C96.1409 108.902 96.1539 109.036 96.1539 109.114C96.1539 109.331 96.1192 109.482 96.0499 109.569C95.9892 109.656 95.9026 109.699 95.7899 109.699ZM99.2296 109.491C99.1603 109.491 99.0996 109.478 99.0476 109.452C98.9956 109.417 98.9696 109.37 98.9696 109.309C98.9696 109.17 99.0606 109.079 99.2426 109.036C99.572 108.967 99.8016 108.88 99.9316 108.776C100.062 108.663 100.127 108.468 100.127 108.191V102.289C100.127 102.012 100.07 101.817 99.9576 101.704C99.845 101.583 99.6153 101.483 99.2686 101.405C99.0866 101.362 98.9956 101.271 98.9956 101.132C98.9956 101.071 99.0216 101.024 99.0736 100.989C99.1256 100.954 99.1863 100.937 99.2556 100.937C99.455 100.937 99.663 100.941 99.8796 100.95C100.105 100.959 100.322 100.972 100.53 100.989C100.746 100.998 100.946 101.002 101.128 101.002C101.301 101.002 101.496 100.998 101.713 100.989C101.938 100.98 102.163 100.972 102.389 100.963C102.623 100.954 102.835 100.95 103.026 100.95C103.104 100.95 103.164 100.967 103.208 101.002C103.251 101.028 103.273 101.071 103.273 101.132C103.273 101.219 103.247 101.279 103.195 101.314C103.151 101.349 103.082 101.379 102.987 101.405C102.64 101.5 102.41 101.609 102.298 101.73C102.185 101.843 102.129 102.033 102.129 102.302V108.178C102.129 108.429 102.189 108.616 102.311 108.737C102.441 108.85 102.675 108.949 103.013 109.036C103.099 109.062 103.164 109.092 103.208 109.127C103.26 109.162 103.286 109.218 103.286 109.296C103.286 109.357 103.264 109.404 103.221 109.439C103.186 109.474 103.13 109.491 103.052 109.491C102.861 109.491 102.649 109.482 102.415 109.465C102.181 109.456 101.951 109.448 101.726 109.439C101.5 109.43 101.301 109.426 101.128 109.426C100.946 109.426 100.746 109.43 100.53 109.439C100.313 109.448 100.092 109.456 99.8666 109.465C99.6413 109.482 99.429 109.491 99.2296 109.491ZM109.672 109.634C109.074 109.634 108.502 109.534 107.956 109.335C107.419 109.127 106.938 108.837 106.513 108.464C106.097 108.083 105.768 107.632 105.525 107.112C105.291 106.583 105.174 105.998 105.174 105.357C105.174 104.768 105.269 104.204 105.46 103.667C105.659 103.121 105.954 102.636 106.344 102.211C106.734 101.786 107.215 101.448 107.787 101.197C108.368 100.946 109.035 100.82 109.789 100.82C110.396 100.82 110.968 100.924 111.505 101.132C112.051 101.331 112.532 101.622 112.948 102.003C113.364 102.376 113.693 102.826 113.936 103.355C114.179 103.875 114.3 104.456 114.3 105.097C114.3 105.678 114.2 106.241 114.001 106.787C113.802 107.333 113.507 107.818 113.117 108.243C112.727 108.668 112.242 109.006 111.661 109.257C111.089 109.508 110.426 109.634 109.672 109.634ZM109.906 109.036C110.4 109.036 110.812 108.897 111.141 108.62C111.479 108.343 111.73 107.957 111.895 107.463C112.06 106.969 112.142 106.401 112.142 105.76C112.142 105.231 112.09 104.711 111.986 104.2C111.891 103.68 111.735 103.212 111.518 102.796C111.31 102.38 111.041 102.051 110.712 101.808C110.383 101.557 109.993 101.431 109.542 101.431C109.057 101.431 108.645 101.57 108.307 101.847C107.978 102.124 107.731 102.506 107.566 102.991C107.401 103.476 107.319 104.04 107.319 104.681C107.319 105.218 107.371 105.747 107.475 106.267C107.579 106.778 107.735 107.242 107.943 107.658C108.151 108.074 108.415 108.408 108.736 108.659C109.065 108.91 109.455 109.036 109.906 109.036ZM124.814 109.699C124.701 109.699 124.519 109.63 124.268 109.491C124.017 109.361 123.757 109.127 123.488 108.789C123.28 108.572 123.063 108.338 122.838 108.087C122.613 107.836 122.374 107.576 122.123 107.307C121.872 107.038 121.616 106.765 121.356 106.488C121.105 106.211 120.853 105.938 120.602 105.669C120.351 105.392 120.099 105.119 119.848 104.85C119.597 104.581 119.358 104.321 119.133 104.07C118.908 103.819 118.691 103.585 118.483 103.368C118.466 103.333 118.435 103.303 118.392 103.277C118.357 103.242 118.331 103.225 118.314 103.225C118.279 103.225 118.253 103.255 118.236 103.316C118.227 103.377 118.223 103.429 118.223 103.472C118.214 103.871 118.214 104.339 118.223 104.876C118.232 105.413 118.24 105.959 118.249 106.514C118.266 107.06 118.275 107.558 118.275 108.009C118.275 108.286 118.362 108.507 118.535 108.672C118.708 108.828 118.964 108.949 119.302 109.036C119.397 109.053 119.48 109.084 119.549 109.127C119.627 109.162 119.666 109.218 119.666 109.296C119.666 109.357 119.631 109.404 119.562 109.439C119.493 109.474 119.419 109.491 119.341 109.491C119.107 109.491 118.916 109.482 118.769 109.465C118.622 109.456 118.483 109.452 118.353 109.452C118.232 109.443 118.08 109.439 117.898 109.439C117.707 109.439 117.525 109.443 117.352 109.452C117.187 109.461 117.044 109.469 116.923 109.478C116.81 109.487 116.732 109.491 116.689 109.491C116.628 109.491 116.559 109.478 116.481 109.452C116.412 109.417 116.377 109.37 116.377 109.309C116.377 109.231 116.412 109.175 116.481 109.14C116.55 109.105 116.628 109.071 116.715 109.036C116.923 108.958 117.079 108.828 117.183 108.646C117.296 108.464 117.361 108.239 117.378 107.97C117.413 107.649 117.447 107.225 117.482 106.696C117.525 106.167 117.564 105.574 117.599 104.915C117.634 104.248 117.651 103.559 117.651 102.848C117.651 102.397 117.534 102.072 117.3 101.873C117.075 101.674 116.797 101.513 116.468 101.392C116.399 101.375 116.321 101.344 116.234 101.301C116.147 101.249 116.104 101.184 116.104 101.106C116.104 101.028 116.139 100.976 116.208 100.95C116.277 100.915 116.355 100.898 116.442 100.898C116.598 100.898 116.771 100.902 116.962 100.911C117.161 100.92 117.369 100.928 117.586 100.937C117.803 100.937 118.028 100.941 118.262 100.95C118.496 100.959 118.73 100.963 118.964 100.963C119.033 100.963 119.085 100.976 119.12 101.002C119.163 101.028 119.202 101.063 119.237 101.106C119.428 101.323 119.631 101.557 119.848 101.808C120.073 102.059 120.307 102.324 120.55 102.601C120.793 102.87 121.04 103.147 121.291 103.433C121.542 103.71 121.789 103.992 122.032 104.278C122.283 104.564 122.526 104.841 122.76 105.11C123.003 105.379 123.237 105.639 123.462 105.89C123.687 106.141 123.895 106.375 124.086 106.592C124.112 106.627 124.142 106.666 124.177 106.709C124.22 106.744 124.259 106.761 124.294 106.761C124.363 106.761 124.398 106.696 124.398 106.566C124.398 106.297 124.398 105.985 124.398 105.63C124.407 105.275 124.411 104.898 124.411 104.499C124.411 104.1 124.407 103.706 124.398 103.316C124.398 102.926 124.389 102.566 124.372 102.237C124.363 102.003 124.272 101.83 124.099 101.717C123.934 101.596 123.705 101.496 123.41 101.418C123.315 101.401 123.232 101.37 123.163 101.327C123.094 101.284 123.059 101.223 123.059 101.145C123.059 101.084 123.094 101.041 123.163 101.015C123.232 100.98 123.306 100.963 123.384 100.963C123.583 100.963 123.752 100.967 123.891 100.976C124.03 100.976 124.155 100.976 124.268 100.976C124.381 100.976 124.506 100.976 124.645 100.976C124.818 100.976 124.966 100.976 125.087 100.976C125.208 100.967 125.338 100.959 125.477 100.95C125.624 100.941 125.811 100.937 126.036 100.937C126.14 100.937 126.218 100.954 126.27 100.989C126.331 101.024 126.361 101.071 126.361 101.132C126.361 101.262 126.248 101.349 126.023 101.392C125.72 101.453 125.503 101.539 125.373 101.652C125.243 101.765 125.174 101.947 125.165 102.198C125.165 102.51 125.161 102.844 125.152 103.199C125.152 103.554 125.143 103.918 125.126 104.291C125.109 104.664 125.091 105.036 125.074 105.409C125.065 105.773 125.057 106.124 125.048 106.462C125.039 106.8 125.035 107.112 125.035 107.398C125.035 107.597 125.048 107.818 125.074 108.061C125.1 108.295 125.122 108.512 125.139 108.711C125.165 108.902 125.178 109.036 125.178 109.114C125.178 109.331 125.143 109.482 125.074 109.569C125.013 109.656 124.927 109.699 124.814 109.699ZM140.556 109.725C140.114 109.725 139.741 109.669 139.438 109.556C139.134 109.452 138.874 109.313 138.658 109.14C138.45 108.958 138.263 108.754 138.099 108.529C137.908 108.278 137.722 108.026 137.54 107.775C137.366 107.524 137.193 107.251 137.02 106.956C136.846 106.661 136.664 106.323 136.474 105.942C136.387 105.751 136.27 105.617 136.123 105.539C136.045 105.487 135.967 105.452 135.889 105.435C135.811 105.418 135.741 105.409 135.681 105.409C135.637 105.409 135.603 105.435 135.577 105.487C135.551 105.53 135.538 105.591 135.538 105.669V108.152C135.538 108.421 135.611 108.616 135.759 108.737C135.906 108.858 136.162 108.958 136.526 109.036C136.621 109.053 136.69 109.084 136.734 109.127C136.786 109.162 136.812 109.218 136.812 109.296C136.812 109.357 136.79 109.404 136.747 109.439C136.703 109.474 136.643 109.491 136.565 109.491C136.374 109.491 136.153 109.482 135.902 109.465C135.659 109.456 135.416 109.448 135.174 109.439C134.931 109.43 134.723 109.426 134.55 109.426C134.368 109.426 134.168 109.43 133.952 109.439C133.735 109.448 133.51 109.456 133.276 109.465C133.05 109.482 132.842 109.491 132.652 109.491C132.582 109.491 132.522 109.478 132.47 109.452C132.418 109.417 132.392 109.37 132.392 109.309C132.392 109.17 132.483 109.079 132.665 109.036C132.994 108.967 133.219 108.88 133.341 108.776C133.471 108.663 133.536 108.464 133.536 108.178V102.341C133.536 102.133 133.514 101.968 133.471 101.847C133.436 101.726 133.362 101.635 133.25 101.574C133.137 101.505 132.972 101.448 132.756 101.405C132.643 101.379 132.565 101.344 132.522 101.301C132.478 101.249 132.457 101.193 132.457 101.132C132.457 101.08 132.483 101.037 132.535 101.002C132.587 100.959 132.656 100.937 132.743 100.937C133.02 100.937 133.245 100.946 133.419 100.963C133.601 100.98 133.77 100.998 133.926 101.015C134.09 101.024 134.281 101.028 134.498 101.028C134.697 101.028 134.87 101.019 135.018 101.002C135.174 100.976 135.347 100.954 135.538 100.937C135.737 100.92 135.988 100.911 136.292 100.911C137.306 100.911 138.086 101.084 138.632 101.431C139.178 101.778 139.451 102.302 139.451 103.004C139.451 103.394 139.364 103.723 139.191 103.992C139.026 104.252 138.814 104.469 138.554 104.642C138.302 104.807 138.047 104.932 137.787 105.019C137.752 105.028 137.735 105.049 137.735 105.084C137.743 105.11 137.756 105.14 137.774 105.175C138.034 105.556 138.285 105.929 138.528 106.293C138.779 106.648 139.035 106.982 139.295 107.294C139.555 107.597 139.823 107.879 140.101 108.139C140.395 108.416 140.694 108.581 140.998 108.633C141.31 108.676 141.617 108.698 141.921 108.698C142.051 108.698 142.116 108.776 142.116 108.932C142.116 109.123 142.046 109.279 141.908 109.4C141.778 109.513 141.596 109.595 141.362 109.647C141.128 109.699 140.859 109.725 140.556 109.725ZM136.032 104.993C136.361 104.993 136.634 104.919 136.851 104.772C137.067 104.625 137.232 104.425 137.345 104.174C137.457 103.914 137.514 103.619 137.514 103.29C137.514 102.891 137.462 102.558 137.358 102.289C137.254 102.02 137.098 101.821 136.89 101.691C136.682 101.552 136.413 101.483 136.084 101.483C135.893 101.483 135.754 101.561 135.668 101.717C135.59 101.864 135.551 102.185 135.551 102.679C135.542 102.878 135.538 103.13 135.538 103.433C135.538 103.736 135.538 104.096 135.538 104.512C135.538 104.685 135.581 104.811 135.668 104.889C135.763 104.958 135.884 104.993 136.032 104.993ZM143.816 109.491C143.746 109.491 143.686 109.478 143.634 109.452C143.582 109.417 143.556 109.37 143.556 109.309C143.556 109.17 143.647 109.079 143.829 109.036C144.158 108.967 144.388 108.88 144.518 108.776C144.648 108.663 144.713 108.468 144.713 108.191V102.289C144.713 102.012 144.656 101.817 144.544 101.704C144.431 101.583 144.201 101.483 143.855 101.405C143.673 101.362 143.582 101.271 143.582 101.132C143.582 101.071 143.608 101.024 143.66 100.989C143.712 100.954 143.772 100.937 143.842 100.937C144.041 100.937 144.249 100.941 144.466 100.95C144.691 100.959 144.908 100.972 145.116 100.989C145.332 100.998 145.532 101.002 145.714 101.002C145.887 101.002 146.082 100.998 146.299 100.989C146.524 100.98 146.749 100.972 146.975 100.963C147.209 100.954 147.421 100.95 147.612 100.95C147.69 100.95 147.75 100.967 147.794 101.002C147.837 101.028 147.859 101.071 147.859 101.132C147.859 101.219 147.833 101.279 147.781 101.314C147.737 101.349 147.668 101.379 147.573 101.405C147.226 101.5 146.996 101.609 146.884 101.73C146.771 101.843 146.715 102.033 146.715 102.302V108.178C146.715 108.429 146.775 108.616 146.897 108.737C147.027 108.85 147.261 108.949 147.599 109.036C147.685 109.062 147.75 109.092 147.794 109.127C147.846 109.162 147.872 109.218 147.872 109.296C147.872 109.357 147.85 109.404 147.807 109.439C147.772 109.474 147.716 109.491 147.638 109.491C147.447 109.491 147.235 109.482 147.001 109.465C146.767 109.456 146.537 109.448 146.312 109.439C146.086 109.43 145.887 109.426 145.714 109.426C145.532 109.426 145.332 109.43 145.116 109.439C144.899 109.448 144.678 109.456 144.453 109.465C144.227 109.482 144.015 109.491 143.816 109.491ZM152.061 109.491C152 109.491 151.935 109.478 151.866 109.452C151.797 109.417 151.762 109.37 151.762 109.309C151.762 109.231 151.792 109.17 151.853 109.127C151.914 109.084 151.987 109.053 152.074 109.036C152.403 108.967 152.642 108.876 152.789 108.763C152.945 108.65 153.023 108.455 153.023 108.178V102.809C153.023 102.471 153.014 102.224 152.997 102.068C152.98 101.903 152.954 101.795 152.919 101.743C152.893 101.682 152.858 101.643 152.815 101.626C152.737 101.583 152.633 101.561 152.503 101.561C152.382 101.552 152.282 101.548 152.204 101.548H151.918C151.641 101.548 151.376 101.617 151.125 101.756C150.882 101.886 150.687 102.051 150.54 102.25C150.497 102.311 150.432 102.397 150.345 102.51C150.267 102.614 150.18 102.709 150.085 102.796C149.998 102.874 149.912 102.913 149.825 102.913C149.756 102.913 149.708 102.891 149.682 102.848C149.656 102.796 149.643 102.74 149.643 102.679C149.643 102.575 149.669 102.467 149.721 102.354C149.886 102.025 150.007 101.743 150.085 101.509C150.163 101.275 150.215 101.006 150.241 100.703C150.258 100.573 150.297 100.486 150.358 100.443C150.419 100.391 150.488 100.365 150.566 100.365C150.627 100.365 150.692 100.421 150.761 100.534C150.83 100.647 150.904 100.738 150.982 100.807C151.069 100.876 151.212 100.928 151.411 100.963C151.619 100.998 151.788 101.015 151.918 101.015H156.806C157.023 101.015 157.205 100.993 157.352 100.95C157.508 100.907 157.625 100.863 157.703 100.82C157.842 100.742 157.95 100.655 158.028 100.56C158.115 100.465 158.214 100.417 158.327 100.417C158.379 100.417 158.414 100.439 158.431 100.482C158.457 100.517 158.47 100.569 158.47 100.638C158.47 100.673 158.466 100.716 158.457 100.768C158.457 100.82 158.453 100.868 158.444 100.911C158.401 101.076 158.357 101.236 158.314 101.392C158.271 101.539 158.236 101.682 158.21 101.821C158.184 101.96 158.171 102.103 158.171 102.25V102.51C158.171 102.649 158.154 102.761 158.119 102.848C158.093 102.935 158.037 102.978 157.95 102.978C157.872 102.978 157.807 102.939 157.755 102.861C157.703 102.774 157.647 102.64 157.586 102.458C157.491 102.146 157.348 101.916 157.157 101.769C156.975 101.622 156.693 101.548 156.312 101.548H155.636C155.489 101.548 155.367 101.583 155.272 101.652C155.185 101.713 155.12 101.843 155.077 102.042C155.034 102.233 155.012 102.527 155.012 102.926V108.165C155.012 108.425 155.081 108.616 155.22 108.737C155.367 108.85 155.61 108.949 155.948 109.036C156.035 109.062 156.108 109.092 156.169 109.127C156.23 109.162 156.26 109.218 156.26 109.296C156.26 109.357 156.234 109.404 156.182 109.439C156.13 109.474 156.065 109.491 155.987 109.491C155.796 109.491 155.58 109.482 155.337 109.465C155.103 109.456 154.865 109.448 154.622 109.439C154.388 109.43 154.184 109.426 154.011 109.426C153.829 109.426 153.621 109.43 153.387 109.439C153.162 109.448 152.932 109.456 152.698 109.465C152.473 109.482 152.26 109.491 152.061 109.491ZM160.255 109.517C160.168 109.517 160.099 109.495 160.047 109.452C160.004 109.417 159.982 109.374 159.982 109.322C159.982 109.192 160.077 109.101 160.268 109.049C160.563 108.971 160.771 108.88 160.892 108.776C161.022 108.672 161.087 108.481 161.087 108.204V102.289C161.087 102.012 161.031 101.812 160.918 101.691C160.805 101.57 160.593 101.474 160.281 101.405C160.168 101.379 160.09 101.344 160.047 101.301C160.004 101.249 159.982 101.193 159.982 101.132C159.982 101.08 160.008 101.037 160.06 101.002C160.112 100.959 160.181 100.937 160.268 100.937C160.485 100.937 160.706 100.941 160.931 100.95C161.156 100.959 161.377 100.972 161.594 100.989C161.811 100.998 162.019 101.002 162.218 101.002C162.669 101.002 163.15 100.998 163.661 100.989C164.172 100.98 164.627 100.972 165.026 100.963C165.303 100.963 165.533 100.95 165.715 100.924C165.897 100.889 166.005 100.872 166.04 100.872C166.101 100.872 166.166 100.894 166.235 100.937C166.313 100.972 166.356 101.032 166.365 101.119C166.4 101.431 166.443 101.734 166.495 102.029C166.547 102.324 166.573 102.584 166.573 102.809C166.573 102.887 166.556 102.948 166.521 102.991C166.486 103.034 166.447 103.056 166.404 103.056C166.361 103.056 166.313 103.039 166.261 103.004C166.218 102.969 166.183 102.917 166.157 102.848C166.07 102.631 165.992 102.445 165.923 102.289C165.854 102.133 165.776 102.007 165.689 101.912C165.585 101.817 165.459 101.726 165.312 101.639C165.165 101.552 164.978 101.509 164.753 101.509H163.778C163.587 101.509 163.423 101.561 163.284 101.665C163.145 101.76 163.076 101.899 163.076 102.081V104.538C163.076 104.642 163.106 104.72 163.167 104.772C163.228 104.824 163.306 104.85 163.401 104.85H164.545C164.77 104.85 164.931 104.776 165.026 104.629C165.13 104.473 165.221 104.287 165.299 104.07C165.36 103.905 165.446 103.823 165.559 103.823C165.602 103.823 165.641 103.849 165.676 103.901C165.711 103.944 165.724 104.014 165.715 104.109C165.706 104.213 165.698 104.326 165.689 104.447C165.68 104.568 165.672 104.69 165.663 104.811C165.663 104.932 165.663 105.049 165.663 105.162C165.663 105.266 165.663 105.379 165.663 105.5C165.672 105.621 165.676 105.743 165.676 105.864C165.685 105.985 165.693 106.102 165.702 106.215C165.719 106.336 165.715 106.427 165.689 106.488C165.663 106.54 165.624 106.566 165.572 106.566C165.433 106.566 165.334 106.453 165.273 106.228C165.195 105.968 165.108 105.769 165.013 105.63C164.918 105.491 164.783 105.422 164.61 105.422H163.401C163.297 105.422 163.215 105.448 163.154 105.5C163.102 105.543 163.076 105.617 163.076 105.721V108.191C163.076 108.451 163.132 108.633 163.245 108.737C163.358 108.841 163.531 108.893 163.765 108.893H164.883C165.074 108.893 165.256 108.871 165.429 108.828C165.602 108.785 165.75 108.711 165.871 108.607C166.018 108.486 166.153 108.334 166.274 108.152C166.395 107.97 166.508 107.775 166.612 107.567C166.647 107.506 166.681 107.467 166.716 107.45C166.759 107.424 166.807 107.411 166.859 107.411C166.902 107.411 166.933 107.437 166.95 107.489C166.976 107.541 166.989 107.597 166.989 107.658C166.989 107.805 166.967 107.97 166.924 108.152C166.881 108.334 166.824 108.529 166.755 108.737C166.694 108.936 166.634 109.136 166.573 109.335C166.556 109.396 166.517 109.439 166.456 109.465C166.404 109.491 166.348 109.504 166.287 109.504C166.174 109.504 165.962 109.5 165.65 109.491C165.347 109.491 164.987 109.487 164.571 109.478C164.155 109.469 163.726 109.461 163.284 109.452C162.842 109.452 162.43 109.452 162.049 109.452C161.876 109.452 161.685 109.456 161.477 109.465C161.269 109.474 161.057 109.482 160.84 109.491C160.632 109.508 160.437 109.517 160.255 109.517Z" fill="white"/>
</svg>
