<svg width="190" height="125" viewBox="0 0 190 125" fill="none" xmlns="http://www.w3.org/2000/svg">
<path d="M0 0H180C185.523 0 190 4.47715 190 10V115C190 120.523 185.523 125 180 125H0V0Z" fill="#FFE500"/>
<path d="M28.4338 55.8981C27.2898 55.8981 26.2192 55.7294 25.2218 55.3921C24.2245 55.0401 23.3445 54.5488 22.5818 53.9181C21.8192 53.2728 21.2252 52.5028 20.7998 51.6081C20.3745 50.7134 20.1618 49.7234 20.1618 48.6381C20.1618 47.6261 20.3598 46.6654 20.7558 45.7561C21.1665 44.8321 21.7605 44.0181 22.5378 43.3141C23.3152 42.5954 24.2465 42.0308 25.3318 41.6201C26.4318 41.1948 27.6712 40.9821 29.0498 40.9821C29.5192 40.9821 29.9885 41.0188 30.4578 41.0921C30.9418 41.1508 31.4038 41.2388 31.8438 41.3561C32.2985 41.4734 32.7092 41.5981 33.0758 41.7301C33.2078 41.7888 33.3178 41.8694 33.4058 41.9721C33.5085 42.0601 33.5672 42.1921 33.5818 42.3681C33.6405 42.8521 33.6845 43.3214 33.7138 43.7761C33.7432 44.2308 33.7578 44.6414 33.7578 45.0081C33.7578 45.1694 33.6992 45.2794 33.5818 45.3381C33.4645 45.3968 33.3325 45.4041 33.1858 45.3601C33.0538 45.3014 32.9585 45.1841 32.8998 45.0081C32.7972 44.6708 32.6725 44.3334 32.5258 43.9961C32.3938 43.6588 32.1885 43.3654 31.9098 43.1161C31.6165 42.8228 31.2058 42.5808 30.6778 42.3901C30.1645 42.1994 29.5412 42.1041 28.8078 42.1041C28.0598 42.1041 27.3778 42.2654 26.7618 42.5881C26.1605 42.9108 25.6398 43.3508 25.1998 43.9081C24.7745 44.4654 24.4445 45.0961 24.2098 45.8001C23.9752 46.5041 23.8578 47.2374 23.8578 48.0001C23.8578 48.9681 23.9605 49.8701 24.1658 50.7061C24.3712 51.5274 24.6865 52.2388 25.1118 52.8401C25.5372 53.4414 26.0578 53.9108 26.6738 54.2481C27.2898 54.5854 28.0158 54.7541 28.8518 54.7541C29.9372 54.7541 30.8172 54.5268 31.4918 54.0721C32.1665 53.6028 32.7312 52.8914 33.1858 51.9381C33.3032 51.6741 33.4645 51.5494 33.6698 51.5641C33.8898 51.5788 33.9998 51.7034 33.9998 51.9381C33.9998 52.1288 33.9778 52.3634 33.9338 52.6421C33.9045 52.9061 33.8532 53.1921 33.7798 53.5001C33.7065 53.8081 33.6185 54.1234 33.5158 54.4461C33.4572 54.6221 33.3765 54.7614 33.2738 54.8641C33.1858 54.9521 33.0685 55.0328 32.9218 55.1061C32.3645 55.3408 31.7045 55.5314 30.9418 55.6781C30.1792 55.8248 29.3432 55.8981 28.4338 55.8981ZM43.3715 55.8981C42.3595 55.8981 41.3915 55.7294 40.4675 55.3921C39.5582 55.0401 38.7442 54.5488 38.0255 53.9181C37.3215 53.2728 36.7642 52.5101 36.3535 51.6301C35.9575 50.7354 35.7595 49.7454 35.7595 48.6601C35.7595 47.6628 35.9208 46.7094 36.2435 45.8001C36.5808 44.8761 37.0795 44.0548 37.7395 43.3361C38.3995 42.6174 39.2135 42.0454 40.1815 41.6201C41.1642 41.1948 42.2935 40.9821 43.5695 40.9821C44.5962 40.9821 45.5642 41.1581 46.4735 41.5101C47.3975 41.8474 48.2115 42.3388 48.9155 42.9841C49.6195 43.6148 50.1768 44.3774 50.5875 45.2721C50.9982 46.1521 51.2035 47.1348 51.2035 48.2201C51.2035 49.2028 51.0348 50.1561 50.6975 51.0801C50.3602 52.0041 49.8615 52.8254 49.2015 53.5441C48.5415 54.2628 47.7202 54.8348 46.7375 55.2601C45.7695 55.6854 44.6475 55.8981 43.3715 55.8981ZM43.7675 54.8861C44.6035 54.8861 45.3002 54.6514 45.8575 54.1821C46.4295 53.7128 46.8548 53.0601 47.1335 52.2241C47.4122 51.3881 47.5515 50.4274 47.5515 49.3421C47.5515 48.4474 47.4635 47.5674 47.2875 46.7021C47.1262 45.8221 46.8622 45.0301 46.4955 44.3261C46.1435 43.6221 45.6888 43.0648 45.1315 42.6541C44.5742 42.2288 43.9142 42.0161 43.1515 42.0161C42.3302 42.0161 41.6335 42.2508 41.0615 42.7201C40.5042 43.1894 40.0862 43.8348 39.8075 44.6561C39.5288 45.4774 39.3895 46.4308 39.3895 47.5161C39.3895 48.4254 39.4775 49.3201 39.6535 50.2001C39.8295 51.0654 40.0935 51.8501 40.4455 52.5541C40.7975 53.2581 41.2448 53.8228 41.7875 54.2481C42.3448 54.6734 43.0048 54.8861 43.7675 54.8861ZM66.7963 56.0081C66.6057 56.0081 66.2977 55.8908 65.8723 55.6561C65.447 55.4361 65.007 55.0401 64.5523 54.4681C64.2003 54.1014 63.8337 53.7054 63.4523 53.2801C63.071 52.8548 62.6677 52.4148 62.2423 51.9601C61.817 51.5054 61.3843 51.0434 60.9443 50.5741C60.519 50.1048 60.0937 49.6428 59.6683 49.1881C59.243 48.7188 58.8177 48.2568 58.3923 47.8021C57.967 47.3474 57.5637 46.9074 57.1823 46.4821C56.801 46.0568 56.4343 45.6608 56.0823 45.2941C56.053 45.2354 56.0017 45.1841 55.9283 45.1401C55.8697 45.0814 55.8257 45.0521 55.7963 45.0521C55.7377 45.0521 55.6937 45.1034 55.6643 45.2061C55.6497 45.3088 55.6423 45.3968 55.6423 45.4701C55.6277 46.1448 55.6277 46.9368 55.6423 47.8461C55.657 48.7554 55.6717 49.6794 55.6863 50.6181C55.7157 51.5421 55.7303 52.3854 55.7303 53.1481C55.7303 53.6174 55.877 53.9914 56.1703 54.2701C56.4637 54.5341 56.8963 54.7394 57.4683 54.8861C57.6297 54.9154 57.769 54.9668 57.8863 55.0401C58.0183 55.0988 58.0843 55.1941 58.0843 55.3261C58.0843 55.4288 58.0257 55.5094 57.9083 55.5681C57.791 55.6268 57.6663 55.6561 57.5343 55.6561C57.1383 55.6561 56.8157 55.6414 56.5663 55.6121C56.317 55.5974 56.0823 55.5901 55.8623 55.5901C55.657 55.5754 55.4003 55.5681 55.0923 55.5681C54.7697 55.5681 54.4617 55.5754 54.1683 55.5901C53.8897 55.6048 53.6477 55.6194 53.4423 55.6341C53.2517 55.6488 53.1197 55.6561 53.0463 55.6561C52.9437 55.6561 52.8263 55.6341 52.6943 55.5901C52.577 55.5314 52.5183 55.4508 52.5183 55.3481C52.5183 55.2161 52.577 55.1208 52.6943 55.0621C52.8117 55.0034 52.9437 54.9448 53.0903 54.8861C53.4423 54.7541 53.7063 54.5341 53.8823 54.2261C54.073 53.9181 54.183 53.5368 54.2123 53.0821C54.271 52.5394 54.3297 51.8208 54.3883 50.9261C54.4617 50.0314 54.5277 49.0268 54.5863 47.9121C54.645 46.7828 54.6743 45.6168 54.6743 44.4141C54.6743 43.6514 54.4763 43.1014 54.0803 42.7641C53.699 42.4268 53.2297 42.1554 52.6723 41.9501C52.555 41.9208 52.423 41.8694 52.2763 41.7961C52.1297 41.7081 52.0563 41.5981 52.0563 41.4661C52.0563 41.3341 52.115 41.2461 52.2323 41.2021C52.3497 41.1434 52.4817 41.1141 52.6283 41.1141C52.8923 41.1141 53.1857 41.1214 53.5083 41.1361C53.8457 41.1508 54.1977 41.1654 54.5643 41.1801C54.931 41.1801 55.3123 41.1874 55.7083 41.2021C56.1043 41.2168 56.5003 41.2241 56.8963 41.2241C57.0137 41.2241 57.1017 41.2461 57.1603 41.2901C57.2337 41.3341 57.2997 41.3928 57.3583 41.4661C57.681 41.8328 58.0257 42.2288 58.3923 42.6541C58.7737 43.0794 59.1697 43.5268 59.5803 43.9961C59.991 44.4508 60.409 44.9201 60.8343 45.4041C61.2597 45.8734 61.6777 46.3501 62.0883 46.8341C62.5137 47.3181 62.9243 47.7874 63.3203 48.2421C63.731 48.6968 64.127 49.1368 64.5083 49.5621C64.8897 49.9874 65.2417 50.3834 65.5643 50.7501C65.6083 50.8088 65.6597 50.8748 65.7183 50.9481C65.7917 51.0068 65.8577 51.0361 65.9163 51.0361C66.0337 51.0361 66.0923 50.9261 66.0923 50.7061C66.0923 50.2514 66.0923 49.7234 66.0923 49.1221C66.107 48.5208 66.1143 47.8828 66.1143 47.2081C66.1143 46.5334 66.107 45.8661 66.0923 45.2061C66.0923 44.5461 66.0777 43.9374 66.0483 43.3801C66.0337 42.9841 65.8797 42.6908 65.5863 42.5001C65.3077 42.2948 64.919 42.1261 64.4203 41.9941C64.259 41.9648 64.1197 41.9134 64.0023 41.8401C63.885 41.7668 63.8263 41.6641 63.8263 41.5321C63.8263 41.4294 63.885 41.3561 64.0023 41.3121C64.1197 41.2534 64.2443 41.2241 64.3763 41.2241C64.7137 41.2241 64.9997 41.2314 65.2343 41.2461C65.469 41.2461 65.6817 41.2461 65.8723 41.2461C66.063 41.2461 66.2757 41.2461 66.5103 41.2461C66.8037 41.2461 67.053 41.2461 67.2583 41.2461C67.4637 41.2314 67.6837 41.2168 67.9183 41.2021C68.1677 41.1874 68.483 41.1801 68.8643 41.1801C69.0403 41.1801 69.1723 41.2094 69.2603 41.2681C69.363 41.3268 69.4143 41.4074 69.4143 41.5101C69.4143 41.7301 69.2237 41.8768 68.8423 41.9501C68.329 42.0528 67.9623 42.1994 67.7423 42.3901C67.5223 42.5808 67.405 42.8888 67.3903 43.3141C67.3903 43.8421 67.383 44.4068 67.3683 45.0081C67.3683 45.6094 67.3537 46.2254 67.3243 46.8561C67.295 47.4868 67.2657 48.1174 67.2363 48.7481C67.2217 49.3641 67.207 49.9581 67.1923 50.5301C67.1777 51.1021 67.1703 51.6301 67.1703 52.1141C67.1703 52.4514 67.1923 52.8254 67.2363 53.2361C67.2803 53.6321 67.317 53.9988 67.3463 54.3361C67.3903 54.6588 67.4123 54.8861 67.4123 55.0181C67.4123 55.3848 67.3537 55.6414 67.2363 55.7881C67.1337 55.9348 66.987 56.0081 66.7963 56.0081ZM78.5354 55.8981C77.3914 55.8981 76.3207 55.7294 75.3234 55.3921C74.3261 55.0401 73.4461 54.5488 72.6834 53.9181C71.9207 53.2728 71.3267 52.5028 70.9014 51.6081C70.4761 50.7134 70.2634 49.7234 70.2634 48.6381C70.2634 47.6261 70.4614 46.6654 70.8574 45.7561C71.2681 44.8321 71.8621 44.0181 72.6394 43.3141C73.4167 42.5954 74.3481 42.0308 75.4334 41.6201C76.5334 41.1948 77.7727 40.9821 79.1514 40.9821C79.6207 40.9821 80.0901 41.0188 80.5594 41.0921C81.0434 41.1508 81.5054 41.2388 81.9454 41.3561C82.4001 41.4734 82.8107 41.5981 83.1774 41.7301C83.3094 41.7888 83.4194 41.8694 83.5074 41.9721C83.6101 42.0601 83.6687 42.1921 83.6834 42.3681C83.7421 42.8521 83.7861 43.3214 83.8154 43.7761C83.8447 44.2308 83.8594 44.6414 83.8594 45.0081C83.8594 45.1694 83.8007 45.2794 83.6834 45.3381C83.5661 45.3968 83.4341 45.4041 83.2874 45.3601C83.1554 45.3014 83.0601 45.1841 83.0014 45.0081C82.8987 44.6708 82.7741 44.3334 82.6274 43.9961C82.4954 43.6588 82.2901 43.3654 82.0114 43.1161C81.7181 42.8228 81.3074 42.5808 80.7794 42.3901C80.2661 42.1994 79.6427 42.1041 78.9094 42.1041C78.1614 42.1041 77.4794 42.2654 76.8634 42.5881C76.2621 42.9108 75.7414 43.3508 75.3014 43.9081C74.8761 44.4654 74.5461 45.0961 74.3114 45.8001C74.0767 46.5041 73.9594 47.2374 73.9594 48.0001C73.9594 48.9681 74.0621 49.8701 74.2674 50.7061C74.4727 51.5274 74.7881 52.2388 75.2134 52.8401C75.6387 53.4414 76.1594 53.9108 76.7754 54.2481C77.3914 54.5854 78.1174 54.7541 78.9534 54.7541C80.0387 54.7541 80.9187 54.5268 81.5934 54.0721C82.2681 53.6028 82.8327 52.8914 83.2874 51.9381C83.4047 51.6741 83.5661 51.5494 83.7714 51.5641C83.9914 51.5788 84.1014 51.7034 84.1014 51.9381C84.1014 52.1288 84.0794 52.3634 84.0354 52.6421C84.0061 52.9061 83.9547 53.1921 83.8814 53.5001C83.8081 53.8081 83.7201 54.1234 83.6174 54.4461C83.5587 54.6221 83.4781 54.7614 83.3754 54.8641C83.2874 54.9521 83.1701 55.0328 83.0234 55.1061C82.4661 55.3408 81.8061 55.5314 81.0434 55.6781C80.2807 55.8248 79.4447 55.8981 78.5354 55.8981ZM86.1471 55.7001C86.0004 55.7001 85.8831 55.6634 85.7951 55.5901C85.7217 55.5314 85.6851 55.4581 85.6851 55.3701C85.6851 55.2674 85.7291 55.1794 85.8171 55.1061C85.9051 55.0181 86.0151 54.9521 86.1471 54.9081C86.6457 54.7761 86.9977 54.6221 87.2031 54.4461C87.4231 54.2701 87.5331 53.9548 87.5331 53.5001V43.4241C87.5331 43.1014 87.4964 42.8521 87.4231 42.6761C87.3497 42.5001 87.2104 42.3608 87.0051 42.2581C86.7997 42.1554 86.4991 42.0601 86.1031 41.9721C85.7951 41.8988 85.6411 41.7448 85.6411 41.5101C85.6411 41.4074 85.6851 41.3268 85.7731 41.2681C85.8611 41.2094 85.9637 41.1801 86.0811 41.1801C86.4184 41.1801 86.7704 41.1874 87.1371 41.2021C87.5184 41.2168 87.8851 41.2388 88.2371 41.2681C88.6037 41.2828 88.9337 41.2901 89.2271 41.2901C89.5351 41.2901 89.8797 41.2828 90.2611 41.2681C90.6424 41.2534 91.0311 41.2388 91.4271 41.2241C91.8377 41.2094 92.2044 41.2021 92.5271 41.2021C92.6591 41.2021 92.7544 41.2314 92.8131 41.2901C92.8864 41.3341 92.9231 41.4074 92.9231 41.5101C92.9231 41.6568 92.8791 41.7594 92.7911 41.8181C92.7177 41.8768 92.6077 41.9281 92.4611 41.9721C91.8597 42.1334 91.4491 42.3094 91.2291 42.5001C91.0237 42.6761 90.9211 42.9841 90.9211 43.4241V53.3241C90.9211 53.7348 91.0091 54.0281 91.1851 54.2041C91.3757 54.3801 91.6837 54.4681 92.1091 54.4681H94.3531C94.6757 54.4681 94.9617 54.4168 95.2111 54.3141C95.4751 54.1968 95.7097 54.0501 95.9151 53.8741C96.1644 53.6394 96.3844 53.3754 96.5751 53.0821C96.7657 52.7741 96.9344 52.4588 97.0811 52.1361C97.2277 51.8428 97.3377 51.6521 97.4111 51.5641C97.4991 51.4761 97.5871 51.4321 97.6751 51.4321C97.7924 51.4321 97.8731 51.4834 97.9171 51.5861C97.9611 51.6888 97.9831 51.7841 97.9831 51.8721C97.9831 51.9014 97.9684 51.9674 97.9391 52.0701C97.9097 52.1728 97.8951 52.2534 97.8951 52.3121C97.7924 52.7374 97.6971 53.1114 97.6091 53.4341C97.5211 53.7421 97.4477 54.0428 97.3891 54.3361C97.3451 54.6148 97.3011 54.9301 97.2571 55.2821C97.2424 55.3848 97.2057 55.4801 97.1471 55.5681C97.1031 55.6561 97.0224 55.7001 96.9051 55.7001C96.5971 55.7001 96.1497 55.6928 95.5631 55.6781C94.9764 55.6634 94.3164 55.6488 93.5831 55.6341C92.8644 55.6341 92.1237 55.6268 91.3611 55.6121C90.6131 55.5974 89.9164 55.5901 89.2711 55.5901C88.9631 55.5901 88.6111 55.5974 88.2151 55.6121C87.8191 55.6268 87.4304 55.6414 87.0491 55.6561C86.6824 55.6854 86.3817 55.7001 86.1471 55.7001ZM106.32 55.8981C104.941 55.8981 103.79 55.6561 102.866 55.1721C101.942 54.6734 101.245 53.9841 100.776 53.1041C100.321 52.2241 100.094 51.1974 100.094 50.0241V43.7541C100.094 43.3434 99.9984 42.9694 99.8077 42.6321C99.617 42.2948 99.3384 42.0821 98.9717 41.9941C98.561 41.8768 98.3557 41.7154 98.3557 41.5101C98.3557 41.4074 98.407 41.3268 98.5097 41.2681C98.627 41.2094 98.7664 41.1801 98.9277 41.1801C99.397 41.1801 99.881 41.2021 100.38 41.2461C100.878 41.2754 101.348 41.2901 101.788 41.2901C102.198 41.2901 102.69 41.2754 103.262 41.2461C103.848 41.2168 104.347 41.2021 104.758 41.2021C104.934 41.2021 105.073 41.2314 105.176 41.2901C105.293 41.3341 105.352 41.4148 105.352 41.5321C105.352 41.6934 105.242 41.8108 105.022 41.8841C104.802 41.9574 104.567 42.0528 104.318 42.1701C104.098 42.2581 103.907 42.4414 103.746 42.7201C103.584 42.9841 103.504 43.3654 103.504 43.8641V49.6281C103.504 50.6254 103.665 51.4468 103.988 52.0921C104.31 52.7374 104.736 53.2141 105.264 53.5221C105.806 53.8301 106.408 53.9841 107.068 53.9841C108.402 53.9841 109.392 53.5881 110.038 52.7961C110.698 52.0041 111.028 50.7941 111.028 49.1661C111.028 48.7848 111.028 48.3594 111.028 47.8901C111.042 47.4061 111.05 46.9148 111.05 46.4161C111.05 45.9028 111.042 45.4188 111.028 44.9641C111.013 44.3041 110.962 43.7908 110.874 43.4241C110.8 43.0574 110.683 42.7714 110.522 42.5661C110.36 42.3608 110.14 42.1921 109.862 42.0601C109.7 41.9721 109.51 41.8988 109.29 41.8401C109.084 41.7668 108.982 41.6641 108.982 41.5321C108.982 41.4148 109.04 41.3341 109.158 41.2901C109.275 41.2461 109.436 41.2241 109.642 41.2241C110.17 41.2241 110.566 41.2314 110.83 41.2461C111.108 41.2608 111.416 41.2681 111.754 41.2681C112.032 41.2681 112.26 41.2608 112.436 41.2461C112.626 41.2314 112.817 41.2168 113.008 41.2021C113.213 41.1874 113.455 41.1801 113.734 41.1801C113.91 41.1801 114.049 41.2021 114.152 41.2461C114.254 41.2901 114.306 41.3781 114.306 41.5101C114.306 41.7008 114.108 41.8548 113.712 41.9721C113.228 42.1041 112.883 42.3314 112.678 42.6541C112.487 42.9621 112.377 43.3801 112.348 43.9081C112.304 45.0228 112.274 46.0494 112.26 46.9881C112.245 47.9121 112.238 48.8581 112.238 49.8261C112.223 51.0141 111.952 52.0701 111.424 52.9941C110.91 53.9034 110.206 54.6148 109.312 55.1281C108.417 55.6414 107.42 55.8981 106.32 55.8981ZM122.91 55.7441C122.412 55.7441 121.862 55.7294 121.26 55.7001C120.674 55.6708 120.124 55.6414 119.61 55.6121C119.097 55.5974 118.708 55.5901 118.444 55.5901C118.151 55.5901 117.828 55.5901 117.476 55.5901C117.124 55.6048 116.758 55.6194 116.376 55.6341C116.01 55.6488 115.658 55.6561 115.32 55.6561C115.218 55.6561 115.122 55.6341 115.034 55.5901C114.946 55.5314 114.902 55.4508 114.902 55.3481C114.902 55.2161 114.939 55.1134 115.012 55.0401C115.1 54.9668 115.218 54.9154 115.364 54.8861C115.922 54.7688 116.303 54.6221 116.508 54.4461C116.714 54.2554 116.816 53.9254 116.816 53.4561V43.4681C116.816 42.9988 116.721 42.6688 116.53 42.4781C116.34 42.2728 115.951 42.1041 115.364 41.9721C115.218 41.9428 115.1 41.8914 115.012 41.8181C114.939 41.7448 114.902 41.6421 114.902 41.5101C114.902 41.4074 114.946 41.3268 115.034 41.2681C115.122 41.2094 115.218 41.1801 115.32 41.1801C115.658 41.1801 116.01 41.1874 116.376 41.2021C116.758 41.2168 117.124 41.2388 117.476 41.2681C117.843 41.2828 118.173 41.2901 118.466 41.2901C118.701 41.2901 119.009 41.2828 119.39 41.2681C119.772 41.2388 120.182 41.2168 120.622 41.2021C121.077 41.1728 121.51 41.1508 121.92 41.1361C122.346 41.1068 122.69 41.0921 122.954 41.0921C124.069 41.0921 125.096 41.2681 126.034 41.6201C126.988 41.9574 127.816 42.4488 128.52 43.0941C129.239 43.7248 129.796 44.4728 130.192 45.3381C130.588 46.2034 130.786 47.1568 130.786 48.1981C130.786 49.1808 130.61 50.1268 130.258 51.0361C129.906 51.9308 129.393 52.7374 128.718 53.4561C128.044 54.1601 127.222 54.7174 126.254 55.1281C125.286 55.5388 124.172 55.7441 122.91 55.7441ZM122.58 54.6221C123.578 54.6221 124.414 54.3801 125.088 53.8961C125.763 53.3974 126.262 52.7154 126.584 51.8501C126.922 50.9701 127.09 49.9508 127.09 48.7921C127.09 47.8094 126.98 46.9221 126.76 46.1301C126.555 45.3234 126.247 44.6341 125.836 44.0621C125.44 43.4901 124.942 43.0501 124.34 42.7421C123.754 42.4194 123.086 42.2581 122.338 42.2581C121.869 42.2581 121.473 42.2728 121.15 42.3021C120.842 42.3314 120.608 42.4048 120.446 42.5221C120.285 42.6394 120.204 42.8301 120.204 43.0941V52.6861C120.204 53.1701 120.292 53.5514 120.468 53.8301C120.659 54.1088 120.93 54.3141 121.282 54.4461C121.649 54.5634 122.082 54.6221 122.58 54.6221ZM132.142 55.6561C132.025 55.6561 131.922 55.6341 131.834 55.5901C131.746 55.5314 131.702 55.4508 131.702 55.3481C131.702 55.1134 131.856 54.9594 132.164 54.8861C132.721 54.7688 133.11 54.6221 133.33 54.4461C133.55 54.2554 133.66 53.9254 133.66 53.4561V43.4681C133.66 42.9988 133.565 42.6688 133.374 42.4781C133.183 42.2728 132.795 42.1041 132.208 41.9721C131.9 41.8988 131.746 41.7448 131.746 41.5101C131.746 41.4074 131.79 41.3268 131.878 41.2681C131.966 41.2094 132.069 41.1801 132.186 41.1801C132.523 41.1801 132.875 41.1874 133.242 41.2021C133.623 41.2168 133.99 41.2388 134.342 41.2681C134.709 41.2828 135.046 41.2901 135.354 41.2901C135.647 41.2901 135.977 41.2828 136.344 41.2681C136.725 41.2534 137.107 41.2388 137.488 41.2241C137.884 41.2094 138.243 41.2021 138.566 41.2021C138.698 41.2021 138.801 41.2314 138.874 41.2901C138.947 41.3341 138.984 41.4074 138.984 41.5101C138.984 41.6568 138.94 41.7594 138.852 41.8181C138.779 41.8768 138.661 41.9281 138.5 41.9721C137.913 42.1334 137.525 42.3168 137.334 42.5221C137.143 42.7128 137.048 43.0354 137.048 43.4901V53.4341C137.048 53.8594 137.151 54.1748 137.356 54.3801C137.576 54.5708 137.972 54.7394 138.544 54.8861C138.691 54.9301 138.801 54.9814 138.874 55.0401C138.962 55.0988 139.006 55.1941 139.006 55.3261C139.006 55.4288 138.969 55.5094 138.896 55.5681C138.837 55.6268 138.742 55.6561 138.61 55.6561C138.287 55.6561 137.928 55.6414 137.532 55.6121C137.136 55.5974 136.747 55.5828 136.366 55.5681C135.985 55.5534 135.647 55.5461 135.354 55.5461C135.046 55.5461 134.709 55.5534 134.342 55.5681C133.975 55.5828 133.601 55.5974 133.22 55.6121C132.839 55.6414 132.479 55.6561 132.142 55.6561ZM154.324 56.0081C154.133 56.0081 153.825 55.8908 153.4 55.6561C152.974 55.4361 152.534 55.0401 152.08 54.4681C151.728 54.1014 151.361 53.7054 150.98 53.2801C150.598 52.8548 150.195 52.4148 149.77 51.9601C149.344 51.5054 148.912 51.0434 148.472 50.5741C148.046 50.1048 147.621 49.6428 147.196 49.1881C146.77 48.7188 146.345 48.2568 145.92 47.8021C145.494 47.3474 145.091 46.9074 144.71 46.4821C144.328 46.0568 143.962 45.6608 143.61 45.2941C143.58 45.2354 143.529 45.1841 143.456 45.1401C143.397 45.0814 143.353 45.0521 143.324 45.0521C143.265 45.0521 143.221 45.1034 143.192 45.2061C143.177 45.3088 143.17 45.3968 143.17 45.4701C143.155 46.1448 143.155 46.9368 143.17 47.8461C143.184 48.7554 143.199 49.6794 143.214 50.6181C143.243 51.5421 143.258 52.3854 143.258 53.1481C143.258 53.6174 143.404 53.9914 143.698 54.2701C143.991 54.5341 144.424 54.7394 144.996 54.8861C145.157 54.9154 145.296 54.9668 145.414 55.0401C145.546 55.0988 145.612 55.1941 145.612 55.3261C145.612 55.4288 145.553 55.5094 145.436 55.5681C145.318 55.6268 145.194 55.6561 145.062 55.6561C144.666 55.6561 144.343 55.6414 144.094 55.6121C143.844 55.5974 143.61 55.5901 143.39 55.5901C143.184 55.5754 142.928 55.5681 142.62 55.5681C142.297 55.5681 141.989 55.5754 141.696 55.5901C141.417 55.6048 141.175 55.6194 140.97 55.6341C140.779 55.6488 140.647 55.6561 140.574 55.6561C140.471 55.6561 140.354 55.6341 140.222 55.5901C140.104 55.5314 140.046 55.4508 140.046 55.3481C140.046 55.2161 140.104 55.1208 140.222 55.0621C140.339 55.0034 140.471 54.9448 140.618 54.8861C140.97 54.7541 141.234 54.5341 141.41 54.2261C141.6 53.9181 141.71 53.5368 141.74 53.0821C141.798 52.5394 141.857 51.8208 141.916 50.9261C141.989 50.0314 142.055 49.0268 142.114 47.9121C142.172 46.7828 142.202 45.6168 142.202 44.4141C142.202 43.6514 142.004 43.1014 141.608 42.7641C141.226 42.4268 140.757 42.1554 140.2 41.9501C140.082 41.9208 139.95 41.8694 139.804 41.7961C139.657 41.7081 139.584 41.5981 139.584 41.4661C139.584 41.3341 139.642 41.2461 139.76 41.2021C139.877 41.1434 140.009 41.1141 140.156 41.1141C140.42 41.1141 140.713 41.1214 141.036 41.1361C141.373 41.1508 141.725 41.1654 142.092 41.1801C142.458 41.1801 142.84 41.1874 143.236 41.2021C143.632 41.2168 144.028 41.2241 144.424 41.2241C144.541 41.2241 144.629 41.2461 144.688 41.2901C144.761 41.3341 144.827 41.3928 144.886 41.4661C145.208 41.8328 145.553 42.2288 145.92 42.6541C146.301 43.0794 146.697 43.5268 147.108 43.9961C147.518 44.4508 147.936 44.9201 148.362 45.4041C148.787 45.8734 149.205 46.3501 149.616 46.8341C150.041 47.3181 150.452 47.7874 150.848 48.2421C151.258 48.6968 151.654 49.1368 152.036 49.5621C152.417 49.9874 152.769 50.3834 153.092 50.7501C153.136 50.8088 153.187 50.8748 153.246 50.9481C153.319 51.0068 153.385 51.0361 153.444 51.0361C153.561 51.0361 153.62 50.9261 153.62 50.7061C153.62 50.2514 153.62 49.7234 153.62 49.1221C153.634 48.5208 153.642 47.8828 153.642 47.2081C153.642 46.5334 153.634 45.8661 153.62 45.2061C153.62 44.5461 153.605 43.9374 153.576 43.3801C153.561 42.9841 153.407 42.6908 153.114 42.5001C152.835 42.2948 152.446 42.1261 151.948 41.9941C151.786 41.9648 151.647 41.9134 151.53 41.8401C151.412 41.7668 151.354 41.6641 151.354 41.5321C151.354 41.4294 151.412 41.3561 151.53 41.3121C151.647 41.2534 151.772 41.2241 151.904 41.2241C152.241 41.2241 152.527 41.2314 152.762 41.2461C152.996 41.2461 153.209 41.2461 153.4 41.2461C153.59 41.2461 153.803 41.2461 154.038 41.2461C154.331 41.2461 154.58 41.2461 154.786 41.2461C154.991 41.2314 155.211 41.2168 155.446 41.2021C155.695 41.1874 156.01 41.1801 156.392 41.1801C156.568 41.1801 156.7 41.2094 156.788 41.2681C156.89 41.3268 156.942 41.4074 156.942 41.5101C156.942 41.7301 156.751 41.8768 156.37 41.9501C155.856 42.0528 155.49 42.1994 155.27 42.3901C155.05 42.5808 154.932 42.8888 154.918 43.3141C154.918 43.8421 154.91 44.4068 154.896 45.0081C154.896 45.6094 154.881 46.2254 154.852 46.8561C154.822 47.4868 154.793 48.1174 154.764 48.7481C154.749 49.3641 154.734 49.9581 154.72 50.5301C154.705 51.1021 154.698 51.6301 154.698 52.1141C154.698 52.4514 154.72 52.8254 154.764 53.2361C154.808 53.6321 154.844 53.9988 154.874 54.3361C154.918 54.6588 154.94 54.8861 154.94 55.0181C154.94 55.3848 154.881 55.6414 154.764 55.7881C154.661 55.9348 154.514 56.0081 154.324 56.0081ZM165.491 55.8981C164.435 55.8981 163.437 55.7294 162.499 55.3921C161.575 55.0401 160.753 54.5414 160.035 53.8961C159.331 53.2508 158.781 52.4881 158.385 51.6081C157.989 50.7281 157.791 49.7528 157.791 48.6821C157.791 47.6701 157.981 46.7021 158.363 45.7781C158.759 44.8541 159.316 44.0328 160.035 43.3141C160.768 42.5954 161.648 42.0308 162.675 41.6201C163.701 41.1948 164.838 40.9821 166.085 40.9821C166.393 40.9821 166.745 41.0041 167.141 41.0481C167.551 41.0921 167.969 41.1508 168.395 41.2241C168.82 41.2974 169.216 41.3854 169.583 41.4881C169.964 41.5761 170.272 41.6714 170.507 41.7741C170.639 41.8181 170.741 41.8841 170.815 41.9721C170.888 42.0454 170.932 42.1554 170.947 42.3021C171.02 42.8154 171.079 43.2994 171.123 43.7541C171.181 44.2088 171.211 44.5901 171.211 44.8981C171.211 45.0448 171.174 45.1548 171.101 45.2281C171.042 45.3014 170.954 45.3381 170.837 45.3381C170.661 45.3381 170.529 45.2941 170.441 45.2061C170.367 45.1181 170.301 45.0081 170.243 44.8761C170.111 44.5974 169.957 44.3114 169.781 44.0181C169.619 43.7101 169.421 43.4314 169.187 43.1821C169.011 43.0061 168.798 42.8374 168.549 42.6761C168.314 42.5148 168.021 42.3828 167.669 42.2801C167.317 42.1774 166.891 42.1261 166.393 42.1261C165.601 42.1261 164.897 42.2874 164.281 42.6101C163.665 42.9328 163.144 43.3801 162.719 43.9521C162.308 44.5094 161.993 45.1474 161.773 45.8661C161.567 46.5701 161.465 47.3181 161.465 48.1101C161.465 49.0928 161.56 49.9948 161.751 50.8161C161.941 51.6228 162.22 52.3194 162.587 52.9061C162.953 53.4928 163.408 53.9474 163.951 54.2701C164.493 54.5781 165.124 54.7321 165.843 54.7321C166.224 54.7321 166.532 54.6661 166.767 54.5341C167.016 54.4021 167.214 54.2848 167.361 54.1821C167.507 54.0648 167.625 53.8814 167.713 53.6321C167.815 53.3681 167.867 53.0748 167.867 52.7521C167.881 52.6201 167.889 52.4368 167.889 52.2021C167.889 51.9674 167.889 51.7328 167.889 51.4981C167.903 51.2634 167.911 51.0801 167.911 50.9481C167.911 50.7868 167.874 50.6401 167.801 50.5081C167.742 50.3614 167.617 50.2514 167.427 50.1781C167.295 50.0901 167.141 50.0168 166.965 49.9581C166.803 49.8994 166.635 49.8554 166.459 49.8261C166.297 49.7821 166.151 49.7454 166.019 49.7161C165.901 49.7014 165.784 49.6501 165.667 49.5621C165.549 49.4741 165.491 49.3641 165.491 49.2321C165.491 49.1294 165.542 49.0488 165.645 48.9901C165.747 48.9314 165.85 48.9021 165.953 48.9021C166.29 48.9021 166.657 48.9094 167.053 48.9241C167.463 48.9388 167.867 48.9608 168.263 48.9901C168.659 49.0048 169.011 49.0121 169.319 49.0121C169.744 49.0121 170.191 48.9974 170.661 48.9681C171.145 48.9388 171.607 48.9241 172.047 48.9241C172.149 48.9241 172.237 48.9534 172.311 49.0121C172.384 49.0561 172.421 49.1368 172.421 49.2541C172.421 49.4008 172.377 49.5108 172.289 49.5841C172.215 49.6428 172.113 49.6868 171.981 49.7161C171.57 49.8188 171.291 49.9508 171.145 50.1121C170.998 50.2734 170.895 50.5008 170.837 50.7941C170.778 51.1168 170.734 51.4028 170.705 51.6521C170.69 51.8868 170.683 52.1508 170.683 52.4441V53.1481C170.683 53.2214 170.712 53.2948 170.771 53.3681C170.829 53.4414 170.895 53.5148 170.969 53.5881C171.027 53.6614 171.079 53.7348 171.123 53.8081C171.167 53.8814 171.189 53.9621 171.189 54.0501C171.189 54.1381 171.159 54.2334 171.101 54.3361C171.042 54.4241 170.932 54.4828 170.771 54.5121C170.653 54.5268 170.448 54.6074 170.155 54.7541C169.861 54.8861 169.495 55.0474 169.055 55.2381C168.615 55.4141 168.094 55.5681 167.493 55.7001C166.891 55.8321 166.224 55.8981 165.491 55.8981ZM78.6592 85.0521C77.9112 85.0521 77.2805 84.9568 76.7672 84.7661C76.2538 84.5901 75.8138 84.3554 75.4472 84.0621C75.0952 83.7541 74.7798 83.4094 74.5012 83.0281C74.1785 82.6028 73.8632 82.1774 73.5552 81.7521C73.2618 81.3268 72.9685 80.8648 72.6752 80.3661C72.3818 79.8674 72.0738 79.2954 71.7512 78.6501C71.6045 78.3274 71.4065 78.1001 71.1572 77.9681C71.0252 77.8801 70.8932 77.8214 70.7612 77.7921C70.6292 77.7628 70.5118 77.7481 70.4092 77.7481C70.3358 77.7481 70.2772 77.7921 70.2332 77.8801C70.1892 77.9534 70.1672 78.0561 70.1672 78.1881V82.3901C70.1672 82.8448 70.2918 83.1748 70.5412 83.3801C70.7905 83.5854 71.2232 83.7541 71.8392 83.8861C72.0005 83.9154 72.1178 83.9668 72.1912 84.0401C72.2792 84.0988 72.3232 84.1941 72.3232 84.3261C72.3232 84.4288 72.2865 84.5094 72.2132 84.5681C72.1398 84.6268 72.0372 84.6561 71.9052 84.6561C71.5825 84.6561 71.2085 84.6414 70.7832 84.6121C70.3725 84.5974 69.9618 84.5828 69.5512 84.5681C69.1405 84.5534 68.7885 84.5461 68.4952 84.5461C68.1872 84.5461 67.8498 84.5534 67.4832 84.5681C67.1165 84.5828 66.7352 84.5974 66.3392 84.6121C65.9578 84.6414 65.6058 84.6561 65.2832 84.6561C65.1658 84.6561 65.0632 84.6341 64.9752 84.5901C64.8872 84.5314 64.8432 84.4508 64.8432 84.3481C64.8432 84.1134 64.9972 83.9594 65.3052 83.8861C65.8625 83.7688 66.2438 83.6221 66.4492 83.4461C66.6692 83.2554 66.7792 82.9181 66.7792 82.4341V72.5561C66.7792 72.2041 66.7425 71.9254 66.6692 71.7201C66.6105 71.5148 66.4858 71.3608 66.2952 71.2581C66.1045 71.1408 65.8258 71.0454 65.4592 70.9721C65.2685 70.9281 65.1365 70.8694 65.0632 70.7961C64.9898 70.7081 64.9532 70.6128 64.9532 70.5101C64.9532 70.4221 64.9972 70.3488 65.0852 70.2901C65.1732 70.2168 65.2905 70.1801 65.4372 70.1801C65.9065 70.1801 66.2878 70.1948 66.5812 70.2241C66.8892 70.2534 67.1752 70.2828 67.4392 70.3121C67.7178 70.3268 68.0405 70.3341 68.4072 70.3341C68.7445 70.3341 69.0378 70.3194 69.2872 70.2901C69.5512 70.2461 69.8445 70.2094 70.1672 70.1801C70.5045 70.1508 70.9298 70.1361 71.4432 70.1361C73.1592 70.1361 74.4792 70.4294 75.4032 71.0161C76.3272 71.6028 76.7892 72.4901 76.7892 73.6781C76.7892 74.3381 76.6425 74.8954 76.3492 75.3501C76.0705 75.7901 75.7112 76.1568 75.2712 76.4501C74.8458 76.7288 74.4132 76.9414 73.9732 77.0881C73.9145 77.1028 73.8852 77.1394 73.8852 77.1981C73.8998 77.2421 73.9218 77.2934 73.9512 77.3521C74.3912 77.9974 74.8165 78.6281 75.2272 79.2441C75.6525 79.8454 76.0852 80.4101 76.5252 80.9381C76.9652 81.4514 77.4198 81.9281 77.8892 82.3681C78.3878 82.8374 78.8938 83.1161 79.4072 83.2041C79.9352 83.2774 80.4558 83.3141 80.9692 83.3141C81.1892 83.3141 81.2992 83.4461 81.2992 83.7101C81.2992 84.0328 81.1818 84.2968 80.9472 84.5021C80.7272 84.6928 80.4192 84.8321 80.0232 84.9201C79.6272 85.0081 79.1725 85.0521 78.6592 85.0521ZM71.0032 77.0441C71.5605 77.0441 72.0225 76.9194 72.3892 76.6701C72.7558 76.4208 73.0345 76.0834 73.2252 75.6581C73.4158 75.2181 73.5112 74.7194 73.5112 74.1621C73.5112 73.4874 73.4232 72.9228 73.2472 72.4681C73.0712 72.0134 72.8072 71.6761 72.4552 71.4561C72.1032 71.2214 71.6485 71.1041 71.0912 71.1041C70.7685 71.1041 70.5338 71.2361 70.3872 71.5001C70.2552 71.7494 70.1892 72.2921 70.1892 73.1281C70.1745 73.4654 70.1672 73.8908 70.1672 74.4041C70.1672 74.9174 70.1672 75.5261 70.1672 76.2301C70.1672 76.5234 70.2405 76.7361 70.3872 76.8681C70.5485 76.9854 70.7538 77.0441 71.0032 77.0441ZM81.976 84.6561C81.8587 84.6561 81.756 84.6341 81.668 84.5901C81.58 84.5314 81.536 84.4508 81.536 84.3481C81.536 84.1134 81.69 83.9594 81.998 83.8861C82.5553 83.7688 82.944 83.6221 83.164 83.4461C83.384 83.2554 83.494 82.9254 83.494 82.4561V72.4681C83.494 71.9988 83.3987 71.6688 83.208 71.4781C83.0173 71.2728 82.6287 71.1041 82.042 70.9721C81.734 70.8988 81.58 70.7448 81.58 70.5101C81.58 70.4074 81.624 70.3268 81.712 70.2681C81.8 70.2094 81.9027 70.1801 82.02 70.1801C82.3573 70.1801 82.7093 70.1874 83.076 70.2021C83.4573 70.2168 83.824 70.2388 84.176 70.2681C84.5427 70.2828 84.88 70.2901 85.188 70.2901C85.4813 70.2901 85.8113 70.2828 86.178 70.2681C86.5593 70.2534 86.9407 70.2388 87.322 70.2241C87.718 70.2094 88.0773 70.2021 88.4 70.2021C88.532 70.2021 88.6347 70.2314 88.708 70.2901C88.7813 70.3341 88.818 70.4074 88.818 70.5101C88.818 70.6568 88.774 70.7594 88.686 70.8181C88.6127 70.8768 88.4953 70.9281 88.334 70.9721C87.7473 71.1334 87.3587 71.3168 87.168 71.5221C86.9773 71.7128 86.882 72.0354 86.882 72.4901V82.4341C86.882 82.8594 86.9847 83.1748 87.19 83.3801C87.41 83.5708 87.806 83.7394 88.378 83.8861C88.5247 83.9301 88.6347 83.9814 88.708 84.0401C88.796 84.0988 88.84 84.1941 88.84 84.3261C88.84 84.4288 88.8033 84.5094 88.73 84.5681C88.6713 84.6268 88.576 84.6561 88.444 84.6561C88.1213 84.6561 87.762 84.6414 87.366 84.6121C86.97 84.5974 86.5813 84.5828 86.2 84.5681C85.8187 84.5534 85.4813 84.5461 85.188 84.5461C84.88 84.5461 84.5427 84.5534 84.176 84.5681C83.8093 84.5828 83.4353 84.5974 83.054 84.6121C82.6727 84.6414 82.3133 84.6561 81.976 84.6561ZM93.7297 84.6561C93.627 84.6561 93.517 84.6341 93.3997 84.5901C93.2823 84.5314 93.2237 84.4508 93.2237 84.3481C93.2237 84.2161 93.275 84.1134 93.3777 84.0401C93.4803 83.9668 93.605 83.9154 93.7517 83.8861C94.309 83.7688 94.7123 83.6148 94.9617 83.4241C95.2257 83.2334 95.3577 82.9034 95.3577 82.4341V73.3481C95.3577 72.7761 95.343 72.3581 95.3137 72.0941C95.2843 71.8154 95.2403 71.6321 95.1817 71.5441C95.1377 71.4414 95.079 71.3754 95.0057 71.3461C94.8737 71.2728 94.6977 71.2361 94.4777 71.2361C94.2723 71.2214 94.1037 71.2141 93.9717 71.2141H93.4877C93.0183 71.2141 92.571 71.3314 92.1457 71.5661C91.735 71.7861 91.405 72.0648 91.1557 72.4021C91.0823 72.5048 90.9723 72.6514 90.8257 72.8421C90.6937 73.0181 90.547 73.1794 90.3857 73.3261C90.239 73.4581 90.0923 73.5241 89.9457 73.5241C89.8283 73.5241 89.7477 73.4874 89.7037 73.4141C89.6597 73.3261 89.6377 73.2308 89.6377 73.1281C89.6377 72.9521 89.6817 72.7688 89.7697 72.5781C90.0483 72.0208 90.2537 71.5441 90.3857 71.1481C90.5177 70.7521 90.6057 70.2974 90.6497 69.7841C90.679 69.5641 90.745 69.4174 90.8477 69.3441C90.9503 69.2561 91.0677 69.2121 91.1997 69.2121C91.3023 69.2121 91.4123 69.3074 91.5297 69.4981C91.647 69.6888 91.7717 69.8428 91.9037 69.9601C92.0503 70.0774 92.2923 70.1654 92.6297 70.2241C92.9817 70.2828 93.2677 70.3121 93.4877 70.3121H101.76C102.126 70.3121 102.434 70.2754 102.684 70.2021C102.948 70.1288 103.146 70.0554 103.278 69.9821C103.512 69.8501 103.696 69.7034 103.828 69.5421C103.974 69.3808 104.143 69.3001 104.334 69.3001C104.422 69.3001 104.48 69.3368 104.51 69.4101C104.554 69.4688 104.576 69.5568 104.576 69.6741C104.576 69.7328 104.568 69.8061 104.554 69.8941C104.554 69.9821 104.546 70.0628 104.532 70.1361C104.458 70.4148 104.385 70.6861 104.312 70.9501C104.238 71.1994 104.18 71.4414 104.136 71.6761C104.092 71.9108 104.07 72.1528 104.07 72.4021V72.8421C104.07 73.0768 104.04 73.2674 103.982 73.4141C103.938 73.5608 103.842 73.6341 103.696 73.6341C103.564 73.6341 103.454 73.5681 103.366 73.4361C103.278 73.2894 103.182 73.0621 103.08 72.7541C102.918 72.2261 102.676 71.8374 102.354 71.5881C102.046 71.3388 101.569 71.2141 100.924 71.2141H99.7797C99.5303 71.2141 99.325 71.2728 99.1637 71.3901C99.017 71.4928 98.907 71.7128 98.8337 72.0501C98.7603 72.3728 98.7237 72.8714 98.7237 73.5461V82.4121C98.7237 82.8521 98.841 83.1748 99.0757 83.3801C99.325 83.5708 99.7357 83.7394 100.308 83.8861C100.454 83.9301 100.579 83.9814 100.682 84.0401C100.784 84.0988 100.836 84.1941 100.836 84.3261C100.836 84.4288 100.792 84.5094 100.704 84.5681C100.616 84.6268 100.506 84.6561 100.374 84.6561C100.051 84.6561 99.6843 84.6414 99.2737 84.6121C98.8777 84.5974 98.4743 84.5828 98.0637 84.5681C97.6677 84.5534 97.323 84.5461 97.0297 84.5461C96.7217 84.5461 96.3697 84.5534 95.9737 84.5681C95.5923 84.5828 95.2037 84.5974 94.8077 84.6121C94.4263 84.6414 94.067 84.6561 93.7297 84.6561ZM105.397 84.7001C105.25 84.7001 105.133 84.6634 105.045 84.5901C104.971 84.5314 104.935 84.4581 104.935 84.3701C104.935 84.1501 105.096 83.9961 105.419 83.9081C105.917 83.7761 106.269 83.6221 106.475 83.4461C106.695 83.2701 106.805 82.9474 106.805 82.4781V72.4681C106.805 71.9988 106.709 71.6614 106.519 71.4561C106.328 71.2508 105.969 71.0894 105.441 70.9721C105.25 70.9281 105.118 70.8694 105.045 70.7961C104.971 70.7081 104.935 70.6128 104.935 70.5101C104.935 70.4221 104.979 70.3488 105.067 70.2901C105.155 70.2168 105.272 70.1801 105.419 70.1801C105.785 70.1801 106.159 70.1874 106.541 70.2021C106.922 70.2168 107.296 70.2388 107.663 70.2681C108.029 70.2828 108.381 70.2901 108.719 70.2901C109.481 70.2901 110.295 70.2828 111.161 70.2681C112.026 70.2534 112.796 70.2388 113.471 70.2241C113.94 70.2241 114.329 70.2021 114.637 70.1581C114.945 70.0994 115.128 70.0701 115.187 70.0701C115.289 70.0701 115.399 70.1068 115.517 70.1801C115.649 70.2388 115.722 70.3414 115.737 70.4881C115.795 71.0161 115.869 71.5294 115.957 72.0281C116.045 72.5268 116.089 72.9668 116.089 73.3481C116.089 73.4801 116.059 73.5828 116.001 73.6561C115.942 73.7294 115.876 73.7661 115.803 73.7661C115.729 73.7661 115.649 73.7368 115.561 73.6781C115.487 73.6194 115.429 73.5314 115.385 73.4141C115.238 73.0474 115.106 72.7321 114.989 72.4681C114.871 72.2041 114.739 71.9914 114.593 71.8301C114.417 71.6688 114.204 71.5148 113.955 71.3681C113.705 71.2214 113.39 71.1481 113.009 71.1481H111.359C111.036 71.1481 110.757 71.2361 110.523 71.4121C110.288 71.5734 110.171 71.8081 110.171 72.1161V76.2741C110.171 76.4501 110.222 76.5821 110.325 76.6701C110.427 76.7581 110.559 76.8021 110.721 76.8021H112.657C113.038 76.8021 113.309 76.6774 113.471 76.4281C113.647 76.1641 113.801 75.8488 113.933 75.4821C114.035 75.2034 114.182 75.0641 114.373 75.0641C114.446 75.0641 114.512 75.1081 114.571 75.1961C114.629 75.2694 114.651 75.3868 114.637 75.5481C114.622 75.7241 114.607 75.9148 114.593 76.1201C114.578 76.3254 114.563 76.5308 114.549 76.7361C114.549 76.9414 114.549 77.1394 114.549 77.3301C114.549 77.5061 114.549 77.6968 114.549 77.9021C114.563 78.1074 114.571 78.3128 114.571 78.5181C114.585 78.7234 114.6 78.9214 114.615 79.1121C114.644 79.3174 114.637 79.4714 114.593 79.5741C114.549 79.6621 114.483 79.7061 114.395 79.7061C114.16 79.7061 113.991 79.5154 113.889 79.1341C113.757 78.6941 113.61 78.3568 113.449 78.1221C113.287 77.8874 113.06 77.7701 112.767 77.7701H110.721C110.545 77.7701 110.405 77.8141 110.303 77.9021C110.215 77.9754 110.171 78.1001 110.171 78.2761V82.4561C110.171 82.8961 110.266 83.2041 110.457 83.3801C110.647 83.5561 110.941 83.6441 111.337 83.6441H113.229C113.551 83.6441 113.859 83.6074 114.153 83.5341C114.446 83.4608 114.695 83.3361 114.901 83.1601C115.15 82.9548 115.377 82.6981 115.583 82.3901C115.788 82.0821 115.979 81.7521 116.155 81.4001C116.213 81.2974 116.272 81.2314 116.331 81.2021C116.404 81.1581 116.485 81.1361 116.573 81.1361C116.646 81.1361 116.697 81.1801 116.727 81.2681C116.771 81.3561 116.793 81.4514 116.793 81.5541C116.793 81.8034 116.756 82.0821 116.683 82.3901C116.609 82.6981 116.514 83.0281 116.397 83.3801C116.294 83.7174 116.191 84.0548 116.089 84.3921C116.059 84.4948 115.993 84.5681 115.891 84.6121C115.803 84.6561 115.707 84.6781 115.605 84.6781C115.414 84.6781 115.055 84.6708 114.527 84.6561C114.013 84.6561 113.405 84.6488 112.701 84.6341C111.997 84.6194 111.271 84.6048 110.523 84.5901C109.775 84.5901 109.078 84.5901 108.433 84.5901C108.139 84.5901 107.817 84.5974 107.465 84.6121C107.113 84.6268 106.753 84.6414 106.387 84.6561C106.035 84.6854 105.705 84.7001 105.397 84.7001ZM121.967 84.8981C121.336 84.8981 120.728 84.8248 120.141 84.6781C119.554 84.5314 119.004 84.2968 118.491 83.9741C118.403 83.9008 118.315 83.8201 118.227 83.7321C118.139 83.6441 118.073 83.5488 118.029 83.4461C117.882 83.0501 117.78 82.5661 117.721 81.9941C117.677 81.4221 117.662 80.8428 117.677 80.2561C117.677 80.1534 117.721 80.0801 117.809 80.0361C117.897 79.9921 118 79.9701 118.117 79.9701C118.264 79.9701 118.359 79.9921 118.403 80.0361C118.462 80.0654 118.52 80.1314 118.579 80.2341C118.902 81.3341 119.378 82.2214 120.009 82.8961C120.654 83.5708 121.402 83.9081 122.253 83.9081C122.722 83.9081 123.104 83.8054 123.397 83.6001C123.705 83.3801 123.94 83.1088 124.101 82.7861C124.262 82.4488 124.343 82.1114 124.343 81.7741C124.343 81.3048 124.248 80.9088 124.057 80.5861C123.881 80.2634 123.61 79.9701 123.243 79.7061C122.876 79.4421 122.407 79.1561 121.835 78.8481C121.219 78.4961 120.625 78.1294 120.053 77.7481C119.481 77.3521 119.012 76.8754 118.645 76.3181C118.278 75.7608 118.095 75.0641 118.095 74.2281C118.095 73.3628 118.315 72.6148 118.755 71.9841C119.21 71.3534 119.826 70.8621 120.603 70.5101C121.38 70.1581 122.253 69.9821 123.221 69.9821C123.778 69.9821 124.306 70.0408 124.805 70.1581C125.318 70.2754 125.729 70.3928 126.037 70.5101C126.213 70.5834 126.338 70.6641 126.411 70.7521C126.499 70.8401 126.572 70.9941 126.631 71.2141C126.704 71.5221 126.763 71.8961 126.807 72.3361C126.866 72.7761 126.895 73.2601 126.895 73.7881C126.895 73.9788 126.763 74.0741 126.499 74.0741C126.367 74.0741 126.242 74.0448 126.125 73.9861C126.022 73.9128 125.956 73.8248 125.927 73.7221C125.678 72.8421 125.311 72.1748 124.827 71.7201C124.343 71.2654 123.749 71.0381 123.045 71.0381C122.605 71.0381 122.231 71.1114 121.923 71.2581C121.615 71.4048 121.38 71.6248 121.219 71.9181C121.072 72.2114 120.999 72.5781 120.999 73.0181C120.999 73.3701 121.116 73.7001 121.351 74.0081C121.6 74.3014 121.952 74.6021 122.407 74.9101C122.862 75.2181 123.382 75.5481 123.969 75.9001C124.761 76.3694 125.392 76.8314 125.861 77.2861C126.33 77.7408 126.668 78.2248 126.873 78.7381C127.093 79.2368 127.203 79.8161 127.203 80.4761C127.203 81.4734 126.983 82.3021 126.543 82.9621C126.118 83.6221 125.509 84.1134 124.717 84.4361C123.94 84.7441 123.023 84.8981 121.967 84.8981Z" fill="black"/>
</svg>
