<svg width="313" height="236" viewBox="0 0 313 236" fill="none" xmlns="http://www.w3.org/2000/svg">
<path d="M296 1C321.5 103 317.128 99.7725 245.5 166.5" stroke="#86171E" stroke-width="5" stroke-dasharray="15 15"/>
<path d="M0.19219 213.143C-1.54026 198.897 8.6329 185.948 22.9146 184.219L254.545 156.192C268.827 154.464 281.809 164.611 283.541 178.857C285.274 193.103 275.1 206.052 260.819 207.781L29.1883 235.808C14.9066 237.536 1.92465 227.389 0.19219 213.143Z" fill="#86171E"/>
<path d="M39.5286 196.338L40.0873 200.932L33.8345 201.688L36.1385 220.634L30.39 221.33L28.086 202.384L21.8332 203.14L21.2745 198.546L39.5286 196.338Z" fill="#FEFBF7"/>
<path d="M48.7208 199.887L49.2999 204.649L56.9982 203.717L57.5365 208.143L49.8382 209.075L50.4662 214.239L59.173 213.185L59.7317 217.779L45.2763 219.529L42.4136 195.989L56.8689 194.239L57.4276 198.833L48.7208 199.887Z" fill="#FEFBF7"/>
<path d="M68.6739 212.206L76.2041 211.295L76.7424 215.721L63.4637 217.328L60.601 193.788L66.3495 193.092L68.6739 212.206Z" fill="#FEFBF7"/>
<path d="M84.6945 210.267L92.2248 209.356L92.7631 213.783L79.4843 215.389L76.6216 191.849L82.3701 191.154L84.6945 210.267Z" fill="#FEFBF7"/>
<path d="M126.492 185.815L129.354 209.355L123.606 210.051L121.889 195.933L118.328 210.689L113.689 211.251L106.657 197.742L108.377 211.893L102.629 212.589L99.7662 189.049L106.557 188.227L115.161 203.723L119.735 186.633L126.492 185.815Z" fill="#FEFBF7"/>
<path d="M136.933 189.213L137.512 193.975L145.21 193.043L145.748 197.47L138.05 198.401L138.678 203.565L147.385 202.512L147.944 207.106L133.488 208.855L130.626 185.315L145.081 183.566L145.64 188.16L136.933 189.213Z" fill="#FEFBF7"/>
<path d="M182.662 179.018L185.525 202.558L179.777 203.254L178.06 189.137L174.499 203.892L169.86 204.454L162.827 190.946L164.548 205.097L158.8 205.792L155.937 182.252L162.728 181.43L171.332 196.926L175.905 179.836L182.662 179.018Z" fill="#FEFBF7"/>
<path d="M200.848 200.942C198.63 201.211 196.528 200.943 194.543 200.14C192.58 199.334 190.938 198.081 189.617 196.381C188.315 194.655 187.525 192.642 187.245 190.339C186.965 188.036 187.251 185.903 188.104 183.94C188.979 181.974 190.273 180.366 191.986 179.115C193.721 177.862 195.698 177.101 197.916 176.832C200.135 176.564 202.226 176.833 204.189 177.638C206.174 178.442 207.805 179.696 209.081 181.402C210.38 183.105 211.169 185.108 211.449 187.41C211.729 189.713 211.444 191.857 210.594 193.843C209.741 195.806 208.458 197.413 206.746 198.664C205.033 199.914 203.067 200.674 200.848 200.942ZM200.212 195.711C202.095 195.483 203.52 194.676 204.489 193.288C205.479 191.898 205.85 190.175 205.6 188.118C205.347 186.039 204.574 184.454 203.282 183.363C202.009 182.246 200.431 181.802 198.548 182.03C196.643 182.26 195.194 183.059 194.201 184.427C193.23 185.792 192.872 187.526 193.128 189.627C193.38 191.706 194.143 193.304 195.416 194.42C196.709 195.511 198.307 195.942 200.212 195.711Z" fill="#FEFBF7"/>
<path d="M228.121 197.404L222.133 189.112L220.754 189.279L221.835 198.165L216.086 198.86L213.224 175.32L222.872 174.153C224.732 173.928 226.351 174.061 227.73 174.552C229.131 175.04 230.226 175.815 231.015 176.876C231.801 177.916 232.278 179.128 232.446 180.514C232.637 182.079 232.358 183.53 231.611 184.868C230.887 186.204 229.693 187.233 228.03 187.956L234.609 196.619L228.121 197.404ZM220.261 185.221L223.824 184.79C224.878 184.662 225.631 184.31 226.084 183.734C226.559 183.155 226.74 182.396 226.625 181.457C226.517 180.562 226.162 179.891 225.562 179.442C224.984 178.99 224.168 178.828 223.115 178.955L219.551 179.386L220.261 185.221Z" fill="#FEFBF7"/>
<path d="M241.461 176.565L242.04 181.327L249.738 180.395L250.277 184.822L242.578 185.753L243.206 190.917L251.913 189.864L252.472 194.458L238.016 196.207L235.154 172.667L249.609 170.918L250.168 175.512L241.461 176.565Z" fill="#FEFBF7"/>
<path d="M260.803 168.712L262.084 184.856L257.209 185.446L254.584 169.465L260.803 168.712ZM260.775 193.725C259.766 193.847 258.902 193.657 258.181 193.154C257.48 192.627 257.077 191.927 256.971 191.055C256.862 190.161 257.084 189.374 257.639 188.694C258.215 188.012 259.008 187.61 260.016 187.488C261.002 187.369 261.846 187.573 262.547 188.101C263.27 188.625 263.686 189.335 263.795 190.229C263.901 191.101 263.666 191.878 263.089 192.56C262.532 193.218 261.761 193.606 260.775 193.725Z" fill="#FEFBF7"/>
</svg>
