<svg width="114" height="270" viewBox="0 0 114 270" fill="none" xmlns="http://www.w3.org/2000/svg">
    <path d="M82 1C63.6805 28.1422 33.7987 94.0388 60.8275 140.487C87.8562 186.936 72.0894 245.516 60.8275 269" stroke="#86171E" stroke-width="2" stroke-dasharray="8 8"/>
    <rect x="3.43445" y="52.0605" width="110.757" height="40" rx="20" transform="rotate(4.68607 3.43445 52.0605)" fill="#86171E"/>
    <path d="M36.1527 65.574L34.6616 83.765L30.2304 83.4018L30.8443 75.9129L23.9514 75.3479L23.3375 82.8368L18.9064 82.4735L20.3975 64.2826L24.8287 64.6458L24.2445 71.7719L31.1374 72.3369L31.7215 65.2108L36.1527 65.574ZM46.4487 84.9138C44.7384 84.7736 43.1989 84.2474 41.8302 83.3352C40.4788 82.4244 39.4379 81.226 38.7075 79.7401C37.9958 78.2383 37.7129 76.5977 37.8587 74.8183C38.0046 73.0389 38.5502 71.4749 39.4955 70.1263C40.4581 68.7791 41.6803 67.7663 43.162 67.0877C44.661 66.4106 46.2657 66.1421 47.9759 66.2823C49.6862 66.4225 51.217 66.948 52.5685 67.8588C53.9372 68.771 54.9695 69.9686 55.6653 71.4518C56.3784 72.9363 56.662 74.5683 56.5162 76.3476C56.3703 78.127 55.824 79.6996 54.8773 81.0655C53.9319 82.4141 52.7184 83.4277 51.2367 84.1063C49.755 84.7848 48.159 85.054 46.4487 84.9138ZM46.7801 80.8714C48.2312 80.9903 49.4283 80.6015 50.3714 79.7049C51.3317 78.8097 51.877 77.5674 52.0073 75.978C52.139 74.3714 51.8033 73.0569 51.0001 72.0346C50.2156 70.9964 49.0978 70.4178 47.6467 70.2988C46.1783 70.1785 44.9646 70.5572 44.0057 71.4352C43.064 72.3145 42.5266 73.5661 42.3935 75.19C42.2618 76.7966 42.5882 78.119 43.3727 79.1573C44.1759 80.1796 45.3116 80.751 46.7801 80.8714ZM84.7547 69.5579L78.5215 87.3602L73.1575 86.9205L71.2366 74.7108L67.2493 86.4362L61.8853 85.9965L58.7639 67.4275L63.506 67.8162L65.0378 81.2723L69.3623 68.2962L74.234 68.6955L76.2582 82.192L79.9867 69.1671L84.7547 69.5579ZM92.372 69.1649C94.2205 69.3164 95.6578 69.9212 96.6842 70.9793C97.7278 72.0387 98.1774 73.4495 98.0329 75.2116C97.8998 76.8355 97.2602 78.0613 96.1141 78.8891C94.9866 79.7011 93.5498 80.0442 91.8036 79.9184L91.5147 81.8513L87.6277 81.5327L87.8932 76.7022L89.448 76.8297C90.7782 76.9387 91.8023 76.8574 92.5202 76.5858C93.2554 76.3157 93.6584 75.7487 93.7292 74.8849C93.7788 74.2803 93.6536 73.7917 93.3537 73.4193C93.0538 73.0469 92.6101 72.8366 92.0228 72.7885C91.4009 72.7375 90.9023 72.8793 90.527 73.2137C90.1532 73.5309 89.9415 73.9918 89.892 74.5965L85.72 74.2545C85.7718 73.1978 86.0656 72.2654 86.6014 71.4571C87.1545 70.6503 87.9173 70.0433 88.8899 69.636C89.8811 69.2129 91.0418 69.0559 92.372 69.1649ZM89.0708 88.4336C88.2934 88.3699 87.6726 88.0929 87.2084 87.6027C86.763 87.0966 86.5678 86.5067 86.6231 85.833C86.6797 85.1419 86.969 84.583 87.4909 84.1563C88.0302 83.7309 88.6885 83.5501 89.4659 83.6138C90.226 83.6761 90.8288 83.9603 91.2742 84.4664C91.737 84.9739 91.9401 85.5731 91.8834 86.2642C91.8282 86.9379 91.531 87.4875 90.9917 87.9128C90.4712 88.3223 89.8309 88.4959 89.0708 88.4336Z" fill="#FEFBF7"/>
</svg>
