<svg width="420" height="421" viewBox="0 0 420 421" fill="none" xmlns="http://www.w3.org/2000/svg">
<path d="M210 0C325.98 0 420 94.02 420 210C420 325.98 325.98 420 210 420C94.02 420.01 0 325.99 0 210C0 94.02 94.02 0 210 0Z" fill="#FEFBF7"/>
<path d="M209.99 285.041C227.547 285.041 241.78 270.808 241.78 253.251C241.78 235.694 227.547 221.461 209.99 221.461C192.433 221.461 178.2 235.694 178.2 253.251C178.2 270.808 192.433 285.041 209.99 285.041Z" stroke="#86171E" stroke-width="5" stroke-miterlimit="10"/>
<path d="M194.83 253.25H225.16" stroke="#86171E" stroke-width="3" stroke-linecap="round" stroke-linejoin="round"/>
<path d="M209.99 268.41V238.09" stroke="#86171E" stroke-width="3" stroke-linecap="round" stroke-linejoin="round"/>
<path d="M182.71 316.17C182.49 316.17 182.3 316.03 182.23 315.82C182.16 315.61 182.24 315.39 182.42 315.26L208.94 296.61C209.03 296.55 209.13 296.52 209.23 296.52C209.33 296.52 209.43 296.55 209.51 296.61L236.67 315.26C236.85 315.38 236.93 315.61 236.86 315.82C236.8 316.03 236.6 316.17 236.38 316.17H182.7H182.71Z" fill="#86171E"/>
<path d="M209.24 297.02L236.39 315.67H182.71L209.23 297.02M209.23 296.02C209.03 296.02 208.83 296.08 208.65 296.2L182.13 314.85C181.77 315.1 181.62 315.55 181.75 315.97C181.88 316.39 182.27 316.67 182.7 316.67H236.38C236.82 316.67 237.21 316.38 237.34 315.97C237.47 315.56 237.31 315.1 236.95 314.85L209.8 296.2C209.63 296.08 209.43 296.02 209.23 296.02Z" fill="#86171E"/>
<path d="M210 304.979C187.85 304.979 168.28 289.309 163.47 267.719C163.44 267.569 163.47 267.419 163.57 267.299C163.66 267.179 163.81 267.109 163.96 267.109H256.03C256.18 267.109 256.32 267.179 256.42 267.299C256.52 267.419 256.55 267.569 256.52 267.719C251.71 289.309 232.15 304.979 210 304.979Z" fill="#86171E"/>
<path d="M256.03 267.609C251.33 288.709 232.51 304.479 210 304.479C187.49 304.479 168.66 288.709 163.96 267.609H256.03ZM256.03 266.609H163.96C163.66 266.609 163.37 266.749 163.18 266.979C162.99 267.219 162.92 267.529 162.98 267.819C165.32 278.339 171.25 287.899 179.67 294.729C188.21 301.659 198.98 305.479 210 305.479C221.02 305.479 231.79 301.659 240.32 294.729C248.73 287.899 254.66 278.339 257 267.819C257.07 267.519 257 267.209 256.8 266.979C256.61 266.739 256.32 266.609 256.02 266.609H256.03Z" fill="#86171E"/>
<path d="M271.88 286.539C271.49 286.539 271.11 286.339 270.9 286.009C270.68 285.679 270.64 285.279 270.8 284.909C273.92 277.309 280.99 257.389 279.16 236.589C277.52 218.019 271.83 204.699 268.59 198.409C268.37 197.989 267.96 197.739 267.49 197.739C267.06 197.739 266.49 197.969 266.3 198.629C263.93 206.899 258.88 220.789 251.57 220.789C250.48 220.789 249.37 220.479 248.28 219.849C236.64 213.219 236.97 195.969 241.05 172.129C244.24 153.509 231.85 139.129 226.38 133.799C225.77 133.199 225.47 133.189 225.44 133.189C225.44 133.189 225.24 133.439 225.44 134.409C227.2 142.989 230.36 164.539 221.71 179.489C213.82 193.119 198.69 199.699 184.05 206.059C178.54 208.459 172.83 210.929 167.75 213.719C150.16 223.369 141.49 244.299 143.27 258.959C144.35 267.839 147.98 276.779 150.84 282.719C151.78 284.659 151.61 285.319 151.41 285.639C151.25 285.889 150.99 286.029 150.68 286.029C150.14 286.029 149.38 285.579 148.39 284.659C141.24 278.059 128.61 264.069 124.45 244.539C119.06 219.279 123.57 197.579 140 169.639C151.1 150.769 160.98 140.149 165.89 135.499C166.19 135.219 166.56 135.069 166.95 135.069C167.4 135.069 167.83 135.269 168.13 135.609C168.44 135.959 168.58 136.419 168.52 136.899C168.1 140.219 169.33 145.979 173.01 151.359C175.98 155.699 181.49 161.129 190.94 162.339C191.15 162.369 191.35 162.379 191.55 162.379C192.66 162.379 193.55 161.949 194.25 161.069C196.41 158.359 197.8 150.089 192.22 126.129C191.98 125.119 191.9 124.759 191.89 124.619C187.88 99.2192 188.55 75.1492 193.86 53.0592C198.17 35.1392 204.47 23.2192 207.85 17.7092C208.14 17.2292 208.62 16.9492 209.16 16.9492C209.59 16.9492 210 17.1292 210.3 17.4392C210.61 17.7592 210.76 18.1892 210.74 18.6492C209.98 35.1792 210.17 91.6992 244.39 124.809C244.85 125.239 290.78 168.869 295.9 198.419C301.27 229.479 293.26 257.989 286.95 268.659C282.12 276.819 275.93 283.149 272.67 286.199C272.45 286.409 272.17 286.519 271.88 286.519V286.539Z" fill="#86171E"/>
<path d="M209.17 17.4614C209.73 17.4614 210.29 17.9214 210.25 18.6414C209.53 34.2814 209.46 91.7214 244.06 125.181C244.06 125.181 290.28 168.781 295.42 198.521C300.57 228.251 293.38 256.841 286.53 268.421C281.75 276.511 275.6 282.801 272.34 285.851C272.2 285.981 272.04 286.041 271.89 286.041C271.46 286.041 271.06 285.601 271.27 285.101C274.24 277.871 281.52 257.611 279.66 236.551C278.01 217.801 272.22 204.361 269.03 198.181C268.7 197.541 268.09 197.231 267.49 197.231C266.77 197.231 266.06 197.661 265.82 198.491C263.73 205.791 258.69 220.281 251.57 220.281C250.59 220.281 249.58 220.011 248.53 219.411C237.22 212.971 237.43 196.251 241.55 172.211C244.78 153.371 232.29 138.841 226.74 133.441C226.22 132.931 225.78 132.691 225.45 132.691C224.93 132.691 224.72 133.331 224.97 134.511C226.66 142.751 229.9 164.371 221.3 179.241C210.48 197.941 185.84 203.241 167.54 213.281C149.24 223.321 141.07 244.691 142.81 259.021C143.92 268.201 147.79 277.461 150.43 282.931C151.24 284.621 151.3 285.521 150.72 285.521C150.34 285.521 149.67 285.121 148.76 284.281C142.01 278.051 129.15 264.031 124.97 244.431C119.21 217.411 125.36 195.561 140.46 169.891C151.76 150.681 161.88 140.011 166.26 135.861C166.48 135.651 166.73 135.561 166.98 135.561C167.58 135.561 168.14 136.091 168.05 136.831C167.17 143.881 173.5 160.601 190.9 162.841C191.13 162.871 191.36 162.881 191.57 162.881C202.45 162.881 192.51 125.661 192.41 124.561C192.41 124.541 192.41 124.531 192.41 124.501C183.09 65.4914 201.68 28.7814 208.31 17.9614C208.53 17.6014 208.86 17.4414 209.19 17.4414M209.19 16.4414C208.48 16.4414 207.83 16.8114 207.45 17.4414C204.06 22.9714 197.73 34.9414 193.4 52.9314C188.07 75.0914 187.4 99.2214 191.42 124.661C191.44 124.831 191.5 125.131 191.76 126.231C197.3 150.001 195.97 158.121 193.88 160.751C193.27 161.521 192.54 161.881 191.57 161.881C191.4 161.881 191.21 161.871 191.03 161.841C181.76 160.651 176.35 155.331 173.45 151.071C169.87 145.821 168.66 140.071 169.05 136.951C169.13 136.321 168.95 135.721 168.54 135.261C168.14 134.811 167.58 134.551 166.99 134.551C166.47 134.551 165.97 134.751 165.58 135.121C160.66 139.791 150.73 150.441 139.6 169.371C123.1 197.421 118.58 219.231 124 244.631C128.19 264.301 140.89 278.371 148.09 285.011C149.53 286.341 150.26 286.511 150.72 286.511C151.18 286.511 151.62 286.281 151.87 285.891C152.3 285.211 152.13 284.161 151.33 282.491C148.49 276.591 144.88 267.701 143.81 258.891C142.05 244.401 150.63 223.701 168.03 214.151C173.09 211.371 178.53 209.011 184.29 206.511C199 200.121 214.21 193.511 222.18 179.731C230.91 164.641 227.74 142.931 225.96 134.301C225.94 134.191 225.92 134.101 225.91 134.011C225.95 134.051 226 134.091 226.05 134.141C231.47 139.411 243.72 153.641 240.57 172.021C238.21 185.821 237.5 195.221 238.27 202.501C239.19 211.231 242.39 217.041 248.05 220.271C249.22 220.931 250.41 221.271 251.58 221.271C259.21 221.271 264.39 207.161 266.79 198.751C266.9 198.361 267.23 198.221 267.5 198.221C267.67 198.221 267.97 198.271 268.15 198.621C271.38 204.881 277.04 218.141 278.67 236.621C280.49 257.311 273.46 277.141 270.35 284.701C270.13 285.231 270.19 285.801 270.5 286.271C270.82 286.741 271.34 287.021 271.9 287.021C272.32 287.021 272.72 286.861 273.03 286.571C276.31 283.501 282.55 277.131 287.4 268.921C293.75 258.191 301.81 229.531 296.41 198.341C294.25 185.831 284.88 169.591 268.58 150.051C256.48 135.551 244.86 124.551 244.75 124.451C236.14 116.121 208.27 83.8714 211.26 18.6814C211.29 18.0814 211.08 17.5214 210.68 17.1014C210.29 16.6914 209.74 16.4514 209.18 16.4514L209.19 16.4414Z" fill="#86171E"/>
<path d="M333.79 355.378L221.68 370.928C221.68 371.948 220.52 372.768 219.09 372.768H200.91C199.47 372.768 198.31 371.938 198.31 370.918L86.1904 355.378L92.5804 337.328C92.5804 337.328 104.34 341.548 113.11 341.588C121.23 341.628 148.67 337.318 167.72 338.808C196.62 341.068 210.01 357.718 210.01 357.718V357.768C210.01 357.768 210.02 357.758 210.04 357.728C210.75 356.878 224.19 341.308 252.3 339.138C271.35 337.668 298.79 341.918 306.91 341.878C315.68 341.838 327.44 337.688 327.44 337.688L333.79 355.378Z" fill="#881A21" stroke="#881A21" stroke-linecap="round" stroke-linejoin="round"/>
<path d="M210.02 357.278V326.488" stroke="#881A21" stroke-miterlimit="10" stroke-linecap="round"/>
<path d="M163.98 299.038C162.58 299.188 161.24 299.358 159.97 299.538C146.43 301.438 132.58 295.828 132.58 295.828L92.5801 337.328" stroke="#881A21" stroke-linecap="round" stroke-linejoin="round"/>
<path d="M256.05 299.038C257.45 299.188 258.79 299.358 260.06 299.538C273.6 301.438 287.45 295.828 287.45 295.828L327.45 337.688" stroke="#881A21" stroke-linecap="round" stroke-linejoin="round"/>
<path d="M222.7 334.282C223.47 333.672 224.34 333.262 225.18 332.852C231.92 329.542 239.43 327.682 247.49 326.872C255.05 326.112 262.53 326.612 269.99 327.522C275.42 328.182 280.84 328.932 286.31 329.412C291.82 329.892 297.19 329.492 302.39 328.062C302.79 327.952 303.19 327.842 303.59 327.732C304.01 327.612 304.3 327.712 304.47 328.002C304.52 328.082 304.55 328.172 304.59 328.252C305.85 330.592 306.09 329.992 303.09 330.782C296.98 332.402 290.68 332.712 284.26 331.972C277.43 331.182 270.61 330.322 263.76 329.642C252.09 328.492 240.92 329.592 230.49 333.702C228.99 334.292 227.51 334.932 226.21 335.732C225.39 336.232 224.89 336.122 224.3 335.582C223.83 335.142 223.26 334.752 222.69 334.292L222.7 334.282Z" fill="#881A21" stroke="#881A21" stroke-miterlimit="10"/>
<path d="M192.71 336.189C189.38 334.309 185.71 332.839 181.74 331.739C173.82 329.539 165.61 328.829 157.17 329.399C150.08 329.879 143.1 330.889 136.09 331.749C128.5 332.669 121.07 332.569 113.83 330.519C112.37 330.109 112.36 330.119 112.94 329.059C113.73 327.589 113.75 327.559 115.82 328.119C121.97 329.779 128.27 329.859 134.67 329.119C141.69 328.309 148.66 327.259 155.74 326.749C168.35 325.839 180.31 327.289 191.24 332.099C192.39 332.599 193.44 333.209 194.55 333.749C195.17 334.049 195.39 334.349 194.72 334.769C194.03 335.199 193.55 335.779 192.7 336.179L192.71 336.189Z" fill="#881A21" stroke="#881A21" stroke-miterlimit="10"/>
<path d="M261.1 317.648C265.17 317.548 268.98 318.238 272.8 318.878C277.17 319.608 281.56 320.158 286.09 319.798C288.9 319.578 291.65 319.158 294.35 318.578C295.56 318.318 295.62 318.328 296.02 319.208C296.93 321.228 297.35 320.758 294.44 321.398C286.9 323.048 279.35 322.938 271.77 321.518C268.21 320.858 264.62 320.298 260.9 320.318C258.68 320.328 256.5 320.578 254.36 320.958C253.77 321.068 253.48 321.008 253.31 320.548C252.34 317.958 252.05 318.558 255.34 317.998C257.25 317.668 259.22 317.568 261.09 317.638L261.1 317.648Z" fill="#881A21" stroke="#881A21" stroke-miterlimit="10"/>
<path d="M165.34 318.929C165.11 319.509 164.88 320.149 164.59 320.769C164.39 321.199 163.92 320.989 163.52 320.929C161.12 320.549 158.7 320.279 156.23 320.329C152.9 320.399 149.68 320.939 146.45 321.469C142.56 322.119 138.67 322.699 134.65 322.649C130.39 322.599 126.26 321.989 122.19 321.139C121.24 320.939 121.27 320.659 121.52 320.109C122.36 318.329 122.35 318.289 124.83 318.819C131.66 320.279 138.48 320.139 145.33 318.849C149.43 318.079 153.57 317.509 157.85 317.619C160.07 317.679 162.24 317.909 164.4 318.259C164.84 318.329 165.44 318.349 165.33 318.919L165.34 318.929Z" fill="#881A21" stroke="#881A21" stroke-miterlimit="10"/>
<path d="M141.15 312.829C136.99 313.049 132.78 312.039 130.98 311.529C130.48 311.389 130.26 310.979 130.48 310.629L131.38 309.249C131.59 308.929 132.1 308.779 132.56 308.909C134.25 309.379 138.33 310.349 141.85 309.899C144.2 309.599 146.01 309.229 147.76 308.859C151.27 308.129 154.32 307.499 159.39 308.079C159.81 308.129 160.09 308.419 160.01 308.709L159.56 310.449C159.48 310.739 159.09 310.929 158.68 310.879C154.54 310.419 152.13 310.919 148.88 311.589C147.11 311.959 145.11 312.369 142.55 312.699C142.09 312.759 141.62 312.799 141.15 312.819V312.829Z" fill="#881A21" stroke="#881A21" stroke-miterlimit="10"/>
<path d="M276.9 312.829C281.06 313.049 285.27 312.039 287.07 311.529C287.57 311.389 287.79 310.979 287.57 310.629L286.67 309.249C286.46 308.929 285.95 308.779 285.49 308.909C283.8 309.379 279.72 310.349 276.2 309.899C273.85 309.599 272.04 309.229 270.29 308.859C266.78 308.129 263.73 307.499 258.66 308.079C258.24 308.129 257.96 308.419 258.04 308.709L258.49 310.449C258.57 310.739 258.96 310.929 259.37 310.879C263.51 310.419 265.92 310.919 269.17 311.589C270.94 311.959 272.94 312.369 275.5 312.699C275.96 312.759 276.43 312.799 276.9 312.819V312.829Z" fill="#881A21" stroke="#881A21" stroke-miterlimit="10"/>
<path d="M198.84 359.64C190.62 354.1 181.21 350.39 171.58 348.24C163.12 346.56 154.5 345.83 145.9 345.27C141 344.99 140.7 344.79 145.83 343.9C159.67 341.38 173.85 345.42 186.31 351.32C190.81 353.59 195.17 356.17 199.02 359.41L198.83 359.64H198.84Z" fill="#FEFAF7"/>
<path d="M191.43 361.149C186.43 359.629 181.21 358.879 176.01 358.579C170.77 358.439 165.58 358.609 160.34 358.099L160.32 357.899C168.03 355.349 176.26 356.679 183.98 358.439C186.54 359.109 189.09 359.869 191.5 360.959L191.42 361.149H191.43Z" fill="#FEFAF7"/>
<path d="M194.41 359.601C181.17 352.171 163.15 351.861 148.3 352.631C136.36 353.381 124.35 352.211 112.75 349.371C108.89 348.431 105.06 347.361 101.33 345.991L101.39 345.801C103.33 346.211 105.26 346.621 107.2 346.971C120.72 349.461 134.46 351.291 148.22 351.011C160.07 350.631 172.25 351.181 183.65 354.641C187.43 355.841 191.21 357.211 194.53 359.431L194.41 359.591V359.601Z" fill="#FEFAF7"/>
<path d="M221.01 359.88C228.82 353.49 238.19 349.16 247.87 346.38C257.57 343.38 268.02 342.62 277.93 345.13L277.9 345.43C276.63 345.58 275.38 345.66 274.14 345.75C265.54 346.31 256.92 347.04 248.46 348.72C238.83 350.88 229.42 354.59 221.2 360.12L221.01 359.89V359.88Z" fill="#FEFAF7"/>
<path d="M228.54 361.431C233.4 359.301 238.64 358.151 243.89 357.451C249.16 356.641 254.6 356.681 259.72 358.361L259.7 358.561C254.47 359.071 249.27 358.901 244.03 359.041C238.83 359.351 233.61 360.091 228.61 361.611L228.53 361.431H228.54Z" fill="#FEFAF7"/>
<path d="M225.51 359.91C238.88 351.84 256.55 351.1 271.82 351.48C285.58 351.75 299.32 349.93 312.84 347.44C314.79 347.09 316.72 346.68 318.65 346.27L318.71 346.46C314.98 347.83 311.15 348.9 307.29 349.84C295.68 352.68 283.68 353.85 271.74 353.1C256.24 352.17 239.32 352.95 225.51 359.91Z" fill="#FEFAF7"/>
<path d="M285.13 95.4516C289.538 95.4516 293.11 91.8475 293.11 87.4016C293.11 82.9557 289.538 79.3516 285.13 79.3516C280.723 79.3516 277.15 82.9557 277.15 87.4016C277.15 91.8475 280.723 95.4516 285.13 95.4516Z" fill="#930017"/>
<path d="M324.02 103.172C325.44 102.772 326.05 101.082 325.21 99.8616C321.95 95.1016 320.71 95.2616 315.86 98.4716C310.27 102.172 279.54 108.112 263.58 82.3616C249.64 59.8816 251.11 58.4316 243.13 58.6416C235.15 58.8616 246.95 71.6416 253.43 90.6216C263.34 119.662 247.24 127.792 253.39 132.442C264.34 140.722 269.47 143.792 275.44 136.332C275.44 136.332 280.03 121.142 301.19 111.712C312.13 106.842 320.05 104.302 324.02 103.172Z" fill="url(#paint0_linear_4381_918)"/>
<path d="M309.258 130.242C311.137 126.213 309.422 121.437 305.428 119.574C301.434 117.711 296.673 119.468 294.794 123.497C292.915 127.527 294.63 132.303 298.624 134.165C302.618 136.028 307.379 134.272 309.258 130.242Z" fill="#930017"/>
<path d="M289.72 179.28C289.72 179.28 285.08 142.47 292.58 138.9C300.08 135.33 300.08 139.26 306.86 138.9C313.64 138.54 315.07 139.97 315.07 146.4C315.07 152.83 318.28 181.27 310.79 180.79C303.29 180.31 293.66 184.68 289.73 179.28H289.72Z" fill="url(#paint1_linear_4381_918)"/>
<path d="M350.772 178.043C352.651 174.014 350.936 169.237 346.942 167.375C342.947 165.512 338.186 167.269 336.307 171.298C334.428 175.327 336.143 180.104 340.138 181.966C344.132 183.829 348.893 182.072 350.772 178.043Z" fill="#930017"/>
<path d="M333.78 149.221C333.78 149.221 324.95 181.641 334.85 185.921C344.76 190.201 354.45 185.391 357.07 180.301C361.62 171.471 355.2 141.481 358.41 140.411C361.62 139.341 364.03 136.931 365.1 140.411C366.17 143.891 364.87 179.451 361.73 204.961C359.39 223.941 360.51 229.971 354.35 230.511C348.19 231.051 332.09 231.781 330.75 225.461C329.41 219.151 315.84 150.051 323.61 144.161C331.37 138.271 334.87 146.091 333.78 149.221Z" fill="url(#paint2_linear_4381_918)"/>
<path d="M327.723 235.758C331.717 233.896 333.432 229.119 331.553 225.09C329.674 221.061 324.913 219.304 320.919 221.167C316.925 223.029 315.21 227.805 317.089 231.835C318.968 235.864 323.729 237.621 327.723 235.758Z" fill="#930017"/>
<path d="M342.07 206.498C342.07 206.498 341.53 236.398 331.36 239.388C321.19 242.378 309.94 233.268 308.34 241.838C306.73 250.408 310.48 280.478 312.62 283.108C314.76 285.738 331.36 289.038 333.5 283.108C335.64 277.178 356.52 203.638 349.21 203.098C341.9 202.558 342.17 203.978 342.07 206.488V206.498Z" fill="url(#paint3_linear_4381_918)"/>
<path d="M87.8504 104.78C87.8504 104.78 88.3904 134.68 98.5604 137.67C108.73 140.66 119.98 131.55 121.58 140.12C123.19 148.69 119.44 178.76 117.3 181.39C115.16 184.02 98.5604 187.32 96.4204 181.39C94.2804 175.46 73.4004 101.92 80.7104 101.38C88.0304 100.84 87.7504 102.26 87.8504 104.77V104.78Z" fill="url(#paint4_linear_4381_918)"/>
<path d="M92.7232 185.549C93.2373 181.133 90.1052 177.14 85.7276 176.63C81.3499 176.12 77.3844 179.287 76.8703 183.703C76.3562 188.119 79.4883 192.112 83.8659 192.622C88.2436 193.132 92.2092 189.965 92.7232 185.549Z" fill="#930017"/>
<path d="M44.3402 195.789C42.9702 195.219 42.5702 193.479 43.5402 192.359C47.3302 188.009 48.5502 188.319 52.9802 192.059C58.1002 196.379 87.9402 205.839 106.77 182.099C123.21 161.379 121.92 159.769 129.82 160.909C137.72 162.049 124.53 173.379 115.9 191.479C102.7 219.179 117.75 229.109 111.1 233.019C99.2702 239.979 93.8202 242.439 88.7502 234.339C88.7502 234.339 85.9402 218.719 66.0102 206.909C55.7102 200.799 48.1302 197.369 44.3202 195.789H44.3402Z" fill="url(#paint5_linear_4381_918)"/>
<path d="M108.596 227.539C110.475 223.51 108.76 218.733 104.766 216.871C100.772 215.008 96.0105 216.765 94.1316 220.794C92.2527 224.823 93.9675 229.6 97.9618 231.462C101.956 233.325 106.717 231.568 108.596 227.539Z" fill="#930017"/>
<path d="M152.628 98.0664C154.507 94.0371 152.793 89.2607 148.798 87.3981C144.804 85.5356 140.043 87.2921 138.164 91.3214C136.285 95.3508 138 100.127 141.994 101.99C145.988 103.852 150.75 102.096 152.628 98.0664Z" fill="#930017"/>
<path d="M135.64 69.2401C135.64 69.2401 126.81 101.66 136.71 105.94C146.62 110.22 156.31 105.41 158.93 100.32C163.48 91.4901 157.06 61.5001 160.27 60.4301C163.48 59.3601 165.89 56.9501 166.96 60.4301C168.03 63.9101 166.73 99.4701 163.59 124.98C161.25 143.96 162.37 149.99 156.21 150.53C150.05 151.07 133.95 151.8 132.61 145.48C131.27 139.17 117.7 70.0701 125.47 64.1801C133.24 58.2901 136.73 66.1101 135.64 69.2401Z" fill="url(#paint6_linear_4381_918)"/>
<path d="M89.05 276.581C89.05 276.581 84.41 239.771 91.91 236.201C99.41 232.631 99.41 236.561 106.19 236.201C112.97 235.841 114.4 237.271 114.4 243.701C114.4 250.131 117.61 278.571 110.12 278.091C102.62 277.611 92.99 281.981 89.06 276.581H89.05Z" fill="url(#paint7_linear_4381_918)"/>
<path d="M112.822 130.109C114.701 126.08 112.986 121.304 108.992 119.441C104.997 117.579 100.236 119.335 98.3572 123.364C96.4782 127.394 98.1931 132.17 102.187 134.033C106.182 135.895 110.943 134.139 112.822 130.109Z" fill="#930017"/>
<defs>
<linearGradient id="paint0_linear_4381_918" x1="257.229" y1="136.113" x2="285.113" y2="76.3147" gradientUnits="userSpaceOnUse">
<stop stop-color="white" stop-opacity="0"/>
<stop offset="0.84" stop-color="#881A21"/>
</linearGradient>
<linearGradient id="paint1_linear_4381_918" x1="302.03" y1="182.01" x2="302.03" y2="137.39" gradientUnits="userSpaceOnUse">
<stop stop-color="white" stop-opacity="0"/>
<stop offset="0.84" stop-color="#881A21"/>
</linearGradient>
<linearGradient id="paint2_linear_4381_918" x1="343.35" y1="230.841" x2="343.35" y2="138.591" gradientUnits="userSpaceOnUse">
<stop stop-color="white" stop-opacity="0"/>
<stop offset="0.84" stop-color="#881A21"/>
</linearGradient>
<linearGradient id="paint3_linear_4381_918" x1="329.35" y1="286.438" x2="329.35" y2="202.998" gradientUnits="userSpaceOnUse">
<stop stop-color="white" stop-opacity="0"/>
<stop offset="0.84" stop-color="#881A21"/>
</linearGradient>
<linearGradient id="paint4_linear_4381_918" x1="100.56" y1="184.72" x2="100.56" y2="101.28" gradientUnits="userSpaceOnUse">
<stop stop-color="white" stop-opacity="0"/>
<stop offset="0.84" stop-color="#881A21"/>
</linearGradient>
<linearGradient id="paint5_linear_4381_918" x1="104.497" y1="237.436" x2="85.8993" y2="171.976" gradientUnits="userSpaceOnUse">
<stop stop-color="white" stop-opacity="0"/>
<stop offset="0.84" stop-color="#881A21"/>
</linearGradient>
<linearGradient id="paint6_linear_4381_918" x1="145.21" y1="150.86" x2="145.21" y2="58.6101" gradientUnits="userSpaceOnUse">
<stop stop-color="white" stop-opacity="0"/>
<stop offset="0.84" stop-color="#881A21"/>
</linearGradient>
<linearGradient id="paint7_linear_4381_918" x1="101.36" y1="279.301" x2="101.36" y2="234.681" gradientUnits="userSpaceOnUse">
<stop stop-color="white" stop-opacity="0"/>
<stop offset="0.84" stop-color="#881A21"/>
</linearGradient>
</defs>
</svg>
