<svg width="1183" height="357" viewBox="0 0 1183 357" fill="none" xmlns="http://www.w3.org/2000/svg">
<path d="M433.983 224.196C426.21 224.196 418.707 222.902 411.474 220.315C404.35 217.727 398.034 214.062 392.529 209.318C387.023 204.574 382.651 198.861 379.413 192.176C376.282 185.492 374.717 178.053 374.717 169.859C374.717 162.205 376.336 155.035 379.575 148.351C382.813 141.559 387.293 135.683 393.015 130.724C398.844 125.657 405.591 121.722 413.256 118.919C420.92 116.008 429.233 114.552 438.193 114.552C442.187 114.552 445.749 114.768 448.88 115.199C452.011 115.523 455.033 116.008 457.948 116.655C460.863 117.302 463.993 118.164 467.34 119.242C468.743 119.673 469.769 120.266 470.416 121.021C471.172 121.776 471.604 122.908 471.712 124.417C472.036 127.22 472.305 130.131 472.521 133.15C472.845 136.168 473.061 139.511 473.169 143.176C473.169 144.146 472.737 144.847 471.874 145.278C471.118 145.71 470.254 145.818 469.283 145.602C468.311 145.278 467.663 144.524 467.34 143.338C466.368 139.78 465.235 136.6 463.939 133.797C462.644 130.994 460.755 128.676 458.272 126.843C455.789 124.902 452.604 123.393 448.718 122.315C444.94 121.237 440.676 120.698 435.926 120.698C429.88 120.698 424.321 121.937 419.247 124.417C414.173 126.897 409.855 130.293 406.293 134.605C402.73 138.81 399.924 143.607 397.872 148.998C395.929 154.388 394.958 159.995 394.958 165.816C394.958 172.609 395.875 179.131 397.711 185.384C399.654 191.637 402.406 197.189 405.969 202.041C409.639 206.892 414.065 210.774 419.247 213.685C424.429 216.488 430.258 217.889 436.735 217.889C444.508 217.889 450.931 216.164 456.005 212.714C461.078 209.156 465.343 204.089 468.797 197.513C469.553 196.004 470.686 195.249 472.197 195.249C473.709 195.249 474.464 196.111 474.464 197.836C474.464 198.914 474.249 200.424 473.817 202.364C473.493 204.197 473.007 206.246 472.359 208.51C471.712 210.666 471.064 212.66 470.416 214.493C469.769 215.895 469.175 216.865 468.635 217.404C468.095 217.943 467.07 218.482 465.559 219.021C461.456 220.746 456.598 222.04 450.985 222.902C445.479 223.765 439.812 224.196 433.983 224.196ZM532.591 223.873C525.25 223.873 518.503 222.202 512.35 218.859C506.197 215.517 501.285 210.989 497.614 205.275C493.944 199.561 492.109 193.147 492.109 186.031C492.109 181.18 493.134 176.49 495.185 171.962C497.236 167.326 500.097 163.175 503.768 159.51C507.438 155.844 511.756 152.987 516.722 150.939C521.688 148.782 527.085 147.704 532.915 147.704C538.312 147.704 543.494 148.621 548.46 150.453C553.534 152.178 558.014 154.766 561.9 158.216C565.894 161.558 569.025 165.493 571.292 170.021C573.667 174.549 574.854 179.562 574.854 185.061C574.854 191.637 573.181 197.89 569.834 203.82C566.596 209.749 561.846 214.601 555.585 218.374C549.431 222.04 541.767 223.873 532.591 223.873ZM534.696 217.566C538.798 217.566 542.199 216.649 544.897 214.817C547.704 212.984 549.917 210.558 551.536 207.539C553.264 204.521 554.451 201.232 555.099 197.675C555.855 194.009 556.232 190.397 556.232 186.84C556.232 181.126 555.207 175.735 553.156 170.668C551.213 165.601 548.406 161.504 544.735 158.377C541.173 155.143 536.855 153.526 531.781 153.526C527.247 153.526 523.415 154.928 520.284 157.731C517.154 160.534 514.725 164.199 512.997 168.727C511.378 173.255 510.569 178.161 510.569 183.444C510.569 189.697 511.486 195.411 513.321 200.585C515.157 205.76 517.855 209.911 521.418 213.038C524.98 216.056 529.406 217.566 534.696 217.566ZM637.076 223.873C635.888 223.873 634.755 222.741 633.675 220.477C629.681 212.499 625.957 204.574 622.502 196.704C619.156 188.834 615.485 180.479 611.491 171.638C610.951 170.56 610.52 170.075 610.196 170.183C609.872 170.183 609.602 170.668 609.386 171.638C609.17 174.334 608.846 177.783 608.414 181.988C607.983 186.085 607.605 190.505 607.281 195.249C607.065 199.885 606.795 204.359 606.471 208.671C606.471 210.504 606.903 212.337 607.767 214.17C608.63 215.895 610.52 216.973 613.434 217.404C614.406 217.512 615.269 217.781 616.025 218.213C616.781 218.644 617.159 219.291 617.159 220.153C617.159 220.8 616.781 221.285 616.025 221.609C615.377 221.932 614.73 222.094 614.082 222.094C612.031 222.094 610.466 222.04 609.386 221.932C608.307 221.824 607.335 221.716 606.471 221.609C605.716 221.501 604.582 221.447 603.071 221.447C601.452 221.447 599.94 221.501 598.537 221.609C597.133 221.716 595.73 221.824 594.327 221.932C592.923 222.04 591.412 222.094 589.793 222.094C589.145 222.094 588.443 221.932 587.688 221.609C587.04 221.285 586.716 220.8 586.716 220.153C586.716 219.291 587.094 218.698 587.85 218.374C588.713 217.943 589.523 217.674 590.278 217.566C592.869 217.134 594.866 216.11 596.27 214.493C597.673 212.768 598.537 210.774 598.861 208.51C599.293 206.03 599.778 202.957 600.318 199.292C600.858 195.626 601.398 191.799 601.937 187.81C602.585 183.713 603.125 179.778 603.557 176.005C604.096 172.231 604.528 168.889 604.852 165.978C605.284 163.067 605.5 161.019 605.5 159.833C605.5 157.785 604.69 156.329 603.071 155.467C601.559 154.604 599.239 153.903 596.108 153.364C595.136 153.149 594.219 152.825 593.355 152.394C592.599 151.855 592.222 151.208 592.222 150.453C592.222 149.699 592.545 149.16 593.193 148.836C593.949 148.513 594.651 148.351 595.298 148.351C597.457 148.351 599.185 148.405 600.48 148.513C601.883 148.513 603.287 148.567 604.69 148.675C606.201 148.782 608.253 148.836 610.843 148.836C612.787 148.836 614.028 148.89 614.568 148.998C615.215 148.998 615.917 149.052 616.673 149.16C617.321 149.699 617.806 150.13 618.13 150.453C618.562 150.669 618.94 151.1 619.264 151.747L641.124 199.777C641.664 200.747 642.096 201.286 642.419 201.394C642.851 201.394 643.283 200.909 643.715 199.939C647.601 191.422 651.002 183.767 653.916 176.975C656.831 170.075 659.638 163.283 662.337 156.599C662.984 155.197 663.632 153.688 664.28 152.071C664.927 150.346 665.467 149.483 665.899 149.483H671.566C674.805 149.375 677.936 149.16 680.958 148.836C684.089 148.513 686.68 148.351 688.731 148.351C689.487 148.351 690.242 148.513 690.998 148.836C691.754 149.16 692.131 149.699 692.131 150.453C692.131 151.208 691.754 151.855 690.998 152.394C690.242 152.933 689.379 153.31 688.407 153.526C685.276 154.065 682.955 154.874 681.444 155.952C680.041 156.922 679.339 158.701 679.339 161.288C679.447 165.385 679.555 169.105 679.663 172.447C679.771 175.681 679.825 178.754 679.825 181.665C679.933 184.576 680.041 187.486 680.149 190.397C680.257 193.2 680.365 196.219 680.473 199.453C680.688 202.58 680.958 206.138 681.282 210.127C681.498 212.391 682.308 214.062 683.711 215.14C685.222 216.218 687.274 216.973 689.864 217.404C690.728 217.512 691.538 217.781 692.293 218.213C693.157 218.644 693.589 219.291 693.589 220.153C693.589 220.8 693.211 221.285 692.455 221.609C691.7 221.932 690.998 222.094 690.35 222.094C688.515 222.094 686.626 222.04 684.683 221.932C682.74 221.824 680.85 221.716 679.015 221.609C677.288 221.393 675.507 221.285 673.672 221.285C671.728 221.285 669.785 221.393 667.842 221.609C665.899 221.716 663.956 221.824 662.013 221.932C660.178 222.04 658.234 222.094 656.183 222.094C655.644 222.094 654.996 221.932 654.24 221.609C653.485 221.285 653.107 220.8 653.107 220.153C653.107 219.291 653.485 218.644 654.24 218.213C654.996 217.781 655.805 217.512 656.669 217.404C659.368 216.973 661.311 216.272 662.498 215.302C663.794 214.224 664.442 212.553 664.442 210.288C664.334 205.976 664.28 201.771 664.28 197.675C664.28 193.578 664.226 189.427 664.118 185.222C664.01 181.018 663.848 176.651 663.632 172.123C663.524 170.937 663.254 170.398 662.822 170.506C662.391 170.506 661.959 171.045 661.527 172.123L640.314 220.477C639.775 221.663 639.235 222.525 638.695 223.064C638.263 223.603 637.723 223.873 637.076 223.873ZM707.783 222.255C707.136 222.255 706.434 222.094 705.678 221.77C705.031 221.339 704.707 220.8 704.707 220.153C704.707 219.291 705.085 218.644 705.84 218.213C706.704 217.781 707.514 217.458 708.269 217.242C710.86 216.703 713.019 215.949 714.746 214.978C716.474 213.9 717.337 212.067 717.337 209.48V163.714C717.337 160.803 716.743 158.539 715.556 156.922C714.369 155.305 712.156 154.227 708.917 153.688C708.053 153.472 707.244 153.095 706.488 152.556C705.84 152.017 705.516 151.37 705.516 150.615C705.516 149.968 705.84 149.483 706.488 149.16C707.244 148.728 707.945 148.513 708.593 148.513C710.428 148.513 712.156 148.567 713.775 148.675C715.394 148.782 717.013 148.944 718.633 149.16C720.252 149.267 721.817 149.321 723.329 149.321C727.107 149.321 730.993 149.321 734.987 149.321C738.982 149.214 742.814 149.16 746.484 149.16C750.155 149.052 753.393 148.998 756.2 148.998C759.115 148.89 761.274 148.836 762.677 148.836C763.109 148.836 763.595 148.944 764.134 149.16C764.782 149.375 765.106 149.807 765.106 150.453C765.214 154.011 765.538 157.084 766.078 159.671C766.617 162.151 766.887 164.091 766.887 165.493C766.887 165.924 766.725 166.409 766.401 166.948C766.186 167.488 765.916 167.757 765.592 167.757C765.16 167.757 764.62 167.541 763.973 167.11C763.325 166.679 762.785 165.978 762.353 165.008C761.058 161.881 759.708 159.402 758.305 157.569C757.01 155.628 754.797 154.658 751.666 154.658H738.388C737.416 154.658 736.391 154.981 735.311 155.628C734.34 156.167 733.854 157.138 733.854 158.539V178.754C733.854 179.508 734.07 180.317 734.502 181.18C734.933 181.934 735.473 182.312 736.121 182.312H747.132C748.859 182.312 750.155 181.772 751.018 180.694C751.99 179.508 752.853 177.783 753.609 175.519C753.933 174.873 754.311 174.334 754.743 173.902C755.174 173.363 755.66 173.094 756.2 173.094C756.74 173.094 757.172 173.363 757.495 173.902C757.927 174.334 758.089 174.926 757.981 175.681C757.765 177.298 757.603 178.915 757.495 180.533C757.387 182.15 757.333 183.659 757.333 185.061C757.333 186.678 757.387 188.187 757.495 189.589C757.711 190.883 757.873 192.446 757.981 194.279C758.089 195.033 757.981 195.788 757.657 196.543C757.441 197.189 757.064 197.513 756.524 197.513C755.66 197.513 755.013 197.082 754.581 196.219C754.149 195.249 753.825 194.494 753.609 193.955C753.069 191.799 752.26 190.343 751.18 189.589C750.209 188.834 749.129 188.403 747.942 188.295C746.43 188.079 744.649 187.972 742.598 187.972C740.655 187.972 738.874 187.972 737.254 187.972C735.959 187.972 735.041 188.133 734.502 188.457C734.07 188.78 733.854 189.589 733.854 190.883V209.48C733.854 211.96 734.178 213.577 734.825 214.331C735.473 215.086 736.877 215.463 739.036 215.463H753.285C756.632 215.463 759.547 214.385 762.029 212.229C764.512 210.073 766.294 207.647 767.373 204.952C767.589 204.521 767.859 204.035 768.183 203.496C768.614 202.85 769.154 202.526 769.802 202.526C770.45 202.526 770.881 202.85 771.097 203.496C771.313 204.035 771.421 204.628 771.421 205.275C771.313 207.539 770.935 209.911 770.288 212.391C769.748 214.87 769.1 217.296 768.345 219.668C768.237 220.315 767.859 220.908 767.211 221.447C766.563 221.878 765.862 222.094 765.106 222.094C762.083 222.094 758.845 222.04 755.39 221.932C751.936 221.932 748.427 221.878 744.865 221.77C741.411 221.77 737.902 221.716 734.34 221.609C730.885 221.501 727.593 221.447 724.462 221.447C722.627 221.447 720.738 221.555 718.795 221.77C716.959 221.878 715.124 221.986 713.289 222.094C711.454 222.202 709.619 222.255 707.783 222.255ZM841.255 225.328C837.152 225.328 833.374 224.573 829.92 223.064C826.465 221.663 823.658 219.614 821.499 216.919C819.448 214.224 818.423 211.043 818.423 207.378C818.423 203.281 819.34 199.723 821.175 196.704C823.011 193.686 825.494 191.098 828.624 188.942C831.863 186.678 835.425 184.629 839.311 182.797L841.416 181.826L838.826 178.915C837.746 177.73 836.559 176.49 835.263 175.196C834.076 173.794 833.05 172.231 832.187 170.506C831.323 168.673 830.891 166.625 830.891 164.361C830.891 161.127 831.863 158.27 833.806 155.79C835.857 153.31 838.502 151.424 841.74 150.13C845.087 148.836 848.541 148.189 852.104 148.189C857.825 148.189 862.413 149.483 865.868 152.071C869.322 154.658 871.103 157.731 871.211 161.288C871.211 164.631 870.078 167.434 867.811 169.698C865.544 171.962 862.467 174.334 858.581 176.813L856.476 177.945L874.126 197.028L876.231 194.925C879.146 192.015 881.305 189.211 882.708 186.516C884.112 183.821 884.813 181.934 884.813 180.856C884.813 179.455 884.435 178.592 883.68 178.269C882.924 177.837 882.061 177.514 881.089 177.298C880.549 177.083 880.009 176.759 879.47 176.328C878.93 175.897 878.66 175.466 878.66 175.034C878.66 174.495 878.984 174.064 879.632 173.741C880.387 173.309 881.143 173.094 881.899 173.094C882.438 173.094 883.626 173.202 885.461 173.417C887.404 173.525 889.401 173.633 891.452 173.741C893.503 173.848 895.015 173.902 895.986 173.902C898.037 173.902 900.412 173.579 903.111 172.932C905.81 172.177 908.077 171.8 909.912 171.8C910.236 171.8 910.614 171.962 911.046 172.285C911.477 172.501 911.693 172.716 911.693 172.932C911.693 173.471 911.262 174.064 910.398 174.711C909.642 175.25 908.833 175.573 907.969 175.681C905.81 176.005 903.813 176.651 901.978 177.622C900.25 178.592 898.847 179.562 897.768 180.533C897.12 181.072 896.04 182.042 894.529 183.444C893.126 184.845 891.506 186.462 889.671 188.295C887.944 190.128 886.163 191.907 884.327 193.632C882.492 195.357 880.927 196.866 879.632 198.16C878.336 199.453 877.473 200.262 877.041 200.585L879.632 203.658C882.438 207 884.921 209.911 887.08 212.391C889.239 214.763 891.83 215.949 894.853 215.949C896.688 215.949 898.415 215.679 900.035 215.14C901.654 214.493 903.219 213.685 904.73 212.714C905.054 212.499 905.432 212.283 905.864 212.067C906.296 211.852 906.728 211.744 907.159 211.744C908.347 211.744 908.941 212.445 908.941 213.846C908.941 214.709 908.077 216.056 906.35 217.889C904.623 219.722 902.409 221.393 899.711 222.902C897.012 224.52 894.151 225.328 891.128 225.328C886.163 225.328 882.114 224.412 878.984 222.579C875.853 220.854 872.453 217.835 868.782 213.523L866.03 210.127L865.22 210.935C862.629 213.738 860.2 216.272 857.933 218.536C855.774 220.692 853.399 222.363 850.808 223.549C848.217 224.735 845.033 225.328 841.255 225.328ZM845.465 215.625C848.379 215.625 851.186 214.978 853.885 213.685C856.692 212.391 859.39 210.612 861.981 208.348L862.953 207.378L861.172 205.114C859.013 202.418 856.53 199.561 853.723 196.543C850.916 193.524 848.109 190.343 845.303 187.001L843.522 184.576L841.578 185.708C837.908 187.756 835.317 190.29 833.806 193.308C832.295 196.327 831.539 199.292 831.539 202.203C831.539 204.574 832.133 206.785 833.32 208.833C834.615 210.881 836.343 212.553 838.502 213.846C840.661 215.032 842.982 215.625 845.465 215.625ZM854.047 175.196L855.666 174.064C857.285 172.77 858.419 170.991 859.067 168.727C859.822 166.463 860.2 164.253 860.2 162.097C860.2 159.294 859.444 156.922 857.933 154.981C856.422 153.041 854.371 152.071 851.78 152.071C849.621 152.071 847.786 152.879 846.274 154.496C844.763 156.006 843.953 157.785 843.845 159.833C843.845 161.234 844.061 162.474 844.493 163.552C844.925 164.631 845.627 165.816 846.598 167.11C847.678 168.296 849.081 169.859 850.808 171.8L854.047 175.196ZM982.431 224.196C977.897 224.196 973.633 223.549 969.639 222.255C965.645 221.07 961.975 219.237 958.628 216.757C958.196 216.326 957.71 215.841 957.171 215.302C956.739 214.655 956.415 214.008 956.199 213.361C955.443 210.881 954.904 207.809 954.58 204.143C954.364 200.37 954.202 197.028 954.094 194.117C954.094 193.362 954.418 192.823 955.066 192.5C955.713 192.068 956.469 191.853 957.333 191.853C958.088 191.853 958.682 192.015 959.114 192.338C959.654 192.554 960.031 193.039 960.247 193.793C962.514 201.987 965.861 208.132 970.287 212.229C974.713 216.218 979.517 218.213 984.698 218.213C988.369 218.213 991.499 217.404 994.09 215.787C996.789 214.17 998.894 212.013 1000.41 209.318C1001.92 206.515 1002.67 203.389 1002.67 199.939C1002.67 195.842 1001.97 192.5 1000.57 189.912C999.164 187.325 997.113 185.007 994.414 182.958C991.715 180.91 988.369 178.7 984.375 176.328C980.057 173.741 975.792 171.045 971.582 168.242C967.48 165.439 964.08 162.151 961.381 158.377C958.682 154.604 957.333 149.968 957.333 144.47C957.333 138.648 958.682 133.527 961.381 129.107C964.188 124.579 968.236 121.021 973.525 118.434C978.815 115.738 985.184 114.391 992.633 114.391C996.519 114.391 1000.03 114.822 1003.16 115.684C1006.4 116.439 1008.99 117.248 1010.93 118.11C1011.9 118.434 1012.66 118.973 1013.2 119.727C1013.85 120.482 1014.33 121.398 1014.66 122.476C1015.19 124.74 1015.79 127.382 1016.44 130.401C1017.08 133.419 1017.41 136.492 1017.41 139.618C1017.41 140.804 1016.54 141.397 1014.82 141.397C1013.85 141.397 1012.93 141.182 1012.06 140.75C1011.2 140.319 1010.66 139.78 1010.45 139.133C1008.29 133.096 1005.59 128.514 1002.35 125.387C999.218 122.261 995.224 120.698 990.366 120.698C987.127 120.698 984.159 121.291 981.46 122.476C978.869 123.555 976.764 125.387 975.145 127.975C973.633 130.454 972.878 133.743 972.878 137.84C972.878 140.75 973.849 143.5 975.792 146.087C977.844 148.567 980.542 150.992 983.889 153.364C987.343 155.628 991.176 158 995.386 160.48C999.812 163.175 1003.81 165.978 1007.37 168.889C1010.93 171.8 1013.74 175.142 1015.79 178.915C1017.84 182.581 1018.87 187.001 1018.87 192.176C1018.87 198.968 1017.35 204.79 1014.33 209.642C1011.31 214.385 1007.04 217.997 1001.54 220.477C996.141 222.956 989.772 224.196 982.431 224.196ZM1033.54 222.255C1032.89 222.255 1032.19 222.094 1031.43 221.77C1030.78 221.339 1030.46 220.8 1030.46 220.153C1030.46 219.291 1030.84 218.644 1031.59 218.213C1032.46 217.781 1033.27 217.458 1034.02 217.242C1036.61 216.703 1038.77 215.949 1040.5 214.978C1042.23 213.9 1043.09 212.067 1043.09 209.48V163.714C1043.09 160.803 1042.5 158.539 1041.31 156.922C1040.12 155.305 1037.91 154.227 1034.67 153.688C1033.81 153.472 1033 153.095 1032.24 152.556C1031.59 152.017 1031.27 151.37 1031.27 150.615C1031.27 149.968 1031.59 149.483 1032.24 149.16C1033 148.728 1033.7 148.513 1034.35 148.513C1036.18 148.513 1037.91 148.567 1039.53 148.675C1041.15 148.782 1042.77 148.944 1044.39 149.16C1046.01 149.267 1047.57 149.321 1049.08 149.321C1052.86 149.321 1056.75 149.321 1060.74 149.321C1064.74 149.214 1068.57 149.16 1072.24 149.16C1075.91 149.052 1079.15 148.998 1081.95 148.998C1084.87 148.89 1087.03 148.836 1088.43 148.836C1088.86 148.836 1089.35 148.944 1089.89 149.16C1090.54 149.375 1090.86 149.807 1090.86 150.453C1090.97 154.011 1091.29 157.084 1091.83 159.671C1092.37 162.151 1092.64 164.091 1092.64 165.493C1092.64 165.924 1092.48 166.409 1092.16 166.948C1091.94 167.488 1091.67 167.757 1091.35 167.757C1090.91 167.757 1090.37 167.541 1089.73 167.11C1089.08 166.679 1088.54 165.978 1088.11 165.008C1086.81 161.881 1085.46 159.402 1084.06 157.569C1082.76 155.628 1080.55 154.658 1077.42 154.658H1064.14C1063.17 154.658 1062.14 154.981 1061.06 155.628C1060.09 156.167 1059.61 157.138 1059.61 158.539V178.754C1059.61 179.508 1059.82 180.317 1060.26 181.18C1060.69 181.934 1061.23 182.312 1061.87 182.312H1072.89C1074.61 182.312 1075.91 181.772 1076.77 180.694C1077.74 179.508 1078.61 177.783 1079.36 175.519C1079.69 174.873 1080.06 174.334 1080.5 173.902C1080.93 173.363 1081.41 173.094 1081.95 173.094C1082.49 173.094 1082.93 173.363 1083.25 173.902C1083.68 174.334 1083.84 174.926 1083.73 175.681C1083.52 177.298 1083.36 178.915 1083.25 180.533C1083.14 182.15 1083.09 183.659 1083.09 185.061C1083.09 186.678 1083.14 188.187 1083.25 189.589C1083.46 190.883 1083.63 192.446 1083.73 194.279C1083.84 195.033 1083.73 195.788 1083.41 196.543C1083.2 197.189 1082.82 197.513 1082.28 197.513C1081.41 197.513 1080.77 197.082 1080.33 196.219C1079.9 195.249 1079.58 194.494 1079.36 193.955C1078.82 191.799 1078.01 190.343 1076.93 189.589C1075.96 188.834 1074.88 188.403 1073.7 188.295C1072.18 188.079 1070.4 187.972 1068.35 187.972C1066.41 187.972 1064.63 187.972 1063.01 187.972C1061.71 187.972 1060.79 188.133 1060.26 188.457C1059.82 188.78 1059.61 189.589 1059.61 190.883V209.48C1059.61 211.96 1059.93 213.577 1060.58 214.331C1061.23 215.086 1062.63 215.463 1064.79 215.463H1079.04C1082.39 215.463 1085.3 214.385 1087.78 212.229C1090.27 210.073 1092.05 207.647 1093.13 204.952C1093.34 204.521 1093.61 204.035 1093.94 203.496C1094.37 202.85 1094.91 202.526 1095.56 202.526C1096.2 202.526 1096.64 202.85 1096.85 203.496C1097.07 204.035 1097.17 204.628 1097.17 205.275C1097.07 207.539 1096.69 209.911 1096.04 212.391C1095.5 214.87 1094.85 217.296 1094.1 219.668C1093.99 220.315 1093.61 220.908 1092.96 221.447C1092.32 221.878 1091.62 222.094 1090.86 222.094C1087.84 222.094 1084.6 222.04 1081.14 221.932C1077.69 221.932 1074.18 221.878 1070.62 221.77C1067.16 221.77 1063.66 221.716 1060.09 221.609C1056.64 221.501 1053.35 221.447 1050.22 221.447C1048.38 221.447 1046.49 221.555 1044.55 221.77C1042.71 221.878 1040.88 221.986 1039.04 222.094C1037.21 222.202 1035.37 222.255 1033.54 222.255ZM1111.97 222.255C1111.32 222.255 1110.62 222.094 1109.87 221.77C1109.22 221.339 1108.89 220.8 1108.89 220.153C1108.89 219.291 1109.27 218.644 1110.03 218.213C1110.89 217.781 1111.7 217.458 1112.46 217.242C1115.05 216.703 1117.21 215.949 1118.93 214.978C1120.66 213.9 1121.52 212.067 1121.52 209.48V163.714C1121.52 160.803 1120.93 158.539 1119.74 156.922C1118.56 155.305 1116.34 154.227 1113.1 153.688C1112.24 153.472 1111.43 153.095 1110.68 152.556C1110.03 152.017 1109.7 151.37 1109.7 150.615C1109.7 149.968 1110.03 149.483 1110.68 149.16C1111.43 148.728 1112.13 148.513 1112.78 148.513C1114.62 148.513 1116.34 148.567 1117.96 148.675C1119.58 148.782 1121.2 148.944 1122.82 149.16C1124.44 149.267 1126 149.321 1127.52 149.321C1131.29 149.321 1135.18 149.321 1139.18 149.321C1143.17 149.214 1147 149.16 1150.67 149.16C1154.34 149.052 1157.58 148.998 1160.39 148.998C1163.3 148.89 1165.46 148.836 1166.86 148.836C1167.3 148.836 1167.78 148.944 1168.32 149.16C1168.97 149.375 1169.29 149.807 1169.29 150.453C1169.4 154.011 1169.73 157.084 1170.27 159.671C1170.81 162.151 1171.07 164.091 1171.07 165.493C1171.07 165.924 1170.91 166.409 1170.59 166.948C1170.37 167.488 1170.1 167.757 1169.78 167.757C1169.35 167.757 1168.81 167.541 1168.16 167.11C1167.51 166.679 1166.97 165.978 1166.54 165.008C1165.25 161.881 1163.9 159.402 1162.49 157.569C1161.2 155.628 1158.98 154.658 1155.85 154.658H1142.58C1141.6 154.658 1140.58 154.981 1139.5 155.628C1138.53 156.167 1138.04 157.138 1138.04 158.539V178.754C1138.04 179.508 1138.26 180.317 1138.69 181.18C1139.12 181.934 1139.66 182.312 1140.31 182.312H1151.32C1153.05 182.312 1154.34 181.772 1155.21 180.694C1156.18 179.508 1157.04 177.783 1157.8 175.519C1158.12 174.873 1158.5 174.334 1158.93 173.902C1159.36 173.363 1159.85 173.094 1160.39 173.094C1160.93 173.094 1161.36 173.363 1161.68 173.902C1162.11 174.334 1162.28 174.926 1162.17 175.681C1161.95 177.298 1161.79 178.915 1161.68 180.533C1161.58 182.15 1161.52 183.659 1161.52 185.061C1161.52 186.678 1161.58 188.187 1161.68 189.589C1161.9 190.883 1162.06 192.446 1162.17 194.279C1162.28 195.033 1162.17 195.788 1161.85 196.543C1161.63 197.189 1161.25 197.513 1160.71 197.513C1159.85 197.513 1159.2 197.082 1158.77 196.219C1158.34 195.249 1158.01 194.494 1157.8 193.955C1157.26 191.799 1156.45 190.343 1155.37 189.589C1154.4 188.834 1153.32 188.403 1152.13 188.295C1150.62 188.079 1148.84 187.972 1146.79 187.972C1144.84 187.972 1143.06 187.972 1141.44 187.972C1140.15 187.972 1139.23 188.133 1138.69 188.457C1138.26 188.78 1138.04 189.589 1138.04 190.883V209.48C1138.04 211.96 1138.37 213.577 1139.01 214.331C1139.66 215.086 1141.06 215.463 1143.22 215.463H1157.47C1160.82 215.463 1163.73 214.385 1166.22 212.229C1168.7 210.073 1170.48 207.647 1171.56 204.952C1171.78 204.521 1172.05 204.035 1172.37 203.496C1172.8 202.85 1173.34 202.526 1173.99 202.526C1174.64 202.526 1175.07 202.85 1175.29 203.496C1175.5 204.035 1175.61 204.628 1175.61 205.275C1175.5 207.539 1175.12 209.911 1174.48 212.391C1173.94 214.87 1173.29 217.296 1172.53 219.668C1172.42 220.315 1172.05 220.908 1171.4 221.447C1170.75 221.878 1170.05 222.094 1169.29 222.094C1166.27 222.094 1163.03 222.04 1159.58 221.932C1156.12 221.932 1152.62 221.878 1149.05 221.77C1145.6 221.77 1142.09 221.716 1138.53 221.609C1135.07 221.501 1131.78 221.447 1128.65 221.447C1126.81 221.447 1124.93 221.555 1122.98 221.77C1121.15 221.878 1119.31 221.986 1117.48 222.094C1115.64 222.202 1113.81 222.255 1111.97 222.255Z" fill="#FEFBF7"/>
<path d="M381.226 278.275C381.226 275.516 381.843 273.051 383.076 270.881C384.337 268.684 386.041 266.983 388.187 265.777C390.359 264.545 392.787 263.929 395.469 263.929C398.608 263.929 401.357 264.733 403.718 266.34C406.078 267.947 407.728 270.171 408.667 273.01H402.189C401.545 271.671 400.633 270.666 399.453 269.997C398.299 269.327 396.958 268.992 395.429 268.992C393.793 268.992 392.331 269.38 391.043 270.157C389.783 270.907 388.79 271.979 388.066 273.372C387.368 274.765 387.02 276.4 387.02 278.275C387.02 280.123 387.368 281.757 388.066 283.177C388.79 284.57 389.783 285.655 391.043 286.432C392.331 287.182 393.793 287.557 395.429 287.557C396.958 287.557 398.299 287.222 399.453 286.552C400.633 285.856 401.545 284.838 402.189 283.498H408.667C407.728 286.365 406.078 288.602 403.718 290.209C401.384 291.79 398.635 292.58 395.469 292.58C392.787 292.58 390.359 291.977 388.187 290.772C386.041 289.54 384.337 287.838 383.076 285.668C381.843 283.499 381.226 281.034 381.226 278.275ZM434.723 286.995H423.538L421.687 292.339H415.772L425.871 264.25H432.43L442.529 292.339H436.574L434.723 286.995ZM433.194 282.494L429.131 270.76L425.067 282.494H433.194ZM469.441 264.291V268.831H461.956V292.339H456.323V268.831H448.839V264.291H469.441ZM500.872 264.291V292.339H495.238V280.404H483.208V292.339H477.574V264.291H483.208V275.823H495.238V264.291H500.872ZM523.477 292.62C520.848 292.62 518.433 292.004 516.234 290.772C514.034 289.54 512.291 287.838 511.003 285.668C509.716 283.472 509.072 280.993 509.072 278.234C509.072 275.502 509.716 273.051 511.003 270.881C512.291 268.684 514.034 266.969 516.234 265.737C518.433 264.505 520.848 263.889 523.477 263.889C526.132 263.889 528.547 264.505 530.719 265.737C532.919 266.969 534.649 268.684 535.91 270.881C537.197 273.051 537.841 275.502 537.841 278.234C537.841 280.993 537.197 283.472 535.91 285.668C534.649 287.838 532.919 289.54 530.719 290.772C528.519 292.004 526.105 292.62 523.477 292.62ZM523.477 287.597C525.167 287.597 526.655 287.222 527.943 286.472C529.231 285.695 530.236 284.597 530.961 283.177C531.685 281.757 532.047 280.109 532.047 278.234C532.047 276.359 531.685 274.725 530.961 273.332C530.236 271.912 529.231 270.827 527.943 270.077C526.655 269.327 525.167 268.952 523.477 268.952C521.787 268.952 520.284 269.327 518.97 270.077C517.683 270.827 516.677 271.912 515.952 273.332C515.228 274.725 514.866 276.359 514.866 278.234C514.866 280.109 515.228 281.757 515.952 283.177C516.677 284.597 517.683 285.695 518.97 286.472C520.284 287.222 521.787 287.597 523.477 287.597ZM551.689 287.879H560.943V292.339H546.055V264.291H551.689V287.879ZM574.18 264.291V292.339H568.547V264.291H574.18ZM582.401 278.275C582.401 275.516 583.018 273.051 584.252 270.881C585.513 268.684 587.217 266.983 589.362 265.777C591.535 264.545 593.963 263.929 596.645 263.929C599.783 263.929 602.533 264.733 604.893 266.34C607.254 267.947 608.904 270.171 609.842 273.01H603.364C602.72 271.671 601.809 270.666 600.628 269.997C599.475 269.327 598.133 268.992 596.604 268.992C594.969 268.992 593.506 269.38 592.219 270.157C590.959 270.907 589.965 271.979 589.241 273.372C588.544 274.765 588.195 276.4 588.195 278.275C588.195 280.123 588.544 281.757 589.241 283.177C589.965 284.57 590.959 285.655 592.219 286.432C593.506 287.182 594.969 287.557 596.604 287.557C598.133 287.557 599.475 287.222 600.628 286.552C601.809 285.856 602.72 284.838 603.364 283.498H609.842C608.904 286.365 607.254 288.602 604.893 290.209C602.56 291.79 599.811 292.58 596.645 292.58C593.963 292.58 591.535 291.977 589.362 290.772C587.217 289.54 585.513 287.838 584.252 285.668C583.018 283.499 582.401 281.034 582.401 278.275ZM649.632 264.291V268.831H637.923V276.024H646.895V280.485H637.923V292.339H632.29V264.291H649.632ZM670.686 292.62C668.057 292.62 665.643 292.004 663.444 290.772C661.244 289.54 659.5 287.838 658.213 285.668C656.925 283.472 656.281 280.993 656.281 278.234C656.281 275.502 656.925 273.051 658.213 270.881C659.5 268.684 661.244 266.969 663.444 265.737C665.643 264.505 668.057 263.889 670.686 263.889C673.342 263.889 675.756 264.505 677.929 265.737C680.128 266.969 681.858 268.684 683.119 270.881C684.407 273.051 685.051 275.502 685.051 278.234C685.051 280.993 684.407 283.472 683.119 285.668C681.858 287.838 680.128 289.54 677.929 290.772C675.73 292.004 673.315 292.62 670.686 292.62ZM670.686 287.597C672.376 287.597 673.865 287.222 675.152 286.472C676.44 285.695 677.446 284.597 678.17 283.177C678.894 281.757 679.257 280.109 679.257 278.234C679.257 276.359 678.894 274.725 678.17 273.332C677.446 271.912 676.44 270.827 675.152 270.077C673.865 269.327 672.376 268.952 670.686 268.952C668.996 268.952 667.494 269.327 666.18 270.077C664.892 270.827 663.886 271.912 663.162 273.332C662.438 274.725 662.075 276.359 662.075 278.234C662.075 280.109 662.438 281.757 663.162 283.177C663.886 284.597 664.892 285.695 666.18 286.472C667.494 287.222 668.996 287.597 670.686 287.597ZM707.75 292.339L701.554 281.409H698.898V292.339H693.265V264.291H703.807C705.98 264.291 707.831 264.679 709.36 265.456C710.889 266.206 712.029 267.238 712.78 268.55C713.558 269.836 713.947 271.283 713.947 272.89C713.947 274.738 713.411 276.412 712.337 277.913C711.264 279.386 709.669 280.404 707.549 280.967L714.268 292.339H707.75ZM698.898 277.19H703.606C705.135 277.19 706.275 276.828 707.026 276.105C707.778 275.355 708.152 274.323 708.152 273.01C708.152 271.725 707.778 270.734 707.026 270.037C706.275 269.314 705.135 268.952 703.606 268.952H698.898V277.19ZM753.686 264.291V292.339H748.053V274.095L740.528 292.339H736.263L728.699 274.095V292.339H723.066V264.291H729.463L738.396 285.146L747.328 264.291H753.686ZM780.5 286.995H769.314L767.463 292.339H761.549L771.648 264.25H778.207L788.306 292.339H782.351L780.5 286.995ZM778.971 282.494L774.907 270.76L770.843 282.494H778.971ZM815.216 264.291V268.831H807.732V292.339H802.099V268.831H794.615V264.291H815.216ZM828.984 264.291V292.339H823.351V264.291H828.984ZM851.61 292.62C848.981 292.62 846.567 292.004 844.367 290.772C842.167 289.54 840.424 287.838 839.137 285.668C837.849 283.472 837.205 280.993 837.205 278.234C837.205 275.502 837.849 273.051 839.137 270.881C840.424 268.684 842.167 266.969 844.367 265.737C846.567 264.505 848.981 263.889 851.61 263.889C854.266 263.889 856.68 264.505 858.853 265.737C861.052 266.969 862.782 268.684 864.043 270.881C865.331 273.051 865.975 275.502 865.975 278.234C865.975 280.993 865.331 283.472 864.043 285.668C862.782 287.838 861.052 289.54 858.853 290.772C856.652 292.004 854.238 292.62 851.61 292.62ZM851.61 287.597C853.3 287.597 854.789 287.222 856.076 286.472C857.364 285.695 858.37 284.597 859.094 283.177C859.818 281.757 860.18 280.109 860.18 278.234C860.18 276.359 859.818 274.725 859.094 273.332C858.37 271.912 857.364 270.827 856.076 270.077C854.789 269.327 853.3 268.952 851.61 268.952C849.92 268.952 848.418 269.327 847.104 270.077C845.816 270.827 844.81 271.912 844.086 273.332C843.362 274.725 842.999 276.359 842.999 278.234C842.999 280.109 843.362 281.757 844.086 283.177C844.81 284.597 845.816 285.695 847.104 286.472C848.418 287.222 849.92 287.597 851.61 287.597ZM898.21 292.339H892.577L879.822 273.091V292.339H874.189V264.25H879.822L892.577 283.539V264.25H898.21V292.339ZM952.032 264.291V292.339H946.399V274.095L938.875 292.339H934.61L927.045 274.095V292.339H921.412V264.291H927.81L936.742 285.146L945.675 264.291H952.032ZM967.258 264.291V292.339H961.625V264.291H967.258ZM1000.87 292.339H995.236L982.481 273.091V292.339H976.847V264.25H982.481L995.236 283.539V264.25H1000.87V292.339ZM1016.09 264.291V292.339H1010.46V264.291H1016.09ZM1035.38 292.62C1033.42 292.62 1031.65 292.285 1030.07 291.616C1028.51 290.946 1027.28 289.982 1026.37 288.722C1025.45 287.463 1024.98 285.976 1024.96 284.262H1030.99C1031.07 285.414 1031.48 286.325 1032.2 286.995C1032.95 287.664 1033.97 287.999 1035.26 287.999C1036.57 287.999 1037.6 287.691 1038.36 287.075C1039.11 286.432 1039.48 285.602 1039.48 284.583C1039.48 283.753 1039.23 283.07 1038.72 282.534C1038.21 281.998 1037.56 281.583 1036.79 281.288C1036.04 280.967 1034.99 280.619 1033.65 280.244C1031.82 279.707 1030.34 279.185 1029.18 278.676C1028.06 278.14 1027.08 277.35 1026.25 276.306C1025.44 275.234 1025.04 273.814 1025.04 272.046C1025.04 270.385 1025.45 268.938 1026.29 267.706C1027.12 266.474 1028.28 265.536 1029.79 264.893C1031.29 264.224 1033.01 263.889 1034.94 263.889C1037.83 263.889 1040.18 264.598 1041.98 266.018C1043.8 267.411 1044.81 269.367 1045 271.885H1038.8C1038.75 270.921 1038.33 270.131 1037.55 269.514C1036.8 268.872 1035.79 268.55 1034.53 268.55C1033.43 268.55 1032.55 268.831 1031.88 269.394C1031.23 269.956 1030.91 270.774 1030.91 271.845C1030.91 272.595 1031.15 273.225 1031.64 273.734C1032.15 274.216 1032.76 274.618 1033.49 274.939C1034.24 275.234 1035.28 275.582 1036.63 275.984C1038.45 276.52 1039.94 277.055 1041.09 277.591C1042.25 278.128 1043.24 278.931 1044.07 280.002C1044.9 281.074 1045.32 282.48 1045.32 284.222C1045.32 285.722 1044.93 287.115 1044.15 288.401C1043.37 289.687 1042.23 290.718 1040.73 291.495C1039.23 292.245 1037.44 292.62 1035.38 292.62ZM1073.34 264.291V268.831H1065.85V292.339H1060.22V268.831H1052.74V264.291H1073.34ZM1095.96 292.339L1089.76 281.409H1087.1V292.339H1081.47V264.291H1092.01C1094.19 264.291 1096.04 264.679 1097.57 265.456C1099.09 266.206 1100.23 267.238 1100.99 268.55C1101.76 269.836 1102.15 271.283 1102.15 272.89C1102.15 274.738 1101.62 276.412 1100.54 277.913C1099.47 279.386 1097.87 280.404 1095.75 280.967L1102.47 292.339H1095.96ZM1087.1 277.19H1091.81C1093.34 277.19 1094.48 276.828 1095.23 276.105C1095.98 275.355 1096.36 274.323 1096.36 273.01C1096.36 271.725 1095.98 270.734 1095.23 270.037C1094.48 269.314 1093.34 268.952 1091.81 268.952H1087.1V277.19ZM1116.9 264.291V292.339H1111.27V264.291H1116.9ZM1132.13 268.831V275.864H1141.58V280.324H1132.13V287.758H1142.79V292.339H1126.49V264.25H1142.79V268.831H1132.13ZM1161.63 292.62C1159.67 292.62 1157.9 292.285 1156.32 291.616C1154.76 290.946 1153.53 289.982 1152.62 288.722C1151.7 287.463 1151.24 285.976 1151.21 284.262H1157.24C1157.32 285.414 1157.73 286.325 1158.45 286.995C1159.2 287.664 1160.22 287.999 1161.51 287.999C1162.82 287.999 1163.86 287.691 1164.61 287.075C1165.36 286.432 1165.73 285.602 1165.73 284.583C1165.73 283.753 1165.48 283.07 1164.97 282.534C1164.46 281.998 1163.82 281.583 1163.04 281.288C1162.29 280.967 1161.24 280.619 1159.9 280.244C1158.08 279.707 1156.59 279.185 1155.43 278.676C1154.31 278.14 1153.33 277.35 1152.5 276.306C1151.69 275.234 1151.29 273.814 1151.29 272.046C1151.29 270.385 1151.7 268.938 1152.54 267.706C1153.37 266.474 1154.53 265.536 1156.04 264.893C1157.54 264.224 1159.26 263.889 1161.19 263.889C1164.08 263.889 1166.43 264.598 1168.23 266.018C1170.05 267.411 1171.06 269.367 1171.25 271.885H1165.05C1165 270.921 1164.58 270.131 1163.8 269.514C1163.05 268.872 1162.05 268.55 1160.78 268.55C1159.68 268.55 1158.8 268.831 1158.13 269.394C1157.48 269.956 1157.16 270.774 1157.16 271.845C1157.16 272.595 1157.4 273.225 1157.89 273.734C1158.4 274.216 1159.01 274.618 1159.74 274.939C1160.49 275.234 1161.54 275.582 1162.88 275.984C1164.7 276.52 1166.19 277.055 1167.34 277.591C1168.5 278.128 1169.49 278.931 1170.32 280.002C1171.15 281.074 1171.57 282.48 1171.57 284.222C1171.57 285.722 1171.18 287.115 1170.4 288.401C1169.62 289.687 1168.48 290.718 1166.98 291.495C1165.48 292.245 1163.69 292.62 1161.63 292.62Z" fill="#FEFBF7"/>
<path d="M166.984 268.58C184.541 268.58 198.774 254.347 198.774 236.79C198.774 219.233 184.541 205 166.984 205C149.427 205 135.194 219.233 135.194 236.79C135.194 254.347 149.427 268.58 166.984 268.58Z" stroke="#FEFBF7" stroke-width="3" stroke-miterlimit="10"/>
<path d="M151.824 236.789H182.144" stroke="#FEFBF7" stroke-width="3" stroke-miterlimit="10"/>
<path d="M166.984 251.949V221.629" stroke="#FEFBF7" stroke-width="3" stroke-miterlimit="10"/>
<path d="M139.704 299.709C139.484 299.709 139.294 299.569 139.224 299.359C139.154 299.149 139.234 298.929 139.414 298.799L165.934 280.149C166.024 280.089 166.124 280.059 166.224 280.059C166.324 280.059 166.424 280.089 166.504 280.149L193.654 298.799C193.834 298.919 193.914 299.149 193.844 299.359C193.784 299.569 193.584 299.709 193.364 299.709H139.684H139.704Z" fill="#FEFBF7"/>
<path d="M166.225 280.559L193.375 299.209H139.695L166.215 280.559M166.215 279.559C166.015 279.559 165.815 279.619 165.635 279.739L139.115 298.389C138.755 298.639 138.605 299.089 138.735 299.509C138.865 299.929 139.255 300.209 139.685 300.209H193.365C193.805 300.209 194.195 299.919 194.325 299.509C194.455 299.099 194.295 298.639 193.935 298.389L166.785 279.739C166.615 279.619 166.415 279.559 166.215 279.559Z" fill="#FEFBF7"/>
<path d="M166.994 288.518C144.844 288.518 125.274 272.848 120.464 251.258C120.434 251.108 120.464 250.958 120.564 250.838C120.654 250.718 120.804 250.648 120.954 250.648H213.024C213.174 250.648 213.314 250.718 213.414 250.838C213.514 250.958 213.544 251.108 213.514 251.258C208.704 272.848 189.144 288.518 166.994 288.518Z" fill="#FEFBF7"/>
<path d="M213.024 251.148C208.324 272.248 189.504 288.018 166.994 288.018C144.484 288.018 125.654 272.248 120.954 251.148H213.024ZM213.024 250.148H120.954C120.654 250.148 120.364 250.288 120.174 250.518C119.984 250.758 119.914 251.068 119.974 251.358C122.314 261.878 128.244 271.438 136.664 278.268C145.204 285.198 155.974 289.018 166.994 289.018C178.014 289.018 188.784 285.198 197.314 278.268C205.724 271.438 211.654 261.878 213.994 251.358C214.064 251.058 213.994 250.748 213.794 250.518C213.604 250.278 213.314 250.148 213.014 250.148H213.024Z" fill="#FEFBF7"/>
<path d="M228.875 270.08C228.485 270.08 228.115 269.88 227.895 269.55C227.675 269.22 227.635 268.82 227.795 268.45C230.915 260.85 237.985 240.93 236.155 220.13C234.515 201.56 228.825 188.24 225.585 181.95C225.365 181.53 224.955 181.28 224.485 181.28C224.055 181.28 223.485 181.51 223.295 182.17C220.925 190.44 215.875 204.32 208.565 204.33C207.475 204.33 206.365 204.02 205.275 203.39C193.635 196.76 193.965 179.51 198.045 155.67C201.235 137.06 188.845 122.67 183.375 117.34C182.765 116.74 182.465 116.73 182.435 116.73C182.435 116.73 182.235 116.98 182.435 117.95C184.195 126.53 187.355 148.09 178.705 163.03C170.815 176.66 155.685 183.24 141.045 189.6C135.535 192 129.825 194.47 124.745 197.26C107.155 206.91 98.4846 227.84 100.265 242.5C101.345 251.38 104.975 260.32 107.835 266.26C108.765 268.2 108.605 268.86 108.405 269.18C108.245 269.43 107.985 269.57 107.675 269.57C107.135 269.57 106.375 269.12 105.385 268.2C98.2346 261.6 85.6046 247.61 81.4446 228.08C76.0646 202.81 80.5646 181.12 96.9946 153.18C108.095 134.31 117.975 123.69 122.885 119.04C123.175 118.76 123.555 118.61 123.945 118.61C124.395 118.61 124.825 118.81 125.125 119.15C125.435 119.5 125.575 119.96 125.515 120.44C125.095 123.76 126.325 129.52 130.005 134.9C132.975 139.24 138.485 144.67 147.935 145.88C148.145 145.91 148.345 145.92 148.545 145.92C149.655 145.92 150.545 145.49 151.245 144.61C153.405 141.9 154.795 133.63 149.215 109.67C148.975 108.65 148.895 108.29 148.885 108.15C144.875 82.7505 145.535 58.6805 150.855 36.5905C155.165 18.6705 161.465 6.75046 164.845 1.24046C165.135 0.760463 165.615 0.480469 166.155 0.480469C166.585 0.480469 167.005 0.660459 167.295 0.970459C167.605 1.29046 167.755 1.72047 167.735 2.18047C166.975 18.7105 167.165 75.2305 201.385 108.34C201.845 108.77 247.775 152.39 252.895 181.95C258.275 213.01 250.255 241.52 243.945 252.19C239.115 260.35 232.925 266.69 229.665 269.73C229.445 269.94 229.165 270.05 228.875 270.05V270.08Z" fill="#FEFBF7"/>
<path d="M166.155 1C166.715 1 167.275 1.45999 167.235 2.17999C166.515 17.82 166.445 75.26 201.045 108.72C201.045 108.72 247.265 152.32 252.405 182.06C257.555 211.79 250.365 240.38 243.515 251.96C238.735 260.05 232.585 266.34 229.325 269.39C229.185 269.52 229.025 269.58 228.875 269.58C228.445 269.58 228.045 269.14 228.255 268.64C231.225 261.41 238.505 241.15 236.645 220.09C234.995 201.34 229.205 187.9 226.015 181.72C225.685 181.08 225.075 180.78 224.475 180.78C223.755 180.78 223.045 181.21 222.805 182.04C220.715 189.34 215.675 203.83 208.555 203.83C207.575 203.83 206.565 203.56 205.515 202.96C194.205 196.52 194.415 179.8 198.535 155.76C201.765 136.92 189.275 122.39 183.725 116.99C183.205 116.48 182.765 116.24 182.435 116.24C181.915 116.24 181.705 116.88 181.945 118.06C183.635 126.3 186.875 147.92 178.275 162.79C167.455 181.49 142.815 186.79 124.515 196.83C106.215 206.87 98.0447 228.24 99.7847 242.57C100.895 251.75 104.765 261.01 107.405 266.48C108.215 268.17 108.275 269.07 107.695 269.07C107.315 269.07 106.645 268.67 105.735 267.83C98.9847 261.6 86.1247 247.58 81.9447 227.98C76.1847 200.96 82.3347 179.11 97.4347 153.44C108.735 134.23 118.855 123.56 123.235 119.41C123.455 119.2 123.705 119.11 123.955 119.11C124.555 119.11 125.115 119.64 125.025 120.38C124.145 127.43 130.475 144.15 147.875 146.39C148.105 146.42 148.335 146.43 148.545 146.43C159.425 146.43 149.485 109.21 149.385 108.11C149.385 108.09 149.385 108.08 149.385 108.06C140.065 49.05 158.655 12.34 165.285 1.51999C165.505 1.15999 165.835 1 166.165 1M166.165 0C165.455 0 164.805 0.37 164.425 1C161.035 6.53 154.705 18.5 150.375 36.49C145.045 58.65 144.375 82.78 148.395 108.22C148.415 108.39 148.475 108.69 148.735 109.79C154.275 133.56 152.945 141.68 150.855 144.31C150.245 145.08 149.515 145.44 148.545 145.44C148.375 145.44 148.185 145.43 148.005 145.4C138.735 144.21 133.325 138.89 130.425 134.63C126.845 129.38 125.635 123.63 126.025 120.51C126.105 119.88 125.925 119.28 125.515 118.82C125.115 118.37 124.555 118.11 123.965 118.11C123.445 118.11 122.945 118.31 122.555 118.68C117.635 123.35 107.705 134 96.5747 152.93C80.0747 180.98 75.5547 202.79 80.9747 228.19C85.1647 247.86 97.8647 261.93 105.065 268.57C106.505 269.9 107.235 270.07 107.695 270.07C108.155 270.07 108.595 269.84 108.845 269.45C109.275 268.77 109.105 267.72 108.305 266.05C105.465 260.15 101.855 251.26 100.785 242.45C99.0247 227.96 107.605 207.26 125.005 197.71C130.065 194.93 135.505 192.57 141.265 190.07C155.975 183.68 171.185 177.07 179.155 163.29C187.885 148.2 184.715 126.49 182.935 117.86C182.915 117.75 182.895 117.66 182.885 117.57C182.925 117.61 182.975 117.65 183.025 117.7C188.445 122.97 200.695 137.2 197.545 155.58C195.185 169.38 194.475 178.78 195.245 186.06C196.165 194.79 199.365 200.6 205.025 203.83C206.195 204.49 207.385 204.83 208.555 204.83C216.185 204.83 221.365 190.72 223.765 182.31C223.875 181.92 224.205 181.78 224.475 181.78C224.645 181.78 224.945 181.83 225.125 182.18C228.355 188.44 234.015 201.7 235.645 220.18C237.465 240.87 230.435 260.7 227.325 268.26C227.105 268.79 227.165 269.36 227.475 269.83C227.795 270.3 228.315 270.58 228.875 270.58C229.295 270.58 229.695 270.42 230.005 270.13C233.285 267.06 239.525 260.69 244.375 252.48C250.725 241.75 258.785 213.09 253.385 181.9C251.225 169.39 241.855 153.15 225.555 133.61C213.455 119.11 201.835 108.11 201.725 108.01C193.115 99.68 165.245 67.43 168.235 2.23999C168.265 1.63999 168.055 1.07999 167.655 0.659988C167.265 0.249988 166.715 0.00999451 166.155 0.00999451L166.165 0Z" fill="#FEFBF7"/>
<path d="M290.785 338.921L178.675 354.471C178.675 355.491 177.515 356.311 176.085 356.311H157.905C156.465 356.311 155.305 355.481 155.305 354.461L43.1846 338.921L49.5746 320.871C49.5746 320.871 61.3346 325.091 70.1046 325.131C78.2246 325.171 105.665 320.861 124.715 322.351C153.615 324.611 167.005 341.261 167.005 341.261V341.311C167.005 341.311 167.015 341.301 167.035 341.271C167.745 340.421 181.185 324.851 209.295 322.681C228.345 321.211 255.785 325.461 263.905 325.421C272.675 325.381 284.435 321.231 284.435 321.231L290.785 338.921Z" fill="#FEFBF7" stroke="#FEFBF7" stroke-linecap="round" stroke-linejoin="round"/>
<path d="M167.004 340.821V310.031" stroke="#FEFBF7" stroke-miterlimit="10" stroke-linecap="round"/>
<path d="M120.974 282.581C119.574 282.731 118.234 282.901 116.964 283.081C103.424 284.981 89.5742 279.371 89.5742 279.371L49.5742 320.871" stroke="#FEFBF7" stroke-linecap="round" stroke-linejoin="round"/>
<path d="M213.044 282.581C214.444 282.731 215.784 282.901 217.054 283.081C230.594 284.981 244.444 279.371 244.444 279.371L284.444 321.231" stroke="#FEFBF7" stroke-linecap="round" stroke-linejoin="round"/>
<path d="M179.684 317.821C180.454 317.211 181.324 316.801 182.164 316.391C188.904 313.081 196.414 311.221 204.474 310.411C212.034 309.651 219.514 310.151 226.974 311.061C232.404 311.721 237.824 312.471 243.294 312.951C248.804 313.431 254.174 313.031 259.374 311.601C259.774 311.491 260.174 311.381 260.574 311.271C260.994 311.151 261.284 311.251 261.454 311.541C261.504 311.621 261.534 311.711 261.574 311.791C262.834 314.131 263.074 313.531 260.074 314.321C253.964 315.941 247.664 316.251 241.244 315.511C234.414 314.721 227.594 313.861 220.744 313.181C209.074 312.031 197.904 313.131 187.474 317.241C185.974 317.831 184.494 318.471 183.194 319.271C182.374 319.771 181.874 319.661 181.284 319.121C180.814 318.681 180.244 318.291 179.674 317.831L179.684 317.821Z" fill="#FEFBF7" stroke="#FEFBF7" stroke-miterlimit="10"/>
<path d="M149.705 319.732C146.375 317.852 142.705 316.382 138.735 315.282C130.815 313.082 122.605 312.372 114.165 312.942C107.075 313.422 100.095 314.432 93.0846 315.292C85.4946 316.212 78.0646 316.112 70.8246 314.062C69.3646 313.652 69.3546 313.662 69.9346 312.602C70.7246 311.132 70.7446 311.102 72.8146 311.662C78.9646 313.322 85.2646 313.402 91.6646 312.662C98.6846 311.852 105.655 310.802 112.735 310.292C125.345 309.382 137.305 310.832 148.235 315.642C149.385 316.142 150.435 316.752 151.545 317.292C152.165 317.592 152.385 317.892 151.715 318.312C151.025 318.742 150.545 319.322 149.695 319.722L149.705 319.732Z" fill="#FEFBF7" stroke="#FEFBF7" stroke-miterlimit="10"/>
<path d="M218.094 301.191C222.164 301.091 225.974 301.781 229.794 302.421C234.164 303.151 238.554 303.701 243.084 303.341C245.894 303.121 248.644 302.701 251.344 302.121C252.554 301.861 252.614 301.871 253.014 302.751C253.924 304.771 254.344 304.301 251.434 304.941C243.894 306.591 236.344 306.481 228.764 305.061C225.204 304.401 221.614 303.841 217.894 303.861C215.674 303.871 213.494 304.121 211.354 304.501C210.764 304.611 210.474 304.551 210.304 304.091C209.334 301.501 209.044 302.101 212.334 301.541C214.244 301.211 216.214 301.111 218.084 301.181L218.094 301.191Z" fill="#FEFBF7" stroke="#FEFBF7" stroke-miterlimit="10"/>
<path d="M122.334 302.468C122.104 303.048 121.874 303.688 121.584 304.308C121.384 304.738 120.914 304.528 120.514 304.468C118.114 304.088 115.694 303.818 113.224 303.868C109.894 303.938 106.674 304.478 103.444 305.008C99.5543 305.658 95.6643 306.238 91.6443 306.188C87.3843 306.138 83.2543 305.528 79.1843 304.678C78.2343 304.478 78.2643 304.198 78.5143 303.648C79.3543 301.868 79.3443 301.828 81.8243 302.358C88.6543 303.818 95.4743 303.678 102.324 302.388C106.424 301.618 110.564 301.048 114.844 301.158C117.064 301.218 119.234 301.448 121.394 301.798C121.834 301.868 122.434 301.888 122.324 302.458L122.334 302.468Z" fill="#FEFBF7" stroke="#FEFBF7" stroke-miterlimit="10"/>
<path d="M98.1439 296.372C93.9839 296.592 89.7739 295.582 87.9739 295.072C87.4739 294.932 87.2539 294.522 87.4739 294.172L88.3739 292.792C88.5839 292.472 89.0939 292.322 89.5539 292.452C91.2439 292.922 95.3239 293.892 98.8439 293.442C101.194 293.142 103.004 292.772 104.754 292.402C108.264 291.672 111.314 291.042 116.384 291.622C116.804 291.672 117.084 291.962 117.004 292.252L116.554 293.992C116.474 294.282 116.084 294.472 115.674 294.422C111.534 293.962 109.124 294.462 105.874 295.132C104.104 295.502 102.104 295.912 99.5439 296.242C99.0839 296.302 98.6139 296.342 98.1439 296.362V296.372Z" fill="#FEFBF7" stroke="#FEFBF7" stroke-miterlimit="10"/>
<path d="M233.884 296.372C238.044 296.592 242.254 295.582 244.054 295.072C244.554 294.932 244.774 294.522 244.554 294.172L243.654 292.792C243.444 292.472 242.934 292.322 242.474 292.452C240.784 292.922 236.704 293.892 233.184 293.442C230.834 293.142 229.024 292.772 227.274 292.402C223.764 291.672 220.714 291.042 215.644 291.622C215.224 291.672 214.944 291.962 215.024 292.252L215.474 293.992C215.554 294.282 215.944 294.472 216.354 294.422C220.494 293.962 222.904 294.462 226.154 295.132C227.924 295.502 229.924 295.912 232.484 296.242C232.944 296.302 233.414 296.342 233.884 296.362V296.372Z" fill="#FEFBF7" stroke="#FEFBF7" stroke-miterlimit="10"/>
<path d="M155.834 343.179C147.614 337.639 138.204 333.929 128.574 331.779C120.114 330.099 111.494 329.369 102.904 328.809C98.004 328.529 97.704 328.329 102.834 327.439C116.674 324.919 130.854 328.959 143.314 334.859C147.814 337.129 152.174 339.709 156.024 342.949L155.834 343.179Z" fill="#FEFAF7"/>
<path d="M148.424 344.691C143.424 343.171 138.204 342.421 133.004 342.121C127.764 341.981 122.574 342.151 117.334 341.641L117.314 341.441C125.024 338.901 133.254 340.221 140.974 341.981C143.534 342.651 146.084 343.411 148.494 344.511L148.414 344.691H148.424Z" fill="#FEFAF7"/>
<path d="M151.404 343.14C138.164 335.71 120.144 335.4 105.294 336.17C93.3542 336.92 81.3442 335.75 69.7442 332.91C65.8842 331.97 62.0542 330.9 58.3242 329.53L58.3842 329.34C60.3242 329.75 62.2542 330.16 64.1942 330.51C77.7142 333 91.4542 334.83 105.214 334.55C117.064 334.17 129.244 334.72 140.644 338.18C144.424 339.38 148.204 340.75 151.524 342.97L151.404 343.13V343.14Z" fill="#FEFAF7"/>
<path d="M177.994 343.421C185.804 337.031 195.174 332.701 204.854 329.921C214.554 326.921 225.004 326.161 234.914 328.661L234.884 328.961C233.614 329.111 232.364 329.191 231.124 329.281C222.524 329.841 213.904 330.571 205.454 332.251C195.824 334.411 186.414 338.121 178.194 343.651L178.004 343.421H177.994Z" fill="#FEFAF7"/>
<path d="M185.524 344.97C190.384 342.84 195.624 341.69 200.874 340.99C206.144 340.18 211.584 340.22 216.704 341.9L216.684 342.1C215.344 342.27 214.034 342.29 212.724 342.35C208.814 342.58 204.924 342.45 201.024 342.58C195.824 342.89 190.604 343.63 185.604 345.15L185.524 344.97Z" fill="#FEFAF7"/>
<path d="M182.504 343.449C195.874 335.379 213.544 334.639 228.814 335.019C242.574 335.289 256.314 333.469 269.834 330.979C271.784 330.629 273.714 330.219 275.644 329.809L275.704 329.999C271.974 331.369 268.144 332.439 264.284 333.379C252.674 336.219 240.674 337.389 228.734 336.639C213.234 335.719 196.314 336.489 182.504 343.449Z" fill="#FEFAF7"/>
<path d="M242.125 78.9906C246.532 78.9906 250.105 75.3865 250.105 70.9406C250.105 66.4947 246.532 62.8906 242.125 62.8906C237.717 62.8906 234.145 66.4947 234.145 70.9406C234.145 75.3865 237.717 78.9906 242.125 78.9906Z" fill="#FEFBF7"/>
<path d="M280.374 86.341C281.784 85.941 282.384 84.261 281.554 83.051C278.324 78.331 277.084 78.491 272.284 81.671C266.734 85.341 236.244 91.241 220.404 65.681C206.574 43.371 208.034 41.931 200.114 42.151C192.194 42.371 203.904 55.051 210.334 73.881C220.164 102.701 204.194 110.761 210.294 115.371C221.154 123.591 226.244 126.631 232.164 119.231C232.164 119.231 236.724 104.161 257.714 94.801C268.564 89.961 276.434 87.451 280.364 86.331L280.374 86.341Z" fill="url(#paint0_linear_4391_289)"/>
<path d="M266.251 113.777C268.129 109.748 266.415 104.972 262.42 103.109C258.426 101.246 253.665 103.003 251.786 107.032C249.907 111.062 251.622 115.838 255.616 117.701C259.61 119.563 264.372 117.807 266.251 113.777Z" fill="#FEFBF7"/>
<path d="M246.714 162.819C246.714 162.819 242.074 126.009 249.574 122.439C257.074 118.869 257.074 122.799 263.854 122.439C270.634 122.079 272.064 123.509 272.064 129.939C272.064 136.369 275.274 164.809 267.784 164.329C260.284 163.849 250.654 168.219 246.724 162.819H246.714Z" fill="url(#paint1_linear_4391_289)"/>
<path d="M307.755 161.578C309.634 157.549 307.919 152.772 303.925 150.91C299.931 149.047 295.17 150.804 293.291 154.833C291.412 158.862 293.127 163.639 297.121 165.501C301.115 167.364 305.876 165.607 307.755 161.578Z" fill="#FEFBF7"/>
<path d="M290.774 132.76C290.774 132.76 281.944 165.18 291.844 169.46C301.754 173.74 311.444 168.93 314.064 163.84C318.614 155.01 312.194 125.02 315.404 123.95C318.614 122.88 321.024 120.47 322.094 123.95C323.164 127.43 321.864 162.99 318.724 188.5C316.384 207.48 317.504 213.51 311.344 214.05C305.184 214.59 289.084 215.32 287.744 209C286.404 202.69 272.834 133.59 280.604 127.7C288.364 121.81 291.864 129.63 290.774 132.76Z" fill="url(#paint2_linear_4391_289)"/>
<path d="M284.718 219.309C288.712 217.446 290.427 212.67 288.548 208.641C286.669 204.611 281.908 202.855 277.914 204.717C273.92 206.58 272.205 211.356 274.084 215.386C275.963 219.415 280.724 221.171 284.718 219.309Z" fill="#FEFBF7"/>
<path d="M299.054 190.041C299.054 190.041 298.514 219.941 288.344 222.931C278.174 225.921 266.924 216.811 265.324 225.381C263.714 233.951 267.464 264.021 269.604 266.651C271.744 269.281 288.344 272.581 290.484 266.651C292.624 260.721 313.504 187.181 306.194 186.641C298.874 186.101 299.154 187.521 299.054 190.031V190.041Z" fill="url(#paint3_linear_4391_289)"/>
<path d="M44.8338 88.3186C44.8338 88.3186 45.3738 118.219 55.5438 121.209C65.7138 124.199 76.9638 115.089 78.5638 123.659C80.1738 132.229 76.4238 162.299 74.2838 164.929C72.1438 167.559 55.5438 170.859 53.4038 164.929C51.2638 158.999 30.3838 85.4587 37.6938 84.9187C45.0138 84.3787 44.7338 85.7987 44.8338 88.3087V88.3186Z" fill="url(#paint4_linear_4391_289)"/>
<path d="M49.7252 169.092C50.2393 164.676 47.1072 160.683 42.7295 160.173C38.3519 159.663 34.3863 162.83 33.8722 167.246C33.3582 171.662 36.4902 175.655 40.8679 176.165C45.2456 176.675 49.2111 173.508 49.7252 169.092Z" fill="#FEFBF7"/>
<path d="M1.33437 179.328C-0.0356324 178.758 -0.43562 177.018 0.53438 175.898C4.32438 171.548 5.54437 171.858 9.97437 175.598C15.0944 179.918 44.9344 189.378 63.7644 165.638C80.2044 144.918 78.9144 143.308 86.8144 144.448C94.7144 145.588 81.5244 156.918 72.8944 175.018C59.6944 202.718 74.7444 212.648 68.0944 216.558C56.2644 223.518 50.8144 225.978 45.7444 217.878C45.7444 217.878 42.9344 202.258 23.0044 190.448C12.7044 184.338 5.12438 180.908 1.31438 179.328H1.33437Z" fill="url(#paint5_linear_4391_289)"/>
<path d="M65.5787 211.062C67.4576 207.033 65.7427 202.257 61.7484 200.394C57.7541 198.532 52.9929 200.288 51.114 204.318C49.2351 208.347 50.95 213.123 54.9443 214.986C58.9386 216.848 63.6998 215.092 65.5787 211.062Z" fill="#FEFBF7"/>
<path d="M109.617 81.6016C111.496 77.5722 109.781 72.7959 105.786 70.9333C101.792 69.0707 97.031 70.8272 95.1521 74.8566C93.2732 78.8859 94.988 83.6623 98.9823 85.5248C102.977 87.3874 107.738 85.6309 109.617 81.6016Z" fill="#FEFBF7"/>
<path d="M92.6342 52.7792C92.6342 52.7792 83.8042 85.1992 93.7042 89.4792C103.604 93.7592 113.304 88.9492 115.924 83.8592C120.474 75.0292 114.054 45.0392 117.264 43.9692C120.474 42.8992 122.884 40.4892 123.954 43.9692C125.024 47.4492 123.724 83.0092 120.584 108.519C118.244 127.499 119.364 133.529 113.204 134.069C107.044 134.609 90.9442 135.339 89.6042 129.019C88.2642 122.709 74.6942 53.6092 82.4642 47.7192C90.2342 41.8292 93.7242 49.6492 92.6342 52.7792Z" fill="url(#paint6_linear_4391_289)"/>
<path d="M46.0442 260.12C46.0442 260.12 41.4042 223.31 48.9042 219.74C56.4042 216.17 56.4042 220.1 63.1842 219.74C69.9642 219.38 71.3942 220.81 71.3942 227.24C71.3942 233.67 74.6041 262.11 67.1141 261.63C59.6141 261.15 49.9841 265.52 46.0541 260.12H46.0442Z" fill="url(#paint7_linear_4391_289)"/>
<path d="M69.815 113.633C71.6939 109.603 69.979 104.827 65.9847 102.965C61.9904 101.102 57.2292 102.858 55.3503 106.888C53.4714 110.917 55.1863 115.694 59.1806 117.556C63.1749 119.419 67.9361 117.662 69.815 113.633Z" fill="#FEFBF7"/>
<defs>
<linearGradient id="paint0_linear_4391_289" x1="214.101" y1="119.069" x2="241.766" y2="59.7422" gradientUnits="userSpaceOnUse">
<stop stop-color="white" stop-opacity="0"/>
<stop offset="0.84" stop-color="#FEFBF7"/>
</linearGradient>
<linearGradient id="paint1_linear_4391_289" x1="259.024" y1="165.549" x2="259.024" y2="120.929" gradientUnits="userSpaceOnUse">
<stop stop-color="white" stop-opacity="0"/>
<stop offset="0.84" stop-color="#FEFBF7"/>
</linearGradient>
<linearGradient id="paint2_linear_4391_289" x1="300.344" y1="214.38" x2="300.344" y2="122.13" gradientUnits="userSpaceOnUse">
<stop stop-color="white" stop-opacity="0"/>
<stop offset="0.84" stop-color="#FEFBF7"/>
</linearGradient>
<linearGradient id="paint3_linear_4391_289" x1="286.334" y1="269.981" x2="286.334" y2="186.541" gradientUnits="userSpaceOnUse">
<stop stop-color="white" stop-opacity="0"/>
<stop offset="0.84" stop-color="#FEFBF7"/>
</linearGradient>
<linearGradient id="paint4_linear_4391_289" x1="57.5538" y1="168.259" x2="57.5538" y2="84.8187" gradientUnits="userSpaceOnUse">
<stop stop-color="white" stop-opacity="0"/>
<stop offset="0.84" stop-color="#FEFBF7"/>
</linearGradient>
<linearGradient id="paint5_linear_4391_289" x1="61.4754" y1="220.959" x2="42.8809" y2="155.509" gradientUnits="userSpaceOnUse">
<stop stop-color="white" stop-opacity="0"/>
<stop offset="0.84" stop-color="#FEFBF7"/>
</linearGradient>
<linearGradient id="paint6_linear_4391_289" x1="102.204" y1="134.399" x2="102.204" y2="42.1492" gradientUnits="userSpaceOnUse">
<stop stop-color="white" stop-opacity="0"/>
<stop offset="0.84" stop-color="#FEFBF7"/>
</linearGradient>
<linearGradient id="paint7_linear_4391_289" x1="58.3542" y1="262.84" x2="58.3542" y2="218.23" gradientUnits="userSpaceOnUse">
<stop stop-color="white" stop-opacity="0"/>
<stop offset="0.84" stop-color="#FEFBF7"/>
</linearGradient>
</defs>
</svg>
