<svg width="1188" height="357" viewBox="0 0 1188 357" fill="none" xmlns="http://www.w3.org/2000/svg">
<path d="M166.984 268.603C184.541 268.603 198.774 254.371 198.774 236.813C198.774 219.256 184.541 205.023 166.984 205.023C149.427 205.023 135.194 219.256 135.194 236.813C135.194 254.371 149.427 268.603 166.984 268.603Z" stroke="#86171E" stroke-width="5" stroke-miterlimit="10"/>
<path d="M151.824 236.812H182.144" stroke="#86171E" stroke-width="3" stroke-linecap="round" stroke-linejoin="round"/>
<path d="M166.984 251.971V221.641" stroke="#86171E" stroke-width="3" stroke-linecap="round" stroke-linejoin="round"/>
<path d="M139.704 299.72C139.484 299.72 139.294 299.58 139.224 299.37C139.154 299.16 139.234 298.94 139.414 298.81L165.934 280.16C166.024 280.1 166.124 280.07 166.224 280.07C166.324 280.07 166.424 280.1 166.504 280.16L193.654 298.81C193.834 298.93 193.914 299.16 193.844 299.37C193.784 299.58 193.584 299.72 193.364 299.72H139.684H139.704Z" fill="#86171E"/>
<path d="M166.225 280.582L193.375 299.232H139.695L166.215 280.582M166.215 279.582C166.015 279.582 165.815 279.642 165.635 279.762L139.115 298.412C138.755 298.662 138.605 299.112 138.735 299.532C138.865 299.952 139.255 300.232 139.685 300.232H193.365C193.805 300.232 194.195 299.942 194.325 299.532C194.455 299.122 194.295 298.662 193.935 298.412L166.785 279.762C166.615 279.642 166.415 279.582 166.215 279.582Z" fill="#86171E"/>
<path d="M166.984 288.53C144.834 288.53 125.264 272.86 120.454 251.27C120.424 251.12 120.454 250.97 120.554 250.85C120.644 250.73 120.794 250.66 120.944 250.66H213.014C213.164 250.66 213.304 250.73 213.404 250.85C213.504 250.97 213.534 251.12 213.504 251.27C208.694 272.86 189.134 288.53 166.984 288.53Z" fill="#86171E"/>
<path d="M213.014 251.16C208.314 272.26 189.494 288.03 166.984 288.03C144.474 288.03 125.644 272.26 120.944 251.16H213.014ZM213.014 250.16H120.944C120.644 250.16 120.354 250.3 120.164 250.53C119.974 250.77 119.904 251.08 119.964 251.37C122.304 261.89 128.234 271.45 136.654 278.28C145.194 285.21 155.964 289.03 166.984 289.03C178.004 289.03 188.774 285.21 197.304 278.28C205.714 271.45 211.644 261.89 213.984 251.37C214.054 251.07 213.984 250.76 213.784 250.53C213.594 250.29 213.304 250.16 213.004 250.16H213.014Z" fill="#86171E"/>
<path d="M228.875 270.1C228.485 270.1 228.105 269.9 227.895 269.57C227.675 269.24 227.635 268.84 227.795 268.47C230.915 260.87 237.985 240.95 236.155 220.15C234.525 201.59 228.825 188.26 225.585 181.97C225.365 181.55 224.955 181.3 224.485 181.3C224.055 181.3 223.485 181.53 223.295 182.19C220.925 190.46 215.875 204.35 208.565 204.35C207.475 204.35 206.365 204.04 205.275 203.41C193.635 196.78 193.965 179.53 198.045 155.69C201.235 137.07 188.845 122.69 183.375 117.36C182.765 116.76 182.465 116.75 182.435 116.75C182.435 116.75 182.235 117 182.435 117.97C184.195 126.54 187.355 148.1 178.705 163.05C170.815 176.68 155.685 183.26 141.045 189.62C135.535 192.02 129.825 194.49 124.745 197.28C107.155 206.93 98.4846 227.86 100.265 242.52C101.345 251.4 104.975 260.34 107.835 266.28C108.765 268.22 108.605 268.88 108.405 269.2C108.245 269.45 107.985 269.59 107.675 269.59C107.125 269.59 106.375 269.14 105.385 268.22C98.2346 261.62 85.6046 247.64 81.4446 228.1C76.0646 202.84 80.5646 181.14 96.9946 153.2C108.095 134.33 117.975 123.71 122.885 119.06C123.175 118.78 123.555 118.63 123.945 118.63C124.395 118.63 124.825 118.83 125.125 119.17C125.435 119.52 125.575 119.98 125.515 120.46C125.095 123.78 126.325 129.54 130.005 134.92C132.975 139.26 138.485 144.69 147.935 145.9C148.145 145.93 148.345 145.94 148.545 145.94C149.655 145.94 150.545 145.51 151.245 144.63C153.405 141.92 154.795 133.65 149.215 109.69C148.975 108.67 148.895 108.31 148.885 108.17C144.875 82.77 145.545 58.7 150.855 36.61C155.165 18.69 161.475 6.76999 164.845 1.25999C165.135 0.779995 165.615 0.5 166.155 0.5C166.585 0.5 167.005 0.680005 167.295 0.990005C167.605 1.31001 167.755 1.74 167.735 2.2C166.975 18.73 167.165 75.25 201.385 108.36C201.845 108.79 247.775 152.42 252.895 181.97C258.275 213.03 250.255 241.54 243.945 252.21C239.115 260.37 232.925 266.7 229.665 269.75C229.445 269.96 229.165 270.07 228.875 270.07V270.1Z" fill="#86171E"/>
<path d="M166.155 1.02C166.715 1.02 167.275 1.48 167.235 2.2C166.515 17.84 166.445 75.28 201.045 108.74C201.045 108.74 247.265 152.34 252.405 182.08C257.555 211.81 250.365 240.4 243.515 251.98C238.735 260.07 232.585 266.36 229.325 269.41C229.185 269.54 229.025 269.6 228.875 269.6C228.445 269.6 228.045 269.16 228.255 268.66C231.225 261.43 238.505 241.17 236.645 220.11C234.995 201.36 229.205 187.92 226.015 181.74C225.685 181.1 225.075 180.79 224.475 180.79C223.755 180.79 223.045 181.22 222.805 182.05C220.715 189.35 215.675 203.84 208.555 203.84C207.575 203.84 206.565 203.57 205.515 202.97C194.205 196.53 194.415 179.81 198.535 155.77C201.765 136.93 189.275 122.4 183.725 117C183.205 116.49 182.765 116.25 182.435 116.25C181.915 116.25 181.705 116.89 181.945 118.07C183.635 126.31 186.875 147.93 178.275 162.8C167.455 181.5 142.815 186.8 124.515 196.84C106.215 206.88 98.0447 228.25 99.7847 242.58C100.895 251.76 104.765 261.02 107.405 266.49C108.215 268.18 108.275 269.08 107.695 269.08C107.315 269.08 106.645 268.68 105.735 267.84C98.9847 261.61 86.1247 247.59 81.9447 227.99C76.1847 200.97 82.3347 179.12 97.4347 153.45C108.735 134.24 118.855 123.57 123.235 119.42C123.455 119.21 123.705 119.12 123.955 119.12C124.555 119.12 125.115 119.65 125.025 120.39C124.145 127.44 130.475 144.16 147.875 146.4C148.105 146.43 148.335 146.44 148.545 146.44C159.435 146.44 149.485 109.22 149.385 108.12C149.385 108.1 149.385 108.09 149.385 108.06C140.065 49.05 158.655 12.34 165.285 1.52C165.505 1.16 165.835 1 166.165 1M166.165 0C165.455 0 164.805 0.37 164.425 1C161.035 6.53 154.705 18.5 150.375 36.49C145.045 58.65 144.375 82.78 148.395 108.22C148.415 108.39 148.475 108.69 148.735 109.8C154.265 133.56 152.945 141.69 150.855 144.31C150.245 145.08 149.515 145.44 148.545 145.44C148.375 145.44 148.185 145.43 148.005 145.4C138.735 144.21 133.325 138.89 130.425 134.63C126.845 129.38 125.635 123.63 126.025 120.51C126.105 119.88 125.925 119.28 125.515 118.82C125.115 118.37 124.555 118.11 123.965 118.11C123.445 118.11 122.945 118.31 122.555 118.68C117.635 123.35 107.705 134 96.5747 152.93C80.0747 180.98 75.5547 202.79 80.9747 228.19C85.1647 247.86 97.8647 261.93 105.065 268.57C106.505 269.9 107.235 270.07 107.695 270.07C108.155 270.07 108.595 269.84 108.845 269.45C109.275 268.77 109.105 267.72 108.305 266.05C105.465 260.15 101.855 251.26 100.785 242.45C99.0247 227.96 107.605 207.26 125.005 197.71C130.065 194.93 135.505 192.57 141.265 190.07C155.975 183.68 171.185 177.07 179.155 163.29C187.885 148.2 184.715 126.49 182.935 117.86C182.915 117.75 182.895 117.66 182.885 117.57C182.925 117.61 182.975 117.65 183.025 117.7C188.445 122.97 200.695 137.21 197.545 155.58C195.185 169.38 194.475 178.78 195.245 186.06C196.165 194.79 199.365 200.6 205.025 203.83C206.195 204.49 207.385 204.83 208.555 204.83C216.185 204.83 221.365 190.72 223.765 182.31C223.875 181.92 224.205 181.78 224.475 181.78C224.645 181.78 224.945 181.83 225.125 182.18C228.355 188.44 234.015 201.69 235.645 220.18C237.465 240.87 230.435 260.7 227.325 268.26C227.105 268.79 227.165 269.36 227.475 269.83C227.795 270.3 228.315 270.58 228.875 270.58C229.295 270.58 229.695 270.42 230.005 270.12C233.285 267.05 239.515 260.68 244.375 252.47C250.725 241.73 258.785 213.08 253.385 181.89C251.225 169.38 241.855 153.14 225.555 133.6C213.455 119.1 201.835 108.1 201.725 108C193.115 99.67 165.245 67.42 168.235 2.23C168.265 1.63 168.055 1.06999 167.655 0.649994C167.265 0.239994 166.715 0 166.155 0H166.165Z" fill="#86171E"/>
<path d="M290.785 338.933L178.675 354.483C178.675 355.503 177.515 356.323 176.085 356.323H157.905C156.465 356.323 155.305 355.493 155.305 354.473L43.1846 338.933L49.5746 320.883C49.5746 320.883 61.3346 325.103 70.1046 325.143C78.2246 325.183 105.665 320.873 124.715 322.363C153.615 324.623 167.005 341.273 167.005 341.273V341.323C167.005 341.323 167.015 341.313 167.035 341.283C167.745 340.433 181.185 324.863 209.295 322.693C228.345 321.223 255.785 325.473 263.905 325.433C272.675 325.393 284.435 321.243 284.435 321.243L290.785 338.933Z" fill="#881A21" stroke="#881A21" stroke-linecap="round" stroke-linejoin="round"/>
<path d="M167.004 340.843V310.043" stroke="#881A21" stroke-miterlimit="10" stroke-linecap="round"/>
<path d="M120.974 282.601C119.574 282.751 118.234 282.921 116.964 283.101C103.424 285.001 89.5742 279.391 89.5742 279.391L49.5742 320.891" stroke="#881A21" stroke-linecap="round" stroke-linejoin="round"/>
<path d="M213.044 282.601C214.444 282.751 215.784 282.921 217.054 283.101C230.594 285.001 244.444 279.391 244.444 279.391L284.444 321.251" stroke="#881A21" stroke-linecap="round" stroke-linejoin="round"/>
<path d="M179.685 317.832C180.455 317.222 181.325 316.812 182.165 316.402C188.905 313.092 196.415 311.232 204.475 310.422C212.035 309.662 219.515 310.162 226.975 311.072C232.405 311.732 237.825 312.482 243.295 312.962C248.805 313.442 254.175 313.042 259.375 311.612C259.775 311.502 260.175 311.392 260.575 311.282C260.995 311.162 261.285 311.262 261.455 311.552C261.505 311.632 261.535 311.722 261.575 311.802C262.835 314.142 263.075 313.542 260.075 314.332C253.965 315.952 247.665 316.262 241.245 315.522C234.415 314.732 227.595 313.872 220.745 313.192C209.075 312.042 197.905 313.142 187.475 317.252C185.975 317.842 184.495 318.482 183.195 319.282C182.375 319.782 181.875 319.672 181.285 319.132C180.815 318.692 180.245 318.302 179.675 317.842L179.685 317.832Z" fill="#881A21" stroke="#881A21" stroke-miterlimit="10"/>
<path d="M149.705 319.743C146.375 317.863 142.705 316.393 138.735 315.293C130.815 313.093 122.605 312.383 114.165 312.953C107.075 313.433 100.095 314.443 93.0846 315.303C85.4946 316.223 78.0646 316.123 70.8246 314.073C69.3646 313.663 69.3546 313.673 69.9346 312.613C70.7246 311.143 70.7446 311.113 72.8146 311.673C78.9646 313.333 85.2646 313.413 91.6646 312.673C98.6846 311.863 105.655 310.813 112.735 310.303C125.345 309.393 137.305 310.843 148.235 315.653C149.385 316.153 150.435 316.763 151.545 317.303C152.165 317.603 152.385 317.903 151.715 318.323C151.025 318.753 150.545 319.333 149.695 319.733L149.705 319.743Z" fill="#881A21" stroke="#881A21" stroke-miterlimit="10"/>
<path d="M218.094 301.211C222.164 301.111 225.974 301.801 229.794 302.441C234.164 303.171 238.554 303.721 243.084 303.361C245.894 303.141 248.644 302.721 251.344 302.141C252.554 301.881 252.614 301.891 253.014 302.771C253.924 304.791 254.344 304.321 251.434 304.961C243.894 306.611 236.344 306.501 228.764 305.081C225.204 304.421 221.614 303.861 217.894 303.881C215.674 303.891 213.494 304.141 211.354 304.521C210.764 304.631 210.474 304.571 210.304 304.111C209.334 301.521 209.044 302.121 212.334 301.561C214.244 301.231 216.214 301.131 218.084 301.201L218.094 301.211Z" fill="#881A21" stroke="#881A21" stroke-miterlimit="10"/>
<path d="M122.334 302.492C122.104 303.072 121.874 303.712 121.584 304.332C121.384 304.762 120.914 304.552 120.514 304.492C118.114 304.112 115.694 303.842 113.224 303.892C109.894 303.962 106.674 304.502 103.444 305.032C99.5543 305.682 95.6643 306.262 91.6443 306.212C87.3843 306.162 83.2543 305.552 79.1843 304.702C78.2343 304.502 78.2643 304.222 78.5143 303.672C79.3543 301.892 79.3443 301.852 81.8243 302.382C88.6543 303.842 95.4743 303.702 102.324 302.412C106.424 301.642 110.564 301.072 114.844 301.182C117.064 301.242 119.234 301.472 121.394 301.822C121.834 301.892 122.434 301.912 122.324 302.482L122.334 302.492Z" fill="#881A21" stroke="#881A21" stroke-miterlimit="10"/>
<path d="M98.1341 296.383C93.9741 296.603 89.7641 295.593 87.9641 295.083C87.4641 294.943 87.2441 294.533 87.4641 294.183L88.3641 292.803C88.5741 292.483 89.0841 292.333 89.5441 292.463C91.2341 292.933 95.3141 293.903 98.8341 293.453C101.184 293.153 102.994 292.783 104.744 292.413C108.254 291.683 111.304 291.053 116.374 291.633C116.794 291.683 117.074 291.973 116.994 292.263L116.544 294.003C116.464 294.293 116.074 294.483 115.664 294.433C111.524 293.973 109.114 294.473 105.864 295.143C104.094 295.513 102.094 295.923 99.5341 296.253C99.0741 296.313 98.6041 296.353 98.1341 296.373V296.383Z" fill="#881A21" stroke="#881A21" stroke-miterlimit="10"/>
<path d="M233.884 296.383C238.044 296.603 242.254 295.593 244.054 295.083C244.554 294.943 244.774 294.533 244.554 294.183L243.654 292.803C243.444 292.483 242.934 292.333 242.474 292.463C240.784 292.933 236.704 293.903 233.184 293.453C230.834 293.153 229.024 292.783 227.274 292.413C223.764 291.683 220.714 291.053 215.644 291.633C215.224 291.683 214.944 291.973 215.024 292.263L215.474 294.003C215.554 294.293 215.944 294.483 216.354 294.433C220.494 293.973 222.904 294.473 226.154 295.143C227.924 295.513 229.924 295.923 232.484 296.253C232.944 296.313 233.414 296.353 233.884 296.373V296.383Z" fill="#881A21" stroke="#881A21" stroke-miterlimit="10"/>
<path d="M155.834 343.191C147.614 337.651 138.204 333.941 128.574 331.791C120.114 330.111 111.494 329.381 102.894 328.821C97.9942 328.541 97.6942 328.341 102.824 327.451C116.664 324.931 130.844 328.971 143.304 334.871C147.804 337.141 152.164 339.721 156.014 342.961L155.824 343.191H155.834Z" fill="#FEFAF7"/>
<path d="M148.415 344.704C143.415 343.184 138.195 342.434 132.995 342.134C127.755 341.994 122.565 342.164 117.325 341.654L117.305 341.454C125.015 338.904 133.245 340.234 140.965 341.994C143.525 342.664 146.075 343.424 148.485 344.514L148.405 344.704H148.415Z" fill="#FEFAF7"/>
<path d="M151.404 343.163C138.164 335.733 120.144 335.423 105.294 336.193C93.3542 336.943 81.3442 335.773 69.7442 332.933C65.8842 331.993 62.0542 330.923 58.3242 329.553L58.3842 329.363C60.3242 329.773 62.2542 330.183 64.1942 330.533C77.7142 333.023 91.4542 334.853 105.214 334.573C117.064 334.193 129.244 334.743 140.644 338.203C144.424 339.403 148.204 340.773 151.524 342.993L151.404 343.153V343.163Z" fill="#FEFAF7"/>
<path d="M177.994 343.431C185.804 337.041 195.174 332.711 204.854 329.931C214.554 326.931 225.004 326.171 234.914 328.681L234.884 328.981C233.614 329.131 232.364 329.211 231.124 329.301C222.524 329.861 213.904 330.591 205.444 332.271C195.814 334.431 186.404 338.141 178.184 343.671L177.994 343.441V343.431Z" fill="#FEFAF7"/>
<path d="M185.525 344.993C190.385 342.863 195.625 341.713 200.875 341.013C206.145 340.203 211.585 340.243 216.705 341.923L216.685 342.123C211.455 342.633 206.255 342.463 201.015 342.603C195.815 342.913 190.595 343.653 185.595 345.173L185.515 344.993H185.525Z" fill="#FEFAF7"/>
<path d="M182.504 343.472C195.874 335.402 213.544 334.662 228.814 335.042C242.574 335.312 256.314 333.492 269.834 331.002C271.784 330.652 273.714 330.242 275.644 329.832L275.704 330.022C271.974 331.392 268.144 332.462 264.284 333.402C252.674 336.242 240.674 337.412 228.734 336.662C213.234 335.732 196.314 336.512 182.504 343.472Z" fill="#FEFAF7"/>
<path d="M242.115 79.0023C246.522 79.0023 250.095 75.3982 250.095 70.9523C250.095 66.5065 246.522 62.9023 242.115 62.9023C237.708 62.9023 234.135 66.5065 234.135 70.9523C234.135 75.3982 237.708 79.0023 242.115 79.0023Z" fill="#930017"/>
<path d="M281.014 86.7224C282.434 86.3224 283.044 84.6324 282.204 83.4124C278.944 78.6524 277.704 78.8124 272.854 82.0224C267.264 85.7224 236.534 91.6624 220.574 65.9124C206.634 43.4324 208.104 41.9824 200.124 42.1924C192.144 42.4124 203.944 55.1924 210.424 74.1724C220.334 103.212 204.234 111.342 210.384 115.992C221.334 124.272 226.464 127.342 232.434 119.882C232.434 119.882 237.024 104.692 258.184 95.2624C269.124 90.3924 277.044 87.8524 281.014 86.7224Z" fill="url(#paint0_linear_4391_386)"/>
<path d="M266.238 113.797C268.117 109.768 266.402 104.991 262.408 103.129C258.413 101.266 253.652 103.023 251.773 107.052C249.894 111.081 251.609 115.858 255.603 117.72C259.598 119.583 264.359 117.826 266.238 113.797Z" fill="#930017"/>
<path d="M246.714 162.843C246.714 162.843 242.074 126.033 249.574 122.463C257.074 118.893 257.074 122.823 263.854 122.463C270.634 122.103 272.064 123.533 272.064 129.963C272.064 136.393 275.274 164.833 267.784 164.353C260.284 163.873 250.654 168.243 246.724 162.843H246.714Z" fill="url(#paint1_linear_4391_386)"/>
<path d="M307.756 161.586C309.635 157.557 307.92 152.78 303.926 150.918C299.932 149.055 295.171 150.812 293.292 154.841C291.413 158.87 293.128 163.647 297.122 165.509C301.116 167.372 305.877 165.615 307.756 161.586Z" fill="#930017"/>
<path d="M290.774 132.771C290.774 132.771 281.944 165.191 291.844 169.471C301.754 173.751 311.444 168.941 314.064 163.851C318.614 155.021 312.194 125.031 315.404 123.961C318.614 122.891 321.024 120.481 322.094 123.961C323.164 127.441 321.864 163.001 318.724 188.511C316.384 207.491 317.504 213.521 311.344 214.061C305.184 214.601 289.084 215.331 287.744 209.011C286.404 202.701 272.834 133.601 280.604 127.711C288.364 121.821 291.864 129.641 290.774 132.771Z" fill="url(#paint2_linear_4391_386)"/>
<path d="M284.708 219.328C288.703 217.466 290.418 212.69 288.539 208.66C286.66 204.631 281.899 202.874 277.904 204.737C273.91 206.599 272.195 211.376 274.074 215.405C275.953 219.434 280.714 221.191 284.708 219.328Z" fill="#930017"/>
<path d="M299.054 190.061C299.054 190.061 298.514 219.961 288.344 222.951C278.174 225.941 266.924 216.831 265.324 225.401C263.714 233.971 267.464 264.041 269.604 266.671C271.744 269.301 288.344 272.601 290.484 266.671C292.624 260.741 313.504 187.201 306.194 186.661C298.884 186.121 299.154 187.541 299.054 190.051V190.061Z" fill="url(#paint3_linear_4391_386)"/>
<path d="M44.8348 88.3421C44.8348 88.3421 45.3748 118.242 55.5448 121.232C65.7148 124.222 76.9648 115.112 78.5648 123.682C80.1748 132.252 76.4248 162.322 74.2848 164.952C72.1448 167.582 55.5448 170.882 53.4048 164.952C51.2648 159.022 30.3848 85.4821 37.6948 84.9421C45.0148 84.4021 44.7348 85.8221 44.8348 88.3321V88.3421Z" fill="url(#paint4_linear_4391_386)"/>
<path d="M49.7281 169.111C50.2422 164.695 47.1101 160.702 42.7325 160.192C38.3548 159.683 34.3892 162.85 33.8752 167.266C33.3611 171.682 36.4931 175.675 40.8708 176.184C45.2485 176.694 49.214 173.527 49.7281 169.111Z" fill="#930017"/>
<path d="M1.33438 179.352C-0.035622 178.782 -0.435625 177.042 0.534375 175.922C4.32437 171.572 5.54438 171.882 9.97438 175.622C15.0944 179.942 44.9344 189.402 63.7644 165.662C80.2044 144.942 78.9144 143.332 86.8144 144.472C94.7144 145.612 81.5244 156.942 72.8944 175.042C59.6944 202.742 74.7444 212.672 68.0944 216.582C56.2644 223.542 50.8144 226.002 45.7444 217.902C45.7444 217.902 42.9344 202.282 23.0044 190.472C12.7044 184.362 5.12437 180.932 1.31437 179.352H1.33438Z" fill="url(#paint5_linear_4391_386)"/>
<path d="M65.5845 211.094C67.4635 207.064 65.7486 202.288 61.7543 200.425C57.76 198.563 52.9988 200.319 51.1199 204.349C49.2409 208.378 50.9558 213.154 54.9501 215.017C58.9444 216.88 63.7056 215.123 65.5845 211.094Z" fill="#930017"/>
<path d="M109.608 81.6211C111.487 77.5917 109.772 72.8154 105.778 70.9528C101.783 69.0902 97.0222 70.8468 95.1433 74.8761C93.2644 78.9055 94.9792 83.6818 98.9735 85.5444C102.968 87.4069 107.729 85.6504 109.608 81.6211Z" fill="#930017"/>
<path d="M92.6342 52.7909C92.6342 52.7909 83.8042 85.2109 93.7042 89.4909C103.614 93.7709 113.304 88.9609 115.924 83.8709C120.474 75.0409 114.054 45.0509 117.264 43.9809C120.474 42.9109 122.884 40.5009 123.954 43.9809C125.024 47.4609 123.724 83.0209 120.584 108.531C118.244 127.511 119.364 133.541 113.204 134.081C107.044 134.621 90.9442 135.351 89.6042 129.031C88.2642 122.721 74.6942 53.6209 82.4642 47.7309C90.2342 41.8409 93.7242 49.6609 92.6342 52.7909Z" fill="url(#paint6_linear_4391_386)"/>
<path d="M46.0442 260.132C46.0442 260.132 41.4042 223.322 48.9042 219.752C56.4042 216.182 56.4042 220.112 63.1842 219.752C69.9642 219.392 71.3942 220.822 71.3942 227.252C71.3942 233.682 74.6042 262.122 67.1142 261.642C59.6142 261.162 49.9842 265.532 46.0542 260.132H46.0442Z" fill="url(#paint7_linear_4391_386)"/>
<path d="M69.8023 113.66C71.6812 109.631 69.9663 104.854 65.972 102.992C61.9777 101.129 57.2165 102.886 55.3376 106.915C53.4587 110.945 55.1736 115.721 59.1679 117.583C63.1622 119.446 67.9234 117.689 69.8023 113.66Z" fill="#930017"/>
<path d="M438.983 225.196C431.21 225.196 423.707 223.902 416.474 221.315C409.35 218.727 403.034 215.062 397.529 210.318C392.023 205.574 387.651 199.861 384.413 193.176C381.282 186.492 379.717 179.053 379.717 170.859C379.717 163.205 381.336 156.035 384.575 149.351C387.813 142.559 392.293 136.683 398.015 131.724C403.844 126.657 410.591 122.722 418.256 119.919C425.92 117.008 434.233 115.552 443.193 115.552C447.187 115.552 450.749 115.768 453.88 116.199C457.011 116.523 460.033 117.008 462.948 117.655C465.863 118.302 468.993 119.164 472.34 120.242C473.743 120.673 474.769 121.266 475.416 122.021C476.172 122.776 476.604 123.908 476.712 125.417C477.036 128.22 477.305 131.131 477.521 134.15C477.845 137.168 478.061 140.511 478.169 144.176C478.169 145.146 477.737 145.847 476.874 146.278C476.118 146.71 475.254 146.818 474.283 146.602C473.311 146.278 472.663 145.524 472.34 144.338C471.368 140.78 470.235 137.6 468.939 134.797C467.644 131.994 465.755 129.676 463.272 127.843C460.789 125.902 457.604 124.393 453.718 123.315C449.94 122.237 445.676 121.698 440.926 121.698C434.88 121.698 429.321 122.937 424.247 125.417C419.173 127.897 414.855 131.293 411.293 135.605C407.73 139.81 404.924 144.607 402.872 149.998C400.929 155.388 399.958 160.995 399.958 166.816C399.958 173.609 400.875 180.131 402.711 186.384C404.654 192.637 407.406 198.189 410.969 203.041C414.639 207.892 419.065 211.774 424.247 214.685C429.429 217.488 435.258 218.889 441.735 218.889C449.508 218.889 455.931 217.164 461.005 213.714C466.078 210.156 470.343 205.089 473.797 198.513C474.553 197.004 475.686 196.249 477.197 196.249C478.709 196.249 479.464 197.111 479.464 198.836C479.464 199.914 479.249 201.424 478.817 203.364C478.493 205.197 478.007 207.246 477.359 209.51C476.712 211.666 476.064 213.66 475.416 215.493C474.769 216.895 474.175 217.865 473.635 218.404C473.095 218.943 472.07 219.482 470.559 220.021C466.456 221.746 461.598 223.04 455.985 223.902C450.479 224.765 444.812 225.196 438.983 225.196ZM537.591 224.873C530.25 224.873 523.503 223.202 517.35 219.859C511.197 216.517 506.285 211.989 502.614 206.275C498.944 200.561 497.109 194.147 497.109 187.031C497.109 182.18 498.134 177.49 500.185 172.962C502.236 168.326 505.097 164.175 508.768 160.51C512.438 156.844 516.756 153.987 521.722 151.939C526.688 149.782 532.085 148.704 537.915 148.704C543.312 148.704 548.494 149.621 553.46 151.453C558.534 153.178 563.014 155.766 566.9 159.216C570.894 162.558 574.025 166.493 576.292 171.021C578.667 175.549 579.854 180.562 579.854 186.061C579.854 192.637 578.181 198.89 574.834 204.82C571.596 210.749 566.846 215.601 560.585 219.374C554.431 223.04 546.767 224.873 537.591 224.873ZM539.696 218.566C543.798 218.566 547.199 217.649 549.897 215.817C552.704 213.984 554.917 211.558 556.536 208.539C558.264 205.521 559.451 202.232 560.099 198.675C560.855 195.009 561.232 191.397 561.232 187.84C561.232 182.126 560.207 176.735 558.156 171.668C556.213 166.601 553.406 162.504 549.735 159.377C546.173 156.143 541.855 154.526 536.781 154.526C532.247 154.526 528.415 155.928 525.284 158.731C522.154 161.534 519.725 165.199 517.997 169.727C516.378 174.255 515.569 179.161 515.569 184.444C515.569 190.697 516.486 196.411 518.321 201.585C520.157 206.76 522.855 210.911 526.418 214.038C529.98 217.056 534.406 218.566 539.696 218.566ZM642.076 224.873C640.888 224.873 639.755 223.741 638.675 221.477C634.681 213.499 630.957 205.574 627.502 197.704C624.156 189.834 620.485 181.479 616.491 172.638C615.951 171.56 615.52 171.075 615.196 171.183C614.872 171.183 614.602 171.668 614.386 172.638C614.17 175.334 613.846 178.783 613.414 182.988C612.983 187.085 612.605 191.505 612.281 196.249C612.065 200.885 611.795 205.359 611.471 209.671C611.471 211.504 611.903 213.337 612.767 215.17C613.63 216.895 615.52 217.973 618.434 218.404C619.406 218.512 620.269 218.781 621.025 219.213C621.781 219.644 622.159 220.291 622.159 221.153C622.159 221.8 621.781 222.285 621.025 222.609C620.377 222.932 619.73 223.094 619.082 223.094C617.031 223.094 615.466 223.04 614.386 222.932C613.307 222.824 612.335 222.716 611.471 222.609C610.716 222.501 609.582 222.447 608.071 222.447C606.452 222.447 604.94 222.501 603.537 222.609C602.133 222.716 600.73 222.824 599.327 222.932C597.923 223.04 596.412 223.094 594.793 223.094C594.145 223.094 593.443 222.932 592.688 222.609C592.04 222.285 591.716 221.8 591.716 221.153C591.716 220.291 592.094 219.698 592.85 219.374C593.713 218.943 594.523 218.674 595.278 218.566C597.869 218.134 599.866 217.11 601.27 215.493C602.673 213.768 603.537 211.774 603.861 209.51C604.293 207.03 604.778 203.957 605.318 200.292C605.858 196.626 606.398 192.799 606.937 188.81C607.585 184.713 608.125 180.778 608.557 177.005C609.096 173.231 609.528 169.889 609.852 166.978C610.284 164.067 610.5 162.019 610.5 160.833C610.5 158.785 609.69 157.329 608.071 156.467C606.559 155.604 604.239 154.903 601.108 154.364C600.136 154.149 599.219 153.825 598.355 153.394C597.599 152.855 597.222 152.208 597.222 151.453C597.222 150.699 597.545 150.16 598.193 149.836C598.949 149.513 599.651 149.351 600.298 149.351C602.457 149.351 604.185 149.405 605.48 149.513C606.883 149.513 608.287 149.567 609.69 149.675C611.201 149.782 613.253 149.836 615.843 149.836C617.787 149.836 619.028 149.89 619.568 149.998C620.215 149.998 620.917 150.052 621.673 150.16C622.321 150.699 622.806 151.13 623.13 151.453C623.562 151.669 623.94 152.1 624.264 152.747L646.124 200.777C646.664 201.747 647.096 202.286 647.419 202.394C647.851 202.394 648.283 201.909 648.715 200.939C652.601 192.422 656.002 184.767 658.916 177.975C661.831 171.075 664.638 164.283 667.337 157.599C667.984 156.197 668.632 154.688 669.28 153.071C669.927 151.346 670.467 150.483 670.899 150.483H676.566C679.805 150.375 682.936 150.16 685.958 149.836C689.089 149.513 691.68 149.351 693.731 149.351C694.487 149.351 695.242 149.513 695.998 149.836C696.754 150.16 697.131 150.699 697.131 151.453C697.131 152.208 696.754 152.855 695.998 153.394C695.242 153.933 694.379 154.31 693.407 154.526C690.276 155.065 687.955 155.874 686.444 156.952C685.041 157.922 684.339 159.701 684.339 162.288C684.447 166.385 684.555 170.105 684.663 173.447C684.771 176.681 684.825 179.754 684.825 182.665C684.933 185.576 685.041 188.486 685.149 191.397C685.257 194.2 685.365 197.219 685.473 200.453C685.688 203.58 685.958 207.138 686.282 211.127C686.498 213.391 687.308 215.062 688.711 216.14C690.222 217.218 692.274 217.973 694.864 218.404C695.728 218.512 696.538 218.781 697.293 219.213C698.157 219.644 698.589 220.291 698.589 221.153C698.589 221.8 698.211 222.285 697.455 222.609C696.7 222.932 695.998 223.094 695.35 223.094C693.515 223.094 691.626 223.04 689.683 222.932C687.74 222.824 685.85 222.716 684.015 222.609C682.288 222.393 680.507 222.285 678.672 222.285C676.728 222.285 674.785 222.393 672.842 222.609C670.899 222.716 668.956 222.824 667.013 222.932C665.178 223.04 663.234 223.094 661.183 223.094C660.644 223.094 659.996 222.932 659.24 222.609C658.485 222.285 658.107 221.8 658.107 221.153C658.107 220.291 658.485 219.644 659.24 219.213C659.996 218.781 660.805 218.512 661.669 218.404C664.368 217.973 666.311 217.272 667.498 216.302C668.794 215.224 669.442 213.553 669.442 211.288C669.334 206.976 669.28 202.771 669.28 198.675C669.28 194.578 669.226 190.427 669.118 186.222C669.01 182.018 668.848 177.651 668.632 173.123C668.524 171.937 668.254 171.398 667.822 171.506C667.391 171.506 666.959 172.045 666.527 173.123L645.314 221.477C644.775 222.663 644.235 223.525 643.695 224.064C643.263 224.603 642.723 224.873 642.076 224.873ZM712.783 223.255C712.136 223.255 711.434 223.094 710.678 222.77C710.031 222.339 709.707 221.8 709.707 221.153C709.707 220.291 710.085 219.644 710.84 219.213C711.704 218.781 712.514 218.458 713.269 218.242C715.86 217.703 718.019 216.949 719.746 215.978C721.474 214.9 722.337 213.067 722.337 210.48V164.714C722.337 161.803 721.743 159.539 720.556 157.922C719.369 156.305 717.156 155.227 713.917 154.688C713.053 154.472 712.244 154.095 711.488 153.556C710.84 153.017 710.516 152.37 710.516 151.615C710.516 150.968 710.84 150.483 711.488 150.16C712.244 149.728 712.945 149.513 713.593 149.513C715.428 149.513 717.156 149.567 718.775 149.675C720.394 149.782 722.013 149.944 723.633 150.16C725.252 150.267 726.817 150.321 728.329 150.321C732.107 150.321 735.993 150.321 739.987 150.321C743.982 150.214 747.814 150.16 751.484 150.16C755.155 150.052 758.393 149.998 761.2 149.998C764.115 149.89 766.274 149.836 767.677 149.836C768.109 149.836 768.595 149.944 769.134 150.16C769.782 150.375 770.106 150.807 770.106 151.453C770.214 155.011 770.538 158.084 771.078 160.671C771.617 163.151 771.887 165.091 771.887 166.493C771.887 166.924 771.725 167.409 771.401 167.948C771.186 168.488 770.916 168.757 770.592 168.757C770.16 168.757 769.62 168.541 768.973 168.11C768.325 167.679 767.785 166.978 767.353 166.008C766.058 162.881 764.708 160.402 763.305 158.569C762.01 156.628 759.797 155.658 756.666 155.658H743.388C742.416 155.658 741.391 155.981 740.311 156.628C739.34 157.167 738.854 158.138 738.854 159.539V179.754C738.854 180.508 739.07 181.317 739.502 182.18C739.933 182.934 740.473 183.312 741.121 183.312H752.132C753.859 183.312 755.155 182.772 756.018 181.694C756.99 180.508 757.853 178.783 758.609 176.519C758.933 175.873 759.311 175.334 759.743 174.902C760.174 174.363 760.66 174.094 761.2 174.094C761.74 174.094 762.172 174.363 762.495 174.902C762.927 175.334 763.089 175.926 762.981 176.681C762.765 178.298 762.603 179.915 762.495 181.533C762.387 183.15 762.333 184.659 762.333 186.061C762.333 187.678 762.387 189.187 762.495 190.589C762.711 191.883 762.873 193.446 762.981 195.279C763.089 196.033 762.981 196.788 762.657 197.543C762.441 198.189 762.064 198.513 761.524 198.513C760.66 198.513 760.013 198.082 759.581 197.219C759.149 196.249 758.825 195.494 758.609 194.955C758.069 192.799 757.26 191.343 756.18 190.589C755.209 189.834 754.129 189.403 752.942 189.295C751.43 189.079 749.649 188.972 747.598 188.972C745.655 188.972 743.874 188.972 742.254 188.972C740.959 188.972 740.041 189.133 739.502 189.457C739.07 189.78 738.854 190.589 738.854 191.883V210.48C738.854 212.96 739.178 214.577 739.825 215.331C740.473 216.086 741.877 216.463 744.036 216.463H758.285C761.632 216.463 764.547 215.385 767.029 213.229C769.512 211.073 771.294 208.647 772.373 205.952C772.589 205.521 772.859 205.035 773.183 204.496C773.614 203.85 774.154 203.526 774.802 203.526C775.45 203.526 775.881 203.85 776.097 204.496C776.313 205.035 776.421 205.628 776.421 206.275C776.313 208.539 775.935 210.911 775.288 213.391C774.748 215.87 774.1 218.296 773.345 220.668C773.237 221.315 772.859 221.908 772.211 222.447C771.563 222.878 770.862 223.094 770.106 223.094C767.083 223.094 763.845 223.04 760.39 222.932C756.936 222.932 753.427 222.878 749.865 222.77C746.411 222.77 742.902 222.716 739.34 222.609C735.885 222.501 732.593 222.447 729.462 222.447C727.627 222.447 725.738 222.555 723.795 222.77C721.959 222.878 720.124 222.986 718.289 223.094C716.454 223.202 714.619 223.255 712.783 223.255ZM846.255 226.328C842.152 226.328 838.374 225.573 834.92 224.064C831.465 222.663 828.658 220.614 826.499 217.919C824.448 215.224 823.423 212.043 823.423 208.378C823.423 204.281 824.34 200.723 826.175 197.704C828.011 194.686 830.494 192.098 833.624 189.942C836.863 187.678 840.425 185.629 844.311 183.797L846.416 182.826L843.826 179.915C842.746 178.73 841.559 177.49 840.263 176.196C839.076 174.794 838.05 173.231 837.187 171.506C836.323 169.673 835.891 167.625 835.891 165.361C835.891 162.127 836.863 159.27 838.806 156.79C840.857 154.31 843.502 152.424 846.74 151.13C850.087 149.836 853.541 149.189 857.104 149.189C862.825 149.189 867.413 150.483 870.868 153.071C874.322 155.658 876.103 158.731 876.211 162.288C876.211 165.631 875.078 168.434 872.811 170.698C870.544 172.962 867.467 175.334 863.581 177.813L861.476 178.945L879.126 198.028L881.231 195.925C884.146 193.015 886.305 190.211 887.708 187.516C889.112 184.821 889.813 182.934 889.813 181.856C889.813 180.455 889.435 179.592 888.68 179.269C887.924 178.837 887.061 178.514 886.089 178.298C885.549 178.083 885.009 177.759 884.47 177.328C883.93 176.897 883.66 176.466 883.66 176.034C883.66 175.495 883.984 175.064 884.632 174.741C885.387 174.309 886.143 174.094 886.899 174.094C887.438 174.094 888.626 174.202 890.461 174.417C892.404 174.525 894.401 174.633 896.452 174.741C898.503 174.848 900.015 174.902 900.986 174.902C903.037 174.902 905.412 174.579 908.111 173.932C910.81 173.177 913.077 172.8 914.912 172.8C915.236 172.8 915.614 172.962 916.046 173.285C916.477 173.501 916.693 173.716 916.693 173.932C916.693 174.471 916.262 175.064 915.398 175.711C914.642 176.25 913.833 176.573 912.969 176.681C910.81 177.005 908.813 177.651 906.978 178.622C905.25 179.592 903.847 180.562 902.768 181.533C902.12 182.072 901.04 183.042 899.529 184.444C898.126 185.845 896.506 187.462 894.671 189.295C892.944 191.128 891.163 192.907 889.327 194.632C887.492 196.357 885.927 197.866 884.632 199.16C883.336 200.453 882.473 201.262 882.041 201.585L884.632 204.658C887.438 208 889.921 210.911 892.08 213.391C894.239 215.763 896.83 216.949 899.853 216.949C901.688 216.949 903.415 216.679 905.035 216.14C906.654 215.493 908.219 214.685 909.73 213.714C910.054 213.499 910.432 213.283 910.864 213.067C911.296 212.852 911.728 212.744 912.159 212.744C913.347 212.744 913.941 213.445 913.941 214.846C913.941 215.709 913.077 217.056 911.35 218.889C909.623 220.722 907.409 222.393 904.711 223.902C902.012 225.52 899.151 226.328 896.128 226.328C891.163 226.328 887.114 225.412 883.984 223.579C880.853 221.854 877.453 218.835 873.782 214.523L871.03 211.127L870.22 211.935C867.629 214.738 865.2 217.272 862.933 219.536C860.774 221.692 858.399 223.363 855.808 224.549C853.217 225.735 850.033 226.328 846.255 226.328ZM850.465 216.625C853.379 216.625 856.186 215.978 858.885 214.685C861.692 213.391 864.39 211.612 866.981 209.348L867.953 208.378L866.172 206.114C864.013 203.418 861.53 200.561 858.723 197.543C855.916 194.524 853.109 191.343 850.303 188.001L848.522 185.576L846.578 186.708C842.908 188.756 840.317 191.29 838.806 194.308C837.295 197.327 836.539 200.292 836.539 203.203C836.539 205.574 837.133 207.785 838.32 209.833C839.615 211.881 841.343 213.553 843.502 214.846C845.661 216.032 847.982 216.625 850.465 216.625ZM859.047 176.196L860.666 175.064C862.285 173.77 863.419 171.991 864.067 169.727C864.822 167.463 865.2 165.253 865.2 163.097C865.2 160.294 864.444 157.922 862.933 155.981C861.422 154.041 859.371 153.071 856.78 153.071C854.621 153.071 852.786 153.879 851.274 155.496C849.763 157.006 848.953 158.785 848.845 160.833C848.845 162.234 849.061 163.474 849.493 164.552C849.925 165.631 850.627 166.816 851.598 168.11C852.678 169.296 854.081 170.859 855.808 172.8L859.047 176.196ZM987.431 225.196C982.897 225.196 978.633 224.549 974.639 223.255C970.645 222.07 966.975 220.237 963.628 217.757C963.196 217.326 962.71 216.841 962.171 216.302C961.739 215.655 961.415 215.008 961.199 214.361C960.443 211.881 959.904 208.809 959.58 205.143C959.364 201.37 959.202 198.028 959.094 195.117C959.094 194.362 959.418 193.823 960.066 193.5C960.713 193.068 961.469 192.853 962.333 192.853C963.088 192.853 963.682 193.015 964.114 193.338C964.654 193.554 965.031 194.039 965.247 194.793C967.514 202.987 970.861 209.132 975.287 213.229C979.713 217.218 984.517 219.213 989.698 219.213C993.369 219.213 996.499 218.404 999.09 216.787C1001.79 215.17 1003.89 213.013 1005.41 210.318C1006.92 207.515 1007.67 204.389 1007.67 200.939C1007.67 196.842 1006.97 193.5 1005.57 190.912C1004.16 188.325 1002.11 186.007 999.414 183.958C996.715 181.91 993.369 179.7 989.375 177.328C985.057 174.741 980.792 172.045 976.582 169.242C972.48 166.439 969.08 163.151 966.381 159.377C963.682 155.604 962.333 150.968 962.333 145.47C962.333 139.648 963.682 134.527 966.381 130.107C969.188 125.579 973.236 122.021 978.525 119.434C983.815 116.738 990.184 115.391 997.633 115.391C1001.52 115.391 1005.03 115.822 1008.16 116.684C1011.4 117.439 1013.99 118.248 1015.93 119.11C1016.9 119.434 1017.66 119.973 1018.2 120.727C1018.85 121.482 1019.33 122.398 1019.66 123.476C1020.19 125.74 1020.79 128.382 1021.44 131.401C1022.08 134.419 1022.41 137.492 1022.41 140.618C1022.41 141.804 1021.54 142.397 1019.82 142.397C1018.85 142.397 1017.93 142.182 1017.06 141.75C1016.2 141.319 1015.66 140.78 1015.45 140.133C1013.29 134.096 1010.59 129.514 1007.35 126.387C1004.22 123.261 1000.22 121.698 995.366 121.698C992.127 121.698 989.159 122.291 986.46 123.476C983.869 124.555 981.764 126.387 980.145 128.975C978.633 131.454 977.878 134.743 977.878 138.84C977.878 141.75 978.849 144.5 980.792 147.087C982.844 149.567 985.542 151.992 988.889 154.364C992.343 156.628 996.176 159 1000.39 161.48C1004.81 164.175 1008.81 166.978 1012.37 169.889C1015.93 172.8 1018.74 176.142 1020.79 179.915C1022.84 183.581 1023.87 188.001 1023.87 193.176C1023.87 199.968 1022.35 205.79 1019.33 210.642C1016.31 215.385 1012.04 218.997 1006.54 221.477C1001.14 223.956 994.772 225.196 987.431 225.196ZM1038.54 223.255C1037.89 223.255 1037.19 223.094 1036.43 222.77C1035.78 222.339 1035.46 221.8 1035.46 221.153C1035.46 220.291 1035.84 219.644 1036.59 219.213C1037.46 218.781 1038.27 218.458 1039.02 218.242C1041.61 217.703 1043.77 216.949 1045.5 215.978C1047.23 214.9 1048.09 213.067 1048.09 210.48V164.714C1048.09 161.803 1047.5 159.539 1046.31 157.922C1045.12 156.305 1042.91 155.227 1039.67 154.688C1038.81 154.472 1038 154.095 1037.24 153.556C1036.59 153.017 1036.27 152.37 1036.27 151.615C1036.27 150.968 1036.59 150.483 1037.24 150.16C1038 149.728 1038.7 149.513 1039.35 149.513C1041.18 149.513 1042.91 149.567 1044.53 149.675C1046.15 149.782 1047.77 149.944 1049.39 150.16C1051.01 150.267 1052.57 150.321 1054.08 150.321C1057.86 150.321 1061.75 150.321 1065.74 150.321C1069.74 150.214 1073.57 150.16 1077.24 150.16C1080.91 150.052 1084.15 149.998 1086.95 149.998C1089.87 149.89 1092.03 149.836 1093.43 149.836C1093.86 149.836 1094.35 149.944 1094.89 150.16C1095.54 150.375 1095.86 150.807 1095.86 151.453C1095.97 155.011 1096.29 158.084 1096.83 160.671C1097.37 163.151 1097.64 165.091 1097.64 166.493C1097.64 166.924 1097.48 167.409 1097.16 167.948C1096.94 168.488 1096.67 168.757 1096.35 168.757C1095.91 168.757 1095.37 168.541 1094.73 168.11C1094.08 167.679 1093.54 166.978 1093.11 166.008C1091.81 162.881 1090.46 160.402 1089.06 158.569C1087.76 156.628 1085.55 155.658 1082.42 155.658H1069.14C1068.17 155.658 1067.14 155.981 1066.06 156.628C1065.09 157.167 1064.61 158.138 1064.61 159.539V179.754C1064.61 180.508 1064.82 181.317 1065.26 182.18C1065.69 182.934 1066.23 183.312 1066.87 183.312H1077.89C1079.61 183.312 1080.91 182.772 1081.77 181.694C1082.74 180.508 1083.61 178.783 1084.36 176.519C1084.69 175.873 1085.06 175.334 1085.5 174.902C1085.93 174.363 1086.41 174.094 1086.95 174.094C1087.49 174.094 1087.93 174.363 1088.25 174.902C1088.68 175.334 1088.84 175.926 1088.73 176.681C1088.52 178.298 1088.36 179.915 1088.25 181.533C1088.14 183.15 1088.09 184.659 1088.09 186.061C1088.09 187.678 1088.14 189.187 1088.25 190.589C1088.46 191.883 1088.63 193.446 1088.73 195.279C1088.84 196.033 1088.73 196.788 1088.41 197.543C1088.2 198.189 1087.82 198.513 1087.28 198.513C1086.41 198.513 1085.77 198.082 1085.33 197.219C1084.9 196.249 1084.58 195.494 1084.36 194.955C1083.82 192.799 1083.01 191.343 1081.93 190.589C1080.96 189.834 1079.88 189.403 1078.7 189.295C1077.18 189.079 1075.4 188.972 1073.35 188.972C1071.41 188.972 1069.63 188.972 1068.01 188.972C1066.71 188.972 1065.79 189.133 1065.26 189.457C1064.82 189.78 1064.61 190.589 1064.61 191.883V210.48C1064.61 212.96 1064.93 214.577 1065.58 215.331C1066.23 216.086 1067.63 216.463 1069.79 216.463H1084.04C1087.39 216.463 1090.3 215.385 1092.78 213.229C1095.27 211.073 1097.05 208.647 1098.13 205.952C1098.34 205.521 1098.61 205.035 1098.94 204.496C1099.37 203.85 1099.91 203.526 1100.56 203.526C1101.2 203.526 1101.64 203.85 1101.85 204.496C1102.07 205.035 1102.17 205.628 1102.17 206.275C1102.07 208.539 1101.69 210.911 1101.04 213.391C1100.5 215.87 1099.85 218.296 1099.1 220.668C1098.99 221.315 1098.61 221.908 1097.96 222.447C1097.32 222.878 1096.62 223.094 1095.86 223.094C1092.84 223.094 1089.6 223.04 1086.14 222.932C1082.69 222.932 1079.18 222.878 1075.62 222.77C1072.16 222.77 1068.66 222.716 1065.09 222.609C1061.64 222.501 1058.35 222.447 1055.22 222.447C1053.38 222.447 1051.49 222.555 1049.55 222.77C1047.71 222.878 1045.88 222.986 1044.04 223.094C1042.21 223.202 1040.37 223.255 1038.54 223.255ZM1116.97 223.255C1116.32 223.255 1115.62 223.094 1114.87 222.77C1114.22 222.339 1113.89 221.8 1113.89 221.153C1113.89 220.291 1114.27 219.644 1115.03 219.213C1115.89 218.781 1116.7 218.458 1117.46 218.242C1120.05 217.703 1122.21 216.949 1123.93 215.978C1125.66 214.9 1126.52 213.067 1126.52 210.48V164.714C1126.52 161.803 1125.93 159.539 1124.74 157.922C1123.56 156.305 1121.34 155.227 1118.1 154.688C1117.24 154.472 1116.43 154.095 1115.68 153.556C1115.03 153.017 1114.7 152.37 1114.7 151.615C1114.7 150.968 1115.03 150.483 1115.68 150.16C1116.43 149.728 1117.13 149.513 1117.78 149.513C1119.62 149.513 1121.34 149.567 1122.96 149.675C1124.58 149.782 1126.2 149.944 1127.82 150.16C1129.44 150.267 1131 150.321 1132.52 150.321C1136.29 150.321 1140.18 150.321 1144.18 150.321C1148.17 150.214 1152 150.16 1155.67 150.16C1159.34 150.052 1162.58 149.998 1165.39 149.998C1168.3 149.89 1170.46 149.836 1171.86 149.836C1172.3 149.836 1172.78 149.944 1173.32 150.16C1173.97 150.375 1174.29 150.807 1174.29 151.453C1174.4 155.011 1174.73 158.084 1175.27 160.671C1175.81 163.151 1176.07 165.091 1176.07 166.493C1176.07 166.924 1175.91 167.409 1175.59 167.948C1175.37 168.488 1175.1 168.757 1174.78 168.757C1174.35 168.757 1173.81 168.541 1173.16 168.11C1172.51 167.679 1171.97 166.978 1171.54 166.008C1170.25 162.881 1168.9 160.402 1167.49 158.569C1166.2 156.628 1163.98 155.658 1160.85 155.658H1147.58C1146.6 155.658 1145.58 155.981 1144.5 156.628C1143.53 157.167 1143.04 158.138 1143.04 159.539V179.754C1143.04 180.508 1143.26 181.317 1143.69 182.18C1144.12 182.934 1144.66 183.312 1145.31 183.312H1156.32C1158.05 183.312 1159.34 182.772 1160.21 181.694C1161.18 180.508 1162.04 178.783 1162.8 176.519C1163.12 175.873 1163.5 175.334 1163.93 174.902C1164.36 174.363 1164.85 174.094 1165.39 174.094C1165.93 174.094 1166.36 174.363 1166.68 174.902C1167.11 175.334 1167.28 175.926 1167.17 176.681C1166.95 178.298 1166.79 179.915 1166.68 181.533C1166.58 183.15 1166.52 184.659 1166.52 186.061C1166.52 187.678 1166.58 189.187 1166.68 190.589C1166.9 191.883 1167.06 193.446 1167.17 195.279C1167.28 196.033 1167.17 196.788 1166.85 197.543C1166.63 198.189 1166.25 198.513 1165.71 198.513C1164.85 198.513 1164.2 198.082 1163.77 197.219C1163.34 196.249 1163.01 195.494 1162.8 194.955C1162.26 192.799 1161.45 191.343 1160.37 190.589C1159.4 189.834 1158.32 189.403 1157.13 189.295C1155.62 189.079 1153.84 188.972 1151.79 188.972C1149.84 188.972 1148.06 188.972 1146.44 188.972C1145.15 188.972 1144.23 189.133 1143.69 189.457C1143.26 189.78 1143.04 190.589 1143.04 191.883V210.48C1143.04 212.96 1143.37 214.577 1144.01 215.331C1144.66 216.086 1146.06 216.463 1148.22 216.463H1162.47C1165.82 216.463 1168.73 215.385 1171.22 213.229C1173.7 211.073 1175.48 208.647 1176.56 205.952C1176.78 205.521 1177.05 205.035 1177.37 204.496C1177.8 203.85 1178.34 203.526 1178.99 203.526C1179.64 203.526 1180.07 203.85 1180.29 204.496C1180.5 205.035 1180.61 205.628 1180.61 206.275C1180.5 208.539 1180.12 210.911 1179.48 213.391C1178.94 215.87 1178.29 218.296 1177.53 220.668C1177.42 221.315 1177.05 221.908 1176.4 222.447C1175.75 222.878 1175.05 223.094 1174.29 223.094C1171.27 223.094 1168.03 223.04 1164.58 222.932C1161.12 222.932 1157.62 222.878 1154.05 222.77C1150.6 222.77 1147.09 222.716 1143.53 222.609C1140.07 222.501 1136.78 222.447 1133.65 222.447C1131.81 222.447 1129.93 222.555 1127.98 222.77C1126.15 222.878 1124.31 222.986 1122.48 223.094C1120.64 223.202 1118.81 223.255 1116.97 223.255Z" fill="#86171E"/>
<path d="M386.226 279.273C386.226 276.514 386.843 274.049 388.076 271.879C389.337 269.682 391.041 267.981 393.187 266.775C395.359 265.543 397.787 264.927 400.469 264.927C403.608 264.927 406.357 265.731 408.718 267.338C411.078 268.945 412.728 271.169 413.667 274.009H407.189C406.545 272.669 405.633 271.664 404.453 270.995C403.299 270.325 401.958 269.99 400.429 269.99C398.793 269.99 397.331 270.378 396.043 271.155C394.783 271.905 393.79 272.977 393.066 274.37C392.368 275.763 392.02 277.398 392.02 279.273C392.02 281.121 392.368 282.755 393.066 284.175C393.79 285.568 394.783 286.653 396.043 287.43C397.331 288.18 398.793 288.555 400.429 288.555C401.958 288.555 403.299 288.22 404.453 287.551C405.633 286.854 406.545 285.836 407.189 284.497H413.667C412.728 287.363 411.078 289.6 408.718 291.207C406.384 292.788 403.635 293.578 400.469 293.578C397.787 293.578 395.359 292.975 393.187 291.77C391.041 290.538 389.337 288.836 388.076 286.666C386.843 284.497 386.226 282.032 386.226 279.273ZM439.723 287.993H428.538L426.687 293.337H420.772L430.871 265.248H437.43L447.529 293.337H441.574L439.723 287.993ZM438.194 283.492L434.131 271.758L430.067 283.492H438.194ZM474.441 265.289V269.829H466.956V293.337H461.323V269.829H453.839V265.289H474.441ZM505.872 265.289V293.337H500.238V281.402H488.208V293.337H482.574V265.289H488.208V276.821H500.238V265.289H505.872ZM528.477 293.618C525.848 293.618 523.433 293.002 521.234 291.77C519.034 290.538 517.291 288.836 516.003 286.666C514.716 284.47 514.072 281.991 514.072 279.232C514.072 276.5 514.716 274.049 516.003 271.879C517.291 269.682 519.034 267.967 521.234 266.735C523.433 265.503 525.848 264.887 528.477 264.887C531.132 264.887 533.547 265.503 535.719 266.735C537.919 267.967 539.649 269.682 540.91 271.879C542.197 274.049 542.841 276.5 542.841 279.232C542.841 281.991 542.197 284.47 540.91 286.666C539.649 288.836 537.919 290.538 535.719 291.77C533.519 293.002 531.105 293.618 528.477 293.618ZM528.477 288.595C530.167 288.595 531.655 288.22 532.943 287.47C534.231 286.693 535.236 285.595 535.961 284.175C536.685 282.755 537.047 281.107 537.047 279.232C537.047 277.357 536.685 275.723 535.961 274.33C535.236 272.91 534.231 271.825 532.943 271.075C531.655 270.325 530.167 269.95 528.477 269.95C526.787 269.95 525.284 270.325 523.97 271.075C522.683 271.825 521.677 272.91 520.952 274.33C520.228 275.723 519.866 277.357 519.866 279.232C519.866 281.107 520.228 282.755 520.952 284.175C521.677 285.595 522.683 286.693 523.97 287.47C525.284 288.22 526.787 288.595 528.477 288.595ZM556.689 288.877H565.943V293.337H551.055V265.289H556.689V288.877ZM579.18 265.289V293.337H573.547V265.289H579.18ZM587.401 279.273C587.401 276.514 588.018 274.049 589.252 271.879C590.513 269.682 592.217 267.981 594.362 266.775C596.535 265.543 598.963 264.927 601.645 264.927C604.783 264.927 607.533 265.731 609.893 267.338C612.254 268.945 613.904 271.169 614.842 274.009H608.364C607.72 272.669 606.809 271.664 605.628 270.995C604.475 270.325 603.133 269.99 601.604 269.99C599.969 269.99 598.506 270.378 597.219 271.155C595.959 271.905 594.965 272.977 594.241 274.37C593.544 275.763 593.195 277.398 593.195 279.273C593.195 281.121 593.544 282.755 594.241 284.175C594.965 285.568 595.959 286.653 597.219 287.43C598.506 288.18 599.969 288.555 601.604 288.555C603.133 288.555 604.475 288.22 605.628 287.551C606.809 286.854 607.72 285.836 608.364 284.497H614.842C613.904 287.363 612.254 289.6 609.893 291.207C607.56 292.788 604.811 293.578 601.645 293.578C598.963 293.578 596.535 292.975 594.362 291.77C592.217 290.538 590.513 288.836 589.252 286.666C588.018 284.497 587.401 282.032 587.401 279.273ZM654.632 265.289V269.829H642.923V277.022H651.895V281.483H642.923V293.337H637.29V265.289H654.632ZM675.686 293.618C673.057 293.618 670.643 293.002 668.444 291.77C666.244 290.538 664.5 288.836 663.213 286.666C661.925 284.47 661.281 281.991 661.281 279.232C661.281 276.5 661.925 274.049 663.213 271.879C664.5 269.682 666.244 267.967 668.444 266.735C670.643 265.503 673.057 264.887 675.686 264.887C678.342 264.887 680.756 265.503 682.929 266.735C685.128 267.967 686.858 269.682 688.119 271.879C689.407 274.049 690.051 276.5 690.051 279.232C690.051 281.991 689.407 284.47 688.119 286.666C686.858 288.836 685.128 290.538 682.929 291.77C680.73 293.002 678.315 293.618 675.686 293.618ZM675.686 288.595C677.376 288.595 678.865 288.22 680.152 287.47C681.44 286.693 682.446 285.595 683.17 284.175C683.894 282.755 684.257 281.107 684.257 279.232C684.257 277.357 683.894 275.723 683.17 274.33C682.446 272.91 681.44 271.825 680.152 271.075C678.865 270.325 677.376 269.95 675.686 269.95C673.996 269.95 672.494 270.325 671.18 271.075C669.892 271.825 668.886 272.91 668.162 274.33C667.438 275.723 667.075 277.357 667.075 279.232C667.075 281.107 667.438 282.755 668.162 284.175C668.886 285.595 669.892 286.693 671.18 287.47C672.494 288.22 673.996 288.595 675.686 288.595ZM712.75 293.337L706.554 282.407H703.898V293.337H698.265V265.289H708.807C710.98 265.289 712.831 265.677 714.36 266.454C715.889 267.204 717.029 268.236 717.78 269.548C718.558 270.834 718.947 272.281 718.947 273.888C718.947 275.736 718.411 277.41 717.337 278.911C716.264 280.384 714.669 281.402 712.549 281.965L719.268 293.337H712.75ZM703.898 278.188H708.606C710.135 278.188 711.275 277.826 712.026 277.103C712.778 276.353 713.152 275.321 713.152 274.009C713.152 272.723 712.778 271.732 712.026 271.035C711.275 270.312 710.135 269.95 708.606 269.95H703.898V278.188ZM758.686 265.289V293.337H753.053V275.093L745.528 293.337H741.263L733.699 275.093V293.337H728.066V265.289H734.463L743.396 286.144L752.328 265.289H758.686ZM785.5 287.993H774.314L772.463 293.337H766.549L776.648 265.248H783.207L793.306 293.337H787.351L785.5 287.993ZM783.971 283.492L779.907 271.758L775.843 283.492H783.971ZM820.216 265.289V269.829H812.732V293.337H807.099V269.829H799.615V265.289H820.216ZM833.984 265.289V293.337H828.351V265.289H833.984ZM856.61 293.618C853.981 293.618 851.567 293.002 849.367 291.77C847.167 290.538 845.424 288.836 844.137 286.666C842.849 284.47 842.205 281.991 842.205 279.232C842.205 276.5 842.849 274.049 844.137 271.879C845.424 269.682 847.167 267.967 849.367 266.735C851.567 265.503 853.981 264.887 856.61 264.887C859.266 264.887 861.68 265.503 863.853 266.735C866.052 267.967 867.782 269.682 869.043 271.879C870.331 274.049 870.975 276.5 870.975 279.232C870.975 281.991 870.331 284.47 869.043 286.666C867.782 288.836 866.052 290.538 863.853 291.77C861.652 293.002 859.238 293.618 856.61 293.618ZM856.61 288.595C858.3 288.595 859.789 288.22 861.076 287.47C862.364 286.693 863.37 285.595 864.094 284.175C864.818 282.755 865.18 281.107 865.18 279.232C865.18 277.357 864.818 275.723 864.094 274.33C863.37 272.91 862.364 271.825 861.076 271.075C859.789 270.325 858.3 269.95 856.61 269.95C854.92 269.95 853.418 270.325 852.104 271.075C850.816 271.825 849.81 272.91 849.086 274.33C848.362 275.723 847.999 277.357 847.999 279.232C847.999 281.107 848.362 282.755 849.086 284.175C849.81 285.595 850.816 286.693 852.104 287.47C853.418 288.22 854.92 288.595 856.61 288.595ZM903.21 293.337H897.577L884.822 274.089V293.337H879.189V265.248H884.822L897.577 284.537V265.248H903.21V293.337ZM957.032 265.289V293.337H951.399V275.093L943.875 293.337H939.61L932.045 275.093V293.337H926.412V265.289H932.81L941.742 286.144L950.675 265.289H957.032ZM972.258 265.289V293.337H966.625V265.289H972.258ZM1005.87 293.337H1000.24L987.481 274.089V293.337H981.847V265.248H987.481L1000.24 284.537V265.248H1005.87V293.337ZM1021.09 265.289V293.337H1015.46V265.289H1021.09ZM1040.38 293.618C1038.42 293.618 1036.65 293.283 1035.07 292.614C1033.51 291.944 1032.28 290.98 1031.37 289.72C1030.45 288.461 1029.98 286.974 1029.96 285.26H1035.99C1036.07 286.412 1036.48 287.323 1037.2 287.993C1037.95 288.662 1038.97 288.997 1040.26 288.997C1041.57 288.997 1042.6 288.689 1043.36 288.073C1044.11 287.43 1044.48 286.6 1044.48 285.582C1044.48 284.751 1044.23 284.068 1043.72 283.532C1043.21 282.996 1042.56 282.581 1041.79 282.286C1041.04 281.965 1039.99 281.617 1038.65 281.242C1036.82 280.706 1035.34 280.183 1034.18 279.674C1033.06 279.138 1032.08 278.348 1031.25 277.304C1030.44 276.232 1030.04 274.812 1030.04 273.044C1030.04 271.383 1030.45 269.936 1031.29 268.704C1032.12 267.472 1033.28 266.534 1034.79 265.891C1036.29 265.222 1038.01 264.887 1039.94 264.887C1042.83 264.887 1045.18 265.596 1046.98 267.016C1048.8 268.409 1049.81 270.365 1050 272.883H1043.8C1043.75 271.919 1043.33 271.129 1042.55 270.512C1041.8 269.87 1040.79 269.548 1039.53 269.548C1038.43 269.548 1037.55 269.829 1036.88 270.392C1036.23 270.955 1035.91 271.772 1035.91 272.843C1035.91 273.593 1036.15 274.223 1036.64 274.732C1037.15 275.214 1037.76 275.616 1038.49 275.937C1039.24 276.232 1040.28 276.58 1041.63 276.982C1043.45 277.518 1044.94 278.053 1046.09 278.589C1047.25 279.126 1048.24 279.929 1049.07 281.001C1049.9 282.072 1050.32 283.478 1050.32 285.22C1050.32 286.72 1049.93 288.113 1049.15 289.399C1048.37 290.685 1047.23 291.716 1045.73 292.493C1044.23 293.243 1042.44 293.618 1040.38 293.618ZM1078.34 265.289V269.829H1070.85V293.337H1065.22V269.829H1057.74V265.289H1078.34ZM1100.96 293.337L1094.76 282.407H1092.1V293.337H1086.47V265.289H1097.01C1099.19 265.289 1101.04 265.677 1102.57 266.454C1104.09 267.204 1105.23 268.236 1105.99 269.548C1106.76 270.834 1107.15 272.281 1107.15 273.888C1107.15 275.736 1106.62 277.41 1105.54 278.911C1104.47 280.384 1102.87 281.402 1100.75 281.965L1107.47 293.337H1100.96ZM1092.1 278.188H1096.81C1098.34 278.188 1099.48 277.826 1100.23 277.103C1100.98 276.353 1101.36 275.321 1101.36 274.009C1101.36 272.723 1100.98 271.732 1100.23 271.035C1099.48 270.312 1098.34 269.95 1096.81 269.95H1092.1V278.188ZM1121.9 265.289V293.337H1116.27V265.289H1121.9ZM1137.13 269.829V276.862H1146.58V281.322H1137.13V288.756H1147.79V293.337H1131.49V265.248H1147.79V269.829H1137.13ZM1166.63 293.618C1164.67 293.618 1162.9 293.283 1161.32 292.614C1159.76 291.944 1158.53 290.98 1157.62 289.72C1156.7 288.461 1156.24 286.974 1156.21 285.26H1162.24C1162.32 286.412 1162.73 287.323 1163.45 287.993C1164.2 288.662 1165.22 288.997 1166.51 288.997C1167.82 288.997 1168.86 288.689 1169.61 288.073C1170.36 287.43 1170.73 286.6 1170.73 285.582C1170.73 284.751 1170.48 284.068 1169.97 283.532C1169.46 282.996 1168.82 282.581 1168.04 282.286C1167.29 281.965 1166.24 281.617 1164.9 281.242C1163.08 280.706 1161.59 280.183 1160.43 279.674C1159.31 279.138 1158.33 278.348 1157.5 277.304C1156.69 276.232 1156.29 274.812 1156.29 273.044C1156.29 271.383 1156.7 269.936 1157.54 268.704C1158.37 267.472 1159.53 266.534 1161.04 265.891C1162.54 265.222 1164.26 264.887 1166.19 264.887C1169.08 264.887 1171.43 265.596 1173.23 267.016C1175.05 268.409 1176.06 270.365 1176.25 272.883H1170.05C1170 271.919 1169.58 271.129 1168.8 270.512C1168.05 269.87 1167.05 269.548 1165.78 269.548C1164.68 269.548 1163.8 269.829 1163.13 270.392C1162.48 270.955 1162.16 271.772 1162.16 272.843C1162.16 273.593 1162.4 274.223 1162.89 274.732C1163.4 275.214 1164.01 275.616 1164.74 275.937C1165.49 276.232 1166.54 276.58 1167.88 276.982C1169.7 277.518 1171.19 278.053 1172.34 278.589C1173.5 279.126 1174.49 279.929 1175.32 281.001C1176.15 282.072 1176.57 283.478 1176.57 285.22C1176.57 286.72 1176.18 288.113 1175.4 289.399C1174.62 290.685 1173.48 291.716 1171.98 292.493C1170.48 293.243 1168.69 293.618 1166.63 293.618Z" fill="#86171E"/>
<defs>
<linearGradient id="paint0_linear_4391_386" x1="214.203" y1="119.763" x2="242.088" y2="59.9651" gradientUnits="userSpaceOnUse">
<stop stop-color="white" stop-opacity="0"/>
<stop offset="0.84" stop-color="#881A21"/>
</linearGradient>
<linearGradient id="paint1_linear_4391_386" x1="259.014" y1="165.573" x2="259.014" y2="120.953" gradientUnits="userSpaceOnUse">
<stop stop-color="white" stop-opacity="0"/>
<stop offset="0.84" stop-color="#881A21"/>
</linearGradient>
<linearGradient id="paint2_linear_4391_386" x1="300.344" y1="214.401" x2="300.344" y2="122.151" gradientUnits="userSpaceOnUse">
<stop stop-color="white" stop-opacity="0"/>
<stop offset="0.84" stop-color="#881A21"/>
</linearGradient>
<linearGradient id="paint3_linear_4391_386" x1="286.344" y1="269.991" x2="286.344" y2="186.551" gradientUnits="userSpaceOnUse">
<stop stop-color="white" stop-opacity="0"/>
<stop offset="0.84" stop-color="#881A21"/>
</linearGradient>
<linearGradient id="paint4_linear_4391_386" x1="57.5548" y1="168.272" x2="57.5548" y2="84.8321" gradientUnits="userSpaceOnUse">
<stop stop-color="white" stop-opacity="0"/>
<stop offset="0.84" stop-color="#881A21"/>
</linearGradient>
<linearGradient id="paint5_linear_4391_386" x1="61.4656" y1="220.984" x2="42.8684" y2="155.524" gradientUnits="userSpaceOnUse">
<stop stop-color="white" stop-opacity="0"/>
<stop offset="0.84" stop-color="#881A21"/>
</linearGradient>
<linearGradient id="paint6_linear_4391_386" x1="102.194" y1="134.421" x2="102.194" y2="42.1709" gradientUnits="userSpaceOnUse">
<stop stop-color="white" stop-opacity="0"/>
<stop offset="0.84" stop-color="#881A21"/>
</linearGradient>
<linearGradient id="paint7_linear_4391_386" x1="58.3442" y1="262.862" x2="58.3442" y2="218.242" gradientUnits="userSpaceOnUse">
<stop stop-color="white" stop-opacity="0"/>
<stop offset="0.84" stop-color="#881A21"/>
</linearGradient>
</defs>
</svg>
