<svg width="324" height="358" viewBox="0 0 324 358" fill="none" xmlns="http://www.w3.org/2000/svg">
<path d="M167.91 268.9C185.467 268.9 199.7 254.667 199.7 237.11C199.7 219.553 185.467 205.32 167.91 205.32C150.353 205.32 136.12 219.553 136.12 237.11C136.12 254.667 150.353 268.9 167.91 268.9Z" stroke="#FEFBF7" stroke-width="3" stroke-miterlimit="10"/>
<path d="M152.75 237.109H183.07" stroke="#FEFBF7" stroke-width="3" stroke-miterlimit="10"/>
<path d="M167.91 252.269V221.949" stroke="#FEFBF7" stroke-width="3" stroke-miterlimit="10"/>
<path d="M140.63 300.029C140.41 300.029 140.22 299.889 140.15 299.679C140.08 299.469 140.16 299.249 140.34 299.119L166.86 280.469C166.95 280.409 167.05 280.379 167.15 280.379C167.25 280.379 167.35 280.409 167.43 280.469L194.58 299.119C194.76 299.239 194.84 299.469 194.77 299.679C194.71 299.889 194.51 300.029 194.29 300.029H140.61H140.63Z" fill="#FEFBF7"/>
<path d="M167.15 280.879L194.3 299.529H140.62L167.14 280.879M167.14 279.879C166.94 279.879 166.74 279.939 166.56 280.059L140.04 298.709C139.68 298.959 139.53 299.409 139.66 299.829C139.79 300.249 140.18 300.529 140.61 300.529H194.29C194.73 300.529 195.12 300.239 195.25 299.829C195.38 299.419 195.22 298.959 194.86 298.709L167.71 280.059C167.54 279.939 167.34 279.879 167.14 279.879Z" fill="#FEFBF7"/>
<path d="M167.92 288.839C145.77 288.839 126.2 273.169 121.39 251.579C121.36 251.429 121.39 251.279 121.49 251.159C121.58 251.039 121.73 250.969 121.88 250.969H213.95C214.1 250.969 214.24 251.039 214.34 251.159C214.44 251.279 214.47 251.429 214.44 251.579C209.63 273.169 190.07 288.839 167.92 288.839Z" fill="#FEFBF7"/>
<path d="M213.95 251.469C209.25 272.569 190.43 288.339 167.92 288.339C145.41 288.339 126.58 272.569 121.88 251.469H213.95ZM213.95 250.469H121.88C121.58 250.469 121.29 250.609 121.1 250.839C120.91 251.079 120.84 251.389 120.9 251.679C123.24 262.199 129.17 271.759 137.59 278.589C146.13 285.519 156.9 289.339 167.92 289.339C178.94 289.339 189.71 285.519 198.24 278.589C206.65 271.759 212.58 262.199 214.92 251.679C214.99 251.379 214.92 251.069 214.72 250.839C214.53 250.599 214.24 250.469 213.94 250.469H213.95Z" fill="#FEFBF7"/>
<path d="M229.8 270.401C229.41 270.401 229.04 270.201 228.82 269.871C228.6 269.541 228.56 269.141 228.72 268.771C231.84 261.171 238.91 241.251 237.08 220.451C235.44 201.881 229.75 188.561 226.51 182.271C226.29 181.851 225.88 181.601 225.41 181.601C224.98 181.601 224.41 181.831 224.22 182.491C221.85 190.761 216.8 204.641 209.49 204.651C208.4 204.651 207.29 204.341 206.2 203.711C194.56 197.081 194.89 179.831 198.97 155.991C202.16 137.381 189.77 122.991 184.3 117.661C183.69 117.061 183.39 117.051 183.36 117.051C183.36 117.051 183.16 117.301 183.36 118.271C185.12 126.851 188.28 148.411 179.63 163.351C171.74 176.981 156.61 183.561 141.97 189.921C136.46 192.321 130.75 194.791 125.67 197.581C108.08 207.231 99.4104 228.161 101.19 242.821C102.27 251.701 105.9 260.641 108.76 266.581C109.69 268.521 109.53 269.181 109.33 269.501C109.17 269.751 108.91 269.891 108.6 269.891C108.06 269.891 107.3 269.441 106.31 268.521C99.1604 261.921 86.5304 247.931 82.3704 228.401C76.9904 203.131 81.4904 181.441 97.9204 153.501C109.02 134.631 118.9 124.011 123.81 119.361C124.1 119.081 124.48 118.931 124.87 118.931C125.32 118.931 125.75 119.131 126.05 119.471C126.36 119.821 126.5 120.281 126.44 120.761C126.02 124.081 127.25 129.841 130.93 135.221C133.9 139.561 139.41 144.991 148.86 146.201C149.07 146.231 149.27 146.241 149.47 146.241C150.58 146.241 151.47 145.811 152.17 144.931C154.33 142.221 155.72 133.951 150.14 109.991C149.9 108.971 149.82 108.611 149.81 108.471C145.8 83.0708 146.46 59.0008 151.78 36.9108C156.09 18.9908 162.39 7.07078 165.77 1.56078C166.06 1.08078 166.54 0.800781 167.08 0.800781C167.51 0.800781 167.93 0.980771 168.22 1.29077C168.53 1.61077 168.68 2.04078 168.66 2.50078C167.9 19.0308 168.09 75.5508 202.31 108.661C202.77 109.091 248.7 152.711 253.82 182.271C259.2 213.331 251.18 241.841 244.87 252.511C240.04 260.671 233.85 267.011 230.59 270.051C230.37 270.261 230.09 270.371 229.8 270.371V270.401Z" fill="#FEFBF7"/>
<path d="M167.08 1.32031C167.64 1.32031 168.2 1.78031 168.16 2.50031C167.44 18.1403 167.37 75.5803 201.97 109.04C201.97 109.04 248.19 152.64 253.33 182.38C258.48 212.11 251.29 240.7 244.44 252.28C239.66 260.37 233.51 266.66 230.25 269.71C230.11 269.84 229.95 269.9 229.8 269.9C229.37 269.9 228.97 269.46 229.18 268.96C232.15 261.73 239.43 241.47 237.57 220.41C235.92 201.66 230.13 188.22 226.94 182.04C226.61 181.4 226 181.1 225.4 181.1C224.68 181.1 223.97 181.53 223.73 182.36C221.64 189.66 216.6 204.15 209.48 204.15C208.5 204.15 207.49 203.88 206.44 203.28C195.13 196.84 195.34 180.12 199.46 156.08C202.69 137.24 190.2 122.71 184.65 117.31C184.13 116.8 183.69 116.56 183.36 116.56C182.84 116.56 182.63 117.2 182.87 118.38C184.56 126.62 187.8 148.24 179.2 163.11C168.38 181.81 143.74 187.11 125.44 197.15C107.14 207.19 98.9705 228.56 100.71 242.89C101.82 252.07 105.69 261.33 108.33 266.8C109.14 268.49 109.2 269.39 108.62 269.39C108.24 269.39 107.57 268.99 106.66 268.15C99.9105 261.92 87.0505 247.9 82.8705 228.3C77.1105 201.28 83.2605 179.43 98.3605 153.76C109.66 134.55 119.78 123.88 124.16 119.73C124.38 119.52 124.63 119.43 124.88 119.43C125.48 119.43 126.04 119.96 125.95 120.7C125.07 127.75 131.4 144.47 148.8 146.71C149.03 146.74 149.26 146.75 149.47 146.75C160.35 146.75 150.41 109.53 150.31 108.43C150.31 108.41 150.31 108.4 150.31 108.38C140.99 49.3703 159.58 12.6603 166.21 1.8403C166.43 1.4803 166.76 1.32031 167.09 1.32031M167.09 0.320312C166.38 0.320312 165.73 0.690313 165.35 1.32031C161.96 6.85031 155.63 18.8203 151.3 36.8103C145.97 58.9703 145.3 83.1003 149.32 108.54C149.34 108.71 149.4 109.01 149.66 110.11C155.2 133.88 153.87 142 151.78 144.63C151.17 145.4 150.44 145.76 149.47 145.76C149.3 145.76 149.11 145.75 148.93 145.72C139.66 144.53 134.25 139.21 131.35 134.95C127.77 129.7 126.56 123.95 126.95 120.83C127.03 120.2 126.85 119.6 126.44 119.14C126.04 118.69 125.48 118.43 124.89 118.43C124.37 118.43 123.87 118.63 123.48 119C118.56 123.67 108.63 134.32 97.5005 153.25C81.0005 181.3 76.4805 203.11 81.9005 228.51C86.0905 248.18 98.7905 262.25 105.99 268.89C107.43 270.22 108.16 270.39 108.62 270.39C109.08 270.39 109.52 270.16 109.77 269.77C110.2 269.09 110.03 268.04 109.23 266.37C106.39 260.47 102.78 251.58 101.71 242.77C99.9505 228.28 108.53 207.58 125.93 198.03C130.99 195.25 136.43 192.89 142.19 190.39C156.9 184 172.11 177.39 180.08 163.61C188.81 148.52 185.64 126.81 183.86 118.18C183.84 118.07 183.82 117.98 183.81 117.89C183.85 117.93 183.9 117.97 183.95 118.02C189.37 123.29 201.62 137.52 198.47 155.9C196.11 169.7 195.4 179.1 196.17 186.38C197.09 195.11 200.29 200.92 205.95 204.15C207.12 204.81 208.31 205.15 209.48 205.15C217.11 205.15 222.29 191.04 224.69 182.63C224.8 182.24 225.13 182.1 225.4 182.1C225.57 182.1 225.87 182.15 226.05 182.5C229.28 188.76 234.94 202.02 236.57 220.5C238.39 241.19 231.36 261.02 228.25 268.58C228.03 269.11 228.09 269.68 228.4 270.15C228.72 270.62 229.24 270.9 229.8 270.9C230.22 270.9 230.62 270.74 230.93 270.45C234.21 267.38 240.45 261.01 245.3 252.8C251.65 242.07 259.71 213.41 254.31 182.22C252.15 169.71 242.78 153.47 226.48 133.93C214.38 119.43 202.76 108.43 202.65 108.33C194.04 100 166.17 67.7503 169.16 2.5603C169.19 1.9603 168.98 1.4003 168.58 0.980301C168.19 0.570301 167.64 0.330307 167.08 0.330307L167.09 0.320312Z" fill="#FEFBF7"/>
<path d="M291.71 339.241L179.6 354.791C179.6 355.811 178.44 356.631 177.01 356.631H158.83C157.39 356.631 156.23 355.801 156.23 354.781L44.1104 339.241L50.5004 321.191C50.5004 321.191 62.2603 325.411 71.0303 325.451C79.1503 325.491 106.59 321.181 125.64 322.671C154.54 324.931 167.93 341.581 167.93 341.581V341.631C167.93 341.631 167.94 341.621 167.96 341.591C168.67 340.741 182.11 325.171 210.22 323.001C229.27 321.531 256.71 325.781 264.83 325.741C273.6 325.701 285.36 321.551 285.36 321.551L291.71 339.241Z" fill="#FEFBF7" stroke="#FEFBF7" stroke-linecap="round" stroke-linejoin="round"/>
<path d="M167.93 341.142V310.352" stroke="#FEFBF7" stroke-miterlimit="10" stroke-linecap="round"/>
<path d="M121.9 282.901C120.5 283.051 119.16 283.221 117.89 283.401C104.35 285.301 90.5 279.691 90.5 279.691L50.5 321.191" stroke="#FEFBF7" stroke-linecap="round" stroke-linejoin="round"/>
<path d="M213.97 282.901C215.37 283.051 216.71 283.221 217.98 283.401C231.52 285.301 245.37 279.691 245.37 279.691L285.37 321.551" stroke="#FEFBF7" stroke-linecap="round" stroke-linejoin="round"/>
<path d="M180.61 318.141C181.38 317.531 182.25 317.121 183.09 316.711C189.83 313.401 197.34 311.541 205.4 310.731C212.96 309.971 220.44 310.471 227.9 311.381C233.33 312.041 238.75 312.791 244.22 313.271C249.73 313.751 255.1 313.351 260.3 311.921C260.7 311.811 261.1 311.701 261.5 311.591C261.92 311.471 262.21 311.571 262.38 311.861C262.43 311.941 262.46 312.031 262.5 312.111C263.76 314.451 264 313.851 261 314.641C254.89 316.261 248.59 316.571 242.17 315.831C235.34 315.041 228.52 314.181 221.67 313.501C210 312.351 198.83 313.451 188.4 317.561C186.9 318.151 185.42 318.791 184.12 319.591C183.3 320.091 182.8 319.981 182.21 319.441C181.74 319.001 181.17 318.611 180.6 318.151L180.61 318.141Z" fill="#FEFBF7" stroke="#FEFBF7" stroke-miterlimit="10"/>
<path d="M150.63 320.052C147.3 318.172 143.63 316.702 139.66 315.602C131.74 313.402 123.53 312.692 115.09 313.262C108 313.742 101.02 314.752 94.0104 315.612C86.4204 316.532 78.9904 316.432 71.7504 314.382C70.2904 313.972 70.2804 313.982 70.8604 312.922C71.6504 311.452 71.6704 311.422 73.7404 311.982C79.8904 313.642 86.1904 313.722 92.5904 312.982C99.6104 312.172 106.58 311.122 113.66 310.612C126.27 309.702 138.23 311.152 149.16 315.962C150.31 316.462 151.36 317.072 152.47 317.612C153.09 317.912 153.31 318.212 152.64 318.632C151.95 319.062 151.47 319.642 150.62 320.042L150.63 320.052Z" fill="#FEFBF7" stroke="#FEFBF7" stroke-miterlimit="10"/>
<path d="M219.02 301.512C223.09 301.412 226.9 302.102 230.72 302.742C235.09 303.472 239.48 304.022 244.01 303.662C246.82 303.442 249.57 303.022 252.27 302.442C253.48 302.182 253.54 302.192 253.94 303.072C254.85 305.092 255.27 304.622 252.36 305.262C244.82 306.912 237.27 306.802 229.69 305.382C226.13 304.722 222.54 304.162 218.82 304.182C216.6 304.192 214.42 304.442 212.28 304.822C211.69 304.932 211.4 304.872 211.23 304.412C210.26 301.822 209.97 302.422 213.26 301.862C215.17 301.532 217.14 301.432 219.01 301.502L219.02 301.512Z" fill="#FEFBF7" stroke="#FEFBF7" stroke-miterlimit="10"/>
<path d="M123.26 302.788C123.03 303.368 122.8 304.008 122.51 304.628C122.31 305.058 121.84 304.848 121.44 304.788C119.04 304.408 116.62 304.138 114.15 304.188C110.82 304.258 107.6 304.798 104.37 305.328C100.48 305.978 96.5901 306.558 92.5701 306.508C88.3101 306.458 84.1801 305.848 80.1101 304.998C79.1601 304.798 79.1901 304.518 79.4401 303.968C80.2801 302.188 80.2701 302.148 82.7501 302.678C89.5801 304.138 96.4001 303.998 103.25 302.708C107.35 301.938 111.49 301.368 115.77 301.478C117.99 301.538 120.16 301.768 122.32 302.118C122.76 302.188 123.36 302.208 123.25 302.778L123.26 302.788Z" fill="#FEFBF7" stroke="#FEFBF7" stroke-miterlimit="10"/>
<path d="M99.0697 296.692C94.9097 296.912 90.6996 295.902 88.8996 295.392C88.3996 295.252 88.1796 294.842 88.3996 294.492L89.2996 293.112C89.5096 292.792 90.0197 292.642 90.4797 292.772C92.1697 293.242 96.2496 294.212 99.7696 293.762C102.12 293.462 103.93 293.092 105.68 292.722C109.19 291.992 112.24 291.362 117.31 291.942C117.73 291.992 118.01 292.282 117.93 292.572L117.48 294.312C117.4 294.602 117.01 294.792 116.6 294.742C112.46 294.282 110.05 294.782 106.8 295.452C105.03 295.822 103.03 296.232 100.47 296.562C100.01 296.622 99.5397 296.662 99.0697 296.682V296.692Z" fill="#FEFBF7" stroke="#FEFBF7" stroke-miterlimit="10"/>
<path d="M234.81 296.692C238.97 296.912 243.18 295.902 244.98 295.392C245.48 295.252 245.7 294.842 245.48 294.492L244.58 293.112C244.37 292.792 243.86 292.642 243.4 292.772C241.71 293.242 237.63 294.212 234.11 293.762C231.76 293.462 229.95 293.092 228.2 292.722C224.69 291.992 221.64 291.362 216.57 291.942C216.15 291.992 215.87 292.282 215.95 292.572L216.4 294.312C216.48 294.602 216.87 294.792 217.28 294.742C221.42 294.282 223.83 294.782 227.08 295.452C228.85 295.822 230.85 296.232 233.41 296.562C233.87 296.622 234.34 296.662 234.81 296.682V296.692Z" fill="#FEFBF7" stroke="#FEFBF7" stroke-miterlimit="10"/>
<path d="M156.76 343.499C148.54 337.959 139.13 334.249 129.5 332.099C121.04 330.419 112.42 329.689 103.83 329.129C98.9297 328.849 98.6298 328.649 103.76 327.759C117.6 325.239 131.78 329.279 144.24 335.179C148.74 337.449 153.1 340.029 156.95 343.269L156.76 343.499Z" fill="#FEFAF7"/>
<path d="M149.35 345.012C144.35 343.492 139.13 342.742 133.93 342.442C128.69 342.302 123.5 342.472 118.26 341.962L118.24 341.762C125.95 339.222 134.18 340.542 141.9 342.302C144.46 342.972 147.01 343.732 149.42 344.832L149.34 345.012H149.35Z" fill="#FEFAF7"/>
<path d="M152.33 343.46C139.09 336.03 121.07 335.72 106.22 336.49C94.28 337.24 82.27 336.07 70.67 333.23C66.81 332.29 62.98 331.22 59.25 329.85L59.31 329.66C61.25 330.07 63.18 330.48 65.12 330.83C78.64 333.32 92.38 335.15 106.14 334.87C117.99 334.49 130.17 335.04 141.57 338.5C145.35 339.7 149.13 341.07 152.45 343.29L152.33 343.45V343.46Z" fill="#FEFAF7"/>
<path d="M178.92 343.742C186.73 337.352 196.1 333.022 205.78 330.242C215.48 327.242 225.93 326.482 235.84 328.982L235.81 329.282C234.54 329.432 233.29 329.512 232.05 329.602C223.45 330.162 214.83 330.892 206.38 332.572C196.75 334.732 187.34 338.442 179.12 343.972L178.93 343.742H178.92Z" fill="#FEFAF7"/>
<path d="M186.45 345.29C191.31 343.16 196.55 342.01 201.8 341.31C207.07 340.5 212.51 340.54 217.63 342.22L217.61 342.42C216.27 342.59 214.96 342.61 213.65 342.67C209.74 342.9 205.85 342.77 201.95 342.9C196.75 343.21 191.53 343.95 186.53 345.47L186.45 345.29Z" fill="#FEFAF7"/>
<path d="M183.43 343.769C196.8 335.699 214.47 334.959 229.74 335.339C243.5 335.609 257.24 333.789 270.76 331.299C272.71 330.949 274.64 330.539 276.57 330.129L276.63 330.319C272.9 331.689 269.07 332.759 265.21 333.699C253.6 336.539 241.6 337.709 229.66 336.959C214.16 336.039 197.24 336.809 183.43 343.769Z" fill="#FEFAF7"/>
<path d="M243.05 79.3109C247.458 79.3109 251.03 75.7068 251.03 71.2609C251.03 66.815 247.458 63.2109 243.05 63.2109C238.643 63.2109 235.07 66.815 235.07 71.2609C235.07 75.7068 238.643 79.3109 243.05 79.3109Z" fill="#FEFBF7"/>
<path d="M281.3 86.6613C282.71 86.2613 283.31 84.5813 282.48 83.3713C279.25 78.6513 278.01 78.8113 273.21 81.9913C267.66 85.6613 237.17 91.5613 221.33 66.0013C207.5 43.6913 208.96 42.2513 201.04 42.4713C193.12 42.6913 204.83 55.3713 211.26 74.2013C221.09 103.021 205.12 111.081 211.22 115.691C222.08 123.911 227.17 126.951 233.09 119.551C233.09 119.551 237.65 104.481 258.64 95.1213C269.49 90.2813 277.36 87.7713 281.29 86.6513L281.3 86.6613Z" fill="url(#paint0_linear_4391_238)"/>
<path d="M267.176 114.098C269.055 110.068 267.34 105.292 263.346 103.429C259.352 101.567 254.591 103.323 252.712 107.353C250.833 111.382 252.548 116.158 256.542 118.021C260.536 119.883 265.297 118.127 267.176 114.098Z" fill="#FEFBF7"/>
<path d="M247.64 163.14C247.64 163.14 243 126.33 250.5 122.76C258 119.19 258 123.12 264.78 122.76C271.56 122.4 272.99 123.83 272.99 130.26C272.99 136.69 276.2 165.13 268.71 164.65C261.21 164.17 251.58 168.54 247.65 163.14H247.64Z" fill="url(#paint1_linear_4391_238)"/>
<path d="M308.681 161.898C310.56 157.869 308.845 153.093 304.851 151.23C300.857 149.368 296.095 151.124 294.217 155.153C292.338 159.183 294.052 163.959 298.047 165.822C302.041 167.684 306.802 165.928 308.681 161.898Z" fill="#FEFBF7"/>
<path d="M291.7 133.08C291.7 133.08 282.87 165.5 292.77 169.78C302.68 174.06 312.37 169.25 314.99 164.16C319.54 155.33 313.12 125.34 316.33 124.27C319.54 123.2 321.95 120.79 323.02 124.27C324.09 127.75 322.79 163.31 319.65 188.82C317.31 207.8 318.43 213.83 312.27 214.37C306.11 214.91 290.01 215.64 288.67 209.32C287.33 203.01 273.76 133.91 281.53 128.02C289.29 122.13 292.79 129.95 291.7 133.08Z" fill="url(#paint2_linear_4391_238)"/>
<path d="M285.644 219.629C289.638 217.767 291.353 212.99 289.474 208.961C287.595 204.932 282.834 203.175 278.84 205.038C274.845 206.9 273.131 211.677 275.01 215.706C276.888 219.735 281.65 221.492 285.644 219.629Z" fill="#FEFBF7"/>
<path d="M299.98 190.362C299.98 190.362 299.44 220.262 289.27 223.252C279.1 226.242 267.85 217.132 266.25 225.702C264.64 234.272 268.39 264.342 270.53 266.972C272.67 269.602 289.27 272.902 291.41 266.972C293.55 261.042 314.43 187.502 307.12 186.962C299.8 186.422 300.08 187.842 299.98 190.352V190.362Z" fill="url(#paint3_linear_4391_238)"/>
<path d="M45.7596 88.639C45.7596 88.639 46.2996 118.539 56.4696 121.529C66.6396 124.519 77.8896 115.409 79.4896 123.979C81.0996 132.549 77.3496 162.619 75.2096 165.249C73.0696 167.879 56.4696 171.179 54.3296 165.249C52.1896 159.319 31.3096 85.779 38.6196 85.239C45.9396 84.699 45.6596 86.119 45.7596 88.629V88.639Z" fill="url(#paint4_linear_4391_238)"/>
<path d="M50.651 169.412C51.165 164.996 48.033 161.003 43.6553 160.493C39.2777 159.984 35.3121 163.15 34.798 167.566C34.2839 171.983 37.416 175.976 41.7937 176.485C46.1713 176.995 50.1369 173.828 50.651 169.412Z" fill="#FEFBF7"/>
<path d="M2.26015 179.649C0.890149 179.079 0.490161 177.339 1.46016 176.219C5.25016 171.869 6.47015 172.179 10.9001 175.919C16.0201 180.239 45.8602 189.699 64.6902 165.959C81.1302 145.239 79.8401 143.629 87.7401 144.769C95.6401 145.909 82.4502 157.239 73.8202 175.339C60.6202 203.039 75.6702 212.969 69.0202 216.879C57.1902 223.839 51.7402 226.299 46.6702 218.199C46.6702 218.199 43.8601 202.579 23.9301 190.769C13.6301 184.659 6.05016 181.229 2.24016 179.649H2.26015Z" fill="url(#paint5_linear_4391_238)"/>
<path d="M66.5045 211.383C68.3834 207.353 66.6685 202.577 62.6742 200.715C58.6799 198.852 53.9187 200.608 52.0398 204.638C50.1609 208.667 51.8757 213.444 55.87 215.306C59.8644 217.169 64.6256 215.412 66.5045 211.383Z" fill="#FEFBF7"/>
<path d="M110.543 81.9219C112.421 77.8925 110.707 73.1162 106.712 71.2536C102.718 69.391 97.9568 71.1475 96.0779 75.1769C94.1989 79.2062 95.9138 83.9826 99.9081 85.8451C103.902 87.7077 108.664 85.9512 110.543 81.9219Z" fill="#FEFBF7"/>
<path d="M93.56 53.0995C93.56 53.0995 84.73 85.5195 94.63 89.7995C104.53 94.0795 114.23 89.2695 116.85 84.1795C121.4 75.3495 114.98 45.3595 118.19 44.2895C121.4 43.2195 123.81 40.8095 124.88 44.2895C125.95 47.7695 124.65 83.3295 121.51 108.839C119.17 127.819 120.29 133.85 114.13 134.39C107.97 134.93 91.87 135.659 90.53 129.339C89.19 123.029 75.62 53.9295 83.39 48.0395C91.16 42.1495 94.65 49.9695 93.56 53.0995Z" fill="url(#paint6_linear_4391_238)"/>
<path d="M46.9699 260.44C46.9699 260.44 42.3299 223.63 49.8299 220.06C57.3299 216.49 57.3299 220.42 64.1099 220.06C70.8899 219.7 72.3199 221.13 72.3199 227.56C72.3199 233.99 75.5299 262.43 68.0399 261.95C60.5399 261.47 50.9099 265.84 46.9799 260.44H46.9699Z" fill="url(#paint7_linear_4391_238)"/>
<path d="M70.7408 113.953C72.6197 109.924 70.9048 105.147 66.9105 103.285C62.9162 101.422 58.155 103.179 56.2761 107.208C54.3972 111.237 56.1121 116.014 60.1064 117.876C64.1007 119.739 68.8618 117.982 70.7408 113.953Z" fill="#FEFBF7"/>
<defs>
<linearGradient id="paint0_linear_4391_238" x1="215.027" y1="119.389" x2="242.692" y2="60.0625" gradientUnits="userSpaceOnUse">
<stop stop-color="white" stop-opacity="0"/>
<stop offset="0.84" stop-color="#FEFBF7"/>
</linearGradient>
<linearGradient id="paint1_linear_4391_238" x1="259.95" y1="165.87" x2="259.95" y2="121.25" gradientUnits="userSpaceOnUse">
<stop stop-color="white" stop-opacity="0"/>
<stop offset="0.84" stop-color="#FEFBF7"/>
</linearGradient>
<linearGradient id="paint2_linear_4391_238" x1="301.27" y1="214.7" x2="301.27" y2="122.45" gradientUnits="userSpaceOnUse">
<stop stop-color="white" stop-opacity="0"/>
<stop offset="0.84" stop-color="#FEFBF7"/>
</linearGradient>
<linearGradient id="paint3_linear_4391_238" x1="287.26" y1="270.302" x2="287.26" y2="186.862" gradientUnits="userSpaceOnUse">
<stop stop-color="white" stop-opacity="0"/>
<stop offset="0.84" stop-color="#FEFBF7"/>
</linearGradient>
<linearGradient id="paint4_linear_4391_238" x1="58.4796" y1="168.579" x2="58.4796" y2="85.139" gradientUnits="userSpaceOnUse">
<stop stop-color="white" stop-opacity="0"/>
<stop offset="0.84" stop-color="#FEFBF7"/>
</linearGradient>
<linearGradient id="paint5_linear_4391_238" x1="62.4012" y1="221.28" x2="43.8067" y2="155.83" gradientUnits="userSpaceOnUse">
<stop stop-color="white" stop-opacity="0"/>
<stop offset="0.84" stop-color="#FEFBF7"/>
</linearGradient>
<linearGradient id="paint6_linear_4391_238" x1="103.13" y1="134.72" x2="103.13" y2="42.4695" gradientUnits="userSpaceOnUse">
<stop stop-color="white" stop-opacity="0"/>
<stop offset="0.84" stop-color="#FEFBF7"/>
</linearGradient>
<linearGradient id="paint7_linear_4391_238" x1="59.2799" y1="263.16" x2="59.2799" y2="218.55" gradientUnits="userSpaceOnUse">
<stop stop-color="white" stop-opacity="0"/>
<stop offset="0.84" stop-color="#FEFBF7"/>
</linearGradient>
</defs>
</svg>
