<svg width="323" height="358" viewBox="0 0 323 358" fill="none" xmlns="http://www.w3.org/2000/svg">
<path d="M167 268.932C184.557 268.932 198.79 254.699 198.79 237.142C198.79 219.584 184.557 205.352 167 205.352C149.443 205.352 135.21 219.584 135.21 237.142C135.21 254.699 149.443 268.932 167 268.932Z" stroke="#86171E" stroke-width="5" stroke-miterlimit="10"/>
<path d="M151.84 237.141H182.16" stroke="#86171E" stroke-width="3" stroke-linecap="round" stroke-linejoin="round"/>
<path d="M167 252.299V221.969" stroke="#86171E" stroke-width="3" stroke-linecap="round" stroke-linejoin="round"/>
<path d="M139.72 300.048C139.5 300.048 139.31 299.908 139.24 299.698C139.17 299.488 139.25 299.268 139.43 299.138L165.95 280.488C166.04 280.428 166.14 280.398 166.24 280.398C166.34 280.398 166.44 280.428 166.52 280.488L193.67 299.138C193.85 299.258 193.93 299.488 193.86 299.698C193.8 299.908 193.6 300.048 193.38 300.048H139.7H139.72Z" fill="#86171E"/>
<path d="M166.24 280.91L193.39 299.56H139.71L166.23 280.91M166.23 279.91C166.03 279.91 165.83 279.97 165.65 280.09L139.13 298.74C138.77 298.99 138.62 299.44 138.75 299.86C138.88 300.28 139.27 300.56 139.7 300.56H193.38C193.82 300.56 194.21 300.27 194.34 299.86C194.47 299.45 194.31 298.99 193.95 298.74L166.8 280.09C166.63 279.97 166.43 279.91 166.23 279.91Z" fill="#86171E"/>
<path d="M167 288.858C144.85 288.858 125.28 273.188 120.47 251.598C120.44 251.448 120.47 251.298 120.57 251.178C120.66 251.058 120.81 250.988 120.96 250.988H213.03C213.18 250.988 213.32 251.058 213.42 251.178C213.52 251.298 213.55 251.448 213.52 251.598C208.71 273.188 189.15 288.858 167 288.858Z" fill="#86171E"/>
<path d="M213.03 251.488C208.33 272.588 189.51 288.358 167 288.358C144.49 288.358 125.66 272.588 120.96 251.488H213.03ZM213.03 250.488H120.96C120.66 250.488 120.37 250.628 120.18 250.858C119.99 251.098 119.92 251.408 119.98 251.698C122.32 262.218 128.25 271.778 136.67 278.608C145.21 285.538 155.98 289.358 167 289.358C178.02 289.358 188.79 285.538 197.32 278.608C205.73 271.778 211.66 262.218 214 251.698C214.07 251.398 214 251.088 213.8 250.858C213.61 250.618 213.32 250.488 213.02 250.488H213.03Z" fill="#86171E"/>
<path d="M228.89 270.428C228.5 270.428 228.12 270.228 227.91 269.898C227.69 269.568 227.65 269.168 227.81 268.798C230.93 261.198 238 241.278 236.17 220.478C234.54 201.918 228.84 188.588 225.6 182.298C225.38 181.878 224.97 181.628 224.5 181.628C224.07 181.628 223.5 181.858 223.31 182.518C220.94 190.788 215.89 204.678 208.58 204.678C207.49 204.678 206.38 204.368 205.29 203.738C193.65 197.108 193.98 179.858 198.06 156.018C201.25 137.398 188.86 123.018 183.39 117.688C182.78 117.088 182.48 117.078 182.45 117.078C182.45 117.078 182.25 117.328 182.45 118.298C184.21 126.868 187.37 148.428 178.72 163.378C170.83 177.008 155.7 183.588 141.06 189.948C135.55 192.348 129.84 194.818 124.76 197.608C107.17 207.258 98.5002 228.188 100.28 242.848C101.36 251.728 104.99 260.668 107.85 266.608C108.78 268.548 108.62 269.208 108.42 269.528C108.26 269.778 108 269.918 107.69 269.918C107.14 269.918 106.39 269.468 105.4 268.548C98.2502 261.948 85.6202 247.968 81.4602 228.428C76.0802 203.168 80.5802 181.468 97.0102 153.528C108.11 134.658 117.99 124.038 122.9 119.388C123.19 119.108 123.57 118.958 123.96 118.958C124.41 118.958 124.84 119.158 125.14 119.498C125.45 119.848 125.59 120.308 125.53 120.788C125.11 124.108 126.34 129.868 130.02 135.248C132.99 139.588 138.5 145.018 147.95 146.228C148.16 146.258 148.36 146.268 148.56 146.268C149.67 146.268 150.56 145.838 151.26 144.958C153.42 142.248 154.81 133.978 149.23 110.018C148.99 108.998 148.91 108.638 148.9 108.498C144.89 83.0981 145.56 59.0281 150.87 36.9381C155.18 19.0181 161.49 7.09812 164.86 1.58812C165.15 1.10812 165.63 0.828125 166.17 0.828125C166.6 0.828125 167.02 1.00813 167.31 1.31813C167.62 1.63813 167.77 2.06812 167.75 2.52812C166.99 19.0581 167.18 75.5781 201.4 108.688C201.86 109.118 247.79 152.748 252.91 182.298C258.29 213.358 250.27 241.868 243.96 252.538C239.13 260.698 232.94 267.028 229.68 270.078C229.46 270.288 229.18 270.398 228.89 270.398V270.428Z" fill="#86171E"/>
<path d="M166.17 1.34813C166.73 1.34813 167.29 1.80812 167.25 2.52812C166.53 18.1681 166.46 75.6081 201.06 109.068C201.06 109.068 247.28 152.668 252.42 182.408C257.57 212.138 250.38 240.728 243.53 252.308C238.75 260.398 232.6 266.688 229.34 269.738C229.2 269.868 229.04 269.928 228.89 269.928C228.46 269.928 228.06 269.488 228.27 268.988C231.24 261.758 238.52 241.498 236.66 220.438C235.01 201.688 229.22 188.248 226.03 182.068C225.7 181.428 225.09 181.118 224.49 181.118C223.77 181.118 223.06 181.548 222.82 182.378C220.73 189.678 215.69 204.168 208.57 204.168C207.59 204.168 206.58 203.898 205.53 203.298C194.22 196.858 194.43 180.138 198.55 156.098C201.78 137.258 189.29 122.728 183.74 117.328C183.22 116.818 182.78 116.578 182.45 116.578C181.93 116.578 181.72 117.218 181.96 118.398C183.65 126.638 186.89 148.258 178.29 163.128C167.47 181.828 142.83 187.128 124.53 197.168C106.23 207.208 98.0603 228.578 99.8003 242.908C100.91 252.088 104.78 261.348 107.42 266.818C108.23 268.508 108.29 269.408 107.71 269.408C107.33 269.408 106.66 269.008 105.75 268.168C99.0003 261.938 86.1403 247.918 81.9603 228.318C76.2003 201.298 82.3503 179.448 97.4503 153.778C108.75 134.568 118.87 123.898 123.25 119.748C123.47 119.538 123.72 119.448 123.97 119.448C124.57 119.448 125.13 119.978 125.04 120.718C124.16 127.768 130.49 144.488 147.89 146.728C148.12 146.758 148.35 146.768 148.56 146.768C159.45 146.768 149.5 109.548 149.4 108.448C149.4 108.428 149.4 108.418 149.4 108.388C140.08 49.3781 158.67 12.6681 165.3 1.84813C165.52 1.48813 165.85 1.32812 166.18 1.32812M166.18 0.328125C165.47 0.328125 164.82 0.698125 164.44 1.32812C161.05 6.85813 154.72 18.8281 150.39 36.8181C145.06 58.9781 144.39 83.1081 148.41 108.548C148.43 108.718 148.49 109.018 148.75 110.128C154.28 133.888 152.96 142.018 150.87 144.638C150.26 145.408 149.53 145.768 148.56 145.768C148.39 145.768 148.2 145.758 148.02 145.728C138.75 144.538 133.34 139.218 130.44 134.958C126.86 129.708 125.65 123.958 126.04 120.838C126.12 120.208 125.94 119.608 125.53 119.148C125.13 118.698 124.57 118.438 123.98 118.438C123.46 118.438 122.96 118.638 122.57 119.008C117.65 123.678 107.72 134.328 96.5903 153.258C80.0903 181.308 75.5703 203.118 80.9903 228.518C85.1803 248.188 97.8803 262.258 105.08 268.898C106.52 270.228 107.25 270.398 107.71 270.398C108.17 270.398 108.61 270.168 108.86 269.778C109.29 269.098 109.12 268.048 108.32 266.378C105.48 260.478 101.87 251.588 100.8 242.778C99.0403 228.288 107.62 207.588 125.02 198.038C130.08 195.258 135.52 192.898 141.28 190.398C155.99 184.008 171.2 177.398 179.17 163.618C187.9 148.528 184.73 126.818 182.95 118.188C182.93 118.078 182.91 117.988 182.9 117.898C182.94 117.938 182.99 117.978 183.04 118.028C188.46 123.298 200.71 137.538 197.56 155.908C195.2 169.708 194.49 179.108 195.26 186.388C196.18 195.118 199.38 200.928 205.04 204.158C206.21 204.818 207.4 205.158 208.57 205.158C216.2 205.158 221.38 191.048 223.78 182.638C223.89 182.248 224.22 182.108 224.49 182.108C224.66 182.108 224.96 182.158 225.14 182.508C228.37 188.768 234.03 202.018 235.66 220.508C237.48 241.198 230.45 261.028 227.34 268.588C227.12 269.118 227.18 269.688 227.49 270.158C227.81 270.628 228.33 270.908 228.89 270.908C229.31 270.908 229.71 270.748 230.02 270.448C233.3 267.378 239.53 261.008 244.39 252.798C250.74 242.058 258.8 213.408 253.4 182.218C251.24 169.708 241.87 153.468 225.57 133.928C213.47 119.428 201.85 108.428 201.74 108.328C193.13 99.9981 165.26 67.7481 168.25 2.55812C168.28 1.95812 168.07 1.39812 167.67 0.978119C167.28 0.568119 166.73 0.328125 166.17 0.328125H166.18Z" fill="#86171E"/>
<path d="M290.8 339.261L178.69 354.811C178.69 355.831 177.53 356.651 176.1 356.651H157.92C156.48 356.651 155.32 355.821 155.32 354.801L43.2002 339.261L49.5902 321.211C49.5902 321.211 61.3502 325.431 70.1202 325.471C78.2402 325.511 105.68 321.201 124.73 322.691C153.63 324.951 167.02 341.601 167.02 341.601V341.651C167.02 341.651 167.03 341.641 167.05 341.611C167.76 340.761 181.2 325.191 209.31 323.021C228.36 321.551 255.8 325.801 263.92 325.761C272.69 325.721 284.45 321.571 284.45 321.571L290.8 339.261Z" fill="#881A21" stroke="#881A21" stroke-linecap="round" stroke-linejoin="round"/>
<path d="M167.02 341.171V310.371" stroke="#881A21" stroke-miterlimit="10" stroke-linecap="round"/>
<path d="M120.99 282.929C119.59 283.079 118.25 283.249 116.98 283.429C103.44 285.329 89.5898 279.719 89.5898 279.719L49.5898 321.219" stroke="#881A21" stroke-linecap="round" stroke-linejoin="round"/>
<path d="M213.06 282.929C214.46 283.079 215.8 283.249 217.07 283.429C230.61 285.329 244.46 279.719 244.46 279.719L284.46 321.579" stroke="#881A21" stroke-linecap="round" stroke-linejoin="round"/>
<path d="M179.7 318.161C180.47 317.551 181.34 317.141 182.18 316.731C188.92 313.421 196.43 311.561 204.49 310.751C212.05 309.991 219.53 310.491 226.99 311.401C232.42 312.061 237.84 312.811 243.31 313.291C248.82 313.771 254.19 313.371 259.39 311.941C259.79 311.831 260.19 311.721 260.59 311.611C261.01 311.491 261.3 311.591 261.47 311.881C261.52 311.961 261.55 312.051 261.59 312.131C262.85 314.471 263.09 313.871 260.09 314.661C253.98 316.281 247.68 316.591 241.26 315.851C234.43 315.061 227.61 314.201 220.76 313.521C209.09 312.371 197.92 313.471 187.49 317.581C185.99 318.171 184.51 318.811 183.21 319.611C182.39 320.111 181.89 320.001 181.3 319.461C180.83 319.021 180.26 318.631 179.69 318.171L179.7 318.161Z" fill="#881A21" stroke="#881A21" stroke-miterlimit="10"/>
<path d="M149.72 320.071C146.39 318.191 142.72 316.721 138.75 315.621C130.83 313.421 122.62 312.711 114.18 313.281C107.09 313.761 100.11 314.771 93.1003 315.631C85.5103 316.551 78.0803 316.451 70.8403 314.401C69.3803 313.991 69.3703 314.001 69.9503 312.941C70.7403 311.471 70.7603 311.441 72.8303 312.001C78.9803 313.661 85.2803 313.741 91.6803 313.001C98.7003 312.191 105.67 311.141 112.75 310.631C125.36 309.721 137.32 311.171 148.25 315.981C149.4 316.481 150.45 317.091 151.56 317.631C152.18 317.931 152.4 318.231 151.73 318.651C151.04 319.081 150.56 319.661 149.71 320.061L149.72 320.071Z" fill="#881A21" stroke="#881A21" stroke-miterlimit="10"/>
<path d="M218.11 301.539C222.18 301.439 225.99 302.129 229.81 302.769C234.18 303.499 238.57 304.049 243.1 303.689C245.91 303.469 248.66 303.049 251.36 302.469C252.57 302.209 252.63 302.219 253.03 303.099C253.94 305.119 254.36 304.649 251.45 305.289C243.91 306.939 236.36 306.829 228.78 305.409C225.22 304.749 221.63 304.189 217.91 304.209C215.69 304.219 213.51 304.469 211.37 304.849C210.78 304.959 210.49 304.899 210.32 304.439C209.35 301.849 209.06 302.449 212.35 301.889C214.26 301.559 216.23 301.459 218.1 301.529L218.11 301.539Z" fill="#881A21" stroke="#881A21" stroke-miterlimit="10"/>
<path d="M122.35 302.82C122.12 303.4 121.89 304.04 121.6 304.66C121.4 305.09 120.93 304.88 120.53 304.82C118.13 304.44 115.71 304.17 113.24 304.22C109.91 304.29 106.69 304.83 103.46 305.36C99.5699 306.01 95.6799 306.59 91.6599 306.54C87.3999 306.49 83.2699 305.88 79.1999 305.03C78.2499 304.83 78.2799 304.55 78.5299 304C79.3699 302.22 79.3599 302.18 81.8399 302.71C88.6699 304.17 95.4899 304.03 102.34 302.74C106.44 301.97 110.58 301.4 114.86 301.51C117.08 301.57 119.25 301.8 121.41 302.15C121.85 302.22 122.45 302.24 122.34 302.81L122.35 302.82Z" fill="#881A21" stroke="#881A21" stroke-miterlimit="10"/>
<path d="M98.1497 296.711C93.9897 296.931 89.7797 295.921 87.9797 295.411C87.4797 295.271 87.2597 294.861 87.4797 294.511L88.3797 293.131C88.5897 292.811 89.0997 292.661 89.5597 292.791C91.2497 293.261 95.3297 294.231 98.8497 293.781C101.2 293.481 103.01 293.111 104.76 292.741C108.27 292.011 111.32 291.381 116.39 291.961C116.81 292.011 117.09 292.301 117.01 292.591L116.56 294.331C116.48 294.621 116.09 294.811 115.68 294.761C111.54 294.301 109.13 294.801 105.88 295.471C104.11 295.841 102.11 296.251 99.5497 296.581C99.0897 296.641 98.6197 296.681 98.1497 296.701V296.711Z" fill="#881A21" stroke="#881A21" stroke-miterlimit="10"/>
<path d="M233.9 296.711C238.06 296.931 242.27 295.921 244.07 295.411C244.57 295.271 244.79 294.861 244.57 294.511L243.67 293.131C243.46 292.811 242.95 292.661 242.49 292.791C240.8 293.261 236.72 294.231 233.2 293.781C230.85 293.481 229.04 293.111 227.29 292.741C223.78 292.011 220.73 291.381 215.66 291.961C215.24 292.011 214.96 292.301 215.04 292.591L215.49 294.331C215.57 294.621 215.96 294.811 216.37 294.761C220.51 294.301 222.92 294.801 226.17 295.471C227.94 295.841 229.94 296.251 232.5 296.581C232.96 296.641 233.43 296.681 233.9 296.701V296.711Z" fill="#881A21" stroke="#881A21" stroke-miterlimit="10"/>
<path d="M155.85 343.519C147.63 337.979 138.22 334.269 128.59 332.119C120.13 330.439 111.51 329.709 102.91 329.149C98.0098 328.869 97.7098 328.669 102.84 327.779C116.68 325.259 130.86 329.299 143.32 335.199C147.82 337.469 152.18 340.049 156.03 343.289L155.84 343.519H155.85Z" fill="#FEFAF7"/>
<path d="M148.43 345.032C143.43 343.512 138.21 342.762 133.01 342.462C127.77 342.322 122.58 342.492 117.34 341.982L117.32 341.782C125.03 339.232 133.26 340.562 140.98 342.322C143.54 342.992 146.09 343.752 148.5 344.842L148.42 345.032H148.43Z" fill="#FEFAF7"/>
<path d="M151.42 343.491C138.18 336.061 120.16 335.751 105.31 336.521C93.3698 337.271 81.3598 336.101 69.7598 333.261C65.8998 332.321 62.0698 331.251 58.3398 329.881L58.3998 329.691C60.3398 330.101 62.2699 330.511 64.2099 330.861C77.7299 333.351 91.4699 335.181 105.23 334.901C117.08 334.521 129.26 335.071 140.66 338.531C144.44 339.731 148.22 341.101 151.54 343.321L151.42 343.481V343.491Z" fill="#FEFAF7"/>
<path d="M178.01 343.759C185.82 337.369 195.19 333.039 204.87 330.259C214.57 327.259 225.02 326.499 234.93 329.009L234.9 329.309C233.63 329.459 232.38 329.539 231.14 329.629C222.54 330.189 213.92 330.919 205.46 332.599C195.83 334.759 186.42 338.469 178.2 343.999L178.01 343.769V343.759Z" fill="#FEFAF7"/>
<path d="M185.54 345.322C190.4 343.192 195.64 342.042 200.89 341.342C206.16 340.532 211.6 340.572 216.72 342.252L216.7 342.452C211.47 342.962 206.27 342.792 201.03 342.932C195.83 343.242 190.61 343.982 185.61 345.502L185.53 345.322H185.54Z" fill="#FEFAF7"/>
<path d="M182.52 343.8C195.89 335.73 213.56 334.99 228.83 335.37C242.59 335.64 256.33 333.82 269.85 331.33C271.8 330.98 273.73 330.57 275.66 330.16L275.72 330.35C271.99 331.72 268.16 332.79 264.3 333.73C252.69 336.57 240.69 337.74 228.75 336.99C213.25 336.06 196.33 336.84 182.52 343.8Z" fill="#FEFAF7"/>
<path d="M242.13 79.3305C246.538 79.3305 250.11 75.7264 250.11 71.2805C250.11 66.8346 246.538 63.2305 242.13 63.2305C237.723 63.2305 234.15 66.8346 234.15 71.2805C234.15 75.7264 237.723 79.3305 242.13 79.3305Z" fill="#930017"/>
<path d="M281.03 87.0505C282.45 86.6505 283.06 84.9605 282.22 83.7405C278.96 78.9805 277.72 79.1405 272.87 82.3505C267.28 86.0505 236.55 91.9905 220.59 66.2405C206.65 43.7605 208.12 42.3105 200.14 42.5205C192.16 42.7405 203.96 55.5205 210.44 74.5005C220.35 103.541 204.25 111.671 210.4 116.321C221.35 124.601 226.48 127.671 232.45 120.211C232.45 120.211 237.04 105.021 258.2 95.5905C269.14 90.7205 277.06 88.1805 281.03 87.0505Z" fill="url(#paint0_linear_4391_237)"/>
<path d="M266.253 114.125C268.132 110.096 266.418 105.319 262.423 103.457C258.429 101.594 253.668 103.351 251.789 107.38C249.91 111.409 251.625 116.186 255.619 118.048C259.613 119.911 264.375 118.154 266.253 114.125Z" fill="#930017"/>
<path d="M246.73 163.171C246.73 163.171 242.09 126.361 249.59 122.791C257.09 119.221 257.09 123.151 263.87 122.791C270.65 122.431 272.08 123.861 272.08 130.291C272.08 136.721 275.29 165.161 267.8 164.681C260.3 164.201 250.67 168.571 246.74 163.171H246.73Z" fill="url(#paint1_linear_4391_237)"/>
<path d="M307.772 161.914C309.651 157.885 307.936 153.108 303.942 151.246C299.947 149.383 295.186 151.14 293.307 155.169C291.428 159.198 293.143 163.975 297.138 165.837C301.132 167.7 305.893 165.943 307.772 161.914Z" fill="#930017"/>
<path d="M290.79 133.099C290.79 133.099 281.959 165.519 291.859 169.799C301.769 174.079 311.459 169.269 314.079 164.179C318.629 155.349 312.21 125.359 315.42 124.289C318.63 123.219 321.039 120.809 322.109 124.289C323.179 127.769 321.88 163.329 318.74 188.839C316.4 207.819 317.519 213.849 311.359 214.389C305.199 214.929 289.1 215.659 287.76 209.339C286.42 203.029 272.85 133.929 280.62 128.039C288.38 122.149 291.88 129.969 290.79 133.099Z" fill="url(#paint2_linear_4391_237)"/>
<path d="M284.724 219.657C288.718 217.794 290.433 213.018 288.554 208.988C286.675 204.959 281.914 203.202 277.92 205.065C273.926 206.928 272.211 211.704 274.09 215.733C275.968 219.763 280.73 221.519 284.724 219.657Z" fill="#930017"/>
<path d="M299.07 190.389C299.07 190.389 298.53 220.289 288.36 223.279C278.19 226.269 266.94 217.159 265.34 225.729C263.73 234.299 267.48 264.369 269.62 266.999C271.76 269.629 288.36 272.929 290.5 266.999C292.64 261.069 313.52 187.529 306.21 186.989C298.9 186.449 299.17 187.869 299.07 190.379V190.389Z" fill="url(#paint3_linear_4391_237)"/>
<path d="M44.8504 88.6702C44.8504 88.6702 45.3904 118.57 55.5604 121.56C65.7304 124.55 76.9804 115.44 78.5804 124.01C80.1904 132.58 76.4404 162.65 74.3004 165.28C72.1604 167.91 55.5604 171.21 53.4204 165.28C51.2804 159.35 30.4004 85.8102 37.7104 85.2702C45.0304 84.7302 44.7504 86.1502 44.8504 88.6602V88.6702Z" fill="url(#paint4_linear_4391_237)"/>
<path d="M49.7437 169.439C50.2578 165.023 47.1258 161.03 42.7481 160.521C38.3704 160.011 34.4049 163.178 33.8908 167.594C33.3767 172.01 36.5088 176.003 40.8864 176.513C45.2641 177.022 49.2296 173.855 49.7437 169.439Z" fill="#930017"/>
<path d="M1.35 179.68C-0.019997 179.11 -0.42 177.37 0.55 176.25C4.34 171.9 5.56 172.21 9.99 175.95C15.11 180.27 44.95 189.73 63.78 165.99C80.22 145.27 78.93 143.66 86.83 144.8C94.73 145.94 81.54 157.27 72.91 175.37C59.71 203.07 74.76 213 68.11 216.91C56.28 223.87 50.83 226.33 45.76 218.23C45.76 218.23 42.95 202.61 23.02 190.8C12.72 184.69 5.14 181.26 1.33 179.68H1.35Z" fill="url(#paint5_linear_4391_237)"/>
<path d="M65.6002 211.422C67.4791 207.393 65.7642 202.616 61.7699 200.754C57.7756 198.891 53.0144 200.648 51.1355 204.677C49.2566 208.706 50.9714 213.483 54.9657 215.345C58.9601 217.208 63.7213 215.451 65.6002 211.422Z" fill="#930017"/>
<path d="M109.624 81.9492C111.502 77.9199 109.788 73.1435 105.793 71.2809C101.799 69.4184 97.0378 71.1749 95.1589 75.2042C93.28 79.2336 94.9949 84.0099 98.9892 85.8725C102.983 87.7351 107.745 85.9786 109.624 81.9492Z" fill="#930017"/>
<path d="M92.6498 53.119C92.6498 53.119 83.8199 85.539 93.7199 89.819C103.63 94.099 113.32 89.289 115.94 84.199C120.49 75.369 114.07 45.379 117.28 44.309C120.49 43.239 122.9 40.829 123.97 44.309C125.04 47.789 123.74 83.349 120.6 108.859C118.26 127.839 119.38 133.869 113.22 134.409C107.06 134.949 90.9598 135.679 89.6198 129.359C88.2798 123.049 74.7099 53.949 82.4799 48.059C90.2499 42.169 93.7398 49.989 92.6498 53.119Z" fill="url(#paint6_linear_4391_237)"/>
<path d="M46.0598 260.46C46.0598 260.46 41.4198 223.65 48.9198 220.08C56.4198 216.51 56.4198 220.44 63.1998 220.08C69.9798 219.72 71.4098 221.15 71.4098 227.58C71.4098 234.01 74.6198 262.45 67.1298 261.97C59.6298 261.49 49.9998 265.86 46.0698 260.46H46.0598Z" fill="url(#paint7_linear_4391_237)"/>
<path d="M69.8179 113.988C71.6968 109.959 69.982 105.183 65.9876 103.32C61.9933 101.457 57.2322 103.214 55.3533 107.243C53.4743 111.273 55.1892 116.049 59.1835 117.912C63.1778 119.774 67.939 118.018 69.8179 113.988Z" fill="#930017"/>
<defs>
<linearGradient id="paint0_linear_4391_237" x1="214.219" y1="120.091" x2="242.103" y2="60.2932" gradientUnits="userSpaceOnUse">
<stop stop-color="white" stop-opacity="0"/>
<stop offset="0.84" stop-color="#881A21"/>
</linearGradient>
<linearGradient id="paint1_linear_4391_237" x1="259.03" y1="165.901" x2="259.03" y2="121.281" gradientUnits="userSpaceOnUse">
<stop stop-color="white" stop-opacity="0"/>
<stop offset="0.84" stop-color="#881A21"/>
</linearGradient>
<linearGradient id="paint2_linear_4391_237" x1="300.36" y1="214.729" x2="300.36" y2="122.479" gradientUnits="userSpaceOnUse">
<stop stop-color="white" stop-opacity="0"/>
<stop offset="0.84" stop-color="#881A21"/>
</linearGradient>
<linearGradient id="paint3_linear_4391_237" x1="286.36" y1="270.319" x2="286.36" y2="186.879" gradientUnits="userSpaceOnUse">
<stop stop-color="white" stop-opacity="0"/>
<stop offset="0.84" stop-color="#881A21"/>
</linearGradient>
<linearGradient id="paint4_linear_4391_237" x1="57.5704" y1="168.6" x2="57.5704" y2="85.1602" gradientUnits="userSpaceOnUse">
<stop stop-color="white" stop-opacity="0"/>
<stop offset="0.84" stop-color="#881A21"/>
</linearGradient>
<linearGradient id="paint5_linear_4391_237" x1="61.4812" y1="221.312" x2="42.884" y2="155.852" gradientUnits="userSpaceOnUse">
<stop stop-color="white" stop-opacity="0"/>
<stop offset="0.84" stop-color="#881A21"/>
</linearGradient>
<linearGradient id="paint6_linear_4391_237" x1="102.21" y1="134.749" x2="102.21" y2="42.499" gradientUnits="userSpaceOnUse">
<stop stop-color="white" stop-opacity="0"/>
<stop offset="0.84" stop-color="#881A21"/>
</linearGradient>
<linearGradient id="paint7_linear_4391_237" x1="58.3598" y1="263.19" x2="58.3598" y2="218.57" gradientUnits="userSpaceOnUse">
<stop stop-color="white" stop-opacity="0"/>
<stop offset="0.84" stop-color="#881A21"/>
</linearGradient>
</defs>
</svg>
