<svg width="830" height="201" viewBox="0 0 830 201" fill="none" xmlns="http://www.w3.org/2000/svg">
<path d="M67.2341 114.475C59.3141 114.475 51.6691 113.155 44.2991 110.515C37.0391 107.875 30.6041 104.135 24.9941 99.295C19.3841 94.455 14.9291 88.625 11.6291 81.805C8.43914 74.985 6.84414 67.395 6.84414 59.035C6.84414 51.225 8.49414 43.91 11.7941 37.09C15.0941 30.16 19.6591 24.165 25.4891 19.105C31.4291 13.935 38.3041 9.92 46.1141 7.05999C53.9241 4.08999 62.3941 2.60499 71.5241 2.60499C75.5941 2.60499 79.2241 2.82499 82.4141 3.26499C85.6041 3.595 88.6841 4.09 91.6541 4.74999C94.6241 5.40999 97.8141 6.28999 101.224 7.39C102.654 7.82999 103.699 8.43499 104.359 9.205C105.129 9.97499 105.569 11.13 105.679 12.67C106.009 15.53 106.284 18.5 106.504 21.58C106.834 24.66 107.054 28.07 107.164 31.81C107.164 32.8 106.724 33.515 105.844 33.955C105.074 34.395 104.194 34.505 103.204 34.285C102.214 33.955 101.554 33.185 101.224 31.975C100.234 28.345 99.0791 25.1 97.7591 22.24C96.4391 19.38 94.5141 17.015 91.9841 15.145C89.4541 13.165 86.2091 11.625 82.2491 10.525C78.3991 9.425 74.0541 8.875 69.2141 8.875C63.0541 8.875 57.3891 10.14 52.2191 12.67C47.0491 15.2 42.6491 18.665 39.0191 23.065C35.3891 27.355 32.5291 32.25 30.4391 37.75C28.4591 43.25 27.4691 48.97 27.4691 54.91C27.4691 61.84 28.4041 68.495 30.2741 74.875C32.2541 81.255 35.0591 86.92 38.6891 91.87C42.4291 96.82 46.9391 100.78 52.2191 103.75C57.4991 106.61 63.4391 108.04 70.0391 108.04C77.9591 108.04 84.5041 106.28 89.6741 102.76C94.8441 99.13 99.1891 93.96 102.709 87.25C103.479 85.71 104.634 84.94 106.174 84.94C107.714 84.94 108.484 85.82 108.484 87.58C108.484 88.68 108.264 90.22 107.824 92.2C107.494 94.07 106.999 96.16 106.339 98.47C105.679 100.67 105.019 102.705 104.359 104.575C103.699 106.005 103.094 106.995 102.544 107.545C101.994 108.095 100.949 108.645 99.4091 109.195C95.2291 110.955 90.2791 112.275 84.5591 113.155C78.9491 114.035 73.1741 114.475 67.2341 114.475ZM167.713 114.145C160.233 114.145 153.358 112.44 147.088 109.03C140.818 105.62 135.813 101 132.073 95.17C128.333 89.34 126.463 82.795 126.463 75.535C126.463 70.585 127.508 65.8 129.598 61.18C131.688 56.45 134.603 52.215 138.343 48.475C142.083 44.735 146.483 41.82 151.543 39.73C156.603 37.53 162.103 36.43 168.043 36.43C173.543 36.43 178.823 37.365 183.883 39.235C189.053 40.995 193.618 43.635 197.578 47.155C201.648 50.565 204.838 54.58 207.148 59.2C209.568 63.82 210.778 68.935 210.778 74.545C210.778 81.255 209.073 87.635 205.663 93.685C202.363 99.735 197.523 104.685 191.143 108.535C184.873 112.275 177.063 114.145 167.713 114.145ZM169.858 107.71C174.038 107.71 177.503 106.775 180.253 104.905C183.113 103.035 185.368 100.56 187.018 97.48C188.778 94.4 189.988 91.045 190.648 87.415C191.418 83.675 191.803 79.99 191.803 76.36C191.803 70.53 190.758 65.03 188.668 59.86C186.688 54.69 183.828 50.51 180.088 47.32C176.458 44.02 172.058 42.37 166.888 42.37C162.268 42.37 158.363 43.8 155.173 46.66C151.983 49.52 149.508 53.26 147.748 57.88C146.098 62.5 145.273 67.505 145.273 72.895C145.273 79.275 146.208 85.105 148.078 90.385C149.948 95.665 152.698 99.9 156.328 103.09C159.958 106.17 164.468 107.71 169.858 107.71ZM274.18 114.145C272.97 114.145 271.815 112.99 270.715 110.68C266.645 102.54 262.85 94.455 259.33 86.425C255.92 78.395 252.18 69.87 248.11 60.85C247.56 59.75 247.12 59.255 246.79 59.365C246.46 59.365 246.185 59.86 245.965 60.85C245.745 63.6 245.415 67.12 244.975 71.41C244.535 75.59 244.15 80.1 243.82 84.94C243.6 89.67 243.325 94.235 242.995 98.635C242.995 100.505 243.435 102.375 244.315 104.245C245.195 106.005 247.12 107.105 250.09 107.545C251.08 107.655 251.96 107.93 252.73 108.37C253.5 108.81 253.885 109.47 253.885 110.35C253.885 111.01 253.5 111.505 252.73 111.835C252.07 112.165 251.41 112.33 250.75 112.33C248.66 112.33 247.065 112.275 245.965 112.165C244.865 112.055 243.875 111.945 242.995 111.835C242.225 111.725 241.07 111.67 239.53 111.67C237.88 111.67 236.34 111.725 234.91 111.835C233.48 111.945 232.05 112.055 230.62 112.165C229.19 112.275 227.65 112.33 226 112.33C225.34 112.33 224.625 112.165 223.855 111.835C223.195 111.505 222.865 111.01 222.865 110.35C222.865 109.47 223.25 108.865 224.02 108.535C224.9 108.095 225.725 107.82 226.495 107.71C229.135 107.27 231.17 106.225 232.6 104.575C234.03 102.815 234.91 100.78 235.24 98.47C235.68 95.94 236.175 92.805 236.725 89.065C237.275 85.325 237.825 81.42 238.375 77.35C239.035 73.17 239.585 69.155 240.025 65.305C240.575 61.455 241.015 58.045 241.345 55.075C241.785 52.105 242.005 50.015 242.005 48.805C242.005 46.715 241.18 45.23 239.53 44.35C237.99 43.47 235.625 42.755 232.435 42.205C231.445 41.985 230.51 41.655 229.63 41.215C228.86 40.665 228.475 40.005 228.475 39.235C228.475 38.465 228.805 37.915 229.465 37.585C230.235 37.255 230.95 37.09 231.61 37.09C233.81 37.09 235.57 37.145 236.89 37.255C238.32 37.255 239.75 37.31 241.18 37.42C242.72 37.53 244.81 37.585 247.45 37.585C249.43 37.585 250.695 37.64 251.245 37.75C251.905 37.75 252.62 37.805 253.39 37.915C254.05 38.465 254.545 38.905 254.875 39.235C255.315 39.455 255.7 39.895 256.03 40.555L278.305 89.56C278.855 90.55 279.295 91.1 279.625 91.21C280.065 91.21 280.505 90.715 280.945 89.725C284.905 81.035 288.37 73.225 291.34 66.295C294.31 59.255 297.17 52.325 299.92 45.505C300.58 44.075 301.24 42.535 301.9 40.885C302.56 39.125 303.11 38.245 303.55 38.245H309.325C312.625 38.135 315.815 37.915 318.895 37.585C322.085 37.255 324.725 37.09 326.815 37.09C327.585 37.09 328.355 37.255 329.125 37.585C329.895 37.915 330.28 38.465 330.28 39.235C330.28 40.005 329.895 40.665 329.125 41.215C328.355 41.765 327.475 42.15 326.485 42.37C323.295 42.92 320.93 43.745 319.39 44.845C317.96 45.835 317.245 47.65 317.245 50.29C317.355 54.47 317.465 58.265 317.575 61.675C317.685 64.975 317.74 68.11 317.74 71.08C317.85 74.05 317.96 77.02 318.07 79.99C318.18 82.85 318.29 85.93 318.4 89.23C318.62 92.42 318.895 96.05 319.225 100.12C319.445 102.43 320.27 104.135 321.7 105.235C323.24 106.335 325.33 107.105 327.97 107.545C328.85 107.655 329.675 107.93 330.445 108.37C331.325 108.81 331.765 109.47 331.765 110.35C331.765 111.01 331.38 111.505 330.61 111.835C329.84 112.165 329.125 112.33 328.465 112.33C326.595 112.33 324.67 112.275 322.69 112.165C320.71 112.055 318.785 111.945 316.915 111.835C315.155 111.615 313.34 111.505 311.47 111.505C309.49 111.505 307.51 111.615 305.53 111.835C303.55 111.945 301.57 112.055 299.59 112.165C297.72 112.275 295.74 112.33 293.65 112.33C293.1 112.33 292.44 112.165 291.67 111.835C290.9 111.505 290.515 111.01 290.515 110.35C290.515 109.47 290.9 108.81 291.67 108.37C292.44 107.93 293.265 107.655 294.145 107.545C296.895 107.105 298.875 106.39 300.085 105.4C301.405 104.3 302.065 102.595 302.065 100.285C301.955 95.885 301.9 91.595 301.9 87.415C301.9 83.235 301.845 79 301.735 74.71C301.625 70.42 301.46 65.965 301.24 61.345C301.13 60.135 300.855 59.585 300.415 59.695C299.975 59.695 299.535 60.245 299.095 61.345L277.48 110.68C276.93 111.89 276.38 112.77 275.83 113.32C275.39 113.87 274.84 114.145 274.18 114.145ZM346.229 112.495C345.569 112.495 344.854 112.33 344.084 112C343.424 111.56 343.094 111.01 343.094 110.35C343.094 109.47 343.479 108.81 344.249 108.37C345.129 107.93 345.954 107.6 346.724 107.38C349.364 106.83 351.564 106.06 353.324 105.07C355.084 103.97 355.964 102.1 355.964 99.46V52.765C355.964 49.795 355.359 47.485 354.149 45.835C352.939 44.185 350.684 43.085 347.384 42.535C346.504 42.315 345.679 41.93 344.909 41.38C344.249 40.83 343.919 40.17 343.919 39.4C343.919 38.74 344.249 38.245 344.909 37.915C345.679 37.475 346.394 37.255 347.054 37.255C348.924 37.255 350.684 37.31 352.334 37.42C353.984 37.53 355.634 37.695 357.284 37.915C358.934 38.025 360.529 38.08 362.069 38.08C365.919 38.08 369.879 38.08 373.949 38.08C378.019 37.97 381.924 37.915 385.664 37.915C389.404 37.805 392.704 37.75 395.564 37.75C398.534 37.64 400.734 37.585 402.164 37.585C402.604 37.585 403.099 37.695 403.649 37.915C404.309 38.135 404.639 38.575 404.639 39.235C404.749 42.865 405.079 46 405.629 48.64C406.179 51.17 406.454 53.15 406.454 54.58C406.454 55.02 406.289 55.515 405.959 56.065C405.739 56.615 405.464 56.89 405.134 56.89C404.694 56.89 404.144 56.67 403.484 56.23C402.824 55.79 402.274 55.075 401.834 54.085C400.514 50.895 399.139 48.365 397.709 46.495C396.389 44.515 394.134 43.525 390.944 43.525H377.414C376.424 43.525 375.379 43.855 374.279 44.515C373.289 45.065 372.794 46.055 372.794 47.485V68.11C372.794 68.88 373.014 69.705 373.454 70.585C373.894 71.355 374.444 71.74 375.104 71.74H386.324C388.084 71.74 389.404 71.19 390.284 70.09C391.274 68.88 392.154 67.12 392.924 64.81C393.254 64.15 393.639 63.6 394.079 63.16C394.519 62.61 395.014 62.335 395.564 62.335C396.114 62.335 396.554 62.61 396.884 63.16C397.324 63.6 397.489 64.205 397.379 64.975C397.159 66.625 396.994 68.275 396.884 69.925C396.774 71.575 396.719 73.115 396.719 74.545C396.719 76.195 396.774 77.735 396.884 79.165C397.104 80.485 397.269 82.08 397.379 83.95C397.489 84.72 397.379 85.49 397.049 86.26C396.829 86.92 396.444 87.25 395.894 87.25C395.014 87.25 394.354 86.81 393.914 85.93C393.474 84.94 393.144 84.17 392.924 83.62C392.374 81.42 391.549 79.935 390.449 79.165C389.459 78.395 388.359 77.955 387.149 77.845C385.609 77.625 383.794 77.515 381.704 77.515C379.724 77.515 377.909 77.515 376.259 77.515C374.939 77.515 374.004 77.68 373.454 78.01C373.014 78.34 372.794 79.165 372.794 80.485V99.46C372.794 101.99 373.124 103.64 373.784 104.41C374.444 105.18 375.874 105.565 378.074 105.565H392.594C396.004 105.565 398.974 104.465 401.504 102.265C404.034 100.065 405.849 97.59 406.949 94.84C407.169 94.4 407.444 93.905 407.774 93.355C408.214 92.695 408.764 92.365 409.424 92.365C410.084 92.365 410.524 92.695 410.744 93.355C410.964 93.905 411.074 94.51 411.074 95.17C410.964 97.48 410.579 99.9 409.919 102.43C409.369 104.96 408.709 107.435 407.939 109.855C407.829 110.515 407.444 111.12 406.784 111.67C406.124 112.11 405.409 112.33 404.639 112.33C401.559 112.33 398.259 112.275 394.739 112.165C391.219 112.165 387.644 112.11 384.014 112C380.494 112 376.919 111.945 373.289 111.835C369.769 111.725 366.414 111.67 363.224 111.67C361.354 111.67 359.429 111.78 357.449 112C355.579 112.11 353.709 112.22 351.839 112.33C349.969 112.44 348.099 112.495 346.229 112.495ZM482.232 115.63C478.052 115.63 474.202 114.86 470.682 113.32C467.162 111.89 464.302 109.8 462.102 107.05C460.012 104.3 458.967 101.055 458.967 97.315C458.967 93.135 459.902 89.505 461.772 86.425C463.642 83.345 466.172 80.705 469.362 78.505C472.662 76.195 476.292 74.105 480.252 72.235L482.397 71.245L479.757 68.275C478.657 67.065 477.447 65.8 476.127 64.48C474.917 63.05 473.872 61.455 472.992 59.695C472.112 57.825 471.672 55.735 471.672 53.425C471.672 50.125 472.662 47.21 474.642 44.68C476.732 42.15 479.427 40.225 482.727 38.905C486.137 37.585 489.657 36.925 493.287 36.925C499.117 36.925 503.792 38.245 507.312 40.885C510.832 43.525 512.647 46.66 512.757 50.29C512.757 53.7 511.602 56.56 509.292 58.87C506.982 61.18 503.847 63.6 499.887 66.13L497.742 67.285L515.727 86.755L517.872 84.61C520.842 81.64 523.042 78.78 524.472 76.03C525.902 73.28 526.617 71.355 526.617 70.255C526.617 68.825 526.232 67.945 525.462 67.615C524.692 67.175 523.812 66.845 522.822 66.625C522.272 66.405 521.722 66.075 521.172 65.635C520.622 65.195 520.347 64.755 520.347 64.315C520.347 63.765 520.677 63.325 521.337 62.995C522.107 62.555 522.877 62.335 523.647 62.335C524.197 62.335 525.407 62.445 527.277 62.665C529.257 62.775 531.292 62.885 533.382 62.995C535.472 63.105 537.012 63.16 538.002 63.16C540.092 63.16 542.512 62.83 545.262 62.17C548.012 61.4 550.322 61.015 552.192 61.015C552.522 61.015 552.907 61.18 553.347 61.51C553.787 61.73 554.007 61.95 554.007 62.17C554.007 62.72 553.567 63.325 552.687 63.985C551.917 64.535 551.092 64.865 550.212 64.975C548.012 65.305 545.977 65.965 544.107 66.955C542.347 67.945 540.917 68.935 539.817 69.925C539.157 70.475 538.057 71.465 536.517 72.895C535.087 74.325 533.437 75.975 531.567 77.845C529.807 79.715 527.992 81.53 526.122 83.29C524.252 85.05 522.657 86.59 521.337 87.91C520.017 89.23 519.137 90.055 518.697 90.385L521.337 93.52C524.197 96.93 526.727 99.9 528.927 102.43C531.127 104.85 533.767 106.06 536.847 106.06C538.717 106.06 540.477 105.785 542.127 105.235C543.777 104.575 545.372 103.75 546.912 102.76C547.242 102.54 547.627 102.32 548.067 102.1C548.507 101.88 548.947 101.77 549.387 101.77C550.597 101.77 551.202 102.485 551.202 103.915C551.202 104.795 550.322 106.17 548.562 108.04C546.802 109.91 544.547 111.615 541.797 113.155C539.047 114.805 536.132 115.63 533.052 115.63C527.992 115.63 523.867 114.695 520.677 112.825C517.487 111.065 514.022 107.985 510.282 103.585L507.477 100.12L506.652 100.945C504.012 103.805 501.537 106.39 499.227 108.7C497.027 110.9 494.607 112.605 491.967 113.815C489.327 115.025 486.082 115.63 482.232 115.63ZM486.522 105.73C489.492 105.73 492.352 105.07 495.102 103.75C497.962 102.43 500.712 100.615 503.352 98.305L504.342 97.315L502.527 95.005C500.327 92.255 497.797 89.34 494.937 86.26C492.077 83.18 489.217 79.935 486.357 76.525L484.542 74.05L482.562 75.205C478.822 77.295 476.182 79.88 474.642 82.96C473.102 86.04 472.332 89.065 472.332 92.035C472.332 94.455 472.937 96.71 474.147 98.8C475.467 100.89 477.227 102.595 479.427 103.915C481.627 105.125 483.992 105.73 486.522 105.73ZM495.267 64.48L496.917 63.325C498.567 62.005 499.722 60.19 500.382 57.88C501.152 55.57 501.537 53.315 501.537 51.115C501.537 48.255 500.767 45.835 499.227 43.855C497.687 41.875 495.597 40.885 492.957 40.885C490.757 40.885 488.887 41.71 487.347 43.36C485.807 44.9 484.982 46.715 484.872 48.805C484.872 50.235 485.092 51.5 485.532 52.6C485.972 53.7 486.687 54.91 487.677 56.23C488.777 57.44 490.207 59.035 491.967 61.015L495.267 64.48ZM626.087 114.475C621.467 114.475 617.122 113.815 613.052 112.495C608.982 111.285 605.242 109.415 601.832 106.885C601.392 106.445 600.897 105.95 600.347 105.4C599.907 104.74 599.577 104.08 599.357 103.42C598.587 100.89 598.037 97.755 597.707 94.015C597.487 90.165 597.322 86.755 597.212 83.785C597.212 83.015 597.542 82.465 598.202 82.135C598.862 81.695 599.632 81.475 600.512 81.475C601.282 81.475 601.887 81.64 602.327 81.97C602.877 82.19 603.262 82.685 603.482 83.455C605.792 91.815 609.202 98.085 613.712 102.265C618.222 106.335 623.117 108.37 628.397 108.37C632.137 108.37 635.327 107.545 637.967 105.895C640.717 104.245 642.862 102.045 644.402 99.295C645.942 96.435 646.712 93.245 646.712 89.725C646.712 85.545 645.997 82.135 644.567 79.495C643.137 76.855 641.047 74.49 638.297 72.4C635.547 70.31 632.137 68.055 628.067 65.635C623.667 62.995 619.322 60.245 615.032 57.385C610.852 54.525 607.387 51.17 604.637 47.32C601.887 43.47 600.512 38.74 600.512 33.13C600.512 27.19 601.887 21.965 604.637 17.455C607.497 12.835 611.622 9.205 617.012 6.56499C622.402 3.81499 628.892 2.43999 636.482 2.43999C640.442 2.43999 644.017 2.88 647.207 3.76C650.507 4.52999 653.147 5.35499 655.127 6.23499C656.117 6.565 656.887 7.115 657.437 7.88499C658.097 8.655 658.592 9.59 658.922 10.69C659.472 13 660.077 15.695 660.737 18.775C661.397 21.855 661.727 24.99 661.727 28.18C661.727 29.39 660.847 29.995 659.087 29.995C658.097 29.995 657.162 29.775 656.282 29.335C655.402 28.895 654.852 28.345 654.632 27.685C652.432 21.525 649.682 16.85 646.382 13.66C643.192 10.47 639.122 8.875 634.172 8.875C630.872 8.875 627.847 9.48 625.097 10.69C622.457 11.79 620.312 13.66 618.662 16.3C617.122 18.83 616.352 22.185 616.352 26.365C616.352 29.335 617.342 32.14 619.322 34.78C621.412 37.31 624.162 39.785 627.572 42.205C631.092 44.515 634.997 46.935 639.287 49.465C643.797 52.215 647.867 55.075 651.497 58.045C655.127 61.015 657.987 64.425 660.077 68.275C662.167 72.015 663.212 76.525 663.212 81.805C663.212 88.735 661.672 94.675 658.592 99.625C655.512 104.465 651.167 108.15 645.557 110.68C640.057 113.21 633.567 114.475 626.087 114.475ZM678.162 112.495C677.502 112.495 676.787 112.33 676.017 112C675.357 111.56 675.027 111.01 675.027 110.35C675.027 109.47 675.412 108.81 676.182 108.37C677.062 107.93 677.887 107.6 678.657 107.38C681.297 106.83 683.497 106.06 685.257 105.07C687.017 103.97 687.897 102.1 687.897 99.46V52.765C687.897 49.795 687.292 47.485 686.082 45.835C684.872 44.185 682.617 43.085 679.317 42.535C678.437 42.315 677.612 41.93 676.842 41.38C676.182 40.83 675.852 40.17 675.852 39.4C675.852 38.74 676.182 38.245 676.842 37.915C677.612 37.475 678.327 37.255 678.987 37.255C680.857 37.255 682.617 37.31 684.267 37.42C685.917 37.53 687.567 37.695 689.217 37.915C690.867 38.025 692.462 38.08 694.002 38.08C697.852 38.08 701.812 38.08 705.882 38.08C709.952 37.97 713.857 37.915 717.597 37.915C721.337 37.805 724.637 37.75 727.497 37.75C730.467 37.64 732.667 37.585 734.097 37.585C734.537 37.585 735.032 37.695 735.582 37.915C736.242 38.135 736.572 38.575 736.572 39.235C736.682 42.865 737.012 46 737.562 48.64C738.112 51.17 738.387 53.15 738.387 54.58C738.387 55.02 738.222 55.515 737.892 56.065C737.672 56.615 737.397 56.89 737.067 56.89C736.627 56.89 736.077 56.67 735.417 56.23C734.757 55.79 734.207 55.075 733.767 54.085C732.447 50.895 731.072 48.365 729.642 46.495C728.322 44.515 726.067 43.525 722.877 43.525H709.347C708.357 43.525 707.312 43.855 706.212 44.515C705.222 45.065 704.727 46.055 704.727 47.485V68.11C704.727 68.88 704.947 69.705 705.387 70.585C705.827 71.355 706.377 71.74 707.037 71.74H718.257C720.017 71.74 721.337 71.19 722.217 70.09C723.207 68.88 724.087 67.12 724.857 64.81C725.187 64.15 725.572 63.6 726.012 63.16C726.452 62.61 726.947 62.335 727.497 62.335C728.047 62.335 728.487 62.61 728.817 63.16C729.257 63.6 729.422 64.205 729.312 64.975C729.092 66.625 728.927 68.275 728.817 69.925C728.707 71.575 728.652 73.115 728.652 74.545C728.652 76.195 728.707 77.735 728.817 79.165C729.037 80.485 729.202 82.08 729.312 83.95C729.422 84.72 729.312 85.49 728.982 86.26C728.762 86.92 728.377 87.25 727.827 87.25C726.947 87.25 726.287 86.81 725.847 85.93C725.407 84.94 725.077 84.17 724.857 83.62C724.307 81.42 723.482 79.935 722.382 79.165C721.392 78.395 720.292 77.955 719.082 77.845C717.542 77.625 715.727 77.515 713.637 77.515C711.657 77.515 709.842 77.515 708.192 77.515C706.872 77.515 705.937 77.68 705.387 78.01C704.947 78.34 704.727 79.165 704.727 80.485V99.46C704.727 101.99 705.057 103.64 705.717 104.41C706.377 105.18 707.807 105.565 710.007 105.565H724.527C727.937 105.565 730.907 104.465 733.437 102.265C735.967 100.065 737.782 97.59 738.882 94.84C739.102 94.4 739.377 93.905 739.707 93.355C740.147 92.695 740.697 92.365 741.357 92.365C742.017 92.365 742.457 92.695 742.677 93.355C742.897 93.905 743.007 94.51 743.007 95.17C742.897 97.48 742.512 99.9 741.852 102.43C741.302 104.96 740.642 107.435 739.872 109.855C739.762 110.515 739.377 111.12 738.717 111.67C738.057 112.11 737.342 112.33 736.572 112.33C733.492 112.33 730.192 112.275 726.672 112.165C723.152 112.165 719.577 112.11 715.947 112C712.427 112 708.852 111.945 705.222 111.835C701.702 111.725 698.347 111.67 695.157 111.67C693.287 111.67 691.362 111.78 689.382 112C687.512 112.11 685.642 112.22 683.772 112.33C681.902 112.44 680.032 112.495 678.162 112.495ZM758.084 112.495C757.424 112.495 756.709 112.33 755.939 112C755.279 111.56 754.949 111.01 754.949 110.35C754.949 109.47 755.334 108.81 756.104 108.37C756.984 107.93 757.809 107.6 758.579 107.38C761.219 106.83 763.419 106.06 765.179 105.07C766.939 103.97 767.819 102.1 767.819 99.46V52.765C767.819 49.795 767.214 47.485 766.004 45.835C764.794 44.185 762.539 43.085 759.239 42.535C758.359 42.315 757.534 41.93 756.764 41.38C756.104 40.83 755.774 40.17 755.774 39.4C755.774 38.74 756.104 38.245 756.764 37.915C757.534 37.475 758.249 37.255 758.909 37.255C760.779 37.255 762.539 37.31 764.189 37.42C765.839 37.53 767.489 37.695 769.139 37.915C770.789 38.025 772.384 38.08 773.924 38.08C777.774 38.08 781.734 38.08 785.804 38.08C789.874 37.97 793.779 37.915 797.519 37.915C801.259 37.805 804.559 37.75 807.419 37.75C810.389 37.64 812.589 37.585 814.019 37.585C814.459 37.585 814.954 37.695 815.504 37.915C816.164 38.135 816.494 38.575 816.494 39.235C816.604 42.865 816.934 46 817.484 48.64C818.034 51.17 818.309 53.15 818.309 54.58C818.309 55.02 818.144 55.515 817.814 56.065C817.594 56.615 817.319 56.89 816.989 56.89C816.549 56.89 815.999 56.67 815.339 56.23C814.679 55.79 814.129 55.075 813.689 54.085C812.369 50.895 810.994 48.365 809.564 46.495C808.244 44.515 805.989 43.525 802.799 43.525H789.269C788.279 43.525 787.234 43.855 786.134 44.515C785.144 45.065 784.649 46.055 784.649 47.485V68.11C784.649 68.88 784.869 69.705 785.309 70.585C785.749 71.355 786.299 71.74 786.959 71.74H798.179C799.939 71.74 801.259 71.19 802.139 70.09C803.129 68.88 804.009 67.12 804.779 64.81C805.109 64.15 805.494 63.6 805.934 63.16C806.374 62.61 806.869 62.335 807.419 62.335C807.969 62.335 808.409 62.61 808.739 63.16C809.179 63.6 809.344 64.205 809.234 64.975C809.014 66.625 808.849 68.275 808.739 69.925C808.629 71.575 808.574 73.115 808.574 74.545C808.574 76.195 808.629 77.735 808.739 79.165C808.959 80.485 809.124 82.08 809.234 83.95C809.344 84.72 809.234 85.49 808.904 86.26C808.684 86.92 808.299 87.25 807.749 87.25C806.869 87.25 806.209 86.81 805.769 85.93C805.329 84.94 804.999 84.17 804.779 83.62C804.229 81.42 803.404 79.935 802.304 79.165C801.314 78.395 800.214 77.955 799.004 77.845C797.464 77.625 795.649 77.515 793.559 77.515C791.579 77.515 789.764 77.515 788.114 77.515C786.794 77.515 785.859 77.68 785.309 78.01C784.869 78.34 784.649 79.165 784.649 80.485V99.46C784.649 101.99 784.979 103.64 785.639 104.41C786.299 105.18 787.729 105.565 789.929 105.565H804.449C807.859 105.565 810.829 104.465 813.359 102.265C815.889 100.065 817.704 97.59 818.804 94.84C819.024 94.4 819.299 93.905 819.629 93.355C820.069 92.695 820.619 92.365 821.279 92.365C821.939 92.365 822.379 92.695 822.599 93.355C822.819 93.905 822.929 94.51 822.929 95.17C822.819 97.48 822.434 99.9 821.774 102.43C821.224 104.96 820.564 107.435 819.794 109.855C819.684 110.515 819.299 111.12 818.639 111.67C817.979 112.11 817.264 112.33 816.494 112.33C813.414 112.33 810.114 112.275 806.594 112.165C803.074 112.165 799.499 112.11 795.869 112C792.349 112 788.774 111.945 785.144 111.835C781.624 111.725 778.269 111.67 775.079 111.67C773.209 111.67 771.284 111.78 769.304 112C767.434 112.11 765.564 112.22 763.694 112.33C761.824 112.44 759.954 112.495 758.084 112.495Z" fill="#86171E"/>
<path d="M13.4764 169.65C13.4764 166.835 14.1051 164.32 15.3624 162.106C16.6471 159.865 18.3827 158.129 20.5694 156.899C22.7834 155.642 25.2571 155.013 27.9904 155.013C31.1884 155.013 33.9901 155.833 36.3954 157.473C38.8007 159.113 40.4817 161.382 41.4384 164.279H34.8374C34.1814 162.912 33.2521 161.887 32.0494 161.204C30.8741 160.521 29.5074 160.179 27.9494 160.179C26.2821 160.179 24.7924 160.575 23.4804 161.368C22.1957 162.133 21.1844 163.227 20.4464 164.648C19.7357 166.069 19.3804 167.737 19.3804 169.65C19.3804 171.536 19.7357 173.203 20.4464 174.652C21.1844 176.073 22.1957 177.18 23.4804 177.973C24.7924 178.738 26.2821 179.121 27.9494 179.121C29.5074 179.121 30.8741 178.779 32.0494 178.096C33.2521 177.385 34.1814 176.347 34.8374 174.98H41.4384C40.4817 177.905 38.8007 180.187 36.3954 181.827C34.0174 183.44 31.2157 184.246 27.9904 184.246C25.2571 184.246 22.7834 183.631 20.5694 182.401C18.3827 181.144 16.6471 179.408 15.3624 177.194C14.1051 174.98 13.4764 172.465 13.4764 169.65ZM67.9891 178.547H56.5911L54.7051 184H48.6781L58.9691 155.341H65.6521L75.9431 184H69.8751L67.9891 178.547ZM66.4311 173.955L62.2901 161.983L58.1491 173.955H66.4311ZM103.365 155.382V160.015H95.7387V184H89.9987V160.015H82.3727V155.382H103.365ZM135.392 155.382V184H129.652V171.823H117.393V184H111.653V155.382H117.393V167.149H129.652V155.382H135.392ZM158.426 184.287C155.747 184.287 153.287 183.658 151.046 182.401C148.804 181.144 147.028 179.408 145.716 177.194C144.404 174.953 143.748 172.424 143.748 169.609C143.748 166.821 144.404 164.32 145.716 162.106C147.028 159.865 148.804 158.115 151.046 156.858C153.287 155.601 155.747 154.972 158.426 154.972C161.132 154.972 163.592 155.601 165.806 156.858C168.047 158.115 169.81 159.865 171.095 162.106C172.407 164.32 173.063 166.821 173.063 169.609C173.063 172.424 172.407 174.953 171.095 177.194C169.81 179.408 168.047 181.144 165.806 182.401C163.564 183.658 161.104 184.287 158.426 184.287ZM158.426 179.162C160.148 179.162 161.665 178.779 162.977 178.014C164.289 177.221 165.314 176.101 166.052 174.652C166.79 173.203 167.159 171.522 167.159 169.609C167.159 167.696 166.79 166.028 166.052 164.607C165.314 163.158 164.289 162.051 162.977 161.286C161.665 160.521 160.148 160.138 158.426 160.138C156.704 160.138 155.173 160.521 153.834 161.286C152.522 162.051 151.497 163.158 150.759 164.607C150.021 166.028 149.652 167.696 149.652 169.609C149.652 171.522 150.021 173.203 150.759 174.652C151.497 176.101 152.522 177.221 153.834 178.014C155.173 178.779 156.704 179.162 158.426 179.162ZM187.173 179.449H196.603V184H181.433V155.382H187.173V179.449ZM210.091 155.382V184H204.351V155.382H210.091ZM218.468 169.65C218.468 166.835 219.097 164.32 220.354 162.106C221.639 159.865 223.375 158.129 225.561 156.899C227.775 155.642 230.249 155.013 232.982 155.013C236.18 155.013 238.982 155.833 241.387 157.473C243.793 159.113 245.474 161.382 246.43 164.279H239.829C239.173 162.912 238.244 161.887 237.041 161.204C235.866 160.521 234.499 160.179 232.941 160.179C231.274 160.179 229.784 160.575 228.472 161.368C227.188 162.133 226.176 163.227 225.438 164.648C224.728 166.069 224.372 167.737 224.372 169.65C224.372 171.536 224.728 173.203 225.438 174.652C226.176 176.073 227.188 177.18 228.472 177.973C229.784 178.738 231.274 179.121 232.941 179.121C234.499 179.121 235.866 178.779 237.041 178.096C238.244 177.385 239.173 176.347 239.829 174.98H246.43C245.474 177.905 243.793 180.187 241.387 181.827C239.009 183.44 236.208 184.246 232.982 184.246C230.249 184.246 227.775 183.631 225.561 182.401C223.375 181.144 221.639 179.408 220.354 177.194C219.097 174.98 218.468 172.465 218.468 169.65ZM286.974 155.382V160.015H275.043V167.354H284.186V171.905H275.043V184H269.303V155.382H286.974ZM308.428 184.287C305.749 184.287 303.289 183.658 301.048 182.401C298.807 181.144 297.03 179.408 295.718 177.194C294.406 174.953 293.75 172.424 293.75 169.609C293.75 166.821 294.406 164.32 295.718 162.106C297.03 159.865 298.807 158.115 301.048 156.858C303.289 155.601 305.749 154.972 308.428 154.972C311.134 154.972 313.594 155.601 315.808 156.858C318.049 158.115 319.812 159.865 321.097 162.106C322.409 164.32 323.065 166.821 323.065 169.609C323.065 172.424 322.409 174.953 321.097 177.194C319.812 179.408 318.049 181.144 315.808 182.401C313.567 183.658 311.107 184.287 308.428 184.287ZM308.428 179.162C310.15 179.162 311.667 178.779 312.979 178.014C314.291 177.221 315.316 176.101 316.054 174.652C316.792 173.203 317.161 171.522 317.161 169.609C317.161 167.696 316.792 166.028 316.054 164.607C315.316 163.158 314.291 162.051 312.979 161.286C311.667 160.521 310.15 160.138 308.428 160.138C306.706 160.138 305.175 160.521 303.836 161.286C302.524 162.051 301.499 163.158 300.761 164.607C300.023 166.028 299.654 167.696 299.654 169.609C299.654 171.522 300.023 173.203 300.761 174.652C301.499 176.101 302.524 177.221 303.836 178.014C305.175 178.779 306.706 179.162 308.428 179.162ZM346.195 184L339.881 172.848H337.175V184H331.435V155.382H342.177C344.391 155.382 346.277 155.778 347.835 156.571C349.393 157.336 350.555 158.389 351.32 159.728C352.113 161.04 352.509 162.516 352.509 164.156C352.509 166.042 351.963 167.75 350.869 169.281C349.776 170.784 348.15 171.823 345.99 172.397L352.837 184H346.195ZM337.175 168.543H341.972C343.53 168.543 344.692 168.174 345.457 167.436C346.223 166.671 346.605 165.618 346.605 164.279C346.605 162.967 346.223 161.956 345.457 161.245C344.692 160.507 343.53 160.138 341.972 160.138H337.175V168.543ZM393.002 155.382V184H387.262V165.386L379.595 184H375.249L367.541 165.386V184H361.801V155.382H368.32L377.422 176.661L386.524 155.382H393.002ZM420.325 178.547H408.927L407.041 184H401.014L411.305 155.341H417.988L428.279 184H422.211L420.325 178.547ZM418.767 173.955L414.626 161.983L410.485 173.955H418.767ZM455.7 155.382V160.015H448.074V184H442.334V160.015H434.708V155.382H455.7ZM469.729 155.382V184H463.989V155.382H469.729ZM492.784 184.287C490.105 184.287 487.645 183.658 485.404 182.401C483.162 181.144 481.386 179.408 480.074 177.194C478.762 174.953 478.106 172.424 478.106 169.609C478.106 166.821 478.762 164.32 480.074 162.106C481.386 159.865 483.162 158.115 485.404 156.858C487.645 155.601 490.105 154.972 492.784 154.972C495.49 154.972 497.95 155.601 500.164 156.858C502.405 158.115 504.168 159.865 505.453 162.106C506.765 164.32 507.421 166.821 507.421 169.609C507.421 172.424 506.765 174.953 505.453 177.194C504.168 179.408 502.405 181.144 500.164 182.401C497.922 183.658 495.462 184.287 492.784 184.287ZM492.784 179.162C494.506 179.162 496.023 178.779 497.335 178.014C498.647 177.221 499.672 176.101 500.41 174.652C501.148 173.203 501.517 171.522 501.517 169.609C501.517 167.696 501.148 166.028 500.41 164.607C499.672 163.158 498.647 162.051 497.335 161.286C496.023 160.521 494.506 160.138 492.784 160.138C491.062 160.138 489.531 160.521 488.192 161.286C486.88 162.051 485.855 163.158 485.117 164.607C484.379 166.028 484.01 167.696 484.01 169.609C484.01 171.522 484.379 173.203 485.117 174.652C485.855 176.101 486.88 177.221 488.192 178.014C489.531 178.779 491.062 179.162 492.784 179.162ZM540.268 184H534.528L521.531 164.361V184H515.791V155.341H521.531L534.528 175.021V155.341H540.268V184ZM595.111 155.382V184H589.371V165.386L581.704 184H577.358L569.65 165.386V184H563.91V155.382H570.429L579.531 176.661L588.633 155.382H595.111ZM610.626 155.382V184H604.886V155.382H610.626ZM644.874 184H639.134L626.137 164.361V184H620.397V155.341H626.137L639.134 175.021V155.341H644.874V184ZM660.387 155.382V184H654.647V155.382H660.387ZM680.039 184.287C678.043 184.287 676.239 183.945 674.627 183.262C673.041 182.579 671.784 181.595 670.855 180.31C669.925 179.025 669.447 177.508 669.42 175.759H675.57C675.652 176.934 676.062 177.864 676.8 178.547C677.565 179.23 678.604 179.572 679.916 179.572C681.255 179.572 682.307 179.258 683.073 178.629C683.838 177.973 684.221 177.126 684.221 176.087C684.221 175.24 683.961 174.543 683.442 173.996C682.922 173.449 682.266 173.026 681.474 172.725C680.708 172.397 679.642 172.042 678.276 171.659C676.417 171.112 674.9 170.579 673.725 170.06C672.577 169.513 671.579 168.707 670.732 167.641C669.912 166.548 669.502 165.099 669.502 163.295C669.502 161.6 669.925 160.124 670.773 158.867C671.62 157.61 672.809 156.653 674.34 155.997C675.87 155.314 677.62 154.972 679.588 154.972C682.54 154.972 684.931 155.696 686.763 157.145C688.621 158.566 689.646 160.562 689.838 163.131H683.524C683.469 162.147 683.045 161.341 682.253 160.712C681.487 160.056 680.462 159.728 679.178 159.728C678.057 159.728 677.155 160.015 676.472 160.589C675.816 161.163 675.488 161.997 675.488 163.09C675.488 163.855 675.734 164.498 676.226 165.017C676.745 165.509 677.374 165.919 678.112 166.247C678.877 166.548 679.943 166.903 681.31 167.313C683.168 167.86 684.685 168.406 685.861 168.953C687.036 169.5 688.047 170.32 688.895 171.413C689.742 172.506 690.166 173.941 690.166 175.718C690.166 177.249 689.769 178.67 688.977 179.982C688.184 181.294 687.022 182.346 685.492 183.139C683.961 183.904 682.143 184.287 680.039 184.287ZM718.717 155.382V160.015H711.091V184H705.351V160.015H697.725V155.382H718.717ZM741.765 184L735.451 172.848H732.745V184H727.005V155.382H737.747C739.961 155.382 741.847 155.778 743.405 156.571C744.963 157.336 746.125 158.389 746.89 159.728C747.683 161.04 748.079 162.516 748.079 164.156C748.079 166.042 747.532 167.75 746.439 169.281C745.346 170.784 743.719 171.823 741.56 172.397L748.407 184H741.765ZM732.745 168.543H737.542C739.1 168.543 740.262 168.174 741.027 167.436C741.792 166.671 742.175 165.618 742.175 164.279C742.175 162.967 741.792 161.956 741.027 161.245C740.262 160.507 739.1 160.138 737.542 160.138H732.745V168.543ZM763.111 155.382V184H757.371V155.382H763.111ZM778.622 160.015V167.19H788.257V171.741H778.622V179.326H789.487V184H772.882V155.341H789.487V160.015H778.622ZM808.684 184.287C806.689 184.287 804.885 183.945 803.272 183.262C801.687 182.579 800.43 181.595 799.5 180.31C798.571 179.025 798.093 177.508 798.065 175.759H804.215C804.297 176.934 804.707 177.864 805.445 178.547C806.211 179.23 807.249 179.572 808.561 179.572C809.901 179.572 810.953 179.258 811.718 178.629C812.484 177.973 812.866 177.126 812.866 176.087C812.866 175.24 812.607 174.543 812.087 173.996C811.568 173.449 810.912 173.026 810.119 172.725C809.354 172.397 808.288 172.042 806.921 171.659C805.063 171.112 803.546 170.579 802.37 170.06C801.222 169.513 800.225 168.707 799.377 167.641C798.557 166.548 798.147 165.099 798.147 163.295C798.147 161.6 798.571 160.124 799.418 158.867C800.266 157.61 801.455 156.653 802.985 155.997C804.516 155.314 806.265 154.972 808.233 154.972C811.185 154.972 813.577 155.696 815.408 157.145C817.267 158.566 818.292 160.562 818.483 163.131H812.169C812.115 162.147 811.691 161.341 810.898 160.712C810.133 160.056 809.108 159.728 807.823 159.728C806.703 159.728 805.801 160.015 805.117 160.589C804.461 161.163 804.133 161.997 804.133 163.09C804.133 163.855 804.379 164.498 804.871 165.017C805.391 165.509 806.019 165.919 806.757 166.247C807.523 166.548 808.589 166.903 809.955 167.313C811.814 167.86 813.331 168.406 814.506 168.953C815.682 169.5 816.693 170.32 817.54 171.413C818.388 172.506 818.811 173.941 818.811 175.718C818.811 177.249 818.415 178.67 817.622 179.982C816.83 181.294 815.668 182.346 814.137 183.139C812.607 183.904 810.789 184.287 808.684 184.287Z" fill="#86171E"/>
</svg>
