
<svg width="98" height="128" viewBox="0 0 98 128" fill="none" xmlns="http://www.w3.org/2000/svg">
    <path d="M10.8322 10.6748H87.6761C92.1545 10.6748 95.7562 14.4998 95.7562 19.1998V117.325C95.7562 122.05 92.1308 125.85 87.6761 125.85H10.8322C6.35376 125.85 2.75207 122.025 2.75207 117.325V19.1998C2.72837 14.4748 6.35376 10.6748 10.8322 10.6748Z" fill="#FFEFEF"/>
    <path d="M87.6539 10.6748H81.5879C86.0663 10.6748 89.668 14.4998 89.668 19.1998V117.325C89.668 122.05 86.0426 125.85 81.5879 125.85H87.6539C92.1323 125.85 95.734 122.025 95.734 117.325V19.1998C95.7577 14.4748 92.1323 10.6748 87.6539 10.6748Z" fill="#C17F7F"/>
    <path d="M39.1249 25.5998C41.3627 25.5998 43.1768 23.6858 43.1768 21.3248C43.1768 18.9638 41.3627 17.0498 39.1249 17.0498C36.8871 17.0498 35.073 18.9638 35.073 21.3248C35.073 23.6858 36.8871 25.5998 39.1249 25.5998Z" fill="#C17F7F"/>
    <path d="M18.9132 25.5998C21.151 25.5998 22.9651 23.6858 22.9651 21.3248C22.9651 18.9638 21.151 17.0498 18.9132 17.0498C16.6754 17.0498 14.8613 18.9638 14.8613 21.3248C14.8613 23.6858 16.6754 25.5998 18.9132 25.5998Z" fill="#C17F7F"/>
    <path d="M79.5724 25.5998C81.8102 25.5998 83.6243 23.6858 83.6243 21.3248C83.6243 18.9638 81.8102 17.0498 79.5724 17.0498C77.3346 17.0498 75.5205 18.9638 75.5205 21.3248C75.5205 23.6858 77.3346 25.5998 79.5724 25.5998Z" fill="#C17F7F"/>
    <path d="M59.3607 25.5998C61.5985 25.5998 63.4126 23.6858 63.4126 21.3248C63.4126 18.9638 61.5985 17.0498 59.3607 17.0498C57.1229 17.0498 55.3088 18.9638 55.3088 21.3248C55.3088 23.6858 57.1229 25.5998 59.3607 25.5998Z" fill="#C17F7F"/>
    <path d="M16.8983 68.2749H29.0303C30.144 68.2749 31.0444 69.2249 31.0444 70.3999V83.1999C31.0444 84.3749 30.144 85.3249 29.0303 85.3249H16.8983C15.7847 85.3249 14.8842 84.3749 14.8842 83.1999V70.3999C14.8605 69.2249 15.7847 68.2749 16.8983 68.2749Z" fill="#FFEFEF"/>
    <path d="M29.0299 68.2749H22.9639C24.0775 68.2749 24.978 69.2249 24.978 70.3999V83.1999C24.978 84.3749 24.0775 85.3249 22.9639 85.3249H29.0299C30.1435 85.3249 31.044 84.3749 31.044 83.1999V70.3999C31.044 69.2249 30.1435 68.2749 29.0299 68.2749Z" fill="#C17F7F"/>
    <path d="M16.8983 93.875H29.0303C30.144 93.875 31.0444 94.825 31.0444 96V108.8C31.0444 109.975 30.144 110.925 29.0303 110.925H16.8983C15.7847 110.925 14.8842 109.975 14.8842 108.8V96C14.8605 94.825 15.7847 93.875 16.8983 93.875Z" fill="#FFEFEF"/>
    <path d="M29.0299 93.875H22.9639C24.0775 93.875 24.978 94.825 24.978 96V108.8C24.978 109.975 24.0775 110.925 22.9639 110.925H29.0299C30.1435 110.925 31.044 109.975 31.044 108.8V96C31.044 94.825 30.1435 93.875 29.0299 93.875Z" fill="#C17F7F"/>
    <path d="M2.72852 117.325C2.72852 122.05 6.3539 125.85 10.8086 125.85H16.8746C12.3962 125.85 8.79452 122.025 8.79452 117.325V19.1998C8.79452 14.4748 12.4199 10.6748 16.8746 10.6748H10.8323C6.3539 10.6748 2.75221 14.4998 2.75221 19.1998V117.325H2.72852Z" fill="white"/>
    <path d="M0.714844 100.275H4.76674V117.35H0.714844V100.275Z" fill="white"/>
    <path d="M2.72895 110.925C3.8413 110.925 4.74305 109.973 4.74305 108.8C4.74305 107.626 3.8413 106.675 2.72895 106.675C1.61659 106.675 0.714844 107.626 0.714844 108.8C0.714844 109.973 1.61659 110.925 2.72895 110.925Z" fill="#7B0000"/>
    <path d="M10.8327 128H87.6767C93.2688 128 97.7709 123.225 97.7946 117.325V19.2C97.7946 13.3 93.2688 8.55 87.6767 8.525H81.6107V2.125C81.6107 0.95 80.7102 0 79.5966 0C78.4829 0 77.5825 0.95 77.5825 2.125V8.525H61.3986V2.125C61.3986 0.95 60.4981 0 59.3845 0C58.2708 0 57.3703 0.95 57.3703 2.125V8.525H41.1865V2.125C41.1865 0.95 40.286 0 39.1723 0C38.0587 0 37.1582 0.95 37.1582 2.125V8.525H20.9743V2.125C20.9743 0.95 20.0739 0 18.9602 0C17.8466 0 16.9461 0.95 16.9461 2.125V8.525H10.8327C5.24065 8.525 0.738539 13.3 0.714844 19.2V100.275C0.714844 101.45 1.61527 102.4 2.72895 102.4C3.84263 102.4 4.74305 101.45 4.74305 100.275V36.275C5.85673 36.275 6.75715 35.325 6.75715 34.15C6.75715 32.975 5.88042 32 4.76674 32V19.2C4.76674 15.675 7.49171 12.8 10.8327 12.8H16.8987V15.325C14.1027 16.375 12.444 19.375 12.9416 22.45C13.4392 25.525 15.9509 27.75 18.9128 27.75C21.8748 27.75 24.3865 25.5 24.8841 22.425C25.3817 19.35 23.723 16.35 20.927 15.3V12.8H37.1109V15.325C34.3148 16.375 32.6561 19.375 33.1537 22.45C33.6513 25.525 36.1867 27.775 39.125 27.775C42.0869 27.775 44.5986 25.525 45.0962 22.45C45.5938 19.375 43.9351 16.375 41.1391 15.325V12.8H57.323V15.325C54.5269 16.375 52.8682 19.375 53.3658 22.45C53.8634 25.525 56.3988 27.775 59.3371 27.775C62.2753 27.775 64.8107 25.525 65.3083 22.45C65.8059 19.375 64.1472 16.375 61.3512 15.325V12.8H77.5351V15.325C74.739 16.375 73.0804 19.375 73.5779 22.45C74.0756 25.525 76.6109 27.75 79.5729 27.75C82.5348 27.75 85.0465 25.5 85.5441 22.425C86.0417 19.35 84.383 16.35 81.587 15.3V12.8H87.653C90.994 12.8 93.719 15.675 93.719 19.2V32C92.6053 32 91.7049 32.95 91.7049 34.125C91.7049 35.3 92.6053 36.25 93.719 36.25V117.325C93.719 120.85 90.994 123.725 87.653 123.725H10.8327C7.49171 123.725 4.76674 120.85 4.76674 117.325C4.76674 116.15 3.86632 115.2 2.75264 115.2C1.63896 115.2 0.738539 116.15 0.738539 117.325C0.714843 123.225 5.24065 128 10.8327 128ZM18.9128 23.475C17.7992 23.475 16.8987 22.525 16.8987 21.35C16.8987 20.175 17.7992 19.225 18.9128 19.225C20.0265 19.225 20.927 20.175 20.927 21.35C20.927 22.525 20.0265 23.475 18.9128 23.475ZM39.125 23.475C38.0113 23.475 37.1109 22.525 37.1109 21.35C37.1109 20.175 38.0113 19.225 39.125 19.225C40.2386 19.225 41.1391 20.175 41.1391 21.35C41.1391 22.525 40.2386 23.475 39.125 23.475ZM59.3608 23.475C58.2471 23.475 57.3467 22.525 57.3467 21.35C57.3467 20.175 58.2471 19.225 59.3608 19.225C60.4744 19.225 61.3749 20.175 61.3749 21.35C61.3749 22.525 60.4744 23.475 59.3608 23.475ZM79.5729 23.475C78.4592 23.475 77.5588 22.525 77.5588 21.35C77.5588 20.175 78.4592 19.225 79.5729 19.225C80.6865 19.225 81.587 20.175 81.587 21.35C81.587 22.525 80.6865 23.475 79.5729 23.475Z" fill="#7B0000"/>
    <path d="M14.8612 32H12.8471C11.7334 32 10.833 32.95 10.833 34.125C10.833 35.3 11.7334 36.25 12.8471 36.25H14.8612C15.9749 36.25 16.8753 35.3 16.8753 34.125C16.8753 32.95 15.9749 32 14.8612 32Z" fill="#7B0000"/>
    <path d="M24.9784 36.2749C26.0921 36.2749 26.9925 35.3249 26.9925 34.1499C26.9925 32.9749 26.0921 32.0249 24.9784 32.0249H22.9643C21.8506 32.0249 20.9502 32.9749 20.9502 34.1499C20.9502 35.3249 21.8506 36.2749 22.9643 36.2749H24.9784Z" fill="#7B0000"/>
    <path d="M35.0966 36.2749C36.2102 36.2749 37.1107 35.3249 37.1107 34.1499C37.1107 32.9749 36.2102 32.0249 35.0966 32.0249H33.0825C31.9688 32.0249 31.0684 32.9749 31.0684 34.1499C31.0684 35.3249 31.9688 36.2749 33.0825 36.2749H35.0966Z" fill="#7B0000"/>
    <path d="M43.1762 36.2749H45.1903C46.304 36.2749 47.2044 35.3249 47.2044 34.1499C47.2044 32.9749 46.304 32.0249 45.1903 32.0249H43.1762C42.0625 32.0249 41.1621 32.9749 41.1621 34.1499C41.1621 35.3249 42.0625 36.2749 43.1762 36.2749Z" fill="#7B0000"/>
    <path d="M55.3087 36.2749C56.4224 36.2749 57.3228 35.3249 57.3228 34.1499C57.3228 32.9749 56.4224 32.0249 55.3087 32.0249H53.2946C52.1809 32.0249 51.2805 32.9749 51.2805 34.1499C51.2805 35.3249 52.1809 36.2749 53.2946 36.2749H55.3087Z" fill="#7B0000"/>
    <path d="M65.4276 36.2749C66.5413 36.2749 67.4417 35.3249 67.4417 34.1499C67.4417 32.9749 66.5413 32.0249 65.4276 32.0249H63.4135C62.2998 32.0249 61.3994 32.9749 61.3994 34.1499C61.3994 35.3249 62.2998 36.2749 63.4135 36.2749H65.4276Z" fill="#7B0000"/>
    <path d="M75.5206 36.2749C76.6343 36.2749 77.5347 35.3249 77.5347 34.1499C77.5347 32.9749 76.6343 32.0249 75.5206 32.0249H73.5065C72.3929 32.0249 71.4924 32.9749 71.4924 34.1499C71.4924 35.3249 72.3929 36.2749 73.5065 36.2749H75.5206Z" fill="#7B0000"/>
    <path d="M85.6386 36.2749C86.7522 36.2749 87.6527 35.3249 87.6527 34.1499C87.6527 32.9749 86.7522 32.0249 85.6386 32.0249H83.6245C82.5108 32.0249 81.6104 32.9749 81.6104 34.1499C81.6104 35.3249 82.5108 36.2749 83.6245 36.2749H85.6386Z" fill="#7B0000"/>
    <path d="M33.059 70.4C33.059 68.05 31.2582 66.125 29.0071 66.125H16.8751C14.6478 66.125 12.8232 68.025 12.8232 70.4V83.2C12.8232 85.55 14.6241 87.475 16.8751 87.475H29.0071C31.2345 87.475 33.059 85.575 33.059 83.2V70.4ZM16.8988 83.2V70.4H29.0308V83.2H16.8988Z" fill="#7B0000"/>
    <path d="M29.0306 91.7251H16.8986C14.6712 91.7251 12.8467 93.6251 12.8467 96.0001V108.8C12.8467 111.15 14.6475 113.075 16.8986 113.075H29.0306C31.2579 113.075 33.0825 111.175 33.0825 108.8V96.0001C33.0588 93.6501 31.2579 91.7251 29.0306 91.7251ZM16.8986 108.8V96.0001H29.0306V108.8H16.8986Z" fill="#7B0000"/>
    <path d="M16.093 53.75C15.1926 53.05 13.9367 53.225 13.2733 54.175C12.6098 55.125 12.7757 56.45 13.6761 57.15L19.0786 61.425C19.908 62.1 21.0927 61.975 21.8036 61.125L32.5849 48.325C33.0589 47.75 33.2247 46.95 32.9878 46.225C32.7508 45.5 32.1821 44.95 31.4713 44.8C30.7604 44.65 30.0259 44.9 29.5519 45.475L20.0027 56.8L16.093 53.75Z" fill="#7B0000"/>
    <path d="M43.1762 51.2002H53.2941C54.4078 51.2002 55.3082 50.2502 55.3082 49.0752C55.3082 47.9002 54.4078 46.9502 53.2941 46.9502H43.1762C42.0625 46.9502 41.1621 47.9002 41.1621 49.0752C41.1621 50.2502 42.0625 51.2002 43.1762 51.2002Z" fill="#7B0000"/>
    <path d="M59.3613 49.0747C59.3613 50.2497 60.2618 51.1997 61.3754 51.1997H83.6253C84.739 51.1997 85.6394 50.2497 85.6394 49.0747C85.6394 47.8997 84.739 46.9497 83.6253 46.9497H61.3754C60.2618 46.9247 59.3613 47.8997 59.3613 49.0747Z" fill="#7B0000"/>
    <path d="M43.1762 59.7251H67.4402C68.5539 59.7251 69.4543 58.7751 69.4543 57.6001C69.4543 56.4251 68.5539 55.4751 67.4402 55.4751H43.1762C42.0625 55.4751 41.1621 56.4251 41.1621 57.6001C41.1621 58.7751 42.0625 59.7251 43.1762 59.7251Z" fill="#7B0000"/>
    <path d="M43.1762 74.6748H53.2941C54.4078 74.6748 55.3082 73.7248 55.3082 72.5498C55.3082 71.3748 54.4078 70.4248 53.2941 70.4248H43.1762C42.0625 70.4248 41.1621 71.3748 41.1621 72.5498C41.1621 73.6998 42.0625 74.6748 43.1762 74.6748Z" fill="#7B0000"/>
    <path d="M83.6253 70.3999H61.3754C60.2618 70.3999 59.3613 71.3499 59.3613 72.5249C59.3613 73.6999 60.2618 74.6499 61.3754 74.6499H83.6253C84.739 74.6499 85.6394 73.6999 85.6394 72.5249C85.6394 71.3499 84.739 70.3999 83.6253 70.3999Z" fill="#7B0000"/>
    <path d="M43.1762 83.2002H67.4402C68.5539 83.2002 69.4543 82.2502 69.4543 81.0752C69.4543 79.9002 68.5539 78.9502 67.4402 78.9502H43.1762C42.0625 78.9502 41.1621 79.9002 41.1621 81.0752C41.1621 82.2502 42.0625 83.2002 43.1762 83.2002Z" fill="#7B0000"/>
    <path d="M43.1762 98.125H53.2941C54.4078 98.125 55.3082 97.175 55.3082 96C55.3082 94.825 54.4078 93.875 53.2941 93.875H43.1762C42.0625 93.875 41.1621 94.825 41.1621 96C41.1621 97.175 42.0625 98.125 43.1762 98.125Z" fill="#7B0000"/>
    <path d="M83.6253 93.875H61.3754C60.2618 93.875 59.3613 94.825 59.3613 96C59.3613 97.175 60.2618 98.125 61.3754 98.125H83.6253C84.739 98.125 85.6394 97.175 85.6394 96C85.6394 94.825 84.739 93.875 83.6253 93.875Z" fill="#7B0000"/>
    <path d="M43.1762 106.675H67.4402C68.5539 106.675 69.4543 105.725 69.4543 104.55C69.4543 103.375 68.5539 102.425 67.4402 102.425H43.1762C42.0625 102.425 41.1621 103.375 41.1621 104.55C41.1621 105.725 42.0625 106.675 43.1762 106.675Z" fill="#7B0000"/>
</svg>
