
<svg width="86" height="128" viewBox="0 0 86 128" fill="none" xmlns="http://www.w3.org/2000/svg">
    <path d="M39.0704 2.125H47.0924C58.1961 2.125 67.1826 11.675 67.1826 23.475V61.875C67.1826 73.65 58.1961 83.2 47.1159 83.2H39.0939C28.0137 83.2 19.0271 73.65 19.0271 61.875V23.475C19.0036 11.675 27.9901 2.125 39.0704 2.125Z" fill="#FFEFEF"/>
    <path d="M47.0942 2.125H41.0718C52.152 2.125 61.1385 11.675 61.1385 23.45V61.85C61.1385 73.625 52.152 83.175 41.0718 83.175H47.0942C58.1744 83.175 67.1609 73.625 67.1609 61.85V23.475C67.1609 11.675 58.1744 2.125 47.0942 2.125Z" fill="#C17F7F"/>
    <path d="M18.98 21.3252H33.0243C35.2357 21.3252 37.0471 23.2252 37.0471 25.6002C37.0471 27.9752 35.2592 29.8752 33.0243 29.8752H18.98V21.3252Z" fill="#C17F7F"/>
    <path d="M18.98 38.4004H33.0243C35.2357 38.4004 37.0471 40.3004 37.0471 42.6754C37.0471 45.0504 35.2592 46.9504 33.0243 46.9504H18.98V38.4004Z" fill="#C17F7F"/>
    <path d="M18.98 55.4751H33.0243C35.2357 55.4751 37.0471 57.3751 37.0471 59.7501C37.0471 62.1001 35.2592 64.0251 33.0243 64.0251H18.98V55.4751Z" fill="#C17F7F"/>
    <path d="M67.1828 29.8752H53.1385C50.9271 29.8752 49.1157 27.9752 49.1157 25.6002C49.1157 23.2252 50.9036 21.3252 53.1385 21.3252H67.1828V29.8752Z" fill="#C17F7F"/>
    <path d="M67.1828 46.925H53.1385C50.9271 46.925 49.1157 45.025 49.1157 42.65C49.1157 40.275 50.9036 38.375 53.1385 38.375H67.1828V46.925Z" fill="#C17F7F"/>
    <path d="M67.1828 64.0002H53.1385C50.9271 64.0002 49.1157 62.1002 49.1157 59.7252C49.1157 57.3752 50.9036 55.4502 53.1385 55.4502H67.1828V64.0002Z" fill="#C17F7F"/>
    <path d="M83.227 47.2002V64.0002C83.2035 83.2002 69.1121 99.0752 51.045 100.2C49.9628 100.25 49.1159 101.175 49.0924 102.325V108.775H37.0477V102.325C37.0477 101.175 36.1772 100.225 35.0951 100.2C17.0515 99.0752 2.96008 83.2002 2.91303 64.0002V47.2002C2.86598 45.0502 4.25394 43.1752 6.25356 42.7252C7.42981 42.5252 8.60605 42.8502 9.52352 43.6752C10.441 44.5002 10.9585 45.6752 10.9585 46.9252V64.0002C10.9585 79.3252 22.6504 91.7252 37.0477 91.7252H49.0924C63.5132 91.7252 75.1815 79.3002 75.1815 64.0002V46.9252C75.1815 45.6752 75.6991 44.4752 76.6165 43.6502C77.534 42.8502 78.7103 42.5002 79.8865 42.7002C81.8861 43.1752 83.2741 45.0502 83.227 47.2002Z" fill="#FFEFEF"/>
    <path d="M79.9101 42.7249C78.5221 42.4749 77.1106 43.0249 76.1931 44.1749C76.8518 45.0249 77.2047 46.0999 77.2047 47.1999V63.9999C77.1812 83.1999 63.0898 99.0749 45.0226 100.2C43.9405 100.25 43.0936 101.175 43.0701 102.325V108.775H49.0924V102.325C49.0924 101.175 49.9629 100.225 51.045 100.2C69.0886 99.0749 83.18 83.1999 83.2271 63.9999V47.1999C83.2741 45.0499 81.8862 43.1749 79.9101 42.7249Z" fill="#C17F7F"/>
    <path d="M61.1379 113.075V117.35H25.0037V113.075C25.0037 110.725 26.8151 108.825 29.0264 108.8H57.1387C59.35 108.8 61.1379 110.7 61.1379 113.075Z" fill="#FFEFEF"/>
    <path d="M57.1383 108.8H51.116C53.3273 108.8 55.1152 110.725 55.1387 113.075V117.35H61.1611V113.075C61.1376 110.7 59.3497 108.8 57.1383 108.8Z" fill="#9C3939"/>
    <path d="M14.9825 117.325H71.1835C73.3948 117.325 75.2062 119.225 75.2062 121.6V125.875H10.9597V121.6C10.9597 119.25 12.7476 117.325 14.9825 117.325Z" fill="#FFEFEF"/>
    <path d="M71.1842 117.325H65.1619C67.3732 117.325 69.1846 119.225 69.1846 121.6V125.875H75.207V121.6C75.207 119.25 73.3956 117.325 71.1842 117.325Z" fill="#9C3939"/>
    <path d="M35.0488 108.8H29.0264C26.8151 108.8 25.0272 110.725 25.0037 113.075V117.35H31.026V113.075C31.0496 110.7 32.8375 108.8 35.0488 108.8Z" fill="white"/>
    <path d="M35.1179 100.2C36.2 100.25 37.0704 101.175 37.0704 102.325V108.775H43.0928V102.325C43.0928 101.175 42.2224 100.225 41.1402 100.2C23.0966 99.0754 8.98169 83.2004 8.95817 64.0004V47.2004C8.95817 46.1004 9.31104 45.0254 9.99327 44.1754C9.07579 43.0254 7.6643 42.4754 6.27633 42.7254C4.30024 43.1754 2.88875 45.0504 2.95932 47.2004V64.0004C2.95932 83.2004 17.0507 99.0754 35.1179 100.2Z" fill="#FFEFEF"/>
    <path d="M21.0048 117.325H14.9825C12.7711 117.325 10.9597 119.225 10.9597 121.6V125.875H16.9821V121.6C16.9821 119.25 18.77 117.325 21.0048 117.325Z" fill="white"/>
    <path d="M26.11 10.1L23.24 7.125C27.3804 2.575 33.0969 0 39.0722 0V4.275C34.1791 4.25 29.4976 6.375 26.11 10.1Z" fill="white"/>
    <path d="M31.2614 5.92539C30.1558 5.92539 29.2383 4.97539 29.2383 3.80039C29.2383 2.62539 30.1322 1.65039 31.2379 1.65039H31.2614C32.3671 1.65039 33.261 2.60039 33.261 3.77539C33.261 4.95039 32.3671 5.92539 31.2614 5.92539Z" fill="#7B0000"/>
    <path d="M10.842 42.05C9.47756 40.825 7.68967 40.3 5.94883 40.625C3.00821 41.25 0.890975 44 0.938025 47.2V64C0.938025 84.375 15.9234 101.2 35.0727 102.35V106.675H29.0503C25.7333 106.675 23.0279 109.55 23.0279 113.075V115.2H15.0059C11.6889 115.2 8.98354 118.075 8.98354 121.6V125.875C8.98354 127.05 9.87749 128 10.9832 128H75.2297C76.3353 128 77.2293 127.05 77.2293 125.875V121.6C77.2293 118.075 74.5239 115.2 71.2069 115.2H63.1849V113.075C63.1849 109.55 60.4795 106.675 57.1625 106.675H51.1637L51.2107 102.35C70.3365 101.175 85.2748 84.375 85.2748 64V47.2C85.3218 44.025 83.2046 41.25 80.264 40.625C78.5231 40.3 76.7117 40.825 75.3708 42.05C74.0064 43.275 73.23 45.05 73.23 46.95V49.075H69.2073V29.875C69.2073 24.45 69.4661 19.35 67.3959 14.25C65.7491 10.175 63.0438 6.675 59.6091 4.15C55.9157 1.45 51.5636 0 47.0939 0H39.0719C37.9662 0 37.0723 0.95 37.0723 2.125C37.0723 3.3 37.9662 4.25 39.0719 4.25H47.0939C55.5158 4.275 62.8085 10.45 64.6905 19.175H53.1163C49.7992 19.175 47.0939 22.05 47.0939 25.575C47.0939 29.1 49.7992 31.975 53.1163 31.975H65.161V36.25H53.1163C49.7992 36.25 47.0939 39.125 47.0939 42.65C47.0939 46.175 49.7992 49.05 53.1163 49.05H65.161V53.325H53.1163C49.7992 53.325 47.0939 56.2 47.0939 59.725C47.0939 63.25 49.7992 66.125 53.1163 66.125H64.6905C62.8085 74.85 55.5158 81.05 47.0939 81.05H39.0719C30.65 81.025 23.3573 74.85 21.4753 66.125H33.0495C36.3665 66.125 39.0719 63.25 39.0719 59.725C39.0719 56.2 36.3665 53.325 33.0495 53.325H21.0048V49.05H33.0495C36.3665 49.05 39.0719 46.175 39.0719 42.65C39.0719 39.125 36.3665 36.25 33.0495 36.25H21.0048V31.975H33.0495C36.3665 31.975 39.0719 29.1 39.0719 25.575C39.0719 22.05 36.3665 19.2 33.0495 19.2H21.4753C22.2045 15.775 23.8042 12.625 26.1097 10.1C26.8154 9.275 26.8389 8 26.1332 7.15C25.7568 6.7 25.2392 6.45 24.6746 6.45C24.1101 6.45 23.5925 6.7 23.2161 7.125C20.3696 10.25 18.3935 14.15 17.4996 18.425C16.9114 22.2 16.7468 26.05 16.982 29.875V49.075H12.9592V46.925C12.9592 45.05 12.1829 43.25 10.842 42.05ZM71.1834 119.475C72.289 119.475 73.183 120.425 73.183 121.6V123.725H12.9592V121.6C12.9592 120.425 13.8532 119.475 14.9589 119.475H71.1834ZM57.139 110.925C58.2447 110.925 59.1386 111.875 59.1386 113.05V115.175H27.0271V113.05C27.0271 111.875 27.9211 110.925 29.0268 110.925H57.139ZM77.2057 64V46.925C77.2057 46.3 77.4645 45.7 77.935 45.3C78.382 44.9 78.9936 44.725 79.5818 44.825C80.5933 45.1 81.2756 46.075 81.2285 47.175V63.975C81.2285 82.075 67.9369 97.025 50.952 98.05C48.8112 98.175 47.1174 100.025 47.1174 102.325V106.675H39.0719V102.35C39.0484 100.075 37.3781 98.2 35.2373 98.075C18.2524 97.05 4.96078 82.1 4.96078 64V47.2C4.91373 46.1 5.61948 45.125 6.60752 44.85C7.19565 44.725 7.80729 44.9 8.25427 45.325C8.70124 45.725 8.96002 46.325 8.96002 46.95V64.025C8.98354 80.5 21.5458 93.875 37.0723 93.9H49.117C64.6199 93.85 77.1822 80.475 77.2057 64ZM53.1163 27.725C52.0106 27.725 51.1166 26.775 51.1166 25.6C51.1166 24.425 52.0106 23.475 53.1163 23.475H65.161V27.75H53.1163V27.725ZM53.1163 44.8C52.0106 44.8 51.1166 43.85 51.1166 42.675C51.1166 41.5 52.0106 40.55 53.1163 40.55H65.161V44.825H53.1163V44.8ZM53.1163 61.875C52.0106 61.875 51.1166 60.925 51.1166 59.75C51.1166 58.575 52.0106 57.625 53.1163 57.625H65.161V61.9H53.1163V61.875ZM33.0495 57.6C34.1552 57.6 35.0491 58.55 35.0491 59.725C35.0491 60.9 34.1552 61.85 33.0495 61.85H21.0048V57.575H33.0495V57.6ZM33.0495 40.525C34.1552 40.525 35.0491 41.475 35.0491 42.65C35.0491 43.825 34.1552 44.775 33.0495 44.775H21.0048V40.5H33.0495V40.525ZM33.0495 23.475C34.1552 23.475 35.0491 24.425 35.0491 25.6C35.0491 26.775 34.1552 27.725 33.0495 27.725H21.0048V23.475H33.0495ZM16.982 53.325V61.85C17.0291 69.35 20.4166 76.4 26.1097 80.825C29.8736 83.725 34.414 85.3 39.0719 85.3H47.0939C59.2798 85.275 69.1367 74.775 69.1838 61.825V53.3H73.2065V63.975C73.183 78.1 62.4086 89.55 49.117 89.575H37.0723C23.7807 89.55 13.0063 78.1 12.9828 63.975V53.3H16.982V53.325Z" fill="#7B0000"/>
</svg>
