<svg width="505" height="197" viewBox="0 0 505 197" fill="none" xmlns="http://www.w3.org/2000/svg">
<rect width="207" height="105" fill="#FA4238"/>
<path d="M53.52 81.56C48.24 81.56 43.3867 80.3333 38.96 77.88C34.5867 75.4267 31.0933 72.0133 28.48 67.64C25.92 63.2133 24.64 58.2533 24.64 52.76C24.64 47.2667 25.92 42.3333 28.48 37.96C31.0933 33.5867 34.5867 30.1733 38.96 27.72C43.3867 25.2667 48.24 24.04 53.52 24.04C58.8 24.04 63.6267 25.2667 68 27.72C72.4267 30.1733 75.8933 33.5867 78.4 37.96C80.96 42.3333 82.24 47.2667 82.24 52.76C82.24 58.2533 80.96 63.2133 78.4 67.64C75.84 72.0133 72.3733 75.4267 68 77.88C63.6267 80.3333 58.8 81.56 53.52 81.56ZM53.52 69.08C58 69.08 61.5733 67.5867 64.24 64.6C66.96 61.6133 68.32 57.6667 68.32 52.76C68.32 47.8 66.96 43.8533 64.24 40.92C61.5733 37.9333 58 36.44 53.52 36.44C48.9867 36.44 45.36 37.9067 42.64 40.84C39.9733 43.7733 38.64 47.7467 38.64 52.76C38.64 57.72 39.9733 61.6933 42.64 64.68C45.36 67.6133 48.9867 69.08 53.52 69.08ZM133.931 36.36V81H120.251V74.92C118.864 76.8933 116.971 78.4933 114.571 79.72C112.224 80.8933 109.611 81.48 106.731 81.48C103.317 81.48 100.304 80.7333 97.6906 79.24C95.0773 77.6933 93.0506 75.48 91.6106 72.6C90.1706 69.72 89.4506 66.3333 89.4506 62.44V36.36H103.051V60.6C103.051 63.5867 103.824 65.9067 105.371 67.56C106.917 69.2133 108.997 70.04 111.611 70.04C114.277 70.04 116.384 69.2133 117.931 67.56C119.477 65.9067 120.251 63.5867 120.251 60.6V36.36H133.931ZM157.437 43.8C159.037 41.3467 161.037 39.4267 163.437 38.04C165.837 36.6 168.504 35.88 171.437 35.88V50.36H167.677C164.264 50.36 161.704 51.1067 159.997 52.6C158.29 54.04 157.437 56.6 157.437 60.28V81H143.757V36.36H157.437V43.8Z" fill="white"/>
<rect x="110" y="92" width="395" height="105" fill="#86171E"/>
<path d="M140.541 169.21C140.215 169.21 139.935 169.14 139.701 169C139.468 168.813 139.398 168.557 139.491 168.23C139.725 167.483 140.355 166.993 141.381 166.76C143.295 166.34 144.671 165.85 145.511 165.29C146.351 164.73 147.005 163.703 147.471 162.21L157.341 130.43C157.808 128.937 157.831 127.887 157.411 127.28C156.991 126.673 155.918 126.137 154.191 125.67C153.771 125.577 153.468 125.413 153.281 125.18C153.095 124.9 153.071 124.573 153.211 124.2C153.258 123.873 153.468 123.617 153.841 123.43C154.215 123.243 154.565 123.15 154.891 123.15C155.918 123.15 157.015 123.173 158.181 123.22C159.348 123.267 160.491 123.337 161.611 123.43C162.778 123.477 163.828 123.5 164.761 123.5C165.695 123.5 166.745 123.477 167.911 123.43C169.125 123.383 170.361 123.337 171.621 123.29C172.881 123.243 174.025 123.22 175.051 123.22C175.845 123.22 176.148 123.547 175.961 124.2C175.868 124.667 175.658 124.993 175.331 125.18C175.005 125.367 174.561 125.53 174.001 125.67C172.648 126.043 171.575 126.417 170.781 126.79C170.035 127.163 169.451 127.63 169.031 128.19C168.611 128.75 168.261 129.52 167.981 130.5L159.021 159.62C158.508 161.347 158.205 162.653 158.111 163.54C158.018 164.427 158.205 165.08 158.671 165.5C159.185 165.873 159.955 166.2 160.981 166.48C161.961 166.713 162.591 166.947 162.871 167.18C163.198 167.413 163.291 167.74 163.151 168.16C163.105 168.487 162.918 168.743 162.591 168.93C162.311 169.117 161.985 169.21 161.611 169.21C160.585 169.21 159.395 169.163 158.041 169.07C156.735 169.023 155.428 168.977 154.121 168.93C152.815 168.883 151.695 168.86 150.761 168.86C149.315 168.86 147.635 168.907 145.721 169C143.855 169.14 142.128 169.21 140.541 169.21ZM176.936 169.98C176.563 169.98 176.073 169.817 175.466 169.49C174.906 169.21 174.346 168.813 173.786 168.3C173.273 167.74 172.9 167.11 172.666 166.41C172.433 165.71 172.48 164.963 172.806 164.17L179.876 146.6C180.343 145.433 180.133 144.85 179.246 144.85C178.92 144.85 178.43 144.873 177.776 144.92C177.17 144.967 176.493 145.177 175.746 145.55C175 145.877 174.276 146.46 173.576 147.3C173.39 147.533 173.11 147.65 172.736 147.65C172.363 147.603 172.153 147.37 172.106 146.95C172.106 146.623 172.246 146.18 172.526 145.62C172.853 145.06 173.226 144.5 173.646 143.94C174.113 143.333 174.51 142.89 174.836 142.61C175.956 141.537 177.31 140.627 178.896 139.88C180.483 139.087 182.373 138.69 184.566 138.69C185.733 138.69 186.62 138.993 187.226 139.6C187.88 140.207 188.276 140.977 188.416 141.91C188.556 142.797 188.44 143.73 188.066 144.71L184.356 153.88C184.216 154.207 184.333 154.393 184.706 154.44C185.126 154.487 185.43 154.37 185.616 154.09C187.296 151.15 188.953 148.537 190.586 146.25C192.22 143.917 193.9 142.073 195.626 140.72C197.4 139.367 199.266 138.69 201.226 138.69C203.046 138.69 204.353 139.203 205.146 140.23C205.986 141.257 206.43 142.517 206.476 144.01C206.523 145.457 206.243 146.857 205.636 148.21L200.386 160.6C199.78 162.047 199.873 162.77 200.666 162.77C200.946 162.77 201.343 162.63 201.856 162.35C202.37 162.07 202.906 161.743 203.466 161.37C204.026 160.95 204.54 160.553 205.006 160.18C205.52 159.76 205.893 159.433 206.126 159.2C206.36 158.967 206.593 158.733 206.826 158.5C207.106 158.267 207.316 158.15 207.456 158.15C207.596 158.15 207.736 158.243 207.876 158.43C208.063 158.57 208.156 158.757 208.156 158.99C208.156 159.923 207.853 160.763 207.246 161.51C205.846 163.143 204.283 164.613 202.556 165.92C200.876 167.18 199.126 168.183 197.306 168.93C195.486 169.63 193.76 169.98 192.126 169.98C191.52 169.98 190.89 169.77 190.236 169.35C189.63 168.977 189.163 168.51 188.836 167.95C188.556 167.39 188.533 166.807 188.766 166.2C190.306 162.793 191.893 159.433 193.526 156.12C195.16 152.76 196.63 149.33 197.936 145.83C198.263 144.99 198.38 144.36 198.286 143.94C198.193 143.473 197.89 143.24 197.376 143.24C196.77 143.24 196.093 143.613 195.346 144.36C194.646 145.107 193.9 146.04 193.106 147.16C192.313 148.28 191.496 149.447 190.656 150.66C190.236 151.22 189.653 152.107 188.906 153.32C188.16 154.487 187.343 155.793 186.456 157.24C185.57 158.687 184.683 160.157 183.796 161.65C182.956 163.097 182.21 164.38 181.556 165.5C180.81 166.76 180.063 167.833 179.316 168.72C178.57 169.56 177.776 169.98 176.936 169.98ZM217.232 169.98C216.486 169.98 215.786 169.747 215.132 169.28C214.479 168.813 213.942 168.253 213.522 167.6C213.102 166.9 212.892 166.293 212.892 165.78C212.892 165.453 212.939 165.103 213.032 164.73C213.126 164.31 213.336 163.703 213.662 162.91L220.242 145.27C220.522 144.477 220.546 143.963 220.312 143.73C220.126 143.45 219.846 143.31 219.472 143.31L216.112 143.17C215.319 143.123 214.829 142.96 214.642 142.68C214.456 142.353 214.362 142.05 214.362 141.77C214.362 141.677 214.526 141.443 214.852 141.07C215.179 140.65 215.599 140.277 216.112 139.95C216.626 139.577 217.162 139.39 217.722 139.39H221.152C221.852 139.39 222.296 139.297 222.482 139.11C222.716 138.877 223.042 138.387 223.462 137.64L225.422 133.72C225.796 133.02 226.286 132.343 226.892 131.69C227.546 131.037 228.222 130.477 228.922 130.01C229.622 129.543 230.252 129.31 230.812 129.31C231.559 129.31 232.049 129.683 232.282 130.43C232.516 131.13 232.516 131.83 232.282 132.53L230.602 137.92C230.462 138.62 230.462 139.063 230.602 139.25C230.789 139.437 231.139 139.53 231.652 139.53C232.259 139.53 232.936 139.577 233.682 139.67C234.429 139.717 235.222 139.787 236.062 139.88C237.089 140.02 237.696 140.207 237.882 140.44C238.116 140.673 238.232 140.977 238.232 141.35C238.232 141.49 238.092 141.723 237.812 142.05C237.579 142.377 237.089 142.587 236.342 142.68C235.736 142.727 235.106 142.797 234.452 142.89C233.799 142.937 233.029 142.983 232.142 143.03C231.302 143.077 230.649 143.193 230.182 143.38C229.762 143.567 229.459 143.893 229.272 144.36L224.022 158.85C223.696 159.83 223.532 160.577 223.532 161.09C223.532 161.557 223.626 161.86 223.812 162C224.046 162.093 224.302 162.14 224.582 162.14C225.142 162.14 225.866 161.837 226.752 161.23C227.639 160.577 228.526 159.853 229.412 159.06C230.346 158.267 231.092 157.567 231.652 156.96C231.792 156.867 231.909 156.797 232.002 156.75C232.142 156.703 232.212 156.703 232.212 156.75C232.446 156.843 232.609 157.03 232.702 157.31C232.842 157.543 232.889 157.8 232.842 158.08C232.702 158.827 232.259 159.713 231.512 160.74C230.766 161.72 229.809 162.747 228.642 163.82C227.522 164.893 226.286 165.897 224.932 166.83C223.579 167.763 222.226 168.51 220.872 169.07C219.566 169.677 218.352 169.98 217.232 169.98ZM245.67 170.05C244.41 170.05 243.08 169.677 241.68 168.93C240.28 168.137 239.09 167.11 238.11 165.85C237.13 164.543 236.64 163.097 236.64 161.51C236.64 158.617 237.177 155.817 238.25 153.11C239.324 150.357 240.747 147.907 242.52 145.76C244.294 143.613 246.3 141.91 248.54 140.65C250.827 139.343 253.137 138.69 255.47 138.69C258.177 138.69 260.137 139.203 261.35 140.23C262.564 141.257 263.17 142.47 263.17 143.87C263.17 145.457 262.634 146.833 261.56 148C260.534 149.12 259.18 150.077 257.5 150.87C255.867 151.663 254.094 152.317 252.18 152.83C250.267 153.343 248.447 153.787 246.72 154.16C246.487 154.207 246.324 154.277 246.23 154.37C246.137 154.463 246.044 154.627 245.95 154.86C245.857 155.187 245.764 155.56 245.67 155.98C245.624 156.353 245.577 156.727 245.53 157.1C245.484 158.733 245.904 160.157 246.79 161.37C247.724 162.583 249.077 163.19 250.85 163.19C252.157 163.19 253.347 162.863 254.42 162.21C255.54 161.51 256.614 160.6 257.64 159.48C258.154 158.967 258.55 158.71 258.83 158.71C259.297 158.71 259.53 158.943 259.53 159.41C259.53 159.55 259.507 159.713 259.46 159.9C259.46 160.087 259.414 160.25 259.32 160.39C258.434 162.07 257.337 163.657 256.03 165.15C254.724 166.597 253.207 167.787 251.48 168.72C249.754 169.607 247.817 170.05 245.67 170.05ZM247.21 151.71C248.144 151.43 249.124 151.103 250.15 150.73C251.224 150.357 252.204 149.867 253.09 149.26C253.977 148.607 254.724 147.813 255.33 146.88C255.937 145.947 256.287 144.827 256.38 143.52C256.38 142.96 256.217 142.447 255.89 141.98C255.564 141.467 255.074 141.21 254.42 141.21C253.58 141.21 252.74 141.513 251.9 142.12C251.107 142.68 250.337 143.45 249.59 144.43C248.844 145.363 248.214 146.437 247.7 147.65C247.234 148.817 246.907 150.03 246.72 151.29C246.674 151.663 246.837 151.803 247.21 151.71ZM269.322 170.05C268.902 170.05 268.366 169.91 267.712 169.63C267.059 169.35 266.476 168.977 265.962 168.51C265.496 168.043 265.262 167.483 265.262 166.83C265.262 166.503 265.309 166.153 265.402 165.78C265.496 165.407 265.612 165.01 265.752 164.59L272.822 146.25C273.009 145.783 273.032 145.41 272.892 145.13C272.799 144.803 272.519 144.64 272.052 144.64C271.119 144.64 270.349 144.827 269.742 145.2C269.182 145.573 268.576 146.017 267.922 146.53C267.689 146.717 267.386 146.81 267.012 146.81C266.686 146.763 266.499 146.553 266.452 146.18C266.359 145.2 266.732 144.22 267.572 143.24C268.412 142.26 269.486 141.42 270.792 140.72C271.819 140.067 272.916 139.577 274.082 139.25C275.296 138.877 276.462 138.69 277.582 138.69C278.889 138.69 279.822 139.063 280.382 139.81C280.989 140.51 281.269 141.467 281.222 142.68C281.222 143.893 280.872 145.27 280.172 146.81L277.512 153.18C277.326 153.507 277.372 153.693 277.652 153.74C277.932 153.787 278.166 153.647 278.352 153.32C279.986 150.427 281.572 147.883 283.112 145.69C284.699 143.497 286.286 141.77 287.872 140.51C289.506 139.25 291.162 138.62 292.842 138.62C294.336 138.62 295.456 139.063 296.202 139.95C296.996 140.79 297.392 141.84 297.392 143.1C297.392 144.313 297.112 145.503 296.552 146.67C295.992 147.837 295.292 148.793 294.452 149.54C293.659 150.24 292.889 150.59 292.142 150.59C291.629 150.59 291.232 150.357 290.952 149.89C290.672 149.377 290.439 148.63 290.252 147.65C290.112 146.857 289.902 146.157 289.622 145.55C289.342 144.897 288.922 144.57 288.362 144.57C287.522 144.57 286.682 145.107 285.842 146.18C285.049 147.207 284.116 148.653 283.042 150.52C282.669 151.08 282.132 151.943 281.432 153.11C280.779 154.277 280.056 155.56 279.262 156.96C278.469 158.36 277.676 159.737 276.882 161.09C276.089 162.443 275.412 163.61 274.852 164.59C273.966 166.177 273.032 167.483 272.052 168.51C271.072 169.537 270.162 170.05 269.322 170.05ZM303.996 169.98C302.269 169.98 300.682 169.56 299.236 168.72C297.836 167.833 296.692 166.69 295.806 165.29C294.966 163.843 294.569 162.233 294.616 160.46C294.662 158.22 295.012 156.027 295.666 153.88C296.319 151.733 297.206 149.75 298.326 147.93C299.492 146.063 300.846 144.453 302.386 143.1C303.926 141.7 305.629 140.627 307.496 139.88C309.409 139.087 311.439 138.69 313.586 138.69C315.359 138.69 316.806 139.087 317.926 139.88C319.046 140.673 319.606 141.677 319.606 142.89C319.606 143.777 319.302 144.663 318.696 145.55C318.089 146.39 317.436 146.81 316.736 146.81C316.362 146.81 316.036 146.67 315.756 146.39C315.476 146.11 315.102 145.55 314.636 144.71C314.169 143.87 313.632 143.17 313.026 142.61C312.466 142.003 311.882 141.7 311.276 141.7C310.296 141.7 309.316 142.143 308.336 143.03C307.402 143.917 306.539 145.107 305.746 146.6C304.999 148.047 304.392 149.657 303.926 151.43C303.459 153.203 303.202 155 303.156 156.82C303.109 158.547 303.529 159.9 304.416 160.88C305.302 161.813 306.516 162.28 308.056 162.28C309.316 162.28 310.482 162 311.556 161.44C312.676 160.833 313.632 160.04 314.426 159.06C314.612 158.78 314.822 158.57 315.056 158.43C315.336 158.29 315.569 158.22 315.756 158.22C316.222 158.22 316.456 158.477 316.456 158.99C316.456 160.11 316.082 161.323 315.336 162.63C314.589 163.89 313.586 165.08 312.326 166.2C311.112 167.32 309.782 168.23 308.336 168.93C306.889 169.63 305.442 169.98 303.996 169.98ZM328.864 170.05C327.604 170.05 326.274 169.677 324.874 168.93C323.474 168.137 322.284 167.11 321.304 165.85C320.324 164.543 319.834 163.097 319.834 161.51C319.834 158.617 320.37 155.817 321.444 153.11C322.517 150.357 323.94 147.907 325.714 145.76C327.487 143.613 329.494 141.91 331.734 140.65C334.02 139.343 336.33 138.69 338.664 138.69C341.37 138.69 343.33 139.203 344.544 140.23C345.757 141.257 346.364 142.47 346.364 143.87C346.364 145.457 345.827 146.833 344.754 148C343.727 149.12 342.374 150.077 340.694 150.87C339.06 151.663 337.287 152.317 335.374 152.83C333.46 153.343 331.64 153.787 329.914 154.16C329.68 154.207 329.517 154.277 329.424 154.37C329.33 154.463 329.237 154.627 329.144 154.86C329.05 155.187 328.957 155.56 328.864 155.98C328.817 156.353 328.77 156.727 328.724 157.1C328.677 158.733 329.097 160.157 329.984 161.37C330.917 162.583 332.27 163.19 334.044 163.19C335.35 163.19 336.54 162.863 337.614 162.21C338.734 161.51 339.807 160.6 340.834 159.48C341.347 158.967 341.744 158.71 342.024 158.71C342.49 158.71 342.724 158.943 342.724 159.41C342.724 159.55 342.7 159.713 342.654 159.9C342.654 160.087 342.607 160.25 342.514 160.39C341.627 162.07 340.53 163.657 339.224 165.15C337.917 166.597 336.4 167.787 334.674 168.72C332.947 169.607 331.01 170.05 328.864 170.05ZM330.404 151.71C331.337 151.43 332.317 151.103 333.344 150.73C334.417 150.357 335.397 149.867 336.284 149.26C337.17 148.607 337.917 147.813 338.524 146.88C339.13 145.947 339.48 144.827 339.574 143.52C339.574 142.96 339.41 142.447 339.084 141.98C338.757 141.467 338.267 141.21 337.614 141.21C336.774 141.21 335.934 141.513 335.094 142.12C334.3 142.68 333.53 143.45 332.784 144.43C332.037 145.363 331.407 146.437 330.894 147.65C330.427 148.817 330.1 150.03 329.914 151.29C329.867 151.663 330.03 151.803 330.404 151.71ZM350.766 169.98C348.806 169.98 347.219 169.537 346.006 168.65C344.792 167.763 344.186 166.597 344.186 165.15C344.186 163.937 344.466 162.933 345.026 162.14C345.539 161.3 346.239 160.88 347.126 160.88C347.499 160.88 347.919 161.113 348.386 161.58C348.852 162 349.366 162.513 349.926 163.12C350.626 163.773 351.396 164.473 352.236 165.22C353.076 165.967 353.939 166.34 354.826 166.34C355.572 166.34 356.109 166.13 356.436 165.71C356.809 165.243 357.019 164.613 357.066 163.82C357.112 163.12 356.786 162.21 356.086 161.09C355.386 159.923 354.662 158.803 353.916 157.73C353.076 156.517 352.329 155.233 351.676 153.88C351.069 152.527 350.766 151.197 350.766 149.89C350.766 148.63 351.186 147.37 352.026 146.11C352.912 144.803 353.986 143.59 355.246 142.47C356.552 141.303 357.859 140.393 359.166 139.74C360.472 139.04 361.546 138.69 362.386 138.69C363.552 138.69 364.672 138.947 365.746 139.46C366.866 139.973 367.776 140.58 368.476 141.28C369.222 141.933 369.596 142.54 369.596 143.1C369.596 143.613 369.339 144.243 368.826 144.99C368.359 145.69 367.822 146.32 367.216 146.88C366.609 147.393 366.026 147.65 365.466 147.65C364.906 147.65 364.392 147.44 363.926 147.02C363.506 146.553 363.109 146.087 362.736 145.62C362.316 145.013 361.779 144.5 361.126 144.08C360.519 143.613 359.889 143.38 359.236 143.38C358.582 143.38 358.069 143.613 357.696 144.08C357.322 144.5 357.136 144.99 357.136 145.55C357.136 145.923 357.322 146.413 357.696 147.02C358.116 147.627 358.606 148.303 359.166 149.05C359.726 149.75 360.286 150.497 360.846 151.29C362.199 153.017 363.179 154.487 363.786 155.7C364.392 156.867 364.696 158.033 364.696 159.2C364.696 160.18 364.299 161.277 363.506 162.49C362.712 163.703 361.639 164.893 360.286 166.06C358.979 167.227 357.486 168.183 355.806 168.93C354.172 169.63 352.492 169.98 350.766 169.98ZM372.982 169.98C371.022 169.98 369.436 169.537 368.222 168.65C367.009 167.763 366.402 166.597 366.402 165.15C366.402 163.937 366.682 162.933 367.242 162.14C367.756 161.3 368.456 160.88 369.342 160.88C369.716 160.88 370.136 161.113 370.602 161.58C371.069 162 371.582 162.513 372.142 163.12C372.842 163.773 373.612 164.473 374.452 165.22C375.292 165.967 376.156 166.34 377.042 166.34C377.789 166.34 378.326 166.13 378.652 165.71C379.026 165.243 379.236 164.613 379.282 163.82C379.329 163.12 379.002 162.21 378.302 161.09C377.602 159.923 376.879 158.803 376.132 157.73C375.292 156.517 374.546 155.233 373.892 153.88C373.286 152.527 372.982 151.197 372.982 149.89C372.982 148.63 373.402 147.37 374.242 146.11C375.129 144.803 376.202 143.59 377.462 142.47C378.769 141.303 380.076 140.393 381.382 139.74C382.689 139.04 383.762 138.69 384.602 138.69C385.769 138.69 386.889 138.947 387.962 139.46C389.082 139.973 389.992 140.58 390.692 141.28C391.439 141.933 391.812 142.54 391.812 143.1C391.812 143.613 391.556 144.243 391.042 144.99C390.576 145.69 390.039 146.32 389.432 146.88C388.826 147.393 388.242 147.65 387.682 147.65C387.122 147.65 386.609 147.44 386.142 147.02C385.722 146.553 385.326 146.087 384.952 145.62C384.532 145.013 383.996 144.5 383.342 144.08C382.736 143.613 382.106 143.38 381.452 143.38C380.799 143.38 380.286 143.613 379.912 144.08C379.539 144.5 379.352 144.99 379.352 145.55C379.352 145.923 379.539 146.413 379.912 147.02C380.332 147.627 380.822 148.303 381.382 149.05C381.942 149.75 382.502 150.497 383.062 151.29C384.416 153.017 385.396 154.487 386.002 155.7C386.609 156.867 386.912 158.033 386.912 159.2C386.912 160.18 386.516 161.277 385.722 162.49C384.929 163.703 383.856 164.893 382.502 166.06C381.196 167.227 379.702 168.183 378.022 168.93C376.389 169.63 374.709 169.98 372.982 169.98ZM401.219 169.98C399.446 169.98 397.766 169.56 396.179 168.72C394.639 167.88 393.402 166.713 392.469 165.22C391.536 163.727 391.069 162 391.069 160.04C391.069 157.893 391.512 155.583 392.399 153.11C393.332 150.637 394.686 148.327 396.459 146.18C398.232 143.987 400.356 142.19 402.829 140.79C405.349 139.39 408.196 138.69 411.369 138.69C414.496 138.69 416.992 139.577 418.859 141.35C420.772 143.123 421.729 145.573 421.729 148.7C421.729 150.847 421.262 153.157 420.329 155.63C419.442 158.057 418.112 160.367 416.339 162.56C414.566 164.707 412.396 166.48 409.829 167.88C407.309 169.28 404.439 169.98 401.219 169.98ZM402.549 167.25C403.482 167.25 404.416 166.737 405.349 165.71C406.329 164.683 407.239 163.33 408.079 161.65C408.966 159.923 409.759 158.033 410.459 155.98C411.159 153.927 411.696 151.873 412.069 149.82C412.489 147.767 412.699 145.9 412.699 144.22C412.699 143.24 412.512 142.517 412.139 142.05C411.766 141.537 411.159 141.28 410.319 141.28C409.526 141.28 408.662 141.793 407.729 142.82C406.796 143.8 405.886 145.153 404.999 146.88C404.112 148.56 403.296 150.427 402.549 152.48C401.849 154.487 401.266 156.517 400.799 158.57C400.332 160.577 400.099 162.443 400.099 164.17C400.099 165.197 400.332 165.967 400.799 166.48C401.266 166.993 401.849 167.25 402.549 167.25ZM429.01 170.05C428.59 170.05 428.053 169.91 427.4 169.63C426.746 169.35 426.163 168.977 425.65 168.51C425.183 168.043 424.95 167.483 424.95 166.83C424.95 166.503 424.996 166.153 425.09 165.78C425.183 165.407 425.3 165.01 425.44 164.59L432.51 146.25C432.696 145.783 432.72 145.41 432.58 145.13C432.486 144.803 432.206 144.64 431.74 144.64C430.806 144.64 430.036 144.827 429.43 145.2C428.87 145.573 428.263 146.017 427.61 146.53C427.376 146.717 427.073 146.81 426.7 146.81C426.373 146.763 426.186 146.553 426.14 146.18C426.046 145.2 426.42 144.22 427.26 143.24C428.1 142.26 429.173 141.42 430.48 140.72C431.506 140.067 432.603 139.577 433.77 139.25C434.983 138.877 436.15 138.69 437.27 138.69C438.576 138.69 439.51 139.063 440.07 139.81C440.676 140.51 440.956 141.467 440.91 142.68C440.91 143.893 440.56 145.27 439.86 146.81L437.2 153.18C437.013 153.507 437.06 153.693 437.34 153.74C437.62 153.787 437.853 153.647 438.04 153.32C439.673 150.427 441.26 147.883 442.8 145.69C444.386 143.497 445.973 141.77 447.56 140.51C449.193 139.25 450.85 138.62 452.53 138.62C454.023 138.62 455.143 139.063 455.89 139.95C456.683 140.79 457.08 141.84 457.08 143.1C457.08 144.313 456.8 145.503 456.24 146.67C455.68 147.837 454.98 148.793 454.14 149.54C453.346 150.24 452.576 150.59 451.83 150.59C451.316 150.59 450.92 150.357 450.64 149.89C450.36 149.377 450.126 148.63 449.94 147.65C449.8 146.857 449.59 146.157 449.31 145.55C449.03 144.897 448.61 144.57 448.05 144.57C447.21 144.57 446.37 145.107 445.53 146.18C444.736 147.207 443.803 148.653 442.73 150.52C442.356 151.08 441.82 151.943 441.12 153.11C440.466 154.277 439.743 155.56 438.95 156.96C438.156 158.36 437.363 159.737 436.57 161.09C435.776 162.443 435.1 163.61 434.54 164.59C433.653 166.177 432.72 167.483 431.74 168.51C430.76 169.537 429.85 170.05 429.01 170.05ZM459.252 169.98C457.292 169.98 455.705 169.537 454.492 168.65C453.279 167.763 452.672 166.597 452.672 165.15C452.672 163.937 452.952 162.933 453.512 162.14C454.025 161.3 454.725 160.88 455.612 160.88C455.985 160.88 456.405 161.113 456.872 161.58C457.339 162 457.852 162.513 458.412 163.12C459.112 163.773 459.882 164.473 460.722 165.22C461.562 165.967 462.425 166.34 463.312 166.34C464.059 166.34 464.595 166.13 464.922 165.71C465.295 165.243 465.505 164.613 465.552 163.82C465.599 163.12 465.272 162.21 464.572 161.09C463.872 159.923 463.149 158.803 462.402 157.73C461.562 156.517 460.815 155.233 460.162 153.88C459.555 152.527 459.252 151.197 459.252 149.89C459.252 148.63 459.672 147.37 460.512 146.11C461.399 144.803 462.472 143.59 463.732 142.47C465.039 141.303 466.345 140.393 467.652 139.74C468.959 139.04 470.032 138.69 470.872 138.69C472.039 138.69 473.159 138.947 474.232 139.46C475.352 139.973 476.262 140.58 476.962 141.28C477.709 141.933 478.082 142.54 478.082 143.1C478.082 143.613 477.825 144.243 477.312 144.99C476.845 145.69 476.309 146.32 475.702 146.88C475.095 147.393 474.512 147.65 473.952 147.65C473.392 147.65 472.879 147.44 472.412 147.02C471.992 146.553 471.595 146.087 471.222 145.62C470.802 145.013 470.265 144.5 469.612 144.08C469.005 143.613 468.375 143.38 467.722 143.38C467.069 143.38 466.555 143.613 466.182 144.08C465.809 144.5 465.622 144.99 465.622 145.55C465.622 145.923 465.809 146.413 466.182 147.02C466.602 147.627 467.092 148.303 467.652 149.05C468.212 149.75 468.772 150.497 469.332 151.29C470.685 153.017 471.665 154.487 472.272 155.7C472.879 156.867 473.182 158.033 473.182 159.2C473.182 160.18 472.785 161.277 471.992 162.49C471.199 163.703 470.125 164.893 468.772 166.06C467.465 167.227 465.972 168.183 464.292 168.93C462.659 169.63 460.979 169.98 459.252 169.98Z" fill="white"/>
</svg>
