<svg width="288" height="197" viewBox="0 0 288 197" fill="none" xmlns="http://www.w3.org/2000/svg">
<rect width="207" height="105" fill="#FA4238"/>
<path d="M53.52 81.56C48.24 81.56 43.3867 80.3333 38.96 77.88C34.5867 75.4267 31.0933 72.0133 28.48 67.64C25.92 63.2133 24.64 58.2533 24.64 52.76C24.64 47.2667 25.92 42.3333 28.48 37.96C31.0933 33.5867 34.5867 30.1733 38.96 27.72C43.3867 25.2667 48.24 24.04 53.52 24.04C58.8 24.04 63.6267 25.2667 68 27.72C72.4267 30.1733 75.8933 33.5867 78.4 37.96C80.96 42.3333 82.24 47.2667 82.24 52.76C82.24 58.2533 80.96 63.2133 78.4 67.64C75.84 72.0133 72.3733 75.4267 68 77.88C63.6267 80.3333 58.8 81.56 53.52 81.56ZM53.52 69.08C58 69.08 61.5733 67.5867 64.24 64.6C66.96 61.6133 68.32 57.6667 68.32 52.76C68.32 47.8 66.96 43.8533 64.24 40.92C61.5733 37.9333 58 36.44 53.52 36.44C48.9867 36.44 45.36 37.9067 42.64 40.84C39.9733 43.7733 38.64 47.7467 38.64 52.76C38.64 57.72 39.9733 61.6933 42.64 64.68C45.36 67.6133 48.9867 69.08 53.52 69.08ZM133.931 36.36V81H120.251V74.92C118.864 76.8933 116.971 78.4933 114.571 79.72C112.224 80.8933 109.611 81.48 106.731 81.48C103.317 81.48 100.304 80.7333 97.6906 79.24C95.0773 77.6933 93.0506 75.48 91.6106 72.6C90.1706 69.72 89.4506 66.3333 89.4506 62.44V36.36H103.051V60.6C103.051 63.5867 103.824 65.9067 105.371 67.56C106.917 69.2133 108.997 70.04 111.611 70.04C114.277 70.04 116.384 69.2133 117.931 67.56C119.477 65.9067 120.251 63.5867 120.251 60.6V36.36H133.931ZM157.437 43.8C159.037 41.3467 161.037 39.4267 163.437 38.04C165.837 36.6 168.504 35.88 171.437 35.88V50.36H167.677C164.264 50.36 161.704 51.1067 159.997 52.6C158.29 54.04 157.437 56.6 157.437 60.28V81H143.757V36.36H157.437V43.8Z" fill="white"/>
<rect x="99" y="92" width="189" height="105" fill="#86171E"/>
<path d="M123.532 166.35C123.066 166.35 122.762 166.233 122.622 166C122.436 165.813 122.366 165.58 122.412 165.3C122.552 164.6 123.206 164.11 124.372 163.83C126.052 163.363 127.336 162.873 128.222 162.36C129.156 161.8 129.856 160.773 130.322 159.28L140.192 127.29C140.659 125.797 140.682 124.77 140.262 124.21C139.842 123.65 138.792 123.137 137.112 122.67C136.692 122.577 136.389 122.413 136.202 122.18C136.062 121.9 136.039 121.573 136.132 121.2C136.179 120.873 136.366 120.617 136.692 120.43C137.066 120.243 137.416 120.15 137.742 120.15C138.816 120.15 139.936 120.173 141.102 120.22C142.269 120.267 143.412 120.337 144.532 120.43C145.652 120.477 146.679 120.5 147.612 120.5C148.592 120.5 149.689 120.477 150.902 120.43C152.162 120.383 153.422 120.337 154.682 120.29C155.942 120.243 157.086 120.22 158.112 120.22C158.906 120.22 159.209 120.547 159.022 121.2C158.929 121.667 158.719 121.993 158.392 122.18C158.066 122.367 157.646 122.53 157.132 122.67C155.732 122.997 154.636 123.347 153.842 123.72C153.049 124.047 152.419 124.49 151.952 125.05C151.532 125.61 151.182 126.357 150.902 127.29L142.222 155.71C141.289 158.697 141.032 160.727 141.452 161.8C141.919 162.827 142.829 163.34 144.182 163.34H146.702C148.709 163.34 150.482 163.107 152.022 162.64C153.609 162.173 154.962 161.567 156.082 160.82C157.342 159.887 158.416 158.813 159.302 157.6C160.236 156.387 161.076 155.033 161.822 153.54C162.009 153.167 162.219 152.863 162.452 152.63C162.732 152.397 163.012 152.28 163.292 152.28C163.526 152.28 163.712 152.42 163.852 152.7C163.992 152.933 164.062 153.213 164.062 153.54C164.062 154.193 163.922 155.057 163.642 156.13C163.362 157.203 162.989 158.323 162.522 159.49C162.056 160.61 161.589 161.683 161.122 162.71C160.656 163.69 160.212 164.483 159.792 165.09C159.606 165.37 159.396 165.65 159.162 165.93C158.929 166.21 158.602 166.35 158.182 166.35C157.202 166.35 155.732 166.327 153.772 166.28C151.859 166.233 149.712 166.187 147.332 166.14C144.952 166.14 142.526 166.117 140.052 166.07C137.626 166.023 135.409 166 133.402 166C131.956 166 130.299 166.047 128.432 166.14C126.566 166.28 124.932 166.35 123.532 166.35ZM176.459 166.98C174.686 166.98 173.006 166.56 171.419 165.72C169.879 164.88 168.643 163.713 167.709 162.22C166.776 160.727 166.309 159 166.309 157.04C166.309 154.893 166.753 152.583 167.639 150.11C168.573 147.637 169.926 145.327 171.699 143.18C173.473 140.987 175.596 139.19 178.069 137.79C180.589 136.39 183.436 135.69 186.609 135.69C189.736 135.69 192.233 136.577 194.099 138.35C196.013 140.123 196.969 142.573 196.969 145.7C196.969 147.847 196.503 150.157 195.569 152.63C194.683 155.057 193.353 157.367 191.579 159.56C189.806 161.707 187.636 163.48 185.069 164.88C182.549 166.28 179.679 166.98 176.459 166.98ZM177.789 164.25C178.723 164.25 179.656 163.737 180.589 162.71C181.569 161.683 182.479 160.33 183.319 158.65C184.206 156.923 184.999 155.033 185.699 152.98C186.399 150.927 186.936 148.873 187.309 146.82C187.729 144.767 187.939 142.9 187.939 141.22C187.939 140.24 187.753 139.517 187.379 139.05C187.006 138.537 186.399 138.28 185.559 138.28C184.766 138.28 183.903 138.793 182.969 139.82C182.036 140.8 181.126 142.153 180.239 143.88C179.353 145.56 178.536 147.427 177.789 149.48C177.089 151.487 176.506 153.517 176.039 155.57C175.573 157.577 175.339 159.443 175.339 161.17C175.339 162.197 175.573 162.967 176.039 163.48C176.506 163.993 177.089 164.25 177.789 164.25ZM206.14 186.3C203.247 186.3 200.61 185.973 198.23 185.32C195.897 184.713 194.03 183.85 192.63 182.73C191.23 181.657 190.53 180.42 190.53 179.02C190.53 177.713 191.137 176.523 192.35 175.45C193.563 174.423 195.197 173.49 197.25 172.65C199.257 171.81 201.473 171.063 203.9 170.41C204.46 170.223 204.507 170.013 204.04 169.78C203.107 169.22 202.243 168.497 201.45 167.61C200.657 166.77 200.26 165.883 200.26 164.95C200.26 163.923 200.797 163.013 201.87 162.22C202.99 161.38 204.343 160.54 205.93 159.7C206.21 159.513 206.42 159.35 206.56 159.21C206.747 159.023 206.84 158.883 206.84 158.79C206.84 158.603 206.607 158.417 206.14 158.23C205.3 157.81 204.46 157.25 203.62 156.55C202.78 155.85 202.08 155.01 201.52 154.03C201.007 153.003 200.75 151.883 200.75 150.67C200.75 149.177 201.1 147.59 201.8 145.91C202.5 144.183 203.503 142.55 204.81 141.01C206.117 139.423 207.75 138.14 209.71 137.16C211.67 136.18 213.933 135.69 216.5 135.69C217.387 135.69 218.227 135.83 219.02 136.11C219.813 136.343 220.537 136.6 221.19 136.88C221.937 137.207 222.613 137.51 223.22 137.79C223.827 138.023 224.317 138.14 224.69 138.14C225.483 138.14 226.253 138.047 227 137.86C227.793 137.673 228.54 137.487 229.24 137.3C229.987 137.113 230.663 137.02 231.27 137.02C231.597 137.02 231.97 137.16 232.39 137.44C232.857 137.673 233.09 138.163 233.09 138.91C233.09 139.75 232.903 140.45 232.53 141.01C232.203 141.57 231.76 141.85 231.2 141.85C230.78 141.85 230.29 141.803 229.73 141.71C229.217 141.617 228.657 141.547 228.05 141.5C227.49 141.407 226.953 141.36 226.44 141.36C226.207 141.36 225.997 141.407 225.81 141.5C225.623 141.547 225.577 141.757 225.67 142.13C225.763 142.457 225.81 142.783 225.81 143.11C225.857 143.39 225.88 143.693 225.88 144.02C225.88 145.887 225.507 147.753 224.76 149.62C224.013 151.44 222.963 153.097 221.61 154.59C220.303 156.037 218.74 157.203 216.92 158.09C215.147 158.977 213.187 159.42 211.04 159.42C210.62 159.42 210.177 159.42 209.71 159.42C209.29 159.373 208.963 159.397 208.73 159.49C208.263 159.817 208.03 160.213 208.03 160.68C208.03 161.193 208.263 161.73 208.73 162.29C209.243 162.803 209.92 163.363 210.76 163.97C211.647 164.53 212.673 165.183 213.84 165.93C215.007 166.63 216.173 167.353 217.34 168.1C218.553 168.847 219.697 169.57 220.77 170.27C221.89 171.017 222.753 171.81 223.36 172.65C223.967 173.537 224.27 174.447 224.27 175.38C224.27 176.78 223.733 178.11 222.66 179.37C221.633 180.677 220.233 181.843 218.46 182.87C216.733 183.897 214.797 184.713 212.65 185.32C210.55 185.973 208.38 186.3 206.14 186.3ZM209.15 183.78C210.363 183.78 211.53 183.57 212.65 183.15C213.77 182.777 214.68 182.24 215.38 181.54C216.08 180.84 216.43 180.07 216.43 179.23C216.43 178.717 216.243 178.157 215.87 177.55C215.543 176.99 215.077 176.523 214.47 176.15C213.49 175.497 212.323 174.75 210.97 173.91C209.617 173.117 208.52 172.51 207.68 172.09C207.307 171.903 206.957 171.81 206.63 171.81C206.35 171.81 206.093 171.833 205.86 171.88C205.673 171.927 205.463 171.997 205.23 172.09C202.99 172.743 201.287 173.513 200.12 174.4C199 175.333 198.44 176.593 198.44 178.18C198.44 179.16 198.813 180.07 199.56 180.91C200.353 181.797 201.543 182.497 203.13 183.01C204.717 183.523 206.723 183.78 209.15 183.78ZM209.85 156.62C210.643 156.713 211.483 156.387 212.37 155.64C213.257 154.893 214.097 153.89 214.89 152.63C215.683 151.37 216.407 150.017 217.06 148.57C217.713 147.077 218.227 145.653 218.6 144.3C219.02 142.9 219.23 141.733 219.23 140.8C219.23 139.913 219.043 139.213 218.67 138.7C218.343 138.187 217.9 137.93 217.34 137.93C216.593 137.93 215.8 138.327 214.96 139.12C214.167 139.867 213.373 140.87 212.58 142.13C211.787 143.343 211.063 144.673 210.41 146.12C209.757 147.52 209.22 148.897 208.8 150.25C208.427 151.557 208.24 152.677 208.24 153.61C208.24 154.637 208.38 155.383 208.66 155.85C208.987 156.317 209.383 156.573 209.85 156.62ZM240.717 166.98C238.944 166.98 237.264 166.56 235.677 165.72C234.137 164.88 232.901 163.713 231.967 162.22C231.034 160.727 230.567 159 230.567 157.04C230.567 154.893 231.011 152.583 231.897 150.11C232.831 147.637 234.184 145.327 235.957 143.18C237.731 140.987 239.854 139.19 242.327 137.79C244.847 136.39 247.694 135.69 250.867 135.69C253.994 135.69 256.491 136.577 258.357 138.35C260.271 140.123 261.227 142.573 261.227 145.7C261.227 147.847 260.761 150.157 259.827 152.63C258.941 155.057 257.611 157.367 255.837 159.56C254.064 161.707 251.894 163.48 249.327 164.88C246.807 166.28 243.937 166.98 240.717 166.98ZM242.047 164.25C242.981 164.25 243.914 163.737 244.847 162.71C245.827 161.683 246.737 160.33 247.577 158.65C248.464 156.923 249.257 155.033 249.957 152.98C250.657 150.927 251.194 148.873 251.567 146.82C251.987 144.767 252.197 142.9 252.197 141.22C252.197 140.24 252.011 139.517 251.637 139.05C251.264 138.537 250.657 138.28 249.817 138.28C249.024 138.28 248.161 138.793 247.227 139.82C246.294 140.8 245.384 142.153 244.497 143.88C243.611 145.56 242.794 147.427 242.047 149.48C241.347 151.487 240.764 153.517 240.297 155.57C239.831 157.577 239.597 159.443 239.597 161.17C239.597 162.197 239.831 162.967 240.297 163.48C240.764 163.993 241.347 164.25 242.047 164.25Z" fill="white"/>
</svg>
