<svg width="463" height="197" viewBox="0 0 463 197" fill="none" xmlns="http://www.w3.org/2000/svg">
<rect width="207" height="105" fill="#FA4238"/>
<path d="M53.52 81.56C48.24 81.56 43.3867 80.3333 38.96 77.88C34.5867 75.4267 31.0933 72.0133 28.48 67.64C25.92 63.2133 24.64 58.2533 24.64 52.76C24.64 47.2667 25.92 42.3333 28.48 37.96C31.0933 33.5867 34.5867 30.1733 38.96 27.72C43.3867 25.2667 48.24 24.04 53.52 24.04C58.8 24.04 63.6267 25.2667 68 27.72C72.4267 30.1733 75.8933 33.5867 78.4 37.96C80.96 42.3333 82.24 47.2667 82.24 52.76C82.24 58.2533 80.96 63.2133 78.4 67.64C75.84 72.0133 72.3733 75.4267 68 77.88C63.6267 80.3333 58.8 81.56 53.52 81.56ZM53.52 69.08C58 69.08 61.5733 67.5867 64.24 64.6C66.96 61.6133 68.32 57.6667 68.32 52.76C68.32 47.8 66.96 43.8533 64.24 40.92C61.5733 37.9333 58 36.44 53.52 36.44C48.9867 36.44 45.36 37.9067 42.64 40.84C39.9733 43.7733 38.64 47.7467 38.64 52.76C38.64 57.72 39.9733 61.6933 42.64 64.68C45.36 67.6133 48.9867 69.08 53.52 69.08ZM133.931 36.36V81H120.251V74.92C118.864 76.8933 116.971 78.4933 114.571 79.72C112.224 80.8933 109.611 81.48 106.731 81.48C103.317 81.48 100.304 80.7333 97.6906 79.24C95.0773 77.6933 93.0506 75.48 91.6106 72.6C90.1706 69.72 89.4506 66.3333 89.4506 62.44V36.36H103.051V60.6C103.051 63.5867 103.824 65.9067 105.371 67.56C106.917 69.2133 108.997 70.04 111.611 70.04C114.277 70.04 116.384 69.2133 117.931 67.56C119.477 65.9067 120.251 63.5867 120.251 60.6V36.36H133.931ZM157.437 43.8C159.037 41.3467 161.037 39.4267 163.437 38.04C165.837 36.6 168.504 35.88 171.437 35.88V50.36H167.677C164.264 50.36 161.704 51.1067 159.997 52.6C158.29 54.04 157.437 56.6 157.437 60.28V81H143.757V36.36H157.437V43.8Z" fill="white"/>
<rect x="110" y="92" width="353" height="105" fill="#86171E"/>
<path d="M138.136 165.35C137.576 165.35 137.156 165.257 136.876 165.07C136.596 164.93 136.48 164.65 136.526 164.23C136.62 163.763 136.853 163.413 137.226 163.18C137.553 162.947 137.996 162.783 138.556 162.69C139.443 162.457 140.47 162.153 141.636 161.78C142.803 161.36 143.923 160.847 144.996 160.24C146.116 159.587 147.05 158.84 147.796 158C150.876 154.547 153.886 151.117 156.826 147.71C159.766 144.303 162.706 140.897 165.646 137.49C168.586 134.083 171.526 130.677 174.466 127.27C175.306 126.337 175.983 125.427 176.496 124.54C177.056 123.607 177.523 122.837 177.896 122.23C178.316 121.623 178.643 121.32 178.876 121.32C180.043 121.32 181.163 121.203 182.236 120.97C183.31 120.737 184.243 120.363 185.036 119.85C185.83 119.383 186.53 118.94 187.136 118.52C187.743 118.1 188.28 117.89 188.746 117.89C189.166 117.89 189.423 118.31 189.516 119.15C189.61 119.99 189.54 120.97 189.306 122.09L182.376 157.02C182.05 158.607 182.213 159.843 182.866 160.73C183.566 161.57 184.756 162.247 186.436 162.76C186.996 162.9 187.44 163.063 187.766 163.25C188.14 163.39 188.326 163.693 188.326 164.16C188.326 164.487 188.07 164.743 187.556 164.93C187.043 165.117 186.576 165.21 186.156 165.21C185.223 165.21 184.126 165.163 182.866 165.07C181.606 165.023 180.323 164.977 179.016 164.93C177.71 164.883 176.543 164.86 175.516 164.86C174.583 164.86 173.486 164.883 172.226 164.93C170.966 164.977 169.683 165.023 168.376 165.07C167.116 165.117 166.02 165.14 165.086 165.14C164.106 165.14 163.663 164.813 163.756 164.16C163.756 163.74 163.943 163.413 164.316 163.18C164.69 162.9 165.133 162.713 165.646 162.62C166.813 162.387 167.77 162.107 168.516 161.78C169.263 161.407 169.87 160.94 170.336 160.38C170.85 159.773 171.223 158.98 171.456 158L173.556 149.53C173.65 149.11 173.58 148.783 173.346 148.55C173.16 148.317 172.856 148.2 172.436 148.2H161.796C161.376 148.2 161.003 148.34 160.676 148.62C160.35 148.853 160.046 149.133 159.766 149.46L154.936 155.69C153.816 157.09 153.14 158.257 152.906 159.19C152.673 160.123 152.836 160.87 153.396 161.43C154.003 161.943 154.89 162.34 156.056 162.62C156.476 162.713 156.873 162.9 157.246 163.18C157.62 163.413 157.806 163.74 157.806 164.16C157.76 164.487 157.503 164.743 157.036 164.93C156.616 165.07 156.126 165.14 155.566 165.14C154.213 165.14 152.86 165.093 151.506 165C150.2 164.953 148.87 164.93 147.516 164.93C146.116 164.93 144.553 165 142.826 165.14C141.1 165.28 139.536 165.35 138.136 165.35ZM165.016 145.05H173.416C173.79 145.05 174.07 144.98 174.256 144.84C174.49 144.7 174.63 144.443 174.676 144.07L178.036 128.74C178.13 128.413 178.176 128.133 178.176 127.9C178.176 127.62 178.083 127.48 177.896 127.48C177.85 127.48 177.71 127.527 177.476 127.62C177.29 127.713 177.126 127.853 176.986 128.04L164.176 143.72C163.756 144.187 163.57 144.537 163.616 144.77C163.71 144.957 164.176 145.05 165.016 145.05ZM185.416 184.95C185.183 184.95 184.996 184.88 184.856 184.74C184.669 184.6 184.599 184.413 184.646 184.18C184.693 183.807 184.879 183.503 185.206 183.27C185.486 183.083 185.813 182.943 186.186 182.85C187.633 182.477 188.683 182.103 189.336 181.73C189.989 181.357 190.503 180.61 190.876 179.49L202.776 143.16C202.916 142.693 203.033 142.25 203.126 141.83C203.266 141.41 203.289 141.083 203.196 140.85C203.103 140.617 202.776 140.57 202.216 140.71C201.283 140.943 200.466 141.177 199.766 141.41C199.113 141.643 198.249 141.947 197.176 142.32C196.803 142.46 196.406 142.507 195.986 142.46C195.613 142.413 195.426 142.133 195.426 141.62C195.426 141.153 195.613 140.757 195.986 140.43C196.406 140.103 196.826 139.847 197.246 139.66C197.993 139.38 198.833 139.007 199.766 138.54C200.746 138.027 202.123 137.443 203.896 136.79C204.223 136.65 204.526 136.417 204.806 136.09C205.086 135.717 205.366 135.063 205.646 134.13C206.393 131.89 207.373 130.257 208.586 129.23C209.799 128.157 211.129 127.62 212.576 127.62C213.463 127.62 214.069 127.877 214.396 128.39C214.723 128.903 214.746 129.767 214.466 130.98L213.696 133.71C213.603 134.177 213.556 134.55 213.556 134.83C213.603 135.11 213.719 135.227 213.906 135.18C214.513 135.04 215.119 134.923 215.726 134.83C216.333 134.737 216.986 134.69 217.686 134.69C220.159 134.69 222.236 135.11 223.916 135.95C225.596 136.743 226.856 137.863 227.696 139.31C228.536 140.757 228.956 142.39 228.956 144.21C228.956 146.683 228.419 149.203 227.346 151.77C226.273 154.29 224.803 156.647 222.936 158.84C221.069 160.987 218.923 162.713 216.496 164.02C214.116 165.327 211.643 165.98 209.076 165.98C208.236 165.98 207.489 165.817 206.836 165.49C206.183 165.163 205.646 164.86 205.226 164.58C204.619 164.113 204.153 163.927 203.826 164.02C203.546 164.113 203.266 164.603 202.986 165.49L199.206 178.79C198.926 179.677 199.043 180.423 199.556 181.03C200.116 181.637 201.213 182.15 202.846 182.57C203.126 182.617 203.406 182.733 203.686 182.92C204.013 183.153 204.176 183.503 204.176 183.97C204.176 184.203 204.013 184.39 203.686 184.53C203.406 184.717 203.056 184.81 202.636 184.81C201.889 184.81 200.933 184.787 199.766 184.74C198.599 184.693 197.479 184.647 196.406 184.6C195.379 184.6 194.516 184.623 193.816 184.67C192.649 184.67 191.273 184.717 189.686 184.81C188.099 184.903 186.676 184.95 185.416 184.95ZM209.076 163.32C209.963 163.32 211.013 162.83 212.226 161.85C213.439 160.87 214.629 159.54 215.796 157.86C217.009 156.133 218.013 154.197 218.806 152.05C219.599 149.903 219.996 147.663 219.996 145.33C219.996 142.81 219.483 141.037 218.456 140.01C217.429 138.937 216.053 138.4 214.326 138.4C214.046 138.4 213.743 138.4 213.416 138.4C213.136 138.4 212.833 138.447 212.506 138.54L206.486 157.3C206.253 158 206.136 158.677 206.136 159.33C206.183 159.983 206.323 160.59 206.556 161.15C206.836 161.803 207.116 162.34 207.396 162.76C207.723 163.133 208.283 163.32 209.076 163.32ZM222.398 184.95C222.165 184.95 221.978 184.88 221.838 184.74C221.652 184.6 221.582 184.413 221.628 184.18C221.675 183.807 221.862 183.503 222.188 183.27C222.468 183.083 222.795 182.943 223.168 182.85C224.615 182.477 225.665 182.103 226.318 181.73C226.972 181.357 227.485 180.61 227.858 179.49L239.758 143.16C239.898 142.693 240.015 142.25 240.108 141.83C240.248 141.41 240.272 141.083 240.178 140.85C240.085 140.617 239.758 140.57 239.198 140.71C238.265 140.943 237.448 141.177 236.748 141.41C236.095 141.643 235.232 141.947 234.158 142.32C233.785 142.46 233.388 142.507 232.968 142.46C232.595 142.413 232.408 142.133 232.408 141.62C232.408 141.153 232.595 140.757 232.968 140.43C233.388 140.103 233.808 139.847 234.228 139.66C234.975 139.38 235.815 139.007 236.748 138.54C237.728 138.027 239.105 137.443 240.878 136.79C241.205 136.65 241.508 136.417 241.788 136.09C242.068 135.717 242.348 135.063 242.628 134.13C243.375 131.89 244.355 130.257 245.568 129.23C246.782 128.157 248.112 127.62 249.558 127.62C250.445 127.62 251.052 127.877 251.378 128.39C251.705 128.903 251.728 129.767 251.448 130.98L250.678 133.71C250.585 134.177 250.538 134.55 250.538 134.83C250.585 135.11 250.702 135.227 250.888 135.18C251.495 135.04 252.102 134.923 252.708 134.83C253.315 134.737 253.968 134.69 254.668 134.69C257.142 134.69 259.218 135.11 260.898 135.95C262.578 136.743 263.838 137.863 264.678 139.31C265.518 140.757 265.938 142.39 265.938 144.21C265.938 146.683 265.402 149.203 264.328 151.77C263.255 154.29 261.785 156.647 259.918 158.84C258.052 160.987 255.905 162.713 253.478 164.02C251.098 165.327 248.625 165.98 246.058 165.98C245.218 165.98 244.472 165.817 243.818 165.49C243.165 165.163 242.628 164.86 242.208 164.58C241.602 164.113 241.135 163.927 240.808 164.02C240.528 164.113 240.248 164.603 239.968 165.49L236.188 178.79C235.908 179.677 236.025 180.423 236.538 181.03C237.098 181.637 238.195 182.15 239.828 182.57C240.108 182.617 240.388 182.733 240.668 182.92C240.995 183.153 241.158 183.503 241.158 183.97C241.158 184.203 240.995 184.39 240.668 184.53C240.388 184.717 240.038 184.81 239.618 184.81C238.872 184.81 237.915 184.787 236.748 184.74C235.582 184.693 234.462 184.647 233.388 184.6C232.362 184.6 231.498 184.623 230.798 184.67C229.632 184.67 228.255 184.717 226.668 184.81C225.082 184.903 223.658 184.95 222.398 184.95ZM246.058 163.32C246.945 163.32 247.995 162.83 249.208 161.85C250.422 160.87 251.612 159.54 252.778 157.86C253.992 156.133 254.995 154.197 255.788 152.05C256.582 149.903 256.978 147.663 256.978 145.33C256.978 142.81 256.465 141.037 255.438 140.01C254.412 138.937 253.035 138.4 251.308 138.4C251.028 138.4 250.725 138.4 250.398 138.4C250.118 138.4 249.815 138.447 249.488 138.54L243.468 157.3C243.235 158 243.118 158.677 243.118 159.33C243.165 159.983 243.305 160.59 243.538 161.15C243.818 161.803 244.098 162.34 244.378 162.76C244.705 163.133 245.265 163.32 246.058 163.32ZM272.961 166.05C272.541 166.05 272.004 165.91 271.351 165.63C270.698 165.35 270.114 164.977 269.601 164.51C269.134 164.043 268.901 163.483 268.901 162.83C268.901 162.503 268.948 162.153 269.041 161.78C269.134 161.407 269.251 161.01 269.391 160.59L276.461 142.25C276.648 141.783 276.671 141.41 276.531 141.13C276.438 140.803 276.158 140.64 275.691 140.64C274.758 140.64 273.988 140.827 273.381 141.2C272.821 141.573 272.214 142.017 271.561 142.53C271.328 142.717 271.024 142.81 270.651 142.81C270.324 142.763 270.138 142.553 270.091 142.18C269.998 141.2 270.371 140.22 271.211 139.24C272.051 138.26 273.124 137.42 274.431 136.72C275.458 136.067 276.554 135.577 277.721 135.25C278.934 134.877 280.101 134.69 281.221 134.69C282.528 134.69 283.461 135.063 284.021 135.81C284.628 136.51 284.908 137.467 284.861 138.68C284.861 139.893 284.511 141.27 283.811 142.81L281.151 149.18C280.964 149.507 281.011 149.693 281.291 149.74C281.571 149.787 281.804 149.647 281.991 149.32C283.624 146.427 285.211 143.883 286.751 141.69C288.338 139.497 289.924 137.77 291.511 136.51C293.144 135.25 294.801 134.62 296.481 134.62C297.974 134.62 299.094 135.063 299.841 135.95C300.634 136.79 301.031 137.84 301.031 139.1C301.031 140.313 300.751 141.503 300.191 142.67C299.631 143.837 298.931 144.793 298.091 145.54C297.298 146.24 296.528 146.59 295.781 146.59C295.268 146.59 294.871 146.357 294.591 145.89C294.311 145.377 294.078 144.63 293.891 143.65C293.751 142.857 293.541 142.157 293.261 141.55C292.981 140.897 292.561 140.57 292.001 140.57C291.161 140.57 290.321 141.107 289.481 142.18C288.688 143.207 287.754 144.653 286.681 146.52C286.308 147.08 285.771 147.943 285.071 149.11C284.418 150.277 283.694 151.56 282.901 152.96C282.108 154.36 281.314 155.737 280.521 157.09C279.728 158.443 279.051 159.61 278.491 160.59C277.604 162.177 276.671 163.483 275.691 164.51C274.711 165.537 273.801 166.05 272.961 166.05ZM308.334 165.98C306.561 165.98 304.881 165.56 303.294 164.72C301.754 163.88 300.518 162.713 299.584 161.22C298.651 159.727 298.184 158 298.184 156.04C298.184 153.893 298.628 151.583 299.514 149.11C300.448 146.637 301.801 144.327 303.574 142.18C305.348 139.987 307.471 138.19 309.944 136.79C312.464 135.39 315.311 134.69 318.484 134.69C321.611 134.69 324.108 135.577 325.974 137.35C327.888 139.123 328.844 141.573 328.844 144.7C328.844 146.847 328.378 149.157 327.444 151.63C326.558 154.057 325.228 156.367 323.454 158.56C321.681 160.707 319.511 162.48 316.944 163.88C314.424 165.28 311.554 165.98 308.334 165.98ZM309.664 163.25C310.598 163.25 311.531 162.737 312.464 161.71C313.444 160.683 314.354 159.33 315.194 157.65C316.081 155.923 316.874 154.033 317.574 151.98C318.274 149.927 318.811 147.873 319.184 145.82C319.604 143.767 319.814 141.9 319.814 140.22C319.814 139.24 319.628 138.517 319.254 138.05C318.881 137.537 318.274 137.28 317.434 137.28C316.641 137.28 315.778 137.793 314.844 138.82C313.911 139.8 313.001 141.153 312.114 142.88C311.228 144.56 310.411 146.427 309.664 148.48C308.964 150.487 308.381 152.517 307.914 154.57C307.448 156.577 307.214 158.443 307.214 160.17C307.214 161.197 307.448 161.967 307.914 162.48C308.381 162.993 308.964 163.25 309.664 163.25ZM332.205 165.98C331.552 165.98 330.875 165.793 330.175 165.42C329.522 165.093 328.985 164.65 328.565 164.09C328.098 163.483 327.865 162.923 327.865 162.41C327.865 161.01 328.285 159.47 329.125 157.79C329.965 156.063 331.342 153.987 333.255 151.56C335.168 149.087 337.758 146.03 341.025 142.39C343.078 140.197 344.992 138.423 346.765 137.07C348.538 135.717 349.845 135.04 350.685 135.04C351.945 135.04 353.322 135.647 354.815 136.86C355.142 137.233 355.328 137.443 355.375 137.49C355.422 137.49 355.468 137.49 355.515 137.49C355.608 137.49 355.655 137.49 355.655 137.49C355.702 137.443 355.795 137.28 355.935 137C356.262 136.347 356.495 135.88 356.635 135.6C356.775 135.273 356.892 134.993 356.985 134.76C357.265 134.247 357.848 133.99 358.735 133.99C359.435 133.99 360.182 134.153 360.975 134.48C361.815 134.807 362.515 135.203 363.075 135.67C363.635 136.137 363.915 136.58 363.915 137C363.915 137.28 363.868 137.513 363.775 137.7L356.775 156.74C356.355 157.953 356.612 158.56 357.545 158.56C358.058 158.56 358.875 158.163 359.995 157.37C361.115 156.53 362.235 155.527 363.355 154.36C363.448 154.267 363.495 154.22 363.495 154.22C363.542 154.173 363.612 154.15 363.705 154.15C363.892 154.15 364.055 154.267 364.195 154.5C364.382 154.687 364.475 154.943 364.475 155.27C364.475 155.923 364.032 156.833 363.145 158C362.305 159.12 361.185 160.263 359.785 161.43C358.105 162.83 356.448 163.95 354.815 164.79C353.182 165.583 351.805 165.98 350.685 165.98C349.985 165.98 349.262 165.77 348.515 165.35C347.815 164.977 347.232 164.51 346.765 163.95C346.298 163.343 346.065 162.737 346.065 162.13C346.065 161.85 346.182 161.313 346.415 160.52C346.462 160.287 346.578 159.937 346.765 159.47C346.952 159.003 347.162 158.513 347.395 158C347.628 157.44 347.862 156.88 348.095 156.32C348.375 155.76 348.608 155.223 348.795 154.71C348.935 154.43 348.912 154.243 348.725 154.15C348.585 154.01 348.445 154.01 348.305 154.15C345.925 156.903 343.755 159.167 341.795 160.94C339.882 162.667 338.132 163.95 336.545 164.79C335.005 165.583 333.558 165.98 332.205 165.98ZM339.555 158.56C340.348 158.56 341.608 157.837 343.335 156.39C345.062 154.897 346.812 153.03 348.585 150.79C350.125 148.97 351.315 147.36 352.155 145.96C353.042 144.513 353.485 143.487 353.485 142.88C353.485 142.46 353.018 141.853 352.085 141.06C351.618 140.733 351.152 140.453 350.685 140.22C350.218 139.94 349.822 139.8 349.495 139.8C348.795 139.8 347.815 140.22 346.555 141.06C345.295 141.9 344.105 142.88 342.985 144C342.005 144.933 341.095 146.123 340.255 147.57C339.415 148.97 338.738 150.44 338.225 151.98C337.712 153.473 337.455 154.85 337.455 156.11C337.455 156.857 337.642 157.463 338.015 157.93C338.388 158.35 338.902 158.56 339.555 158.56ZM377.566 165.98C375.839 165.98 374.253 165.56 372.806 164.72C371.406 163.833 370.263 162.69 369.376 161.29C368.536 159.843 368.139 158.233 368.186 156.46C368.233 154.22 368.583 152.027 369.236 149.88C369.889 147.733 370.776 145.75 371.896 143.93C373.063 142.063 374.416 140.453 375.956 139.1C377.496 137.7 379.199 136.627 381.066 135.88C382.979 135.087 385.009 134.69 387.156 134.69C388.929 134.69 390.376 135.087 391.496 135.88C392.616 136.673 393.176 137.677 393.176 138.89C393.176 139.777 392.873 140.663 392.266 141.55C391.659 142.39 391.006 142.81 390.306 142.81C389.933 142.81 389.606 142.67 389.326 142.39C389.046 142.11 388.673 141.55 388.206 140.71C387.739 139.87 387.203 139.17 386.596 138.61C386.036 138.003 385.453 137.7 384.846 137.7C383.866 137.7 382.886 138.143 381.906 139.03C380.973 139.917 380.109 141.107 379.316 142.6C378.569 144.047 377.963 145.657 377.496 147.43C377.029 149.203 376.773 151 376.726 152.82C376.679 154.547 377.099 155.9 377.986 156.88C378.873 157.813 380.086 158.28 381.626 158.28C382.886 158.28 384.053 158 385.126 157.44C386.246 156.833 387.203 156.04 387.996 155.06C388.183 154.78 388.393 154.57 388.626 154.43C388.906 154.29 389.139 154.22 389.326 154.22C389.793 154.22 390.026 154.477 390.026 154.99C390.026 156.11 389.653 157.323 388.906 158.63C388.159 159.89 387.156 161.08 385.896 162.2C384.683 163.32 383.353 164.23 381.906 164.93C380.459 165.63 379.013 165.98 377.566 165.98ZM398.34 166.05C397.92 166.05 397.407 165.91 396.8 165.63C396.24 165.35 395.727 164.953 395.26 164.44C394.793 163.927 394.56 163.343 394.56 162.69C394.56 161.897 394.63 161.127 394.77 160.38C394.957 159.587 395.213 158.677 395.54 157.65L404.92 127.27C405.153 126.57 405.34 125.87 405.48 125.17C405.62 124.47 405.69 123.84 405.69 123.28C405.69 122.627 405.387 122.137 404.78 121.81C404.22 121.483 403.613 121.203 402.96 120.97C402.633 120.877 402.33 120.76 402.05 120.62C401.77 120.433 401.63 120.2 401.63 119.92C401.63 119.687 401.723 119.477 401.91 119.29C402.143 119.057 402.657 118.777 403.45 118.45C404.01 118.31 404.827 118.077 405.9 117.75C407.02 117.423 408.187 117.097 409.4 116.77C410.613 116.397 411.71 116.093 412.69 115.86C413.717 115.627 414.417 115.51 414.79 115.51C415.163 115.51 415.56 115.557 415.98 115.65C416.4 115.697 416.61 115.953 416.61 116.42C416.61 116.98 416.54 117.47 416.4 117.89C416.307 118.31 416.167 118.753 415.98 119.22L406.25 148.97C406.157 149.297 406.203 149.483 406.39 149.53C406.577 149.53 406.763 149.39 406.95 149.11C408.677 146.45 410.52 144.023 412.48 141.83C414.44 139.59 416.4 137.84 418.36 136.58C420.367 135.273 422.303 134.62 424.17 134.62C426.083 134.62 427.507 135.227 428.44 136.44C429.42 137.607 429.91 139.053 429.91 140.78C429.91 143.207 429.583 145.563 428.93 147.85C428.323 150.09 427.483 152.213 426.41 154.22C425.337 156.227 424.147 158.047 422.84 159.68C422.513 160.1 421.883 160.66 420.95 161.36C420.063 162.013 419.037 162.713 417.87 163.46C416.75 164.16 415.653 164.743 414.58 165.21C413.553 165.723 412.783 165.98 412.27 165.98C411.663 165.98 411.033 165.793 410.38 165.42C409.727 165.047 409.167 164.603 408.7 164.09C408.233 163.577 408 163.133 408 162.76C408 162.527 408.117 162.153 408.35 161.64C408.63 161.08 408.957 160.567 409.33 160.1C409.703 159.633 410.077 159.4 410.45 159.4C410.963 159.4 411.337 159.517 411.57 159.75C411.85 159.983 412.177 160.287 412.55 160.66C412.923 160.94 413.273 161.243 413.6 161.57C413.973 161.85 414.393 161.99 414.86 161.99C415.327 161.99 415.817 161.523 416.33 160.59C416.89 159.61 417.427 158.373 417.94 156.88C418.453 155.34 418.897 153.683 419.27 151.91C419.69 150.137 420.017 148.41 420.25 146.73C420.483 145.003 420.6 143.533 420.6 142.32C420.6 141.527 420.46 140.897 420.18 140.43C419.9 139.963 419.433 139.73 418.78 139.73C418.173 139.73 417.403 140.22 416.47 141.2C415.537 142.133 414.51 143.417 413.39 145.05C412.317 146.683 411.173 148.503 409.96 150.51C408.747 152.47 407.533 154.453 406.32 156.46C405.107 158.42 403.94 160.263 402.82 161.99C401.98 163.39 401.187 164.417 400.44 165.07C399.693 165.723 398.993 166.05 398.34 166.05Z" fill="white"/>
</svg>
