<svg width="374" height="197" viewBox="0 0 374 197" fill="none" xmlns="http://www.w3.org/2000/svg">
<rect width="207" height="105" fill="#FA4238"/>
<path d="M53.52 81.56C48.24 81.56 43.3867 80.3333 38.96 77.88C34.5867 75.4267 31.0933 72.0133 28.48 67.64C25.92 63.2133 24.64 58.2533 24.64 52.76C24.64 47.2667 25.92 42.3333 28.48 37.96C31.0933 33.5867 34.5867 30.1733 38.96 27.72C43.3867 25.2667 48.24 24.04 53.52 24.04C58.8 24.04 63.6267 25.2667 68 27.72C72.4267 30.1733 75.8933 33.5867 78.4 37.96C80.96 42.3333 82.24 47.2667 82.24 52.76C82.24 58.2533 80.96 63.2133 78.4 67.64C75.84 72.0133 72.3733 75.4267 68 77.88C63.6267 80.3333 58.8 81.56 53.52 81.56ZM53.52 69.08C58 69.08 61.5733 67.5867 64.24 64.6C66.96 61.6133 68.32 57.6667 68.32 52.76C68.32 47.8 66.96 43.8533 64.24 40.92C61.5733 37.9333 58 36.44 53.52 36.44C48.9867 36.44 45.36 37.9067 42.64 40.84C39.9733 43.7733 38.64 47.7467 38.64 52.76C38.64 57.72 39.9733 61.6933 42.64 64.68C45.36 67.6133 48.9867 69.08 53.52 69.08ZM133.931 36.36V81H120.251V74.92C118.864 76.8933 116.971 78.4933 114.571 79.72C112.224 80.8933 109.611 81.48 106.731 81.48C103.317 81.48 100.304 80.7333 97.6906 79.24C95.0773 77.6933 93.0506 75.48 91.6106 72.6C90.1706 69.72 89.4506 66.3333 89.4506 62.44V36.36H103.051V60.6C103.051 63.5867 103.824 65.9067 105.371 67.56C106.917 69.2133 108.997 70.04 111.611 70.04C114.277 70.04 116.384 69.2133 117.931 67.56C119.477 65.9067 120.251 63.5867 120.251 60.6V36.36H133.931ZM157.437 43.8C159.037 41.3467 161.037 39.4267 163.437 38.04C165.837 36.6 168.504 35.88 171.437 35.88V50.36H167.677C164.264 50.36 161.704 51.1067 159.997 52.6C158.29 54.04 157.437 56.6 157.437 60.28V81H143.757V36.36H157.437V43.8Z" fill="white"/>
<rect x="109" y="92" width="265" height="105" fill="#86171E"/>
<path d="M145.538 168.98C143.064 168.98 140.731 168.513 138.538 167.58C136.391 166.647 134.478 165.363 132.798 163.73C131.164 162.05 129.881 160.09 128.948 157.85C128.061 155.61 127.618 153.137 127.618 150.43C127.618 146.23 128.434 142.38 130.068 138.88C131.701 135.38 133.941 132.347 136.788 129.78C139.681 127.167 142.994 125.137 146.728 123.69C150.508 122.243 154.568 121.52 158.908 121.52C160.494 121.52 161.918 121.66 163.178 121.94C164.438 122.22 165.558 122.547 166.538 122.92C167.424 123.2 168.124 123.433 168.638 123.62C169.198 123.76 169.758 123.83 170.318 123.83C170.644 123.83 170.924 123.807 171.158 123.76C171.438 123.713 171.741 123.597 172.068 123.41C172.441 123.177 172.791 123.013 173.118 122.92C173.444 122.78 173.771 122.71 174.098 122.71C174.564 122.71 174.844 122.85 174.938 123.13C175.031 123.41 174.938 123.783 174.658 124.25C174.051 125.043 173.398 126.14 172.698 127.54C171.998 128.94 171.368 130.387 170.808 131.88C170.248 133.373 169.781 134.727 169.408 135.94C169.314 136.36 169.128 136.733 168.848 137.06C168.614 137.34 168.264 137.48 167.798 137.48C167.378 137.48 167.074 137.177 166.888 136.57C166.701 135.917 166.631 135.123 166.678 134.19C166.771 133.163 166.678 132.113 166.398 131.04C166.164 129.967 165.744 128.987 165.138 128.1C164.391 126.887 163.458 125.907 162.338 125.16C161.218 124.413 160.028 124.04 158.768 124.04C156.388 124.04 154.148 124.67 152.048 125.93C149.948 127.19 148.058 128.893 146.378 131.04C144.698 133.14 143.251 135.52 142.038 138.18C140.871 140.84 139.961 143.64 139.308 146.58C138.654 149.473 138.328 152.273 138.328 154.98C138.328 156.893 138.561 158.573 139.028 160.02C139.494 161.42 140.148 162.587 140.988 163.52C141.828 164.453 142.854 165.153 144.068 165.62C145.281 166.04 146.634 166.25 148.128 166.25C150.041 166.25 151.838 165.853 153.518 165.06C155.244 164.22 156.878 163.053 158.418 161.56C160.004 160.067 161.521 158.34 162.968 156.38C163.341 155.867 163.644 155.447 163.878 155.12C164.158 154.747 164.461 154.56 164.788 154.56C165.114 154.56 165.394 154.747 165.628 155.12C165.861 155.447 165.908 155.867 165.768 156.38C165.488 157.407 165.091 158.62 164.578 160.02C164.111 161.42 163.574 162.773 162.968 164.08C162.361 165.387 161.778 166.483 161.218 167.37C160.704 168.21 160.308 168.63 160.028 168.63C159.608 168.63 159.281 168.537 159.048 168.35C158.814 168.21 158.558 168.047 158.278 167.86C157.998 167.673 157.671 167.533 157.298 167.44C156.924 167.3 156.411 167.23 155.758 167.23C155.244 167.23 154.661 167.323 154.008 167.51C153.401 167.65 152.724 167.837 151.978 168.07C151.138 168.257 150.181 168.443 149.108 168.63C148.034 168.863 146.844 168.98 145.538 168.98ZM180.75 168.98C178.977 168.98 177.297 168.56 175.71 167.72C174.17 166.88 172.934 165.713 172 164.22C171.067 162.727 170.6 161 170.6 159.04C170.6 156.893 171.044 154.583 171.93 152.11C172.864 149.637 174.217 147.327 175.99 145.18C177.764 142.987 179.887 141.19 182.36 139.79C184.88 138.39 187.727 137.69 190.9 137.69C194.027 137.69 196.524 138.577 198.39 140.35C200.304 142.123 201.26 144.573 201.26 147.7C201.26 149.847 200.794 152.157 199.86 154.63C198.974 157.057 197.644 159.367 195.87 161.56C194.097 163.707 191.927 165.48 189.36 166.88C186.84 168.28 183.97 168.98 180.75 168.98ZM182.08 166.25C183.014 166.25 183.947 165.737 184.88 164.71C185.86 163.683 186.77 162.33 187.61 160.65C188.497 158.923 189.29 157.033 189.99 154.98C190.69 152.927 191.227 150.873 191.6 148.82C192.02 146.767 192.23 144.9 192.23 143.22C192.23 142.24 192.044 141.517 191.67 141.05C191.297 140.537 190.69 140.28 189.85 140.28C189.057 140.28 188.194 140.793 187.26 141.82C186.327 142.8 185.417 144.153 184.53 145.88C183.644 147.56 182.827 149.427 182.08 151.48C181.38 153.487 180.797 155.517 180.33 157.57C179.864 159.577 179.63 161.443 179.63 163.17C179.63 164.197 179.864 164.967 180.33 165.48C180.797 165.993 181.38 166.25 182.08 166.25ZM209.941 168.98C209.008 168.98 208.121 168.583 207.281 167.79C206.488 166.95 205.928 165.993 205.601 164.92C205.274 163.847 205.298 162.867 205.671 161.98L212.181 147.14C212.508 146.44 212.648 145.903 212.601 145.53C212.554 145.157 212.344 144.97 211.971 144.97C211.738 144.97 211.248 145.203 210.501 145.67C209.754 146.09 209.008 146.58 208.261 147.14C207.514 147.7 206.954 148.167 206.581 148.54C205.974 149.1 205.461 149.38 205.041 149.38C204.668 149.38 204.481 149.17 204.481 148.75C204.481 148.283 204.598 147.84 204.831 147.42C205.111 146.953 205.414 146.51 205.741 146.09C207.094 144.41 208.518 142.94 210.011 141.68C211.551 140.42 213.091 139.44 214.631 138.74C216.218 137.993 217.734 137.62 219.181 137.62C219.834 137.62 220.488 137.923 221.141 138.53C221.794 139.137 222.284 139.86 222.611 140.7C222.938 141.493 222.938 142.217 222.611 142.87C221.724 144.83 220.628 147.21 219.321 150.01C218.014 152.763 216.544 155.913 214.911 159.46C214.584 160.16 214.444 160.767 214.491 161.28C214.538 161.793 214.794 162.05 215.261 162.05C215.728 162.05 216.404 161.56 217.291 160.58C218.224 159.553 219.251 158.27 220.371 156.73C221.538 155.19 222.728 153.627 223.941 152.04C224.828 150.92 225.691 149.753 226.531 148.54C227.371 147.327 228.141 146.16 228.841 145.04C229.588 143.873 230.218 142.847 230.731 141.96C231.524 140.747 232.224 139.743 232.831 138.95C233.484 138.11 234.208 137.69 235.001 137.69C235.888 137.69 236.681 137.947 237.381 138.46C238.081 138.973 238.594 139.58 238.921 140.28C239.248 140.98 239.294 141.657 239.061 142.31L232.061 160.44C231.921 160.813 231.851 161.163 231.851 161.49C231.898 161.817 232.038 161.98 232.271 161.98C232.644 161.98 233.298 161.7 234.231 161.14C235.211 160.533 236.214 159.833 237.241 159.04C238.314 158.2 239.154 157.477 239.761 156.87C239.901 156.73 239.994 156.66 240.041 156.66C240.274 156.66 240.484 156.777 240.671 157.01C240.858 157.197 240.951 157.43 240.951 157.71C240.951 158.317 240.624 159.04 239.971 159.88C239.318 160.673 238.478 161.537 237.451 162.47C236.424 163.357 235.328 164.197 234.161 164.99C232.994 165.737 231.851 166.367 230.731 166.88C229.611 167.393 228.608 167.673 227.721 167.72C227.068 167.953 226.414 167.977 225.761 167.79C225.108 167.603 224.524 167.3 224.011 166.88C223.498 166.46 223.101 166.04 222.821 165.62C222.728 165.433 222.658 165.177 222.611 164.85C222.611 164.477 222.704 164.103 222.891 163.73C223.264 162.89 223.684 161.957 224.151 160.93C224.664 159.857 225.178 158.713 225.691 157.5C226.204 156.287 226.718 155.027 227.231 153.72C227.371 153.3 227.324 153.09 227.091 153.09C226.858 153.043 226.624 153.183 226.391 153.51C225.038 155.377 223.638 157.22 222.191 159.04C220.791 160.86 219.368 162.517 217.921 164.01C216.521 165.503 215.144 166.717 213.791 167.65C212.438 168.537 211.154 168.98 209.941 168.98ZM249.215 169.05C248.795 169.05 248.258 168.91 247.605 168.63C246.951 168.35 246.368 167.977 245.855 167.51C245.388 167.043 245.155 166.483 245.155 165.83C245.155 165.503 245.201 165.153 245.295 164.78C245.388 164.407 245.505 164.01 245.645 163.59L252.715 145.25C252.901 144.783 252.925 144.41 252.785 144.13C252.691 143.803 252.411 143.64 251.945 143.64C251.011 143.64 250.241 143.827 249.635 144.2C249.075 144.573 248.468 145.017 247.815 145.53C247.581 145.717 247.278 145.81 246.905 145.81C246.578 145.763 246.391 145.553 246.345 145.18C246.251 144.2 246.625 143.22 247.465 142.24C248.305 141.26 249.378 140.42 250.685 139.72C251.711 139.067 252.808 138.577 253.975 138.25C255.188 137.877 256.355 137.69 257.475 137.69C258.781 137.69 259.715 138.063 260.275 138.81C260.881 139.51 261.161 140.467 261.115 141.68C261.115 142.893 260.765 144.27 260.065 145.81L257.405 152.18C257.218 152.507 257.265 152.693 257.545 152.74C257.825 152.787 258.058 152.647 258.245 152.32C259.878 149.427 261.465 146.883 263.005 144.69C264.591 142.497 266.178 140.77 267.765 139.51C269.398 138.25 271.055 137.62 272.735 137.62C274.228 137.62 275.348 138.063 276.095 138.95C276.888 139.79 277.285 140.84 277.285 142.1C277.285 143.313 277.005 144.503 276.445 145.67C275.885 146.837 275.185 147.793 274.345 148.54C273.551 149.24 272.781 149.59 272.035 149.59C271.521 149.59 271.125 149.357 270.845 148.89C270.565 148.377 270.331 147.63 270.145 146.65C270.005 145.857 269.795 145.157 269.515 144.55C269.235 143.897 268.815 143.57 268.255 143.57C267.415 143.57 266.575 144.107 265.735 145.18C264.941 146.207 264.008 147.653 262.935 149.52C262.561 150.08 262.025 150.943 261.325 152.11C260.671 153.277 259.948 154.56 259.155 155.96C258.361 157.36 257.568 158.737 256.775 160.09C255.981 161.443 255.305 162.61 254.745 163.59C253.858 165.177 252.925 166.483 251.945 167.51C250.965 168.537 250.055 169.05 249.215 169.05ZM279.457 168.98C277.497 168.98 275.91 168.537 274.697 167.65C273.484 166.763 272.877 165.597 272.877 164.15C272.877 162.937 273.157 161.933 273.717 161.14C274.23 160.3 274.93 159.88 275.817 159.88C276.19 159.88 276.61 160.113 277.077 160.58C277.544 161 278.057 161.513 278.617 162.12C279.317 162.773 280.087 163.473 280.927 164.22C281.767 164.967 282.63 165.34 283.517 165.34C284.264 165.34 284.8 165.13 285.127 164.71C285.5 164.243 285.71 163.613 285.757 162.82C285.804 162.12 285.477 161.21 284.777 160.09C284.077 158.923 283.354 157.803 282.607 156.73C281.767 155.517 281.02 154.233 280.367 152.88C279.76 151.527 279.457 150.197 279.457 148.89C279.457 147.63 279.877 146.37 280.717 145.11C281.604 143.803 282.677 142.59 283.937 141.47C285.244 140.303 286.55 139.393 287.857 138.74C289.164 138.04 290.237 137.69 291.077 137.69C292.244 137.69 293.364 137.947 294.437 138.46C295.557 138.973 296.467 139.58 297.167 140.28C297.914 140.933 298.287 141.54 298.287 142.1C298.287 142.613 298.03 143.243 297.517 143.99C297.05 144.69 296.514 145.32 295.907 145.88C295.3 146.393 294.717 146.65 294.157 146.65C293.597 146.65 293.084 146.44 292.617 146.02C292.197 145.553 291.8 145.087 291.427 144.62C291.007 144.013 290.47 143.5 289.817 143.08C289.21 142.613 288.58 142.38 287.927 142.38C287.274 142.38 286.76 142.613 286.387 143.08C286.014 143.5 285.827 143.99 285.827 144.55C285.827 144.923 286.014 145.413 286.387 146.02C286.807 146.627 287.297 147.303 287.857 148.05C288.417 148.75 288.977 149.497 289.537 150.29C290.89 152.017 291.87 153.487 292.477 154.7C293.084 155.867 293.387 157.033 293.387 158.2C293.387 159.18 292.99 160.277 292.197 161.49C291.404 162.703 290.33 163.893 288.977 165.06C287.67 166.227 286.177 167.183 284.497 167.93C282.864 168.63 281.184 168.98 279.457 168.98ZM306.364 169.05C305.104 169.05 303.774 168.677 302.374 167.93C300.974 167.137 299.784 166.11 298.804 164.85C297.824 163.543 297.334 162.097 297.334 160.51C297.334 157.617 297.87 154.817 298.944 152.11C300.017 149.357 301.44 146.907 303.214 144.76C304.987 142.613 306.994 140.91 309.234 139.65C311.52 138.343 313.83 137.69 316.164 137.69C318.87 137.69 320.83 138.203 322.044 139.23C323.257 140.257 323.864 141.47 323.864 142.87C323.864 144.457 323.327 145.833 322.254 147C321.227 148.12 319.874 149.077 318.194 149.87C316.56 150.663 314.787 151.317 312.874 151.83C310.96 152.343 309.14 152.787 307.414 153.16C307.18 153.207 307.017 153.277 306.924 153.37C306.83 153.463 306.737 153.627 306.644 153.86C306.55 154.187 306.457 154.56 306.364 154.98C306.317 155.353 306.27 155.727 306.224 156.1C306.177 157.733 306.597 159.157 307.484 160.37C308.417 161.583 309.77 162.19 311.544 162.19C312.85 162.19 314.04 161.863 315.114 161.21C316.234 160.51 317.307 159.6 318.334 158.48C318.847 157.967 319.244 157.71 319.524 157.71C319.99 157.71 320.224 157.943 320.224 158.41C320.224 158.55 320.2 158.713 320.154 158.9C320.154 159.087 320.107 159.25 320.014 159.39C319.127 161.07 318.03 162.657 316.724 164.15C315.417 165.597 313.9 166.787 312.174 167.72C310.447 168.607 308.51 169.05 306.364 169.05ZM307.904 150.71C308.837 150.43 309.817 150.103 310.844 149.73C311.917 149.357 312.897 148.867 313.784 148.26C314.67 147.607 315.417 146.813 316.024 145.88C316.63 144.947 316.98 143.827 317.074 142.52C317.074 141.96 316.91 141.447 316.584 140.98C316.257 140.467 315.767 140.21 315.114 140.21C314.274 140.21 313.434 140.513 312.594 141.12C311.8 141.68 311.03 142.45 310.284 143.43C309.537 144.363 308.907 145.437 308.394 146.65C307.927 147.817 307.6 149.03 307.414 150.29C307.367 150.663 307.53 150.803 307.904 150.71ZM328.266 168.98C326.306 168.98 324.719 168.537 323.506 167.65C322.292 166.763 321.686 165.597 321.686 164.15C321.686 162.937 321.966 161.933 322.526 161.14C323.039 160.3 323.739 159.88 324.626 159.88C324.999 159.88 325.419 160.113 325.886 160.58C326.352 161 326.866 161.513 327.426 162.12C328.126 162.773 328.896 163.473 329.736 164.22C330.576 164.967 331.439 165.34 332.326 165.34C333.072 165.34 333.609 165.13 333.936 164.71C334.309 164.243 334.519 163.613 334.566 162.82C334.612 162.12 334.286 161.21 333.586 160.09C332.886 158.923 332.162 157.803 331.416 156.73C330.576 155.517 329.829 154.233 329.176 152.88C328.569 151.527 328.266 150.197 328.266 148.89C328.266 147.63 328.686 146.37 329.526 145.11C330.412 143.803 331.486 142.59 332.746 141.47C334.052 140.303 335.359 139.393 336.666 138.74C337.972 138.04 339.046 137.69 339.886 137.69C341.052 137.69 342.172 137.947 343.246 138.46C344.366 138.973 345.276 139.58 345.976 140.28C346.722 140.933 347.096 141.54 347.096 142.1C347.096 142.613 346.839 143.243 346.326 143.99C345.859 144.69 345.322 145.32 344.716 145.88C344.109 146.393 343.526 146.65 342.966 146.65C342.406 146.65 341.892 146.44 341.426 146.02C341.006 145.553 340.609 145.087 340.236 144.62C339.816 144.013 339.279 143.5 338.626 143.08C338.019 142.613 337.389 142.38 336.736 142.38C336.082 142.38 335.569 142.613 335.196 143.08C334.822 143.5 334.636 143.99 334.636 144.55C334.636 144.923 334.822 145.413 335.196 146.02C335.616 146.627 336.106 147.303 336.666 148.05C337.226 148.75 337.786 149.497 338.346 150.29C339.699 152.017 340.679 153.487 341.286 154.7C341.892 155.867 342.196 157.033 342.196 158.2C342.196 159.18 341.799 160.277 341.006 161.49C340.212 162.703 339.139 163.893 337.786 165.06C336.479 166.227 334.986 167.183 333.306 167.93C331.672 168.63 329.992 168.98 328.266 168.98Z" fill="white"/>
</svg>
