<svg width="397" height="197" viewBox="0 0 397 197" fill="none" xmlns="http://www.w3.org/2000/svg">
<rect width="207" height="105" fill="#FA4238"/>
<path d="M53.52 81.56C48.24 81.56 43.3867 80.3333 38.96 77.88C34.5867 75.4267 31.0933 72.0133 28.48 67.64C25.92 63.2133 24.64 58.2533 24.64 52.76C24.64 47.2667 25.92 42.3333 28.48 37.96C31.0933 33.5867 34.5867 30.1733 38.96 27.72C43.3867 25.2667 48.24 24.04 53.52 24.04C58.8 24.04 63.6267 25.2667 68 27.72C72.4267 30.1733 75.8933 33.5867 78.4 37.96C80.96 42.3333 82.24 47.2667 82.24 52.76C82.24 58.2533 80.96 63.2133 78.4 67.64C75.84 72.0133 72.3733 75.4267 68 77.88C63.6267 80.3333 58.8 81.56 53.52 81.56ZM53.52 69.08C58 69.08 61.5733 67.5867 64.24 64.6C66.96 61.6133 68.32 57.6667 68.32 52.76C68.32 47.8 66.96 43.8533 64.24 40.92C61.5733 37.9333 58 36.44 53.52 36.44C48.9867 36.44 45.36 37.9067 42.64 40.84C39.9733 43.7733 38.64 47.7467 38.64 52.76C38.64 57.72 39.9733 61.6933 42.64 64.68C45.36 67.6133 48.9867 69.08 53.52 69.08ZM133.931 36.36V81H120.251V74.92C118.864 76.8933 116.971 78.4933 114.571 79.72C112.224 80.8933 109.611 81.48 106.731 81.48C103.317 81.48 100.304 80.7333 97.6906 79.24C95.0773 77.6933 93.0506 75.48 91.6106 72.6C90.1706 69.72 89.4506 66.3333 89.4506 62.44V36.36H103.051V60.6C103.051 63.5867 103.824 65.9067 105.371 67.56C106.917 69.2133 108.997 70.04 111.611 70.04C114.277 70.04 116.384 69.2133 117.931 67.56C119.477 65.9067 120.251 63.5867 120.251 60.6V36.36H133.931ZM157.437 43.8C159.037 41.3467 161.037 39.4267 163.437 38.04C165.837 36.6 168.504 35.88 171.437 35.88V50.36H167.677C164.264 50.36 161.704 51.1067 159.997 52.6C158.29 54.04 157.437 56.6 157.437 60.28V81H143.757V36.36H157.437V43.8Z" fill="white"/>
<rect x="105" y="92" width="292" height="105" fill="#86171E"/>
<path d="M162.665 169.98C162.432 169.98 162.199 169.84 161.965 169.56C161.779 169.28 161.685 168.883 161.685 168.37C161.685 162.957 161.545 157.66 161.265 152.48C161.032 147.3 160.752 142.073 160.425 136.8C160.379 136.24 160.169 136.03 159.795 136.17C159.469 136.31 159.165 136.683 158.885 137.29C157.205 140.65 155.595 144.01 154.055 147.37C152.562 150.73 151.185 154.113 149.925 157.52C149.225 159.48 148.805 161.113 148.665 162.42C148.525 163.68 148.665 164.66 149.085 165.36C149.505 166.013 150.182 166.457 151.115 166.69C151.535 166.783 151.932 166.947 152.305 167.18C152.679 167.367 152.795 167.693 152.655 168.16C152.562 168.487 152.282 168.743 151.815 168.93C151.395 169.07 150.975 169.14 150.555 169.14C149.342 169.14 148.362 169.117 147.615 169.07C146.915 169.023 146.285 169 145.725 169C145.165 168.953 144.372 168.93 143.345 168.93C142.319 168.93 141.245 168.953 140.125 169C139.052 169.047 138.095 169.093 137.255 169.14C136.415 169.233 135.879 169.28 135.645 169.28C134.525 169.28 134.059 168.93 134.245 168.23C134.385 167.857 134.689 167.6 135.155 167.46C135.622 167.32 136.112 167.157 136.625 166.97C137.792 166.597 138.819 166.153 139.705 165.64C140.639 165.127 141.572 164.287 142.505 163.12C143.439 161.953 144.465 160.227 145.585 157.94L157.415 133.93C158.302 132.157 158.769 130.733 158.815 129.66C158.909 128.587 158.489 127.723 157.555 127.07C156.622 126.37 155.059 125.787 152.865 125.32C152.259 125.18 151.792 125.04 151.465 124.9C151.139 124.76 150.975 124.457 150.975 123.99C150.975 123.523 151.255 123.243 151.815 123.15C152.375 123.01 152.935 122.94 153.495 122.94C154.429 122.94 155.735 122.963 157.415 123.01C159.095 123.057 160.799 123.127 162.525 123.22C164.299 123.267 165.769 123.29 166.935 123.29C168.102 123.29 168.849 123.64 169.175 124.34C169.549 124.993 169.712 125.833 169.665 126.86C169.619 127.887 169.595 128.983 169.595 130.15L170.575 153.81C170.622 154.323 170.762 154.627 170.995 154.72C171.275 154.813 171.625 154.627 172.045 154.16C174.612 151.547 177.109 148.747 179.535 145.76C182.009 142.727 184.319 139.74 186.465 136.8C188.659 133.86 190.595 131.223 192.275 128.89C192.882 127.91 193.419 127.07 193.885 126.37C194.352 125.623 194.772 124.97 195.145 124.41C195.519 123.803 196.009 123.5 196.615 123.5H199.905C201.119 123.5 202.309 123.453 203.475 123.36C204.689 123.267 205.809 123.173 206.835 123.08C207.909 122.987 208.819 122.94 209.565 122.94C210.079 122.94 210.499 123.01 210.825 123.15C211.152 123.29 211.315 123.547 211.315 123.92C211.315 124.34 211.012 124.713 210.405 125.04C209.799 125.367 208.889 125.693 207.675 126.02C206.509 126.253 205.552 126.627 204.805 127.14C204.059 127.653 203.452 128.33 202.985 129.17C202.519 130.01 202.099 131.037 201.725 132.25C200.465 137.01 199.275 141.84 198.155 146.74C197.035 151.64 195.985 156.54 195.005 161.44C194.679 162.933 194.842 164.1 195.495 164.94C196.195 165.78 197.199 166.363 198.505 166.69C198.925 166.83 199.252 166.993 199.485 167.18C199.765 167.367 199.835 167.693 199.695 168.16C199.649 168.44 199.439 168.673 199.065 168.86C198.739 169.047 198.365 169.14 197.945 169.14C196.965 169.14 195.799 169.117 194.445 169.07C193.139 169.023 191.832 168.977 190.525 168.93C189.265 168.837 188.169 168.79 187.235 168.79C186.255 168.79 185.182 168.837 184.015 168.93C182.895 168.977 181.729 169.023 180.515 169.07C179.349 169.163 178.229 169.21 177.155 169.21C176.782 169.21 176.455 169.117 176.175 168.93C175.942 168.743 175.849 168.51 175.895 168.23C176.035 167.81 176.292 167.483 176.665 167.25C177.039 166.97 177.482 166.783 177.995 166.69C179.862 166.223 181.192 165.71 181.985 165.15C182.825 164.543 183.455 163.54 183.875 162.14C184.762 159.34 185.555 156.633 186.255 154.02C186.955 151.407 187.632 148.793 188.285 146.18C188.939 143.567 189.592 140.907 190.245 138.2C190.339 137.967 190.292 137.85 190.105 137.85C189.965 137.85 189.755 138.013 189.475 138.34L171.485 159.13L164.485 168.58C164.252 168.907 163.949 169.21 163.575 169.49C163.249 169.817 162.945 169.98 162.665 169.98ZM212.805 169.98C211.685 169.98 210.682 169.56 209.795 168.72C208.955 167.88 208.535 167.04 208.535 166.2C208.535 165.967 208.558 165.733 208.605 165.5C208.652 165.267 208.745 165.01 208.885 164.73C210.238 161.743 211.498 158.803 212.665 155.91C213.832 152.97 214.975 150.17 216.095 147.51C216.188 147.23 216.072 147.09 215.745 147.09C215.418 147.09 214.998 147.207 214.485 147.44C213.972 147.627 213.435 147.883 212.875 148.21C212.362 148.537 211.848 148.84 211.335 149.12C210.728 149.493 210.285 149.587 210.005 149.4C209.725 149.213 209.585 148.933 209.585 148.56C209.585 148.233 209.888 147.743 210.495 147.09C211.148 146.39 211.965 145.643 212.945 144.85C213.925 144.01 214.998 143.193 216.165 142.4C217.332 141.607 218.452 140.907 219.525 140.3C220.645 139.647 221.578 139.18 222.325 138.9C222.978 138.62 223.655 138.667 224.355 139.04C225.102 139.367 225.685 139.833 226.105 140.44C226.525 141 226.618 141.56 226.385 142.12L218.545 161.44C218.498 161.627 218.452 161.837 218.405 162.07C218.358 162.257 218.335 162.397 218.335 162.49C218.335 162.677 218.382 162.817 218.475 162.91C218.615 163.003 218.732 163.05 218.825 163.05C219.245 163.05 219.875 162.77 220.715 162.21C221.602 161.65 222.535 160.997 223.515 160.25C224.495 159.503 225.312 158.803 225.965 158.15C226.105 158.01 226.198 157.94 226.245 157.94C226.478 157.94 226.688 158.057 226.875 158.29C227.062 158.477 227.155 158.687 227.155 158.92C227.155 159.76 226.642 160.81 225.615 162.07C224.635 163.283 223.375 164.497 221.835 165.71C220.342 166.923 218.778 167.95 217.145 168.79C215.558 169.583 214.112 169.98 212.805 169.98ZM225.615 133.72C224.588 133.72 223.725 133.323 223.025 132.53C222.325 131.69 221.975 130.757 221.975 129.73C221.975 128.143 222.535 126.743 223.655 125.53C224.775 124.317 226.175 123.71 227.855 123.71C228.975 123.71 229.838 124.177 230.445 125.11C231.052 125.997 231.355 126.953 231.355 127.98C231.355 129.427 230.795 130.757 229.675 131.97C228.555 133.137 227.202 133.72 225.615 133.72ZM234.857 169.98C232.897 169.98 231.311 169.537 230.097 168.65C228.884 167.763 228.277 166.597 228.277 165.15C228.277 163.937 228.557 162.933 229.117 162.14C229.631 161.3 230.331 160.88 231.217 160.88C231.591 160.88 232.011 161.113 232.477 161.58C232.944 162 233.457 162.513 234.017 163.12C234.717 163.773 235.487 164.473 236.327 165.22C237.167 165.967 238.031 166.34 238.917 166.34C239.664 166.34 240.201 166.13 240.527 165.71C240.901 165.243 241.111 164.613 241.157 163.82C241.204 163.12 240.877 162.21 240.177 161.09C239.477 159.923 238.754 158.803 238.007 157.73C237.167 156.517 236.421 155.233 235.767 153.88C235.161 152.527 234.857 151.197 234.857 149.89C234.857 148.63 235.277 147.37 236.117 146.11C237.004 144.803 238.077 143.59 239.337 142.47C240.644 141.303 241.951 140.393 243.257 139.74C244.564 139.04 245.637 138.69 246.477 138.69C247.644 138.69 248.764 138.947 249.837 139.46C250.957 139.973 251.867 140.58 252.567 141.28C253.314 141.933 253.687 142.54 253.687 143.1C253.687 143.613 253.431 144.243 252.917 144.99C252.451 145.69 251.914 146.32 251.307 146.88C250.701 147.393 250.117 147.65 249.557 147.65C248.997 147.65 248.484 147.44 248.017 147.02C247.597 146.553 247.201 146.087 246.827 145.62C246.407 145.013 245.871 144.5 245.217 144.08C244.611 143.613 243.981 143.38 243.327 143.38C242.674 143.38 242.161 143.613 241.787 144.08C241.414 144.5 241.227 144.99 241.227 145.55C241.227 145.923 241.414 146.413 241.787 147.02C242.207 147.627 242.697 148.303 243.257 149.05C243.817 149.75 244.377 150.497 244.937 151.29C246.291 153.017 247.271 154.487 247.877 155.7C248.484 156.867 248.787 158.033 248.787 159.2C248.787 160.18 248.391 161.277 247.597 162.49C246.804 163.703 245.731 164.893 244.377 166.06C243.071 167.227 241.577 168.183 239.897 168.93C238.264 169.63 236.584 169.98 234.857 169.98ZM257.074 169.98C255.114 169.98 253.527 169.537 252.314 168.65C251.101 167.763 250.494 166.597 250.494 165.15C250.494 163.937 250.774 162.933 251.334 162.14C251.847 161.3 252.547 160.88 253.434 160.88C253.807 160.88 254.227 161.113 254.694 161.58C255.161 162 255.674 162.513 256.234 163.12C256.934 163.773 257.704 164.473 258.544 165.22C259.384 165.967 260.247 166.34 261.134 166.34C261.881 166.34 262.417 166.13 262.744 165.71C263.117 165.243 263.327 164.613 263.374 163.82C263.421 163.12 263.094 162.21 262.394 161.09C261.694 159.923 260.971 158.803 260.224 157.73C259.384 156.517 258.637 155.233 257.984 153.88C257.377 152.527 257.074 151.197 257.074 149.89C257.074 148.63 257.494 147.37 258.334 146.11C259.221 144.803 260.294 143.59 261.554 142.47C262.861 141.303 264.167 140.393 265.474 139.74C266.781 139.04 267.854 138.69 268.694 138.69C269.861 138.69 270.981 138.947 272.054 139.46C273.174 139.973 274.084 140.58 274.784 141.28C275.531 141.933 275.904 142.54 275.904 143.1C275.904 143.613 275.647 144.243 275.134 144.99C274.667 145.69 274.131 146.32 273.524 146.88C272.917 147.393 272.334 147.65 271.774 147.65C271.214 147.65 270.701 147.44 270.234 147.02C269.814 146.553 269.417 146.087 269.044 145.62C268.624 145.013 268.087 144.5 267.434 144.08C266.827 143.613 266.197 143.38 265.544 143.38C264.891 143.38 264.377 143.613 264.004 144.08C263.631 144.5 263.444 144.99 263.444 145.55C263.444 145.923 263.631 146.413 264.004 147.02C264.424 147.627 264.914 148.303 265.474 149.05C266.034 149.75 266.594 150.497 267.154 151.29C268.507 153.017 269.487 154.487 270.094 155.7C270.701 156.867 271.004 158.033 271.004 159.2C271.004 160.18 270.607 161.277 269.814 162.49C269.021 163.703 267.947 164.893 266.594 166.06C265.287 167.227 263.794 168.183 262.114 168.93C260.481 169.63 258.801 169.98 257.074 169.98ZM280.481 169.98C279.361 169.98 278.358 169.56 277.471 168.72C276.631 167.88 276.211 167.04 276.211 166.2C276.211 165.967 276.234 165.733 276.281 165.5C276.328 165.267 276.421 165.01 276.561 164.73C277.914 161.743 279.174 158.803 280.341 155.91C281.508 152.97 282.651 150.17 283.771 147.51C283.864 147.23 283.748 147.09 283.421 147.09C283.094 147.09 282.674 147.207 282.161 147.44C281.648 147.627 281.111 147.883 280.551 148.21C280.038 148.537 279.524 148.84 279.011 149.12C278.404 149.493 277.961 149.587 277.681 149.4C277.401 149.213 277.261 148.933 277.261 148.56C277.261 148.233 277.564 147.743 278.171 147.09C278.824 146.39 279.641 145.643 280.621 144.85C281.601 144.01 282.674 143.193 283.841 142.4C285.008 141.607 286.128 140.907 287.201 140.3C288.321 139.647 289.254 139.18 290.001 138.9C290.654 138.62 291.331 138.667 292.031 139.04C292.778 139.367 293.361 139.833 293.781 140.44C294.201 141 294.294 141.56 294.061 142.12L286.221 161.44C286.174 161.627 286.128 161.837 286.081 162.07C286.034 162.257 286.011 162.397 286.011 162.49C286.011 162.677 286.058 162.817 286.151 162.91C286.291 163.003 286.408 163.05 286.501 163.05C286.921 163.05 287.551 162.77 288.391 162.21C289.278 161.65 290.211 160.997 291.191 160.25C292.171 159.503 292.988 158.803 293.641 158.15C293.781 158.01 293.874 157.94 293.921 157.94C294.154 157.94 294.364 158.057 294.551 158.29C294.738 158.477 294.831 158.687 294.831 158.92C294.831 159.76 294.318 160.81 293.291 162.07C292.311 163.283 291.051 164.497 289.511 165.71C288.018 166.923 286.454 167.95 284.821 168.79C283.234 169.583 281.788 169.98 280.481 169.98ZM293.291 133.72C292.264 133.72 291.401 133.323 290.701 132.53C290.001 131.69 289.651 130.757 289.651 129.73C289.651 128.143 290.211 126.743 291.331 125.53C292.451 124.317 293.851 123.71 295.531 123.71C296.651 123.71 297.514 124.177 298.121 125.11C298.728 125.997 299.031 126.953 299.031 127.98C299.031 129.427 298.471 130.757 297.351 131.97C296.231 133.137 294.878 133.72 293.291 133.72ZM308.348 169.98C306.575 169.98 304.895 169.56 303.308 168.72C301.768 167.88 300.531 166.713 299.598 165.22C298.665 163.727 298.198 162 298.198 160.04C298.198 157.893 298.641 155.583 299.528 153.11C300.461 150.637 301.815 148.327 303.588 146.18C305.361 143.987 307.485 142.19 309.958 140.79C312.478 139.39 315.325 138.69 318.498 138.69C321.625 138.69 324.121 139.577 325.988 141.35C327.901 143.123 328.858 145.573 328.858 148.7C328.858 150.847 328.391 153.157 327.458 155.63C326.571 158.057 325.241 160.367 323.468 162.56C321.695 164.707 319.525 166.48 316.958 167.88C314.438 169.28 311.568 169.98 308.348 169.98ZM309.678 167.25C310.611 167.25 311.545 166.737 312.478 165.71C313.458 164.683 314.368 163.33 315.208 161.65C316.095 159.923 316.888 158.033 317.588 155.98C318.288 153.927 318.825 151.873 319.198 149.82C319.618 147.767 319.828 145.9 319.828 144.22C319.828 143.24 319.641 142.517 319.268 142.05C318.895 141.537 318.288 141.28 317.448 141.28C316.655 141.28 315.791 141.793 314.858 142.82C313.925 143.8 313.015 145.153 312.128 146.88C311.241 148.56 310.425 150.427 309.678 152.48C308.978 154.487 308.395 156.517 307.928 158.57C307.461 160.577 307.228 162.443 307.228 164.17C307.228 165.197 307.461 165.967 307.928 166.48C308.395 166.993 308.978 167.25 309.678 167.25ZM337.679 169.98C337.305 169.98 336.815 169.817 336.209 169.49C335.649 169.21 335.089 168.813 334.529 168.3C334.015 167.74 333.642 167.11 333.409 166.41C333.175 165.71 333.222 164.963 333.549 164.17L340.619 146.6C341.085 145.433 340.875 144.85 339.989 144.85C339.662 144.85 339.172 144.873 338.519 144.92C337.912 144.967 337.235 145.177 336.489 145.55C335.742 145.877 335.019 146.46 334.319 147.3C334.132 147.533 333.852 147.65 333.479 147.65C333.105 147.603 332.895 147.37 332.849 146.95C332.849 146.623 332.989 146.18 333.269 145.62C333.595 145.06 333.969 144.5 334.389 143.94C334.855 143.333 335.252 142.89 335.579 142.61C336.699 141.537 338.052 140.627 339.639 139.88C341.225 139.087 343.115 138.69 345.309 138.69C346.475 138.69 347.362 138.993 347.969 139.6C348.622 140.207 349.019 140.977 349.159 141.91C349.299 142.797 349.182 143.73 348.809 144.71L345.099 153.88C344.959 154.207 345.075 154.393 345.449 154.44C345.869 154.487 346.172 154.37 346.359 154.09C348.039 151.15 349.695 148.537 351.329 146.25C352.962 143.917 354.642 142.073 356.369 140.72C358.142 139.367 360.009 138.69 361.969 138.69C363.789 138.69 365.095 139.203 365.889 140.23C366.729 141.257 367.172 142.517 367.219 144.01C367.265 145.457 366.985 146.857 366.379 148.21L361.129 160.6C360.522 162.047 360.615 162.77 361.409 162.77C361.689 162.77 362.085 162.63 362.599 162.35C363.112 162.07 363.649 161.743 364.209 161.37C364.769 160.95 365.282 160.553 365.749 160.18C366.262 159.76 366.635 159.433 366.869 159.2C367.102 158.967 367.335 158.733 367.569 158.5C367.849 158.267 368.059 158.15 368.199 158.15C368.339 158.15 368.479 158.243 368.619 158.43C368.805 158.57 368.899 158.757 368.899 158.99C368.899 159.923 368.595 160.763 367.989 161.51C366.589 163.143 365.025 164.613 363.299 165.92C361.619 167.18 359.869 168.183 358.049 168.93C356.229 169.63 354.502 169.98 352.869 169.98C352.262 169.98 351.632 169.77 350.979 169.35C350.372 168.977 349.905 168.51 349.579 167.95C349.299 167.39 349.275 166.807 349.509 166.2C351.049 162.793 352.635 159.433 354.269 156.12C355.902 152.76 357.372 149.33 358.679 145.83C359.005 144.99 359.122 144.36 359.029 143.94C358.935 143.473 358.632 143.24 358.119 143.24C357.512 143.24 356.835 143.613 356.089 144.36C355.389 145.107 354.642 146.04 353.849 147.16C353.055 148.28 352.239 149.447 351.399 150.66C350.979 151.22 350.395 152.107 349.649 153.32C348.902 154.487 348.085 155.793 347.199 157.24C346.312 158.687 345.425 160.157 344.539 161.65C343.699 163.097 342.952 164.38 342.299 165.5C341.552 166.76 340.805 167.833 340.059 168.72C339.312 169.56 338.519 169.98 337.679 169.98Z" fill="white"/>
</svg>
