<svg width="441" height="195" viewBox="0 0 441 195" fill="none" xmlns="http://www.w3.org/2000/svg">
<rect width="207" height="105" fill="#FA4238"/>
<path d="M53.52 81.56C48.24 81.56 43.3867 80.3333 38.96 77.88C34.5867 75.4267 31.0933 72.0133 28.48 67.64C25.92 63.2133 24.64 58.2533 24.64 52.76C24.64 47.2667 25.92 42.3333 28.48 37.96C31.0933 33.5867 34.5867 30.1733 38.96 27.72C43.3867 25.2667 48.24 24.04 53.52 24.04C58.8 24.04 63.6267 25.2667 68 27.72C72.4267 30.1733 75.8933 33.5867 78.4 37.96C80.96 42.3333 82.24 47.2667 82.24 52.76C82.24 58.2533 80.96 63.2133 78.4 67.64C75.84 72.0133 72.3733 75.4267 68 77.88C63.6267 80.3333 58.8 81.56 53.52 81.56ZM53.52 69.08C58 69.08 61.5733 67.5867 64.24 64.6C66.96 61.6133 68.32 57.6667 68.32 52.76C68.32 47.8 66.96 43.8533 64.24 40.92C61.5733 37.9333 58 36.44 53.52 36.44C48.9867 36.44 45.36 37.9067 42.64 40.84C39.9733 43.7733 38.64 47.7467 38.64 52.76C38.64 57.72 39.9733 61.6933 42.64 64.68C45.36 67.6133 48.9867 69.08 53.52 69.08ZM133.931 36.36V81H120.251V74.92C118.864 76.8933 116.971 78.4933 114.571 79.72C112.224 80.8933 109.611 81.48 106.731 81.48C103.317 81.48 100.304 80.7333 97.6906 79.24C95.0773 77.6933 93.0506 75.48 91.6106 72.6C90.1706 69.72 89.4506 66.3333 89.4506 62.44V36.36H103.051V60.6C103.051 63.5867 103.824 65.9067 105.371 67.56C106.917 69.2133 108.997 70.04 111.611 70.04C114.277 70.04 116.384 69.2133 117.931 67.56C119.477 65.9067 120.251 63.5867 120.251 60.6V36.36H133.931ZM157.437 43.8C159.037 41.3467 161.037 39.4267 163.437 38.04C165.837 36.6 168.504 35.88 171.437 35.88V50.36H167.677C164.264 50.36 161.704 51.1067 159.997 52.6C158.29 54.04 157.437 56.6 157.437 60.28V81H143.757V36.36H157.437V43.8Z" fill="white"/>
<rect x="101" y="90" width="340" height="105" fill="#86171E"/>
<path d="M145.762 164.98C144.082 164.98 142.495 164.863 141.002 164.63C139.555 164.443 138.178 164.093 136.872 163.58C136.218 163.3 135.658 163.09 135.192 162.95C134.772 162.763 134.492 162.67 134.352 162.67C134.025 162.67 133.698 162.74 133.372 162.88C133.092 162.973 132.835 163.067 132.602 163.16C132.275 163.347 131.948 163.533 131.622 163.72C131.342 163.907 131.108 164 130.922 164C130.642 164 130.315 163.813 129.942 163.44C129.522 163.067 129.312 162.717 129.312 162.39C129.312 162.017 129.568 161.27 130.082 160.15C130.595 159.03 131.132 157.653 131.692 156.02C132.298 154.387 132.718 152.683 132.952 150.91C133.232 149.37 133.838 148.6 134.772 148.6C135.378 148.6 135.752 148.973 135.892 149.72C136.032 150.42 136.102 151.517 136.102 153.01C136.102 154.503 136.405 155.973 137.012 157.42C137.618 158.82 138.552 159.963 139.812 160.85C141.118 161.737 142.752 162.18 144.712 162.18C147.512 162.18 149.682 161.433 151.222 159.94C152.808 158.447 153.602 156.58 153.602 154.34C153.602 153.313 153.415 152.357 153.042 151.47C152.668 150.537 151.992 149.51 151.012 148.39C150.032 147.27 148.585 145.87 146.672 144.19C144.432 142.183 142.728 140.223 141.562 138.31C140.395 136.397 139.812 134.04 139.812 131.24C139.812 128.627 140.535 126.293 141.982 124.24C143.428 122.187 145.388 120.553 147.862 119.34C150.382 118.127 153.252 117.52 156.472 117.52C158.058 117.52 159.505 117.66 160.812 117.94C162.165 118.22 163.355 118.523 164.382 118.85C165.315 119.13 166.062 119.363 166.622 119.55C167.182 119.69 167.742 119.76 168.302 119.76C168.955 119.76 169.538 119.62 170.052 119.34C170.378 119.153 170.705 119.013 171.032 118.92C171.358 118.78 171.662 118.71 171.942 118.71C172.455 118.71 172.758 118.873 172.852 119.2C172.945 119.527 172.852 119.877 172.572 120.25C172.058 120.903 171.498 121.837 170.892 123.05C170.285 124.263 169.725 125.593 169.212 127.04C168.698 128.44 168.255 129.863 167.882 131.31C167.742 131.823 167.555 132.243 167.322 132.57C167.088 132.897 166.738 133.06 166.272 133.06C165.852 133.06 165.525 132.827 165.292 132.36C165.105 131.893 165.012 131.17 165.012 130.19C165.012 127.11 164.242 124.683 162.702 122.91C161.208 121.09 159.225 120.18 156.752 120.18C155.118 120.18 153.718 120.553 152.552 121.3C151.432 122 150.592 122.933 150.032 124.1C149.472 125.22 149.192 126.363 149.192 127.53C149.192 128.65 149.378 129.677 149.752 130.61C150.125 131.497 150.778 132.453 151.712 133.48C152.692 134.507 154.115 135.813 155.982 137.4C158.782 139.733 160.695 141.88 161.722 143.84C162.748 145.8 163.262 147.947 163.262 150.28C163.262 152.66 162.562 154.993 161.162 157.28C159.762 159.52 157.755 161.363 155.142 162.81C152.575 164.257 149.448 164.98 145.762 164.98ZM173.857 164.98C173.111 164.98 172.411 164.747 171.757 164.28C171.104 163.813 170.567 163.253 170.147 162.6C169.727 161.9 169.517 161.293 169.517 160.78C169.517 160.453 169.564 160.103 169.657 159.73C169.751 159.31 169.961 158.703 170.287 157.91L176.867 140.27C177.147 139.477 177.171 138.963 176.937 138.73C176.751 138.45 176.471 138.31 176.097 138.31L172.737 138.17C171.944 138.123 171.454 137.96 171.267 137.68C171.081 137.353 170.987 137.05 170.987 136.77C170.987 136.677 171.151 136.443 171.477 136.07C171.804 135.65 172.224 135.277 172.737 134.95C173.251 134.577 173.787 134.39 174.347 134.39H177.777C178.477 134.39 178.921 134.297 179.107 134.11C179.341 133.877 179.667 133.387 180.087 132.64L182.047 128.72C182.421 128.02 182.911 127.343 183.517 126.69C184.171 126.037 184.847 125.477 185.547 125.01C186.247 124.543 186.877 124.31 187.437 124.31C188.184 124.31 188.674 124.683 188.907 125.43C189.141 126.13 189.141 126.83 188.907 127.53L187.227 132.92C187.087 133.62 187.087 134.063 187.227 134.25C187.414 134.437 187.764 134.53 188.277 134.53C188.884 134.53 189.561 134.577 190.307 134.67C191.054 134.717 191.847 134.787 192.687 134.88C193.714 135.02 194.321 135.207 194.507 135.44C194.741 135.673 194.857 135.977 194.857 136.35C194.857 136.49 194.717 136.723 194.437 137.05C194.204 137.377 193.714 137.587 192.967 137.68C192.361 137.727 191.731 137.797 191.077 137.89C190.424 137.937 189.654 137.983 188.767 138.03C187.927 138.077 187.274 138.193 186.807 138.38C186.387 138.567 186.084 138.893 185.897 139.36L180.647 153.85C180.321 154.83 180.157 155.577 180.157 156.09C180.157 156.557 180.251 156.86 180.437 157C180.671 157.093 180.927 157.14 181.207 157.14C181.767 157.14 182.491 156.837 183.377 156.23C184.264 155.577 185.151 154.853 186.037 154.06C186.971 153.267 187.717 152.567 188.277 151.96C188.417 151.867 188.534 151.797 188.627 151.75C188.767 151.703 188.837 151.703 188.837 151.75C189.071 151.843 189.234 152.03 189.327 152.31C189.467 152.543 189.514 152.8 189.467 153.08C189.327 153.827 188.884 154.713 188.137 155.74C187.391 156.72 186.434 157.747 185.267 158.82C184.147 159.893 182.911 160.897 181.557 161.83C180.204 162.763 178.851 163.51 177.497 164.07C176.191 164.677 174.977 164.98 173.857 164.98ZM199.355 165.05C198.935 165.05 198.399 164.91 197.745 164.63C197.092 164.35 196.509 163.977 195.995 163.51C195.529 163.043 195.295 162.483 195.295 161.83C195.295 161.503 195.342 161.153 195.435 160.78C195.529 160.407 195.645 160.01 195.785 159.59L202.855 141.25C203.042 140.783 203.065 140.41 202.925 140.13C202.832 139.803 202.552 139.64 202.085 139.64C201.152 139.64 200.382 139.827 199.775 140.2C199.215 140.573 198.609 141.017 197.955 141.53C197.722 141.717 197.419 141.81 197.045 141.81C196.719 141.763 196.532 141.553 196.485 141.18C196.392 140.2 196.765 139.22 197.605 138.24C198.445 137.26 199.519 136.42 200.825 135.72C201.852 135.067 202.949 134.577 204.115 134.25C205.329 133.877 206.495 133.69 207.615 133.69C208.922 133.69 209.855 134.063 210.415 134.81C211.022 135.51 211.302 136.467 211.255 137.68C211.255 138.893 210.905 140.27 210.205 141.81L207.545 148.18C207.359 148.507 207.405 148.693 207.685 148.74C207.965 148.787 208.199 148.647 208.385 148.32C210.019 145.427 211.605 142.883 213.145 140.69C214.732 138.497 216.319 136.77 217.905 135.51C219.539 134.25 221.195 133.62 222.875 133.62C224.369 133.62 225.489 134.063 226.235 134.95C227.029 135.79 227.425 136.84 227.425 138.1C227.425 139.313 227.145 140.503 226.585 141.67C226.025 142.837 225.325 143.793 224.485 144.54C223.692 145.24 222.922 145.59 222.175 145.59C221.662 145.59 221.265 145.357 220.985 144.89C220.705 144.377 220.472 143.63 220.285 142.65C220.145 141.857 219.935 141.157 219.655 140.55C219.375 139.897 218.955 139.57 218.395 139.57C217.555 139.57 216.715 140.107 215.875 141.18C215.082 142.207 214.149 143.653 213.075 145.52C212.702 146.08 212.165 146.943 211.465 148.11C210.812 149.277 210.089 150.56 209.295 151.96C208.502 153.36 207.709 154.737 206.915 156.09C206.122 157.443 205.445 158.61 204.885 159.59C203.999 161.177 203.065 162.483 202.085 163.51C201.105 164.537 200.195 165.05 199.355 165.05ZM233.399 165.05C232.139 165.05 230.809 164.677 229.409 163.93C228.009 163.137 226.819 162.11 225.839 160.85C224.859 159.543 224.369 158.097 224.369 156.51C224.369 153.617 224.906 150.817 225.979 148.11C227.052 145.357 228.476 142.907 230.249 140.76C232.022 138.613 234.029 136.91 236.269 135.65C238.556 134.343 240.866 133.69 243.199 133.69C245.906 133.69 247.866 134.203 249.079 135.23C250.292 136.257 250.899 137.47 250.899 138.87C250.899 140.457 250.362 141.833 249.289 143C248.262 144.12 246.909 145.077 245.229 145.87C243.596 146.663 241.822 147.317 239.909 147.83C237.996 148.343 236.176 148.787 234.449 149.16C234.216 149.207 234.052 149.277 233.959 149.37C233.866 149.463 233.772 149.627 233.679 149.86C233.586 150.187 233.492 150.56 233.399 150.98C233.352 151.353 233.306 151.727 233.259 152.1C233.212 153.733 233.632 155.157 234.519 156.37C235.452 157.583 236.806 158.19 238.579 158.19C239.886 158.19 241.076 157.863 242.149 157.21C243.269 156.51 244.342 155.6 245.369 154.48C245.882 153.967 246.279 153.71 246.559 153.71C247.026 153.71 247.259 153.943 247.259 154.41C247.259 154.55 247.236 154.713 247.189 154.9C247.189 155.087 247.142 155.25 247.049 155.39C246.162 157.07 245.066 158.657 243.759 160.15C242.452 161.597 240.936 162.787 239.209 163.72C237.482 164.607 235.546 165.05 233.399 165.05ZM234.939 146.71C235.872 146.43 236.852 146.103 237.879 145.73C238.952 145.357 239.932 144.867 240.819 144.26C241.706 143.607 242.452 142.813 243.059 141.88C243.666 140.947 244.016 139.827 244.109 138.52C244.109 137.96 243.946 137.447 243.619 136.98C243.292 136.467 242.802 136.21 242.149 136.21C241.309 136.21 240.469 136.513 239.629 137.12C238.836 137.68 238.066 138.45 237.319 139.43C236.572 140.363 235.942 141.437 235.429 142.65C234.962 143.817 234.636 145.03 234.449 146.29C234.402 146.663 234.566 146.803 234.939 146.71ZM258.591 164.98C258.217 164.98 257.727 164.817 257.121 164.49C256.561 164.21 256.001 163.813 255.441 163.3C254.927 162.74 254.554 162.11 254.321 161.41C254.087 160.71 254.134 159.963 254.461 159.17L261.531 141.6C261.997 140.433 261.787 139.85 260.901 139.85C260.574 139.85 260.084 139.873 259.431 139.92C258.824 139.967 258.147 140.177 257.401 140.55C256.654 140.877 255.931 141.46 255.231 142.3C255.044 142.533 254.764 142.65 254.391 142.65C254.017 142.603 253.807 142.37 253.761 141.95C253.761 141.623 253.901 141.18 254.181 140.62C254.507 140.06 254.881 139.5 255.301 138.94C255.767 138.333 256.164 137.89 256.491 137.61C257.611 136.537 258.964 135.627 260.551 134.88C262.137 134.087 264.027 133.69 266.221 133.69C267.387 133.69 268.274 133.993 268.881 134.6C269.534 135.207 269.931 135.977 270.071 136.91C270.211 137.797 270.094 138.73 269.721 139.71L266.011 148.88C265.871 149.207 265.987 149.393 266.361 149.44C266.781 149.487 267.084 149.37 267.271 149.09C268.951 146.15 270.607 143.537 272.241 141.25C273.874 138.917 275.554 137.073 277.281 135.72C279.054 134.367 280.921 133.69 282.881 133.69C284.701 133.69 286.007 134.203 286.801 135.23C287.641 136.257 288.084 137.517 288.131 139.01C288.177 140.457 287.897 141.857 287.291 143.21L282.041 155.6C281.434 157.047 281.527 157.77 282.321 157.77C282.601 157.77 282.997 157.63 283.511 157.35C284.024 157.07 284.561 156.743 285.121 156.37C285.681 155.95 286.194 155.553 286.661 155.18C287.174 154.76 287.547 154.433 287.781 154.2C288.014 153.967 288.247 153.733 288.481 153.5C288.761 153.267 288.971 153.15 289.111 153.15C289.251 153.15 289.391 153.243 289.531 153.43C289.717 153.57 289.811 153.757 289.811 153.99C289.811 154.923 289.507 155.763 288.901 156.51C287.501 158.143 285.937 159.613 284.211 160.92C282.531 162.18 280.781 163.183 278.961 163.93C277.141 164.63 275.414 164.98 273.781 164.98C273.174 164.98 272.544 164.77 271.891 164.35C271.284 163.977 270.817 163.51 270.491 162.95C270.211 162.39 270.187 161.807 270.421 161.2C271.961 157.793 273.547 154.433 275.181 151.12C276.814 147.76 278.284 144.33 279.591 140.83C279.917 139.99 280.034 139.36 279.941 138.94C279.847 138.473 279.544 138.24 279.031 138.24C278.424 138.24 277.747 138.613 277.001 139.36C276.301 140.107 275.554 141.04 274.761 142.16C273.967 143.28 273.151 144.447 272.311 145.66C271.891 146.22 271.307 147.107 270.561 148.32C269.814 149.487 268.997 150.793 268.111 152.24C267.224 153.687 266.337 155.157 265.451 156.65C264.611 158.097 263.864 159.38 263.211 160.5C262.464 161.76 261.717 162.833 260.971 163.72C260.224 164.56 259.431 164.98 258.591 164.98ZM300.777 184.3C297.883 184.3 295.247 183.973 292.867 183.32C290.533 182.713 288.667 181.85 287.267 180.73C285.867 179.657 285.167 178.42 285.167 177.02C285.167 175.713 285.773 174.523 286.987 173.45C288.2 172.423 289.833 171.49 291.887 170.65C293.893 169.81 296.11 169.063 298.537 168.41C299.097 168.223 299.143 168.013 298.677 167.78C297.743 167.22 296.88 166.497 296.087 165.61C295.293 164.77 294.897 163.883 294.897 162.95C294.897 161.923 295.433 161.013 296.507 160.22C297.627 159.38 298.98 158.54 300.567 157.7C300.847 157.513 301.057 157.35 301.197 157.21C301.383 157.023 301.477 156.883 301.477 156.79C301.477 156.603 301.243 156.417 300.777 156.23C299.937 155.81 299.097 155.25 298.257 154.55C297.417 153.85 296.717 153.01 296.157 152.03C295.643 151.003 295.387 149.883 295.387 148.67C295.387 147.177 295.737 145.59 296.437 143.91C297.137 142.183 298.14 140.55 299.447 139.01C300.753 137.423 302.387 136.14 304.347 135.16C306.307 134.18 308.57 133.69 311.137 133.69C312.023 133.69 312.863 133.83 313.657 134.11C314.45 134.343 315.173 134.6 315.827 134.88C316.573 135.207 317.25 135.51 317.857 135.79C318.463 136.023 318.953 136.14 319.327 136.14C320.12 136.14 320.89 136.047 321.637 135.86C322.43 135.673 323.177 135.487 323.877 135.3C324.623 135.113 325.3 135.02 325.907 135.02C326.233 135.02 326.607 135.16 327.027 135.44C327.493 135.673 327.727 136.163 327.727 136.91C327.727 137.75 327.54 138.45 327.167 139.01C326.84 139.57 326.397 139.85 325.837 139.85C325.417 139.85 324.927 139.803 324.367 139.71C323.853 139.617 323.293 139.547 322.687 139.5C322.127 139.407 321.59 139.36 321.077 139.36C320.843 139.36 320.633 139.407 320.447 139.5C320.26 139.547 320.213 139.757 320.307 140.13C320.4 140.457 320.447 140.783 320.447 141.11C320.493 141.39 320.517 141.693 320.517 142.02C320.517 143.887 320.143 145.753 319.397 147.62C318.65 149.44 317.6 151.097 316.247 152.59C314.94 154.037 313.377 155.203 311.557 156.09C309.783 156.977 307.823 157.42 305.677 157.42C305.257 157.42 304.813 157.42 304.347 157.42C303.927 157.373 303.6 157.397 303.367 157.49C302.9 157.817 302.667 158.213 302.667 158.68C302.667 159.193 302.9 159.73 303.367 160.29C303.88 160.803 304.557 161.363 305.397 161.97C306.283 162.53 307.31 163.183 308.477 163.93C309.643 164.63 310.81 165.353 311.977 166.1C313.19 166.847 314.333 167.57 315.407 168.27C316.527 169.017 317.39 169.81 317.997 170.65C318.603 171.537 318.907 172.447 318.907 173.38C318.907 174.78 318.37 176.11 317.297 177.37C316.27 178.677 314.87 179.843 313.097 180.87C311.37 181.897 309.433 182.713 307.287 183.32C305.187 183.973 303.017 184.3 300.777 184.3ZM303.787 181.78C305 181.78 306.167 181.57 307.287 181.15C308.407 180.777 309.317 180.24 310.017 179.54C310.717 178.84 311.067 178.07 311.067 177.23C311.067 176.717 310.88 176.157 310.507 175.55C310.18 174.99 309.713 174.523 309.107 174.15C308.127 173.497 306.96 172.75 305.607 171.91C304.253 171.117 303.157 170.51 302.317 170.09C301.943 169.903 301.593 169.81 301.267 169.81C300.987 169.81 300.73 169.833 300.497 169.88C300.31 169.927 300.1 169.997 299.867 170.09C297.627 170.743 295.923 171.513 294.757 172.4C293.637 173.333 293.077 174.593 293.077 176.18C293.077 177.16 293.45 178.07 294.197 178.91C294.99 179.797 296.18 180.497 297.767 181.01C299.353 181.523 301.36 181.78 303.787 181.78ZM304.487 154.62C305.28 154.713 306.12 154.387 307.007 153.64C307.893 152.893 308.733 151.89 309.527 150.63C310.32 149.37 311.043 148.017 311.697 146.57C312.35 145.077 312.863 143.653 313.237 142.3C313.657 140.9 313.867 139.733 313.867 138.8C313.867 137.913 313.68 137.213 313.307 136.7C312.98 136.187 312.537 135.93 311.977 135.93C311.23 135.93 310.437 136.327 309.597 137.12C308.803 137.867 308.01 138.87 307.217 140.13C306.423 141.343 305.7 142.673 305.047 144.12C304.393 145.52 303.857 146.897 303.437 148.25C303.063 149.557 302.877 150.677 302.877 151.61C302.877 152.637 303.017 153.383 303.297 153.85C303.623 154.317 304.02 154.573 304.487 154.62ZM331.631 164.98C330.884 164.98 330.184 164.747 329.531 164.28C328.877 163.813 328.341 163.253 327.921 162.6C327.501 161.9 327.291 161.293 327.291 160.78C327.291 160.453 327.337 160.103 327.431 159.73C327.524 159.31 327.734 158.703 328.061 157.91L334.641 140.27C334.921 139.477 334.944 138.963 334.711 138.73C334.524 138.45 334.244 138.31 333.871 138.31L330.511 138.17C329.717 138.123 329.227 137.96 329.041 137.68C328.854 137.353 328.761 137.05 328.761 136.77C328.761 136.677 328.924 136.443 329.251 136.07C329.577 135.65 329.997 135.277 330.511 134.95C331.024 134.577 331.561 134.39 332.121 134.39H335.551C336.251 134.39 336.694 134.297 336.881 134.11C337.114 133.877 337.441 133.387 337.861 132.64L339.821 128.72C340.194 128.02 340.684 127.343 341.291 126.69C341.944 126.037 342.621 125.477 343.321 125.01C344.021 124.543 344.651 124.31 345.211 124.31C345.957 124.31 346.447 124.683 346.681 125.43C346.914 126.13 346.914 126.83 346.681 127.53L345.001 132.92C344.861 133.62 344.861 134.063 345.001 134.25C345.187 134.437 345.537 134.53 346.051 134.53C346.657 134.53 347.334 134.577 348.081 134.67C348.827 134.717 349.621 134.787 350.461 134.88C351.487 135.02 352.094 135.207 352.281 135.44C352.514 135.673 352.631 135.977 352.631 136.35C352.631 136.49 352.491 136.723 352.211 137.05C351.977 137.377 351.487 137.587 350.741 137.68C350.134 137.727 349.504 137.797 348.851 137.89C348.197 137.937 347.427 137.983 346.541 138.03C345.701 138.077 345.047 138.193 344.581 138.38C344.161 138.567 343.857 138.893 343.671 139.36L338.421 153.85C338.094 154.83 337.931 155.577 337.931 156.09C337.931 156.557 338.024 156.86 338.211 157C338.444 157.093 338.701 157.14 338.981 157.14C339.541 157.14 340.264 156.837 341.151 156.23C342.037 155.577 342.924 154.853 343.811 154.06C344.744 153.267 345.491 152.567 346.051 151.96C346.191 151.867 346.307 151.797 346.401 151.75C346.541 151.703 346.611 151.703 346.611 151.75C346.844 151.843 347.007 152.03 347.101 152.31C347.241 152.543 347.287 152.8 347.241 153.08C347.101 153.827 346.657 154.713 345.911 155.74C345.164 156.72 344.207 157.747 343.041 158.82C341.921 159.893 340.684 160.897 339.331 161.83C337.977 162.763 336.624 163.51 335.271 164.07C333.964 164.677 332.751 164.98 331.631 164.98ZM355.838 165.05C355.418 165.05 354.905 164.91 354.298 164.63C353.738 164.35 353.225 163.953 352.758 163.44C352.292 162.927 352.058 162.343 352.058 161.69C352.058 160.897 352.128 160.127 352.268 159.38C352.455 158.587 352.712 157.677 353.038 156.65L362.418 126.27C362.652 125.57 362.838 124.87 362.978 124.17C363.118 123.47 363.188 122.84 363.188 122.28C363.188 121.627 362.885 121.137 362.278 120.81C361.718 120.483 361.112 120.203 360.458 119.97C360.132 119.877 359.828 119.76 359.548 119.62C359.268 119.433 359.128 119.2 359.128 118.92C359.128 118.687 359.222 118.477 359.408 118.29C359.642 118.057 360.155 117.777 360.948 117.45C361.508 117.31 362.325 117.077 363.398 116.75C364.518 116.423 365.685 116.097 366.898 115.77C368.112 115.397 369.208 115.093 370.188 114.86C371.215 114.627 371.915 114.51 372.288 114.51C372.662 114.51 373.058 114.557 373.478 114.65C373.898 114.697 374.108 114.953 374.108 115.42C374.108 115.98 374.038 116.47 373.898 116.89C373.805 117.31 373.665 117.753 373.478 118.22L363.748 147.97C363.655 148.297 363.702 148.483 363.888 148.53C364.075 148.53 364.262 148.39 364.448 148.11C366.175 145.45 368.018 143.023 369.978 140.83C371.938 138.59 373.898 136.84 375.858 135.58C377.865 134.273 379.802 133.62 381.668 133.62C383.582 133.62 385.005 134.227 385.938 135.44C386.918 136.607 387.408 138.053 387.408 139.78C387.408 142.207 387.082 144.563 386.428 146.85C385.822 149.09 384.982 151.213 383.908 153.22C382.835 155.227 381.645 157.047 380.338 158.68C380.012 159.1 379.382 159.66 378.448 160.36C377.562 161.013 376.535 161.713 375.368 162.46C374.248 163.16 373.152 163.743 372.078 164.21C371.052 164.723 370.282 164.98 369.768 164.98C369.162 164.98 368.532 164.793 367.878 164.42C367.225 164.047 366.665 163.603 366.198 163.09C365.732 162.577 365.498 162.133 365.498 161.76C365.498 161.527 365.615 161.153 365.848 160.64C366.128 160.08 366.455 159.567 366.828 159.1C367.202 158.633 367.575 158.4 367.948 158.4C368.462 158.4 368.835 158.517 369.068 158.75C369.348 158.983 369.675 159.287 370.048 159.66C370.422 159.94 370.772 160.243 371.098 160.57C371.472 160.85 371.892 160.99 372.358 160.99C372.825 160.99 373.315 160.523 373.828 159.59C374.388 158.61 374.925 157.373 375.438 155.88C375.952 154.34 376.395 152.683 376.768 150.91C377.188 149.137 377.515 147.41 377.748 145.73C377.982 144.003 378.098 142.533 378.098 141.32C378.098 140.527 377.958 139.897 377.678 139.43C377.398 138.963 376.932 138.73 376.278 138.73C375.672 138.73 374.902 139.22 373.968 140.2C373.035 141.133 372.008 142.417 370.888 144.05C369.815 145.683 368.672 147.503 367.458 149.51C366.245 151.47 365.032 153.453 363.818 155.46C362.605 157.42 361.438 159.263 360.318 160.99C359.478 162.39 358.685 163.417 357.938 164.07C357.192 164.723 356.492 165.05 355.838 165.05ZM393.182 164.98C391.222 164.98 389.635 164.537 388.422 163.65C387.208 162.763 386.602 161.597 386.602 160.15C386.602 158.937 386.882 157.933 387.442 157.14C387.955 156.3 388.655 155.88 389.542 155.88C389.915 155.88 390.335 156.113 390.802 156.58C391.268 157 391.782 157.513 392.342 158.12C393.042 158.773 393.812 159.473 394.652 160.22C395.492 160.967 396.355 161.34 397.242 161.34C397.988 161.34 398.525 161.13 398.852 160.71C399.225 160.243 399.435 159.613 399.482 158.82C399.528 158.12 399.202 157.21 398.502 156.09C397.802 154.923 397.078 153.803 396.332 152.73C395.492 151.517 394.745 150.233 394.092 148.88C393.485 147.527 393.182 146.197 393.182 144.89C393.182 143.63 393.602 142.37 394.442 141.11C395.328 139.803 396.402 138.59 397.662 137.47C398.968 136.303 400.275 135.393 401.582 134.74C402.888 134.04 403.962 133.69 404.802 133.69C405.968 133.69 407.088 133.947 408.162 134.46C409.282 134.973 410.192 135.58 410.892 136.28C411.638 136.933 412.012 137.54 412.012 138.1C412.012 138.613 411.755 139.243 411.242 139.99C410.775 140.69 410.238 141.32 409.632 141.88C409.025 142.393 408.442 142.65 407.882 142.65C407.322 142.65 406.808 142.44 406.342 142.02C405.922 141.553 405.525 141.087 405.152 140.62C404.732 140.013 404.195 139.5 403.542 139.08C402.935 138.613 402.305 138.38 401.652 138.38C400.998 138.38 400.485 138.613 400.112 139.08C399.738 139.5 399.552 139.99 399.552 140.55C399.552 140.923 399.738 141.413 400.112 142.02C400.532 142.627 401.022 143.303 401.582 144.05C402.142 144.75 402.702 145.497 403.262 146.29C404.615 148.017 405.595 149.487 406.202 150.7C406.808 151.867 407.112 153.033 407.112 154.2C407.112 155.18 406.715 156.277 405.922 157.49C405.128 158.703 404.055 159.893 402.702 161.06C401.395 162.227 399.902 163.183 398.222 163.93C396.588 164.63 394.908 164.98 393.182 164.98Z" fill="white"/>
</svg>
