
<svg width="86" height="129" viewBox="0 0 86 129" fill="none" xmlns="http://www.w3.org/2000/svg">
    <path d="M30.8328 49.0875V39.4875C30.8328 37.2875 31.8991 35.2375 33.6525 34.0625" fill="#FDD7AD"/>
    <path d="M42.9655 9.88733C42.9181 9.56233 42.8707 9.21233 42.8944 8.88733C42.8944 8.56233 42.9181 8.23733 42.9655 7.91233C42.7048 5.93733 41.6385 4.21233 40.0273 3.18733C38.5345 2.21233 36.7336 1.91233 35.0276 2.38733C33.3215 2.86233 31.8998 4.06233 31.0467 5.68733L9.86313 46.9873C7.73055 51.1373 6.9723 55.8873 7.68316 60.5373L10.4792 78.8373L12.6355 92.9373V106.687H42.9655V39.4873C42.9655 37.1623 41.757 35.0123 39.8377 33.8873C37.8947 32.7623 35.5489 32.8373 33.6769 34.0873L42.5864 11.4123C42.7522 10.9123 42.8944 10.4123 42.9655 9.88733ZM30.8335 64.0123L25.9522 60.2373C24.5305 58.7373 24.3647 56.3623 25.5731 54.6373L30.8335 49.0623V64.0123Z" fill="#FFEFEF"/>
    <path d="M55.0968 49.0875V39.4875C55.0968 37.2875 54.0306 35.2375 52.2771 34.0625" fill="#FDD7AD"/>
    <path d="M76.0662 46.9876L54.8826 5.68756C54.0533 4.06256 52.6079 2.86256 50.9018 2.38756C49.1957 1.91256 47.3949 2.18756 45.9021 3.18756C44.2908 4.21256 43.2245 5.96256 42.9639 7.91256C43.0113 8.23756 43.0586 8.56256 43.035 8.88756C43.035 9.21256 43.0113 9.56256 42.9639 9.88756C43.035 10.3876 43.1771 10.8876 43.343 11.3876L52.2524 34.0626C50.3805 32.8126 48.011 32.7376 46.0917 33.8626C44.1486 34.9876 42.9639 37.1376 42.9639 39.4626V106.663H73.2939V92.9126L75.4501 78.8126L78.2462 60.5126C78.9571 55.8876 78.1988 51.1376 76.0662 46.9876ZM59.9771 60.2376L55.0959 64.0126V49.0876L60.3562 54.6626C61.5647 56.3626 61.3988 58.7376 59.9771 60.2376Z" fill="#FFEFEF"/>
    <path d="M78.2475 60.5376L75.4514 78.8376L73.2952 92.9376V106.688H67.2291V92.9376L69.3854 78.8376L72.1815 60.5376C72.8923 55.8876 72.1104 51.1376 70.0015 46.9876L48.8179 5.68762C48.2255 4.53762 47.3488 3.58762 46.2588 2.98762C47.7516 2.13762 49.4814 1.93762 51.1163 2.46262C52.7513 2.98762 54.1019 4.13762 54.9076 5.71262L76.0912 47.0126C78.2001 51.1376 78.9583 55.8876 78.2475 60.5376Z" fill="#FFEFEF"/>
    <path d="M42.9645 106.688V121.838C42.846 124.113 41.0689 125.888 38.9126 125.888H6.5685C4.34114 125.888 2.5403 123.963 2.5166 121.613V110.938C2.5166 108.588 4.34114 106.688 6.5685 106.663H42.9645V106.688Z" fill="#C17F7F"/>
    <path d="M83.4118 110.938V121.612C83.4118 123.962 81.5872 125.862 79.3599 125.887H47.0158C44.8595 125.887 43.0823 124.112 42.9639 121.837V106.688H79.3599C81.5872 106.688 83.3881 108.588 83.4118 110.938Z" fill="#C17F7F"/>
    <path d="M77.3458 110.938V121.612C77.3458 123.962 75.5212 125.862 73.2939 125.887H47.0158C44.8595 125.887 43.0823 124.112 42.9639 121.837V106.688H73.2939C75.5212 106.688 77.3221 108.588 77.3458 110.938Z" fill="#C17F7F"/>
    <path d="M18.7015 92.9377L16.5452 78.8377L13.7492 60.5377C13.0383 55.8877 13.8202 51.1377 15.9291 46.9877L37.1127 5.68766C37.7051 4.53766 38.6056 3.61266 39.6718 2.98766C38.179 2.13766 36.4493 1.93766 34.838 2.43766C33.2267 2.93766 31.8524 4.11266 31.0467 5.66266L9.86313 46.9627C7.73055 51.1127 6.9723 55.8627 7.68316 60.5127L10.4792 78.8127L12.6355 92.9127V106.663H18.7015V92.9377Z" fill="white"/>
    <path d="M6.5685 125.888H12.6345C10.4071 125.888 8.6063 123.963 8.5826 121.613V110.938C8.5826 108.588 10.4071 106.688 12.6345 106.663H6.5685C4.34114 106.663 2.5403 108.588 2.5166 110.938V121.613C2.5403 123.963 4.34114 125.863 6.5685 125.888Z" fill="#C17F7F"/>
    <path d="M22.7524 108.813C21.6387 108.813 20.7383 107.863 20.7383 106.688V98.1626C20.7383 96.9876 21.6387 96.0376 22.7524 96.0376C23.8661 96.0376 24.7665 96.9876 24.7665 98.1626V106.688C24.7665 107.863 23.8661 108.813 22.7524 108.813Z" fill="#C17F7F"/>
    <path d="M63.1772 108.813C62.0635 108.813 61.1631 107.863 61.1631 106.688V98.1626C61.1631 96.9876 62.0635 96.0376 63.1772 96.0376C64.2909 96.0376 65.1913 96.9876 65.1913 98.1626V106.688C65.215 107.863 64.2909 108.813 63.1772 108.813Z" fill="#C17F7F"/>
    <path d="M42.9652 83.2129C41.8515 83.2129 40.9511 82.2629 40.9511 81.0879V39.4879C40.9511 37.1379 39.1502 35.2129 36.8992 35.2129C34.6718 35.2129 32.8473 37.1129 32.8473 39.4879V81.0879C32.8473 82.2629 31.9469 83.2129 30.8332 83.2129C29.7195 83.2129 28.8191 82.2629 28.8191 81.0879V39.4879C28.8191 34.7629 32.4445 30.9629 36.8992 30.9629C41.3539 30.9629 44.9793 34.7879 44.9793 39.4879V81.0879C44.9793 82.2629 44.0789 83.2129 42.9652 83.2129Z" fill="#7B0000"/>
    <path d="M32.8238 6.7126L20.3127 31.0876L11.6402 48.0126L8.08594 45.9626L16.7584 29.0626L29.2696 4.6626L32.8238 6.7126Z" fill="white"/>
    <path d="M26.2361 15.0625C27.2076 15.6125 28.4397 15.2375 28.9847 14.2125L32.8234 6.7125L29.2691 4.6875L25.4304 12.1875C25.1698 12.6875 25.1224 13.2625 25.2646 13.8125C25.4304 14.3375 25.7622 14.7875 26.2361 15.0625Z" fill="#7B0000"/>
    <path d="M8.08594 45.9626L11.6402 47.9876L21.2842 29.1876C21.6397 28.5126 21.616 27.7126 21.2368 27.0626C20.8577 26.4126 20.1706 26.0376 19.4597 26.0376C18.7488 26.0626 18.0854 26.4876 17.7299 27.1626L8.08594 45.9626Z" fill="#7B0000"/>
    <path d="M25.1218 21.7125C25.3587 21.2125 25.4298 20.6375 25.2876 20.0875L25.1455 19.7125C25.0744 19.5875 25.0033 19.4625 24.9085 19.3625C24.8374 19.2625 24.7427 19.1625 24.6479 19.0625C24.5294 18.9625 24.4346 18.8875 24.3161 18.8125C23.8422 18.5625 23.2972 18.4875 22.7759 18.6375C21.7333 19.0125 21.1173 20.1625 21.4016 21.3125C21.4964 21.5875 21.6149 21.8375 21.7807 22.0375C21.9466 22.2625 22.1599 22.4375 22.3968 22.5875C22.8707 22.8625 23.4157 22.9375 23.937 22.7625C24.4583 22.5875 24.8848 22.2125 25.1218 21.7125Z" fill="#7B0000"/>
    <path d="M33.6525 36.1876C32.989 36.1876 32.3493 35.8376 31.9701 35.2376C31.591 34.6376 31.5199 33.8876 31.7806 33.2376L40.69 10.5626C40.8796 10.0376 40.9981 9.46262 40.9981 8.88762C40.9981 7.28762 40.2161 5.81262 38.9366 4.98762C37.9177 4.31262 36.6855 4.11262 35.5244 4.43762C34.3634 4.76262 33.3919 5.58762 32.7995 6.68762C32.2545 7.71262 31.046 8.08762 30.0745 7.53762C29.103 6.98762 28.7239 5.71262 29.2452 4.66262C31.0697 1.08762 34.9558 -0.712378 38.6996 0.262622C42.4435 1.23762 45.05 4.81262 45.05 8.86262C45.05 9.98762 44.8367 11.0876 44.4339 12.1376L35.5007 34.8376C35.2164 35.6626 34.4818 36.1876 33.6525 36.1876Z" fill="#7B0000"/>
    <path d="M42.9646 108.813H12.6346C11.5209 108.813 10.6205 107.863 10.6205 106.688V93.1125L5.69186 60.8625C4.93361 55.7625 5.76295 50.5125 8.08509 45.9625C8.44052 45.2875 9.08029 44.8625 9.81485 44.8375C10.5257 44.8125 11.2129 45.2125 11.592 45.8625C11.9711 46.5125 11.9948 47.3375 11.6394 47.9875C9.74376 51.7125 9.0329 55.9875 9.67268 60.1875L14.625 92.5875C14.6487 92.7125 14.6487 92.8125 14.6487 92.9375V104.538H40.9268V76.8125C40.9268 75.6375 41.8272 74.6875 42.9409 74.6875C44.0546 74.6875 44.955 75.6375 44.955 76.8125V106.688C44.9787 107.863 44.0783 108.813 42.9646 108.813Z" fill="#7B0000"/>
    <path d="M38.913 128.013H6.56893C3.22789 128.013 0.50293 125.138 0.50293 121.613V110.938C0.50293 107.413 3.22789 104.538 6.56893 104.538H42.9649C44.0786 104.538 44.979 105.488 44.979 106.663V121.588C44.979 125.138 42.2778 128.013 38.913 128.013ZM6.56893 108.813C5.45525 108.813 4.55483 109.763 4.55483 110.938V121.613C4.55483 122.788 5.45525 123.738 6.56893 123.738H38.913C40.0267 123.738 40.9271 122.788 40.9271 121.613V108.813H6.56893Z" fill="#7B0000"/>
    <path d="M30.8336 66.1373C30.4071 66.1373 29.9806 65.9873 29.6489 65.7123L24.7676 61.9373C24.6966 61.8623 24.6018 61.8123 24.5307 61.7123C22.3981 59.4623 22.1612 55.8873 23.962 53.3373C24.0094 53.2623 24.0805 53.1873 24.1516 53.1123L29.4119 47.5373C30.1939 46.7123 31.4734 46.6873 32.2791 47.5373C33.061 48.3623 33.0847 49.7123 32.2791 50.5623L27.1372 56.0123C26.6396 56.8123 26.7107 57.8873 27.303 58.6123L32.0421 62.2873C32.753 62.8373 33.0373 63.7873 32.7767 64.6623C32.4923 65.5623 31.7104 66.1373 30.8336 66.1373Z" fill="#7B0000"/>
    <path d="M55.0963 83.2129C53.9826 83.2129 53.0822 82.2629 53.0822 81.0879V39.4879C53.0822 37.1379 51.2814 35.2129 49.0303 35.2129C46.8029 35.2129 44.9784 37.1129 44.9784 39.4879V81.0879C44.9784 82.2629 44.078 83.2129 42.9643 83.2129C41.8506 83.2129 40.9502 82.2629 40.9502 81.0879V39.4879C40.9502 34.7629 44.5756 30.9629 49.0303 30.9629C53.485 30.9629 57.1104 34.7879 57.1104 39.4879V81.0879C57.1104 82.2629 56.21 83.2129 55.0963 83.2129Z" fill="#7B0000"/>
    <path d="M73.2953 108.812H42.9653C41.8516 108.812 40.9512 107.862 40.9512 106.687V76.8124C40.9512 75.6374 41.8516 74.6874 42.9653 74.6874C44.079 74.6874 44.9794 75.6374 44.9794 76.8124V104.537H71.2575V92.9374C71.2575 92.8124 71.2575 92.7124 71.2812 92.5874L76.2336 60.1874C76.8496 56.0124 76.1625 51.7374 74.2668 48.0124L53.1069 6.71241C52.1591 4.86241 50.145 3.91241 48.202 4.43741C46.259 4.96241 44.9083 6.78741 44.9083 8.88741C44.9083 9.46241 45.0268 10.0624 45.2401 10.5874L54.1258 33.2374C54.4102 33.9374 54.3391 34.7624 53.8889 35.3874C53.4387 36.0124 52.7278 36.3124 51.9932 36.2124C51.2587 36.1124 50.6426 35.5874 50.382 34.8624L41.4725 12.1874C41.0697 11.1374 40.8564 10.0124 40.8564 8.86241C40.8564 5.78741 42.3492 2.93741 44.8373 1.33741C46.804 0.0374104 49.1972 -0.33759 51.4246 0.31241C53.6519 0.93741 55.5475 2.51241 56.6612 4.66241L77.8448 45.9624C80.167 50.5124 81.02 55.7624 80.2381 60.8624L75.3094 93.1124V106.687C75.3094 107.862 74.409 108.812 73.2953 108.812Z" fill="#7B0000"/>
    <path d="M79.3603 128.012H47.0162C43.6752 128.012 40.9502 125.137 40.9502 121.612V106.688C40.9502 105.513 41.8506 104.562 42.9643 104.562H79.3603C82.7013 104.562 85.4263 107.437 85.4263 110.962V121.637C85.4263 125.137 82.7013 128.012 79.3603 128.012ZM44.9784 108.812V121.612C44.9784 122.787 45.8788 123.737 46.9925 123.737H79.3366C80.4503 123.737 81.3507 122.787 81.3507 121.612V110.938C81.3507 109.762 80.4503 108.812 79.3366 108.812H44.9784Z" fill="#7B0000"/>
    <path d="M55.0968 66.1377C54.2201 66.1377 53.4381 65.5377 53.1775 64.6627C52.9168 63.7877 53.2012 62.8127 53.912 62.2877L58.6511 58.6127C59.2435 57.8877 59.3145 56.8377 58.8169 56.0127L53.6751 50.5627C52.8931 49.7377 52.8931 48.3877 53.6751 47.5377C54.457 46.7127 55.7365 46.7127 56.5422 47.5377L61.8025 53.1127C61.8736 53.1877 61.921 53.2627 61.9921 53.3377C63.793 55.8877 63.556 59.4377 61.4234 61.7127C61.3523 61.7877 61.2813 61.8627 61.1865 61.9377L56.3052 65.7127C55.9498 66.0127 55.5233 66.1377 55.0968 66.1377Z" fill="#7B0000"/>
</svg>
