
<svg width="122" height="128" viewBox="0 0 122 128" fill="none" xmlns="http://www.w3.org/2000/svg">
    <path d="M42.4656 49.6268V52.4007C42.4656 52.6506 42.3708 52.9005 42.205 53.0754C42.0392 53.2504 41.8023 53.3503 41.5655 53.3503H2.9572C2.72034 53.3503 2.48348 53.2504 2.31768 53.0754C2.15187 52.9005 2.05713 52.6506 2.05713 52.4007V49.4269C2.05713 46.578 3.52567 43.979 5.89427 42.6045L14.0896 37.8814C15.1792 37.2816 15.8424 36.0821 15.8424 34.7826V32.2336C14.2555 30.0844 13.1185 27.6104 12.5027 24.9864C11.721 24.4366 11.2473 23.537 11.2473 22.5624V18.6639C11.2473 17.8392 11.5789 17.0645 12.1474 16.5147V10.8919C12.1474 10.8919 11.2473 3.84468 19.2295 2.39524C20.2243 2.2453 21.2428 2.14534 22.2613 2.17033C33.4649 2.17033 32.3753 10.8919 32.3753 10.8919V16.4897C32.9674 17.0395 33.299 17.8142 33.2754 18.6389V22.5124C33.2754 23.7869 32.4937 24.8865 31.3331 25.2613C30.7173 27.3355 29.7935 29.2847 28.6092 31.059C28.3013 31.5089 28.0171 31.8837 27.7802 32.1836V34.8576C27.7802 36.182 28.4908 37.4066 29.6277 38.0063L38.3916 42.6295C40.8786 43.979 42.4656 46.6779 42.4656 49.6268Z" fill="#C17F7F"/>
    <path d="M80.8601 122.123V124.897C80.8601 125.147 80.7653 125.397 80.5995 125.572C80.4337 125.747 80.1969 125.847 79.96 125.847H41.3517C41.1149 125.847 40.878 125.747 40.7122 125.572C40.5464 125.397 40.4517 125.147 40.4517 124.897V121.948C40.4517 119.099 41.9202 116.5 44.2888 115.126L52.4842 110.403C53.5737 109.803 54.2369 108.603 54.2369 107.304V104.73C52.65 102.581 51.5131 100.107 50.8972 97.4828C50.1156 96.933 49.6419 96.0334 49.6419 95.0588V91.1853C49.6419 90.3606 49.9735 89.5859 50.5419 89.0361V83.4383C50.5419 83.4383 49.6419 76.3911 57.6241 74.9416C58.6189 74.7917 59.6374 74.6917 60.6559 74.7167C71.8594 74.7167 70.7698 83.4383 70.7698 83.4383V89.0361C71.362 89.5859 71.6936 90.3606 71.6699 91.1853V95.0588C71.6699 96.3333 70.8883 97.4328 69.7276 97.8077C69.1118 99.8819 68.188 101.831 67.0037 103.605C66.6958 104.055 66.4116 104.43 66.1747 104.73V107.404C66.1747 108.728 66.8853 109.953 68.0222 110.553L76.7861 115.176C79.2731 116.5 80.8601 119.174 80.8601 122.123Z" fill="#C17F7F"/>
    <path d="M119.279 49.6268V52.4007C119.279 52.6506 119.184 52.9005 119.018 53.0754C118.853 53.2504 118.616 53.3503 118.379 53.3503H79.7707C79.5338 53.3503 79.297 53.2504 79.1312 53.0754C78.9654 52.9005 78.8706 52.6506 78.8706 52.4007V49.4269C78.8706 46.578 80.3391 43.979 82.7078 42.6045L90.9031 37.8814C91.9927 37.2816 92.6559 36.0821 92.6559 34.7826V32.2336C91.0689 30.0844 89.932 27.6104 89.3162 24.9864C88.5345 24.4366 88.0608 23.537 88.0608 22.5624V18.6639C88.0608 17.8392 88.3924 17.0645 88.9609 16.5147V10.8919C88.9609 10.8919 88.0608 3.84468 96.043 2.39524C97.0378 2.2453 98.0563 2.14534 99.0748 2.17033C110.278 2.17033 109.189 10.8919 109.189 10.8919V16.4897C109.781 17.0395 110.113 17.8142 110.089 18.6389V22.5124C110.089 23.7869 109.307 24.8865 108.147 25.2613C107.531 27.3355 106.607 29.2847 105.423 31.059C105.115 31.5089 104.831 31.8837 104.594 32.1836V34.8576C104.594 36.182 105.304 37.4066 106.441 38.0063L115.205 42.6295C117.692 43.979 119.279 46.6779 119.279 49.6268Z" fill="#C17F7F"/>
    <path d="M36.4019 49.6271V52.401C36.4019 52.6509 36.3072 52.9008 36.1414 53.0757C35.9756 53.2506 35.7387 53.3506 35.5019 53.3506H2.9572C2.72034 53.3506 2.48348 53.2506 2.31768 53.0757C2.15187 52.9008 2.05713 52.6509 2.05713 52.401V49.4271C2.05713 46.5782 3.52567 43.9793 5.89427 42.6048L14.0897 37.8816C15.1792 37.2819 15.8424 36.0823 15.8424 34.7829V32.2339C14.2555 30.0847 13.1185 27.6107 12.5027 24.9867C11.721 24.4369 11.2473 23.5373 11.2473 22.5626V18.6642C11.2473 17.8395 11.5789 17.0648 12.1474 16.515V10.8922C12.1474 10.8922 11.2473 3.84494 19.2295 2.39551C27.188 3.81995 26.3117 10.8922 26.3117 10.8922V16.49C26.9038 17.0398 27.2354 17.8145 27.2117 18.6392V22.5126C27.2117 23.7872 26.4301 24.8867 25.2695 25.2616C24.6536 27.3358 23.7299 29.285 22.5456 31.0593C22.2377 31.5091 21.9534 31.884 21.7166 32.1839V34.8578C21.7166 36.1823 22.4271 37.4068 23.5641 38.0066L32.3279 42.6298C34.815 43.9793 36.4019 46.6782 36.4019 49.6271Z" fill="#FFEFEF"/>
    <path d="M74.7965 122.124V124.898C74.7965 125.148 74.7017 125.398 74.5359 125.573C74.3701 125.748 74.1332 125.847 73.8964 125.847H41.3517C41.1149 125.847 40.878 125.748 40.7122 125.573C40.5464 125.398 40.4517 125.148 40.4517 124.898V121.949C40.4517 119.1 41.9202 116.501 44.2888 115.127L52.4842 110.404C53.5737 109.804 54.2369 108.604 54.2369 107.305V104.731C52.65 102.582 51.5131 100.108 50.8972 97.4836C50.1156 96.9338 49.6419 96.0341 49.6419 95.0595V91.186C49.6419 90.3614 49.9735 89.5867 50.5419 89.0369V83.4391C50.5419 83.4391 49.6419 76.3918 57.6241 74.9424C65.5826 76.3668 64.7062 83.4391 64.7062 83.4391V89.0369C65.2983 89.5867 65.6299 90.3614 65.6063 91.186V95.0595C65.6063 96.334 64.8246 97.4336 63.664 97.8085C63.0482 99.8826 62.1244 101.832 60.9401 103.606C60.6322 104.056 60.348 104.431 60.1111 104.731V107.405C60.1111 108.729 60.8217 109.954 61.9586 110.553L70.7225 115.177C73.2095 116.501 74.7965 119.175 74.7965 122.124Z" fill="#FFEFEF"/>
    <path d="M113.217 49.6271V52.401C113.217 52.6509 113.122 52.9008 112.956 53.0757C112.79 53.2506 112.553 53.3506 112.317 53.3506H79.7482C79.5114 53.3506 79.2745 53.2506 79.1087 53.0757C78.9429 52.9008 78.8481 52.6509 78.8481 52.401V49.4271C78.8481 46.5782 80.3167 43.9793 82.6853 42.6048L90.8807 37.8816C91.9702 37.2819 92.6334 36.0823 92.6334 34.7829V32.2339C91.0465 30.0847 89.9095 27.6107 89.2937 24.9867C88.5121 24.4369 88.0383 23.5373 88.0383 22.5626V18.6642C88.0383 17.8395 88.3699 17.0648 88.9384 16.515V10.8922C88.9384 10.8922 88.0383 3.84494 96.0205 2.39551C103.979 3.81995 103.103 10.8922 103.103 10.8922V16.49C103.695 17.0398 104.026 17.8145 104.003 18.6392V22.5126C104.003 23.7872 103.221 24.8867 102.06 25.2616C101.445 27.3358 100.521 29.285 99.3366 31.0593C99.0287 31.5091 98.7444 31.884 98.5076 32.1839V34.8578C98.5076 36.1823 99.2182 37.4068 100.355 38.0066L109.119 42.6298C111.63 43.9793 113.217 46.6782 113.217 49.6271Z" fill="#FFEFEF"/>
    <path d="M2.95745 53.3504H9.02108C8.78422 53.3504 8.54736 53.2505 8.38156 53.0755C8.21575 52.9006 8.12101 52.6507 8.12101 52.4008V49.427C8.12101 46.5781 9.58955 43.9791 11.9582 42.6046L20.1298 37.9065C21.2194 37.3067 21.8826 36.1072 21.8826 34.8077V32.2337C20.2956 30.0845 19.1587 27.6105 18.5429 24.9865C17.7612 24.4367 17.2875 23.5371 17.2875 22.5624V18.664C17.2875 17.8393 17.6191 17.0646 18.1876 16.5148V10.892C18.1876 10.892 17.3112 3.89474 25.175 2.42031C24.2038 2.24538 23.2327 2.17041 22.2379 2.17041C21.2194 2.17041 20.2009 2.24538 19.2061 2.39532C11.2476 3.81977 12.124 10.892 12.124 10.892V16.4898C11.5318 17.0396 11.2002 17.8143 11.2239 18.639V22.5125C11.2239 23.4871 11.6976 24.4117 12.4792 24.9365C13.0951 27.5855 14.232 30.0345 15.819 32.1837V34.7577C15.819 36.0572 15.1321 37.2317 14.0662 37.8565L5.87083 42.5796C3.50223 43.9541 2.03369 46.5531 2.03369 49.402V52.3758C2.03369 52.6257 2.12844 52.8756 2.29424 53.0505C2.48373 53.2505 2.6969 53.3504 2.95745 53.3504Z" fill="white"/>
    <path d="M84.9098 52.4008V49.4269C84.9098 46.5781 86.3784 43.9791 88.747 42.6046L96.9423 37.8815C98.0319 37.2817 98.6951 36.0822 98.6951 34.7827V32.2337C97.1082 30.0845 95.9712 27.6105 95.3554 24.9865C94.5737 24.4367 94.1 23.5371 94.1 22.5624V18.664C94.1 17.8393 94.4316 17.0646 95.0001 16.5148V10.892C95.0001 10.892 94.1237 3.89474 101.987 2.42031C101.016 2.24538 100.045 2.17041 99.0504 2.17041C98.0319 2.17041 97.0134 2.24538 96.0186 2.39532C88.0601 3.81977 88.9365 10.892 88.9365 10.892V16.4898C88.3443 17.0396 88.0127 17.8143 88.0364 18.639V22.5125C88.0364 23.4871 88.5101 24.4117 89.2917 24.9365C89.9076 27.5855 91.0445 30.0345 92.6315 32.1837V34.7577C92.6315 36.0572 91.9446 37.2317 90.8787 37.8565L82.6833 42.5796C80.3147 43.9541 78.8462 46.5531 78.8462 49.402V52.3758C78.8462 52.6257 78.9409 52.8756 79.1067 53.0505C79.2725 53.2255 79.5094 53.3254 79.7463 53.3254H85.8099C85.573 53.3254 85.3362 53.2255 85.1704 53.0505C85.0046 52.9006 84.9098 52.6507 84.9098 52.4008Z" fill="white"/>
    <path d="M52.4612 110.403L44.2895 115.102C41.9209 116.476 40.4524 119.075 40.4524 121.924V124.898C40.4524 125.148 40.5471 125.397 40.7129 125.572C40.8787 125.747 41.1156 125.847 41.3525 125.847H47.4161C47.1792 125.847 46.9424 125.747 46.7766 125.572C46.6108 125.397 46.516 125.148 46.516 124.898V121.949C46.516 119.1 47.9846 116.501 50.3532 115.127L58.5485 110.403C59.6381 109.804 60.3013 108.604 60.3013 107.305V104.731C58.7143 102.581 57.5774 100.107 56.9616 97.4834C56.1799 96.9336 55.7062 96.034 55.7062 95.0593V91.1859C55.7062 90.3612 56.0378 89.5865 56.6063 89.0367V83.4389C56.6063 83.4389 55.7299 76.4416 63.5937 74.9672C62.6225 74.7923 61.6514 74.7173 60.6566 74.7173C59.6381 74.7173 58.6196 74.7923 57.6248 74.9422C49.6663 76.3666 50.5427 83.4389 50.5427 83.4389V89.0367C49.9505 89.5865 49.6189 90.3612 49.6426 91.1859V95.0593C49.6426 96.034 50.1163 96.9586 50.8979 97.4834C51.5138 100.132 52.6507 102.581 54.2377 104.731V107.305C54.214 108.604 53.5508 109.779 52.4612 110.403Z" fill="white"/>
    <path d="M41.3523 123.723H67.6438H79.9369V127.996H67.6438H41.3523V123.723Z" fill="white"/>
    <path d="M65.6069 123.723C64.4936 123.723 63.5936 124.672 63.5936 125.847C63.5936 127.021 64.4936 127.971 65.6069 127.971H79.937C81.5713 127.971 82.874 126.572 82.874 124.872V122.123C82.874 118.375 80.8607 114.926 77.6868 113.277L68.9229 108.654C68.4729 108.429 68.1887 107.929 68.1887 107.404V105.505C68.3308 105.305 68.4966 105.08 68.6387 104.855C69.7756 103.156 70.6757 101.331 71.3389 99.3822C72.7838 98.4826 73.6838 96.8332 73.6838 95.0589V91.1854C73.6838 90.1358 73.3522 89.0863 72.7601 88.2366V83.5384C72.9496 80.9394 72.1442 78.3904 70.5573 76.3912C67.9281 73.6423 64.3042 72.2428 60.6328 72.5677C56.9615 72.2428 53.3138 73.6423 50.7084 76.3912C49.1214 78.3654 48.3397 80.9394 48.5056 83.5384V88.2366C47.9134 89.0863 47.5818 90.1358 47.5818 91.1854V95.0589C47.5818 96.4334 48.1266 97.7579 49.074 98.7075C49.7372 101.132 50.7794 103.406 52.1769 105.455V107.304C52.1769 107.804 51.9163 108.279 51.49 108.529L43.2946 113.252C40.2628 115.001 38.3916 118.325 38.3916 121.948V124.897C38.3916 126.622 39.718 127.996 41.3287 127.996H49.4056C50.5189 127.996 51.4189 127.046 51.4189 125.872C51.4189 124.697 50.5189 123.748 49.4056 123.748H42.4182V121.948C42.4182 119.874 43.4841 117.975 45.2132 117L53.4086 112.277C55.1376 111.278 56.2035 109.378 56.2035 107.304V104.73C56.2035 104.23 56.0377 103.756 55.7298 103.356C54.356 101.456 53.3612 99.3073 52.8164 96.9832C52.698 96.4334 52.3901 95.9586 51.94 95.6587C51.7269 95.5087 51.6084 95.2838 51.5847 95.0089V91.1355C51.5847 90.9105 51.6795 90.7106 51.8453 90.5607C52.2716 90.1608 52.5085 89.5861 52.5085 88.9863V83.3885C52.5085 83.2885 52.5085 83.2136 52.4848 83.1136C52.3901 81.6891 52.8164 80.2647 53.6928 79.1651C55.564 77.3658 58.0747 76.5162 60.5854 76.7911C63.0725 76.5162 65.5595 77.3658 67.4544 79.1152C68.3308 80.2147 68.7808 81.6392 68.6861 83.0886C68.6624 83.1886 68.6624 83.2635 68.6624 83.3635V88.9613C68.6624 89.5611 68.8993 90.1358 69.3256 90.5357C69.4914 90.6856 69.5625 90.8856 69.5861 91.1105V94.984C69.5861 95.3338 69.373 95.6087 69.0651 95.7087C68.4255 95.9086 67.9518 96.4334 67.7386 97.0831C67.1702 98.9574 66.3412 100.707 65.2753 102.306C65.0621 102.631 64.8253 102.956 64.5884 103.256C64.2568 103.656 64.091 104.155 64.091 104.655V107.329C64.091 109.478 65.2516 111.453 67.0754 112.402L75.863 117.025C77.6868 117.975 78.8237 119.924 78.8 122.073V123.673L65.6069 123.723Z" fill="#7B0000"/>
    <path d="M56.1083 124.347L55.8714 124.672C55.8003 124.797 55.7293 124.922 55.6819 125.047C55.6345 125.172 55.5872 125.297 55.5635 125.422C55.5398 125.572 55.5161 125.697 55.5161 125.847C55.5161 126.422 55.7293 126.946 56.1083 127.371C56.9136 128.171 58.169 128.171 58.9743 127.371C59.1638 127.171 59.3059 126.921 59.4006 126.671C59.4954 126.422 59.5664 126.147 59.5664 125.872C59.5664 124.997 59.069 124.222 58.3111 123.898C57.5531 123.548 56.6767 123.723 56.1083 124.347Z" fill="#7B0000"/>
    <path d="M2.95734 55.4996H22.4983C22.3325 56.924 22.2615 58.3484 22.2615 59.7729C22.2615 62.122 22.451 64.4461 22.8536 66.7452C24.3932 75.9916 28.9173 84.3633 35.6678 90.4609L34.7204 90.5609C33.6071 90.6108 32.7544 91.6104 32.8018 92.81C32.8492 93.9845 33.7966 94.8842 34.9335 94.8342C35.0046 94.8342 35.0756 94.8342 35.1467 94.8342L41.1866 94.1844C41.3288 94.1595 41.4472 94.1095 41.5656 94.0595C41.6604 94.0345 41.7314 94.0095 41.8262 93.9845C42.0393 93.8596 42.2525 93.6846 42.442 93.5097C42.5604 93.3598 42.6552 93.2098 42.7262 93.0349C42.7736 92.9599 42.7973 92.8849 42.8447 92.81C42.9157 92.635 42.9394 92.4351 42.9631 92.2352C42.9631 92.1602 43.0105 92.1103 43.0105 92.0103C43.0105 91.9853 43.0105 91.9603 42.9868 91.9103C42.9868 91.8853 43.0105 91.8354 43.0105 91.7854L42.3946 85.4129C42.3236 84.6382 41.8972 83.9634 41.2103 83.6386C40.5471 83.3137 39.7655 83.4137 39.1733 83.8635C38.5812 84.3133 38.2733 85.088 38.368 85.8377L38.5101 87.3371C32.3754 81.8643 28.2541 74.2922 26.8803 65.9455C26.525 63.8963 26.3592 61.7971 26.3592 59.7229C26.3592 58.2985 26.4539 56.874 26.6434 55.4496H41.613C43.2473 55.4496 44.5501 54.0501 44.5501 52.3508V49.6019C44.5501 45.8533 42.5368 42.4047 39.3628 40.7553L30.5753 36.1321C30.1253 35.9072 29.841 35.4074 29.841 34.8826V32.9834C29.9831 32.7834 30.1489 32.5585 30.2911 32.3336C31.428 30.6343 32.3281 28.81 32.9913 26.8607C34.4361 25.9611 35.3362 24.3117 35.3362 22.5374V18.6639C35.3362 17.6144 35.0046 16.5648 34.4124 15.7151V11.0169C34.6019 8.41795 33.7966 5.84396 32.2096 3.86973C29.5568 1.1208 25.9328 -0.278649 22.2615 0.0462243C18.5665 -0.278649 14.9425 1.1208 12.3133 3.86973C10.7264 5.84396 9.94473 8.41795 10.1105 11.0169V15.7151C9.51838 16.5648 9.18677 17.6144 9.18677 18.6639V22.5374C9.18677 23.9119 9.73155 25.2364 10.679 26.186C11.3422 28.6101 12.3844 30.8842 13.7819 32.9334V34.7827C13.7819 35.3074 13.5213 35.7573 13.095 36.0072L4.89959 40.7303C1.89146 42.4796 0.0202637 45.8033 0.0202637 49.4519V52.4008C0.0202637 54.1001 1.34668 55.4746 2.95734 55.4996ZM4.07058 49.4519C4.07058 47.3777 5.13645 45.4785 6.86554 44.5039L15.0609 39.7807C16.79 38.7811 17.8559 36.8818 17.8559 34.8076V32.2337C17.8559 31.7338 17.6901 31.259 17.3822 30.8592C16.0084 28.9599 15.0135 26.8108 14.4688 24.4867C14.3503 23.9369 14.0424 23.4621 13.5924 23.1622C13.3792 23.0123 13.2608 22.7873 13.2371 22.5124V18.6639C13.2371 18.439 13.3318 18.2391 13.4976 18.0892C13.924 17.6893 14.1608 17.1146 14.1608 16.5148V10.892C14.1608 10.792 14.1608 10.7171 14.1372 10.6171C14.0424 9.19265 14.4688 7.76821 15.3451 6.66864C17.2163 4.86934 19.7271 4.01967 22.2378 4.29456C24.7248 4.01967 27.2119 4.86934 29.1068 6.61866C29.9831 7.71823 30.4332 9.14267 30.3384 10.5921C30.3147 10.6921 30.3147 10.767 30.3147 10.867V16.4648C30.3147 17.0646 30.5516 17.6394 30.978 18.0392C31.1438 18.1891 31.2148 18.3891 31.2385 18.614V22.4875C31.2385 22.8373 31.0253 23.1122 30.7174 23.2122C30.0779 23.4121 29.6042 23.9369 29.391 24.5866C28.8225 26.4609 27.9935 28.2102 26.9276 29.8096C26.7145 30.1345 26.4776 30.4593 26.2407 30.7592C25.9091 31.1591 25.7433 31.6589 25.7433 32.1587V34.8326C25.7433 36.9818 26.9039 38.956 28.7278 39.9057L37.5153 44.5288C39.3391 45.4785 40.4761 47.4277 40.4524 49.5769V51.1763H4.07058V49.4519Z" fill="#7B0000"/>
    <path d="M116.106 40.7803L107.318 36.1571C106.868 35.9322 106.584 35.4324 106.584 34.9076V32.9834C106.726 32.7834 106.892 32.5585 107.034 32.3336C108.171 30.6343 109.071 28.81 109.734 26.8608C111.179 25.9611 112.079 24.3117 112.079 22.5374V18.664C112.079 17.6144 111.747 16.5648 111.155 15.7151V11.0169C111.345 8.41795 110.54 5.84396 108.953 3.86973C106.323 1.1208 102.699 -0.278649 99.0281 0.0462243C95.3567 -0.278649 91.7091 1.1208 89.1036 3.86973C87.5167 5.84396 86.735 8.41795 86.9008 11.0169V15.7151C86.3087 16.5648 85.9771 17.6144 85.9771 18.664V22.5374C85.9771 23.9119 86.5218 25.2364 87.4693 26.186C88.1325 28.6101 89.1747 30.8842 90.5722 32.9334V34.7827C90.5722 35.3074 90.3116 35.7573 89.8853 36.0072L81.7136 40.7553C78.7054 42.4797 76.8105 45.8283 76.8105 49.4519V52.4008C76.8105 54.1251 78.137 55.4996 79.7476 55.4996H94.7409C94.9067 56.924 95.0015 58.3484 95.0251 59.7729C95.0251 61.8721 94.8593 63.9712 94.4804 66.0454C93.0829 74.3672 88.9852 81.9142 82.8742 87.3621L83.0163 85.8627C83.111 84.7132 82.3057 83.6885 81.2162 83.5636C80.1266 83.4386 79.1318 84.2633 79.0134 85.4129L78.3975 91.7854C78.3975 91.8104 78.3975 91.8604 78.3975 91.8853C78.3975 91.9103 78.3738 91.9603 78.3738 91.9853C78.3738 92.0603 78.3975 92.1602 78.4212 92.2352C78.4212 92.4101 78.4686 92.5851 78.5159 92.76C78.5396 92.835 78.587 92.91 78.6344 92.9849C78.7054 93.1599 78.8239 93.3098 78.9423 93.4597C78.9897 93.5097 79.037 93.5597 79.0844 93.5847C79.2265 93.7096 79.3923 93.8346 79.5581 93.9096C79.6292 93.9345 79.7002 93.9595 79.7713 93.9845C79.8897 94.0345 80.0319 94.0845 80.174 94.1095L86.2139 94.7592C86.285 94.7592 86.356 94.7592 86.4271 94.7592C87.5403 94.8092 88.4878 93.9096 88.5588 92.735C88.6062 91.5605 87.7535 90.5609 86.6403 90.4859L85.6691 90.3859C92.396 84.3133 96.92 75.9666 98.4833 66.7702C98.886 64.4461 99.0991 62.097 99.0991 59.7229C99.0991 58.2985 99.0044 56.874 98.8623 55.4496H118.403C120.038 55.4496 121.34 54.0501 121.34 52.3508V49.6019C121.293 45.8783 119.28 42.4297 116.106 40.7803ZM117.243 51.2262H80.8609V49.4519C80.8609 47.3777 81.9267 45.4785 83.6558 44.5039L91.8512 39.7807C93.5803 38.7811 94.6462 36.8818 94.6462 34.8076V32.2337C94.6462 31.7338 94.4804 31.259 94.1724 30.8592C92.7986 28.9599 91.8038 26.8108 91.259 24.4867C91.1406 23.9369 90.8327 23.4621 90.3827 23.1622C90.1695 23.0123 90.0511 22.7873 90.0274 22.5124V18.664C90.0274 18.439 90.1221 18.2391 90.2879 18.0892C90.7143 17.6893 90.9511 17.1146 90.9511 16.5148V10.892C90.9511 10.792 90.9511 10.7171 90.9274 10.6171C90.8327 9.19265 91.2591 7.76821 92.1354 6.66864C94.0066 4.86934 96.5174 4.01967 99.0281 4.29457C101.515 4.01967 104.002 4.86934 105.897 6.61866C106.773 7.71823 107.223 9.16766 107.129 10.5921C107.105 10.6921 107.105 10.767 107.105 10.867V16.4648C107.105 17.0646 107.342 17.6394 107.768 18.0392C107.934 18.1891 108.005 18.3891 108.029 18.614V22.4875C108.029 22.8373 107.816 23.1122 107.508 23.2122C106.868 23.4121 106.371 23.9369 106.181 24.5866C105.613 26.4609 104.784 28.2102 103.718 29.8096C103.457 30.1845 103.221 30.5093 103.031 30.7592C102.699 31.1591 102.534 31.6589 102.534 32.1587V34.8326C102.534 36.9818 103.671 38.956 105.518 39.9057L114.306 44.5288C116.129 45.4785 117.266 47.4277 117.243 49.5769V51.2262Z" fill="#7B0000"/>
    <path d="M42.8685 19.6637C42.3474 19.4888 41.8026 19.5638 41.3289 19.8137C40.8552 20.0636 40.4999 20.5384 40.3578 21.0632L38.605 27.1858V27.2108C38.5576 27.4107 38.5103 27.6106 38.5103 27.8105C38.5103 27.8605 38.5339 27.8855 38.5339 27.9105C38.5576 28.0354 38.5813 28.1604 38.605 28.2853C38.6287 28.4353 38.6761 28.5852 38.7234 28.7352C38.7234 28.7602 38.7234 28.7852 38.7471 28.8101C38.7945 28.8851 38.8419 28.9601 38.9129 29.0351C39.055 29.285 39.2682 29.4849 39.5051 29.6098C39.5998 29.6848 39.7182 29.7598 39.8367 29.8098C39.884 29.8347 39.9077 29.8597 39.9551 29.8597L45.7582 31.709C45.9477 31.759 46.1372 31.809 46.3503 31.809C47.3452 31.809 48.1979 31.0343 48.34 29.9847C48.4821 28.9351 47.8899 27.9355 46.9188 27.6356L45.5687 27.2108C55.0905 22.2627 66.2703 22.2627 75.7921 27.2108L74.4894 27.6356C73.5419 27.9355 72.9261 28.9351 73.0682 29.9847C73.2103 31.0343 74.063 31.809 75.0578 31.809C75.2473 31.809 75.4605 31.784 75.65 31.709L81.4531 29.8597C81.4768 29.8597 81.5005 29.8347 81.5478 29.8098C81.6663 29.7598 81.7847 29.6848 81.8794 29.6098C82.0926 29.5099 82.2821 29.3349 82.4005 29.135C82.4953 29.0351 82.5663 28.9351 82.6374 28.8101C82.6611 28.7602 82.6611 28.7102 82.6848 28.6852C82.7085 28.6352 82.7321 28.5602 82.7321 28.5103C82.8032 28.3103 82.8506 28.0854 82.8506 27.8605V27.8355C82.8506 27.7356 82.8269 27.6106 82.8032 27.5106C82.8032 27.4107 82.8032 27.3107 82.7795 27.2108L81.0031 21.0882C80.8136 20.3384 80.2451 19.7637 79.5345 19.5887C78.8239 19.4138 78.066 19.6387 77.5686 20.2135C77.0712 20.7883 76.9054 21.588 77.1422 22.3127L77.4265 23.3123C66.8625 17.8644 54.4747 17.8394 43.887 23.2873L44.1712 22.3127C44.337 21.7629 44.2897 21.1881 44.0291 20.6883C43.8159 20.2135 43.3896 19.8386 42.8685 19.6637Z" fill="#7B0000"/>
</svg>
