
<svg width="106" height="128" viewBox="0 0 106 128" fill="none" xmlns="http://www.w3.org/2000/svg">
    <path d="M70.9113 2.125H83.0433C85.2706 2.125 87.0952 4.025 87.0952 6.4C87.0952 8.75 85.2943 10.675 83.0433 10.675H70.9113C68.6839 10.675 66.8594 8.775 66.8594 6.4C66.8594 4.05 68.6839 2.125 70.9113 2.125Z" fill="#FFEFEF"/>
    <path d="M83.0431 2.125H76.9771C79.2044 2.125 81.029 4.025 81.029 6.4C81.029 8.775 79.2281 10.675 76.9771 10.675H83.0431C85.2704 10.675 87.095 8.775 87.095 6.4C87.095 4.025 85.2704 2.125 83.0431 2.125Z" fill="#C17F7F"/>
    <path d="M32.5017 61.875H52.7138C52.7138 66.6 49.0884 70.4 44.6337 70.4H40.5818C36.1034 70.4 32.5017 66.575 32.5017 61.875Z" fill="#FFEFEF"/>
    <path d="M95.1755 34.125V51.2C99.654 51.2 103.256 47.375 103.256 42.675C103.256 37.975 99.654 34.125 95.1755 34.125Z" fill="#FFEFEF"/>
    <path d="M78.991 37.7002V47.6502L92.1182 55.7252C92.7343 56.1002 93.5162 56.1252 94.1323 55.7252C94.7484 55.3502 95.1512 54.6502 95.1512 53.8752V31.4252C95.1512 30.6502 94.772 29.9502 94.1323 29.5752C93.5162 29.2002 92.7343 29.2002 92.1182 29.5752L78.991 37.7002Z" fill="#FFEFEF"/>
    <path d="M92.1419 30.1499L90.8623 30.9249C91.0282 31.2499 91.123 31.5999 91.123 31.9749V54.4249C91.123 54.7999 91.0282 55.1749 90.8623 55.4749L92.1419 56.2499C92.7579 56.6249 93.5399 56.6499 94.156 56.2499C94.772 55.8749 95.1749 55.1749 95.1749 54.3999V31.9999C95.1749 31.2249 94.7957 30.5249 94.156 30.1499C93.5399 29.7749 92.7579 29.7749 92.1419 30.1499Z" fill="#C17F7F"/>
    <path d="M46.6477 44.8001C44.4204 44.8001 42.5958 42.9001 42.5958 40.5251V23.4751H26.4119L16.7916 13.3251C14.351 10.7251 10.6546 9.95012 7.45569 11.3501C4.25682 12.7501 2.17163 16.0501 2.17163 19.7251V57.6001C2.17163 59.9501 3.97247 61.8751 6.22353 61.8751H74.9636C77.191 61.8751 79.0155 59.9751 79.0155 57.6001V44.8001H46.6477Z" fill="#FFEFEF"/>
    <path d="M72.9257 46.9248V59.7248C72.9257 62.0748 71.1248 63.9998 68.8738 63.9998H74.9398C77.1671 63.9998 78.9917 62.0998 78.9917 59.7248V46.9248H72.9257Z" fill="#C17F7F"/>
    <path d="M8.23598 57.6V19.725C8.23598 15.975 10.4396 12.6 13.7807 11.275C11.1505 10.2 8.18859 10.575 5.86644 12.25C3.5443 13.925 2.14628 16.75 2.16997 19.725V57.6C2.16997 59.95 3.97082 61.875 6.22187 61.875H12.2879C10.0368 61.875 8.23598 59.95 8.23598 57.6Z" fill="white"/>
    <path d="M42.5955 23.4751H74.9396C77.1669 23.4751 78.9915 25.3751 78.9915 27.7501V44.8251H46.6474C44.42 44.8251 42.5955 42.9251 42.5955 40.5501V23.4751Z" fill="#FFEFEF"/>
    <path d="M74.9627 23.4751H68.8967C71.1241 23.4751 72.9486 25.3751 72.9486 27.7501V44.8251H79.0146V27.7501C78.9909 25.3751 77.1901 23.4751 74.9627 23.4751Z" fill="#C17F7F"/>
    <path d="M58.7792 29.875H62.8311C63.9448 29.875 64.8452 30.825 64.8452 32V36.275C64.8452 37.45 63.9448 38.4 62.8311 38.4H58.7792C57.6656 38.4 56.7651 37.45 56.7651 36.275V32C56.7651 30.825 57.6656 29.875 58.7792 29.875Z" fill="#FFEFEF"/>
    <path d="M10.2507 128C9.51618 128 8.85271 127.575 8.49728 126.9C8.14185 126.225 8.16555 125.4 8.54467 124.75L40.8888 69.2748C41.4812 68.2748 42.7133 67.9498 43.6611 68.5748C44.6089 69.1998 44.917 70.4998 44.3246 71.4998L11.9805 126.975C11.6014 127.625 10.9616 128 10.2507 128Z" fill="#7B0000"/>
    <path d="M74.9628 128C74.252 128 73.6122 127.625 73.2331 126.975L40.889 71.5252C40.2966 70.5252 40.6046 69.2002 41.5524 68.6002C42.5003 67.9752 43.7561 68.3002 44.3248 69.3002L76.6689 124.75C77.048 125.4 77.0717 126.225 76.7163 126.9C76.3609 127.575 75.6974 128 74.9628 128Z" fill="#7B0000"/>
    <path d="M42.5949 128C42.0499 128 41.5523 127.775 41.1732 127.375C40.7941 126.975 40.5808 126.425 40.5808 125.875V70.3999C40.5808 69.2249 41.4812 68.2749 42.5949 68.2749C43.7086 68.2749 44.609 69.2249 44.609 70.3999V125.875C44.609 126.45 44.3958 126.975 44.0166 127.375C43.6612 127.775 43.1399 128 42.5949 128Z" fill="#7B0000"/>
    <path d="M93.1609 58.15C92.4501 58.15 91.7392 57.95 91.1231 57.55L77.9959 49.45C77.3799 49.075 77.0007 48.375 77.0007 47.6V37.65C77.0007 36.9 77.3799 36.2 77.9959 35.8L91.1231 27.725C92.379 26.95 93.9192 26.95 95.175 27.7C96.4309 28.45 97.2128 29.875 97.2128 31.4V53.85C97.1891 56.25 95.3883 58.15 93.1609 58.15ZM81.0289 46.425L93.1609 53.9V31.45L81.0289 38.925V46.425Z" fill="#7B0000"/>
    <path d="M48.6623 55.4502C49.7747 55.4502 50.6764 54.4988 50.6764 53.3252C50.6764 52.1516 49.7747 51.2002 48.6623 51.2002C47.5499 51.2002 46.6482 52.1516 46.6482 53.3252C46.6482 54.4988 47.5499 55.4502 48.6623 55.4502Z" fill="#7B0000"/>
    <path d="M58.7785 55.4502C59.8909 55.4502 60.7926 54.4988 60.7926 53.3252C60.7926 52.1516 59.8909 51.2002 58.7785 51.2002C57.6661 51.2002 56.7644 52.1516 56.7644 53.3252C56.7644 54.4988 57.6661 55.4502 58.7785 55.4502Z" fill="#7B0000"/>
    <path d="M68.8969 55.4502C70.0093 55.4502 70.911 54.4988 70.911 53.3252C70.911 52.1516 70.0093 51.2002 68.8969 51.2002C67.7846 51.2002 66.8828 52.1516 66.8828 53.3252C66.8828 54.4988 67.7846 55.4502 68.8969 55.4502Z" fill="#7B0000"/>
    <path d="M34.5157 55.4751H12.2658C11.1521 55.4751 10.2517 54.5251 10.2517 53.3501C10.2517 52.1751 11.1521 51.2251 12.2658 51.2251H34.5157C35.6294 51.2251 36.5298 52.1751 36.5298 53.3501C36.5298 54.5251 35.6294 55.4751 34.5157 55.4751Z" fill="#7B0000"/>
    <path d="M26.4356 46.9248H12.2658C11.1521 46.9248 10.2517 45.9748 10.2517 44.7998C10.2517 43.6248 11.1521 42.6748 12.2658 42.6748H26.4119C27.5256 42.6748 28.426 43.6248 28.426 44.7998C28.426 45.9748 27.5493 46.9248 26.4356 46.9248Z" fill="#7B0000"/>
    <path d="M44.6332 72.5251H40.5813C34.9892 72.5251 30.4871 67.7501 30.4634 61.8501C30.4634 61.2751 30.6766 60.7501 31.0558 60.3501C31.4349 59.9501 31.9562 59.7251 32.4775 59.7251H52.7133C53.2583 59.7251 53.7559 59.9501 54.135 60.3501C54.5141 60.7501 54.7274 61.3001 54.7274 61.8501C54.7274 67.7501 50.2016 72.5251 44.6332 72.5251ZM34.8707 64.0001C35.7237 66.5501 38.0222 68.2751 40.5813 68.2751H44.6332C47.1923 68.2751 49.4907 66.5751 50.3438 64.0001H34.8707Z" fill="#7B0000"/>
    <path d="M78.9909 46.9251H46.6468C43.3058 46.9251 40.5808 44.0501 40.5808 40.5251V23.4751C40.5808 22.9001 40.7941 22.3751 41.1732 21.9751C41.5523 21.5751 42.0736 21.3501 42.5949 21.3501H74.939C78.2801 21.3501 81.005 24.2251 81.005 27.7501V44.8251C81.005 45.4001 80.7918 45.9251 80.4126 46.3251C80.0572 46.7001 79.5359 46.9251 78.9909 46.9251ZM44.6327 25.6001V40.5251C44.6327 41.7001 45.5331 42.6501 46.6468 42.6501H76.9768V27.7251C76.9768 26.5501 76.0764 25.6001 74.9627 25.6001H44.6327Z" fill="#7B0000"/>
    <path d="M74.9634 63.9999H6.19955C2.85851 63.9999 0.133545 61.1249 0.133545 57.5999V19.7249C0.133545 15.1999 2.71634 11.1249 6.67345 9.39989C10.6306 7.67489 15.2038 8.62489 18.2368 11.8249L27.2647 21.3499H42.5956C43.1406 21.3499 43.6382 21.5749 44.0173 21.9749C44.3964 22.3749 44.6097 22.9249 44.6097 23.4749V40.5499C44.6097 41.7249 45.5101 42.6749 46.6238 42.6749H78.9679C79.5129 42.6749 80.0105 42.8999 80.3896 43.2999C80.7687 43.6999 80.982 44.2499 80.982 44.7999V57.5999C81.0294 61.1249 78.3044 63.9999 74.9634 63.9999ZM10.749 12.7999C7.12366 12.7999 4.18544 15.8999 4.18544 19.7249V57.5999C4.18544 58.7749 5.08587 59.7249 6.19955 59.7249H74.9397C76.0533 59.7249 76.9538 58.7749 76.9538 57.5999V46.9249H46.6238C43.2827 46.9249 40.5578 44.0499 40.5578 40.5249V25.5999H26.4117C25.8667 25.5999 25.3691 25.3749 24.9899 24.9749L15.3696 14.8249C14.1612 13.5249 12.4788 12.7999 10.749 12.7999Z" fill="#7B0000"/>
    <path d="M38.5674 25.5999C38.1883 25.5999 37.8091 25.4999 37.5011 25.2749C37.0509 24.9749 36.7191 24.4999 36.6007 23.9499C36.4822 23.3999 36.577 22.8249 36.8613 22.3499L46.9792 5.2749C47.3583 4.6499 47.9981 4.2749 48.6853 4.2749H66.8833C67.997 4.2749 68.8974 5.2249 68.8974 6.3999C68.8974 7.5749 67.997 8.5249 66.8833 8.5249H49.799L40.2734 24.5999C39.8943 25.2249 39.2545 25.5999 38.5674 25.5999Z" fill="#7B0000"/>
    <path d="M83.0435 12.8H70.9115C67.5704 12.8 64.8455 9.925 64.8455 6.4C64.8455 2.875 67.5704 0 70.9115 0H83.0435C86.3845 0 89.1095 2.875 89.1095 6.4C89.1095 9.925 86.3845 12.8 83.0435 12.8ZM70.9115 4.275C69.7978 4.275 68.8974 5.225 68.8974 6.4C68.8974 7.575 69.7978 8.525 70.9115 8.525H83.0435C84.1571 8.525 85.0576 7.575 85.0576 6.4C85.0576 5.225 84.1571 4.275 83.0435 4.275H70.9115Z" fill="#7B0000"/>
    <path d="M62.8313 40.5251H58.7794C56.5521 40.5251 54.7275 38.6251 54.7275 36.2501V32.0001C54.7275 29.6501 56.5284 27.7251 58.7794 27.7251H62.8313C65.0587 27.7251 66.8832 29.6251 66.8832 32.0001V36.2751C66.8595 38.6251 65.0587 40.5251 62.8313 40.5251ZM58.7794 32.0001V36.2751H62.8313V32.0001H58.7794Z" fill="#7B0000"/>
    <path d="M95.176 53.325C94.631 53.325 94.1334 53.1 93.7542 52.7C93.3751 52.3 93.1619 51.75 93.1619 51.2V34.125C93.1619 33.55 93.3751 33.025 93.7542 32.625C94.1334 32.225 94.6547 32 95.176 32C100.768 32 105.294 36.775 105.294 42.675C105.294 48.575 100.768 53.325 95.176 53.325ZM97.1901 36.625V48.7C99.607 47.8 101.242 45.375 101.242 42.675C101.242 39.95 99.6307 37.525 97.1901 36.625Z" fill="#7B0000"/>
</svg>
