
<svg width="412" height="100" viewBox="0 0 412 100" fill="none" xmlns="http://www.w3.org/2000/svg">
    <path d="M33.374 56.7488C29.4427 56.7488 25.6478 56.0944 21.9894 54.7857C18.3857 53.4769 15.1914 51.6229 12.4067 49.2235C9.62199 46.8242 7.4106 43.934 5.77252 40.5531C4.18907 37.1722 3.39734 33.4095 3.39734 29.2652C3.39734 25.3935 4.21637 21.7672 5.85443 18.3862C7.4925 14.9508 9.7585 11.9789 12.6524 9.47043C15.601 6.90748 19.0136 4.9171 22.8904 3.49929C26.7672 2.02695 30.9715 1.29078 35.5035 1.29078C37.5238 1.29078 39.3257 1.39984 40.9092 1.61797C42.4926 1.78156 44.0215 2.02695 45.4958 2.35413C46.97 2.68132 48.5535 3.11757 50.2461 3.66288C50.956 3.881 51.4747 4.18092 51.8023 4.56264C52.1845 4.94436 52.4029 5.51694 52.4575 6.28037C52.6213 7.69817 52.7579 9.17051 52.8671 10.6974C53.0309 12.2242 53.1401 13.9147 53.1947 15.7688C53.1947 16.2595 52.9763 16.614 52.5394 16.8321C52.1572 17.0502 51.7204 17.1048 51.229 16.9957C50.7376 16.8321 50.4099 16.4504 50.2461 15.8506C49.7547 14.051 49.1814 12.4424 48.5262 11.0246C47.871 9.60676 46.9154 8.43434 45.6596 7.50732C44.4037 6.52576 42.793 5.76233 40.8273 5.21702C38.9162 4.67171 36.7594 4.39905 34.3569 4.39905C31.2992 4.39905 28.4871 5.02616 25.9208 6.28037C23.3545 7.53458 21.1704 9.25231 19.3685 11.4335C17.5666 13.5603 16.147 15.9869 15.1095 18.7134C14.1267 21.44 13.6353 24.2756 13.6353 27.2203C13.6353 30.6557 14.0994 33.9548 15.0276 37.1176C16.0105 40.2804 17.4028 43.0888 19.2047 45.5427C21.0612 47.9966 23.2999 49.9597 25.9208 51.432C28.5417 52.8498 31.4903 53.5587 34.7664 53.5587C38.6978 53.5587 41.9466 52.6862 44.5129 50.9412C47.0793 49.1417 49.236 46.5788 50.9833 43.2524C51.3655 42.4889 51.9388 42.1072 52.7033 42.1072C53.4677 42.1072 53.8499 42.5435 53.8499 43.416C53.8499 43.9613 53.7407 44.7247 53.5223 45.7063C53.3585 46.6333 53.1128 47.6694 52.7852 48.8145C52.4575 49.9052 52.1299 50.914 51.8023 51.841C51.4747 52.5499 51.1744 53.0407 50.9014 53.3133C50.6284 53.586 50.1096 53.8586 49.3453 54.1313C47.2704 55.0038 44.8132 55.6582 41.9739 56.0944C39.1892 56.5307 36.3226 56.7488 33.374 56.7488ZM83.2503 56.5852C79.5374 56.5852 76.1247 55.74 73.0124 54.0495C69.9 52.359 67.4156 50.0687 65.5591 47.1786C63.7027 44.2885 62.7744 41.0439 62.7744 37.4448C62.7744 34.9909 63.2931 32.6188 64.3306 30.3285C65.368 27.9837 66.815 25.8843 68.6715 24.0302C70.528 22.1761 72.7121 20.7311 75.2238 19.695C77.7355 18.6044 80.4656 18.0591 83.4141 18.0591C86.1442 18.0591 88.7652 18.5226 91.2769 19.4496C93.8432 20.3221 96.1092 21.6308 98.0749 23.3758C100.095 25.0663 101.679 27.0567 102.825 29.347C104.027 31.6373 104.627 34.173 104.627 36.954C104.627 40.2804 103.781 43.4432 102.088 46.4424C100.45 49.4416 98.0476 51.8955 94.8806 53.8041C91.7683 55.6582 87.8915 56.5852 83.2503 56.5852ZM84.3151 53.3951C86.39 53.3951 88.1099 52.9316 89.475 52.0046C90.8947 51.0776 92.014 49.8506 92.833 48.3238C93.7067 46.7969 94.3073 45.1337 94.6349 43.3342C95.0171 41.4801 95.2082 39.6533 95.2082 37.8538C95.2082 34.9637 94.6895 32.2371 93.6521 29.6742C92.6692 27.1112 91.2496 25.039 89.3931 23.4576C87.5912 21.8217 85.4071 21.0037 82.8408 21.0037C80.5475 21.0037 78.6091 21.7126 77.0256 23.1304C75.4422 24.5482 74.2136 26.4023 73.34 28.6926C72.5209 30.9829 72.1114 33.4641 72.1114 36.1361C72.1114 39.2989 72.5755 42.189 73.5038 44.8065C74.432 47.424 75.7971 49.5234 77.599 51.1048C79.4008 52.6317 81.6395 53.3951 84.3151 53.3951ZM136.099 56.5852C135.498 56.5852 134.925 56.0126 134.379 54.8675C132.359 50.8322 130.475 46.8242 128.728 42.8434C127.035 38.8626 125.179 34.6365 123.158 30.1649C122.885 29.6196 122.667 29.3742 122.503 29.4288C122.339 29.4288 122.203 29.6742 122.093 30.1649C121.984 31.5282 121.82 33.2732 121.602 35.3999C121.384 37.4721 121.193 39.7079 121.029 42.1072C120.92 44.4521 120.783 46.7151 120.619 48.8963C120.619 49.8234 120.838 50.7504 121.274 51.6774C121.711 52.5499 122.667 53.0952 124.141 53.3133C124.632 53.3679 125.069 53.5042 125.452 53.7223C125.834 53.9404 126.025 54.2676 126.025 54.7039C126.025 55.0311 125.834 55.2765 125.452 55.44C125.124 55.6036 124.796 55.6854 124.469 55.6854C123.431 55.6854 122.64 55.6582 122.093 55.6036C121.547 55.5491 121.056 55.4946 120.619 55.44C120.237 55.3855 119.664 55.3582 118.899 55.3582C118.08 55.3582 117.316 55.3855 116.606 55.44C115.896 55.4946 115.186 55.5491 114.476 55.6036C113.767 55.6582 113.002 55.6854 112.183 55.6854C111.856 55.6854 111.501 55.6036 111.118 55.44C110.791 55.2765 110.627 55.0311 110.627 54.7039C110.627 54.2676 110.818 53.9677 111.2 53.8041C111.637 53.586 112.047 53.4497 112.429 53.3951C113.739 53.177 114.749 52.659 115.459 51.841C116.169 50.9685 116.606 49.9597 116.77 48.8145C116.988 47.5603 117.234 46.0062 117.507 44.1521C117.78 42.2981 118.053 40.3622 118.326 38.3446C118.654 36.2724 118.927 34.282 119.145 32.3734C119.418 30.4649 119.636 28.7744 119.8 27.3021C120.019 25.8297 120.128 24.7936 120.128 24.1938C120.128 23.1577 119.718 22.4215 118.899 21.9853C118.135 21.549 116.961 21.1946 115.377 20.9219C114.886 20.8129 114.422 20.6493 113.985 20.4312C113.603 20.1585 113.412 19.8313 113.412 19.4496C113.412 19.0679 113.576 18.7952 113.903 18.6316C114.285 18.468 114.64 18.3862 114.968 18.3862C116.06 18.3862 116.934 18.4135 117.589 18.468C118.299 18.468 119.008 18.4953 119.718 18.5498C120.483 18.6044 121.52 18.6316 122.831 18.6316C123.813 18.6316 124.441 18.6589 124.714 18.7134C125.042 18.7134 125.397 18.7407 125.779 18.7952C126.107 19.0679 126.352 19.286 126.516 19.4496C126.735 19.5587 126.926 19.7768 127.09 20.104L138.147 44.3975C138.42 44.8883 138.638 45.161 138.802 45.2155C139.02 45.2155 139.239 44.9701 139.457 44.4793C141.423 40.1714 143.143 36.2997 144.617 32.8642C146.091 29.3742 147.511 25.9388 148.876 22.5579C149.204 21.849 149.531 21.0855 149.859 20.2676C150.186 19.3951 150.459 18.9588 150.678 18.9588H153.544C155.183 18.9043 156.766 18.7952 158.295 18.6316C159.878 18.468 161.189 18.3862 162.226 18.3862C162.608 18.3862 162.991 18.468 163.373 18.6316C163.755 18.7952 163.946 19.0679 163.946 19.4496C163.946 19.8313 163.755 20.1585 163.373 20.4312C162.991 20.7038 162.554 20.8947 162.062 21.0037C160.479 21.2764 159.305 21.6854 158.541 22.2307C157.831 22.7215 157.476 23.6212 157.476 24.93C157.53 27.0021 157.585 28.8835 157.64 30.5739C157.694 32.2098 157.722 33.764 157.722 35.2363C157.776 36.7087 157.831 38.181 157.885 39.6533C157.94 41.0711 157.995 42.598 158.049 44.2339C158.158 45.8153 158.295 47.6148 158.459 49.6325C158.568 50.7776 158.977 51.6229 159.687 52.1682C160.452 52.7135 161.489 53.0952 162.8 53.3133C163.236 53.3679 163.646 53.5042 164.028 53.7223C164.465 53.9404 164.683 54.2676 164.683 54.7039C164.683 55.0311 164.492 55.2765 164.11 55.44C163.728 55.6036 163.373 55.6854 163.045 55.6854C162.117 55.6854 161.162 55.6582 160.179 55.6036C159.196 55.5491 158.24 55.4946 157.312 55.44C156.438 55.331 155.537 55.2765 154.609 55.2765C153.626 55.2765 152.644 55.331 151.661 55.44C150.678 55.4946 149.695 55.5491 148.712 55.6036C147.784 55.6582 146.801 55.6854 145.764 55.6854C145.491 55.6854 145.163 55.6036 144.781 55.44C144.399 55.2765 144.207 55.0311 144.207 54.7039C144.207 54.2676 144.399 53.9404 144.781 53.7223C145.163 53.5042 145.573 53.3679 146.009 53.3133C147.374 53.0952 148.357 52.7408 148.958 52.25C149.613 51.7047 149.941 50.8594 149.941 49.7143C149.886 47.5331 149.859 45.4063 149.859 43.3342C149.859 41.262 149.831 39.1625 149.777 37.0358C149.722 34.9091 149.64 32.7006 149.531 30.4103C149.477 29.8105 149.34 29.5378 149.122 29.5924C148.903 29.5924 148.685 29.865 148.466 30.4103L137.737 54.8675C137.464 55.4673 137.191 55.9036 136.918 56.1762C136.7 56.4489 136.427 56.5852 136.099 56.5852ZM171.863 55.7672C171.535 55.7672 171.181 55.6854 170.798 55.5218C170.471 55.3037 170.307 55.0311 170.307 54.7039C170.307 54.2676 170.498 53.9404 170.88 53.7223C171.317 53.5042 171.727 53.3406 172.109 53.2315C173.419 52.9589 174.511 52.5772 175.385 52.0864C176.259 51.5411 176.695 50.6141 176.695 49.3053V26.1569C176.695 24.6846 176.395 23.5394 175.794 22.7215C175.194 21.9035 174.074 21.3582 172.436 21.0855C172 20.9765 171.59 20.7856 171.208 20.513C170.88 20.2403 170.716 19.9131 170.716 19.5314C170.716 19.2042 170.88 18.9588 171.208 18.7952C171.59 18.5771 171.945 18.468 172.273 18.468C173.201 18.468 174.074 18.4953 174.894 18.5498C175.713 18.6044 176.532 18.6862 177.351 18.7952C178.17 18.8498 178.961 18.877 179.726 18.877C181.637 18.877 183.603 18.877 185.623 18.877C187.643 18.8225 189.582 18.7952 191.438 18.7952C193.295 18.7407 194.933 18.7134 196.352 18.7134C197.827 18.6589 198.919 18.6316 199.628 18.6316C199.847 18.6316 200.093 18.6862 200.366 18.7952C200.693 18.9043 200.857 19.1224 200.857 19.4496C200.912 21.2491 201.075 22.8033 201.348 24.112C201.621 25.3662 201.758 26.3478 201.758 27.0567C201.758 27.2748 201.676 27.5202 201.512 27.7928C201.403 28.0655 201.266 28.2018 201.103 28.2018C200.884 28.2018 200.611 28.0928 200.284 27.8746C199.956 27.6565 199.683 27.3021 199.465 26.8113C198.809 25.2299 198.127 23.9757 197.417 23.0486C196.762 22.0671 195.642 21.5763 194.059 21.5763H187.343C186.851 21.5763 186.333 21.7399 185.787 22.0671C185.295 22.3397 185.05 22.8305 185.05 23.5394V33.764C185.05 34.1457 185.159 34.5547 185.377 34.9909C185.596 35.3726 185.869 35.5635 186.196 35.5635H191.766C192.639 35.5635 193.295 35.2908 193.731 34.7455C194.223 34.1457 194.66 33.2732 195.042 32.128C195.206 31.8009 195.397 31.5282 195.615 31.3101C195.834 31.0374 196.079 30.9011 196.352 30.9011C196.625 30.9011 196.844 31.0374 197.007 31.3101C197.226 31.5282 197.308 31.8281 197.253 32.2098C197.144 33.0278 197.062 33.8458 197.007 34.6637C196.953 35.4817 196.926 36.2451 196.926 36.954C196.926 37.772 196.953 38.5354 197.007 39.2443C197.117 39.8987 197.199 40.6894 197.253 41.6164C197.308 41.9982 197.253 42.3799 197.089 42.7616C196.98 43.0888 196.789 43.2524 196.516 43.2524C196.079 43.2524 195.752 43.0342 195.533 42.598C195.315 42.1072 195.151 41.7255 195.042 41.4529C194.769 40.3622 194.359 39.6261 193.813 39.2443C193.322 38.8626 192.776 38.6445 192.175 38.59C191.411 38.4809 190.51 38.4264 189.472 38.4264C188.49 38.4264 187.589 38.4264 186.77 38.4264C186.114 38.4264 185.65 38.5082 185.377 38.6718C185.159 38.8354 185.05 39.2443 185.05 39.8987V49.3053C185.05 50.5595 185.213 51.3775 185.541 51.7592C185.869 52.1409 186.578 52.3318 187.67 52.3318H194.878C196.571 52.3318 198.045 51.7865 199.301 50.6959C200.557 49.6052 201.458 48.3783 202.004 47.015C202.113 46.7969 202.249 46.5515 202.413 46.2788C202.632 45.9517 202.905 45.7881 203.232 45.7881C203.56 45.7881 203.778 45.9517 203.887 46.2788C203.997 46.5515 204.051 46.8514 204.051 47.1786C203.997 48.3237 203.805 49.5234 203.478 50.7776C203.205 52.0319 202.877 53.2588 202.495 54.4585C202.44 54.7857 202.249 55.0856 201.922 55.3582C201.594 55.5764 201.239 55.6854 200.857 55.6854C199.328 55.6854 197.69 55.6582 195.943 55.6036C194.195 55.6036 192.421 55.5764 190.619 55.5218C188.872 55.5218 187.097 55.4946 185.295 55.44C183.548 55.3855 181.883 55.3582 180.299 55.3582C179.371 55.3582 178.415 55.4128 177.433 55.5218C176.504 55.5764 175.576 55.6309 174.648 55.6854C173.72 55.74 172.791 55.7672 171.863 55.7672ZM239.373 57.3214C237.298 57.3214 235.387 56.9396 233.64 56.1762C231.892 55.4673 230.473 54.4312 229.381 53.0679C228.343 51.7047 227.825 50.096 227.825 48.242C227.825 46.1698 228.289 44.3703 229.217 42.8434C230.145 41.3165 231.401 40.0078 232.985 38.9172C234.623 37.772 236.424 36.7359 238.39 35.8089L239.455 35.3181L238.144 33.8458C237.598 33.2459 236.998 32.6188 236.343 31.9645C235.742 31.2556 235.223 30.4649 234.786 29.5924C234.35 28.6653 234.131 27.6292 234.131 26.4841C234.131 24.8482 234.623 23.4031 235.605 22.1489C236.643 20.8947 237.981 19.9404 239.619 19.286C241.311 18.6316 243.059 18.3044 244.861 18.3044C247.754 18.3044 250.075 18.9588 251.822 20.2676C253.57 21.5763 254.471 23.1304 254.525 24.93C254.525 26.6204 253.952 28.0382 252.805 29.1834C251.659 30.3285 250.102 31.5282 248.137 32.7824L247.072 33.355L255.999 43.007L257.064 41.9436C258.538 40.4713 259.631 39.0535 260.34 37.6902C261.05 36.3269 261.405 35.3726 261.405 34.8273C261.405 34.1184 261.214 33.6822 260.832 33.5186C260.45 33.3005 260.013 33.1369 259.521 33.0278C259.248 32.9188 258.975 32.7552 258.702 32.537C258.429 32.3189 258.293 32.1008 258.293 31.8827C258.293 31.61 258.457 31.3919 258.784 31.2283C259.166 31.0102 259.549 30.9011 259.931 30.9011C260.204 30.9011 260.804 30.9556 261.733 31.0647C262.716 31.1192 263.726 31.1738 264.763 31.2283C265.801 31.2828 266.565 31.3101 267.056 31.3101C268.094 31.3101 269.295 31.1465 270.66 30.8193C272.025 30.4376 273.172 30.2467 274.1 30.2467C274.264 30.2467 274.455 30.3285 274.673 30.4921C274.892 30.6012 275.001 30.7102 275.001 30.8193C275.001 31.092 274.783 31.3919 274.346 31.7191C273.964 31.9917 273.554 32.1553 273.117 32.2098C272.025 32.3734 271.015 32.7006 270.087 33.1914C269.213 33.6822 268.503 34.173 267.957 34.6637C267.63 34.9364 267.084 35.4272 266.319 36.1361C265.609 36.845 264.79 37.6629 263.862 38.59C262.989 39.517 262.088 40.4168 261.159 41.2893C260.231 42.1618 259.439 42.9252 258.784 43.5796C258.129 44.2339 257.692 44.6429 257.474 44.8065L258.784 46.3606C260.204 48.0511 261.46 49.5234 262.552 50.7776C263.644 51.9773 264.954 52.5772 266.483 52.5772C267.411 52.5772 268.285 52.4408 269.104 52.1682C269.923 51.841 270.715 51.432 271.479 50.9412C271.643 50.8322 271.834 50.7231 272.053 50.6141C272.271 50.505 272.489 50.4505 272.708 50.4505C273.308 50.4505 273.609 50.8049 273.609 51.5138C273.609 51.9501 273.172 52.6317 272.298 53.5587C271.425 54.4858 270.305 55.331 268.94 56.0944C267.575 56.9124 266.128 57.3214 264.599 57.3214C262.088 57.3214 260.04 56.8578 258.457 55.9308C256.873 55.0583 255.153 53.5315 253.297 51.3502L251.904 49.6325L251.495 50.0415C250.184 51.4593 248.956 52.7408 247.809 53.8859C246.717 54.9765 245.516 55.8218 244.205 56.4216C242.895 57.0214 241.284 57.3214 239.373 57.3214ZM241.503 52.4136C242.977 52.4136 244.396 52.0864 245.761 51.432C247.181 50.7776 248.546 49.8779 249.857 48.7327L250.348 48.242L249.447 47.0968C248.355 45.7335 247.099 44.2885 245.68 42.7616C244.26 41.2347 242.84 39.6261 241.421 37.9356L240.52 36.7087L239.537 37.2812C237.68 38.3173 236.37 39.5988 235.605 41.1257C234.841 42.6525 234.459 44.1521 234.459 45.6245C234.459 46.8242 234.759 47.942 235.36 48.9781C236.015 50.0142 236.889 50.8594 237.981 51.5138C239.073 52.1137 240.247 52.4136 241.503 52.4136ZM245.843 31.9645L246.662 31.3919C247.481 30.7375 248.055 29.8377 248.382 28.6926C248.765 27.5474 248.956 26.4296 248.956 25.3389C248.956 23.9211 248.574 22.7215 247.809 21.7399C247.045 20.7583 246.007 20.2676 244.697 20.2676C243.605 20.2676 242.676 20.6765 241.912 21.4945C241.148 22.2579 240.738 23.1577 240.683 24.1938C240.683 24.9027 240.793 25.5298 241.011 26.0751C241.23 26.6204 241.584 27.2203 242.076 27.8746C242.622 28.4745 243.332 29.2652 244.205 30.2467L245.843 31.9645ZM310.781 56.7488C308.487 56.7488 306.33 56.4216 304.31 55.7672C302.29 55.1674 300.433 54.2404 298.741 52.9862C298.522 52.768 298.277 52.5226 298.004 52.25C297.785 51.9228 297.621 51.5956 297.512 51.2684C297.13 50.0142 296.857 48.4601 296.693 46.606C296.584 44.6974 296.502 43.007 296.447 41.5346C296.447 41.1529 296.611 40.8803 296.939 40.7167C297.266 40.4986 297.649 40.3895 298.086 40.3895C298.468 40.3895 298.768 40.4713 298.986 40.6349C299.259 40.7439 299.451 40.9893 299.56 41.3711C300.706 45.5154 302.399 48.6237 304.638 50.6959C306.876 52.7135 309.306 53.7223 311.927 53.7223C313.784 53.7223 315.367 53.3133 316.678 52.4954C318.043 51.6774 319.107 50.5868 319.872 49.2235C320.636 47.8057 321.019 46.2243 321.019 44.4793C321.019 42.4071 320.664 40.7167 319.954 39.4079C319.244 38.0992 318.207 36.9268 316.841 35.8907C315.476 34.8546 313.784 33.7367 311.763 32.537C309.579 31.2283 307.423 29.865 305.293 28.4472C303.218 27.0294 301.498 25.3662 300.133 23.4576C298.768 21.549 298.086 19.2042 298.086 16.4231C298.086 13.4785 298.768 10.8882 300.133 8.65247C301.553 6.36217 303.6 4.56264 306.276 3.2539C308.951 1.89062 312.173 1.20898 315.94 1.20898C317.906 1.20898 319.681 1.42711 321.264 1.86336C322.902 2.24507 324.213 2.65406 325.196 3.0903C325.687 3.2539 326.069 3.52656 326.342 3.90827C326.67 4.28999 326.916 4.7535 327.079 5.29881C327.352 6.44396 327.653 7.77997 327.98 9.30684C328.308 10.8337 328.472 12.3878 328.472 13.9692C328.472 14.5691 328.035 14.869 327.161 14.869C326.67 14.869 326.206 14.7599 325.769 14.5418C325.332 14.3237 325.059 14.051 324.95 13.7238C323.858 10.6701 322.493 8.35255 320.855 6.77115C319.271 5.18975 317.251 4.39905 314.794 4.39905C313.156 4.39905 311.654 4.69897 310.289 5.29881C308.979 5.84412 307.914 6.77115 307.095 8.07989C306.33 9.3341 305.948 10.9973 305.948 13.0695C305.948 14.5418 306.44 15.9324 307.423 17.2411C308.46 18.4953 309.825 19.7223 311.518 20.9219C313.265 22.0671 315.203 23.2668 317.333 24.521C319.572 25.8843 321.592 27.3021 323.394 28.7744C325.196 30.2467 326.615 31.9372 327.653 33.8458C328.69 35.6998 329.209 37.9356 329.209 40.5531C329.209 43.9885 328.444 46.9332 326.916 49.3871C325.387 51.7865 323.23 53.6133 320.445 54.8675C317.715 56.1217 314.494 56.7488 310.781 56.7488ZM336.63 55.7672C336.302 55.7672 335.947 55.6854 335.565 55.5218C335.238 55.3037 335.074 55.0311 335.074 54.7039C335.074 54.2676 335.265 53.9404 335.647 53.7223C336.084 53.5042 336.493 53.3406 336.876 53.2315C338.186 52.9589 339.278 52.5772 340.152 52.0864C341.025 51.5411 341.462 50.6141 341.462 49.3053V26.1569C341.462 24.6846 341.162 23.5394 340.561 22.7215C339.961 21.9035 338.841 21.3582 337.203 21.0855C336.766 20.9765 336.357 20.7856 335.975 20.513C335.647 20.2403 335.483 19.9131 335.483 19.5314C335.483 19.2042 335.647 18.9588 335.975 18.7952C336.357 18.5771 336.712 18.468 337.039 18.468C337.968 18.468 338.841 18.4953 339.66 18.5498C340.479 18.6044 341.298 18.6862 342.117 18.7952C342.936 18.8498 343.728 18.877 344.493 18.877C346.404 18.877 348.369 18.877 350.39 18.877C352.41 18.8225 354.348 18.7952 356.205 18.7952C358.061 18.7407 359.699 18.7134 361.119 18.7134C362.593 18.6589 363.685 18.6316 364.395 18.6316C364.614 18.6316 364.859 18.6862 365.132 18.7952C365.46 18.9043 365.624 19.1224 365.624 19.4496C365.678 21.2491 365.842 22.8033 366.115 24.112C366.388 25.3662 366.525 26.3478 366.525 27.0567C366.525 27.2748 366.443 27.5202 366.279 27.7928C366.17 28.0655 366.033 28.2018 365.869 28.2018C365.651 28.2018 365.378 28.0928 365.05 27.8746C364.723 27.6565 364.45 27.3021 364.231 26.8113C363.576 25.2299 362.894 23.9757 362.184 23.0486C361.529 22.0671 360.409 21.5763 358.826 21.5763H352.11C351.618 21.5763 351.099 21.7399 350.553 22.0671C350.062 22.3397 349.816 22.8305 349.816 23.5394V33.764C349.816 34.1457 349.926 34.5547 350.144 34.9909C350.362 35.3726 350.635 35.5635 350.963 35.5635H356.532C357.406 35.5635 358.061 35.2908 358.498 34.7455C358.99 34.1457 359.426 33.2732 359.809 32.128C359.972 31.8009 360.164 31.5282 360.382 31.3101C360.6 31.0374 360.846 30.9011 361.119 30.9011C361.392 30.9011 361.61 31.0374 361.774 31.3101C361.993 31.5282 362.075 31.8281 362.02 32.2098C361.911 33.0278 361.829 33.8458 361.774 34.6637C361.72 35.4817 361.692 36.2451 361.692 36.954C361.692 37.772 361.72 38.5354 361.774 39.2443C361.883 39.8987 361.965 40.6894 362.02 41.6164C362.075 41.9982 362.02 42.3799 361.856 42.7616C361.747 43.0888 361.556 43.2524 361.283 43.2524C360.846 43.2524 360.518 43.0342 360.3 42.598C360.082 42.1072 359.918 41.7255 359.809 41.4529C359.536 40.3622 359.126 39.6261 358.58 39.2443C358.089 38.8626 357.543 38.6445 356.942 38.59C356.177 38.4809 355.277 38.4264 354.239 38.4264C353.256 38.4264 352.355 38.4264 351.536 38.4264C350.881 38.4264 350.417 38.5082 350.144 38.6718C349.926 38.8354 349.816 39.2443 349.816 39.8987V49.3053C349.816 50.5595 349.98 51.3775 350.308 51.7592C350.635 52.1409 351.345 52.3318 352.437 52.3318H359.645C361.337 52.3318 362.812 51.7865 364.068 50.6959C365.323 49.6052 366.224 48.3783 366.77 47.015C366.88 46.7969 367.016 46.5515 367.18 46.2788C367.398 45.9517 367.671 45.7881 367.999 45.7881C368.327 45.7881 368.545 45.9517 368.654 46.2788C368.763 46.5515 368.818 46.8514 368.818 47.1786C368.763 48.3237 368.572 49.5234 368.245 50.7776C367.972 52.0319 367.644 53.2588 367.262 54.4585C367.207 54.7857 367.016 55.0856 366.688 55.3582C366.361 55.5764 366.006 55.6854 365.624 55.6854C364.095 55.6854 362.457 55.6582 360.71 55.6036C358.962 55.6036 357.188 55.5764 355.386 55.5218C353.639 55.5218 351.864 55.4946 350.062 55.44C348.315 55.3855 346.649 55.3582 345.066 55.3582C344.138 55.3582 343.182 55.4128 342.199 55.5218C341.271 55.5764 340.343 55.6309 339.415 55.6854C338.486 55.74 337.558 55.7672 336.63 55.7672ZM376.302 55.7672C375.974 55.7672 375.619 55.6854 375.237 55.5218C374.91 55.3037 374.746 55.0311 374.746 54.7039C374.746 54.2676 374.937 53.9404 375.319 53.7223C375.756 53.5042 376.165 53.3406 376.548 53.2315C377.858 52.9589 378.95 52.5772 379.824 52.0864C380.697 51.5411 381.134 50.6141 381.134 49.3053V26.1569C381.134 24.6846 380.834 23.5394 380.233 22.7215C379.633 21.9035 378.513 21.3582 376.875 21.0855C376.439 20.9765 376.029 20.7856 375.647 20.513C375.319 20.2403 375.155 19.9131 375.155 19.5314C375.155 19.2042 375.319 18.9588 375.647 18.7952C376.029 18.5771 376.384 18.468 376.711 18.468C377.64 18.468 378.513 18.4953 379.332 18.5498C380.151 18.6044 380.97 18.6862 381.79 18.7952C382.609 18.8498 383.4 18.877 384.165 18.877C386.076 18.877 388.042 18.877 390.062 18.877C392.082 18.8225 394.02 18.7952 395.877 18.7952C397.733 18.7407 399.371 18.7134 400.791 18.7134C402.265 18.6589 403.357 18.6316 404.067 18.6316C404.286 18.6316 404.531 18.6862 404.804 18.7952C405.132 18.9043 405.296 19.1224 405.296 19.4496C405.35 21.2491 405.514 22.8033 405.787 24.112C406.06 25.3662 406.197 26.3478 406.197 27.0567C406.197 27.2748 406.115 27.5202 405.951 27.7928C405.842 28.0655 405.705 28.2018 405.542 28.2018C405.323 28.2018 405.05 28.0928 404.723 27.8746C404.395 27.6565 404.122 27.3021 403.904 26.8113C403.248 25.2299 402.566 23.9757 401.856 23.0486C401.201 22.0671 400.081 21.5763 398.498 21.5763H391.782C391.29 21.5763 390.772 21.7399 390.226 22.0671C389.734 22.3397 389.488 22.8305 389.488 23.5394V33.764C389.488 34.1457 389.598 34.5547 389.816 34.9909C390.034 35.3726 390.307 35.5635 390.635 35.5635H396.205C397.078 35.5635 397.733 35.2908 398.17 34.7455C398.662 34.1457 399.098 33.2732 399.481 32.128C399.645 31.8009 399.836 31.5282 400.054 31.3101C400.272 31.0374 400.518 30.9011 400.791 30.9011C401.064 30.9011 401.283 31.0374 401.446 31.3101C401.665 31.5282 401.747 31.8281 401.692 32.2098C401.583 33.0278 401.501 33.8458 401.446 34.6637C401.392 35.4817 401.364 36.2451 401.364 36.954C401.364 37.772 401.392 38.5354 401.446 39.2443C401.556 39.8987 401.638 40.6894 401.692 41.6164C401.747 41.9982 401.692 42.3799 401.528 42.7616C401.419 43.0888 401.228 43.2524 400.955 43.2524C400.518 43.2524 400.191 43.0342 399.972 42.598C399.754 42.1072 399.59 41.7255 399.481 41.4529C399.208 40.3622 398.798 39.6261 398.252 39.2443C397.761 38.8626 397.215 38.6445 396.614 38.59C395.85 38.4809 394.949 38.4264 393.911 38.4264C392.928 38.4264 392.027 38.4264 391.208 38.4264C390.553 38.4264 390.089 38.5082 389.816 38.6718C389.598 38.8354 389.488 39.2443 389.488 39.8987V49.3053C389.488 50.5595 389.652 51.3775 389.98 51.7592C390.307 52.1409 391.017 52.3318 392.109 52.3318H399.317C401.01 52.3318 402.484 51.7865 403.74 50.6959C404.996 49.6052 405.896 48.3783 406.443 47.015C406.552 46.7969 406.688 46.5515 406.852 46.2788C407.07 45.9517 407.343 45.7881 407.671 45.7881C407.999 45.7881 408.217 45.9517 408.326 46.2788C408.435 46.5515 408.49 46.8514 408.49 47.1786C408.436 48.3237 408.244 49.5234 407.917 50.7776C407.644 52.0319 407.316 53.2588 406.934 54.4585C406.879 54.7857 406.688 55.0856 406.361 55.3582C406.033 55.5764 405.678 55.6854 405.296 55.6854C403.767 55.6854 402.129 55.6582 400.382 55.6036C398.634 55.6036 396.86 55.5764 395.058 55.5218C393.311 55.5218 391.536 55.4946 389.734 55.44C387.987 55.3855 386.322 55.3582 384.738 55.3582C383.81 55.3582 382.854 55.4128 381.871 55.5218C380.943 55.5764 380.015 55.6309 379.087 55.6854C378.158 55.74 377.23 55.7672 376.302 55.7672Z" fill="#86171E"/>
    <path d="M6.68951 84.1026C6.68951 82.7071 7.00159 81.4603 7.6257 80.3628C8.2634 79.2518 9.12493 78.3912 10.2104 77.7815C11.3094 77.1583 12.5373 76.8465 13.8941 76.8465C15.4815 76.8465 16.8722 77.253 18.0662 78.066C19.2601 78.879 20.0946 80.0038 20.5694 81.44H17.2928C16.9672 80.7623 16.5059 80.2542 15.9089 79.9156C15.3255 79.577 14.6471 79.4075 13.8737 79.4075C13.0461 79.4075 12.3066 79.6038 11.6554 79.9969C11.0176 80.3761 10.5157 80.9185 10.1493 81.6229C9.79654 82.3274 9.62017 83.1542 9.62017 84.1026C9.62017 85.0375 9.79654 85.8639 10.1493 86.5823C10.5157 87.2867 11.0176 87.8355 11.6554 88.2286C12.3066 88.6078 13.0461 88.7977 13.8737 88.7977C14.6471 88.7977 15.3255 88.6282 15.9089 88.2896C16.5059 87.9371 16.9672 87.4225 17.2928 86.7449H20.5694C20.0946 88.1949 19.2601 89.3262 18.0662 90.1392C16.8858 90.9388 15.495 91.3383 13.8941 91.3383C12.5373 91.3383 11.3094 91.0335 10.2104 90.4237C9.12493 89.8006 8.2634 88.94 7.6257 87.8424C7.00159 86.7449 6.68951 85.4981 6.68951 84.1026ZM33.7488 88.5131H28.091L27.1548 91.2164H24.1631L29.2714 77.0091H32.5888L37.6971 91.2164H34.685L33.7488 88.5131ZM32.9755 86.2367L30.9199 80.3018L28.8644 86.2367H32.9755ZM51.3089 77.0294V79.3262H47.5233V91.2164H44.6741V79.3262H40.8886V77.0294H51.3089ZM67.2066 77.0294V91.2164H64.3574V85.1798H58.2722V91.2164H55.423V77.0294H58.2722V82.8628H64.3574V77.0294H67.2066ZM78.6404 91.3587C77.3106 91.3587 76.0895 91.0469 74.9771 90.4237C73.8642 89.8006 72.9826 88.94 72.3313 87.8424C71.6801 86.7315 71.3544 85.4778 71.3544 84.0823C71.3544 82.7001 71.6801 81.4603 72.3313 80.3628C72.9826 79.2518 73.8642 78.3843 74.9771 77.7611C76.0895 77.138 77.3106 76.8262 78.6404 76.8262C79.9836 76.8262 81.2047 77.138 82.3037 77.7611C83.4161 78.3843 84.2912 79.2518 84.9291 80.3628C85.5804 81.4603 85.906 82.7001 85.906 84.0823C85.906 85.4778 85.5804 86.7315 84.9291 87.8424C84.2912 88.94 83.4161 89.8006 82.3037 90.4237C81.1908 91.0469 79.9697 91.3587 78.6404 91.3587ZM78.6404 88.818C79.4952 88.818 80.2482 88.6282 80.8994 88.2489C81.5507 87.8558 82.0595 87.3006 82.4258 86.5823C82.7922 85.8639 82.9753 85.0306 82.9753 84.0823C82.9753 83.1339 82.7922 82.307 82.4258 81.6026C82.0595 80.8843 81.5507 80.3355 80.8994 79.9562C80.2482 79.577 79.4952 79.3871 78.6404 79.3871C77.7856 79.3871 77.0257 79.577 76.361 79.9562C75.7097 80.3355 75.2009 80.8843 74.8346 81.6026C74.4683 82.307 74.2851 83.1339 74.2851 84.0823C74.2851 85.0306 74.4683 85.8639 74.8346 86.5823C75.2009 87.3006 75.7097 87.8558 76.361 88.2489C77.0257 88.6282 77.7856 88.818 78.6404 88.818ZM92.91 88.9603H97.5909V91.2164H90.0607V77.0294H92.91V88.9603ZM104.286 77.0294V91.2164H101.437V77.0294H104.286ZM108.444 84.1026C108.444 82.7071 108.757 81.4603 109.381 80.3628C110.018 79.2518 110.88 78.3912 111.965 77.7815C113.064 77.1583 114.292 76.8465 115.649 76.8465C117.236 76.8465 118.627 77.253 119.821 78.066C121.015 78.879 121.85 80.0038 122.324 81.44H119.048C118.722 80.7623 118.261 80.2542 117.664 79.9156C117.08 79.577 116.402 79.4075 115.629 79.4075C114.801 79.4075 114.061 79.6038 113.41 79.9969C112.773 80.3761 112.271 80.9185 111.904 81.6229C111.552 82.3274 111.375 83.1542 111.375 84.1026C111.375 85.0375 111.552 85.8639 111.904 86.5823C112.271 87.2867 112.773 87.8355 113.41 88.2286C114.061 88.6078 114.801 88.7977 115.629 88.7977C116.402 88.7977 117.08 88.6282 117.664 88.2896C118.261 87.9371 118.722 87.4225 119.048 86.7449H122.324C121.85 88.1949 121.015 89.3262 119.821 90.1392C118.641 90.9388 117.25 91.3383 115.649 91.3383C114.292 91.3383 113.064 91.0335 111.965 90.4237C110.88 89.8006 110.018 88.94 109.381 87.8424C108.757 86.7449 108.444 85.4981 108.444 84.1026ZM142.45 77.0294V79.3262H136.527V82.9644H141.066V85.2205H136.527V91.2164H133.678V77.0294H142.45ZM153.099 91.3587C151.769 91.3587 150.548 91.0469 149.436 90.4237C148.323 89.8006 147.441 88.94 146.79 87.8424C146.139 86.7315 145.813 85.4778 145.813 84.0823C145.813 82.7001 146.139 81.4603 146.79 80.3628C147.441 79.2518 148.323 78.3843 149.436 77.7611C150.548 77.138 151.769 76.8262 153.099 76.8262C154.442 76.8262 155.664 77.138 156.763 77.7611C157.875 78.3843 158.75 79.2518 159.388 80.3628C160.039 81.4603 160.365 82.7001 160.365 84.0823C160.365 85.4778 160.039 86.7315 159.388 87.8424C158.75 88.94 157.875 89.8006 156.763 90.4237C155.65 91.0469 154.429 91.3587 153.099 91.3587ZM153.099 88.818C153.954 88.818 154.707 88.6282 155.358 88.2489C156.01 87.8558 156.518 87.3006 156.885 86.5823C157.251 85.8639 157.434 85.0306 157.434 84.0823C157.434 83.1339 157.251 82.307 156.885 81.6026C156.518 80.8843 156.01 80.3355 155.358 79.9562C154.707 79.577 153.954 79.3871 153.099 79.3871C152.244 79.3871 151.484 79.577 150.82 79.9562C150.169 80.3355 149.66 80.8843 149.293 81.6026C148.927 82.307 148.744 83.1339 148.744 84.0823C148.744 85.0306 148.927 85.8639 149.293 86.5823C149.66 87.3006 150.169 87.8558 150.82 88.2489C151.484 88.6282 152.244 88.818 153.099 88.818ZM171.846 91.2164L168.712 85.688H167.369V91.2164H164.52V77.0294H169.852C170.951 77.0294 171.887 77.2257 172.66 77.6189C173.434 77.9981 174.01 78.5201 174.39 79.1839C174.784 79.8343 174.98 80.566 174.98 81.379C174.98 82.314 174.709 83.1607 174.166 83.9197C173.624 84.6648 172.817 85.1798 171.744 85.4644L175.143 91.2164H171.846ZM167.369 83.5538H169.75C170.523 83.5538 171.1 83.3709 171.48 83.005C171.86 82.6258 172.05 82.1038 172.05 81.44C172.05 80.7896 171.86 80.2884 171.48 79.9359C171.1 79.5701 170.523 79.3871 169.75 79.3871H167.369V83.5538ZM195.081 77.0294V91.2164H192.231V81.9888L188.425 91.2164H186.268L182.442 81.9888V91.2164H179.593V77.0294H182.829L187.347 87.5782L191.865 77.0294H195.081ZM208.643 88.5131H202.985L202.049 91.2164H199.058L204.166 77.0091H207.483L212.591 91.2164H209.579L208.643 88.5131ZM207.87 86.2367L205.814 80.3018L203.759 86.2367H207.87ZM226.203 77.0294V79.3262H222.417V91.2164H219.568V79.3262H215.783V77.0294H226.203ZM233.167 77.0294V91.2164H230.317V77.0294H233.167ZM244.611 91.3587C243.281 91.3587 242.06 91.0469 240.947 90.4237C239.835 89.8006 238.953 88.94 238.302 87.8424C237.651 86.7315 237.325 85.4778 237.325 84.0823C237.325 82.7001 237.651 81.4603 238.302 80.3628C238.953 79.2518 239.835 78.3843 240.947 77.7611C242.06 77.138 243.281 76.8262 244.611 76.8262C245.954 76.8262 247.175 77.138 248.274 77.7611C249.387 78.3843 250.262 79.2518 250.9 80.3628C251.551 81.4603 251.876 82.7001 251.876 84.0823C251.876 85.4778 251.551 86.7315 250.9 87.8424C250.262 88.94 249.387 89.8006 248.274 90.4237C247.161 91.0469 245.94 91.3587 244.611 91.3587ZM244.611 88.818C245.466 88.818 246.219 88.6282 246.87 88.2489C247.521 87.8558 248.03 87.3006 248.396 86.5823C248.763 85.8639 248.946 85.0306 248.946 84.0823C248.946 83.1339 248.763 82.307 248.396 81.6026C248.03 80.8843 247.521 80.3355 246.87 79.9562C246.219 79.577 245.466 79.3871 244.611 79.3871C243.756 79.3871 242.996 79.577 242.331 79.9562C241.68 80.3355 241.171 80.8843 240.805 81.6026C240.439 82.307 240.256 83.1339 240.256 84.0823C240.256 85.0306 240.439 85.8639 240.805 86.5823C241.171 87.3006 241.68 87.8558 242.331 88.2489C242.996 88.6282 243.756 88.818 244.611 88.818ZM268.181 91.2164H265.332L258.88 81.4806V91.2164H256.031V77.0091H258.88L265.332 86.7652V77.0091H268.181V91.2164ZM295.404 77.0294V91.2164H292.555V81.9888L288.749 91.2164H286.592L282.766 81.9888V91.2164H279.917V77.0294H283.153L287.671 87.5782L292.189 77.0294H295.404ZM303.106 77.0294V91.2164H300.257V77.0294H303.106ZM320.106 91.2164H317.257L310.805 81.4806V91.2164H307.956V77.0091H310.805L317.257 86.7652V77.0091H320.106V91.2164ZM327.807 77.0294V91.2164H324.957V77.0294H327.807ZM337.561 91.3587C336.571 91.3587 335.675 91.1891 334.875 90.8505C334.088 90.512 333.464 90.0242 333.003 89.3871C332.541 88.7501 332.304 87.9981 332.29 87.131H335.343C335.384 87.7135 335.587 88.1746 335.954 88.5131C336.333 88.8517 336.849 89.0213 337.5 89.0213C338.165 89.0213 338.687 88.8656 339.068 88.5538C339.447 88.2286 339.637 87.8087 339.637 87.2936C339.637 86.8738 339.508 86.5282 339.251 86.2571C338.993 85.9859 338.667 85.7762 338.274 85.627C337.894 85.4644 337.364 85.2884 336.686 85.0985C335.764 84.8273 335.011 84.5631 334.427 84.3058C333.857 84.0347 333.362 83.6351 332.942 83.1067C332.535 82.5648 332.331 81.8465 332.331 80.9522C332.331 80.1119 332.541 79.3802 332.962 78.7571C333.382 78.1339 333.973 77.6595 334.733 77.3343C335.492 76.9957 336.361 76.8262 337.338 76.8262C338.803 76.8262 339.99 77.1851 340.899 77.9034C341.821 78.6078 342.33 79.5973 342.426 80.8709H339.291C339.264 80.3831 339.054 79.9835 338.66 79.6717C338.28 79.3465 337.771 79.1839 337.134 79.1839C336.578 79.1839 336.13 79.3262 335.791 79.6107C335.465 79.8953 335.302 80.3087 335.302 80.8506C335.302 81.2298 335.425 81.5486 335.669 81.8058C335.926 82.0497 336.239 82.253 336.605 82.4156C336.985 82.5648 337.514 82.7408 338.192 82.9441C339.115 83.2152 339.868 83.4859 340.451 83.7571C341.035 84.0282 341.537 84.4347 341.957 84.9766C342.378 85.5184 342.588 86.2298 342.588 87.1107C342.588 87.8697 342.391 88.5741 341.998 89.2245C341.605 89.8749 341.028 90.3965 340.268 90.7896C339.508 91.1688 338.606 91.3587 337.561 91.3587ZM356.761 77.0294V79.3262H352.975V91.2164H350.126V79.3262H346.341V77.0294H356.761ZM368.201 91.2164L365.067 85.688H363.724V91.2164H360.875V77.0294H366.207C367.306 77.0294 368.242 77.2257 369.015 77.6189C369.789 77.9981 370.366 78.5201 370.745 79.1839C371.139 79.8343 371.336 80.566 371.336 81.379C371.336 82.314 371.064 83.1607 370.522 83.9197C369.979 84.6648 369.171 85.1798 368.1 85.4644L371.498 91.2164H368.201ZM363.724 83.5538H366.105C366.879 83.5538 367.455 83.3709 367.835 83.005C368.215 82.6258 368.405 82.1038 368.405 81.44C368.405 80.7896 368.215 80.2884 367.835 79.9359C367.455 79.5701 366.879 79.3871 366.105 79.3871H363.724V83.5538ZM378.797 77.0294V91.2164H375.948V77.0294H378.797ZM386.497 79.3262V82.8831H391.279V85.1392H386.497V88.8993H391.89V91.2164H383.647V77.0091H391.89V79.3262H386.497ZM401.419 91.3587C400.429 91.3587 399.533 91.1891 398.733 90.8505C397.946 90.512 397.322 90.0242 396.86 89.3871C396.399 88.7501 396.162 87.9981 396.148 87.131H399.201C399.241 87.7135 399.445 88.1746 399.811 88.5131C400.191 88.8517 400.707 89.0213 401.358 89.0213C402.023 89.0213 402.545 88.8656 402.925 88.5538C403.305 88.2286 403.495 87.8087 403.495 87.2936C403.495 86.8738 403.366 86.5282 403.108 86.2571C402.851 85.9859 402.525 85.7762 402.131 85.627C401.752 85.4644 401.222 85.2884 400.544 85.0985C399.622 84.8273 398.869 84.5631 398.285 84.3058C397.715 84.0347 397.22 83.6351 396.799 83.1067C396.392 82.5648 396.189 81.8465 396.189 80.9522C396.189 80.1119 396.399 79.3802 396.82 78.7571C397.24 78.1339 397.831 77.6595 398.59 77.3343C399.35 76.9957 400.218 76.8262 401.195 76.8262C402.66 76.8262 403.848 77.1851 404.757 77.9034C405.68 78.6078 406.188 79.5973 406.283 80.8709H403.149C403.122 80.3831 402.912 79.9835 402.518 79.6717C402.138 79.3465 401.629 79.1839 400.992 79.1839C400.436 79.1839 399.988 79.3262 399.648 79.6107C399.323 79.8953 399.16 80.3087 399.16 80.8506C399.16 81.2298 399.282 81.5486 399.526 81.8058C399.784 82.0497 400.096 82.253 400.462 82.4156C400.843 82.5648 401.372 82.7408 402.05 82.9441C402.973 83.2152 403.726 83.4859 404.309 83.7571C404.893 84.0282 405.395 84.4347 405.815 84.9766C406.236 85.5184 406.446 86.2298 406.446 87.1107C406.446 87.8697 406.249 88.5741 405.856 89.2245C405.463 89.8749 404.886 90.3965 404.126 90.7896C403.366 91.1688 402.464 91.3587 401.419 91.3587Z" fill="#86171E"/>
</svg>
