<svg width="206" height="97" viewBox="0 0 206 97" fill="none" xmlns="http://www.w3.org/2000/svg">
    <path d="M10.4682 0H160L149.061 63H0L10.4682 0Z" fill="url(#paint0_linear_5979_581)"/>
    <path d="M48.0476 55H206L198.99 97H41L48.0476 55Z" fill="url(#paint1_linear_5979_581)"/>
    <path d="M124.716 23.1743L124.023 27.2381H134.182L132.797 34.9499H122.637L121.806 39.5678H133.351L131.919 47.7414H110.123L115.895 15.0469H137.692L136.26 23.1743H124.716Z" fill="white"/>
    <path d="M96.7468 23.1743L96.0541 27.2381H106.213L104.828 34.9499H94.6687L93.8375 39.5678H105.382L103.951 47.7414H82.1543L87.9266 15.0469H109.723L108.291 23.1743H96.7468Z" fill="white"/>
    <path d="M69.9215 15.0469C73.4311 15.0469 76.0941 15.8319 77.9104 17.402C79.7268 18.9721 80.635 21.0655 80.635 23.6823C80.635 24.4519 80.5734 25.1446 80.4502 25.7603C80.05 27.9769 79.0957 29.9318 77.5872 31.625C76.0787 33.2875 74.1238 34.4881 71.7225 35.227L76.6174 47.7414H65.3498L61.2399 36.012L59.1618 47.7414H48.9102L54.6825 15.0469H69.9215ZM62.4405 29.1776H66.5043C67.4894 29.1776 68.2591 28.9621 68.8132 28.5311C69.3981 28.0693 69.783 27.3612 69.9677 26.4068C69.9985 26.2529 70.0138 26.0528 70.0138 25.8065C70.0138 25.1292 69.7983 24.6059 69.3673 24.2364C68.9363 23.8362 68.3052 23.6361 67.474 23.6361H63.4103L62.4405 29.1776Z" fill="white"/>
    <path d="M48.9008 15.0469L47.4692 23.1743H34.6315L33.8465 27.6999H43.0823L41.6969 35.4117H32.4611L30.2907 47.7414H20.0391L25.8114 15.0469H48.9008Z" fill="white"/>
    <path d="M172.098 70.1555L171.358 74.4806H178.142L177.46 78.3021H170.676L169.847 82.9531H177.52L176.809 86.9524H164.07L167.744 66.1562H180.482L179.771 70.1555H172.098Z" fill="white"/>
    <path d="M153.906 87.1591C151.655 87.1591 149.818 86.6752 148.396 85.7075C146.994 84.7201 146.293 83.3277 146.293 81.5305C146.293 81.3528 146.313 81.0862 146.352 80.7307H151.625C151.566 81.4812 151.744 82.0736 152.159 82.5081C152.573 82.9426 153.205 83.1599 154.054 83.1599C154.825 83.1599 155.427 82.992 155.862 82.6562C156.316 82.3205 156.543 81.8465 156.543 81.2343C156.543 80.6023 156.257 80.0888 155.684 79.6938C155.131 79.2988 154.262 78.8545 153.077 78.3607C151.931 77.8868 150.993 77.4424 150.263 77.0277C149.552 76.5932 148.93 76.0106 148.396 75.2798C147.863 74.5491 147.596 73.6308 147.596 72.5248C147.577 71.1621 147.912 69.9771 148.604 68.9699C149.295 67.9627 150.253 67.1925 151.477 66.6592C152.702 66.126 154.104 65.8594 155.684 65.8594C157.106 65.8594 158.37 66.0865 159.476 66.5407C160.582 66.9752 161.441 67.6171 162.053 68.4663C162.665 69.2958 162.971 70.2832 162.971 71.4287C162.971 71.7249 162.961 71.9422 162.942 72.0804H157.55C157.57 72.0014 157.58 71.8829 157.58 71.7249C157.58 71.172 157.382 70.7276 156.987 70.3919C156.612 70.0364 156.089 69.8586 155.417 69.8586C154.706 69.8586 154.124 70.0364 153.669 70.3919C153.235 70.7276 153.018 71.1917 153.018 71.7842C153.018 72.3767 153.294 72.8803 153.847 73.295C154.4 73.69 155.259 74.1541 156.424 74.6874C157.59 75.2206 158.538 75.7143 159.268 76.1686C160.019 76.6228 160.661 77.235 161.194 78.0053C161.727 78.7557 161.994 79.684 161.994 80.7899C161.994 82.0144 161.668 83.1105 161.016 84.0782C160.364 85.0459 159.426 85.8063 158.202 86.3593C156.977 86.8925 155.546 87.1591 153.906 87.1591Z" fill="white"/>
    <path d="M138.492 66.1562C140.645 66.1562 142.284 66.65 143.41 67.6375C144.535 68.6052 145.098 69.8691 145.098 71.4293C145.098 71.8836 145.059 72.3082 144.98 72.7032C144.743 74.0856 144.14 75.32 143.173 76.4062C142.205 77.4924 140.911 78.2626 139.292 78.7169L142.639 86.9524H136.922L133.989 79.102H132.774L131.382 86.9524H126.316L129.99 66.1562H138.492ZM139.795 72.9105C139.835 72.5946 139.855 72.3872 139.855 72.2884C139.855 71.6565 139.647 71.1726 139.233 70.8369C138.838 70.4814 138.245 70.3036 137.455 70.3036H134.315L133.397 75.5175H136.537C137.465 75.5175 138.196 75.2904 138.729 74.8361C139.282 74.3819 139.637 73.74 139.795 72.9105Z" fill="white"/>
    <path d="M114.08 66.1562L111.888 78.5687C111.809 79.0822 111.769 79.4377 111.769 79.6352C111.769 80.5437 112.026 81.2448 112.539 81.7385C113.053 82.2125 113.813 82.4495 114.82 82.4495C116.005 82.4495 116.973 82.1138 117.724 81.4423C118.474 80.7708 118.958 79.813 119.175 78.5687L121.367 66.1562H126.433L124.241 78.5687C123.905 80.4449 123.234 82.0348 122.226 83.3382C121.239 84.6219 120.024 85.5798 118.583 86.2118C117.161 86.8438 115.61 87.1597 113.932 87.1597C111.759 87.1597 110.002 86.5969 108.659 85.4712C107.335 84.3455 106.674 82.7161 106.674 80.5832C106.674 79.9512 106.733 79.2797 106.852 78.5687L109.014 66.1562H114.08Z" fill="white"/>
    <path d="M92.035 87.1591C90.2773 87.1591 88.727 86.7937 87.384 86.063C86.0608 85.3323 85.0339 84.3053 84.3031 82.9821C83.5724 81.6589 83.207 80.1382 83.207 78.42C83.207 75.9908 83.7304 73.8283 84.7771 71.9323C85.8238 70.0166 87.2754 68.5255 89.1319 67.4591C91.008 66.3926 93.1311 65.8594 95.501 65.8594C97.2785 65.8594 98.8387 66.2247 100.182 66.9555C101.525 67.6664 102.561 68.6835 103.292 70.0067C104.023 71.3102 104.388 72.8112 104.388 74.5096C104.388 76.9388 103.865 79.1211 102.818 81.0565C101.771 82.9722 100.31 84.4732 98.4338 85.5594C96.5576 86.6259 94.4247 87.1591 92.035 87.1591ZM92.8052 82.4785C94.1087 82.4785 95.2542 82.1428 96.2416 81.4713C97.2291 80.7998 97.9895 79.9012 98.5227 78.7755C99.0757 77.63 99.3522 76.3957 99.3522 75.0725C99.3522 73.6505 98.9572 72.5347 98.1672 71.7249C97.3772 70.9152 96.2713 70.5104 94.8493 70.5104C93.5458 70.5104 92.3905 70.8461 91.3833 71.5176C90.3958 72.1891 89.6256 73.0877 89.0726 74.2134C88.5394 75.3193 88.2728 76.5438 88.2728 77.8868C88.2728 79.3087 88.6677 80.4344 89.4577 81.2639C90.2477 82.0736 91.3635 82.4785 92.8052 82.4785Z" fill="white"/>
    <path d="M60.5824 76.5195C60.9379 74.4656 61.6982 72.6387 62.8634 71.039C64.0484 69.4196 65.5098 68.1655 67.2478 67.2768C68.9857 66.3683 70.8619 65.9141 72.8764 65.9141C75.345 65.9141 77.3397 66.5658 78.8604 67.8693C80.4009 69.1727 81.2699 70.9502 81.4674 73.2016H75.898C75.6413 72.3524 75.1673 71.7105 74.4761 71.276C73.8046 70.8218 72.9751 70.5947 71.9876 70.5947C70.4274 70.5947 69.0746 71.1378 67.9291 72.224C66.7837 73.2905 66.053 74.7223 65.737 76.5195C65.6382 77.0725 65.5888 77.5563 65.5888 77.9711C65.5888 79.3535 65.974 80.4496 66.7442 81.2594C67.5144 82.0691 68.571 82.4739 69.914 82.4739C70.8817 82.4739 71.7803 82.2468 72.6098 81.7926C73.459 81.3383 74.17 80.6866 74.7427 79.8374H80.312C79.3246 82.0888 77.8335 83.8663 75.8388 85.1697C73.8441 86.4534 71.6124 87.0953 69.1437 87.0953C67.3663 87.0953 65.816 86.7497 64.4928 86.0585C63.1695 85.3672 62.1524 84.3896 61.4415 83.1257C60.7305 81.8617 60.375 80.3904 60.375 78.7117C60.375 77.9612 60.4441 77.2305 60.5824 76.5195Z" fill="white"/>
    <defs>
        <linearGradient id="paint0_linear_5979_581" x1="80" y1="0" x2="80" y2="63" gradientUnits="userSpaceOnUse">
            <stop stop-color="#113F59"/>
            <stop offset="0.665" stop-color="#125A83"/>
        </linearGradient>
        <linearGradient id="paint1_linear_5979_581" x1="123.5" y1="55" x2="123.5" y2="97" gradientUnits="userSpaceOnUse">
            <stop stop-color="#113F59"/>
            <stop offset="0.665" stop-color="#125A83"/>
        </linearGradient>
    </defs>
</svg>
