<svg width="226" height="147" viewBox="0 0 226 147" fill="none" xmlns="http://www.w3.org/2000/svg">
    <path d="M166 1C160.083 17.2738 137.6 62.6572 95 114" stroke="#86171E" stroke-width="5" stroke-dasharray="15 15"/>
    <path d="M0.0496909 125.289C-0.783429 112.497 8.95873 101.454 21.8094 100.625L201.174 89.0495C214.024 88.2201 225.117 97.9181 225.95 110.711C226.783 123.503 217.041 134.546 204.191 135.375L24.8264 146.951C11.9757 147.78 0.88281 138.082 0.0496909 125.289Z" fill="#86171E"/>
    <path d="M23.5602 112.416L24.9369 133.554L19.7643 133.888L18.3877 112.75L23.5602 112.416Z" fill="#FEFBF7"/>
    <path d="M28.4884 112.098L33.7819 111.756L30.9196 120.045L27.441 120.269L28.4884 112.098Z" fill="#FEFBF7"/>
    <path d="M60.8682 110.008L62.2448 131.147L57.0723 131.48L56.2467 118.803L52.3233 131.787L48.1489 132.056L42.5421 119.658L43.3696 132.365L38.1971 132.699L36.8205 111.56L42.9307 111.166L49.8428 125.416L54.7882 110.401L60.8682 110.008Z" fill="#FEFBF7"/>
    <path d="M89.3892 108.168L90.7658 129.306L85.5933 129.64L85.0265 120.937L76.9804 121.457L77.5471 130.159L72.3746 130.493L70.9979 109.354L76.1705 109.021L76.7098 117.301L84.7559 116.782L84.2166 108.501L89.3892 108.168Z" fill="#FEFBF7"/>
    <path d="M104.556 128.628C102.56 128.756 100.695 128.413 98.9607 127.598C97.2469 126.781 95.8424 125.582 94.7471 123.999C93.6706 122.395 93.0651 120.56 92.9304 118.492C92.7957 116.424 93.1588 114.536 94.0195 112.828C94.9005 111.118 96.1377 109.748 97.7311 108.718C99.3447 107.686 101.15 107.106 103.146 106.977C105.143 106.849 106.998 107.192 108.711 108.009C110.445 108.825 111.84 110.025 112.895 111.61C113.97 113.193 114.575 115.019 114.709 117.087C114.844 119.154 114.482 121.052 113.622 122.781C112.762 124.49 111.534 125.859 109.941 126.889C108.348 127.919 106.553 128.499 104.556 128.628ZM104.25 123.93C105.944 123.821 107.259 123.172 108.194 121.982C109.149 120.792 109.566 119.273 109.446 117.426C109.325 115.559 108.714 114.107 107.613 113.069C106.532 112.01 105.144 111.535 103.45 111.645C101.736 111.755 100.401 112.396 99.4442 113.566C98.5078 114.735 98.101 116.264 98.2239 118.151C98.3455 120.017 98.9471 121.48 100.029 122.54C101.129 123.577 102.536 124.041 104.25 123.93Z" fill="#FEFBF7"/>
    <path d="M128.336 127.093C126.339 127.222 124.474 126.878 122.74 126.063C121.026 125.246 119.622 124.047 118.527 122.465C117.45 120.861 116.845 119.025 116.71 116.957C116.575 114.89 116.938 113.002 117.799 111.293C118.68 109.583 119.917 108.213 121.511 107.183C123.124 106.152 124.929 105.572 126.926 105.443C128.922 105.314 130.777 105.658 132.491 106.475C134.225 107.29 135.619 108.49 136.674 110.075C137.749 111.659 138.354 113.484 138.489 115.552C138.624 117.62 138.261 119.518 137.402 121.246C136.541 122.955 135.314 124.324 133.72 125.354C132.127 126.385 130.332 126.964 128.336 127.093ZM128.03 122.396C129.724 122.286 131.038 121.637 131.973 120.448C132.928 119.257 133.346 117.738 133.226 115.892C133.104 114.025 132.493 112.572 131.393 111.535C130.311 110.476 128.924 110.001 127.23 110.11C125.516 110.221 124.18 110.861 123.224 112.032C122.287 113.201 121.881 114.729 122.003 116.616C122.125 118.483 122.727 119.946 123.808 121.005C124.908 122.043 126.316 122.506 128.03 122.396Z" fill="#FEFBF7"/>
    <path d="M154.37 125.201L146.623 116.327L147.231 125.662L142.059 125.996L140.682 104.857L145.855 104.523L146.459 113.798L152.933 104.067L159.013 103.674L151.46 114.564L160.692 124.793L154.37 125.201Z" fill="#FEFBF7"/>
    <path d="M167.215 107.288L167.493 111.563L174.42 111.116L174.679 115.091L167.752 115.538L168.054 120.175L175.888 119.67L176.157 123.795L163.15 124.634L161.774 103.496L174.781 102.657L175.049 106.782L167.215 107.288Z" fill="#FEFBF7"/>
    <path d="M186.094 101.927C188.332 101.782 190.317 102.097 192.049 102.873C193.78 103.648 195.151 104.809 196.164 106.357C197.194 107.883 197.778 109.69 197.914 111.777C198.048 113.845 197.704 115.712 196.881 117.378C196.078 119.042 194.859 120.371 193.222 121.363C191.606 122.354 189.689 122.922 187.471 123.065L179.515 123.578L178.139 102.44L186.094 101.927ZM186.848 118.63C188.804 118.504 190.292 117.873 191.311 116.739C192.331 115.605 192.777 114.064 192.651 112.117C192.524 110.17 191.881 108.689 190.721 107.676C189.561 106.662 188.004 106.218 186.048 106.344L183.597 106.502L184.398 118.788L186.848 118.63Z" fill="#FEFBF7"/>
    <path d="M206.873 99.8296L207.207 114.292L202.821 114.575L201.277 100.191L206.873 99.8296ZM205.592 122.137C204.685 122.196 203.921 121.983 203.303 121.499C202.703 120.993 202.377 120.349 202.326 119.566C202.274 118.763 202.513 118.072 203.042 117.494C203.591 116.914 204.32 116.595 205.227 116.537C206.115 116.479 206.858 116.703 207.458 117.209C208.078 117.713 208.414 118.367 208.467 119.17C208.518 119.953 208.268 120.634 207.719 121.214C207.188 121.772 206.479 122.08 205.592 122.137Z" fill="#FEFBF7"/>
</svg>
