<svg width="259" height="199" viewBox="0 0 259 199" fill="none" xmlns="http://www.w3.org/2000/svg">
<path d="M200 8C200 12.4183 203.582 16 208 16C212.418 16 216 12.4183 216 8C216 3.58172 212.418 0 208 0C203.582 0 200 3.58172 200 8ZM137 121L138.154 121.958C139.355 120.51 140.54 119.068 141.709 117.63L140.546 116.684L139.382 115.737C138.219 117.167 137.04 118.602 135.846 120.042L137 121ZM147.507 107.951L148.689 108.875C151.027 105.882 153.295 102.917 155.493 99.9852L154.293 99.0853L153.093 98.1855C150.907 101.102 148.651 104.051 146.325 107.028L147.507 107.951ZM160.9 90.0874L162.118 90.963C164.345 87.8649 166.492 84.8115 168.558 81.8092L167.323 80.9588L166.087 80.1083C164.032 83.0939 161.897 86.1305 159.682 89.2118L160.9 90.0874ZM173.552 71.7028L174.805 72.5271C176.919 69.3129 178.936 66.17 180.856 63.1069L179.585 62.3102L178.314 61.5135C176.405 64.5582 174.401 67.6828 172.299 70.8785L173.552 71.7028ZM185.409 52.7786L186.698 53.5457C188.695 50.1896 190.564 46.9539 192.306 43.8524L190.998 43.1179L189.69 42.3833C187.96 45.463 186.104 48.6769 184.12 52.0116L185.409 52.7786ZM196.329 33.311L197.657 34.0083C199.545 30.4125 201.226 27.0645 202.705 23.9933L201.353 23.3426L200.002 22.6918C198.539 25.7304 196.873 29.0475 195.001 32.6138L196.329 33.311ZM205.955 13.186L207.338 13.7662C208.168 11.7874 208.858 10.0299 209.41 8.51253L208 8L206.59 7.48747C206.058 8.95101 205.387 10.6627 204.572 12.6058L205.955 13.186Z" fill="#86171E"/>
<rect x="53.3575" y="107.063" width="194.171" height="40" rx="20" transform="rotate(-3.70934 53.3575 107.063)" fill="#86171E"/>
<path d="M77.6552 115.744L78.836 133.958L74.3993 134.246L73.2185 116.032L77.6552 115.744ZM81.8822 115.47L86.4227 115.176L83.9676 122.318L80.9839 122.511L81.8822 115.47ZM109.656 113.67L110.837 131.883L106.4 132.171L105.692 121.248L102.326 132.435L98.7459 132.667L93.9367 121.984L94.6465 132.933L90.2098 133.221L89.029 115.007L94.27 114.667L100.199 126.945L104.441 114.008L109.656 113.67ZM134.119 112.084L135.3 130.297L130.863 130.585L130.377 123.087L123.476 123.534L123.962 131.033L119.525 131.32L118.344 113.106L122.781 112.819L123.244 119.954L130.145 119.506L129.683 112.371L134.119 112.084ZM147.129 129.713C145.416 129.824 143.816 129.528 142.329 128.826C140.859 128.122 139.655 127.088 138.715 125.725C137.792 124.343 137.272 122.761 137.157 120.98C137.041 119.198 137.353 117.571 138.091 116.099C138.847 114.626 139.908 113.445 141.275 112.558C142.659 111.669 144.207 111.169 145.919 111.058C147.632 110.947 149.223 111.243 150.693 111.947C152.18 112.65 153.376 113.684 154.281 115.05C155.203 116.414 155.722 117.987 155.838 119.769C155.953 121.55 155.642 123.186 154.905 124.675C154.167 126.148 153.114 127.327 151.747 128.215C150.381 129.103 148.841 129.602 147.129 129.713ZM146.866 125.665C148.319 125.571 149.447 125.012 150.249 123.987C151.068 122.961 151.426 121.653 151.323 120.061C151.219 118.453 150.695 117.201 149.751 116.307C148.823 115.395 147.633 114.985 146.18 115.08C144.71 115.175 143.564 115.727 142.744 116.735C141.941 117.743 141.592 119.06 141.697 120.685C141.802 122.294 142.318 123.555 143.245 124.467C144.189 125.361 145.396 125.761 146.866 125.665ZM167.525 128.391C165.813 128.502 164.213 128.206 162.726 127.503C161.256 126.8 160.051 125.766 159.112 124.403C158.188 123.021 157.669 121.439 157.553 119.657C157.438 117.876 157.749 116.249 158.488 114.777C159.243 113.304 160.304 112.123 161.671 111.235C163.055 110.347 164.603 109.847 166.316 109.736C168.028 109.625 169.619 109.921 171.089 110.625C172.577 111.327 173.773 112.362 174.678 113.727C175.6 115.092 176.119 116.665 176.234 118.446C176.35 120.228 176.039 121.864 175.302 123.353C174.563 124.825 173.511 126.005 172.144 126.893C170.777 127.78 169.238 128.28 167.525 128.391ZM167.263 124.343C168.716 124.249 169.843 123.689 170.645 122.665C171.465 121.639 171.823 120.33 171.72 118.739C171.615 117.13 171.091 115.879 170.148 114.985C169.22 114.072 168.03 113.663 166.577 113.757C165.106 113.853 163.961 114.405 163.141 115.413C162.337 116.421 161.988 117.737 162.094 119.363C162.198 120.972 162.714 122.232 163.642 123.145C164.586 124.039 165.793 124.438 167.263 124.343ZM189.856 126.761L183.211 119.114L183.733 127.158L179.296 127.445L178.115 109.231L182.552 108.944L183.07 116.935L188.623 108.55L193.838 108.212L187.36 117.595L195.279 126.409L189.856 126.761ZM200.873 111.325L201.112 115.01L207.054 114.625L207.276 118.049L201.334 118.435L201.593 122.43L208.313 121.994L208.544 125.549L197.387 126.272L196.206 108.059L207.363 107.335L207.593 110.89L200.873 111.325ZM217.067 106.706C218.987 106.582 220.689 106.853 222.174 107.521C223.659 108.189 224.836 109.19 225.704 110.523C226.588 111.838 227.089 113.395 227.205 115.194C227.321 116.976 227.026 118.584 226.32 120.019C225.631 121.454 224.585 122.598 223.181 123.454C221.795 124.308 220.15 124.797 218.248 124.92L211.424 125.362L210.243 107.149L217.067 106.706ZM217.713 121.098C219.391 120.99 220.667 120.447 221.542 119.469C222.417 118.492 222.8 117.164 222.691 115.487C222.582 113.809 222.03 112.533 221.036 111.66C220.041 110.786 218.705 110.404 217.027 110.513L214.926 110.649L215.612 121.235L217.713 121.098ZM232.364 124.213C231.586 124.264 230.931 124.08 230.401 123.663C229.886 123.227 229.607 122.672 229.563 121.998C229.518 121.306 229.723 120.711 230.177 120.212C230.648 119.713 231.273 119.438 232.051 119.387C232.812 119.338 233.45 119.531 233.965 119.967C234.497 120.401 234.785 120.964 234.83 121.656C234.874 122.331 234.66 122.918 234.189 123.417C233.733 123.899 233.125 124.164 232.364 124.213Z" fill="#FEFBF7"/>
</svg>
