<svg width="388" height="249" viewBox="0 0 388 249" fill="none" xmlns="http://www.w3.org/2000/svg">
    <path d="M300 0C300 93 278.565 113.059 213 155" stroke="#86171E" stroke-width="5" stroke-dasharray="15 15"/>
    <path d="M0.213318 175.552C2.27472 157.284 18.7279 144.148 36.9625 146.214L358.503 182.631C376.737 184.696 389.848 201.18 387.787 219.448C385.725 237.716 369.272 250.852 351.038 248.786L29.4975 212.369C11.2629 210.304 -1.84809 193.82 0.213318 175.552Z" fill="#86171E"/>
    <path d="M72.8039 169.17L69.3976 199.357L62.058 198.525L65.4643 168.339L72.8039 169.17Z" fill="#FEFBF7"/>
    <path d="M79.7967 169.962L87.308 170.813L81.2004 181.792L76.2644 181.233L79.7967 169.962Z" fill="#FEFBF7"/>
    <path d="M125.742 175.166L122.336 205.352L114.996 204.521L117.039 186.418L108.258 203.758L102.335 203.087L97.6006 184.173L95.553 202.319L88.2134 201.488L91.6197 171.301L100.29 172.283L106.387 194.139L117.115 174.189L125.742 175.166Z" fill="#FEFBF7"/>
    <path d="M166.212 179.749L162.806 209.936L155.467 209.105L156.869 196.677L145.452 195.384L144.049 207.812L136.71 206.98L140.116 176.794L147.456 177.625L146.121 189.45L157.538 190.743L158.873 178.918L166.212 179.749Z" fill="#FEFBF7"/>
    <path d="M182.321 212.451C179.488 212.13 176.958 211.176 174.732 209.588C172.535 208.004 170.867 205.957 169.73 203.447C168.626 200.912 168.24 198.168 168.573 195.216C168.906 192.263 169.892 189.689 171.531 187.494C173.198 185.302 175.279 183.68 177.775 182.627C180.298 181.577 182.977 181.212 185.809 181.533C188.642 181.854 191.157 182.807 193.355 184.391C195.581 185.979 197.234 188.024 198.314 190.527C199.422 193.034 199.81 195.763 199.476 198.716C199.143 201.669 198.156 204.257 196.514 206.481C194.875 208.676 192.808 210.3 190.313 211.353C187.818 212.406 185.154 212.772 182.321 212.451ZM183.078 205.743C185.481 206.015 187.489 205.43 189.101 203.986C190.741 202.546 191.71 200.507 192.008 197.87C192.309 195.204 191.819 193 190.537 191.258C189.288 189.49 187.461 188.471 185.057 188.198C182.625 187.923 180.59 188.491 178.953 189.902C177.344 191.317 176.388 193.372 176.084 196.066C175.783 198.733 176.258 200.949 177.507 202.717C178.789 204.459 180.645 205.467 183.078 205.743Z" fill="#FEFBF7"/>
    <path d="M216.063 216.273C213.23 215.952 210.7 214.997 208.474 213.41C206.277 211.825 204.609 209.778 203.473 207.269C202.368 204.734 201.982 201.99 202.315 199.037C202.648 196.085 203.634 193.511 205.273 191.315C206.94 189.124 209.021 187.501 211.517 186.448C214.04 185.398 216.719 185.034 219.552 185.355C222.384 185.676 224.9 186.628 227.097 188.213C229.323 189.8 230.976 191.846 232.056 194.349C233.164 196.855 233.552 199.585 233.219 202.537C232.885 205.49 231.898 208.078 230.256 210.302C228.617 212.497 226.55 214.121 224.055 215.174C221.56 216.227 218.896 216.593 216.063 216.273ZM216.82 209.564C219.223 209.837 221.231 209.251 222.843 207.808C224.483 206.368 225.453 204.329 225.75 201.692C226.051 199.025 225.561 196.821 224.279 195.079C223.03 193.312 221.203 192.292 218.799 192.02C216.367 191.745 214.333 192.312 212.695 193.724C211.087 195.139 210.13 197.193 209.826 199.888C209.525 202.554 210 204.771 211.249 206.538C212.531 208.28 214.388 209.289 216.82 209.564Z" fill="#FEFBF7"/>
    <path d="M253.058 220.158L244.433 205.68L242.928 219.01L235.589 218.179L238.995 187.992L246.335 188.824L244.84 202.068L256.378 189.961L265.006 190.938L251.662 204.408L262.029 221.174L253.058 220.158Z" fill="#FEFBF7"/>
    <path d="M275.598 198.104L274.909 204.211L284.738 205.324L284.097 211L274.268 209.887L273.521 216.509L284.638 217.768L283.973 223.659L265.517 221.569L268.923 191.382L287.379 193.472L286.715 199.364L275.598 198.104Z" fill="#FEFBF7"/>
    <path d="M303.433 195.291C306.609 195.65 309.313 196.595 311.546 198.126C313.779 199.656 315.409 201.641 316.438 204.08C317.499 206.494 317.861 209.191 317.525 212.173C317.192 215.126 316.237 217.674 314.662 219.818C313.116 221.966 311.07 223.534 308.524 224.523C306.006 225.516 303.174 225.834 300.026 225.477L288.738 224.199L292.144 194.012L303.433 195.291ZM300.272 219.06C303.048 219.374 305.294 218.859 307.011 217.515C308.727 216.17 309.743 214.108 310.056 211.327C310.37 208.546 309.842 206.294 308.471 204.571C307.101 202.848 305.028 201.83 302.252 201.515L298.775 201.121L296.796 218.666L300.272 219.06Z" fill="#FEFBF7"/>
    <path d="M333.108 197.563L329.926 218.063L323.702 217.358L325.168 196.663L333.108 197.563ZM325.679 228.731C324.391 228.585 323.375 228.093 322.629 227.253C321.915 226.389 321.621 225.397 321.747 224.279C321.877 223.132 322.386 222.217 323.274 221.534C324.191 220.854 325.294 220.587 326.581 220.733C327.84 220.875 328.827 221.379 329.541 222.244C330.283 223.112 330.59 224.119 330.46 225.266C330.334 226.384 329.813 227.283 328.895 227.963C328.01 228.618 326.938 228.874 325.679 228.731Z" fill="#FEFBF7"/>
</svg>
