<svg width="196" height="149" viewBox="0 0 196 149" fill="none" xmlns="http://www.w3.org/2000/svg">
    <path d="M3.02701 1C1.86034 38.8333 38.6527 88.3 81.0527 97.5" stroke="#86171E" stroke-width="5" stroke-dasharray="15 15"/>
    <path d="M59.347 105.098C61.6346 91.3437 74.6063 82.0537 88.32 84.3481L174.964 98.8438C188.678 101.138 197.941 114.148 195.653 127.902C193.365 141.656 180.394 150.946 166.68 148.652L80.0359 134.156C66.3221 131.862 57.0594 118.852 59.347 105.098Z" fill="#86171E"/>
    <path d="M86.4729 97.1341L82.6929 119.862L77.1729 118.938L80.953 96.2106L86.4729 97.1341Z" fill="#FEFBF7"/>
    <path d="M91.732 98.014L97.3811 98.9591L92.3226 107.031L88.6104 106.41L91.732 98.014Z" fill="#FEFBF7"/>
    <path d="M126.286 103.795L122.506 126.522L116.987 125.599L119.253 111.969L111.919 124.751L107.464 124.006L104.636 109.49L102.364 123.153L96.8437 122.229L100.624 99.5016L107.144 100.593L110.887 117.391L119.798 102.71L126.286 103.795Z" fill="#FEFBF7"/>
    <path d="M142.616 106.527L138.836 129.255L133.316 128.331L137.097 105.604L142.616 106.527Z" fill="#FEFBF7"/>
    <path d="M163.109 133.315L157.589 132.392L150.688 116.829L148.357 130.847L142.837 129.924L146.617 107.196L152.137 108.12L159.026 123.748L161.369 109.664L166.889 110.588L163.109 133.315Z" fill="#FEFBF7"/>
    <path d="M178.288 111.663L175.063 127.063L170.382 126.28L172.316 110.664L178.288 111.663ZM171.425 134.973C170.456 134.811 169.707 134.397 169.176 133.731C168.67 133.048 168.487 132.285 168.627 131.443C168.771 130.58 169.193 129.907 169.892 129.425C170.613 128.947 171.458 128.789 172.426 128.951C173.373 129.109 174.099 129.53 174.605 130.214C175.132 130.901 175.324 131.676 175.18 132.54C175.04 133.381 174.61 134.042 173.889 134.52C173.193 134.98 172.371 135.131 171.425 134.973Z" fill="#FEFBF7"/>
</svg>
