<svg width="352" height="378" viewBox="0 0 352 378" fill="none" xmlns="http://www.w3.org/2000/svg">
    <path d="M5.50039 0.5C-8.49902 105 28.5004 205 169 269" stroke="#FA4238" stroke-width="5" stroke-dasharray="15 15"/>
    <path d="M21.5923 340.026C16.1463 314.516 32.4109 289.422 57.9203 283.976L294.83 233.399C320.339 227.953 345.433 244.217 350.879 269.727C356.325 295.236 340.061 320.33 314.551 325.776L77.6419 376.354C52.1325 381.8 27.0383 365.535 21.5923 340.026Z" fill="#FA4238"/>
    <path d="M98.3929 303.143L107.392 345.295L97.1241 347.487L88.1251 305.335L98.3929 303.143Z" fill="#FEFBF7"/>
    <path d="M108.176 301.054L118.684 298.811L115.394 316.339L108.489 317.813L108.176 301.054Z" fill="#FEFBF7"/>
    <path d="M172.451 287.332L181.45 329.484L171.183 331.676L165.786 306.397L161.755 333.688L153.469 335.458L138.572 312.144L143.982 337.483L133.714 339.675L124.715 297.523L136.844 294.934L154.903 321.59L160.382 289.909L172.451 287.332Z" fill="#FEFBF7"/>
    <path d="M202.827 280.847L211.826 322.999L201.559 325.191L192.56 283.039L202.827 280.847Z" fill="#FEFBF7"/>
    <path d="M256.976 313.36L246.708 315.552L223.984 293.219L229.535 319.218L219.267 321.41L210.268 279.258L220.536 277.066L243.285 299.52L237.709 273.4L247.977 271.208L256.976 313.36Z" fill="#FEFBF7"/>
    <path d="M268.609 265.234L273.549 294.252L264.842 296.111L257.501 267.605L268.609 265.234ZM272.627 310.521C270.826 310.905 269.234 310.701 267.851 309.908C266.499 309.067 265.657 307.865 265.323 306.304C264.981 304.703 265.256 303.242 266.146 301.922C267.076 300.594 268.442 299.737 270.243 299.352C272.004 298.976 273.561 299.209 274.912 300.051C276.304 300.884 277.171 302.101 277.512 303.702C277.846 305.263 277.547 306.708 276.617 308.037C275.719 309.317 274.389 310.145 272.627 310.521Z" fill="#FEFBF7"/>
</svg>
