
<svg width="307" height="109" viewBox="0 0 307 109" fill="none" xmlns="http://www.w3.org/2000/svg">
    <rect x="197.098" y="31.791" width="109.787" height="40" rx="20" transform="rotate(9.47034 197.098 31.791)" fill="#86171E"/>
    <path d="M215.36 45.2108L212.356 63.214L207.971 62.4825L210.974 44.4793L215.36 45.2108ZM219.538 45.9078L224.026 46.6564L220.007 53.0503L217.058 52.5584L219.538 45.9078ZM246.99 50.4871L243.987 68.4904L239.602 67.7588L241.403 56.962L235.575 67.0872L232.036 66.4968L229.79 54.9985L227.984 65.8209L223.599 65.0894L226.602 47.0862L231.782 47.9503L234.755 61.2568L241.835 49.6273L246.99 50.4871ZM259.964 52.6513L256.961 70.6545L252.575 69.923L255.579 51.9198L259.964 52.6513ZM276.244 73.8712L271.859 73.1397L266.377 60.8116L264.524 71.9162L260.139 71.1847L263.142 53.1814L267.527 53.9129L273.001 66.2923L274.862 55.1364L279.247 55.868L276.244 73.8712ZM288.304 56.7196L285.741 68.9184L282.023 68.298L283.559 55.9282L288.304 56.7196ZM282.851 75.1842C282.082 75.0558 281.486 74.7281 281.065 74.2008C280.663 73.6593 280.518 73.0552 280.629 72.3884C280.743 71.7045 281.078 71.1717 281.634 70.79C282.206 70.411 282.877 70.2858 283.647 70.4141C284.399 70.5396 284.976 70.8731 285.378 71.4145C285.797 71.9589 285.949 72.573 285.835 73.2569C285.724 73.9236 285.382 74.4465 284.809 74.8254C284.256 75.1901 283.603 75.3097 282.851 75.1842Z" fill="#FEFBF7"/>
    <path d="M31 53.5012C55.3333 46.0012 122.2 35.5012 195 53.5012" stroke="#86171E" stroke-width="3" stroke-dasharray="12 12"/>
</svg>
