<svg width="310" height="117" viewBox="0 0 310 117" fill="none" xmlns="http://www.w3.org/2000/svg">
<rect x="19.5334" y="20.909" width="286.302" height="40" rx="20" transform="rotate(3.5026 19.5334 20.909)" fill="#86171E"/>
<path d="M63.2957 33.8382L57.4315 51.7655L52.0595 51.4366L49.8868 39.2692L46.1426 51.0745L40.7707 50.7457L37.2664 32.245L42.0155 32.5357L43.8249 45.9573L47.8805 32.8947L52.7594 33.1933L55.0619 46.6451L58.5206 33.546L63.2957 33.8382ZM81.2997 34.9402L80.1846 53.1581L75.7469 52.8865L76.206 45.3865L69.3029 44.964L68.8438 52.464L64.4061 52.1924L65.5212 33.9745L69.9589 34.2461L69.5221 41.3827L76.4252 41.8052L76.862 34.6686L81.2997 34.9402ZM94.9259 50.8304L88.1267 50.4142L86.8397 53.5655L82.1944 53.2812L89.9012 35.4667L95.0396 35.7812L100.516 54.4026L95.8189 54.1151L94.9259 50.8304ZM93.9937 47.3349L92.1442 40.5272L89.5042 47.0601L93.9937 47.3349ZM116.743 37.1096L116.525 40.665L111.698 40.3695L110.801 55.0321L106.363 54.7605L107.261 40.0979L102.434 39.8025L102.651 36.2471L116.743 37.1096ZM119.982 37.3079L124.524 37.5859L121.191 44.363L118.207 44.1803L119.982 37.3079ZM132.596 56.5485C131.264 56.4669 130.083 56.1776 129.054 55.6805C128.026 55.1834 127.217 54.4913 126.629 53.6044C126.058 52.7185 125.792 51.6777 125.83 50.4818L130.553 50.7709C130.581 51.4499 130.783 51.9832 131.159 52.3709C131.535 52.7412 132.044 52.946 132.684 52.9852C133.341 53.0254 133.869 52.9101 134.268 52.6393C134.668 52.3512 134.884 51.939 134.917 51.4027C134.944 50.9528 134.811 50.5713 134.518 50.2581C134.242 49.946 133.885 49.681 133.446 49.4632C133.026 49.2464 132.416 48.992 131.618 48.7001C130.463 48.2647 129.525 47.8426 128.804 47.4338C128.082 47.0249 127.475 46.4494 126.982 45.7072C126.489 44.9651 126.277 44.0231 126.347 42.8812C126.451 41.1857 127.146 39.8998 128.433 39.0234C129.721 38.1297 131.351 37.7433 133.323 37.864C135.33 37.9868 136.918 38.5703 138.087 39.6143C139.257 40.641 139.833 42.0135 139.815 43.7315L135.014 43.4377C135.015 42.8473 134.827 42.3756 134.449 42.0225C134.072 41.6522 133.572 41.4479 132.95 41.4098C132.413 41.377 131.972 41.4976 131.625 41.7716C131.279 42.0282 131.09 42.4248 131.057 42.9611C131.021 43.5493 131.27 44.0247 131.803 44.3873C132.337 44.75 133.18 45.1576 134.334 45.6102C135.486 46.0801 136.414 46.519 137.118 46.9268C137.84 47.3356 138.448 47.9025 138.942 48.6274C139.436 49.3522 139.649 50.2597 139.583 51.3496C139.519 52.3877 139.193 53.3142 138.605 54.1291C138.034 54.9451 137.232 55.5732 136.197 56.0135C135.163 56.4538 133.963 56.6321 132.596 56.5485ZM153.034 39.331L151.919 57.5489L147.481 57.2772L148.596 39.0593L153.034 39.331ZM171.432 58.7432L166.995 58.4716L160.26 46.7804L159.572 58.0173L155.135 57.7457L156.25 39.5278L160.688 39.7994L167.419 51.5426L168.11 40.2537L172.547 40.5253L171.432 58.7432ZM192.866 41.769L185.289 59.5914L179.736 59.2515L174.389 40.638L179.112 40.9271L182.786 54.9578L188.169 41.4815L192.866 41.769ZM202.211 60.8095C200.498 60.7046 198.948 60.2103 197.56 59.3266C196.19 58.4439 195.125 57.2673 194.364 55.7967C193.622 54.3099 193.305 52.6755 193.414 50.8935C193.523 49.1115 194.036 47.5366 194.953 46.1687C195.888 44.802 197.089 43.7641 198.556 43.0551C200.041 42.3471 201.64 42.0455 203.353 42.1504C205.065 42.2552 206.607 42.749 207.977 43.6317C209.364 44.5154 210.421 45.6915 211.147 47.1599C211.891 48.6294 212.208 50.2552 212.099 52.0372C211.99 53.8192 211.476 55.4028 210.558 56.7879C209.641 58.1558 208.448 59.1942 206.981 59.9032C205.513 60.6122 203.923 60.9143 202.211 60.8095ZM202.458 56.761C203.912 56.85 205.1 56.4365 206.025 55.5206C206.966 54.6058 207.486 53.3525 207.583 51.7608C207.682 50.1518 207.319 48.8445 206.495 47.839C205.689 46.8172 204.56 46.2618 203.106 46.1729C201.636 46.0828 200.43 46.4866 199.49 47.3842C198.566 48.2828 198.055 49.5452 197.955 51.1715C197.857 52.7805 198.211 54.0959 199.016 55.1177C199.84 56.1232 200.988 56.671 202.458 56.761ZM218.654 58.1952L224.468 58.551L224.258 61.9766L214.007 61.3492L215.122 43.1313L219.56 43.4029L218.654 58.1952ZM244.592 44.935L237.015 62.7574L231.461 62.4175L226.114 43.8041L230.837 44.0932L234.511 58.1238L239.894 44.6475L244.592 44.935ZM250.666 48.8755L250.441 52.5606L256.384 52.9244L256.174 56.35L250.231 55.9862L249.987 59.9827L256.708 60.3941L256.49 63.9495L245.331 63.2665L246.446 45.0486L257.605 45.7316L257.388 49.2869L250.666 48.8755ZM267.312 46.3257C269.232 46.4432 270.887 46.9266 272.276 47.7757C273.666 48.6248 274.707 49.7653 275.401 51.197C276.113 52.6125 276.414 54.2199 276.304 56.0192C276.195 57.8012 275.7 59.3599 274.82 60.6952C273.957 62.0317 272.775 63.036 271.275 63.7083C269.793 64.3816 268.1 64.6601 266.197 64.5436L259.371 64.1258L260.486 45.9079L267.312 46.3257ZM266.146 60.6853C267.824 60.788 269.159 60.4095 270.149 59.5497C271.139 58.69 271.686 57.421 271.789 55.7428C271.891 54.0646 271.504 52.7298 270.627 51.7384C269.75 50.7469 268.472 50.1998 266.794 50.0971L264.692 49.9685L264.044 60.5566L266.146 60.6853ZM284.724 46.3756C286.575 46.4889 288.025 47.0638 289.073 48.1005C290.138 49.1381 290.616 50.5393 290.508 52.304C290.409 53.9303 289.795 55.1691 288.666 56.0204C287.555 56.8555 286.126 57.2282 284.378 57.1385L284.129 59.0769L280.236 58.8387L280.402 54.0037L281.959 54.0991C283.291 54.1806 284.313 54.0782 285.025 53.7918C285.755 53.5065 286.146 52.9314 286.199 52.0663C286.236 51.4608 286.101 50.9749 285.793 50.6088C285.486 50.2427 285.038 50.0416 284.449 50.0056C283.827 49.9675 283.331 50.1195 282.963 50.4616C282.596 50.7864 282.394 51.2516 282.356 51.8572L278.178 51.6014C278.208 50.5439 278.483 49.6056 279.002 48.7865C279.538 47.9684 280.288 47.3457 281.252 46.9185C282.234 46.475 283.392 46.294 284.724 46.3756ZM281.821 65.7083C281.043 65.6607 280.416 65.3966 279.942 64.9161C279.486 64.4193 279.279 63.8335 279.32 63.1588C279.363 62.4667 279.64 61.902 280.153 61.4645C280.684 61.0281 281.338 60.8337 282.117 60.8814C282.878 60.928 283.486 61.1997 283.942 61.6964C284.415 62.1943 284.631 62.7892 284.588 63.4812C284.547 64.156 284.261 64.7116 283.731 65.148C283.219 65.5681 282.582 65.7549 281.821 65.7083Z" fill="#FEFBF7"/>
</svg>
