<svg width="342" height="66" viewBox="0 0 342 66" fill="none" xmlns="http://www.w3.org/2000/svg">
    <path d="M0.045482 22.5145C0.852881 9.2962 12.2009 -0.763494 25.3919 0.045576L319.532 18.0866C332.723 18.8957 342.762 30.2671 341.954 43.4855C341.147 56.7038 329.799 66.7635 316.608 65.9544L22.468 47.9134C9.27696 47.1043 -0.761917 35.7329 0.045482 22.5145Z" fill="#86171E"/>
    <path d="M53.8675 14.0819L46.8513 35.5754L40.424 35.1812L37.8244 20.5932L33.3446 34.747L26.9173 34.3528L22.7246 12.1717L28.4067 12.5202L30.5716 28.6119L35.4239 12.9506L41.2613 13.3087L44.0161 29.4365L48.1544 13.7314L53.8675 14.0819Z" fill="#FEFBF7"/>
    <path d="M75.4086 15.4031L74.0744 37.2451L68.7649 36.9195L69.3142 27.9275L61.0549 27.4209L60.5057 36.4129L55.1961 36.0873L56.5303 14.2452L61.8398 14.5708L61.3172 23.1272L69.5764 23.6338L70.0991 15.0774L75.4086 15.4031Z" fill="#FEFBF7"/>
    <path d="M91.7118 34.4543L83.5768 33.9554L82.037 37.7335L76.4791 37.3926L85.6999 16.0343L91.8478 16.4114L98.4003 38.7372L92.7802 38.3925L91.7118 34.4543ZM90.5965 30.2635L88.3836 22.1015L85.2249 29.934L90.5965 30.2635Z" fill="#FEFBF7"/>
    <path d="M117.815 18.0041L117.554 22.2667L111.779 21.9125L110.705 39.4919L105.396 39.1662L106.47 21.5868L100.694 21.2326L100.955 16.9699L117.815 18.0041Z" fill="#FEFBF7"/>
    <path d="M121.691 18.2418L127.124 18.575L123.137 26.7003L119.567 26.4813L121.691 18.2418Z" fill="#FEFBF7"/>
    <path d="M136.782 41.31C135.189 41.2122 133.776 40.8653 132.545 40.2693C131.314 39.6733 130.347 38.8436 129.643 37.7802C128.96 36.7181 128.641 35.4702 128.687 34.0364L134.338 34.383C134.372 35.197 134.613 35.8365 135.063 36.3013C135.513 36.7453 136.122 36.9908 136.888 37.0378C137.674 37.086 138.306 36.9478 138.783 36.6231C139.261 36.2777 139.52 35.7835 139.559 35.1404C139.592 34.6011 139.433 34.1437 139.082 33.7683C138.752 33.394 138.324 33.0764 137.8 32.8152C137.296 32.5553 136.567 32.2503 135.612 31.9002C134.231 31.3783 133.109 30.8722 132.245 30.382C131.382 29.8918 130.655 29.2018 130.065 28.312C129.476 27.4222 129.223 26.2928 129.306 24.9238C129.43 22.891 130.262 21.3492 131.801 20.2985C133.342 19.2271 135.292 18.7637 137.652 18.9085C140.053 19.0557 141.953 19.7552 143.352 21.007C144.752 22.238 145.441 23.8834 145.419 25.9433L139.675 25.591C139.677 24.8832 139.451 24.3176 138.999 23.8943C138.549 23.4503 137.951 23.2054 137.205 23.1597C136.564 23.1203 136.036 23.2649 135.621 23.5934C135.207 23.9011 134.981 24.3765 134.941 25.0196C134.898 25.7248 135.196 26.2948 135.834 26.7295C136.473 27.1643 137.482 27.653 138.861 28.1957C140.24 28.7591 141.35 29.2853 142.193 29.7742C143.057 30.2644 143.784 30.944 144.375 31.8131C144.966 32.6821 145.222 33.7701 145.142 35.0769C145.066 36.3214 144.676 37.4322 143.972 38.4092C143.289 39.3876 142.329 40.1407 141.091 40.6686C139.854 41.1965 138.418 41.4103 136.782 41.31Z" fill="#FEFBF7"/>
    <path d="M161.236 20.6673L159.901 42.5093L154.592 42.1837L155.926 20.3416L161.236 20.6673Z" fill="#FEFBF7"/>
    <path d="M183.248 43.9413L177.939 43.6157L169.882 29.5986L169.059 43.071L163.749 42.7453L165.083 20.9033L170.393 21.2289L178.446 35.3082L179.273 21.7736L184.583 22.0992L183.248 43.9413Z" fill="#FEFBF7"/>
    <path d="M208.893 23.5903L199.828 44.9582L193.183 44.5507L186.786 22.2344L192.437 22.581L196.832 39.4028L203.273 23.2456L208.893 23.5903Z" fill="#FEFBF7"/>
    <path d="M220.073 46.4186C218.024 46.2929 216.17 45.7003 214.51 44.6407C212.871 43.5825 211.596 42.1718 210.685 40.4087C209.797 38.6261 209.418 36.6665 209.549 34.53C209.679 32.3935 210.293 30.5053 211.391 28.8653C212.509 27.2266 213.946 25.9823 215.701 25.1322C217.478 24.2834 219.391 23.9219 221.44 24.0476C223.489 24.1733 225.333 24.7652 226.972 25.8235C228.632 26.8831 229.897 28.2931 230.766 30.0537C231.655 31.8155 232.035 33.7647 231.904 35.9012C231.774 38.0377 231.159 39.9363 230.061 41.597C228.963 43.237 227.536 44.482 225.781 45.332C224.025 46.1821 222.123 46.5443 220.073 46.4186ZM220.37 41.5648C222.109 41.6714 223.531 41.1757 224.637 40.0776C225.764 38.9808 226.385 37.4782 226.502 35.5698C226.62 33.6408 226.185 32.0734 225.199 30.8678C224.235 29.6428 222.884 28.9769 221.145 28.8703C219.386 28.7623 217.943 29.2464 216.818 30.3225C215.713 31.3999 215.101 32.9135 214.982 34.8633C214.864 36.7924 215.288 38.3694 216.252 39.5945C217.238 40.8001 218.61 41.4569 220.37 41.5648Z" fill="#FEFBF7"/>
    <path d="M239.748 43.2843L246.703 43.7109L246.452 47.8179L234.187 47.0657L235.522 25.2236L240.831 25.5492L239.748 43.2843Z" fill="#FEFBF7"/>
    <path d="M270.781 27.3862L261.715 48.7541L255.07 48.3465L248.673 26.0302L254.324 26.3768L258.72 43.1987L265.161 27.0415L270.781 27.3862Z" fill="#FEFBF7"/>
    <path d="M278.049 32.1106L277.779 36.5288L284.889 36.9649L284.638 41.072L277.528 40.6358L277.235 45.4274L285.277 45.9207L285.017 50.1833L271.665 49.3644L273 27.5223L286.351 28.3412L286.091 32.6038L278.049 32.1106Z" fill="#FEFBF7"/>
    <path d="M297.964 29.0535C300.262 29.1944 302.242 29.7739 303.904 30.792C305.567 31.81 306.813 33.1773 307.643 34.8939C308.495 36.591 308.855 38.5181 308.723 40.6754C308.593 42.8119 308.001 44.6806 306.947 46.2816C305.914 47.8839 304.501 49.0881 302.706 49.8941C300.932 50.7014 298.907 51.0352 296.63 50.8956L288.464 50.3947L289.798 28.5526L297.964 29.0535ZM296.57 46.2697C298.578 46.3929 300.174 45.9391 301.359 44.9083C302.544 43.8775 303.198 42.356 303.321 40.344C303.444 38.332 302.98 36.7316 301.931 35.5429C300.882 34.3543 299.353 33.6983 297.345 33.5752L294.83 33.4209L294.055 46.1155L296.57 46.2697Z" fill="#FEFBF7"/>
    <path d="M318.797 29.1133C321.012 29.2491 322.746 29.9385 324 31.1813C325.275 32.4254 325.847 34.1054 325.718 36.2211C325.599 38.171 324.864 39.6562 323.514 40.6768C322.185 41.678 320.475 42.1248 318.383 42.0174L318.085 44.3414L313.428 44.0557L313.626 38.259L315.489 38.3732C317.083 38.471 318.306 38.3482 319.158 38.0049C320.031 37.6628 320.499 36.9733 320.562 35.9361C320.606 35.2101 320.444 34.6276 320.076 34.1887C319.709 33.7497 319.173 33.5086 318.469 33.4654C317.724 33.4197 317.131 33.602 316.69 34.0122C316.251 34.4016 316.009 34.9594 315.965 35.6854L310.966 35.3788C311.001 34.1109 311.33 32.9859 311.951 32.0038C312.593 31.023 313.49 30.2764 314.643 29.7642C315.819 29.2325 317.203 29.0155 318.797 29.1133ZM315.324 52.292C314.393 52.2349 313.643 51.9183 313.076 51.3421C312.531 50.7465 312.283 50.0442 312.332 49.2353C312.383 48.4056 312.715 47.7285 313.329 47.204C313.963 46.6807 314.746 46.4477 315.678 46.5048C316.589 46.5607 317.317 46.8864 317.862 47.482C318.428 48.0789 318.686 48.7922 318.635 49.6219C318.586 50.4308 318.244 51.0969 317.609 51.6202C316.997 52.1239 316.235 52.3479 315.324 52.292Z" fill="#FEFBF7"/>
</svg>
