<svg width="238" height="97" viewBox="0 0 238 97" fill="none" xmlns="http://www.w3.org/2000/svg">
    <path d="M9.61766 0H147L136.95 63H0L9.61766 0Z" fill="url(#paint0_linear_5979_837)"/>
    <path d="M49.4144 55H238L229.631 97H41L49.4144 55Z" fill="url(#paint1_linear_5979_837)"/>
    <path d="M110.854 23.1743L110.162 27.2381H120.321L118.935 34.9499H108.776L107.945 39.5678H119.49L118.058 47.7414H96.2617L102.034 15.0469H123.83L122.399 23.1743H110.854Z" fill="white"/>
    <path d="M96.2523 15.0469L94.8208 23.1743H81.9831L81.1981 27.6999H90.4338L89.0485 35.4117H79.8127L77.6423 47.7414H67.3906L73.163 15.0469H96.2523Z" fill="white"/>
    <path d="M66.2252 15.0469L60.4529 47.7414H50.2012L55.9735 15.0469H66.2252Z" fill="white"/>
    <path d="M36.1683 39.9834H46.0506L44.6652 47.7414H24.5312L30.3036 15.0469H40.5553L36.1683 39.9834Z" fill="white"/>
    <path d="M197.418 77.3945C197.774 75.3406 198.534 73.5137 199.699 71.914C200.884 70.2946 202.355 69.0405 204.113 68.1518C205.871 67.2433 207.777 66.7891 209.831 66.7891C212.319 66.7891 214.314 67.3914 215.815 68.5961C217.335 69.8008 218.165 71.4697 218.303 73.6026H212.734C212.477 72.9114 212.023 72.388 211.371 72.0325C210.739 71.6573 209.959 71.4697 209.031 71.4697C207.392 71.4697 205.979 72.0128 204.794 73.099C203.629 74.1655 202.889 75.5973 202.573 77.3945C202.474 77.987 202.425 78.5005 202.425 78.9349C202.425 80.3964 202.849 81.5221 203.698 82.3121C204.548 83.1021 205.752 83.4971 207.313 83.4971C208.576 83.4971 209.692 83.1811 210.66 82.5491C211.628 81.8974 212.408 80.979 213 79.794H206.602L207.224 76.091H218.244L217.414 80.8013C216.822 82.0652 215.973 83.2403 214.867 84.3265C213.78 85.4128 212.487 86.2916 210.986 86.9631C209.485 87.6346 207.865 87.9703 206.128 87.9703C204.33 87.9703 202.75 87.6247 201.388 86.9335C200.045 86.2225 199.008 85.235 198.277 83.971C197.566 82.7071 197.211 81.2358 197.211 79.5571C197.211 78.9843 197.28 78.2635 197.418 77.3945Z" fill="white"/>
    <path d="M192.739 87.8196H187.673L181.482 74.9923L179.2 87.8196H174.135L177.808 67.0234H182.874L189.065 79.9099L191.346 67.0234H196.412L192.739 87.8196Z" fill="white"/>
    <path d="M174.138 67.0234L170.464 87.8196H165.398L169.072 67.0234H174.138Z" fill="white"/>
    <path d="M143.84 77.3945C144.196 75.3406 144.956 73.5137 146.121 71.914C147.306 70.2946 148.778 69.0405 150.535 68.1518C152.293 67.2433 154.199 66.7891 156.253 66.7891C158.741 66.7891 160.736 67.3914 162.237 68.5961C163.757 69.8008 164.587 71.4697 164.725 73.6026H159.156C158.899 72.9114 158.445 72.388 157.793 72.0325C157.161 71.6573 156.381 71.4697 155.453 71.4697C153.814 71.4697 152.402 72.0128 151.217 73.099C150.051 74.1655 149.311 75.5973 148.995 77.3945C148.896 77.987 148.847 78.5005 148.847 78.9349C148.847 80.3964 149.271 81.5221 150.12 82.3121C150.97 83.1021 152.174 83.4971 153.735 83.4971C154.999 83.4971 156.114 83.1811 157.082 82.5491C158.05 81.8974 158.83 80.979 159.422 79.794H153.024L153.646 76.091H164.666L163.836 80.8013C163.244 82.0652 162.395 83.2403 161.289 84.3265C160.203 85.4128 158.909 86.2916 157.408 86.9631C155.907 87.6346 154.288 87.9703 152.55 87.9703C150.752 87.9703 149.173 87.6247 147.81 86.9335C146.467 86.2225 145.43 85.235 144.699 83.971C143.988 82.7071 143.633 81.2358 143.633 79.5571C143.633 78.9843 143.702 78.2635 143.84 77.3945Z" fill="white"/>
    <path d="M139.161 87.8196H134.095L127.903 74.9923L125.622 87.8196H120.557L124.23 67.0234H129.296L135.487 79.9099L137.768 67.0234H142.834L139.161 87.8196Z" fill="white"/>
    <path d="M112.312 84.1462H104.55L102.654 87.8196H97.3516L108.549 67.0234H114.415L118.266 87.8196H112.904L112.312 84.1462ZM111.719 80.295L110.505 72.5928L106.535 80.295H111.719Z" fill="white"/>
    <path d="M98.7317 67.0234L95.0583 87.8196H89.9926L91.5034 79.1989H83.6234L82.1126 87.8196H77.0469L80.7203 67.0234H85.786L84.3344 75.1997H92.2144L93.666 67.0234H98.7317Z" fill="white"/>
    <path d="M55.4886 77.3945C55.8441 75.3406 56.6045 73.5137 57.7697 71.914C58.9546 70.2946 60.4161 69.0405 62.154 68.1518C63.892 67.2433 65.7682 66.7891 67.7826 66.7891C70.2513 66.7891 72.246 67.4408 73.7667 68.7443C75.3071 70.0477 76.1761 71.8252 76.3736 74.0766H70.8043C70.5475 73.2274 70.0736 72.5855 69.3823 72.151C68.7108 71.6968 67.8814 71.4697 66.8939 71.4697C65.3337 71.4697 63.9809 72.0128 62.8354 73.099C61.6899 74.1655 60.9592 75.5973 60.6432 77.3945C60.5445 77.9475 60.4951 78.4313 60.4951 78.8461C60.4951 80.2285 60.8802 81.3246 61.6504 82.1344C62.4207 82.9441 63.4773 83.3489 64.8202 83.3489C65.7879 83.3489 66.6865 83.1218 67.516 82.6676C68.3652 82.2133 69.0762 81.5616 69.6489 80.7124H75.2183C74.2308 82.9638 72.7397 84.7413 70.745 86.0447C68.7503 87.3284 66.5187 87.9703 64.05 87.9703C62.2725 87.9703 60.7222 87.6247 59.399 86.9335C58.0758 86.2422 57.0587 85.2646 56.3477 84.0007C55.6367 82.7367 55.2812 81.2654 55.2812 79.5867C55.2812 78.8362 55.3504 78.1055 55.4886 77.3945Z" fill="white"/>
    <defs>
        <linearGradient id="paint0_linear_5979_837" x1="73.5" y1="0" x2="73.5" y2="63" gradientUnits="userSpaceOnUse">
            <stop stop-color="#F28907"/>
            <stop offset="1" stop-color="#FFBD00"/>
        </linearGradient>
        <linearGradient id="paint1_linear_5979_837" x1="139.5" y1="55" x2="139.5" y2="97" gradientUnits="userSpaceOnUse">
            <stop stop-color="#F28907"/>
            <stop offset="1" stop-color="#FFBD00"/>
        </linearGradient>
    </defs>
</svg>
