<svg width="403" height="96" viewBox="0 0 403 96" fill="none" xmlns="http://www.w3.org/2000/svg">
    <path d="M0.383872 36.2059C1.58108 15.2095 19.5725 -0.84089 40.5689 0.356314L366.64 18.9487C387.636 20.1459 403.687 38.1374 402.489 59.1338C401.292 80.1302 383.301 96.1806 362.304 94.9834L36.2334 76.391C15.2371 75.1938 -0.813333 57.2023 0.383872 36.2059Z" fill="#86171E"/>
    <path d="M61.752 22.0558L61.366 28.8267L52.1734 28.3025L50.5812 56.2263L42.1299 55.7444L43.7221 27.8206L34.5295 27.2965L34.9156 20.5256L61.752 22.0558Z" fill="#FEFBF7"/>
    <path d="M96.0424 24.011L94.0641 58.7056L85.6129 58.2237L86.4273 43.9406L73.2809 43.191L72.4665 57.4741L64.0152 56.9923L65.9935 22.2976L74.4448 22.7795L73.6698 36.3707L86.8162 37.1203L87.5911 23.5291L96.0424 24.011Z" fill="#FEFBF7"/>
    <path d="M110.209 31.6117L109.808 38.6297L121.126 39.275L120.754 45.7988L109.436 45.1534L109.002 52.7645L121.803 53.4944L121.417 60.2653L100.165 59.0535L102.143 24.3589L123.395 25.5707L123.009 32.3415L110.209 31.6117Z" fill="#FEFBF7"/>
    <path d="M164.313 27.9038L163.927 34.6747L154.735 34.1505L153.143 62.0743L144.691 61.5924L146.284 33.6686L137.091 33.1445L137.477 26.3736L164.313 27.9038Z" fill="#FEFBF7"/>
    <path d="M184.27 63.8491L177.801 50.3407L175.775 50.2252L175.028 63.3221L166.577 62.8403L168.555 28.1456L182.739 28.9544C185.474 29.1104 187.769 29.7206 189.626 30.785C191.515 31.8514 192.89 33.252 193.75 34.9868C194.611 36.6887 194.984 38.5611 194.867 40.6039C194.736 42.9102 193.959 44.9319 192.538 46.6689C191.15 48.4078 189.166 49.5839 186.585 50.197L193.808 64.393L184.27 63.8491ZM176.116 44.2451L181.354 44.5438C182.903 44.6321 184.078 44.3189 184.879 43.6043C185.713 42.8916 186.169 41.8433 186.248 40.4595C186.323 39.1415 185.987 38.0811 185.24 37.2782C184.525 36.4772 183.393 36.0325 181.845 35.9442L176.606 35.6455L176.116 44.2451Z" fill="#FEFBF7"/>
    <path d="M209.098 30.4574L207.915 51.2149C207.796 53.2906 208.216 54.9177 209.174 56.0962C210.131 57.2747 211.598 57.9203 213.575 58.033C215.552 58.1457 217.1 57.672 218.218 56.6119C219.336 55.5518 219.954 53.9839 220.073 51.9081L221.256 31.1507L229.708 31.6325L228.527 52.3406C228.35 55.4377 227.542 58.0195 226.102 60.086C224.662 62.1525 222.79 63.6656 220.488 64.6251C218.218 65.5865 215.716 65.9893 212.982 65.8333C210.247 65.6774 207.822 65.0103 205.708 63.8319C203.628 62.6225 202.023 60.9113 200.893 58.6983C199.765 56.4523 199.29 53.7807 199.466 50.6836L200.647 29.9755L209.098 30.4574Z" fill="#FEFBF7"/>
    <path d="M260.6 33.394L260.214 40.1649L251.022 39.6408L249.43 67.5645L240.978 67.0826L242.571 39.1589L233.378 38.6347L233.764 31.8638L260.6 33.394Z" fill="#FEFBF7"/>
    <path d="M294.891 35.3493L292.913 70.0439L284.461 69.562L285.276 55.2789L272.129 54.5293L271.315 68.8124L262.864 68.3305L264.842 33.6359L273.293 34.1178L272.518 47.709L285.665 48.4586L286.44 34.8674L294.891 35.3493Z" fill="#FEFBF7"/>
    <path d="M319.916 36.7762L317.938 71.4708L309.487 70.9889L311.465 36.2943L319.916 36.7762Z" fill="#FEFBF7"/>
    <path d="M336.596 72.8818C334.059 72.7371 331.809 72.1956 329.846 71.2573C327.884 70.319 326.339 69.0079 325.211 67.3239C324.117 65.6418 323.602 63.6621 323.666 61.385L332.661 61.8978C332.719 63.1903 333.108 64.2041 333.826 64.9393C334.546 65.6414 335.516 66.0273 336.735 66.0968C337.987 66.1682 338.992 65.9445 339.748 65.4257C340.507 64.874 340.916 64.0874 340.974 63.066C341.023 62.2093 340.767 61.484 340.205 60.8901C339.677 60.298 338.995 59.7964 338.159 59.3851C337.356 58.9757 336.193 58.4962 334.671 57.9466C332.47 57.127 330.681 56.3308 329.304 55.5581C327.926 54.7854 326.765 53.6945 325.821 52.2854C324.877 50.8762 324.467 49.0844 324.59 46.9098C324.775 43.6808 326.088 41.227 328.531 39.5482C330.975 37.8365 334.076 37.0877 337.832 37.3019C341.654 37.5198 344.682 38.618 346.916 40.5965C349.152 42.5421 350.259 45.1505 350.238 48.4218L341.095 47.9004C341.093 46.7764 340.731 45.8798 340.009 45.2106C339.288 44.5084 338.335 44.1235 337.149 44.0559C336.128 43.9976 335.288 44.2307 334.63 44.7552C333.974 45.2466 333.617 46.0031 333.559 47.0245C333.495 48.1447 333.972 49.0479 334.991 49.734C336.009 50.4202 337.618 51.1896 339.817 52.0422C342.015 52.9277 343.786 53.7559 345.13 54.5267C346.507 55.2994 347.669 56.3739 348.615 57.7501C349.562 59.1262 349.975 60.8522 349.857 62.9279C349.744 64.9048 349.131 66.6714 348.018 68.2276C346.937 69.7857 345.414 70.9881 343.449 71.8346C341.483 72.6811 339.199 73.0302 336.596 72.8818Z" fill="#FEFBF7"/>
    <path d="M358.4 74.1746C356.918 74.0901 355.723 73.5922 354.816 72.6811C353.945 71.7389 353.545 70.6253 353.618 69.3403C353.694 68.0224 354.218 66.9449 355.191 66.1079C356.197 65.2728 357.442 64.8975 358.924 64.982C360.374 65.0647 361.535 65.5771 362.407 66.5193C363.312 67.4634 363.726 68.5944 363.651 69.9124C363.578 71.1974 363.038 72.2574 362.032 73.0925C361.061 73.8966 359.85 74.2573 358.4 74.1746ZM359.547 54.0597C358.065 53.9751 356.87 53.4773 355.963 52.5661C355.091 51.6239 354.692 50.5103 354.765 49.2253C354.841 47.9074 355.365 46.8299 356.338 45.9929C357.344 45.1578 358.589 44.7825 360.071 44.8671C361.521 44.9497 362.682 45.4622 363.554 46.4044C364.459 47.3485 364.873 48.4795 364.798 49.7974C364.725 51.0824 364.185 52.1424 363.179 52.9776C362.208 53.7816 360.997 54.1423 359.547 54.0597Z" fill="#FEFBF7"/>
</svg>
