<svg width="888" height="513" viewBox="0 0 888 513" fill="none" xmlns="http://www.w3.org/2000/svg">
    <path d="M816.391 505C816.391 509.418 819.972 513 824.391 513C828.809 513 832.391 509.418 832.391 505C832.391 500.582 828.809 497 824.391 497C819.972 497 816.391 500.582 816.391 505ZM295 102.66L295.446 104.092C297.323 103.507 299.211 102.925 301.109 102.345L300.67 100.911L300.232 99.4761C298.329 100.058 296.437 100.641 294.554 101.227L295 102.66ZM312.186 97.456L312.61 98.895C316.452 97.7636 320.331 96.6429 324.244 95.534L323.835 94.0908L323.426 92.6476C319.504 93.7593 315.615 94.8829 311.762 96.0171L312.186 97.456ZM335.376 90.8821L335.771 92.3293C339.644 91.2731 343.547 90.2294 347.478 89.1994L347.098 87.7484L346.717 86.2973C342.777 87.3299 338.864 88.3762 334.982 89.435L335.376 90.8821ZM358.711 84.7659L359.077 86.2205C362.955 85.2449 366.857 84.2835 370.781 83.3372L370.43 81.879L370.078 80.4208C366.144 81.3694 362.233 82.3332 358.345 83.3112L358.711 84.7659ZM382.175 79.1081L382.512 80.5697C386.399 79.6731 390.305 78.7921 394.229 77.9279L393.906 76.463L393.584 74.9981C389.65 75.8645 385.734 76.7476 381.838 77.6465L382.175 79.1081ZM405.743 73.9183L406.051 75.3863C409.954 74.5681 413.871 73.7671 417.802 72.9844L417.509 71.5133L417.216 70.0422C413.275 70.8269 409.348 71.6299 405.436 72.4502L405.743 73.9183ZM429.351 69.2189L429.629 70.693C433.567 69.9511 437.517 69.2284 441.477 68.5257L441.215 67.0488L440.953 65.5719C436.983 66.2764 433.022 67.001 429.073 67.7448L429.351 69.2189ZM453.083 65.0087L453.329 66.4883C457.288 65.8298 461.254 65.1921 465.227 64.5764L464.998 63.0941L464.768 61.6118C460.784 62.2292 456.806 62.8686 452.836 63.529L453.083 65.0087ZM476.912 61.3163L477.125 62.8011C481.095 62.2318 485.07 61.6853 489.046 61.1624L488.851 59.6752L488.655 58.188C484.667 58.7124 480.681 59.2606 476.699 59.8314L476.912 61.3163ZM500.814 58.1754L500.991 59.6648C504.979 59.1895 508.967 58.7389 512.954 58.314L512.795 56.8224L512.636 55.3309C508.636 55.7571 504.636 56.2091 500.636 56.6859L500.814 58.1754ZM524.77 55.624L524.91 57.1175C528.917 56.7428 532.921 56.3952 536.92 56.0755L536.801 54.5803L536.681 53.0851C532.668 53.4058 528.651 53.7546 524.631 54.1305L524.77 55.624ZM548.814 53.7042L548.912 55.2009C552.921 54.937 556.922 54.7024 560.916 54.498L560.839 53L560.762 51.5019C556.754 51.707 552.738 51.9425 548.715 52.2074L548.814 53.7042ZM572.903 52.4747L572.956 53.9738C576.96 53.8304 580.954 53.7189 584.935 53.6401L584.905 52.1404L584.876 50.6407C580.878 50.7198 576.869 50.8318 572.849 50.9757L572.903 52.4747ZM597.004 52.0028L597.008 53.5028C601.027 53.4914 605.031 53.515 609.018 53.5746L609.04 52.0747L609.063 50.5749C605.057 50.515 601.036 50.4914 597 50.5028L597.004 52.0028ZM621.083 52.3669L621.033 53.866C625.066 54.0021 629.079 54.1768 633.071 54.3913L633.152 52.8935L633.232 51.3957C629.22 51.1801 625.186 51.0045 621.134 50.8677L621.083 52.3669ZM645.103 53.6603L644.991 55.1561C649.036 55.4586 653.055 55.8041 657.047 56.1937L657.193 54.7008L657.339 53.2079C653.323 52.816 649.281 52.4686 645.215 52.1644L645.103 53.6603ZM669.122 56.0073L668.941 57.4963C672.954 57.9849 676.937 58.5206 680.886 59.1048L681.106 57.621L681.325 56.1371C677.349 55.5491 673.341 55.0099 669.303 54.5183L669.122 56.0073ZM692.992 59.5439L692.732 61.0212C696.697 61.7191 700.624 62.4688 704.513 63.2719L704.816 61.8029L705.119 60.3339C701.201 59.5247 697.245 58.7694 693.252 58.0666L692.992 59.5439ZM716.608 64.4316L716.258 65.8902C720.157 66.8255 724.013 67.8182 727.821 68.8697L728.22 67.4238L728.62 65.9779C724.777 64.9171 720.889 63.916 716.957 62.973L716.608 64.4316ZM739.836 70.8603L739.384 72.2905C743.197 73.4966 746.957 74.7663 750.662 76.1013L751.171 74.6901L751.679 73.2789C747.936 71.9302 744.138 70.6478 740.289 69.4302L739.836 70.8603ZM762.494 79.0452L761.925 80.4331C765.62 81.9476 769.252 83.5329 772.82 85.1907L773.452 83.8304L774.084 82.4701C770.474 80.7923 766.799 79.1886 763.063 77.6573L762.494 79.0452ZM784.323 89.2141L783.623 90.5409C787.154 92.4023 790.611 94.3425 793.994 96.3631L794.763 95.0754L795.532 93.7877C792.103 91.739 788.599 89.7728 785.023 87.8872L784.323 89.2141ZM804.976 101.579L804.134 102.82C807.434 105.059 810.651 107.385 813.782 109.799L814.698 108.611L815.614 107.423C812.434 104.971 809.167 102.61 805.818 100.338L804.976 101.579ZM824.019 116.285L823.029 117.411C826.02 120.041 828.919 122.764 831.721 125.582L832.785 124.524L833.848 123.466C830.998 120.6 828.05 117.831 825.01 115.158L824.019 116.285ZM840.972 133.345L839.838 134.326C842.439 137.331 844.94 140.433 847.338 143.634L848.538 142.734L849.739 141.835C847.298 138.577 844.753 135.42 842.106 132.363L840.972 133.345ZM855.39 152.586L854.129 153.398C856.278 156.732 858.323 160.163 860.262 163.694L861.577 162.972L862.892 162.25C860.919 158.657 858.837 155.166 856.651 151.773L855.39 152.586ZM866.974 173.649L865.614 174.28C867.283 177.88 868.85 181.576 870.312 185.368L871.711 184.829L873.111 184.29C871.626 180.436 870.033 176.679 868.335 173.018L866.974 173.649ZM875.642 196.067L874.211 196.519C875.412 200.326 876.514 204.223 877.513 208.214L878.968 207.85L880.423 207.485C879.41 203.437 878.292 199.481 877.072 195.616L875.642 196.067ZM881.52 219.382L880.047 219.667C880.8 223.563 881.46 227.542 882.026 231.605L883.511 231.399L884.997 231.192C884.424 227.078 883.755 223.047 882.993 219.098L881.52 219.382ZM884.871 243.248L883.377 243.383C883.732 247.288 884.004 251.265 884.192 255.317L885.69 255.247L887.189 255.178C886.999 251.083 886.724 247.062 886.365 243.112L884.871 243.248ZM885.997 267.465L884.497 267.472C884.514 271.322 884.459 275.234 884.329 279.211L885.828 279.26L887.327 279.309C887.458 275.296 887.514 271.346 887.497 267.459L885.997 267.465ZM885.21 291.435L883.714 291.332C883.446 295.256 883.108 299.24 882.7 303.282L884.193 303.433L885.685 303.584C886.096 299.509 886.437 295.494 886.707 291.537L885.21 291.435ZM882.824 315.222L881.337 315.027C880.817 318.997 880.232 323.022 879.58 327.103L881.061 327.34L882.542 327.576C883.199 323.468 883.788 319.415 884.312 315.417L882.824 315.222ZM879.01 339.182L877.536 338.908C876.825 342.722 876.059 346.583 875.235 350.49L876.703 350.8L878.17 351.109C878.999 347.179 879.77 343.295 880.485 339.457L879.01 339.182ZM874.052 362.698L872.591 362.356C871.677 366.257 870.707 370.203 869.681 374.194L871.134 374.567L872.587 374.941C873.617 370.929 874.592 366.963 875.512 363.041L874.052 362.698ZM868.104 385.905L866.658 385.504C865.602 389.314 864.496 393.164 863.34 397.055L864.778 397.482L866.216 397.91C867.377 394.002 868.488 390.134 869.549 386.306L868.104 385.905ZM861.151 409.302L859.721 408.849C858.543 412.572 857.321 416.331 856.054 420.126L857.477 420.601L858.899 421.076C860.172 417.266 861.399 413.492 862.581 409.754L861.151 409.302ZM853.643 431.8L852.227 431.304C850.909 435.064 849.547 438.859 848.142 442.688L849.55 443.205L850.958 443.722C852.368 439.879 853.735 436.071 855.058 432.296L853.643 431.8ZM845.197 454.818L843.796 454.281C842.405 457.914 840.976 461.577 839.509 465.271L840.903 465.825L842.297 466.379C843.769 462.673 845.202 458.999 846.597 455.354L845.197 454.818ZM836.467 476.796L835.08 476.225C833.567 479.906 832.015 483.617 830.427 487.357L831.807 487.944L833.188 488.53C834.781 484.78 836.337 481.058 837.855 477.366L836.467 476.796ZM826.92 499.27L825.546 498.668C824.714 500.568 823.872 502.476 823.02 504.391L824.391 505L825.761 505.609C826.615 503.69 827.459 501.777 828.294 499.872L826.92 499.27Z" fill="#86171E"/>
    <rect x="88.4848" y="129.603" width="214.332" height="40" rx="20" transform="rotate(-12.2052 88.4848 129.603)" fill="#86171E"/>
    <path d="M120.203 133.214L120.956 136.695L116.229 137.718L119.335 152.076L114.989 153.016L111.883 138.658L107.157 139.68L106.404 136.199L120.203 133.214ZM127.482 135.284L128.263 138.892L134.082 137.634L134.808 140.988L128.988 142.247L129.835 146.16L136.416 144.737L137.169 148.218L126.242 150.582L122.383 132.742L133.311 130.379L134.064 133.86L127.482 135.284ZM143.611 143.313L149.303 142.082L150.029 145.437L139.991 147.608L136.132 129.768L140.477 128.828L143.611 143.313ZM155.721 140.694L161.413 139.463L162.139 142.817L152.101 144.988L148.242 127.149L152.588 126.209L155.721 140.694ZM185.941 118.995L189.8 136.834L185.454 137.774L183.14 127.075L181.465 138.637L177.958 139.395L171.623 129.54L173.942 140.264L169.597 141.204L165.738 123.364L170.872 122.254L178.549 133.522L180.833 120.099L185.941 118.995ZM194.165 120.86L194.945 124.469L200.765 123.21L201.49 126.564L195.671 127.823L196.517 131.737L203.099 130.313L203.852 133.794L192.925 136.158L189.066 118.319L199.993 115.955L200.746 119.437L194.165 120.86ZM228.402 109.81L232.261 127.649L227.916 128.589L225.602 117.891L223.926 129.452L220.419 130.211L214.084 120.355L216.404 131.079L212.058 132.019L208.2 114.18L213.333 113.07L221.011 124.337L223.295 110.915L228.402 109.81ZM243.861 125.327C242.184 125.689 240.558 125.633 238.984 125.158C237.426 124.679 236.082 123.835 234.951 122.625C233.834 121.395 233.086 119.907 232.709 118.162C232.331 116.417 232.399 114.762 232.912 113.197C233.441 111.629 234.316 110.304 235.537 109.224C236.775 108.141 238.232 107.418 239.909 107.055C241.587 106.692 243.204 106.75 244.762 107.229C246.336 107.704 247.672 108.55 248.769 109.767C249.883 110.981 250.628 112.46 251.006 114.205C251.383 115.95 251.317 117.613 250.808 119.195C250.296 120.76 249.429 122.083 248.208 123.163C246.988 124.242 245.539 124.964 243.861 125.327ZM243.004 121.362C244.427 121.054 245.46 120.335 246.101 119.203C246.76 118.067 246.921 116.72 246.584 115.161C246.243 113.586 245.54 112.425 244.474 111.681C243.422 110.915 242.184 110.686 240.761 110.994C239.321 111.305 238.27 112.021 237.608 113.139C236.962 114.254 236.811 115.608 237.156 117.2C237.497 118.776 238.193 119.947 239.246 120.712C240.311 121.457 241.564 121.674 243.004 121.362ZM264.461 120.685L259.294 114.753L258.252 114.978L259.709 121.712L255.364 122.652L251.505 104.813L258.798 103.235C260.204 102.931 261.452 102.919 262.541 103.197C263.647 103.472 264.539 103.989 265.217 104.747C265.891 105.487 266.342 106.383 266.569 107.433C266.826 108.619 266.716 109.751 266.24 110.83C265.781 111.904 264.941 112.778 263.721 113.45L269.366 119.624L264.461 120.685ZM257.587 111.903L260.281 111.321C261.077 111.148 261.628 110.825 261.933 110.351C262.256 109.874 262.34 109.279 262.186 108.568C262.039 107.89 261.721 107.4 261.23 107.099C260.756 106.793 260.121 106.727 259.325 106.899L256.631 107.482L257.587 111.903ZM273.181 103.769L273.962 107.377L279.781 106.119L280.506 109.473L274.687 110.732L275.534 114.645L282.115 113.222L282.868 116.703L271.941 119.067L268.082 101.227L279.01 98.8636L279.763 102.345L273.181 103.769ZM287.767 115.856C287.004 116.021 286.33 115.937 285.743 115.602C285.17 115.248 284.812 114.74 284.669 114.079C284.522 113.401 284.637 112.783 285.012 112.223C285.404 111.659 285.982 111.295 286.744 111.13C287.49 110.968 288.149 111.065 288.722 111.42C289.312 111.771 289.681 112.286 289.827 112.963C289.97 113.624 289.846 114.236 289.453 114.8C289.074 115.343 288.512 115.695 287.767 115.856Z" fill="#FEFBF7"/>
    <path d="M2.03996 1C1.03996 45.5 18.44 137.8 96.04 151" stroke="#86171E" stroke-width="3" stroke-dasharray="12 12"/>
</svg>
