<svg width="890" height="507" viewBox="0 0 890 507" fill="none" xmlns="http://www.w3.org/2000/svg">
    <path d="M296 102.66C570.036 17.3583 1059.56 -21.5955 825.391 505" stroke="#86171E" stroke-width="5" stroke-dasharray="15 15"/>
    <path d="M101.538 156.323C98.7852 143.541 106.87 130.939 119.595 128.174L320.437 84.5401C333.162 81.7755 345.71 89.8957 348.462 102.677C351.215 115.459 343.13 128.061 330.405 130.826L129.563 174.46C116.838 177.225 104.29 169.104 101.538 156.323Z" fill="#86171E"/>
    <path d="M133.94 137.456L134.828 141.577L129.256 142.788L132.917 159.786L127.795 160.899L124.134 143.901L118.563 145.111L117.675 140.989L133.94 137.456Z" fill="#FEFBF7"/>
    <path d="M142.52 139.906L143.44 144.178L150.3 142.688L151.155 146.659L144.296 148.15L145.293 152.783L153.051 151.097L153.939 155.219L141.059 158.017L136.511 136.897L149.391 134.099L150.278 138.221L142.52 139.906Z" fill="#FEFBF7"/>
    <path d="M161.531 149.412L168.241 147.955L169.096 151.926L157.264 154.497L152.716 133.376L157.838 132.264L161.531 149.412Z" fill="#FEFBF7"/>
    <path d="M175.806 146.311L182.516 144.853L183.371 148.825L171.539 151.395L166.991 130.275L172.113 129.162L175.806 146.311Z" fill="#FEFBF7"/>
    <path d="M211.427 120.621L215.975 141.741L210.853 142.854L208.125 130.188L206.15 143.876L202.016 144.774L194.55 133.106L197.284 145.802L192.162 146.915L187.613 125.795L193.664 124.48L202.714 137.82L205.406 121.929L211.427 120.621Z" fill="#FEFBF7"/>
    <path d="M221.12 122.83L222.04 127.102L228.899 125.612L229.754 129.583L222.895 131.073L223.893 135.707L231.651 134.021L232.538 138.143L219.658 140.941L215.11 119.821L227.99 117.023L228.878 121.144L221.12 122.83Z" fill="#FEFBF7"/>
    <path d="M261.476 109.748L266.024 130.868L260.902 131.981L258.175 119.315L256.2 133.002L252.066 133.9L244.599 122.232L247.333 134.929L242.211 136.041L237.663 114.921L243.714 113.607L252.763 126.946L255.455 111.056L261.476 109.748Z" fill="#FEFBF7"/>
    <path d="M279.698 128.118C277.721 128.547 275.804 128.481 273.948 127.918C272.112 127.351 270.528 126.352 269.195 124.92C267.878 123.463 266.997 121.702 266.552 119.636C266.107 117.57 266.187 115.611 266.791 113.758C267.416 111.901 268.447 110.333 269.886 109.054C271.345 107.772 273.062 106.916 275.039 106.486C277.016 106.057 278.923 106.125 280.759 106.692C282.615 107.255 284.19 108.256 285.482 109.697C286.795 111.134 287.674 112.885 288.119 114.951C288.564 117.016 288.486 118.986 287.886 120.859C287.282 122.712 286.26 124.277 284.821 125.556C283.383 126.834 281.675 127.688 279.698 128.118ZM278.687 123.424C280.365 123.06 281.582 122.208 282.338 120.868C283.115 119.523 283.304 117.928 282.907 116.083C282.505 114.218 281.676 112.844 280.42 111.962C279.18 111.056 277.721 110.785 276.044 111.149C274.346 111.518 273.107 112.365 272.326 113.689C271.565 115.009 271.388 116.612 271.794 118.497C272.196 120.363 273.017 121.748 274.257 122.655C275.513 123.537 276.99 123.793 278.687 123.424Z" fill="#FEFBF7"/>
    <path d="M303.979 122.622L297.889 115.599L296.661 115.866L298.378 123.839L293.255 124.952L288.707 103.832L297.304 101.964C298.961 101.604 300.432 101.589 301.715 101.919C303.019 102.245 304.07 102.856 304.87 103.753C305.665 104.63 306.196 105.69 306.464 106.934C306.766 108.338 306.637 109.678 306.076 110.955C305.534 112.227 304.545 113.261 303.106 114.056L309.76 121.366L303.979 122.622ZM295.877 112.226L299.052 111.536C299.99 111.332 300.64 110.95 301 110.389C301.379 109.823 301.479 109.119 301.297 108.277C301.124 107.475 300.749 106.895 300.17 106.538C299.612 106.176 298.863 106.097 297.924 106.301L294.749 106.991L295.877 112.226Z" fill="#FEFBF7"/>
    <path d="M314.257 102.595L315.177 106.868L322.036 105.377L322.892 109.349L316.032 110.839L317.03 115.472L324.788 113.787L325.676 117.908L312.796 120.707L308.247 99.5864L321.127 96.7881L322.015 100.91L314.257 102.595Z" fill="#FEFBF7"/>
    <path d="M331.449 116.906C330.551 117.101 329.756 117.001 329.064 116.605C328.388 116.185 327.966 115.584 327.798 114.802C327.625 114 327.76 113.267 328.202 112.604C328.665 111.937 329.345 111.505 330.244 111.31C331.123 111.119 331.9 111.234 332.576 111.654C333.271 112.069 333.706 112.678 333.878 113.481C334.047 114.263 333.9 114.988 333.437 115.655C332.991 116.298 332.328 116.715 331.449 116.906Z" fill="#FEFBF7"/>
    <path d="M3.03996 1C2.03996 45.5 19.44 137.8 97.04 151" stroke="#86171E" stroke-width="5" stroke-dasharray="15 15"/>
</svg>
