<svg width="469" height="588" viewBox="0 0 469 588" fill="none" xmlns="http://www.w3.org/2000/svg">
    <path d="M265.499 1.5C293.332 57.5 260.319 112.946 197.499 270C142.5 407.5 181.903 536.5 183.07 587.5" stroke="#86171E" stroke-width="5" stroke-dasharray="15 15"/>
    <path d="M0.406384 164.55C1.96062 143.69 20.1283 128.039 40.9851 129.594L433.643 158.866C454.5 160.421 470.148 178.593 468.594 199.454C467.039 220.314 448.872 235.965 428.015 234.41L35.3567 205.138C14.4999 203.583 -1.14785 185.411 0.406384 164.55Z" fill="#86171E"/>
    <path d="M85.6033 154.076L85.1021 160.804L75.9707 160.123L73.9036 187.866L65.5086 187.24L67.5756 159.497L58.4442 158.816L58.9454 152.089L85.6033 154.076Z" fill="#FEFBF7"/>
    <path d="M97.7104 161.743L97.1909 168.716L108.433 169.554L107.951 176.036L96.708 175.198L96.1446 182.76L108.86 183.708L108.359 190.435L87.2484 188.861L89.8166 154.39L110.927 155.964L110.426 162.691L97.7104 161.743Z" fill="#FEFBF7"/>
    <path d="M122.687 184.985L133.684 185.805L133.201 192.287L113.809 190.841L116.377 156.371L124.772 156.996L122.687 184.985Z" fill="#FEFBF7"/>
    <path d="M146.083 186.73L157.08 187.549L156.597 194.031L137.205 192.585L139.773 158.115L148.168 158.741L146.083 186.73Z" fill="#FEFBF7"/>
    <path d="M212.603 163.544L210.035 198.015L201.64 197.389L203.18 176.716L193.932 196.814L187.157 196.309L180.944 175.009L179.4 195.731L171.005 195.105L173.573 160.634L183.49 161.374L191.384 185.959L202.735 162.808L212.603 163.544Z" fill="#FEFBF7"/>
    <path d="M226.534 171.347L226.014 178.32L237.257 179.158L236.774 185.64L225.531 184.802L224.968 192.363L237.683 193.311L237.182 200.039L216.072 198.465L218.64 163.994L239.75 165.568L239.249 172.295L226.534 171.347Z" fill="#FEFBF7"/>
    <path d="M294.634 169.659L292.066 204.13L283.671 203.504L285.211 182.832L275.963 202.93L269.188 202.425L262.975 181.125L261.431 201.846L253.036 201.22L255.604 166.75L265.521 167.489L273.415 192.074L284.766 168.924L294.634 169.659Z" fill="#FEFBF7"/>
    <path d="M314.376 206.139C311.136 205.897 308.214 204.922 305.609 203.214C303.038 201.508 301.05 199.253 299.646 196.449C298.278 193.615 297.719 190.512 297.97 187.14C298.222 183.769 299.233 180.799 301.004 178.232C302.807 175.667 305.107 173.732 307.903 172.426C310.732 171.123 313.766 170.592 317.007 170.834C320.247 171.075 323.153 172.049 325.724 173.755C328.329 175.463 330.3 177.717 331.638 180.516C333.009 183.317 333.569 186.404 333.318 189.776C333.067 193.147 332.054 196.133 330.281 198.733C328.51 201.3 326.226 203.237 323.43 204.543C320.634 205.848 317.616 206.38 314.376 206.139ZM314.947 198.479C317.696 198.684 319.957 197.931 321.73 196.219C323.536 194.511 324.551 192.15 324.776 189.139C325.002 186.094 324.348 183.61 322.813 181.685C321.313 179.73 319.189 178.65 316.44 178.445C313.658 178.237 311.365 178.971 309.562 180.648C307.791 182.326 306.791 184.704 306.562 187.781C306.335 190.825 306.971 193.325 308.471 195.28C310.006 197.205 312.165 198.271 314.947 198.479Z" fill="#FEFBF7"/>
    <path d="M354.273 208.768L348.074 195.221L346.061 195.071L345.092 208.083L336.697 207.457L339.265 172.987L353.355 174.037C356.072 174.24 358.344 174.886 360.171 175.977C362.032 177.07 363.374 178.487 364.199 180.227C365.026 181.935 365.364 183.804 365.213 185.833C365.042 188.125 364.235 190.122 362.792 191.825C361.381 193.53 359.388 194.665 356.812 195.23L363.748 209.474L354.273 208.768ZM346.504 189.129L351.708 189.517C353.246 189.632 354.42 189.341 355.229 188.644C356.07 187.95 356.542 186.915 356.645 185.54C356.742 184.231 356.427 183.17 355.697 182.359C355 181.55 353.883 181.088 352.345 180.973L347.141 180.585L346.504 189.129Z" fill="#FEFBF7"/>
    <path d="M379.185 182.727L378.666 189.7L389.908 190.538L389.425 197.02L378.183 196.182L377.619 203.743L390.335 204.691L389.833 211.419L368.723 209.845L371.291 175.374L392.402 176.948L391.9 183.675L379.185 182.727Z" fill="#FEFBF7"/>
    <path d="M399.182 212.511C397.709 212.401 396.53 211.885 395.644 210.963C394.793 210.011 394.416 208.896 394.511 207.62C394.608 206.31 395.148 205.248 396.131 204.432C397.146 203.619 398.389 203.267 399.862 203.377C401.302 203.485 402.448 204.014 403.298 204.967C404.182 205.921 404.574 207.053 404.477 208.363C404.382 209.639 403.827 210.684 402.812 211.497C401.832 212.28 400.622 212.618 399.182 212.511Z" fill="#FEFBF7"/>
</svg>
