
<svg width="800" height="337" viewBox="0 0 800 337" fill="none" xmlns="http://www.w3.org/2000/svg">
    <path d="M769 1.5C809.833 100.333 838.2 290.5 625 260.5C358.5 223 -77.5002 102.5 14.4998 336" stroke="#86171E" stroke-width="3" stroke-dasharray="12 12"/>
    <rect x="450.341" y="215.992" width="181.931" height="40" rx="20" transform="rotate(7.31813 450.341 215.992)" fill="#86171E"/>
    <path d="M481.7 230.855L481.246 234.388L476.45 233.772L474.579 248.342L470.169 247.776L472.04 233.205L467.243 232.589L467.697 229.056L481.7 230.855ZM499.592 233.153L497.268 251.256L492.858 250.69L493.815 243.237L486.955 242.356L485.998 249.809L481.588 249.242L483.913 231.139L488.323 231.705L487.412 238.797L494.272 239.678L495.183 232.586L499.592 233.153ZM512.131 249.914L505.375 249.047L503.881 252.105L499.265 251.512L508.14 234.25L513.246 234.906L517.471 253.851L512.804 253.251L512.131 249.914ZM511.434 246.364L510.041 239.449L506.972 245.792L511.434 246.364ZM534.813 237.676L534.359 241.209L529.562 240.593L527.691 255.163L523.281 254.597L525.153 240.026L520.356 239.41L520.81 235.877L534.813 237.676ZM538.032 238.089L542.545 238.669L538.769 245.209L535.803 244.828L538.032 238.089ZM549.337 258.126C548.013 257.956 546.855 257.589 545.861 257.025C544.868 256.46 544.107 255.716 543.579 254.792C543.068 253.87 542.872 252.814 542.99 251.623L547.683 252.226C547.666 252.905 547.832 253.451 548.181 253.862C548.532 254.257 549.026 254.495 549.662 254.577C550.315 254.661 550.85 254.581 551.266 254.337C551.683 254.076 551.927 253.679 551.995 253.146C552.053 252.699 551.945 252.31 551.673 251.978C551.419 251.648 551.08 251.36 550.657 251.113C550.252 250.869 549.66 250.575 548.883 250.23C547.761 249.719 546.853 249.236 546.16 248.78C545.467 248.324 544.899 247.709 544.457 246.936C544.014 246.162 543.866 245.208 544.012 244.074C544.228 242.389 545.007 241.152 546.349 240.363C547.694 239.557 549.346 239.28 551.306 239.532C553.3 239.788 554.846 240.476 555.943 241.595C557.042 242.697 557.525 244.105 557.393 245.818L552.622 245.206C552.662 244.617 552.506 244.133 552.153 243.756C551.801 243.361 551.316 243.124 550.697 243.045C550.164 242.976 549.716 243.067 549.352 243.318C548.99 243.551 548.774 243.934 548.706 244.467C548.631 245.051 548.847 245.542 549.356 245.939C549.864 246.337 550.678 246.8 551.799 247.328C552.917 247.874 553.814 248.373 554.49 248.827C555.183 249.283 555.751 249.889 556.196 250.645C556.641 251.401 556.793 252.321 556.654 253.404C556.522 254.435 556.135 255.338 555.494 256.112C554.87 256.888 554.027 257.462 552.966 257.832C551.905 258.203 550.695 258.301 549.337 258.126ZM586.967 244.374L584.642 262.477L580.233 261.911L581.627 251.054L576.184 261.391L572.625 260.934L569.948 249.528L568.551 260.41L564.141 259.844L566.466 241.741L571.675 242.41L575.146 255.595L581.784 243.708L586.967 244.374ZM594.095 248.88L593.624 252.542L599.53 253.301L599.093 256.705L593.187 255.946L592.677 259.918L599.356 260.775L598.902 264.308L587.814 262.884L590.138 244.781L601.227 246.205L600.774 249.738L594.095 248.88ZM609.975 246.673L607.873 258.959L604.134 258.479L605.205 246.06L609.975 246.673ZM605.22 265.329C604.447 265.23 603.839 264.925 603.398 264.414C602.976 263.888 602.808 263.29 602.895 262.619C602.983 261.931 603.298 261.386 603.839 260.984C604.397 260.584 605.063 260.433 605.836 260.533C606.593 260.63 607.182 260.941 607.604 261.467C608.043 261.996 608.218 262.604 608.13 263.291C608.043 263.962 607.721 264.497 607.163 264.897C606.624 265.283 605.977 265.427 605.22 265.329Z" fill="#FEFBF7"/>
</svg>
