<svg width="802" height="337" viewBox="0 0 802 337" fill="none" xmlns="http://www.w3.org/2000/svg">
    <path d="M770 1.5C810.833 100.333 839.2 290.5 626 260.5C359.5 223 -76.5002 102.5 15.4998 336" stroke="#86171E" stroke-width="5" stroke-dasharray="15 15"/>
    <path d="M429.209 234.238C430.991 220.28 443.687 210.418 457.565 212.21L635.89 235.244C649.768 237.036 659.573 249.804 657.791 263.762C656.009 277.72 643.313 287.582 629.435 285.79L451.11 262.756C437.232 260.964 427.427 248.196 429.209 234.238Z" fill="#86171E"/>
    <path d="M472.16 227.9L471.585 232.401L465.509 231.616L463.138 250.179L457.552 249.458L459.923 230.895L453.847 230.11L454.421 225.609L472.16 227.9Z" fill="#FEFBF7"/>
    <path d="M494.824 230.828L491.879 253.892L486.293 253.17L487.506 243.675L478.816 242.553L477.604 252.048L472.018 251.326L474.963 228.262L480.549 228.984L479.395 238.019L488.085 239.141L489.238 230.106L494.824 230.828Z" fill="#FEFBF7"/>
    <path d="M510.708 252.182L502.149 251.077L500.257 254.974L494.409 254.218L505.652 232.226L512.12 233.061L517.472 257.197L511.559 256.434L510.708 252.182ZM509.824 247.66L508.06 238.849L504.173 246.93L509.824 247.66Z" fill="#FEFBF7"/>
    <path d="M539.439 236.59L538.864 241.091L532.788 240.306L530.418 258.87L524.832 258.148L527.202 239.585L521.126 238.8L521.701 234.299L539.439 236.59Z" fill="#FEFBF7"/>
    <path d="M543.517 237.117L549.233 237.855L544.45 246.188L540.694 245.703L543.517 237.117Z" fill="#FEFBF7"/>
    <path d="M557.838 262.645C556.161 262.428 554.693 261.96 553.435 261.241C552.176 260.522 551.213 259.574 550.544 258.397C549.897 257.222 549.648 255.876 549.797 254.359L555.743 255.127C555.721 255.993 555.931 256.688 556.373 257.212C556.818 257.715 557.443 258.019 558.249 258.123C559.077 258.23 559.754 258.128 560.281 257.817C560.81 257.485 561.118 256.979 561.205 256.3C561.278 255.731 561.142 255.235 560.797 254.812C560.475 254.391 560.045 254.024 559.51 253.71C558.996 253.399 558.247 253.024 557.263 252.585C555.841 251.934 554.691 251.318 553.813 250.737C552.935 250.156 552.216 249.373 551.656 248.388C551.095 247.402 550.907 246.187 551.092 244.741C551.366 242.595 552.353 241.019 554.053 240.014C555.756 238.987 557.849 238.634 560.332 238.955C562.858 239.281 564.816 240.157 566.205 241.584C567.598 242.988 568.21 244.781 568.042 246.964L561.999 246.183C562.05 245.433 561.852 244.817 561.404 244.337C560.959 243.834 560.345 243.532 559.561 243.431C558.886 243.343 558.317 243.459 557.856 243.778C557.398 244.075 557.125 244.563 557.038 245.242C556.943 245.987 557.218 246.612 557.861 247.118C558.505 247.625 559.537 248.214 560.956 248.887C562.373 249.582 563.509 250.219 564.365 250.797C565.242 251.378 565.963 252.15 566.526 253.114C567.089 254.077 567.283 255.249 567.107 256.628C566.939 257.943 566.449 259.093 565.637 260.079C564.846 261.068 563.779 261.798 562.435 262.27C561.091 262.742 559.558 262.867 557.838 262.645Z" fill="#FEFBF7"/>
    <path d="M605.505 245.124L602.56 268.188L596.974 267.466L598.74 253.634L591.846 266.804L587.338 266.221L583.947 251.69L582.176 265.555L576.59 264.833L579.535 241.769L586.134 242.621L590.53 259.42L598.939 244.275L605.505 245.124Z" fill="#FEFBF7"/>
    <path d="M614.534 250.865L613.938 255.53L621.419 256.497L620.865 260.834L613.384 259.867L612.738 264.927L621.199 266.02L620.624 270.521L606.577 268.707L609.522 245.642L623.569 247.457L622.994 251.958L614.534 250.865Z" fill="#FEFBF7"/>
    <path d="M634.651 248.053L631.988 263.706L627.251 263.094L628.607 247.273L634.651 248.053ZM628.627 271.822C627.647 271.695 626.878 271.306 626.319 270.655C625.785 269.985 625.572 269.223 625.681 268.369C625.793 267.493 626.191 266.798 626.877 266.286C627.584 265.776 628.427 265.584 629.407 265.711C630.366 265.835 631.112 266.231 631.646 266.902C632.202 267.575 632.424 268.349 632.312 269.225C632.203 270.079 631.795 270.762 631.088 271.271C630.406 271.762 629.585 271.946 628.627 271.822Z" fill="#FEFBF7"/>
</svg>
