<svg width="392" height="539" viewBox="0 0 392 539" fill="none" xmlns="http://www.w3.org/2000/svg">
    <path d="M211.769 1C222.094 30.9735 248.5 159.5 156.001 265.5C63.5014 371.5 56.5002 475 111.5 537" stroke="#86171E" stroke-width="5" stroke-dasharray="15 15"/>
    <path d="M0.613125 125.455C-1.07383 105.044 14.1029 87.1299 34.5113 85.444L351.451 59.2625C371.859 57.5766 389.771 72.757 391.458 93.1688C393.145 113.581 377.968 131.494 357.56 133.18L40.6203 159.362C20.2119 161.047 2.30008 145.867 0.613125 125.455Z" fill="#86171E"/>
    <path d="M86.4098 101.882L86.9538 108.464L78.0187 109.202L80.2622 136.348L72.0476 137.027L69.8041 109.881L60.8689 110.619L60.3249 104.036L86.4098 101.882Z" fill="#FEFBF7"/>
    <path d="M119.74 99.1283L122.527 132.857L114.313 133.535L113.165 119.65L100.387 120.706L101.535 134.591L93.32 135.27L90.5325 101.541L98.7471 100.862L99.8391 114.075L112.617 113.02L111.525 99.8069L119.74 99.1283Z" fill="#FEFBF7"/>
    <path d="M148.958 124.675L136.372 125.715L134.847 131.839L126.248 132.55L135.662 97.813L145.174 97.0273L160.163 129.748L151.468 130.466L148.958 124.675ZM146.32 118.508L141.12 106.505L138.01 119.194L146.32 118.508Z" fill="#FEFBF7"/>
    <path d="M185.349 93.7086L185.893 100.291L176.957 101.029L179.201 128.175L170.986 128.854L168.743 101.708L159.808 102.446L159.264 95.8634L185.349 93.7086Z" fill="#FEFBF7"/>
    <path d="M191.345 93.2132L199.751 92.5188L195.435 105.84L189.911 106.296L191.345 93.2132Z" fill="#FEFBF7"/>
    <path d="M219.594 125.177C217.128 125.381 214.885 125.163 212.866 124.524C210.846 123.884 209.179 122.829 207.864 121.357C206.581 119.883 205.817 118.043 205.57 115.838L214.313 115.116C214.544 116.355 215.056 117.28 215.848 117.892C216.638 118.472 217.625 118.713 218.81 118.615C220.027 118.514 220.965 118.162 221.625 117.56C222.282 116.925 222.569 116.111 222.487 115.118C222.418 114.285 222.073 113.62 221.452 113.124C220.862 112.624 220.137 112.232 219.275 111.949C218.445 111.663 217.259 111.358 215.717 111.033C213.483 110.541 211.65 110.015 210.218 109.456C208.785 108.897 207.518 108.002 206.417 106.771C205.315 105.54 204.677 103.867 204.503 101.753C204.243 98.6138 205.178 96.0695 207.306 94.12C209.431 92.1384 212.32 90.9968 215.971 90.6952C219.685 90.3883 222.754 91.0379 225.176 92.6438C227.595 94.2176 229.016 96.5835 229.439 99.7413L220.551 100.475C220.397 99.3917 219.927 98.5759 219.14 98.0282C218.35 97.4484 217.379 97.2062 216.226 97.3014C215.233 97.3834 214.455 97.7218 213.892 98.3166C213.326 98.8794 213.084 99.6572 213.166 100.65C213.256 101.739 213.838 102.546 214.913 103.07C215.989 103.594 217.644 104.118 219.88 104.643C222.119 105.2 223.938 105.759 225.339 106.32C226.772 106.879 228.037 107.758 229.136 108.957C230.235 110.157 230.868 111.765 231.034 113.783C231.193 115.705 230.841 117.492 229.978 119.143C229.147 120.792 227.841 122.158 226.06 123.24C224.28 124.322 222.124 124.968 219.594 125.177Z" fill="#FEFBF7"/>
    <path d="M282.503 85.683L285.29 119.412L277.076 120.09L275.404 99.8626L269.534 120.713L262.904 121.261L253.638 101.612L255.314 121.888L247.1 122.566L244.312 88.8378L254.016 88.0362L265.409 110.605L272.847 86.4806L282.503 85.683Z" fill="#FEFBF7"/>
    <path d="M297.168 91.0988L297.732 97.9214L308.733 97.0126L309.257 103.355L298.256 104.263L298.868 111.663L311.31 110.635L311.854 117.217L291.197 118.924L288.41 85.195L309.066 83.4886L309.61 90.071L297.168 91.0988Z" fill="#FEFBF7"/>
    <path d="M325.109 80.954L326.05 104.048L319.085 104.623L316.222 81.6882L325.109 80.954ZM323.704 116.625C322.263 116.744 321.043 116.426 320.046 115.67C319.078 114.879 318.542 113.859 318.439 112.61C318.333 111.329 318.693 110.218 319.518 109.28C320.375 108.338 321.524 107.808 322.965 107.689C324.374 107.572 325.563 107.909 326.531 108.7C327.532 109.488 328.085 110.523 328.191 111.804C328.294 113.053 327.917 114.149 327.06 115.09C326.232 115.997 325.113 116.509 323.704 116.625Z" fill="#FEFBF7"/>
</svg>
