<svg width="1186" height="925" viewBox="0 0 1186 925" fill="none" xmlns="http://www.w3.org/2000/svg">
<path d="M1043.67 909C1043.67 917.837 1050.84 925 1059.67 925C1068.51 925 1075.67 917.837 1075.67 909C1075.67 900.163 1068.51 893 1059.67 893C1050.84 893 1043.67 900.163 1043.67 909ZM0.891602 104.319L1.78324 107.184C5.53838 106.015 9.31382 104.85 13.1089 103.69L12.2321 100.821L11.3553 97.9522C7.55031 99.1151 3.765 100.283 -3.45111e-05 101.455L0.891602 104.319ZM35.2637 93.9121L36.111 96.7899C43.7963 94.5273 51.5544 92.2857 59.3805 90.0679L58.5625 87.1816L57.7446 84.2953C49.8989 86.5186 42.1213 88.7658 34.4165 91.0342L35.2637 93.9121ZM81.6443 80.7642L82.4336 83.6585C90.1795 81.5462 97.9856 79.4588 105.847 77.3987L105.087 74.4967L104.326 71.5947C96.4454 73.6598 88.6201 75.7523 80.855 77.8699L81.6443 80.7642ZM128.314 68.5317L129.046 71.4411C136.802 69.4899 144.606 67.5669 152.454 65.6743L151.751 62.7579L151.048 59.8415C143.18 61.7387 135.357 63.6664 127.583 65.6224L128.314 68.5317ZM175.242 57.2161L175.916 60.1394C183.69 58.3461 191.502 56.5842 199.35 54.8557L198.704 51.926L198.059 48.9962C190.192 50.729 182.36 52.4953 174.568 54.2929L175.242 57.2161ZM222.379 46.8365L222.994 49.7727C230.799 48.1361 238.633 46.5342 246.495 44.9688L245.909 42.0266L245.324 39.0843C237.442 40.6537 229.587 42.2597 221.763 43.9004L222.379 46.8365ZM269.594 37.4378L270.149 40.3859C278.026 38.9022 285.926 37.4567 293.846 36.0515L293.321 33.0976L292.797 30.1438C284.857 31.5528 276.936 33.002 269.039 34.4896L269.594 37.4378ZM317.057 29.0173L317.549 31.9767C325.467 30.6596 333.4 29.3843 341.346 28.1528L340.887 25.1882L340.427 22.2236C332.459 23.4585 324.504 24.7373 316.564 26.058L317.057 29.0173ZM364.716 21.6325L365.142 24.6021C373.082 23.4636 381.031 22.3706 388.984 21.3248L388.593 18.3504L388.202 15.376C380.225 16.4248 372.253 17.5211 364.291 18.6629L364.716 21.6325ZM412.519 15.3507L412.875 18.3297C420.849 17.3789 428.825 16.4777 436.799 15.628L436.481 12.6449L436.164 9.66178C428.164 10.5142 420.163 11.4182 412.164 12.3718L412.519 15.3507ZM460.432 10.2481L460.711 13.235C468.725 12.4857 476.733 11.7903 484.732 11.151L484.493 8.16058L484.254 5.17012C476.228 5.81161 468.193 6.50927 460.153 7.26109L460.432 10.2481ZM508.519 6.40831L508.716 9.40182C516.733 8.87398 524.736 8.40472 532.723 7.99605L532.569 4.99997L532.416 2.00389C524.4 2.41408 516.367 2.88506 508.322 3.41479L508.519 6.40831ZM556.697 3.94944L556.804 6.94752C564.812 6.66087 572.799 6.43777 580.761 6.28025L580.702 3.28084L580.643 0.281424C572.648 0.439586 564.629 0.663593 556.59 0.951363L556.697 3.94944ZM604.9 3.00555L604.908 6.00553C612.945 5.98281 620.953 6.02997 628.927 6.14916L628.972 3.14949L629.017 0.149826C621.006 0.0300972 612.963 -0.0172629 604.891 0.00555706L604.9 3.00555ZM653.058 3.73373L652.957 6.73203C661.023 7.00422 669.05 7.35368 677.034 7.78269L677.195 4.78701L677.356 1.79133C669.331 1.36013 661.264 1.00894 653.16 0.735439L653.058 3.73373ZM701.098 6.32054L700.875 9.31218C708.963 9.91723 717.001 10.6082 724.986 11.3874L725.278 8.40163L725.569 5.41582C717.538 4.63204 709.454 3.93723 701.322 3.3289L701.098 6.32054ZM749.136 11.0147L748.773 13.9927C756.8 14.9698 764.765 16.0413 772.664 17.2097L773.103 14.242L773.542 11.2742C765.59 10.0981 757.574 9.01983 749.498 8.03666L749.136 11.0147ZM796.876 18.0878L796.356 21.0424C804.285 22.4381 812.14 23.9377 819.917 25.5438L820.524 22.6058L821.131 19.6678C813.295 18.0495 805.381 16.5389 797.396 15.1332L796.876 18.0878ZM844.107 27.8632L843.407 30.7804C851.206 32.6511 858.917 34.6365 866.534 36.7395L867.332 33.8477L868.131 30.9558C860.446 28.8342 852.669 26.8319 844.806 24.9459L844.107 27.8632ZM890.565 40.7206L889.66 43.5809C897.285 45.9931 904.806 48.5326 912.216 51.2026L913.233 48.3803L914.25 45.5579C906.763 42.8603 899.168 40.2956 891.469 37.8603L890.565 40.7206ZM935.88 57.0904L934.742 59.8662C942.131 62.8951 949.396 66.0657 956.531 69.3815L957.796 66.6609L959.06 63.9403C951.839 60.5846 944.489 57.3773 937.018 54.3145L935.88 57.0904ZM979.538 77.4281L978.139 80.0818C985.199 83.8047 992.115 87.6849 998.879 91.7262L1000.42 89.1508L1001.96 86.5754C995.098 82.4779 988.089 78.5456 980.937 74.7745L979.538 77.4281ZM1020.84 102.158L1019.16 104.64C1025.76 109.118 1032.19 113.769 1038.46 118.597L1040.29 116.221L1042.12 113.846C1035.76 108.942 1029.23 104.22 1022.53 99.6751L1020.84 102.158ZM1058.93 131.569L1056.95 133.822C1062.93 139.082 1068.73 144.528 1074.33 150.164L1076.46 148.048L1078.59 145.933C1072.89 140.2 1066.99 134.663 1060.91 129.316L1058.93 131.569ZM1092.84 165.689L1090.57 167.653C1095.77 173.662 1100.77 179.865 1105.57 186.267L1107.97 184.469L1110.37 182.67C1105.49 176.154 1100.4 169.841 1095.1 163.726L1092.84 165.689ZM1121.67 204.172L1119.15 205.797C1123.45 212.464 1127.54 219.326 1131.42 226.389L1134.05 224.945L1136.68 223.501C1132.73 216.315 1128.57 209.331 1124.19 202.546L1121.67 204.172ZM1144.84 246.299L1142.12 247.561C1145.46 254.761 1148.59 262.151 1151.51 269.736L1154.31 268.658L1157.11 267.579C1154.14 259.871 1150.96 252.358 1147.56 245.036L1144.84 246.299ZM1162.18 291.134L1159.31 292.037C1161.72 299.651 1163.92 307.447 1165.92 315.428L1168.83 314.699L1171.74 313.971C1169.71 305.875 1167.48 297.963 1165.04 290.232L1162.18 291.134ZM1173.93 337.764L1170.99 338.333C1172.49 346.127 1173.81 354.085 1174.94 362.211L1177.91 361.797L1180.89 361.384C1179.74 353.156 1178.4 345.094 1176.88 337.195L1173.93 337.764ZM1180.63 385.495L1177.65 385.767C1178.36 393.576 1178.9 401.531 1179.28 409.633L1182.27 409.495L1185.27 409.356C1184.89 401.167 1184.34 393.123 1183.62 385.223L1180.63 385.495ZM1182.89 433.931L1179.89 433.944C1179.92 441.643 1179.81 449.469 1179.55 457.422L1182.55 457.52L1185.55 457.618C1185.81 449.592 1185.92 441.692 1185.89 433.917L1182.89 433.931ZM1181.31 481.869L1178.32 481.665C1177.78 489.513 1177.11 497.479 1176.29 505.565L1179.28 505.866L1182.26 506.167C1183.08 498.019 1183.76 489.988 1184.31 482.074L1181.31 481.869ZM1176.54 529.444L1173.57 529.055C1172.53 536.995 1171.36 545.045 1170.05 553.206L1173.01 553.68L1175.98 554.153C1177.29 545.937 1178.47 537.831 1179.51 529.834L1176.54 529.444ZM1168.91 577.365L1165.96 576.815C1164.54 584.444 1163.01 592.165 1161.36 599.981L1164.3 600.6L1167.23 601.219C1168.89 593.358 1170.43 585.59 1171.86 577.914L1168.91 577.365ZM1159 624.397L1156.07 623.712C1154.24 631.513 1152.3 639.405 1150.25 647.388L1153.16 648.135L1156.06 648.881C1158.13 640.858 1160.08 632.925 1161.92 625.082L1159 624.397ZM1147.1 670.81L1144.21 670.008C1142.1 677.628 1139.88 685.329 1137.57 693.11L1140.45 693.965L1143.32 694.819C1145.65 687.003 1147.87 679.268 1149.99 671.612L1147.1 670.81ZM1133.19 717.603L1130.33 716.698C1127.98 724.144 1125.53 731.662 1123 739.252L1125.84 740.202L1128.69 741.152C1131.23 733.533 1133.69 725.985 1136.05 718.508L1133.19 717.603ZM1118.18 762.6L1115.35 761.607C1112.71 769.128 1109.99 776.718 1107.18 784.377L1109.99 785.41L1112.81 786.444C1115.63 778.758 1118.36 771.141 1121.01 763.593L1118.18 762.6ZM1101.28 808.635L1098.48 807.563C1095.7 814.828 1092.84 822.155 1089.91 829.542L1092.7 830.65L1095.49 831.757C1098.43 824.347 1101.3 816.997 1104.09 809.708L1101.28 808.635ZM1083.83 852.592L1081.05 851.451C1078.02 858.813 1074.92 866.234 1071.74 873.715L1074.51 874.888L1077.27 876.061C1080.45 868.559 1083.56 861.117 1086.6 853.733L1083.83 852.592ZM1064.73 897.54L1061.98 896.336C1060.32 900.136 1058.63 903.951 1056.93 907.781L1059.67 909L1062.41 910.219C1064.12 906.379 1065.81 902.554 1067.48 898.744L1064.73 897.54Z" fill="#86171E"/>
</svg>
