<svg width="380" height="241" viewBox="0 0 380 241" fill="none" xmlns="http://www.w3.org/2000/svg">
<path d="M301 0C301 93 279.565 113.059 214 155" stroke="#86171E" stroke-width="5" stroke-dasharray="15 15"/>
<path d="M0.83337 168.025C2.84696 150.111 18.9185 137.231 36.7301 139.256L350.812 174.966C368.623 176.992 381.43 193.155 379.417 211.069C377.403 228.982 361.332 241.862 343.52 239.837L29.4383 204.127C11.6266 202.102 -1.18022 185.939 0.83337 168.025Z" fill="#86171E"/>
<path d="M71.7401 161.767L68.4128 191.367L61.2435 190.552L64.5708 160.952L71.7401 161.767Z" fill="#FEFBF7"/>
<path d="M78.5708 162.544L85.9079 163.378L79.9419 174.144L75.1204 173.596L78.5708 162.544Z" fill="#FEFBF7"/>
<path d="M123.451 167.646L120.123 197.247L112.954 196.432L114.949 178.68L106.372 195.683L100.586 195.025L95.9617 176.478L93.9615 194.272L86.7922 193.457L90.1195 163.857L98.5885 164.819L104.544 186.251L115.024 166.688L123.451 167.646Z" fill="#FEFBF7"/>
<path d="M162.982 172.141L159.655 201.741L152.485 200.926L153.855 188.74L142.703 187.472L141.333 199.658L134.164 198.843L137.491 169.243L144.66 170.058L143.357 181.653L154.509 182.921L155.813 171.326L162.982 172.141Z" fill="#FEFBF7"/>
<path d="M178.717 204.208C175.949 203.893 173.479 202.957 171.304 201.4C169.157 199.847 167.529 197.839 166.418 195.379C165.339 192.893 164.962 190.202 165.288 187.307C165.613 184.412 166.576 181.888 168.177 179.735C169.806 177.586 171.839 175.995 174.276 174.962C176.741 173.933 179.357 173.576 182.124 173.89C184.892 174.205 187.348 175.139 189.495 176.693C191.67 178.249 193.284 180.255 194.339 182.71C195.421 185.167 195.8 187.844 195.474 190.739C195.149 193.634 194.184 196.173 192.58 198.353C190.98 200.506 188.961 202.098 186.523 203.131C184.086 204.163 181.484 204.522 178.717 204.208ZM179.456 197.63C181.804 197.897 183.765 197.322 185.34 195.907C186.942 194.495 187.889 192.496 188.179 189.91C188.473 187.295 187.994 185.134 186.742 183.426C185.522 181.693 183.738 180.693 181.39 180.426C179.014 180.156 177.026 180.713 175.427 182.097C173.856 183.484 172.922 185.499 172.625 188.141C172.331 190.755 172.794 192.929 174.015 194.662C175.266 196.37 177.08 197.36 179.456 197.63Z" fill="#FEFBF7"/>
<path d="M211.676 207.955C208.909 207.64 206.438 206.705 204.264 205.148C202.117 203.594 200.488 201.587 199.378 199.126C198.299 196.64 197.922 193.95 198.247 191.054C198.572 188.159 199.536 185.635 201.136 183.482C202.765 181.333 204.798 179.742 207.235 178.71C209.701 177.68 212.317 177.323 215.084 177.638C217.851 177.952 220.308 178.886 222.454 180.44C224.629 181.997 226.244 184.002 227.298 186.457C228.381 188.915 228.759 191.591 228.434 194.486C228.108 197.382 227.144 199.92 225.54 202.101C223.939 204.253 221.92 205.846 219.483 206.878C217.045 207.911 214.443 208.27 211.676 207.955ZM212.415 201.377C214.763 201.644 216.724 201.07 218.299 199.654C219.901 198.242 220.848 196.243 221.139 193.657C221.433 191.043 220.954 188.881 219.702 187.173C218.481 185.44 216.697 184.44 214.349 184.173C211.973 183.903 209.986 184.46 208.387 185.844C206.815 187.231 205.881 189.246 205.584 191.889C205.29 194.503 205.754 196.677 206.974 198.41C208.226 200.118 210.04 201.107 212.415 201.377Z" fill="#FEFBF7"/>
<path d="M247.813 211.765L239.388 197.568L237.919 210.64L230.749 209.825L234.076 180.224L241.246 181.039L239.786 194.026L251.057 182.155L259.484 183.113L246.449 196.321L256.576 212.761L247.813 211.765Z" fill="#FEFBF7"/>
<path d="M269.83 190.14L269.157 196.127L278.758 197.219L278.132 202.785L268.531 201.693L267.802 208.187L278.66 209.421L278.011 215.198L259.983 213.148L263.31 183.548L281.338 185.597L280.689 191.374L269.83 190.14Z" fill="#FEFBF7"/>
<path d="M297.019 187.38C300.122 187.733 302.764 188.66 304.944 190.16C307.125 191.661 308.718 193.607 309.723 195.999C310.759 198.366 311.113 201.011 310.784 203.935C310.459 206.83 309.527 209.329 307.988 211.432C306.478 213.538 304.479 215.076 301.992 216.046C299.533 217.019 296.767 217.331 293.692 216.981L282.665 215.727L285.993 186.127L297.019 187.38ZM293.932 210.688C296.644 210.996 298.838 210.491 300.514 209.173C302.191 207.855 303.183 205.832 303.489 203.105C303.796 200.379 303.28 198.17 301.941 196.481C300.602 194.791 298.577 193.792 295.866 193.484L292.47 193.098L290.536 210.302L293.932 210.688Z" fill="#FEFBF7"/>
<path d="M326.006 189.608L322.898 209.711L316.818 209.019L318.25 188.727L326.006 189.608ZM318.749 220.172C317.492 220.029 316.499 219.545 315.77 218.722C315.073 217.874 314.786 216.902 314.909 215.806C315.035 214.682 315.533 213.784 316.401 213.114C317.296 212.448 318.373 212.186 319.631 212.329C320.861 212.468 321.824 212.962 322.522 213.81C323.247 214.661 323.546 215.649 323.42 216.774C323.297 217.87 322.787 218.752 321.891 219.418C321.027 220.06 319.979 220.311 318.749 220.172Z" fill="#FEFBF7"/>
</svg>
