<svg width="293" height="244" viewBox="0 0 293 244" fill="none" xmlns="http://www.w3.org/2000/svg">
    <path d="M290 1C269.51 119.454 233.004 165.969 130 202" stroke="#86171E" stroke-width="5" stroke-dasharray="15 15"/>
    <path d="M0.771326 208.762C-3.22133 185.864 12.105 164.064 35.0037 160.071L159.389 138.383C182.287 134.391 204.087 149.717 208.08 172.616C212.073 195.514 196.746 217.314 173.847 221.307L49.4624 242.995C26.5637 246.987 4.76398 231.661 0.771326 208.762Z" fill="#86171E"/>
    <path d="M81.5459 174.916L72.8653 202.533L75.0456 215.037L65.8287 216.644L63.6483 204.14L46.1335 181.09L56.5901 179.267L66.6836 193.836L71.1971 176.72L81.5459 174.916Z" fill="#FEFBF7"/>
    <path d="M95.764 180.045L97.0986 187.699L109.442 185.547L110.682 192.662L98.3391 194.814L99.7864 203.115L113.747 200.681L115.034 208.065L91.857 212.106L85.2595 174.268L108.437 170.227L109.724 177.611L95.764 180.045Z" fill="#FEFBF7"/>
    <path d="M134.774 205.012C132.007 205.494 129.45 205.477 127.101 204.961C124.753 204.445 122.76 203.423 121.123 201.894C119.523 200.358 118.47 198.357 117.966 195.891L127.776 194.18C128.164 195.556 128.837 196.55 129.795 197.16C130.747 197.735 131.888 197.906 133.217 197.674C134.583 197.436 135.608 196.943 136.292 196.194C136.969 195.41 137.211 194.46 137.017 193.346C136.854 192.412 136.396 191.696 135.643 191.198C134.925 190.693 134.065 190.325 133.062 190.093C132.094 189.854 130.722 189.63 128.946 189.422C126.371 189.093 124.245 188.686 122.568 188.201C120.892 187.716 119.368 186.834 117.997 185.555C116.626 184.276 115.734 182.451 115.32 180.079C114.706 176.557 115.503 173.586 117.709 171.165C119.91 168.708 123.058 167.122 127.155 166.408C131.323 165.681 134.858 166.101 137.76 167.669C140.656 169.2 142.504 171.729 143.304 175.255L133.332 176.994C133.048 175.785 132.432 174.911 131.487 174.372C130.535 173.798 129.412 173.623 128.119 173.849C127.005 174.043 126.16 174.505 125.584 175.235C125.001 175.929 124.807 176.833 125.001 177.947C125.214 179.168 125.955 180.02 127.224 180.503C128.493 180.985 130.418 181.408 132.999 181.773C135.587 182.173 137.701 182.619 139.342 183.111C141.019 183.596 142.539 184.46 143.904 185.703C145.268 186.946 146.148 188.7 146.543 190.963C146.919 193.119 146.703 195.175 145.896 197.13C145.125 199.079 143.789 200.756 141.886 202.161C139.984 203.567 137.613 204.517 134.774 205.012Z" fill="#FEFBF7"/>
    <path d="M159.474 159.939L162.898 185.946L155.082 187.308L149.503 161.678L159.474 159.939ZM161.531 200.402C159.914 200.684 158.503 200.449 157.298 199.696C156.123 198.901 155.413 197.803 155.168 196.402C154.918 194.964 155.211 193.673 156.048 192.527C156.921 191.375 158.166 190.658 159.783 190.377C161.364 190.101 162.742 190.36 163.917 191.155C165.129 191.944 165.86 193.057 166.11 194.494C166.355 195.895 166.04 197.172 165.167 198.324C164.324 199.434 163.112 200.126 161.531 200.402Z" fill="#FEFBF7"/>
</svg>
