<svg width="303" height="263" viewBox="0 0 303 263" fill="none" xmlns="http://www.w3.org/2000/svg">
<path d="M300 1C279.51 119.454 243.004 165.969 140 202" stroke="#86171E" stroke-width="5" stroke-dasharray="15 15"/>
<path d="M10.2857 209.012C6.65082 188.165 20.604 168.319 41.451 164.684L154.692 144.939C175.539 141.304 195.385 155.257 199.02 176.104C202.655 196.951 188.702 216.798 167.855 220.433L54.6142 240.178C33.7672 243.813 13.9207 229.859 10.2857 209.012Z" fill="#86171E"/>
<path d="M83.8232 178.198L75.9203 203.341L77.9053 214.725L69.5142 216.188L67.5292 204.804L51.5836 183.82L61.1033 182.16L70.2925 195.423L74.4016 179.841L83.8232 178.198Z" fill="#FEFBF7"/>
<path d="M96.7674 182.868L97.9824 189.836L109.22 187.877L110.349 194.354L99.1118 196.314L100.429 203.871L113.139 201.655L114.311 208.377L93.2105 212.057L87.2041 177.609L108.305 173.93L109.477 180.652L96.7674 182.868Z" fill="#FEFBF7"/>
<path d="M132.283 205.598C129.764 206.037 127.435 206.022 125.297 205.552C123.159 205.082 121.345 204.151 119.855 202.759C118.398 201.361 117.439 199.54 116.98 197.294L125.911 195.737C126.265 196.99 126.877 197.894 127.75 198.45C128.616 198.973 129.655 199.129 130.865 198.918C132.108 198.701 133.041 198.252 133.664 197.57C134.281 196.856 134.501 195.992 134.324 194.978C134.176 194.127 133.759 193.475 133.073 193.022C132.42 192.562 131.637 192.227 130.723 192.015C129.843 191.798 128.594 191.595 126.976 191.405C124.632 191.106 122.697 190.735 121.17 190.293C119.644 189.852 118.256 189.049 117.008 187.884C115.76 186.72 114.948 185.058 114.572 182.899C114.013 179.693 114.738 176.988 116.747 174.784C118.75 172.547 121.616 171.103 125.346 170.453C129.14 169.791 132.359 170.174 135.001 171.601C137.637 172.995 139.32 175.297 140.048 178.507L130.97 180.09C130.71 178.989 130.15 178.194 129.29 177.703C128.423 177.18 127.401 177.021 126.223 177.227C125.209 177.404 124.44 177.824 123.915 178.489C123.385 179.121 123.208 179.944 123.385 180.958C123.579 182.07 124.254 182.846 125.409 183.285C126.564 183.724 128.317 184.109 130.667 184.441C133.022 184.805 134.947 185.211 136.441 185.659C137.967 186.101 139.352 186.887 140.594 188.019C141.836 189.151 142.637 190.747 142.997 192.808C143.339 194.771 143.143 196.642 142.408 198.422C141.706 200.196 140.489 201.723 138.757 203.003C137.025 204.282 134.867 205.147 132.283 205.598Z" fill="#FEFBF7"/>
<path d="M154.769 164.564L157.886 188.24L150.771 189.481L145.691 166.147L154.769 164.564ZM156.642 201.401C155.17 201.658 153.885 201.443 152.788 200.758C151.718 200.035 151.072 199.035 150.849 197.759C150.621 196.451 150.888 195.275 151.65 194.232C152.445 193.183 153.578 192.531 155.05 192.274C156.49 192.023 157.744 192.259 158.814 192.983C159.917 193.701 160.583 194.714 160.811 196.022C161.033 197.298 160.747 198.46 159.952 199.509C159.185 200.519 158.081 201.15 156.642 201.401Z" fill="#FEFBF7"/>
</svg>
