<svg width="252" height="607" viewBox="0 0 252 607" fill="none" xmlns="http://www.w3.org/2000/svg">
    <path d="M29.2686 0C29.2686 83.5871 141.695 155.621 182.058 196.396C222.422 237.17 355.22 361.531 75.445 604.817" stroke="#86171E" stroke-width="5" stroke-dasharray="15 15"/>
    <path d="M3.87082 137.014C-4.15175 121.048 2.28713 101.602 18.2525 93.5798L104.976 50.0014C120.941 41.9788 140.387 48.4177 148.41 64.383C156.432 80.3484 149.993 99.7944 134.028 107.817L47.3047 151.395C31.3394 159.418 11.8934 152.979 3.87082 137.014Z" fill="#86171E"/>
    <path d="M55.8002 94.1703L55.5437 116.422L59.9248 125.14L53.4986 128.37L49.1175 119.651L31.1101 106.577L38.4006 102.914L49.0634 111.394L48.5848 97.7961L55.8002 94.1703Z" fill="#FEFBF7"/>
    <path d="M67.4027 94.7886L70.0842 100.125L78.6901 95.8005L81.1828 100.761L72.5769 105.086L75.4851 110.873L85.2183 105.982L87.8054 111.13L71.646 119.251L58.3894 92.8693L74.5489 84.7492L77.136 89.8976L67.4027 94.7886Z" fill="#FEFBF7"/>
    <path d="M101.655 104.501C99.7258 105.47 97.8397 106.025 95.9968 106.167C94.1538 106.309 92.4603 105.999 90.9165 105.237C89.3977 104.462 88.1789 103.223 87.2601 101.52L94.0997 98.0829C94.6909 99.0097 95.4068 99.5913 96.2474 99.8279C97.0754 100.039 97.9529 99.9123 98.8799 99.4465C99.8319 98.9681 100.477 98.3774 100.814 97.6746C101.138 96.9466 101.105 96.1943 100.715 95.4177C100.388 94.7663 99.8917 94.3409 99.2267 94.1417C98.5868 93.9298 97.8719 93.8497 97.082 93.9014C96.3172 93.9406 95.2579 94.0806 93.9041 94.3216C91.9361 94.6515 90.2813 94.8241 88.9396 94.8393C87.5979 94.8545 86.2807 94.5437 84.9879 93.9068C83.6951 93.2698 82.6332 92.1246 81.8023 90.4711C80.5686 88.0159 80.4949 85.6524 81.5812 83.3806C82.655 81.0837 84.62 79.2177 87.4761 77.7826C90.3822 76.3222 93.0772 75.8466 95.561 76.3557C98.0322 76.8398 99.9536 78.2906 101.325 80.7079L94.3729 84.2014C93.8948 83.3748 93.248 82.8682 92.4326 82.6818C91.6046 82.4703 90.7396 82.5911 89.8377 83.0443C89.061 83.4346 88.5417 83.9623 88.2797 84.6274C88.0051 85.2674 88.0629 85.9758 88.4532 86.7525C88.8813 87.6043 89.6157 88.0668 90.6566 88.1399C91.6975 88.2131 93.2083 88.0972 95.1889 87.7923C97.1821 87.5125 98.837 87.3712 100.154 87.3686C101.495 87.3534 102.806 87.6517 104.086 88.2636C105.367 88.8754 106.403 89.9705 107.196 91.5489C107.952 93.0521 108.25 94.6127 108.09 96.2305C107.955 97.8358 107.344 99.3669 106.256 100.824C105.168 102.28 103.634 103.506 101.655 104.501Z" fill="#FEFBF7"/>
    <path d="M109.825 65.8463L118.119 84.2248L112.67 86.963L102.873 69.3398L109.825 65.8463ZM120.322 95.1672C119.195 95.7337 118.104 95.8739 117.05 95.5876C116.009 95.2636 115.243 94.6131 114.752 93.636C114.248 92.6339 114.177 91.6183 114.539 90.5894C114.925 89.5479 115.683 88.7438 116.81 88.1773C117.912 87.6234 118.984 87.5084 120.026 87.8323C121.092 88.1437 121.877 88.8004 122.381 89.8026C122.872 90.7796 122.924 91.7889 122.537 92.8305C122.163 93.8344 121.425 94.6133 120.322 95.1672Z" fill="#FEFBF7"/>
</svg>
