<svg width="257" height="349" viewBox="0 0 257 349" fill="none" xmlns="http://www.w3.org/2000/svg">
<path d="M5.50039 0.5C-8.49902 105 28.5004 205 169 269" stroke="#FA4238" stroke-width="5" stroke-dasharray="15 15"/>
<path d="M17.1546 295.773C13.3497 277.951 24.7132 260.418 42.5356 256.613L208.055 221.277C225.878 217.472 243.41 228.835 247.215 246.658C251.02 264.48 239.656 282.013 221.834 285.818L56.3143 321.154C38.4919 324.959 20.9595 313.596 17.1546 295.773Z" fill="#FA4238"/>
<path d="M70.8123 270.004L77.0995 299.454L69.9258 300.986L63.6386 271.536L70.8123 270.004Z" fill="#FEFBF7"/>
<path d="M77.6471 268.545L84.9886 266.978L82.6903 279.224L77.8658 280.254L77.6471 268.545Z" fill="#FEFBF7"/>
<path d="M122.554 258.958L128.841 288.408L121.668 289.94L117.897 272.278L115.081 291.346L109.292 292.582L98.8842 276.293L102.664 293.997L95.49 295.528L89.2027 266.078L97.6769 264.269L110.294 282.893L114.122 260.758L122.554 258.958Z" fill="#FEFBF7"/>
<path d="M143.777 254.427L150.064 283.877L142.89 285.409L136.603 255.959L143.777 254.427Z" fill="#FEFBF7"/>
<path d="M181.608 277.143L174.434 278.674L158.558 263.071L162.436 281.236L155.263 282.767L148.975 253.317L156.149 251.786L172.043 267.473L168.147 249.225L175.321 247.693L181.608 277.143Z" fill="#FEFBF7"/>
<path d="M189.736 243.519L193.187 263.793L187.104 265.091L181.975 245.176L189.736 243.519ZM192.543 275.159C191.285 275.428 190.172 275.285 189.206 274.731C188.262 274.143 187.673 273.304 187.44 272.213C187.201 271.095 187.393 270.074 188.015 269.152C188.665 268.223 189.619 267.625 190.877 267.356C192.108 267.094 193.195 267.256 194.14 267.844C195.112 268.426 195.718 269.276 195.956 270.395C196.189 271.486 195.981 272.495 195.331 273.424C194.703 274.318 193.774 274.897 192.543 275.159Z" fill="#FEFBF7"/>
</svg>
