<svg width="161" height="244" viewBox="0 0 161 244" fill="none" xmlns="http://www.w3.org/2000/svg">
<path d="M128.353 16.0055C128.353 24.8451 135.519 32.011 144.358 32.011C153.198 32.011 160.364 24.8451 160.364 16.0055C160.364 7.16591 153.198 0 144.358 0C135.519 0 128.353 7.16591 128.353 16.0055ZM2.30951 242.083L4.61907 244C7.02176 241.104 9.39256 238.217 11.7316 235.342L9.40343 233.448L7.07524 231.554C4.74845 234.415 2.39007 237.286 -4.88926e-05 240.167L2.30951 242.083ZM23.3311 215.977L25.6961 217.824C30.3739 211.836 34.911 205.905 39.3089 200.039L36.9079 198.239L34.5068 196.439C30.1324 202.273 25.6194 208.173 20.9662 214.129L23.3311 215.977ZM50.1264 180.237L52.5632 181.989C57.0192 175.79 61.3135 169.681 65.4479 163.675L62.9759 161.973L60.5038 160.272C56.3924 166.245 52.1216 172.32 47.6897 178.485L50.1264 180.237ZM75.4388 143.455L77.9461 145.104C82.1758 138.674 86.2101 132.386 90.0516 126.257L87.5089 124.663L84.9661 123.069C81.1476 129.161 77.137 135.412 72.9315 141.806L75.4388 143.455ZM99.1609 105.594L101.74 107.128C105.736 100.414 109.474 93.9402 112.959 87.735L110.343 86.2654L107.726 84.7958C104.265 90.9573 100.552 97.3873 96.582 104.059L99.1609 105.594ZM121.009 66.645L123.666 68.0399C127.443 60.846 130.806 54.1477 133.764 48.0032L131.061 46.7012L128.357 45.3992C125.429 51.4786 122.097 58.1149 118.352 65.2501L121.009 66.645ZM140.267 26.3811L143.034 27.5419C144.695 23.5828 146.075 20.0666 147.179 17.0309L144.358 16.0055L141.538 14.9801C140.473 17.9082 139.13 21.3328 137.499 25.2203L140.267 26.3811Z" fill="#86171E"/>
</svg>
