
<svg width="389" height="410" viewBox="0 0 389 410" fill="none" xmlns="http://www.w3.org/2000/svg">
    <path d="M196.602 34.6857C251.097 22.9018 362.436 14.4698 371.83 75.0132C383.572 150.692 -12.5839 242.053 20.5045 408.942" stroke="#86171E" stroke-width="3" stroke-dasharray="12 12"/>
    <rect x="254.993" width="100" height="40" rx="20" transform="rotate(6.44986 254.993 0)" fill="#86171E"/>
    <path d="M294.106 15.2384L286.455 26.6713L285.777 32.6651L281.36 32.1657L282.037 26.1719L277.132 13.3195L282.144 13.8861L284.799 21.8789L289.145 14.6776L294.106 15.2384ZM299.904 19.4785L299.489 23.1471L305.405 23.816L305.02 27.2262L299.103 26.5574L298.653 30.5361L305.345 31.2925L304.945 34.832L293.835 33.5761L295.886 15.4396L306.995 16.6955L306.595 20.235L299.904 19.4785ZM314.355 36.0789C313.028 35.929 311.864 35.5793 310.862 35.03C309.86 34.4806 309.088 33.7479 308.547 32.8319C308.022 31.9179 307.81 30.8647 307.91 29.6724L312.612 30.2039C312.605 30.8834 312.779 31.4264 313.134 31.8329C313.491 32.2222 313.988 32.4528 314.626 32.5249C315.28 32.5989 315.813 32.5109 316.225 32.2609C316.639 31.9937 316.876 31.5932 316.937 31.0592C316.987 30.6114 316.874 30.2236 316.597 29.8957C316.338 29.5698 315.995 29.2868 315.568 29.0467C315.159 28.8086 314.563 28.5232 313.781 28.1906C312.651 27.6965 311.736 27.2267 311.036 26.7813C310.336 26.3359 309.759 25.7299 309.305 24.9634C308.851 24.1968 308.688 23.2452 308.817 22.1084C309.008 20.4205 309.768 19.172 311.098 18.363C312.43 17.5367 314.078 17.2345 316.041 17.4565C318.039 17.6824 319.595 18.3467 320.709 19.4495C321.825 20.535 322.329 21.9352 322.223 23.6501L317.443 23.1098C317.475 22.5203 317.311 22.0395 316.952 21.6675C316.595 21.2782 316.106 21.0485 315.486 20.9784C314.952 20.9181 314.505 21.0158 314.145 21.2716C313.786 21.5102 313.577 21.8965 313.517 22.4304C313.45 23.016 313.674 23.5036 314.188 23.8931C314.703 24.2827 315.524 24.7331 316.652 25.2444C317.779 25.773 318.683 26.259 319.366 26.7025C320.065 27.1479 320.643 27.7453 321.099 28.4946C321.555 29.2439 321.722 30.1611 321.599 31.2462C321.483 32.2796 321.109 33.1881 320.48 33.9717C319.868 34.7572 319.034 35.3433 317.979 35.7298C316.923 36.1164 315.715 36.2327 314.355 36.0789ZM331.644 18.8279L329.728 31.1447L325.982 30.7212L326.864 18.2876L331.644 18.8279ZM327.172 37.5541C326.397 37.4665 325.785 37.1705 325.336 36.6662C324.907 36.1467 324.73 35.551 324.806 34.8793C324.884 34.1904 325.19 33.6407 325.725 33.2301C326.277 32.8216 326.94 32.6611 327.715 32.7487C328.473 32.8344 329.067 33.137 329.497 33.6566C329.944 34.1781 330.128 34.7833 330.05 35.4722C329.974 36.1439 329.66 36.6841 329.108 37.0927C328.575 37.486 327.93 37.6398 327.172 37.5541Z" fill="#FEFBF7"/>
</svg>
