<svg width="433" height="588" viewBox="0 0 433 588" fill="none" xmlns="http://www.w3.org/2000/svg">
<path d="M247.499 1.5C275.332 57.5 242.319 112.946 179.499 270C124.5 407.5 163.903 536.5 165.07 587.5" stroke="#86171E" stroke-width="5" stroke-dasharray="15 15"/>
<path d="M1.40137 160.541C2.82821 141.39 19.5067 127.022 38.6538 128.449L399.126 155.322C418.273 156.75 432.638 173.432 431.211 192.583C429.784 211.734 413.106 226.101 393.959 224.674L33.4868 197.801C14.3397 196.373 -0.025461 179.692 1.40137 160.541Z" fill="#86171E"/>
<path d="M79.6147 150.925L79.1546 157.101L70.7716 156.476L68.874 181.945L61.1671 181.371L63.0647 155.901L54.6818 155.276L55.1419 149.101L79.6147 150.925Z" fill="#FEFBF7"/>
<path d="M90.7294 157.964L90.2524 164.365L100.573 165.134L100.13 171.085L89.8091 170.315L89.2919 177.257L100.965 178.127L100.505 184.303L81.1249 182.858L83.4826 151.213L102.863 152.658L102.402 158.834L90.7294 157.964Z" fill="#FEFBF7"/>
<path d="M113.658 179.3L123.754 180.053L123.311 186.003L105.508 184.676L107.866 153.031L115.573 153.606L113.658 179.3Z" fill="#FEFBF7"/>
<path d="M135.137 180.902L145.233 181.654L144.789 187.605L126.987 186.277L129.344 154.632L137.051 155.207L135.137 180.902Z" fill="#FEFBF7"/>
<path d="M196.204 159.617L193.846 191.262L186.14 190.687L187.553 171.709L179.064 190.16L172.844 189.696L167.14 170.142L165.723 189.165L158.016 188.591L160.374 156.946L169.478 157.624L176.724 180.194L187.145 158.941L196.204 159.617Z" fill="#FEFBF7"/>
<path d="M208.993 166.78L208.516 173.181L218.837 173.951L218.394 179.901L208.073 179.132L207.556 186.074L219.229 186.944L218.769 193.12L199.389 191.675L201.746 160.03L221.126 161.475L220.666 167.65L208.993 166.78Z" fill="#FEFBF7"/>
<path d="M271.511 165.231L269.153 196.876L261.446 196.301L262.86 177.323L254.37 195.774L248.151 195.31L242.447 175.756L241.03 194.779L233.323 194.205L235.681 162.56L244.785 163.238L252.031 185.808L262.452 164.555L271.511 165.231Z" fill="#FEFBF7"/>
<path d="M289.635 198.72C286.66 198.498 283.978 197.603 281.587 196.035C279.226 194.469 277.401 192.399 276.113 189.825C274.856 187.223 274.343 184.374 274.574 181.279C274.805 178.183 275.733 175.457 277.359 173.101C279.014 170.746 281.126 168.969 283.693 167.771C286.289 166.574 289.075 166.087 292.05 166.309C295.024 166.53 297.692 167.424 300.053 168.99C302.444 170.559 304.253 172.628 305.482 175.197C306.741 177.769 307.255 180.603 307.024 183.698C306.793 186.793 305.864 189.535 304.236 191.921C302.61 194.278 300.514 196.056 297.947 197.255C295.38 198.453 292.61 198.942 289.635 198.72ZM290.159 191.688C292.683 191.876 294.759 191.185 296.386 189.614C298.044 188.045 298.976 185.878 299.182 183.113C299.39 180.319 298.79 178.038 297.38 176.27C296.003 174.476 294.053 173.484 291.529 173.296C288.975 173.105 286.871 173.78 285.215 175.318C283.59 176.859 282.672 179.042 282.461 181.867C282.253 184.662 282.837 186.957 284.214 188.752C285.623 190.519 287.605 191.497 290.159 191.688Z" fill="#FEFBF7"/>
<path d="M326.261 201.133L320.571 188.697L318.723 188.559L317.833 200.505L310.126 199.93L312.484 168.285L325.419 169.25C327.913 169.435 329.998 170.029 331.676 171.031C333.384 172.034 334.616 173.335 335.374 174.933C336.133 176.5 336.443 178.216 336.304 180.079C336.148 182.182 335.407 184.016 334.082 185.579C332.787 187.145 330.957 188.187 328.592 188.706L334.959 201.782L326.261 201.133ZM319.129 183.105L323.907 183.461C325.319 183.566 326.396 183.299 327.139 182.659C327.911 182.022 328.345 181.072 328.439 179.81C328.528 178.608 328.238 177.634 327.569 176.889C326.929 176.146 325.903 175.722 324.491 175.617L319.714 175.261L319.129 183.105Z" fill="#FEFBF7"/>
<path d="M349.131 177.227L348.654 183.629L358.975 184.398L358.532 190.348L348.211 189.579L347.694 196.521L359.367 197.391L358.907 203.567L339.527 202.122L341.885 170.477L361.265 171.922L360.804 178.098L349.131 177.227Z" fill="#FEFBF7"/>
<path d="M367.489 204.569C366.137 204.469 365.054 203.995 364.241 203.149C363.46 202.275 363.114 201.251 363.201 200.079C363.29 198.877 363.786 197.902 364.688 197.153C365.62 196.407 366.762 196.084 368.114 196.185C369.436 196.283 370.487 196.77 371.268 197.644C372.079 198.52 372.44 199.559 372.35 200.761C372.263 201.934 371.753 202.893 370.821 203.639C369.922 204.358 368.811 204.668 367.489 204.569Z" fill="#FEFBF7"/>
</svg>
