<svg width="383" height="90" viewBox="0 0 383 90" fill="none" xmlns="http://www.w3.org/2000/svg">
<path d="M0.962901 34.1244C2.09839 14.2104 19.1624 -1.01267 39.0764 0.122824L348.338 17.7568C368.252 18.8923 383.475 35.9563 382.34 55.8703C381.204 75.7844 364.14 91.0074 344.226 89.8719L34.9644 72.2379C15.0504 71.1024 -0.172587 54.0384 0.962901 34.1244Z" fill="#86171E"/>
<path d="M59.1676 20.7037L58.8014 27.1256L50.0827 26.6284L48.5726 53.1127L40.557 52.6556L42.0671 26.1714L33.3484 25.6742L33.7145 19.2524L59.1676 20.7037Z" fill="#FEFBF7"/>
<path d="M91.6902 22.5581L89.814 55.4642L81.7984 55.0072L82.5708 41.4604L70.1021 40.7494L69.3297 54.2962L61.3141 53.8392L63.1904 20.9331L71.206 21.3901L70.471 34.2807L82.9396 34.9917L83.6747 22.1011L91.6902 22.5581Z" fill="#FEFBF7"/>
<path d="M105.126 29.767L104.747 36.4232L115.481 37.0353L115.128 43.2227L104.394 42.6107L103.982 49.8294L116.123 50.5216L115.757 56.9435L95.6004 55.7942L97.4767 22.8881L117.633 24.0374L117.267 30.4592L105.126 29.767Z" fill="#FEFBF7"/>
<path d="M156.442 26.2502L156.076 32.6721L147.357 32.175L145.847 58.6592L137.831 58.2022L139.341 31.7179L130.623 31.2208L130.989 24.7989L156.442 26.2502Z" fill="#FEFBF7"/>
<path d="M175.37 60.3426L169.234 47.5305L167.312 47.421L166.604 59.8428L158.588 59.3857L160.465 26.4796L173.918 27.2467C176.512 27.3946 178.689 27.9733 180.45 28.9829C182.242 29.9943 183.545 31.3227 184.361 32.9681C185.178 34.5823 185.531 36.3581 185.421 38.2956C185.296 40.4831 184.56 42.4006 183.212 44.0481C181.895 45.6973 180.013 46.8127 177.566 47.3943L184.416 60.8584L175.37 60.3426ZM167.636 41.7491L172.604 42.0324C174.073 42.1162 175.187 41.8192 175.947 41.1414C176.738 40.4654 177.171 39.4712 177.246 38.1587C177.317 36.9087 176.998 35.9029 176.289 35.1414C175.612 34.3817 174.538 33.96 173.07 33.8762L168.101 33.5929L167.636 41.7491Z" fill="#FEFBF7"/>
<path d="M198.918 28.6722L197.796 48.3596C197.683 50.3284 198.081 51.8716 198.989 52.9894C199.898 54.1071 201.289 54.7194 203.164 54.8263C205.039 54.9332 206.507 54.484 207.568 53.4785C208.628 52.473 209.215 50.9859 209.327 49.0171L210.449 29.3297L218.465 29.7868L217.345 49.4273C217.178 52.3648 216.411 54.8135 215.045 56.7735C213.679 58.7335 211.905 60.1685 209.721 61.0786C207.568 61.9904 205.195 62.3724 202.601 62.2245C200.008 62.0766 197.708 61.4439 195.702 60.3263C193.73 59.1792 192.208 57.5562 191.136 55.4573C190.066 53.3271 189.615 50.7932 189.783 47.8557L190.903 28.2152L198.918 28.6722Z" fill="#FEFBF7"/>
<path d="M247.765 31.4575L247.399 37.8793L238.681 37.3822L237.17 63.8664L229.155 63.4094L230.665 36.9251L221.946 36.428L222.312 30.0061L247.765 31.4575Z" fill="#FEFBF7"/>
<path d="M280.288 33.3119L278.412 66.218L270.396 65.761L271.169 52.2141L258.7 51.5032L257.928 65.05L249.912 64.593L251.788 31.6868L259.804 32.1439L259.069 45.0345L271.537 45.7454L272.273 32.8548L280.288 33.3119Z" fill="#FEFBF7"/>
<path d="M304.024 34.6653L302.147 67.5714L294.132 67.1143L296.008 34.2082L304.024 34.6653Z" fill="#FEFBF7"/>
<path d="M319.844 68.9096C317.437 68.7724 315.303 68.2588 313.442 67.3689C311.58 66.479 310.115 65.2354 309.046 63.6382C308.008 62.0428 307.519 60.1653 307.58 58.0054L316.111 58.4919C316.167 59.7178 316.535 60.6793 317.216 61.3765C317.899 62.0425 318.819 62.4085 319.975 62.4744C321.163 62.5421 322.116 62.33 322.833 61.8379C323.553 61.3146 323.94 60.5686 323.996 59.5998C324.042 58.7873 323.799 58.0994 323.267 57.5361C322.766 56.9746 322.119 56.4988 321.326 56.1087C320.564 55.7204 319.462 55.2656 318.018 54.7444C315.93 53.967 314.233 53.2118 312.927 52.479C311.621 51.7461 310.52 50.7114 309.624 49.3749C308.728 48.0385 308.339 46.339 308.457 44.2765C308.631 41.214 309.877 38.8866 312.194 37.2944C314.512 35.6709 317.453 34.9607 321.015 35.1639C324.64 35.3706 327.512 36.4122 329.631 38.2887C331.752 40.1339 332.802 42.6079 332.782 45.7105L324.11 45.2161C324.108 44.15 323.765 43.2996 323.08 42.6649C322.397 41.9989 321.493 41.6338 320.368 41.5697C319.399 41.5144 318.603 41.7355 317.979 42.2329C317.356 42.6991 317.018 43.4165 316.963 44.3853C316.902 45.4477 317.355 46.3044 318.321 46.9551C319.287 47.6059 320.813 48.3356 322.899 49.1443C324.983 49.9842 326.662 50.7697 327.937 51.5008C329.244 52.2336 330.346 53.2527 331.243 54.5579C332.141 55.8632 332.533 57.5002 332.421 59.4689C332.314 61.3439 331.732 63.0194 330.676 64.4954C329.652 65.9732 328.207 67.1135 326.343 67.9164C324.479 68.7193 322.312 69.0504 319.844 68.9096Z" fill="#FEFBF7"/>
<path d="M340.524 70.1358C339.117 70.0556 337.984 69.5835 337.124 68.7193C336.298 67.8257 335.919 66.7695 335.988 65.5507C336.06 64.3007 336.557 63.2788 337.48 62.4849C338.434 61.6929 339.615 61.3369 341.021 61.4171C342.396 61.4955 343.497 61.9815 344.324 62.8752C345.182 63.7706 345.575 64.8433 345.504 66.0933C345.434 67.312 344.923 68.3174 343.968 69.1095C343.047 69.8721 341.899 70.2142 340.524 70.1358ZM341.612 51.0578C340.205 50.9776 339.072 50.5054 338.212 49.6412C337.385 48.7476 337.007 47.6914 337.076 46.4727C337.147 45.2227 337.645 44.2007 338.568 43.4069C339.522 42.6148 340.702 42.2589 342.109 42.3391C343.484 42.4175 344.585 42.9035 345.411 43.7971C346.27 44.6925 346.663 45.7653 346.592 47.0152C346.522 48.234 346.01 49.2394 345.056 50.0315C344.135 50.7941 342.987 51.1362 341.612 51.0578Z" fill="#FEFBF7"/>
</svg>
