<svg width="376" height="539" viewBox="0 0 376 539" fill="none" xmlns="http://www.w3.org/2000/svg">
<path d="M217.769 1C228.094 30.9735 254.5 159.5 162.001 265.5C69.5014 371.5 62.5002 475 117.5 537" stroke="#86171E" stroke-width="5" stroke-dasharray="15 15"/>
<path d="M6.26588 118.213C4.6974 99.235 18.8083 82.5793 37.7835 81.0118L332.465 56.6691C351.44 55.1016 368.094 69.2159 369.662 88.1942C371.231 107.172 357.12 123.828 338.145 125.396L43.4634 149.738C24.4883 151.306 7.83436 137.192 6.26588 118.213Z" fill="#86171E"/>
<path d="M86.0372 96.2951L86.543 102.415L78.2353 103.101L80.3213 128.341L72.6836 128.972L70.5977 103.732L62.29 104.419L61.7842 98.2985L86.0372 96.2951Z" fill="#FEFBF7"/>
<path d="M117.027 93.7351L119.618 125.095L111.981 125.726L110.914 112.816L99.0328 113.797L100.1 126.707L92.4621 127.338L89.8704 95.9784L97.508 95.3475L98.5233 107.632L110.404 106.651L109.389 94.3661L117.027 93.7351Z" fill="#FEFBF7"/>
<path d="M144.193 117.488L132.491 118.455L131.072 124.149L123.077 124.809L131.831 92.5122L140.674 91.7817L154.611 122.204L146.526 122.872L144.193 117.488ZM141.74 111.753L136.905 100.594L134.013 112.392L141.74 111.753Z" fill="#FEFBF7"/>
<path d="M178.028 88.696L178.533 94.8161L170.226 95.5024L172.312 120.742L164.674 121.373L162.588 96.1333L154.28 96.8196L153.775 90.6995L178.028 88.696Z" fill="#FEFBF7"/>
<path d="M183.603 88.2355L191.419 87.5898L187.406 99.9752L182.27 100.399L183.603 88.2355Z" fill="#FEFBF7"/>
<path d="M209.868 117.955C207.575 118.144 205.49 117.941 203.612 117.347C201.734 116.752 200.184 115.771 198.962 114.403C197.769 113.032 197.058 111.322 196.829 109.272L204.958 108.6C205.173 109.752 205.649 110.612 206.385 111.181C207.119 111.72 208.037 111.944 209.139 111.853C210.271 111.759 211.143 111.433 211.756 110.872C212.367 110.282 212.634 109.525 212.558 108.602C212.494 107.828 212.173 107.21 211.595 106.748C211.047 106.283 210.373 105.919 209.571 105.655C208.8 105.389 207.697 105.106 206.263 104.804C204.187 104.346 202.482 103.857 201.15 103.338C199.818 102.818 198.64 101.986 197.616 100.841C196.592 99.6961 195.999 98.1409 195.836 96.1753C195.595 93.2568 196.464 90.8912 198.443 89.0785C200.419 87.2361 203.105 86.1747 206.499 85.8943C209.953 85.609 212.806 86.2129 215.058 87.706C217.308 89.1693 218.629 91.369 219.021 94.3051L210.758 94.9877C210.615 93.98 210.178 93.2216 209.446 92.7123C208.712 92.1732 207.809 91.948 206.737 92.0365C205.814 92.1128 205.09 92.4274 204.566 92.9805C204.04 93.5037 203.815 94.2269 203.891 95.1501C203.975 96.1627 204.517 96.9126 205.516 97.3997C206.516 97.8868 208.055 98.3744 210.134 98.8623C212.215 99.38 213.907 99.8999 215.21 100.422C216.542 100.942 217.719 101.759 218.74 102.874C219.762 103.989 220.35 105.485 220.505 107.361C220.653 109.148 220.325 110.809 219.523 112.345C218.75 113.878 217.536 115.147 215.88 116.154C214.225 117.16 212.221 117.76 209.868 117.955Z" fill="#FEFBF7"/>
<path d="M268.359 81.234L270.95 112.594L263.313 113.225L261.758 94.4179L256.3 113.804L250.137 114.313L241.522 96.0446L243.08 114.896L235.442 115.527L232.85 84.1673L241.872 83.422L252.466 104.406L259.381 81.9757L268.359 81.234Z" fill="#FEFBF7"/>
<path d="M281.995 86.2695L282.519 92.613L292.747 91.768L293.234 97.6648L283.006 98.5097L283.575 105.389L295.143 104.434L295.649 110.554L276.443 112.14L273.851 80.7803L293.057 79.1938L293.563 85.3139L281.995 86.2695Z" fill="#FEFBF7"/>
<path d="M307.973 76.8372L308.848 98.309L302.372 98.844L299.71 77.5198L307.973 76.8372ZM306.667 110.003C305.327 110.114 304.193 109.818 303.265 109.115C302.365 108.38 301.867 107.431 301.771 106.27C301.673 105.079 302.007 104.046 302.774 103.174C303.571 102.298 304.64 101.805 305.98 101.694C307.29 101.586 308.395 101.9 309.295 102.635C310.225 103.368 310.74 104.33 310.838 105.521C310.934 106.682 310.583 107.701 309.786 108.576C309.017 109.419 307.977 109.895 306.667 110.003Z" fill="#FEFBF7"/>
</svg>
