<svg width="179" height="447" viewBox="0 0 179 447" fill="none" xmlns="http://www.w3.org/2000/svg">
    <path d="M15 0.5C15 62 97.7804 115 127.5 145C157.22 175 255 266.5 49 445.5" stroke="#86171E" stroke-width="3" stroke-dasharray="12 12"/>
    <path d="M2.13353 94.8221C-2.82598 84.9524 1.1545 72.931 11.0242 67.9715L64.6361 41.0315C74.5058 36.072 86.5272 40.0525 91.4867 49.9222C96.4462 59.7919 92.4658 71.8133 82.5961 76.7728L28.9842 103.713C19.1145 108.672 7.09304 104.692 2.13353 94.8221Z" fill="#86171E"/>
    <path d="M34.236 68.3365L34.0775 82.0923L36.7858 87.4821L32.8132 89.4783L30.1048 84.0885L18.9727 76.0064L23.4797 73.7416L30.0714 78.9841L29.7755 70.578L34.236 68.3365Z" fill="#FEFBF7"/>
    <path d="M41.4086 68.7187L43.0663 72.0177L48.3864 69.3443L49.9274 72.4109L44.6073 75.0843L46.4051 78.662L52.4221 75.6384L54.0215 78.8212L44.0318 83.841L35.8367 67.5322L45.8263 62.5124L47.4257 65.6952L41.4086 68.7187Z" fill="#FEFBF7"/>
    <path d="M62.5832 74.7226C61.3906 75.3219 60.2247 75.6653 59.0853 75.7528C57.946 75.8404 56.8991 75.6487 55.9447 75.1777C55.0058 74.699 54.2524 73.9331 53.6844 72.88L57.9126 70.7553C58.2781 71.3282 58.7206 71.6878 59.2403 71.834C59.7522 71.9648 60.2946 71.8862 60.8677 71.5982C61.4562 71.3025 61.8547 70.9373 62.0631 70.5028C62.2638 70.0528 62.2435 69.5878 62.0022 69.1076C61.7999 68.705 61.4931 68.442 61.0821 68.3188C60.6865 68.1878 60.2445 68.1383 59.7562 68.1703C59.2834 68.1945 58.6286 68.2811 57.7917 68.43C56.5751 68.634 55.5521 68.7407 54.7226 68.7501C53.8932 68.7595 53.0789 68.5673 52.2797 68.1736C51.4805 67.7799 50.824 67.0719 50.3104 66.0497C49.5477 64.5319 49.5021 63.0708 50.1737 61.6664C50.8375 60.2465 52.0523 59.0929 53.8179 58.2057C55.6145 57.3029 57.2805 57.0089 58.816 57.3236C60.3437 57.6229 61.5315 58.5197 62.3794 60.0141L58.0815 62.1738C57.7859 61.6628 57.3861 61.3496 56.882 61.2344C56.3701 61.1036 55.8354 61.1783 55.2778 61.4585C54.7977 61.6998 54.4767 62.026 54.3147 62.4371C54.1449 62.8328 54.1807 63.2707 54.422 63.7508C54.6866 64.2774 55.1406 64.5633 55.7841 64.6086C56.4276 64.6538 57.3615 64.5822 58.5859 64.3937C59.8181 64.2207 60.8412 64.1334 61.6551 64.1317C62.4845 64.1223 63.2949 64.3067 64.0863 64.685C64.8778 65.0633 65.5186 65.7403 66.009 66.716C66.4759 67.6453 66.66 68.61 66.5612 69.6102C66.4779 70.6025 66.1 71.549 65.4274 72.4495C64.7548 73.3501 63.8067 74.1078 62.5832 74.7226Z" fill="#FEFBF7"/>
    <path d="M67.6338 50.8267L72.761 62.1883L69.3924 63.881L63.3359 52.9864L67.6338 50.8267ZM74.1233 68.9528C73.4263 69.303 72.7521 69.3896 72.1006 69.2127C71.4568 69.0124 70.9832 68.6102 70.6796 68.0062C70.3683 67.3867 70.3244 66.7589 70.548 66.1228C70.787 65.4789 71.255 64.9819 71.9519 64.6317C72.6334 64.2892 73.296 64.2182 73.9398 64.4184C74.5991 64.6109 75.0844 65.0169 75.3957 65.6364C75.6992 66.2404 75.7315 66.8644 75.4925 67.5082C75.2611 68.1289 74.8048 68.6104 74.1233 68.9528Z" fill="#FEFBF7"/>
</svg>
