<svg width="83" height="59" viewBox="0 0 83 59" fill="none" xmlns="http://www.w3.org/2000/svg">
<path d="M76.6664 0.799993C80.2664 0.799993 82.0664 1.93333 82.0664 4.2C82.0664 5.26666 81.5997 5.99999 80.6664 6.39999C79.8664 6.8 78.7331 7.19999 77.2664 7.59999C73.6664 8.53333 70.5997 9.86666 68.0664 11.6C65.5331 13.2 63.5997 15.0667 62.2664 17.2C61.0664 19.3333 60.4664 21.7333 60.4664 24.4C60.4664 26.9333 61.3331 28.8667 63.0664 30.2C64.7997 31.5333 66.7331 32.5333 68.8664 33.2C71.1331 33.8667 73.0664 35.2 74.6664 37.2C76.3997 39.2 77.2664 41.9333 77.2664 45.4C77.2664 49 75.7331 52.0667 72.6664 54.6C69.7331 57.1333 66.3997 58.4 62.6664 58.4C56.3997 58.4 51.3331 56.4667 47.4664 52.6C43.5997 48.6 41.6664 43.5333 41.6664 37.4C41.6664 31.9333 42.6664 27 44.6664 22.6C46.6664 18.0667 49.3331 14.2 52.6664 11C55.9997 7.66666 59.7331 5.13333 63.8664 3.4C67.9997 1.66666 72.2664 0.799993 76.6664 0.799993ZM35.4664 0.799993C39.0664 0.799993 40.8664 1.93333 40.8664 4.2C40.8664 5.26666 40.3997 5.99999 39.4664 6.39999C38.6664 6.8 37.5331 7.19999 36.0664 7.59999C32.4664 8.53333 29.3997 9.86666 26.8664 11.6C24.3331 13.2 22.3997 15.0667 21.0664 17.2C19.8664 19.3333 19.2664 21.7333 19.2664 24.4C19.2664 26.9333 20.1331 28.8667 21.8664 30.2C23.5997 31.5333 25.5331 32.5333 27.6664 33.2C29.9331 33.8667 31.8664 35.2 33.4664 37.2C35.1997 39.2 36.0664 41.9333 36.0664 45.4C36.0664 49 34.5331 52.0667 31.4664 54.6C28.5331 57.1333 25.1997 58.4 21.4664 58.4C15.1997 58.4 10.1331 56.4667 6.26641 52.6C2.39974 48.6 0.466407 43.5333 0.466407 37.4C0.466407 31.9333 1.46641 27 3.46641 22.6C5.46641 18.0667 8.13307 14.2 11.4664 11C14.7997 7.66666 18.5331 5.13333 22.6664 3.4C26.7997 1.66666 31.0664 0.799993 35.4664 0.799993Z" fill="#570208"/>
</svg>
