
<svg width="53" height="52" viewBox="0 0 53 52" fill="none" xmlns="http://www.w3.org/2000/svg">
    <circle cx="26.3486" cy="26" r="25.9004" fill="#113F59"/>
    <path d="M28.0992 9.0021L32.1889 16.6304C32.4733 17.161 33.0232 17.5286 33.6593 17.6136L42.8046 18.8369C44.4066 19.0514 45.0458 20.863 43.887 21.9026L37.2695 27.8404C36.8096 28.2532 36.5993 28.8486 36.7082 29.4313L38.2702 37.8158C38.544 39.2842 36.8694 40.4038 35.4368 39.711L27.2573 35.7528C26.6885 35.4777 26.0085 35.4777 25.4397 35.7528L17.2603 39.711C15.8277 40.4045 14.1531 39.2842 14.4269 37.8158L15.9888 29.4313C16.0977 28.8486 15.8875 28.2532 15.4276 27.8404L8.81004 21.9026C7.65127 20.8623 8.29041 19.0507 9.89242 18.8369L19.0378 17.6136C19.6739 17.5286 20.2238 17.161 20.5082 16.6304L24.5979 9.0021C25.3134 7.66597 27.3829 7.66597 28.0992 9.0021Z" fill="#FBF5EB"/>
</svg>
