<svg width="30" height="28" viewBox="0 0 30 28" fill="none" xmlns="http://www.w3.org/2000/svg">
<path d="M29.4964 12.6242L24.9498 8.07759V2.82545C24.9498 1.87579 24.1802 1.10616 23.2292 1.10616C22.2803 1.10616 21.5107 1.87579 21.5107 2.82545V4.6386L18.1254 1.25314C16.4517 -0.419699 13.5416 -0.416732 11.8716 1.25617L0.503323 12.6242C-0.167774 13.2967 -0.167774 14.3847 0.503323 15.0561C1.17472 15.7283 2.26488 15.7283 2.93603 15.0561L14.3033 3.68772C14.6736 3.31935 15.3263 3.31935 15.6946 3.68664L27.0638 15.0561C27.2234 15.2159 27.413 15.3426 27.6216 15.429C27.8303 15.5154 28.054 15.5597 28.2798 15.5595C28.7202 15.5595 29.1604 15.3921 29.4965 15.0561C30.1678 14.3848 30.1678 13.2967 29.4964 12.6242Z" fill="white"/>
<path d="M15.5972 6.95131C15.2669 6.62121 14.7321 6.62121 14.4028 6.95131L4.40322 16.9479C4.24477 17.1067 4.1558 17.3218 4.15584 17.5461V24.8372C4.15584 26.5482 5.54309 27.9353 7.25396 27.9353H12.2048V20.2682H17.7941V27.9353H22.745C24.4558 27.9353 25.8431 26.5482 25.8431 24.8373V17.5461C25.8431 17.3212 25.7544 17.1058 25.5957 16.9479L15.5972 6.95131Z" fill="white"/>
</svg>
