<svg width="16" height="12" viewBox="0 0 16 12" fill="none" xmlns="http://www.w3.org/2000/svg">
<path d="M13.9085 12.0002C14.2518 12.0002 14.5493 11.8869 14.8022 11.663L10.4752 7.33588C10.3714 7.41022 10.2708 7.48251 10.1757 7.55125C9.85189 7.78982 9.58908 7.97599 9.38727 8.10939C9.18549 8.2431 8.91703 8.37938 8.5819 8.51853C8.24656 8.65783 7.93414 8.72727 7.64432 8.72727H7.63584H7.62735C7.33751 8.72727 7.02509 8.65786 6.68977 8.51853C6.35445 8.37938 6.08598 8.2431 5.8844 8.10939C5.68262 7.97599 5.41995 7.78985 5.09597 7.55125C5.00569 7.48506 4.90556 7.41244 4.79731 7.33472L0.469482 11.663C0.722338 11.8869 1.02 12.0002 1.36328 12.0002H13.9085Z" fill="#86171E"/>
<path d="M0.860884 4.61083C0.537099 4.39497 0.249972 4.14774 0 3.86926V10.4527L3.81379 6.63889C3.05082 6.10623 2.06776 5.43098 0.860884 4.61083Z" fill="#86171E"/>
<path d="M14.4202 4.61083C13.2594 5.39654 12.2727 6.07295 11.4602 6.64041L15.2725 10.4528V3.86926C15.028 4.14214 14.744 4.3892 14.4202 4.61083Z" fill="#86171E"/>
<path d="M13.9088 0H1.36355C0.92588 0 0.589395 0.147792 0.353676 0.443072C0.117763 0.738491 0 1.10794 0 1.55102C0 1.90891 0.156277 2.29669 0.468693 2.71447C0.78111 3.13209 1.11355 3.46012 1.46584 3.69872C1.65896 3.83517 2.24137 4.24006 3.21306 4.91325C3.7376 5.27675 4.19376 5.59357 4.58575 5.86697C4.91988 6.09978 5.20803 6.30139 5.44594 6.46871C5.47326 6.48787 5.51621 6.51859 5.57322 6.55935C5.63464 6.60347 5.71236 6.65945 5.80824 6.72869C5.99289 6.86223 6.14628 6.97018 6.26845 7.05264C6.39046 7.13513 6.53828 7.22727 6.71169 7.32959C6.88497 7.43177 7.0484 7.50861 7.20179 7.55971C7.35521 7.61079 7.49724 7.63641 7.62789 7.63641H7.63638H7.64486C7.77549 7.63641 7.91755 7.61079 8.07099 7.55971C8.22436 7.50861 8.38765 7.43194 8.56107 7.32959C8.73431 7.22727 8.88194 7.13494 9.00433 7.05264C9.1265 6.97018 9.2799 6.86226 9.46457 6.72869C9.56026 6.65945 9.63798 6.60344 9.6994 6.55949C9.75644 6.51856 9.79936 6.48803 9.82684 6.46871C10.0122 6.33974 10.301 6.13896 10.6893 5.86933C11.3959 5.3784 12.4365 4.65582 13.8155 3.69872C14.2302 3.40904 14.5767 3.05947 14.8552 2.6505C15.1331 2.24154 15.2725 1.81255 15.2725 1.36368C15.2725 0.988657 15.1374 0.667756 14.8677 0.400482C14.5978 0.13354 14.2781 0 13.9088 0Z" fill="#86171E"/>
</svg>
