<svg width="159" height="14" viewBox="0 0 159 14" fill="none" xmlns="http://www.w3.org/2000/svg">
<path d="M1.43422 1.719C1.20889 1.719 1.01822 1.641 0.86222 1.485C0.70622 1.329 0.62822 1.13833 0.62822 0.912999C0.62822 0.687666 0.70622 0.497 0.86222 0.341C1.01822 0.185 1.20889 0.107 1.43422 0.107C1.65089 0.107 1.83289 0.185 1.98022 0.341C2.13622 0.497 2.21422 0.687666 2.21422 0.912999C2.21422 1.13833 2.13622 1.329 1.98022 1.485C1.83289 1.641 1.65089 1.719 1.43422 1.719ZM2.00622 2.876V10H0.82322V2.876H2.00622ZM8.14344 2.746C9.01011 2.746 9.71211 3.01033 10.2494 3.539C10.7868 4.059 11.0554 4.813 11.0554 5.801V10H9.88544V5.97C9.88544 5.25933 9.70777 4.71767 9.35244 4.345C8.99711 3.96367 8.51177 3.773 7.89644 3.773C7.27244 3.773 6.77411 3.968 6.40144 4.358C6.03744 4.748 5.85544 5.31567 5.85544 6.061V10H4.67244V2.876H5.85544V3.89C6.08944 3.526 6.40577 3.24433 6.80444 3.045C7.21177 2.84567 7.65811 2.746 8.14344 2.746ZM16.5369 3.851H15.0419V10H13.8589V3.851H12.9359V2.876H13.8589V2.369C13.8589 1.57167 14.0625 0.991 14.4699 0.627C14.8859 0.254333 15.5489 0.0679992 16.4589 0.0679992V1.056C15.9389 1.056 15.5705 1.16 15.3539 1.368C15.1459 1.56733 15.0419 1.901 15.0419 2.369V2.876H16.5369V3.851ZM21.6732 10.117C21.0059 10.117 20.3992 9.96533 19.8532 9.662C19.3159 9.35867 18.8912 8.92967 18.5792 8.375C18.2759 7.81167 18.1242 7.16167 18.1242 6.425C18.1242 5.697 18.2802 5.05567 18.5922 4.501C18.9129 3.93767 19.3462 3.50867 19.8922 3.214C20.4382 2.91067 21.0492 2.759 21.7252 2.759C22.4012 2.759 23.0122 2.91067 23.5582 3.214C24.1042 3.50867 24.5332 3.93333 24.8452 4.488C25.1659 5.04267 25.3262 5.68833 25.3262 6.425C25.3262 7.16167 25.1615 7.81167 24.8322 8.375C24.5115 8.92967 24.0739 9.35867 23.5192 9.662C22.9645 9.96533 22.3492 10.117 21.6732 10.117ZM21.6732 9.077C22.0979 9.077 22.4965 8.97733 22.8692 8.778C23.2419 8.57867 23.5409 8.27967 23.7662 7.881C24.0002 7.48233 24.1172 6.997 24.1172 6.425C24.1172 5.853 24.0045 5.36767 23.7792 4.969C23.5539 4.57033 23.2592 4.27567 22.8952 4.085C22.5312 3.88567 22.1369 3.786 21.7122 3.786C21.2789 3.786 20.8802 3.88567 20.5162 4.085C20.1609 4.27567 19.8749 4.57033 19.6582 4.969C19.4415 5.36767 19.3332 5.853 19.3332 6.425C19.3332 7.00567 19.4372 7.49533 19.6452 7.894C19.8619 8.29267 20.1479 8.59167 20.5032 8.791C20.8585 8.98167 21.2485 9.077 21.6732 9.077ZM34.0316 1.667C34.9936 1.667 35.83 1.849 36.5406 2.213C37.2513 2.577 37.7973 3.08833 38.1786 3.747C38.56 4.397 38.7506 5.151 38.7506 6.009C38.7506 6.69367 38.638 7.35233 38.4126 7.985C38.1873 8.609 37.858 9.116 37.4246 9.506C37 9.896 36.5016 10.091 35.9296 10.091C35.4963 10.091 35.1626 9.98267 34.9286 9.766C34.6946 9.54933 34.5603 9.25467 34.5256 8.882C34.257 9.25467 33.9146 9.54933 33.4986 9.766C33.0913 9.98267 32.658 10.091 32.1986 10.091C31.54 10.091 31.02 9.89167 30.6386 9.493C30.266 9.08567 30.0796 8.53967 30.0796 7.855C30.0796 7.205 30.214 6.59833 30.4826 6.035C30.76 5.47167 31.1413 5.021 31.6266 4.683C32.112 4.33633 32.6623 4.163 33.2776 4.163C34.101 4.163 34.6556 4.475 34.9416 5.099L35.0846 4.293H36.1116L35.4616 8.05C35.4356 8.21467 35.4226 8.36633 35.4226 8.505C35.4226 9.025 35.6523 9.285 36.1116 9.285C36.4583 9.285 36.7573 9.12033 37.0086 8.791C37.2686 8.46167 37.4636 8.05 37.5936 7.556C37.7236 7.05333 37.7886 6.55933 37.7886 6.074C37.7886 4.93867 37.4463 4.059 36.7616 3.435C36.0856 2.811 35.128 2.499 33.8886 2.499C32.8573 2.499 31.9256 2.75033 31.0936 3.253C30.2703 3.747 29.6246 4.42733 29.1566 5.294C28.6886 6.16067 28.4546 7.11833 28.4546 8.167C28.446 9.311 28.7883 10.1907 29.4816 10.806C30.175 11.43 31.137 11.742 32.3676 11.742C33.1823 11.742 33.9016 11.5947 34.5256 11.3L34.6816 12.106C33.9103 12.4267 33.061 12.587 32.1336 12.587C31.2063 12.587 30.3873 12.4093 29.6766 12.054C28.9746 11.7073 28.4286 11.2047 28.0386 10.546C27.6573 9.896 27.4666 9.13767 27.4666 8.271C27.4666 7.049 27.7483 5.93533 28.3116 4.93C28.875 3.916 29.655 3.11867 30.6516 2.538C31.657 1.95733 32.7836 1.667 34.0316 1.667ZM32.5496 9.168C32.9396 9.168 33.2993 9.05533 33.6286 8.83C33.958 8.596 34.218 8.284 34.4086 7.894C34.5993 7.49533 34.6946 7.062 34.6946 6.594C34.6946 6.14333 34.569 5.77933 34.3176 5.502C34.075 5.216 33.7283 5.073 33.2776 5.073C32.8616 5.073 32.4933 5.19867 32.1726 5.45C31.8606 5.69267 31.618 6.01767 31.4446 6.425C31.2713 6.82367 31.1846 7.23967 31.1846 7.673C31.1846 8.13233 31.3016 8.49633 31.5356 8.765C31.7696 9.03367 32.1076 9.168 32.5496 9.168ZM40.9047 6.425C40.9047 5.68833 41.052 5.047 41.3467 4.501C41.6413 3.94633 42.0487 3.51733 42.5687 3.214C43.0973 2.91067 43.6997 2.759 44.3757 2.759C45.251 2.759 45.9703 2.97133 46.5337 3.396C47.1057 3.82067 47.4827 4.41 47.6647 5.164H46.3907C46.2693 4.73067 46.031 4.38833 45.6757 4.137C45.329 3.88567 44.8957 3.76 44.3757 3.76C43.6997 3.76 43.1537 3.994 42.7377 4.462C42.3217 4.92133 42.1137 5.57567 42.1137 6.425C42.1137 7.283 42.3217 7.946 42.7377 8.414C43.1537 8.882 43.6997 9.116 44.3757 9.116C44.8957 9.116 45.329 8.99467 45.6757 8.752C46.0223 8.50933 46.2607 8.16267 46.3907 7.712H47.6647C47.474 8.44 47.0927 9.025 46.5207 9.467C45.9487 9.90033 45.2337 10.117 44.3757 10.117C43.6997 10.117 43.0973 9.96533 42.5687 9.662C42.0487 9.35867 41.6413 8.92967 41.3467 8.375C41.052 7.82033 40.9047 7.17033 40.9047 6.425ZM53.0001 10.117C52.3328 10.117 51.7261 9.96533 51.1801 9.662C50.6428 9.35867 50.2181 8.92967 49.9061 8.375C49.6028 7.81167 49.4511 7.16167 49.4511 6.425C49.4511 5.697 49.6071 5.05567 49.9191 4.501C50.2398 3.93767 50.6731 3.50867 51.2191 3.214C51.7651 2.91067 52.3761 2.759 53.0521 2.759C53.7281 2.759 54.3391 2.91067 54.8851 3.214C55.4311 3.50867 55.8601 3.93333 56.1721 4.488C56.4928 5.04267 56.6531 5.68833 56.6531 6.425C56.6531 7.16167 56.4885 7.81167 56.1591 8.375C55.8385 8.92967 55.4008 9.35867 54.8461 9.662C54.2915 9.96533 53.6761 10.117 53.0001 10.117ZM53.0001 9.077C53.4248 9.077 53.8235 8.97733 54.1961 8.778C54.5688 8.57867 54.8678 8.27967 55.0931 7.881C55.3271 7.48233 55.4441 6.997 55.4441 6.425C55.4441 5.853 55.3315 5.36767 55.1061 4.969C54.8808 4.57033 54.5861 4.27567 54.2221 4.085C53.8581 3.88567 53.4638 3.786 53.0391 3.786C52.6058 3.786 52.2071 3.88567 51.8431 4.085C51.4878 4.27567 51.2018 4.57033 50.9851 4.969C50.7685 5.36767 50.6601 5.853 50.6601 6.425C50.6601 7.00567 50.7641 7.49533 50.9721 7.894C51.1888 8.29267 51.4748 8.59167 51.8301 8.791C52.1855 8.98167 52.5755 9.077 53.0001 9.077ZM67.4256 2.746C67.9802 2.746 68.4742 2.863 68.9076 3.097C69.3409 3.32233 69.6832 3.66467 69.9346 4.124C70.1859 4.58333 70.3116 5.14233 70.3116 5.801V10H69.1416V5.97C69.1416 5.25933 68.9639 4.71767 68.6086 4.345C68.2619 3.96367 67.7896 3.773 67.1916 3.773C66.5762 3.773 66.0866 3.97233 65.7226 4.371C65.3586 4.761 65.1766 5.32867 65.1766 6.074V10H64.0066V5.97C64.0066 5.25933 63.8289 4.71767 63.4736 4.345C63.1269 3.96367 62.6546 3.773 62.0566 3.773C61.4412 3.773 60.9516 3.97233 60.5876 4.371C60.2236 4.761 60.0416 5.32867 60.0416 6.074V10H58.8586V2.876H60.0416V3.903C60.2756 3.53033 60.5876 3.24433 60.9776 3.045C61.3762 2.84567 61.8139 2.746 62.2906 2.746C62.8886 2.746 63.4172 2.88033 63.8766 3.149C64.3359 3.41767 64.6782 3.812 64.9036 4.332C65.1029 3.82933 65.4322 3.43933 65.8916 3.162C66.3509 2.88467 66.8622 2.746 67.4256 2.746ZM79.4021 6.165C79.4021 6.39033 79.3891 6.62867 79.3631 6.88H73.6691C73.7125 7.582 73.9508 8.13233 74.3841 8.531C74.8261 8.921 75.3591 9.116 75.9831 9.116C76.4945 9.116 76.9191 8.999 77.2571 8.765C77.6038 8.52233 77.8465 8.20167 77.9851 7.803H79.2591C79.0685 8.48767 78.6871 9.04667 78.1151 9.48C77.5431 9.90467 76.8325 10.117 75.9831 10.117C75.3071 10.117 74.7005 9.96533 74.1631 9.662C73.6345 9.35867 73.2185 8.92967 72.9151 8.375C72.6118 7.81167 72.4601 7.16167 72.4601 6.425C72.4601 5.68833 72.6075 5.04267 72.9021 4.488C73.1968 3.93333 73.6085 3.50867 74.1371 3.214C74.6745 2.91067 75.2898 2.759 75.9831 2.759C76.6591 2.759 77.2571 2.90633 77.7771 3.201C78.2971 3.49567 78.6958 3.903 78.9731 4.423C79.2591 4.93433 79.4021 5.515 79.4021 6.165ZM78.1801 5.918C78.1801 5.46733 78.0805 5.08167 77.8811 4.761C77.6818 4.43167 77.4088 4.18467 77.0621 4.02C76.7241 3.84667 76.3471 3.76 75.9311 3.76C75.3331 3.76 74.8218 3.95067 74.3971 4.332C73.9811 4.71333 73.7428 5.242 73.6821 5.918H78.1801ZM81.1716 6.412C81.1716 5.684 81.319 5.047 81.6136 4.501C81.9083 3.94633 82.3113 3.51733 82.8226 3.214C83.3426 2.91067 83.919 2.759 84.5516 2.759C85.1756 2.759 85.7173 2.89333 86.1766 3.162C86.636 3.43067 86.9783 3.76867 87.2036 4.176V2.876H88.3996V10H87.2036V8.674C86.9696 9.09 86.6186 9.43667 86.1506 9.714C85.6913 9.98267 85.154 10.117 84.5386 10.117C83.906 10.117 83.334 9.961 82.8226 9.649C82.3113 9.337 81.9083 8.89933 81.6136 8.336C81.319 7.77267 81.1716 7.13133 81.1716 6.412ZM87.2036 6.425C87.2036 5.88767 87.0953 5.41967 86.8786 5.021C86.662 4.62233 86.3673 4.319 85.9946 4.111C85.6306 3.89433 85.2276 3.786 84.7856 3.786C84.3436 3.786 83.9406 3.89 83.5766 4.098C83.2126 4.306 82.9223 4.60933 82.7056 5.008C82.489 5.40667 82.3806 5.87467 82.3806 6.412C82.3806 6.958 82.489 7.43467 82.7056 7.842C82.9223 8.24067 83.2126 8.54833 83.5766 8.765C83.9406 8.973 84.3436 9.077 84.7856 9.077C85.2276 9.077 85.6306 8.973 85.9946 8.765C86.3673 8.54833 86.662 8.24067 86.8786 7.842C87.0953 7.43467 87.2036 6.96233 87.2036 6.425ZM94.5198 2.746C95.3865 2.746 96.0885 3.01033 96.6258 3.539C97.1631 4.059 97.4318 4.813 97.4318 5.801V10H96.2618V5.97C96.2618 5.25933 96.0841 4.71767 95.7288 4.345C95.3735 3.96367 94.8881 3.773 94.2728 3.773C93.6488 3.773 93.1505 3.968 92.7778 4.358C92.4138 4.748 92.2318 5.31567 92.2318 6.061V10H91.0488V2.876H92.2318V3.89C92.4658 3.526 92.7821 3.24433 93.1808 3.045C93.5881 2.84567 94.0345 2.746 94.5198 2.746ZM99.5722 6.412C99.5722 5.684 99.7196 5.047 100.014 4.501C100.309 3.94633 100.712 3.51733 101.223 3.214C101.743 2.91067 102.324 2.759 102.965 2.759C103.52 2.759 104.036 2.889 104.512 3.149C104.989 3.40033 105.353 3.734 105.604 4.15V0.38H106.8V10H105.604V8.661C105.37 9.08567 105.024 9.43667 104.564 9.714C104.105 9.98267 103.568 10.117 102.952 10.117C102.32 10.117 101.743 9.961 101.223 9.649C100.712 9.337 100.309 8.89933 100.014 8.336C99.7196 7.77267 99.5722 7.13133 99.5722 6.412ZM105.604 6.425C105.604 5.88767 105.496 5.41967 105.279 5.021C105.063 4.62233 104.768 4.319 104.395 4.111C104.031 3.89433 103.628 3.786 103.186 3.786C102.744 3.786 102.341 3.89 101.977 4.098C101.613 4.306 101.323 4.60933 101.106 5.008C100.89 5.40667 100.781 5.87467 100.781 6.412C100.781 6.958 100.89 7.43467 101.106 7.842C101.323 8.24067 101.613 8.54833 101.977 8.765C102.341 8.973 102.744 9.077 103.186 9.077C103.628 9.077 104.031 8.973 104.395 8.765C104.768 8.54833 105.063 8.24067 105.279 7.842C105.496 7.43467 105.604 6.96233 105.604 6.425ZM111.971 10.117C111.425 10.117 110.936 10.026 110.502 9.844C110.069 9.65333 109.727 9.39333 109.475 9.064C109.224 8.726 109.085 8.34033 109.059 7.907H110.281C110.316 8.26233 110.481 8.55267 110.775 8.778C111.079 9.00333 111.473 9.116 111.958 9.116C112.409 9.116 112.764 9.01633 113.024 8.817C113.284 8.61767 113.414 8.36633 113.414 8.063C113.414 7.751 113.276 7.52133 112.998 7.374C112.721 7.218 112.292 7.06633 111.711 6.919C111.183 6.78033 110.749 6.64167 110.411 6.503C110.082 6.35567 109.796 6.14333 109.553 5.866C109.319 5.58 109.202 5.20733 109.202 4.748C109.202 4.384 109.311 4.05033 109.527 3.747C109.744 3.44367 110.052 3.20533 110.45 3.032C110.849 2.85 111.304 2.759 111.815 2.759C112.604 2.759 113.241 2.95833 113.726 3.357C114.212 3.75567 114.472 4.30167 114.506 4.995H113.323C113.297 4.62233 113.146 4.32333 112.868 4.098C112.6 3.87267 112.236 3.76 111.776 3.76C111.352 3.76 111.014 3.851 110.762 4.033C110.511 4.215 110.385 4.45333 110.385 4.748C110.385 4.982 110.459 5.177 110.606 5.333C110.762 5.48033 110.953 5.60167 111.178 5.697C111.412 5.78367 111.733 5.88333 112.14 5.996C112.652 6.13467 113.068 6.27333 113.388 6.412C113.709 6.542 113.982 6.74133 114.207 7.01C114.441 7.27867 114.563 7.62967 114.571 8.063C114.571 8.453 114.463 8.804 114.246 9.116C114.03 9.428 113.722 9.675 113.323 9.857C112.933 10.0303 112.483 10.117 111.971 10.117ZM123.391 6.165C123.391 6.39033 123.378 6.62867 123.352 6.88H117.658C117.702 7.582 117.94 8.13233 118.373 8.531C118.815 8.921 119.348 9.116 119.972 9.116C120.484 9.116 120.908 8.999 121.246 8.765C121.593 8.52233 121.836 8.20167 121.974 7.803H123.248C123.058 8.48767 122.676 9.04667 122.104 9.48C121.532 9.90467 120.822 10.117 119.972 10.117C119.296 10.117 118.69 9.96533 118.152 9.662C117.624 9.35867 117.208 8.92967 116.904 8.375C116.601 7.81167 116.449 7.16167 116.449 6.425C116.449 5.68833 116.597 5.04267 116.891 4.488C117.186 3.93333 117.598 3.50867 118.126 3.214C118.664 2.91067 119.279 2.759 119.972 2.759C120.648 2.759 121.246 2.90633 121.766 3.201C122.286 3.49567 122.685 3.903 122.962 4.423C123.248 4.93433 123.391 5.515 123.391 6.165ZM122.169 5.918C122.169 5.46733 122.07 5.08167 121.87 4.761C121.671 4.43167 121.398 4.18467 121.051 4.02C120.713 3.84667 120.336 3.76 119.92 3.76C119.322 3.76 118.811 3.95067 118.386 4.332C117.97 4.71333 117.732 5.242 117.671 5.918H122.169ZM132.103 6.165C132.103 6.39033 132.09 6.62867 132.064 6.88H126.37C126.413 7.582 126.652 8.13233 127.085 8.531C127.527 8.921 128.06 9.116 128.684 9.116C129.195 9.116 129.62 8.999 129.958 8.765C130.305 8.52233 130.547 8.20167 130.686 7.803H131.96C131.769 8.48767 131.388 9.04667 130.816 9.48C130.244 9.90467 129.533 10.117 128.684 10.117C128.008 10.117 127.401 9.96533 126.864 9.662C126.335 9.35867 125.919 8.92967 125.616 8.375C125.313 7.81167 125.161 7.16167 125.161 6.425C125.161 5.68833 125.308 5.04267 125.603 4.488C125.898 3.93333 126.309 3.50867 126.838 3.214C127.375 2.91067 127.991 2.759 128.684 2.759C129.36 2.759 129.958 2.90633 130.478 3.201C130.998 3.49567 131.397 3.903 131.674 4.423C131.96 4.93433 132.103 5.515 132.103 6.165ZM130.881 5.918C130.881 5.46733 130.781 5.08167 130.582 4.761C130.383 4.43167 130.11 4.18467 129.763 4.02C129.425 3.84667 129.048 3.76 128.632 3.76C128.034 3.76 127.523 3.95067 127.098 4.332C126.682 4.71333 126.444 5.242 126.383 5.918H130.881ZM134.691 10.078C134.466 10.078 134.275 10 134.119 9.844C133.963 9.688 133.885 9.49733 133.885 9.272C133.885 9.04667 133.963 8.856 134.119 8.7C134.275 8.544 134.466 8.466 134.691 8.466C134.908 8.466 135.09 8.544 135.237 8.7C135.393 8.856 135.471 9.04667 135.471 9.272C135.471 9.49733 135.393 9.688 135.237 9.844C135.09 10 134.908 10.078 134.691 10.078ZM140.801 10.117C140.134 10.117 139.527 9.96533 138.981 9.662C138.444 9.35867 138.019 8.92967 137.707 8.375C137.404 7.81167 137.252 7.16167 137.252 6.425C137.252 5.697 137.408 5.05567 137.72 4.501C138.041 3.93767 138.474 3.50867 139.02 3.214C139.566 2.91067 140.177 2.759 140.853 2.759C141.529 2.759 142.14 2.91067 142.686 3.214C143.232 3.50867 143.661 3.93333 143.973 4.488C144.294 5.04267 144.454 5.68833 144.454 6.425C144.454 7.16167 144.289 7.81167 143.96 8.375C143.639 8.92967 143.202 9.35867 142.647 9.662C142.092 9.96533 141.477 10.117 140.801 10.117ZM140.801 9.077C141.226 9.077 141.624 8.97733 141.997 8.778C142.37 8.57867 142.669 8.27967 142.894 7.881C143.128 7.48233 143.245 6.997 143.245 6.425C143.245 5.853 143.132 5.36767 142.907 4.969C142.682 4.57033 142.387 4.27567 142.023 4.085C141.659 3.88567 141.265 3.786 140.84 3.786C140.407 3.786 140.008 3.88567 139.644 4.085C139.289 4.27567 139.003 4.57033 138.786 4.969C138.569 5.36767 138.461 5.853 138.461 6.425C138.461 7.00567 138.565 7.49533 138.773 7.894C138.99 8.29267 139.276 8.59167 139.631 8.791C139.986 8.98167 140.376 9.077 140.801 9.077ZM147.842 4.033C148.05 3.62567 148.345 3.30933 148.726 3.084C149.116 2.85867 149.589 2.746 150.143 2.746V3.968H149.831C148.505 3.968 147.842 4.68733 147.842 6.126V10H146.659V2.876H147.842V4.033ZM155.097 2.759C155.712 2.759 156.25 2.89333 156.709 3.162C157.177 3.43067 157.524 3.76867 157.749 4.176V2.876H158.945V10.156C158.945 10.806 158.806 11.3823 158.529 11.885C158.252 12.3963 157.853 12.795 157.333 13.081C156.822 13.367 156.224 13.51 155.539 13.51C154.603 13.51 153.823 13.289 153.199 12.847C152.575 12.405 152.207 11.8027 152.094 11.04H153.264C153.394 11.4733 153.663 11.82 154.07 12.08C154.477 12.3487 154.967 12.483 155.539 12.483C156.189 12.483 156.718 12.2793 157.125 11.872C157.541 11.4647 157.749 10.8927 157.749 10.156V8.661C157.515 9.077 157.168 9.42367 156.709 9.701C156.25 9.97833 155.712 10.117 155.097 10.117C154.464 10.117 153.888 9.961 153.368 9.649C152.857 9.337 152.454 8.89933 152.159 8.336C151.864 7.77267 151.717 7.13133 151.717 6.412C151.717 5.684 151.864 5.047 152.159 4.501C152.454 3.94633 152.857 3.51733 153.368 3.214C153.888 2.91067 154.464 2.759 155.097 2.759ZM157.749 6.425C157.749 5.88767 157.641 5.41967 157.424 5.021C157.207 4.62233 156.913 4.319 156.54 4.111C156.176 3.89433 155.773 3.786 155.331 3.786C154.889 3.786 154.486 3.89 154.122 4.098C153.758 4.306 153.468 4.60933 153.251 5.008C153.034 5.40667 152.926 5.87467 152.926 6.412C152.926 6.958 153.034 7.43467 153.251 7.842C153.468 8.24067 153.758 8.54833 154.122 8.765C154.486 8.973 154.889 9.077 155.331 9.077C155.773 9.077 156.176 8.973 156.54 8.765C156.913 8.54833 157.207 8.24067 157.424 7.842C157.641 7.43467 157.749 6.96233 157.749 6.425Z" fill="white"/>
</svg>
