<svg width="20" height="18" viewBox="0 0 20 18" fill="none" xmlns="http://www.w3.org/2000/svg">
<path d="M17.4117 0.176514H15.647V1.94122C15.647 2.29416 15.3528 2.52945 15.0587 2.52945C14.7646 2.52945 14.4705 2.29416 14.4705 1.94122V0.176514H5.05872V1.94122C5.05872 2.29416 4.76461 2.52945 4.47049 2.52945C4.17637 2.52945 3.88225 2.29416 3.88225 1.94122V0.176514H2.11755C1.23519 0.176514 0.588135 0.94122 0.588135 1.94122V4.05887H19.4117V1.94122C19.4117 0.94122 18.3528 0.176514 17.4117 0.176514ZM0.588135 5.29416V16.0589C0.588135 17.1177 1.23519 17.8236 2.17637 17.8236H17.4705C18.4117 17.8236 19.4705 17.0589 19.4705 16.0589V5.29416H0.588135ZM5.82343 15.1765H4.41166C4.17637 15.1765 3.94108 15 3.94108 14.7059V13.2353C3.94108 13 4.11755 12.7647 4.41166 12.7647H5.88225C6.11755 12.7647 6.35284 12.9412 6.35284 13.2353V14.7059C6.29402 15 6.11755 15.1765 5.82343 15.1765ZM5.82343 9.8824H4.41166C4.17637 9.8824 3.94108 9.70592 3.94108 9.41181V7.94122C3.94108 7.70592 4.11755 7.47063 4.41166 7.47063H5.88225C6.11755 7.47063 6.35284 7.6471 6.35284 7.94122V9.41181C6.29402 9.70592 6.11755 9.8824 5.82343 9.8824ZM10.5293 15.1765H9.05872C8.82343 15.1765 8.58814 15 8.58814 14.7059V13.2353C8.58814 13 8.76461 12.7647 9.05872 12.7647H10.5293C10.7646 12.7647 10.9999 12.9412 10.9999 13.2353V14.7059C10.9999 15 10.8234 15.1765 10.5293 15.1765ZM10.5293 9.8824H9.05872C8.82343 9.8824 8.58814 9.70592 8.58814 9.41181V7.94122C8.58814 7.70592 8.76461 7.47063 9.05872 7.47063H10.5293C10.7646 7.47063 10.9999 7.6471 10.9999 7.94122V9.41181C10.9999 9.70592 10.8234 9.8824 10.5293 9.8824ZM15.2352 15.1765H13.7646C13.5293 15.1765 13.294 15 13.294 14.7059V13.2353C13.294 13 13.4705 12.7647 13.7646 12.7647H15.2352C15.4705 12.7647 15.7058 12.9412 15.7058 13.2353V14.7059C15.7058 15 15.5293 15.1765 15.2352 15.1765ZM15.2352 9.8824H13.7646C13.5293 9.8824 13.294 9.70592 13.294 9.41181V7.94122C13.294 7.70592 13.4705 7.47063 13.7646 7.47063H15.2352C15.4705 7.47063 15.7058 7.6471 15.7058 7.94122V9.41181C15.7058 9.70592 15.5293 9.8824 15.2352 9.8824Z" fill="white"/>
</svg>
