<svg width="27" height="27" viewBox="0 0 27 27" fill="none" xmlns="http://www.w3.org/2000/svg">
<path d="M26.5721 13.2562C26.5721 5.93422 20.7086 0 13.474 0C6.23935 0 0.375916 5.93422 0.375916 13.2562C0.375916 19.47 4.60721 24.6897 10.312 26.124V17.3056H7.61055V13.2562H10.312V11.5111C10.312 7.00093 12.3279 4.90894 16.7076 4.90894C17.5364 4.90894 18.969 5.07464 19.5574 5.24034V8.90651C19.2504 8.87544 18.7132 8.85473 18.043 8.85473C15.8941 8.85473 15.0652 9.67806 15.0652 11.8167V13.2562H19.3425L18.6058 17.3056H15.0601V26.414C21.5477 25.6218 26.5721 20.0345 26.5721 13.2562Z" fill="white"/>
</svg>
