
<svg width="122" height="128" viewBox="0 0 122 128" fill="none" xmlns="http://www.w3.org/2000/svg">
    <path d="M83.4581 32H10.666C6.18763 32 2.58594 35.825 2.58594 40.525V93.85H91.5382V40.525C91.5382 35.825 87.9128 32 83.4581 32Z" fill="#FFEFEF"/>
    <path d="M91.5382 93.875V96C91.5382 100.725 87.9128 104.525 83.4581 104.525H10.666C6.18763 104.525 2.58594 100.7 2.58594 96V93.875H91.5382Z" fill="#FFEFEF"/>
    <path d="M85.4715 93.875V96C85.4715 100.725 81.8461 104.525 77.3914 104.525H83.4574C87.9358 104.525 91.5375 100.7 91.5375 96V93.875H85.4715Z" fill="#C17F7F"/>
    <path d="M34.9294 104.525H59.1934V117.325H34.9294V104.525Z" fill="#FFEFEF"/>
    <path d="M53.1267 104.525H59.1927V117.325H53.1267V104.525Z" fill="#C17F7F"/>
    <path d="M71.3259 121.6C71.3259 123.95 69.525 125.875 67.274 125.875H26.8261C24.5987 125.875 22.7742 123.975 22.7742 121.6C22.7742 119.225 24.575 117.325 26.8261 117.325H67.274C69.5013 117.325 71.3259 119.25 71.3259 121.6Z" fill="#FFEFEF"/>
    <path d="M67.2728 117.325H61.2068C63.4341 117.325 65.2587 119.225 65.2587 121.6C65.2587 123.975 63.4578 125.875 61.2068 125.875H67.2728C69.5002 125.875 71.3247 123.975 71.3247 121.6C71.3247 119.225 69.5002 117.325 67.2728 117.325Z" fill="#C17F7F"/>
    <path d="M10.6657 51.1998C10.1207 51.1998 9.62313 50.9748 9.22031 50.5748C8.84119 50.1748 8.62793 49.6248 8.62793 49.0498C8.62793 48.4748 8.84119 47.9248 9.22031 47.5248L17.3004 38.9998C17.8217 38.4498 18.5563 38.2498 19.2671 38.4498C19.978 38.6498 20.523 39.2248 20.7125 39.9748C20.9021 40.7248 20.6888 41.4998 20.1912 42.0498L12.1111 50.5748C11.7083 50.9748 11.187 51.1998 10.6657 51.1998Z" fill="white"/>
    <path d="M10.6657 63.9998C10.1207 63.9998 9.62313 63.7748 9.22031 63.3748C8.84119 62.9748 8.62793 62.4248 8.62793 61.8498C8.62793 61.2748 8.84119 60.7248 9.22031 60.3248L29.4324 38.9998C29.9537 38.4498 30.6883 38.2498 31.3991 38.4498C32.11 38.6498 32.655 39.2248 32.8445 39.9748C33.0341 40.7248 32.8209 41.4998 32.3232 42.0498L12.1111 63.3748C11.7083 63.7748 11.187 63.9998 10.6657 63.9998Z" fill="white"/>
    <path d="M119.853 6.4V121.6C119.853 123.95 118.052 125.875 115.801 125.875H67.2732C69.5006 125.875 71.3251 123.975 71.3251 121.6C71.3251 119.225 69.5243 117.325 67.2732 117.325H59.1931V104.525H83.4571C87.9355 104.525 91.5372 100.7 91.5372 96V40.525C91.5372 35.8 87.9118 32 83.4571 32H59.1931V6.4C59.1931 4.05 60.994 2.125 63.245 2.125H115.825C118.029 2.125 119.853 4.05 119.853 6.4Z" fill="#FFEFEF"/>
    <path d="M115.801 2.125H109.735C111.963 2.125 113.787 4.025 113.787 6.4V121.6C113.787 123.95 111.986 125.875 109.735 125.875H115.801C118.029 125.875 119.853 123.975 119.853 121.6V6.4C119.853 4.05 118.029 2.125 115.801 2.125Z" fill="#C17F7F"/>
    <path d="M69.288 12.7998H109.736C110.85 12.7998 111.75 13.7498 111.75 14.9248V19.1998C111.75 20.3748 110.85 21.3248 109.736 21.3248H69.288C68.1743 21.3248 67.2739 20.3748 67.2739 19.1998V14.9248C67.2739 13.7498 68.1743 12.7998 69.288 12.7998Z" fill="#C17F7F"/>
    <path d="M105.684 40.55C107.922 40.55 109.736 38.636 109.736 36.275C109.736 33.914 107.922 32 105.684 32C103.447 32 101.633 33.914 101.633 36.275C101.633 38.636 103.447 40.55 105.684 40.55Z" fill="#C17F7F"/>
    <path d="M105.684 57.5998C107.922 57.5998 109.736 55.6858 109.736 53.3248C109.736 50.9638 107.922 49.0498 105.684 49.0498C103.447 49.0498 101.633 50.9638 101.633 53.3248C101.633 55.6858 103.447 57.5998 105.684 57.5998Z" fill="#C17F7F"/>
    <path d="M8.62824 96V40.525C8.62824 35.8 12.2536 32 16.7083 32H10.666C6.18763 32 2.58594 35.825 2.58594 40.525V96C2.58594 100.725 6.21132 104.525 10.666 104.525H16.732C12.2536 104.525 8.62824 100.725 8.62824 96Z" fill="white"/>
    <path d="M0.547363 40.5249H4.59926V57.5999H0.547363V40.5249Z" fill="white"/>
    <path d="M2.56171 51.2002C3.67539 51.2002 4.57581 50.2502 4.57581 49.0752C4.57581 47.9002 3.67539 46.9502 2.56171 46.9502C1.44803 46.9502 0.547607 47.9002 0.547607 49.0752C0.547607 50.2502 1.44803 51.2002 2.56171 51.2002Z" fill="#7B0000"/>
    <path d="M10.6642 51.2C11.2092 51.2 11.7068 50.975 12.1097 50.575L20.1898 42.05C20.9717 41.225 20.9717 39.85 20.1898 39.025C19.4078 38.2 18.1046 38.2 17.3226 39.025L9.24253 47.55C8.8634 47.95 8.65015 48.5 8.65015 49.075C8.65015 49.65 8.8634 50.2 9.24253 50.6C9.59796 50.975 10.1193 51.2 10.6642 51.2Z" fill="#7B0000"/>
    <path d="M9.21964 63.375C9.59877 63.775 10.1201 64 10.6651 64C11.2101 64 11.7313 63.775 12.1105 63.375L32.3226 42.05C33.1045 41.225 33.1045 39.85 32.3226 39.025C31.5406 38.2 30.2374 38.2 29.4554 39.025L9.24334 60.35C8.86421 60.75 8.65096 61.3 8.65096 61.875C8.62726 62.425 8.84052 62.975 9.21964 63.375Z" fill="#7B0000"/>
    <path d="M115.802 0H63.2217C59.8807 0 57.1557 2.875 57.1557 6.4V29.875H10.6655C5.07341 29.875 0.547607 34.65 0.547607 40.525C0.547607 41.7 1.44803 42.65 2.56171 42.65C3.67539 42.65 4.57581 41.7 4.57581 40.525C4.57581 37 7.30077 34.125 10.6418 34.125H83.4338C86.7749 34.125 89.4998 37 89.4998 40.525V91.725H4.59951V57.6C4.59951 56.425 3.69908 55.475 2.58541 55.475C1.47173 55.475 0.547607 56.425 0.547607 57.6V96C0.547607 101.9 5.07341 106.675 10.6655 106.675H32.9154V115.2H26.8494C23.5084 115.2 20.7834 118.075 20.7834 121.6C20.7834 125.125 23.4847 128 26.8257 128H115.802C119.143 128 121.868 125.125 121.868 121.6V6.4C121.868 2.875 119.143 0 115.802 0ZM10.6655 102.4C7.32447 102.4 4.59951 99.525 4.59951 96H89.5235C89.5235 99.525 86.7986 102.4 83.4575 102.4H10.6655ZM57.1557 106.675V115.2H36.9436V106.675H57.1557ZM67.2736 123.725H26.8257C25.712 123.725 24.8116 122.775 24.8116 121.6C24.8116 120.425 25.712 119.475 26.8257 119.475H67.2736C68.3873 119.475 69.2877 120.425 69.2877 121.6C69.2877 122.775 68.3873 123.725 67.2736 123.725ZM117.816 121.6C117.816 122.775 116.915 123.725 115.802 123.725H72.9842C73.6477 121.775 73.3633 119.6 72.226 117.9C71.0886 116.2 69.2403 115.2 67.2736 115.2H61.2076V106.675H83.4575C89.0496 106.675 93.5754 101.9 93.5754 96V40.525C93.5754 34.625 89.0496 29.85 83.4575 29.85H61.2076V6.4C61.2076 5.225 62.108 4.275 63.2217 4.275H115.802C116.915 4.275 117.816 5.225 117.816 6.4V121.6Z" fill="#7B0000"/>
    <path d="M109.735 10.6748H69.287C67.0596 10.6748 65.2351 12.5748 65.2351 14.9498V19.2248C65.2351 21.5748 67.036 23.4998 69.287 23.4998H109.735C111.962 23.4998 113.787 21.5998 113.787 19.2248V14.9248C113.787 12.5748 111.962 10.6748 109.735 10.6748ZM69.287 19.1998V14.9248H109.735V19.1998H69.287Z" fill="#7B0000"/>
    <path d="M105.684 42.675C109.025 42.675 111.75 39.8 111.75 36.275C111.75 32.75 109.025 29.875 105.684 29.875C102.343 29.875 99.6179 32.75 99.6179 36.275C99.6179 39.8 102.343 42.675 105.684 42.675ZM105.684 34.125C106.798 34.125 107.698 35.075 107.698 36.25C107.698 37.425 106.798 38.375 105.684 38.375C104.57 38.375 103.67 37.425 103.67 36.25C103.67 35.1 104.57 34.125 105.684 34.125Z" fill="#7B0000"/>
    <path d="M111.75 53.3248C111.75 49.7998 109.025 46.9248 105.684 46.9248C102.343 46.9248 99.6179 49.7998 99.6179 53.3248C99.6179 56.8498 102.343 59.7248 105.684 59.7248C109.049 59.7248 111.75 56.8748 111.75 53.3248ZM105.684 55.4748C104.57 55.4748 103.67 54.5248 103.67 53.3498C103.67 52.1748 104.57 51.2248 105.684 51.2248C106.798 51.2248 107.698 52.1748 107.698 53.3498C107.698 54.5248 106.798 55.4748 105.684 55.4748Z" fill="#7B0000"/>
    <path d="M79.4055 110.925C78.2918 110.925 77.3914 111.875 77.3914 113.05V117.325C77.3914 118.5 78.2918 119.45 79.4055 119.45C80.5191 119.45 81.4196 118.5 81.4196 117.325V113.05C81.4196 111.9 80.5191 110.925 79.4055 110.925Z" fill="#7B0000"/>
    <path d="M87.4853 110.925C86.3716 110.925 85.4712 111.875 85.4712 113.05V117.325C85.4712 118.5 86.3716 119.45 87.4853 119.45C88.599 119.45 89.4994 118.5 89.4994 117.325V113.05C89.5231 111.9 88.599 110.925 87.4853 110.925Z" fill="#7B0000"/>
    <path d="M95.59 110.925C94.4763 110.925 93.5759 111.875 93.5759 113.05V117.325C93.5759 118.5 94.4763 119.45 95.59 119.45C96.7037 119.45 97.6041 118.5 97.6041 117.325V113.05C97.6041 111.9 96.7037 110.925 95.59 110.925Z" fill="#7B0000"/>
    <path d="M103.669 110.925C102.555 110.925 101.655 111.875 101.655 113.05V117.325C101.655 118.5 102.555 119.45 103.669 119.45C104.783 119.45 105.683 118.5 105.683 117.325V113.05C105.683 111.9 104.783 110.925 103.669 110.925Z" fill="#7B0000"/>
    <path d="M111.749 110.925C110.636 110.925 109.735 111.875 109.735 113.05V117.325C109.735 118.5 110.636 119.45 111.749 119.45C112.863 119.45 113.764 118.5 113.764 117.325V113.05C113.787 111.9 112.863 110.925 111.749 110.925Z" fill="#7B0000"/>
</svg>
