<svg width="442" height="438" viewBox="0 0 442 438" fill="none" xmlns="http://www.w3.org/2000/svg">
<path d="M62.2696 403H228.7C245.216 402.979 261.052 396.177 272.73 384.085C284.41 371.993 290.979 355.598 291 338.496V298.689C291 293.678 289.077 288.868 285.653 285.324C282.229 281.78 277.586 279.789 272.744 279.789C267.902 279.789 263.258 281.78 259.834 285.324C256.41 288.868 254.487 293.678 254.487 298.689V338.496C254.478 345.575 251.76 352.36 246.925 357.366C242.09 362.371 235.537 365.187 228.7 365.196H62.2696C55.4376 365.18 48.8899 362.361 44.0616 357.357C39.2336 352.352 36.5189 345.57 36.513 338.496V64.5047C36.5189 57.4266 39.2367 50.6403 44.0699 45.6348C48.9028 40.6291 55.4564 37.8133 62.2925 37.805H228.7C235.537 37.8133 242.09 40.6288 246.925 45.6343C251.76 50.6396 254.48 57.4259 254.487 64.5047V110.556C254.487 115.569 256.41 120.377 259.834 123.922C263.258 127.467 267.902 129.458 272.744 129.458C277.586 129.458 282.229 127.467 285.653 123.922C289.077 120.377 291 115.569 291 110.556V64.5047C290.979 47.4033 284.41 31.0085 272.73 18.916C261.052 6.82357 245.216 0.0208604 228.7 1.46175e-05L62.2696 0C45.7582 0.0291624 29.9313 6.83552 18.2588 18.9271C6.58614 31.0187 0.0201431 47.4087 2.38326e-05 64.5047L0 338.496C0.0201163 355.591 6.58612 371.981 18.2587 384.073C29.9313 396.166 45.7582 402.972 62.2696 403Z" fill="#FEFBF7"/>
<path d="M436.452 187.894L371.005 121.472C367.599 118.013 362.994 116.049 358.178 116.001C353.362 115.953 348.719 117.825 345.248 121.216C337.815 128.477 337.991 140.772 345.286 148.181L379.366 182.812H198.392C193.514 182.812 188.836 184.78 185.387 188.283C181.938 191.785 180 196.536 180 201.49C180 206.443 181.938 211.194 185.387 214.697C188.836 218.199 193.514 220.167 198.392 220.167L379.373 220.167L344.966 255.109C341.514 258.613 339.576 263.363 339.574 268.317C339.574 273.271 341.511 278.022 344.961 281.526C348.41 285.03 353.088 286.998 357.966 287C362.844 287 367.525 285.032 370.974 281.531L436.452 215.062C438.211 213.28 439.606 211.162 440.557 208.831C441.51 206.5 442 204.002 442 201.478C442 198.955 441.51 196.456 440.557 194.125C439.606 191.794 438.211 189.677 436.452 187.894Z" fill="#FEFBF7"/>
</svg>
