<svg width="19" height="17" viewBox="0 0 19 17" fill="none" xmlns="http://www.w3.org/2000/svg">
<g clip-path="url(#clip0_4521_552)">
<path d="M2.638 17H9.69128C10.3912 16.9991 11.0623 16.7122 11.5572 16.2021C12.0522 15.692 12.3306 15.0004 12.3315 14.279V12.5998C12.3315 12.3884 12.25 12.1855 12.1049 12.036C11.9598 11.8865 11.763 11.8025 11.5578 11.8025C11.3526 11.8025 11.1558 11.8865 11.0107 12.036C10.8656 12.1855 10.7841 12.3884 10.7841 12.5998V14.279C10.7837 14.5776 10.6685 14.8638 10.4636 15.075C10.2587 15.2861 9.98102 15.4049 9.69128 15.4053H2.638C2.34846 15.4046 2.07097 15.2857 1.86635 15.0746C1.66174 14.8635 1.54669 14.5774 1.54644 14.279V2.72104C1.54669 2.42246 1.66187 2.13619 1.8667 1.92504C2.07152 1.71388 2.34926 1.5951 2.63897 1.59475H9.69128C9.98102 1.5951 10.2587 1.71387 10.4636 1.92502C10.6685 2.13616 10.7838 2.42243 10.7841 2.72104V4.66364C10.7841 4.87511 10.8656 5.07793 11.0107 5.22747C11.1558 5.377 11.3526 5.46101 11.5578 5.46101C11.763 5.46101 11.9598 5.377 12.1049 5.22747C12.25 5.07793 12.3315 4.87511 12.3315 4.66364V2.72104C12.3306 1.99964 12.0522 1.30805 11.5572 0.797946C11.0623 0.287843 10.3912 0.000879965 9.69128 6.16618e-07L2.638 0C1.93825 0.00123018 1.26751 0.288347 0.772826 0.798412C0.278143 1.30848 -0.0001229 1.99987 -0.000975552 2.72104L-0.000976562 14.279C-0.000124037 15.0001 0.278142 15.6915 0.772824 16.2016C1.26751 16.7117 1.93825 16.9988 2.638 17Z" fill="#86171E"/>
<path d="M18.3867 7.92085L15.6336 5.08519C15.4903 4.93752 15.2966 4.85365 15.094 4.8516C14.8914 4.84955 14.6961 4.92948 14.5501 5.07423C14.2374 5.38421 14.2448 5.90914 14.5517 6.22543L15.9853 7.7039H8.37233C8.16713 7.7039 7.97034 7.78791 7.82524 7.93744C7.68014 8.08698 7.59863 8.28979 7.59863 8.50127C7.59863 8.71275 7.68014 8.91556 7.82524 9.0651C7.97034 9.21463 8.16713 9.29864 8.37233 9.29864L15.9856 9.29865L14.5382 10.7904C14.393 10.94 14.3115 11.1428 14.3114 11.3543C14.3114 11.5658 14.3929 11.7686 14.538 11.9182C14.6831 12.0678 14.8799 12.1518 15.0851 12.1519C15.2903 12.1519 15.4872 12.0679 15.6323 11.9184L18.3867 9.0807C18.4607 9.0046 18.5194 8.9142 18.5594 8.81469C18.5995 8.71518 18.6201 8.60851 18.6201 8.50077C18.6201 8.39304 18.5995 8.28637 18.5594 8.18686C18.5194 8.08734 18.4607 7.99695 18.3867 7.92085Z" fill="#86171E"/>
</g>
<defs>
<clipPath id="clip0_4521_552">
<rect width="19" height="17" fill="white"/>
</clipPath>
</defs>
</svg>
