<svg width="19" height="17" viewBox="0 0 19 17" fill="none" xmlns="http://www.w3.org/2000/svg">
<path d="M2.63775 17L9.69103 17C10.391 16.9991 11.0621 16.7122 11.557 16.2021C12.052 15.692 12.3304 15.0004 12.3313 14.279L12.3313 12.5998C12.3313 12.3884 12.2498 12.1855 12.1047 12.036C11.9596 11.8865 11.7628 11.8025 11.5576 11.8025C11.3524 11.8025 11.1556 11.8865 11.0105 12.036C10.8654 12.1855 10.7839 12.3884 10.7839 12.5998L10.7839 14.279C10.7835 14.5776 10.6683 14.8638 10.4634 15.075C10.2585 15.2861 9.98077 15.4049 9.69103 15.4053L2.63775 15.4053C2.34821 15.4046 2.07072 15.2857 1.8661 15.0746C1.66149 14.8635 1.54644 14.5774 1.54619 14.279L1.54619 2.72104C1.54644 2.42246 1.66162 2.13619 1.86645 1.92504C2.07127 1.71388 2.34901 1.5951 2.63872 1.59475L9.69103 1.59475C9.98077 1.5951 10.2585 1.71387 10.4634 1.92502C10.6683 2.13616 10.7836 2.42243 10.7839 2.72104L10.7839 4.66364C10.7839 4.87511 10.8654 5.07793 11.0105 5.22747C11.1556 5.377 11.3524 5.46101 11.5576 5.46101C11.7628 5.46101 11.9596 5.377 12.1047 5.22747C12.2498 5.07793 12.3313 4.87511 12.3313 4.66364L12.3313 2.72104C12.3304 1.99964 12.052 1.30805 11.557 0.797945C11.0621 0.287842 10.391 0.000879118 9.69103 -2.30819e-07L2.63775 -8.47437e-07C1.938 0.00122933 1.26726 0.288346 0.772579 0.798411C0.277896 1.30848 -0.000369668 1.99987 -0.00122232 2.72104L-0.00122333 14.279C-0.000370804 15.0001 0.277895 15.6915 0.772577 16.2016C1.26726 16.7117 1.938 16.9988 2.63775 17Z" fill="#125A83"/>
<path d="M18.3869 7.92049L15.6338 5.08483C15.4905 4.93716 15.2968 4.85329 15.0942 4.85124C14.8916 4.84919 14.6963 4.92912 14.5503 5.07387C14.2376 5.38385 14.245 5.90878 14.5519 6.22507L15.9855 7.70354L8.37258 7.70354C8.16738 7.70354 7.97059 7.78755 7.82549 7.93708C7.68039 8.08662 7.59888 8.28943 7.59888 8.50091C7.59888 8.71239 7.68039 8.9152 7.82549 9.06474C7.97059 9.21427 8.16738 9.29828 8.37258 9.29828L15.9858 9.29829L14.5384 10.79C14.3932 10.9396 14.3117 11.1424 14.3116 11.3539C14.3116 11.5654 14.3931 11.7682 14.5382 11.9178C14.6833 12.0674 14.8801 12.1514 15.0853 12.1515C15.2905 12.1515 15.4874 12.0675 15.6325 11.918L18.3869 9.08034C18.4609 9.00424 18.5196 8.91384 18.5596 8.81433C18.5997 8.71482 18.6203 8.60815 18.6203 8.50041C18.6203 8.39268 18.5997 8.28601 18.5596 8.1865C18.5196 8.08698 18.4609 7.99659 18.3869 7.92049Z" fill="#125A83"/>
</svg>
