<svg width="452" height="512" viewBox="0 0 452 512" fill="none" xmlns="http://www.w3.org/2000/svg">
<path d="M370.14 0.160156H151.35C129.637 0.18662 108.821 8.82384 93.4674 24.1773C78.1139 39.5308 69.4767 60.347 69.4502 82.0602V132.6C69.4502 138.965 71.9788 145.07 76.4796 149.571C80.9805 154.072 87.085 156.6 93.4502 156.6C99.8154 156.6 105.92 154.072 110.421 149.571C114.922 145.07 117.45 138.965 117.45 132.6V82.0602C117.461 73.0726 121.036 64.4561 127.391 58.1009C133.746 51.7457 142.363 48.1707 151.35 48.1602H370.14C379.122 48.1787 387.729 51.7575 394.076 58.1121C400.424 64.4667 403.992 73.0787 404 82.0602V429.94C403.992 438.927 400.419 447.543 394.066 453.899C387.712 460.254 379.097 463.83 370.11 463.84H151.35C142.363 463.83 133.746 460.255 127.391 453.899C121.036 447.544 117.461 438.928 117.45 429.94V371.47C117.45 365.105 114.922 359 110.421 354.5C105.92 349.999 99.8154 347.47 93.4502 347.47C87.085 347.47 80.9805 349.999 76.4796 354.5C71.9788 359 69.4502 365.105 69.4502 371.47V429.94C69.4767 451.653 78.1139 472.469 93.4674 487.823C108.821 503.176 129.637 511.814 151.35 511.84H370.14C391.846 511.803 412.652 503.161 427.997 487.809C443.342 472.457 451.974 451.646 452 429.94V82.0602C451.974 60.354 443.342 39.5438 427.997 24.1914C412.652 8.83909 391.846 0.1972 370.14 0.160156Z" fill="#FEFBF7"/>
<path d="M334.64 238.531L249.24 153.181C244.797 148.736 238.787 146.211 232.502 146.15C226.218 146.088 220.16 148.494 215.63 152.851C205.93 162.181 206.16 177.981 215.68 187.501L260.15 232.001H24C17.6348 232.001 11.5303 234.529 7.02944 239.03C2.52856 243.531 0 249.635 0 256.001C0 262.366 2.52856 268.47 7.02944 272.971C11.5303 277.472 17.6348 280.001 24 280.001H260.16L215.26 324.901C210.758 329.401 208.228 335.506 208.227 341.872C208.226 348.238 210.754 354.343 215.255 358.846C219.756 363.348 225.861 365.877 232.226 365.878C238.592 365.879 244.698 363.351 249.2 358.851L334.64 273.441C336.935 271.15 338.756 268.429 339.999 265.434C341.241 262.439 341.881 259.228 341.881 255.986C341.881 252.743 341.241 249.532 339.999 246.537C338.756 243.542 336.935 240.821 334.64 238.531Z" fill="#FEFBF7"/>
</svg>
