<svg width="30" height="27" viewBox="0 0 30 27" fill="none" xmlns="http://www.w3.org/2000/svg">
<path d="M28.044 10.4346H20.2179V22.1737H28.044V10.4346ZM26.0875 18.9128C26.0875 19.0858 26.0188 19.2517 25.8964 19.374C25.7741 19.4963 25.6083 19.565 25.4353 19.565H22.8266C22.6536 19.565 22.4877 19.4963 22.3654 19.374C22.2431 19.2517 22.1744 19.0858 22.1744 18.9128C22.1744 18.7399 22.2431 18.574 22.3654 18.4517C22.4877 18.3294 22.6536 18.2607 22.8266 18.2607H24.7831V16.9563H22.8266C22.6536 16.9563 22.4877 16.8876 22.3654 16.7653C22.2431 16.643 22.1744 16.4771 22.1744 16.3041C22.1744 16.1312 22.2431 15.9653 22.3654 15.843C22.4877 15.7207 22.6536 15.652 22.8266 15.652H24.7831V14.3476H22.8266C22.6536 14.3476 22.4877 14.2789 22.3654 14.1566C22.2431 14.0343 22.1744 13.8684 22.1744 13.6954C22.1744 13.5225 22.2431 13.3566 22.3654 13.2343C22.4877 13.112 22.6536 13.0433 22.8266 13.0433H25.4353C25.6083 13.0433 25.7741 13.112 25.8964 13.2343C26.0188 13.3566 26.0875 13.5225 26.0875 13.6954V18.9128Z" fill="white"/>
<path d="M18.9125 0H11.0864V22.1739H18.9125V0ZM16.3038 9.13043H13.6951C13.5222 9.13043 13.3563 9.06172 13.234 8.93942C13.1117 8.81711 13.043 8.65123 13.043 8.47826C13.043 8.30529 13.1117 8.13941 13.234 8.0171C13.3563 7.8948 13.5222 7.82609 13.6951 7.82609H14.3473C14.3473 4.38261 14.4256 4.74783 14.1582 5.02826C14.0354 5.15107 13.8688 5.22006 13.6951 5.22006C13.5215 5.22006 13.3549 5.15107 13.2321 5.02826C13.1093 4.90545 13.0403 4.73889 13.0403 4.56522C13.0403 4.39154 13.1093 4.22498 13.2321 4.10217C14.4843 2.85 14.7191 2.43261 15.2473 2.66087C15.7756 2.88913 15.6517 2.93478 15.6517 7.82609H16.3038C16.4768 7.82609 16.6427 7.8948 16.765 8.0171C16.8873 8.13941 16.956 8.30529 16.956 8.47826C16.956 8.65123 16.8873 8.81711 16.765 8.93942C16.6427 9.06172 16.4768 9.13043 16.3038 9.13043Z" fill="white"/>
<path d="M9.78261 6.52148H1.95652V22.1737H9.78261V6.52148ZM7.82609 12.391C7.82609 12.564 7.75738 12.7299 7.63507 12.8522C7.51276 12.9745 7.34688 13.0432 7.17391 13.0432H5.21739V14.3476H7.17391C7.34688 14.3476 7.51276 14.4163 7.63507 14.5386C7.75738 14.6609 7.82609 14.8268 7.82609 14.9997C7.82609 15.1727 7.75738 15.3386 7.63507 15.4609C7.51276 15.5832 7.34688 15.6519 7.17391 15.6519H4.56522C4.39225 15.6519 4.22637 15.5832 4.10406 15.4609C3.98175 15.3386 3.91304 15.1727 3.91304 14.9997V12.391C3.91304 12.2181 3.98175 12.0522 4.10406 11.9299C4.22637 11.8076 4.39225 11.7389 4.56522 11.7389H6.52174V10.4345H4.56522C4.39225 10.4345 4.22637 10.3658 4.10406 10.2435C3.98175 10.1212 3.91304 9.95532 3.91304 9.78235C3.91304 9.60939 3.98175 9.4435 4.10406 9.3212C4.22637 9.19889 4.39225 9.13018 4.56522 9.13018H7.17391C7.34688 9.13018 7.51276 9.19889 7.63507 9.3212C7.75738 9.4435 7.82609 9.60939 7.82609 9.78235V12.391Z" fill="white"/>
<path d="M0 23.4783H30V26.087H0V23.4783Z" fill="white"/>
</svg>
