<svg width="60" height="63" viewBox="0 0 60 63" fill="none" xmlns="http://www.w3.org/2000/svg">
<rect x="6.18555" y="1.5" width="47.7273" height="60" rx="8.5" stroke="#86171E" stroke-width="3"/>
<path d="M12.0488 13.0898H48.0488" stroke="#86171E" stroke-width="3" stroke-linecap="round"/>
<path d="M12.0488 21.2715H48.0488" stroke="#86171E" stroke-width="3" stroke-linecap="round"/>
<path d="M13.084 38.6035H48.6999" stroke="#86171E" stroke-width="3" stroke-linecap="round"/>
<rect x="2.09375" y="31.7715" width="56.3549" height="19.9091" rx="3.5" fill="#86171E" stroke="#86171E" stroke-width="3"/>
<path d="M49.0375 35.3242V37.8726H43.7508V40.6255H47.7066V43.0994H43.7508V48.3821H40.5898V35.3242H49.0375Z" fill="#FEFBF7"/>
<path d="M30.1721 35.3242C31.54 35.3242 32.7354 35.597 33.7582 36.1427C34.7811 36.6883 35.5698 37.4571 36.1243 38.4492C36.6912 39.4288 36.9746 40.5635 36.9746 41.8532C36.9746 43.1304 36.6912 44.2651 36.1243 45.2572C35.5698 46.2492 34.7749 47.0181 33.7397 47.5637C32.7169 48.1093 31.5277 48.3821 30.1721 48.3821H25.3105V35.3242H30.1721ZM29.9688 45.6292C31.1641 45.6292 32.0946 45.3006 32.76 44.6433C33.4255 43.9861 33.7582 43.056 33.7582 41.8532C33.7582 40.6503 33.4255 39.7141 32.76 39.0444C32.0946 38.3748 31.1641 38.04 29.9688 38.04H28.4715V45.6292H29.9688Z" fill="#FEFBF7"/>
<path d="M21.8172 39.528C21.8172 40.2845 21.6447 40.9789 21.2997 41.6114C20.9546 42.2314 20.4247 42.7336 19.7099 43.118C18.9952 43.5025 18.1079 43.6947 17.0481 43.6947H15.0887V48.3821H11.9277V35.3242H17.0481C18.0833 35.3242 18.9582 35.504 19.673 35.8636C20.3877 36.2233 20.9238 36.7193 21.2812 37.3517C21.6386 37.9842 21.8172 38.7096 21.8172 39.528ZM16.8078 41.1649C17.4116 41.1649 17.8614 41.0223 18.1572 40.7371C18.453 40.4519 18.6008 40.0489 18.6008 39.528C18.6008 39.0072 18.453 38.6042 18.1572 38.319C17.8614 38.0338 17.4116 37.8912 16.8078 37.8912H15.0887V41.1649H16.8078Z" fill="#FEFBF7"/>
</svg>
