<svg width="25" height="25" viewBox="0 0 25 25" fill="none" xmlns="http://www.w3.org/2000/svg">
<path d="M12.4999 0C5.59654 0 0 5.59654 0 12.5C0 19.4035 5.59654 24.9999 12.4999 24.9999C19.4034 24.9999 24.9999 19.4035 24.9999 12.5C25 5.59654 19.4035 0 12.4999 0ZM19.6334 14.5078H14.3147V19.8259C14.3147 20.7368 13.5766 21.4756 12.6654 21.4756C11.7545 21.4756 11.0156 20.7368 11.0156 19.8259V14.5078H5.69781C4.7866 14.5078 4.04786 13.7694 4.04786 12.8582C4.04786 11.947 4.7866 11.2084 5.69781 11.2084H11.0159V5.89061C11.0159 4.9794 11.7545 4.24115 12.6657 4.24115C13.577 4.24115 14.3154 4.9794 14.3154 5.89061V11.2087H19.6334C20.5444 11.2087 21.2834 11.9473 21.2834 12.8584C21.2834 13.7698 20.5444 14.5078 19.6334 14.5078Z" fill="white"/>
</svg>
