<svg width="42" height="30" viewBox="0 0 42 30" fill="none" xmlns="http://www.w3.org/2000/svg">
<path d="M38.5832 0.899997C40.3832 0.899997 41.2832 1.46666 41.2832 2.6C41.2832 3.13333 41.0499 3.49999 40.5832 3.7C40.1832 3.9 39.6165 4.1 38.8832 4.29999C37.0832 4.76666 35.5499 5.43333 34.2832 6.3C33.0165 7.1 32.0499 8.03333 31.3832 9.1C30.7832 10.1667 30.4832 11.3667 30.4832 12.7C30.4832 13.9667 30.9165 14.9333 31.7832 15.6C32.6499 16.2667 33.6165 16.7667 34.6832 17.1C35.8165 17.4333 36.7832 18.1 37.5832 19.1C38.4499 20.1 38.8832 21.4667 38.8832 23.2C38.8832 25 38.1165 26.5333 36.5832 27.8C35.1165 29.0667 33.4499 29.7 31.5832 29.7C28.4499 29.7 25.9165 28.7333 23.9832 26.8C22.0499 24.8 21.0832 22.2667 21.0832 19.2C21.0832 16.4667 21.5832 14 22.5832 11.8C23.5832 9.53333 24.9165 7.6 26.5832 6C28.2499 4.33333 30.1165 3.06667 32.1832 2.2C34.2499 1.33333 36.3832 0.899997 38.5832 0.899997ZM17.9832 0.899997C19.7832 0.899997 20.6832 1.46666 20.6832 2.6C20.6832 3.13333 20.4499 3.49999 19.9832 3.7C19.5832 3.9 19.0165 4.1 18.2832 4.29999C16.4832 4.76666 14.9499 5.43333 13.6832 6.3C12.4165 7.1 11.4499 8.03333 10.7832 9.1C10.1832 10.1667 9.8832 11.3667 9.8832 12.7C9.8832 13.9667 10.3165 14.9333 11.1832 15.6C12.0499 16.2667 13.0165 16.7667 14.0832 17.1C15.2165 17.4333 16.1832 18.1 16.9832 19.1C17.8499 20.1 18.2832 21.4667 18.2832 23.2C18.2832 25 17.5165 26.5333 15.9832 27.8C14.5165 29.0667 12.8499 29.7 10.9832 29.7C7.84987 29.7 5.31654 28.7333 3.3832 26.8C1.44987 24.8 0.483203 22.2667 0.483203 19.2C0.483203 16.4667 0.983203 14 1.9832 11.8C2.9832 9.53333 4.31654 7.6 5.9832 6C7.64987 4.33333 9.51654 3.06667 11.5832 2.2C13.6499 1.33333 15.7832 0.899997 17.9832 0.899997Z" fill="#86171E"/>
</svg>
