
<svg width="120" height="127" viewBox="0 0 120 127" fill="none" xmlns="http://www.w3.org/2000/svg">
    <path d="M81.9282 6.3001V40.0751C65.9339 33.7001 47.9492 40.9251 40.0349 56.9251C32.1207 72.9251 36.7413 92.6251 50.84 102.85H6.36387C4.16021 102.85 2.38306 100.975 2.38306 98.6501V26.9251C2.38306 26.3251 2.50153 25.7251 2.73849 25.1751H20.273C22.4767 25.1751 24.2538 23.3001 24.2538 20.9751V2.4751C24.7751 2.2251 25.3438 2.1001 25.9125 2.1001H77.9711C80.1511 2.1001 81.9282 3.9751 81.9282 6.3001Z" fill="#FFEFEF"/>
    <path d="M77.948 2.1001H71.9768C74.1805 2.1001 75.9576 3.9751 75.9576 6.3001V38.3501C77.9954 38.7251 79.9858 39.3001 81.9288 40.0501V6.3001C81.9288 3.9751 80.1517 2.1001 77.948 2.1001Z" fill="#C17F7F"/>
    <path d="M24.2529 2.4751V20.9751C24.2529 23.3001 22.4757 25.1751 20.2721 25.1751H2.73755C2.92711 24.7251 3.21146 24.3001 3.54319 23.9251L23.0681 3.3251C23.4236 2.9751 23.8264 2.6751 24.2529 2.4751Z" fill="#C17F7F"/>
    <path d="M96.5492 95.5248C87.853 107.175 73.2567 111.95 59.8451 107.5C46.4336 103.05 37.0265 90.3498 36.1972 75.5498C35.3679 60.7498 43.3058 46.9498 56.125 40.8998C68.9441 34.8498 83.9907 37.7498 93.919 48.2498C106.027 60.9998 107.165 81.3248 96.5492 95.5248Z" fill="#FFEFEF"/>
    <path d="M70.01 100.725C84.2875 100.725 95.8616 88.5134 95.8616 73.4498C95.8616 58.3862 84.2875 46.1748 70.01 46.1748C55.7326 46.1748 44.1584 58.3862 44.1584 73.4498C44.1584 88.5134 55.7326 100.725 70.01 100.725Z" fill="#FFEFEF"/>
    <path d="M115.978 121.95C113.656 124.4 109.865 124.4 107.543 121.95L97.4488 111.3C96.6668 110.475 96.6668 109.15 97.4488 108.35L103.088 102.4C103.87 101.575 105.126 101.575 105.884 102.4L115.978 113.05C118.301 115.525 118.301 119.5 115.978 121.95Z" fill="#FFEFEF"/>
    <path d="M115.978 113.05L105.884 102.4C105.102 101.575 103.846 101.575 103.088 102.4L101.5 104.075L110.007 113.05C111.334 114.425 111.974 116.375 111.737 118.3C111.5 120.25 110.41 121.95 108.775 122.9C111.358 124.475 114.651 123.8 116.476 121.3C118.3 118.8 118.087 115.3 115.978 113.05Z" fill="#C17F7F"/>
    <path d="M103.088 102.425L97.4484 108.375L90.9084 101.475C92.9936 99.7499 94.8893 97.7499 96.5479 95.5249L103.088 102.425Z" fill="#C17F7F"/>
    <path d="M6.36387 102.825H12.3351C10.1314 102.825 8.35428 100.95 8.35428 98.6251V26.9251C8.35428 26.3251 8.47275 25.7251 8.70971 25.1751C8.89927 24.7251 9.18361 24.3001 9.51535 23.9251L29.0403 3.3251C29.372 2.9751 29.7748 2.6751 30.2251 2.4751C30.7464 2.2251 31.315 2.1001 31.8837 2.1001H25.9125C25.3438 2.1001 24.7751 2.2251 24.2538 2.4751C23.8273 2.6751 23.4245 2.9751 23.0691 3.3251L3.54413 23.9501C3.21239 24.3001 2.92805 24.7251 2.73849 25.2001C2.50153 25.7501 2.38306 26.3501 2.38306 26.9501V98.6501C2.38306 100.95 4.16021 102.825 6.36387 102.825Z" fill="white"/>
    <path d="M0.393066 81.8252H4.37388V98.6002H0.393066V81.8252Z" fill="white"/>
    <path d="M2.38323 92.325C3.4825 92.325 4.37364 91.3848 4.37364 90.225C4.37364 89.0652 3.4825 88.125 2.38323 88.125C1.28396 88.125 0.392822 89.0652 0.392822 90.225C0.392822 91.3848 1.28396 92.325 2.38323 92.325Z" fill="#7B0000"/>
    <path d="M89.7009 52.6747C80.3176 42.7747 65.5791 41.2247 54.5371 49.0247C43.4951 56.8247 39.2062 71.7497 44.277 84.6997C49.3478 97.6497 62.4039 105 75.4364 102.275C88.4688 99.5497 97.8521 87.4747 97.8521 73.4747C97.8521 65.6497 94.9139 58.1747 89.7009 52.6747ZM86.8812 91.2497C78.8248 99.7497 66.2189 101.05 56.7408 94.3747C47.2626 87.6997 43.5899 74.8997 47.9498 63.7997C52.3097 52.6997 63.4939 46.3997 74.6544 48.7497C85.8149 51.0997 93.8713 61.4247 93.8713 73.4497C93.8713 80.1247 91.3596 86.5247 86.8812 91.2497Z" fill="#7B0000"/>
    <path d="M70.0095 52.4499C64.7254 52.4249 59.6783 54.6499 55.9582 58.5999C55.4369 59.1249 55.2236 59.8999 55.4132 60.6499C55.6027 61.3749 56.1477 61.9499 56.8349 62.1499C57.522 62.3499 58.2803 62.1249 58.7779 61.5749C61.7635 58.4249 65.8154 56.6499 70.0332 56.6499C71.1232 56.6499 72.0236 55.6999 72.0236 54.5499C71.9999 53.3999 71.0995 52.4499 70.0095 52.4499Z" fill="#7B0000"/>
    <path d="M107.306 100.925C106.572 100.125 105.553 99.7 104.486 99.7C104.131 99.7 103.799 99.75 103.467 99.85L99.1549 95.3C105.458 85.975 107.401 74.125 104.439 63.125C101.477 52.1 93.9183 43.1 83.9188 38.675V6.3C83.9188 2.825 81.2412 0 77.9476 0H25.9127C24.3251 0 22.7849 0.65 21.6712 1.85L2.14628 22.45C1.0089 23.625 0.392822 25.25 0.392822 26.925V81.85C0.392822 83 1.29324 83.95 2.38323 83.95C3.47321 83.95 4.37364 83 4.37364 81.85V27.275H20.2732C23.5668 27.275 26.2444 24.45 26.2444 20.975V4.2H77.9476C79.0376 4.2 79.938 5.15 79.938 6.3V37.175C64.2517 32.375 47.4754 39.4 39.1821 54.25C30.8887 69.1 33.1398 87.975 44.6794 100.15C44.8689 100.35 45.0822 100.525 45.2718 100.725H6.36404C5.27406 100.725 4.37364 99.775 4.37364 98.625C4.37364 97.475 3.47321 96.525 2.38323 96.525C1.29324 96.525 0.392822 97.475 0.392822 98.625C0.392822 102.1 3.07039 104.925 6.36404 104.925H50.2241C62.5693 113.55 78.6585 113.275 90.7194 104.2L95.0319 108.775C94.9371 109.125 94.8898 109.475 94.8898 109.85C94.8898 110.975 95.3163 112.025 96.0508 112.825L106.145 123.475C108.135 125.65 111.097 126.525 113.893 125.775C116.666 125 118.846 122.725 119.58 119.775C120.315 116.85 119.485 113.725 117.4 111.6L107.306 100.925ZM20.2732 23.075H7.19338L22.2873 7.15V20.975C22.2636 22.15 21.3869 23.075 20.2732 23.075ZM47.4991 97.175C38.4001 87.575 35.6752 73.125 40.6038 60.575C45.5324 48.025 57.1431 39.85 70.0097 39.85C82.8762 39.85 94.4869 48.025 99.4156 60.575C104.344 73.125 101.619 87.55 92.5202 97.175C86.5727 103.525 78.4689 107.1 70.0097 107.1C61.5504 107.1 53.4466 103.525 47.4991 97.175ZM95.3163 100.15C95.7902 99.65 96.2167 99.125 96.6432 98.6L100.269 102.425L97.4489 105.4L93.8235 101.575C94.3211 101.1 94.8424 100.65 95.3163 100.15ZM114.581 120.475C113.017 122.05 110.529 122.05 108.965 120.475L98.8706 109.825L104.486 103.9L114.581 114.55C116.144 116.175 116.144 118.825 114.581 120.475Z" fill="#7B0000"/>
    <path d="M34.2057 20.9749H71.9998C73.0898 20.9749 73.9902 20.0249 73.9902 18.8749C73.9902 17.7249 73.0898 16.7749 71.9998 16.7749H34.2057C33.1158 16.7749 32.2153 17.7249 32.2153 18.8749C32.2153 20.0249 33.1158 20.9749 34.2057 20.9749Z" fill="#7B0000"/>
    <path d="M34.2057 31.4749H71.9998C73.0898 31.4749 73.9902 30.5249 73.9902 29.3749C73.9902 28.2249 73.0898 27.2749 71.9998 27.2749H34.2057C33.1158 27.2749 32.2153 28.2249 32.2153 29.3749C32.2153 30.5249 33.1158 31.4749 34.2057 31.4749Z" fill="#7B0000"/>
    <path d="M10.345 39.8749C10.345 41.0249 11.2454 41.9749 12.3354 41.9749H40.1774C41.2674 41.9749 42.1678 41.0249 42.1678 39.8749C42.1678 38.7249 41.2674 37.7749 40.1774 37.7749H12.3354C11.2217 37.7749 10.345 38.6999 10.345 39.8749Z" fill="#7B0000"/>
    <path d="M12.3354 52.45H32.2158C33.3057 52.45 34.2062 51.5 34.2062 50.35C34.2062 49.2 33.3057 48.25 32.2158 48.25H12.3354C11.2454 48.25 10.345 49.2 10.345 50.35C10.345 51.5 11.2217 52.45 12.3354 52.45Z" fill="#7B0000"/>
    <path d="M12.3354 62.95H28.2349C29.3249 62.95 30.2253 62 30.2253 60.85C30.2253 59.7 29.3249 58.75 28.2349 58.75H12.3354C11.2454 58.75 10.345 59.7 10.345 60.85C10.345 62 11.2217 62.95 12.3354 62.95Z" fill="#7B0000"/>
    <path d="M12.3354 73.45H26.2682C27.3582 73.45 28.2586 72.5 28.2586 71.35C28.2586 70.2 27.3582 69.25 26.2682 69.25H12.3354C11.2454 69.25 10.345 70.2 10.345 71.35C10.345 72.5 11.2217 73.45 12.3354 73.45Z" fill="#7B0000"/>
    <path d="M12.3354 83.9251H26.2682C27.3582 83.9251 28.2586 82.9751 28.2586 81.8251C28.2586 80.6751 27.3582 79.7251 26.2682 79.7251H12.3354C11.2454 79.7251 10.345 80.6751 10.345 81.8251C10.345 83.0001 11.2217 83.9251 12.3354 83.9251Z" fill="#7B0000"/>
    <path d="M12.3354 94.4251H28.2349C29.3249 94.4251 30.2253 93.4751 30.2253 92.3251C30.2253 91.1751 29.3249 90.2251 28.2349 90.2251H12.3354C11.2454 90.2251 10.345 91.1751 10.345 92.3251C10.345 93.4751 11.2217 94.4251 12.3354 94.4251Z" fill="#7B0000"/>
</svg>
