<svg id="Layer_1" enable-background="new 0 0 512 512" height="512" viewBox="0 0 512 512" width="512" xmlns="http://www.w3.org/2000/svg"><g id="Layer_2_00000166652077678251612620000003541000192939887504_"><g id="add_friend"><path d="m233.4 293.4h-121.2c-62 0-112.2 50.2-112.2 112.2 0 25 20.2 45.2 45.2 45.2h255.2c25 0 45.2-20.2 45.2-45.2 0-62-50.2-112.2-112.2-112.2z" fill="#86171E" /><circle cx="172.8" cy="161.3" r="100.1" fill="#86171E"/><path d="m480.4 175.1h-41v-41c0-17.5-14.1-31.6-31.6-31.6-17.5 0-31.6 14.1-31.6 31.6v41h-41c-17.4 0-31.6 14.1-31.6 31.6 0 17.4 14.1 31.6 31.6 31.6h41v41c0 17.4 14.1 31.6 31.6 31.6 17.4 0 31.6-14.1 31.6-31.6v-41h41c17.5 0 31.6-14.1 31.6-31.6 0-17.4-14.1-31.6-31.6-31.6z" fill="#86171E"/></g></g></svg>