<svg width="512" height="390" viewBox="0 0 512 390" fill="none" xmlns="http://www.w3.org/2000/svg">
<path d="M233.4 232.4H112.2C50.2 232.4 0 282.6 0 344.6C0 369.6 20.2 389.8 45.2 389.8H300.4C325.4 389.8 345.6 369.6 345.6 344.6C345.6 282.6 295.4 232.4 233.4 232.4Z" fill="#FEFBF7"/>
<path d="M172.8 200.4C228.084 200.4 272.9 155.584 272.9 100.3C272.9 45.0165 228.084 0.200195 172.8 0.200195C117.516 0.200195 72.7002 45.0165 72.7002 100.3C72.7002 155.584 117.516 200.4 172.8 200.4Z" fill="#FEFBF7"/>
<path d="M480.4 114.1H439.4V73.1C439.4 55.6 425.3 41.5 407.8 41.5C390.3 41.5 376.2 55.6 376.2 73.1V114.1H335.2C317.8 114.1 303.6 128.2 303.6 145.7C303.6 163.1 317.7 177.3 335.2 177.3H376.2V218.3C376.2 235.7 390.3 249.9 407.8 249.9C425.2 249.9 439.4 235.8 439.4 218.3V177.3H480.4C497.9 177.3 512 163.2 512 145.7C512 128.3 497.9 114.1 480.4 114.1Z" fill="#FEFBF7"/>
</svg>
