<svg width="30" height="30" viewBox="0 0 30 30" fill="none" xmlns="http://www.w3.org/2000/svg">
<g clip-path="url(#clip0_2308_3704)">
<path d="M6.69067 16.5769C6.69067 16.1217 6.32195 15.7529 5.8667 15.7529H1.74683C1.29158 15.7529 0.922852 16.1217 0.922852 16.5769V23.2236C0.922852 23.6789 1.29158 24.0476 1.74683 24.0476H5.8667C6.32195 24.0476 6.69067 23.6789 6.69067 23.2236V16.5769Z" fill="white"/>
<path d="M13.3374 10.8096H9.21753C8.76228 10.8096 8.39355 11.1783 8.39355 11.6335V23.2241C8.39355 23.6794 8.76228 24.0481 9.21753 24.0481H13.3374C13.7926 24.0481 14.1614 23.6794 14.1614 23.2241V11.6335C14.1614 11.1783 13.7926 10.8096 13.3374 10.8096Z" fill="white"/>
<path d="M20.7534 9.16113H16.6335C16.1783 9.16113 15.8096 9.52986 15.8096 9.98511V23.2236C15.8096 23.6789 16.1783 24.0476 16.6335 24.0476H20.7534C21.2087 24.0476 21.5774 23.6789 21.5774 23.2236V9.98511C21.5774 9.52986 21.2087 9.16113 20.7534 9.16113Z" fill="white"/>
<path d="M28.2241 2.56934H24.1042C23.649 2.56934 23.2803 2.93806 23.2803 3.39331V23.2236C23.2803 23.6789 23.649 24.0476 24.1042 24.0476H28.2241C28.6794 24.0476 29.0481 23.6789 29.0481 23.2236V3.39331C29.0481 2.93806 28.6794 2.56934 28.2241 2.56934Z" fill="white"/>
<path d="M3.86157 14.0503C5.22456 14.0503 6.3335 12.9414 6.3335 11.5784C6.3335 11.3468 6.29127 11.1272 6.23153 10.9147L9.44194 8.64845C9.845 8.93461 10.3346 9.10645 10.8654 9.10645C12.1159 9.10645 13.1414 8.16986 13.304 6.96308L16.5913 6.27094C17.0265 6.98025 17.802 7.4585 18.6931 7.4585C20.0561 7.4585 21.165 6.34956 21.165 4.98657C21.165 4.65698 21.0974 4.34353 20.98 4.05582L24.9236 0.550499C25.2772 0.745678 25.6772 0.866699 26.1089 0.866699C27.4719 0.866699 28.5808 -0.242233 28.5808 -1.60522C28.5808 -2.96822 27.4719 -4.07715 26.1089 -4.07715C24.7459 -4.07715 23.637 -2.96822 23.637 -1.60522C23.637 -1.27563 23.7046 -0.962181 23.822 -0.674477L19.8784 2.83085C19.5248 2.63567 19.1248 2.51465 18.6931 2.51465C17.4426 2.51465 16.4171 3.45123 16.2545 4.65801L12.9672 5.35015C12.532 4.64085 11.7565 4.1626 10.8654 4.1626C9.50237 4.1626 8.39343 5.27153 8.39343 6.63452C8.39343 6.86609 8.43566 7.08565 8.4954 7.29816L5.28499 9.56444C4.88193 9.27828 4.39235 9.10645 3.86157 9.10645C2.49858 9.10645 1.38965 10.2154 1.38965 11.5784C1.38965 12.9414 2.49858 14.0503 3.86157 14.0503Z" fill="white"/>
</g>
<defs>
<clipPath id="clip0_2308_3704">
<rect width="30" height="30" fill="white"/>
</clipPath>
</defs>
</svg>
