
<svg width="122" height="128" viewBox="0 0 122 128" fill="none" xmlns="http://www.w3.org/2000/svg">
    <path d="M109.733 8.53271H115.799C118.037 8.53271 119.843 10.4374 119.843 12.7991V85.2774C119.843 87.6391 118.037 89.5438 115.799 89.5438H6.71368C4.47517 89.5438 2.66992 87.6391 2.66992 85.2774V12.7991C2.66992 10.4374 4.47517 8.53271 6.71368 8.53271H109.733Z" fill="#FFEFEF"/>
    <path d="M115.796 8.53271H109.73C111.969 8.53271 113.774 10.4374 113.774 12.7991V85.2774C113.774 87.6391 111.969 89.5438 109.73 89.5438H115.796C118.035 89.5438 119.84 87.6391 119.84 85.2774V12.7991C119.84 10.4628 118.035 8.55811 115.796 8.53271Z" fill="#AC5A5A"/>
    <path d="M109.733 4.2919V68.2373H71.3653C65.781 68.2373 61.2559 73.0117 61.2559 78.9034V12.7993C61.2559 6.90762 65.781 2.1333 71.3653 2.1333H107.711C108.842 2.1587 109.733 3.09832 109.733 4.2919Z" fill="#FFEFEF"/>
    <path d="M107.709 2.15869H101.644C102.751 2.15869 103.665 3.12371 103.665 4.2919V68.2373H109.731V4.2919C109.731 3.09832 108.84 2.15869 107.709 2.15869Z" fill="#AC5A5A"/>
    <path d="M61.2563 12.7993V78.878C61.2563 72.9863 56.7311 68.2119 51.1469 68.2119H12.7793V4.2919C12.7793 3.12371 13.694 2.15869 14.8012 2.15869H51.1469C53.8187 2.15869 56.3942 3.27609 58.2957 5.28232C60.1972 7.28855 61.2563 9.98045 61.2563 12.7993Z" fill="#FFEFEF"/>
    <path d="M51.1474 2.15869H45.0818C47.7536 2.15869 50.329 3.27609 52.2306 5.28232C54.1321 7.28855 55.1912 9.98045 55.1912 12.8247V69.1516C58.8739 70.853 61.2568 74.6623 61.2568 78.9034V12.7993C61.2568 9.98045 60.1978 7.26315 58.2962 5.25692C56.3947 3.25069 53.8433 2.15869 51.1474 2.15869Z" fill="#AC5A5A"/>
    <path d="M61.2563 78.878H14.8012C13.694 78.878 12.7793 77.9129 12.7793 76.7447V68.2119H51.1469C56.7311 68.2373 61.2563 72.9862 61.2563 78.878Z" fill="#AC5A5A"/>
    <path d="M109.733 68.2373V76.7701C109.733 77.9383 108.818 78.9033 107.711 78.9033H61.2559C61.2559 73.0116 65.781 68.2373 71.3653 68.2373H109.733Z" fill="#AC5A5A"/>
    <path d="M71.4104 50.2573L90.2331 42.5371L107.78 90.2041L88.9574 97.9243L71.4104 50.2573Z" fill="#FFEFEF"/>
    <path d="M90.2596 42.5371L84.9883 44.6957L101.741 90.2295L88.1896 95.7911L88.9839 97.9497L107.807 90.2295L90.2596 42.5371Z" fill="#C17F7F"/>
    <path d="M88.9824 97.9243L107.805 90.2041L111.464 100.134L92.6411 107.854L88.9824 97.9243Z" fill="white"/>
    <path d="M107.829 90.2295L102.557 92.3881L105.422 100.159L91.8701 105.721L92.6644 107.879L111.487 100.159L107.829 90.2295Z" fill="#C17F7F"/>
    <path d="M113.124 122.355L105.59 125.453C102.461 126.723 98.971 125.097 97.7435 121.796L92.6406 107.879L111.463 100.159L116.566 114.076C117.144 115.65 117.12 117.428 116.47 118.977C115.82 120.526 114.641 121.745 113.124 122.355Z" fill="white"/>
    <path d="M116.591 114.076L111.489 100.159L106.217 102.318L110.526 114.076C111.103 115.65 111.079 117.428 110.429 118.977C109.78 120.526 108.576 121.745 107.084 122.355L100.489 125.047C102.053 125.986 103.931 126.113 105.591 125.428L113.125 122.329C114.618 121.72 115.821 120.501 116.471 118.952C117.145 117.403 117.169 115.65 116.591 114.076Z" fill="#C17F7F"/>
    <path d="M81.5254 32.4045L71.3919 36.5694L71.3438 25.2938C71.3438 24.532 71.777 23.8717 72.451 23.5923C73.1249 23.313 73.8711 23.5162 74.3525 24.0749L81.5254 32.4045Z" fill="#C17F7F"/>
    <path d="M90.2576 42.537L71.4349 50.2572L71.3867 36.5437L81.5202 32.3789L90.2576 42.537Z" fill="white"/>
    <path d="M81.5199 32.4043L77.0429 34.2328L84.2157 42.537L71.4346 47.7685V50.2572L90.2573 42.537L81.5199 32.4043Z" fill="#C17F7F"/>
    <path d="M8.73556 85.2774V12.7991C8.73556 10.4374 10.5408 8.53271 12.7793 8.53271H6.71368C4.47517 8.53271 2.66992 10.4374 2.66992 12.7991V85.2774C2.66992 87.6391 4.47517 89.5438 6.71368 89.5438H12.7793C10.5408 89.5438 8.73556 87.6391 8.73556 85.2774Z" fill="white"/>
    <path d="M0.647461 12.7993H4.69122V29.8396H0.647461V12.7993Z" fill="white"/>
    <path d="M2.71719 23.4651C1.60997 23.4651 0.695312 22.5255 0.695312 21.3319C0.695312 20.1638 1.5859 19.1987 2.71719 19.1987H2.74126C3.84848 19.1987 4.76314 20.1638 4.76314 21.3319C4.73907 22.5001 3.82441 23.4651 2.71719 23.4651Z" fill="#7B0000"/>
    <path d="M115.798 6.39962H111.755V4.26641C111.755 1.90465 109.949 0 107.711 0H71.3652C67.2973 0 63.5183 2.1586 61.2558 5.73934C59.0172 2.1586 55.2142 0 51.1463 0H14.8006C12.5621 0 10.7569 1.90465 10.7569 4.26641V6.39962H6.7131C3.36737 6.39962 0.647461 9.26929 0.647461 12.7992C0.647461 13.5611 1.03258 14.2722 1.6584 14.6531C2.28422 15.034 3.05446 15.034 3.68028 14.6531C4.3061 14.2722 4.69122 13.5611 4.69122 12.7992C4.69122 11.6311 5.60588 10.666 6.7131 10.666H10.7569V76.7447C10.7569 79.1064 12.5621 81.0111 14.8006 81.0111H80.608L82.9669 87.4107H6.7131C5.60588 87.4107 4.69122 86.4457 4.69122 85.2775V29.8649C4.69122 28.6967 3.77656 27.7317 2.66934 27.7317C1.56212 27.7317 0.647461 28.6967 0.647461 29.8649V85.2775C0.647461 88.8074 3.36737 91.6771 6.7131 91.6771H84.5074L87.1069 98.7116C86.8662 98.0767 93.1004 115.015 95.8925 122.558C97.5052 126.951 102.199 129.135 106.339 127.408L113.873 124.31C118.037 122.609 120.083 117.657 118.47 113.289L110.503 91.6771H115.774C119.12 91.6771 121.84 88.8074 121.84 85.2775V12.7992C121.864 9.26929 119.144 6.39962 115.798 6.39962ZM83.8575 78.116C82.8465 75.3733 87.4199 87.7662 74.0369 51.4763L89.1048 45.3053L105.208 89.0106L90.1398 95.1817C90.0435 94.9531 83.4724 77.1002 83.8575 78.116ZM73.387 26.1064L78.0566 31.541L73.4111 33.471L73.387 26.1064ZM73.4352 47.1591L73.4111 38.0168L80.9691 34.9186L86.794 41.6737L73.4352 47.1591ZM106.676 92.9977L108.866 98.9656L93.7984 105.137L91.608 99.1687L106.676 92.9977ZM102.68 70.345H107.735V76.7447H105.039L102.68 70.345ZM71.3652 4.29181H107.711V66.104H101.092L92.1376 41.7753C92.0654 41.5214 91.921 41.2928 91.7525 41.115L78.3936 25.5985H87.5161C88.6234 25.5985 89.538 24.6335 89.538 23.4653C89.538 22.2971 88.6234 21.3321 87.5161 21.3321H73.0741C72.0873 21.3321 71.1245 21.7384 70.4264 22.5003C69.7284 23.2367 69.3433 24.2525 69.3433 25.2937L69.4155 50.2827C69.4155 50.5367 69.4636 50.816 69.5599 51.0446L75.096 66.104H71.3652C68.3805 66.104 65.4921 67.2722 63.2776 69.38V12.7992C63.2776 8.10111 66.8881 4.29181 71.3652 4.29181ZM14.8006 4.29181H51.1463C55.5993 4.29181 59.2339 8.10111 59.2339 12.8246V69.4054C57.0194 67.2976 54.131 66.1294 51.1463 66.1294H14.8006V4.29181ZM14.8006 70.345H51.1463C54.8291 70.3704 58.0304 72.9862 58.945 76.7447H14.8006V70.345ZM63.5665 76.7447C64.4811 72.9862 67.6824 70.3704 71.3652 70.345H76.6606L79.0194 76.7447H63.5665ZM112.405 120.348L104.871 123.447C103.86 123.853 102.752 123.828 101.766 123.37C100.779 122.913 100.008 122.075 99.6233 121.009L95.2426 109.098L110.31 102.927L114.691 114.838C115.076 115.879 115.052 117.072 114.619 118.114C114.186 119.155 113.415 119.942 112.405 120.348ZM117.82 85.2775C117.82 86.4457 116.906 87.4107 115.798 87.4107H108.938L106.58 81.0111H107.711C109.949 81.0111 111.755 79.1064 111.755 76.7447V10.666H115.798C116.906 10.666 117.82 11.6311 117.82 12.7992V85.2775Z" fill="#7B0000"/>
    <path d="M22.8637 14.9324H51.1459C52.2532 14.9324 53.1678 13.9674 53.1678 12.7992C53.1678 11.631 52.2532 10.666 51.1459 10.666H22.8637C21.7565 10.666 20.8418 11.631 20.8418 12.7992C20.8418 13.9674 21.7565 14.9324 22.8637 14.9324Z" fill="#7B0000"/>
    <path d="M22.8637 25.5984H51.1459C52.2532 25.5984 53.1678 24.6334 53.1678 23.4652C53.1678 22.2971 52.2532 21.332 51.1459 21.332H22.8637C21.7565 21.332 20.8418 22.2971 20.8418 23.4652C20.8418 24.6334 21.7565 25.5984 22.8637 25.5984Z" fill="#7B0000"/>
    <path d="M22.8637 36.2645H51.1459C52.2532 36.2645 53.1678 35.2994 53.1678 34.1313C53.1678 32.9631 52.2532 31.998 51.1459 31.998H22.8637C21.7565 31.998 20.8418 32.9631 20.8418 34.1313C20.8418 35.2994 21.7565 36.2645 22.8637 36.2645Z" fill="#7B0000"/>
    <path d="M22.8637 46.9051H51.1459C52.2532 46.9051 53.1678 45.9401 53.1678 44.7719C53.1678 43.6037 52.2532 42.6387 51.1459 42.6387H22.8637C21.7565 42.6387 20.8418 43.6037 20.8418 44.7719C20.8418 45.9655 21.7565 46.9051 22.8637 46.9051Z" fill="#7B0000"/>
    <path d="M22.8637 57.5711H51.1459C52.2532 57.5711 53.1678 56.6061 53.1678 55.4379C53.1678 54.2697 52.2532 53.3047 51.1459 53.3047H22.8637C21.7565 53.3047 20.8418 54.2697 20.8418 55.4379C20.8418 56.6061 21.7565 57.5711 22.8637 57.5711Z" fill="#7B0000"/>
    <path d="M71.3664 14.9324H99.6486C100.756 14.9324 101.671 13.9674 101.671 12.7992C101.671 11.631 100.756 10.666 99.6486 10.666H71.3664C70.2591 10.666 69.3445 11.631 69.3445 12.7992C69.3445 13.9674 70.2351 14.9324 71.3664 14.9324Z" fill="#7B0000"/>
</svg>
