<svg viewBox="0 0 55 55" fill="#86171E" xmlns="http://www.w3.org/2000/svg">
    <path d="M1 10C1 5.02944 5.02944 1 10 1H45C49.9706 1 54 5.02944 54 10V45C54 49.9706 49.9706 54 45 54H10C5.02944 54 1 49.9706 1 45V10Z" fill="#FEFBF7" stroke-width="2" />
    <path d="M30.9254 16.386H12.9924C11.8906 16.386 11 15.629 11 14.6928C11 13.7567 11.8906 13 12.9924 13H30.9254C32.0273 13 32.9182 13.7567 32.9182 14.6928C32.9182 15.629 32.0273 16.386 30.9254 16.386Z" fill="#currentColor" />
    <path d="M43.7883 16.386H30.9582C30.1698 16.386 29.5324 15.629 29.5324 14.6928C29.5324 13.7567 30.1698 13 30.9582 13H43.7883C44.5767 13 45.2138 13.7567 45.2138 14.6928C45.2138 15.629 44.5767 16.386 43.7883 16.386Z" fill="#currentColor" />
    <path d="M30.9254 24.6091H12.9924C11.8906 24.6091 11 23.8521 11 22.916C11 21.9798 11.8906 21.2231 12.9924 21.2231H30.9254C32.0273 21.2231 32.9182 21.9798 32.9182 22.916C32.9182 23.8521 32.0273 24.6091 30.9254 24.6091Z" fill="#currentColor" />
    <path d="M43.7883 24.6091H30.9582C30.1698 24.6091 29.5324 23.8521 29.5324 22.916C29.5324 21.9798 30.1698 21.2231 30.9582 21.2231H43.7883C44.5767 21.2231 45.2138 21.9798 45.2138 22.916C45.2138 23.8521 44.5767 24.6091 43.7883 24.6091Z" fill="#currentColor" />
    <path d="M30.9254 32.3485H12.9924C11.8906 32.3485 11 31.5915 11 30.6554C11 29.7192 11.8906 28.9625 12.9924 28.9625H30.9254C32.0273 28.9625 32.9182 29.7192 32.9182 30.6554C32.9182 31.5915 32.0273 32.3485 30.9254 32.3485Z" fill="#currentColor" />
    <path d="M43.7883 32.3485H30.9582C30.1698 32.3485 29.5324 31.5915 29.5324 30.6554C29.5324 29.7192 30.1698 28.9625 30.9582 28.9625H43.7883C44.5767 28.9625 45.2138 29.7192 45.2138 30.6554C45.2138 31.5915 44.5767 32.3485 43.7883 32.3485Z" fill="#currentColor" />
    <path d="M30.9254 32.3485H12.9924C11.8906 32.3485 11 31.5915 11 30.6554C11 29.7192 11.8906 28.9625 12.9924 28.9625H30.9254C32.0273 28.9625 32.9182 29.7192 32.9182 30.6554C32.9182 31.5915 32.0273 32.3485 30.9254 32.3485Z" fill="#currentColor" />
    <path d="M43.7883 32.3485H30.9582C30.1698 32.3485 29.5324 31.5915 29.5324 30.6554C29.5324 29.7192 30.1698 28.9625 30.9582 28.9625H43.7883C44.5767 28.9625 45.2138 29.7192 45.2138 30.6554C45.2138 31.5915 44.5767 32.3485 43.7883 32.3485Z" fill="#currentColor" />
    <path d="M30.9254 40.5715H12.9924C11.8906 40.5715 11 39.8145 11 38.8784C11 37.9422 11.8906 37.1855 12.9924 37.1855H30.9254C32.0273 37.1855 32.9182 37.9422 32.9182 38.8784C32.9182 39.8145 32.0273 40.5715 30.9254 40.5715Z" fill="#currentColor" />
    <path d="M43.7883 40.5715H30.9582C30.1698 40.5715 29.5324 39.8145 29.5324 38.8784C29.5324 37.9422 30.1698 37.1855 30.9582 37.1855H43.7883C44.5767 37.1855 45.2138 37.9422 45.2138 38.8784C45.2138 39.8145 44.5767 40.5715 43.7883 40.5715Z" fill="#currentColor" />
</svg>