<svg viewBox="0 0 55 55" fill="#86171E" xmlns="http://www.w3.org/2000/svg">
    <path d="M1 10C1 5.02944 5.02944 1 10 1H45C49.9706 1 54 5.02944 54 10V45C54 49.9706 49.9706 54 45 54H10C5.02944 54 1 49.9706 1 45V10Z" fill="none" stroke="#currentColor" stroke-width="2" />
    <path d="M25.2557 16.6047H12.4255C11.6372 16.6047 11 15.7988 11 14.8022C11 13.8056 11.6372 13 12.4255 13H25.2557C26.044 13 26.6814 13.8056 26.6814 14.8022C26.6814 15.7988 26.044 16.6047 25.2557 16.6047Z" fill="#currentColor" />
    <path d="M25.2557 25.6162H12.4255C11.6372 25.6162 11 24.8107 11 23.814C11 22.8174 11.6372 22.0118 12.4255 22.0118H25.2557C26.044 22.0118 26.6814 22.8174 26.6814 23.814C26.6814 24.8107 26.044 25.6162 25.2557 25.6162Z" fill="#currentColor" />
    <path d="M25.2557 34.6285H12.4255C11.6372 34.6285 11 33.823 11 32.8263C11 31.8297 11.6372 31.0238 12.4255 31.0238H25.2557C26.044 31.0238 26.6814 31.8297 26.6814 32.8263C26.6814 33.823 26.044 34.6285 25.2557 34.6285Z" fill="#currentColor" />
    <path d="M25.2557 43.6404H12.4255C11.6372 43.6404 11 42.8345 11 41.8378C11 40.8412 11.6372 40.0356 12.4255 40.0356H25.2557C26.044 40.0356 26.6814 40.8412 26.6814 41.8378C26.6814 42.8345 26.044 43.6404 25.2557 43.6404Z" fill="#currentColor" />
    <path d="M43.7882 16.6047H30.958C30.1697 16.6047 29.5322 15.7988 29.5322 14.8022C29.5322 13.8056 30.1697 13 30.958 13H43.7882C44.5765 13 45.2137 13.8056 45.2137 14.8022C45.2137 15.7988 44.5765 16.6047 43.7882 16.6047Z" fill="#currentColor" />
    <path d="M43.7882 25.6162H30.958C30.1697 25.6162 29.5322 24.8107 29.5322 23.814C29.5322 22.8174 30.1697 22.0118 30.958 22.0118H43.7882C44.5765 22.0118 45.2137 22.8174 45.2137 23.814C45.2137 24.8107 44.5765 25.6162 43.7882 25.6162Z" fill="#currentColor" />
    <path d="M43.7882 34.6285H30.958C30.1697 34.6285 29.5322 33.823 29.5322 32.8263C29.5322 31.8297 30.1697 31.0238 30.958 31.0238H43.7882C44.5765 31.0238 45.2137 31.8297 45.2137 32.8263C45.2137 33.823 44.5765 34.6285 43.7882 34.6285Z" fill="#currentColor" />
    <path d="M43.7882 43.6404H30.958C30.1697 43.6404 29.5322 42.8345 29.5322 41.8378C29.5322 40.8412 30.1697 40.0356 30.958 40.0356H43.7882C44.5765 40.0356 45.2137 40.8412 45.2137 41.8378C45.2137 42.8345 44.5765 43.6404 43.7882 43.6404Z" fill="#currentColor" />
</svg>