<svg width="30" height="26" viewBox="0 0 30 26" fill="none" xmlns="http://www.w3.org/2000/svg">
<path d="M25.6694 13.7391H23.3493C23.5858 14.3866 23.715 15.0853 23.715 15.8135V24.5821C23.715 24.8857 23.6621 25.1772 23.566 25.4483H27.4016C28.8344 25.4483 30 24.2826 30 22.8498V18.0697C30.0001 15.6818 28.0573 13.7391 25.6694 13.7391ZM6.28507 15.8136C6.28507 15.0853 6.41427 14.3866 6.65075 13.7391H4.33067C1.94274 13.7391 0 15.6819 0 18.0698V22.85C0 24.2827 1.16561 25.4484 2.5984 25.4484H6.43407C6.33536 25.1703 6.28496 24.8773 6.28507 24.5822V15.8136ZM17.652 11.4829H12.348C9.96008 11.4829 8.01734 13.4257 8.01734 15.8136V24.5822C8.01734 25.0605 8.40511 25.4483 8.88347 25.4483H21.1166C21.5949 25.4483 21.9827 25.0605 21.9827 24.5822V15.8136C21.9827 13.4257 20.04 11.4829 17.652 11.4829ZM15 0C12.1282 0 9.79186 2.33637 9.79186 5.20823C9.79186 7.15619 10.867 8.85746 12.4548 9.75066C13.2079 10.1743 14.0761 10.4164 15 10.4164C15.9239 10.4164 16.7922 10.1743 17.5453 9.75066C19.1331 8.85746 20.2082 7.15613 20.2082 5.20823C20.2082 2.33643 17.8718 0 15 0ZM5.85458 4.85444C3.70682 4.85444 1.95955 6.60171 1.95955 8.74947C1.95955 10.8972 3.70682 12.6445 5.85458 12.6445C6.38237 12.6449 6.90468 12.5375 7.38945 12.3288C8.20425 11.978 8.87609 11.357 9.29182 10.5792C9.59297 10.0164 9.75024 9.38779 9.74961 8.74947C9.74961 6.60177 8.00234 4.85444 5.85458 4.85444ZM24.1455 4.85444C21.9977 4.85444 20.2505 6.60171 20.2505 8.74947C20.2498 9.3878 20.4071 10.0164 20.7082 10.5792C21.124 11.3571 21.7958 11.9781 22.6106 12.3288C23.0954 12.5375 23.6177 12.6449 24.1455 12.6445C26.2932 12.6445 28.0405 10.8972 28.0405 8.74947C28.0405 6.60171 26.2932 4.85444 24.1455 4.85444Z" fill="white"/>
</svg>
