<svg width="59" height="59" viewBox="0 0 59 59" fill="none" xmlns="http://www.w3.org/2000/svg">
<path d="M29.5001 0C13.2077 0 0 13.2077 0 29.5001C0 45.7926 13.2077 59.0002 29.5001 59.0002C45.7926 59.0002 59.0002 45.7926 59.0002 29.5001C58.983 13.2149 45.7854 0.0174087 29.5001 0ZM41.9238 30.4401C41.7196 30.8497 41.3876 31.1819 40.9778 31.3861V31.3966L24.1206 39.8252C23.0795 40.3454 21.814 39.9233 21.2937 38.8822C21.1458 38.5862 21.0696 38.2595 21.0715 37.9288V21.0716C21.071 19.9078 22.0139 18.964 23.1777 18.9634C23.505 18.9633 23.8278 19.0393 24.1206 19.1856L40.9778 27.6143C42.0193 28.1334 42.4429 29.3985 41.9238 30.4401Z" fill="#125A83"/>
</svg>
