
<svg width="120" height="128" viewBox="0 0 120 128" fill="none" xmlns="http://www.w3.org/2000/svg">
    <path d="M76.7433 95.9614C76.4845 97.6364 76.3669 99.3114 76.3669 101.011V110.886C76.3669 113.236 74.5555 115.136 72.3441 115.161H48.2546C46.0433 115.161 44.2554 113.236 44.2319 110.886V101.011C44.2319 99.3114 44.1142 97.6364 43.8555 95.9614H76.7433Z" fill="#AC5A5A"/>
    <path d="M70.7224 95.9614C70.4636 97.6364 70.346 99.3114 70.346 101.011V110.886C70.346 113.236 68.5346 115.136 66.3232 115.161H72.3456C74.557 115.161 76.3448 113.236 76.3684 110.886V101.011C76.3684 99.3114 76.486 97.6364 76.7448 95.9614H70.7224Z" fill="#9C3939"/>
    <path d="M100.458 44.5365C100.528 56.9865 95.4705 68.8615 86.6016 77.0115C81.3085 81.9115 77.8268 88.6115 76.7446 95.9865H43.8568C42.8217 88.6865 39.3636 81.9865 34.1175 77.1615C20.0732 64.2865 16.121 42.9115 24.5429 25.3865C32.9648 7.86153 51.5495 -1.28847 69.5695 3.26153C87.5896 7.81153 100.34 24.8365 100.458 44.5365Z" fill="#FFEFEF"/>
    <path d="M62.465 2.16156C60.7006 2.06156 58.9362 2.08656 57.1719 2.23656C73.357 3.46156 87.2602 14.9366 92.3651 31.3116C97.47 47.6866 92.8356 65.7116 80.5556 76.9866C75.2625 81.8866 71.7808 88.5866 70.6987 95.9616H76.7211C77.8032 88.6116 81.2849 81.8866 86.578 76.9866C98.9286 65.5866 103.563 47.3616 98.2463 30.9116C92.9768 14.4866 78.8148 3.11156 62.465 2.16156Z" fill="#C17F7F"/>
    <path d="M72.3454 115.162C72.3454 121.062 66.9346 125.837 60.3006 125.837C53.6666 125.837 48.2559 121.062 48.2559 115.162H72.3454Z" fill="#9C3939"/>
    <path d="M70.3466 66.0869H66.3238C65.2182 66.0869 64.3242 65.1369 64.3242 63.9619V31.9619C64.3242 30.7869 65.2182 29.8369 66.3238 29.8369H70.3466C71.4523 29.8369 72.3462 30.7869 72.3462 31.9619V63.9619C72.3462 65.1369 71.4523 66.0869 70.3466 66.0869Z" fill="#C17F7F"/>
    <path d="M86.3883 53.2868H82.3656C81.2599 53.2868 80.366 52.3368 80.366 51.1618V36.2368C80.366 35.0618 81.2599 34.1118 82.3656 34.1118H86.3883C87.494 34.1118 88.388 35.0618 88.388 36.2368V51.1618C88.4115 52.3368 87.494 53.2868 86.3883 53.2868Z" fill="#C17F7F"/>
    <path d="M54.2763 40.4869H50.2535C49.1479 40.4869 48.2539 39.5369 48.2539 38.3619V29.8369C48.2539 28.6619 49.1479 27.7119 50.2535 27.7119H54.2763C55.3819 27.7119 56.2759 28.6619 56.2759 29.8369V38.3619C56.2759 39.5369 55.3819 40.4869 54.2763 40.4869Z" fill="#C17F7F"/>
    <path d="M38.2099 51.1618H34.1871C33.0814 51.1618 32.1875 50.2118 32.1875 49.0368V38.3618C32.1875 37.1868 33.0814 36.2368 34.1871 36.2368H38.2099C39.3155 36.2368 40.2095 37.1868 40.2095 38.3618V49.0368C40.233 50.2118 39.3155 51.1618 38.2099 51.1618Z" fill="#C17F7F"/>
    <path d="M34.1191 77.1368C39.3651 81.9868 42.8233 88.6618 43.8584 95.9618C44.1171 97.6368 44.2348 99.3118 44.2348 101.012V110.887C44.2348 113.237 46.0462 115.137 48.2575 115.162C48.2575 121.062 53.6682 125.837 60.3023 125.837C61.3138 125.837 62.3254 125.712 63.3135 125.487C58.1145 124.287 54.2799 120.137 54.2799 115.162C52.0686 115.162 50.2807 113.237 50.2571 110.887V101.012C50.2571 99.3118 50.1395 97.6368 49.8807 95.9618C48.8456 88.6618 45.3875 81.9618 40.1414 77.1368C27.8379 65.8868 23.1329 47.9118 28.1673 31.5368C33.2016 15.1618 47.0342 3.58682 63.1958 2.23682C62.9606 2.21182 62.7253 2.16182 62.4666 2.16182C61.5961 2.11182 60.7257 2.11182 59.8788 2.11182C59.8082 2.11182 59.7141 2.11182 59.6436 2.11182C58.8202 2.13682 57.9968 2.16182 57.1735 2.23682C41.0119 3.58682 27.1792 15.1368 22.1449 31.5118C17.1106 47.8868 21.8391 65.8868 34.1191 77.1368Z" fill="white"/>
    <path d="M21.4851 27.3115L25.1785 28.9615C23.2024 33.9615 22.1673 39.3115 22.1673 44.7365H18.1445C18.1445 38.7615 19.2973 32.8365 21.4851 27.3115Z" fill="white"/>
    <path d="M21.0134 38.4117C19.9077 38.4117 18.9902 37.4617 18.9902 36.2867C18.9902 35.1117 19.8842 34.1367 20.9899 34.1367H21.0134C22.119 34.1367 23.013 35.0867 23.013 36.2617C23.013 37.4617 22.119 38.4117 21.0134 38.4117Z" fill="#7B0000"/>
    <path d="M87.9164 78.6117C97.2087 70.0617 102.525 57.6118 102.455 44.5368C102.078 20.9368 84.7405 1.58675 62.5801 0.03675C58.275 -0.13825 53.9699 0.31175 49.806 1.38675C45.6421 2.56175 41.6664 4.38675 37.973 6.76175C34.3502 9.23675 31.0802 12.2368 28.2337 15.6868C25.4813 19.1868 23.1994 23.1118 21.482 27.3118C21.0586 28.3868 21.5291 29.6367 22.5642 30.0868C23.5993 30.5368 24.752 30.0368 25.199 28.9618C26.7516 25.1618 28.7983 21.6117 31.2919 18.4368C33.8561 15.3118 36.8203 12.6117 40.1138 10.3617C43.4543 8.21175 47.0536 6.56175 50.7941 5.48675C54.5816 4.51175 58.4867 4.11175 62.3683 4.26175C82.4115 5.66175 98.1026 23.1868 98.432 44.5368C98.5026 56.3618 93.68 67.6367 85.2816 75.3867C80.0826 80.1868 76.5068 86.6617 75.0718 93.8367H45.548C44.1601 86.7117 40.6078 80.2617 35.4323 75.5117C27.0104 67.8118 22.1407 56.5868 22.1643 44.7868C22.1643 43.6118 21.2703 42.6618 20.1647 42.6618C19.059 42.6618 18.165 43.6118 18.165 44.7868C18.165 57.8368 23.5287 70.2617 32.8446 78.7617C38.8905 84.3867 42.3251 92.5117 42.2545 101.062V102.387H36.2322C35.1265 102.387 34.2325 103.337 34.2325 104.512C34.2325 105.687 35.1265 106.637 36.2322 106.637H42.2545V110.912C42.2781 113.687 43.9483 116.112 46.4184 116.962C47.383 123.162 53.2407 127.962 60.3217 127.962C67.4027 127.962 73.2604 123.162 74.2249 116.962C76.695 116.112 78.3888 113.662 78.3888 110.912V106.637H84.4112C85.5168 106.637 86.4108 105.687 86.4108 104.512C86.4108 103.337 85.5168 102.387 84.4112 102.387H78.3888V101.037C78.3417 92.4367 81.8234 84.2617 87.9164 78.6117ZM60.2981 123.687C56.1107 123.937 52.2526 121.387 50.6059 117.287H69.9669C68.3437 121.387 64.4856 123.962 60.2981 123.687ZM74.3425 110.887C74.3425 112.062 73.4486 113.012 72.3429 113.012H48.2534C47.1477 113.012 46.2538 112.062 46.2538 110.887V101.012C46.2538 100.037 46.1832 99.0617 46.1126 98.0867H74.5072C74.4366 99.0617 74.366 100.037 74.366 101.012L74.3425 110.887Z" fill="#7B0000"/>
    <path d="M68.3212 19.1616C67.2155 19.1616 66.3216 20.1116 66.3216 21.2866V27.6866C64.1102 27.6866 62.2988 29.5866 62.2988 31.9616V63.9616C62.2988 66.3116 64.0867 68.2366 66.3216 68.2366V72.5116C66.3216 73.6866 67.2155 74.6366 68.3212 74.6366C69.4269 74.6366 70.3208 73.6866 70.3208 72.5116V68.2366C72.5322 68.2366 74.3436 66.3366 74.3436 63.9616V31.9616C74.3436 29.6116 72.5557 27.6866 70.3208 27.6866V21.2866C70.3443 20.1116 69.4269 19.1616 68.3212 19.1616ZM70.3443 63.9616H66.3216V31.9616H70.3443V63.9616Z" fill="#7B0000"/>
    <path d="M84.3896 27.6865C83.2839 27.6865 82.3899 28.6365 82.3899 29.8115V31.9365C80.1786 31.9365 78.3672 33.8365 78.3672 36.2115V51.1365C78.3672 53.4865 80.1551 55.4115 82.3899 55.4115V59.6865C82.3899 60.8615 83.2839 61.8115 84.3896 61.8115C85.4952 61.8115 86.3892 60.8615 86.3892 59.6865V55.4115C88.6005 55.4115 90.4119 53.5115 90.4119 51.1365V36.2115C90.4119 33.8615 88.624 31.9365 86.3892 31.9365V29.8115C86.3892 28.6615 85.4952 27.6865 84.3896 27.6865ZM86.3892 51.1615H82.3664V36.2365H86.3892V51.1615Z" fill="#7B0000"/>
    <path d="M52.2773 14.8867C51.1716 14.8867 50.2776 15.8367 50.2776 17.0117V25.5367C48.0663 25.5367 46.2549 27.4367 46.2549 29.8117V38.3367C46.2549 40.6867 48.0428 42.6117 50.2776 42.6117V49.0117C50.2776 50.1867 51.1716 51.1367 52.2773 51.1367C53.3829 51.1367 54.2769 50.1867 54.2769 49.0117V42.6117C56.4882 42.6117 58.2996 40.7117 58.2996 38.3367V29.8117C58.2996 27.4617 56.5117 25.5367 54.2769 25.5367V17.0367C54.2769 15.8617 53.3829 14.8867 52.2773 14.8867ZM54.2769 38.3617H50.2541V29.8367H54.2769V38.3617Z" fill="#7B0000"/>
    <path d="M36.2109 27.6865C35.1052 27.6865 34.2112 28.6365 34.2112 29.8115V34.0865C31.9999 34.0865 30.1885 35.9865 30.1885 38.3615V49.0365C30.1885 51.3865 31.9764 53.3115 34.2112 53.3115V61.8365C34.2112 63.0115 35.1052 63.9615 36.2109 63.9615C37.3165 63.9615 38.2105 63.0115 38.2105 61.8365V53.3115C40.4218 53.3115 42.2332 51.4115 42.2332 49.0365V38.3615C42.2332 36.0115 40.4453 34.0865 38.2105 34.0865V29.8115C38.2105 28.6615 37.3165 27.6865 36.2109 27.6865ZM38.2105 49.0365H34.1877V38.3615H38.2105V49.0365Z" fill="#7B0000"/>
    <path d="M2.9697 57.6366C3.08732 57.6366 3.20495 57.6366 3.32257 57.6116L13.203 55.7616C13.9323 55.6616 14.544 55.1366 14.8027 54.4116C15.0615 53.6866 14.9203 52.8616 14.4499 52.2616C13.9794 51.6616 13.2266 51.4116 12.4973 51.5616L2.61683 53.4116C1.60526 53.6116 0.875984 54.5866 0.970084 55.6866C1.06418 56.7866 1.9346 57.6366 2.9697 57.6366Z" fill="#7B0000"/>
    <path d="M117.276 31.9117L107.395 33.7617C106.384 33.9617 105.654 34.9367 105.748 36.0367C105.843 37.1367 106.689 37.9867 107.748 37.9867C107.866 37.9867 107.983 37.9867 108.101 37.9617L117.981 36.1117C119.04 35.8867 119.746 34.7867 119.558 33.6617C119.369 32.5367 118.358 31.7367 117.276 31.9117Z" fill="#7B0000"/>
    <path d="M117.63 57.6368C118.665 57.6368 119.536 56.7868 119.606 55.6868C119.7 54.5868 118.995 53.6118 117.959 53.4118L108.079 51.5618C107.35 51.3868 106.62 51.6618 106.126 52.2618C105.656 52.8618 105.515 53.6868 105.774 54.4118C106.032 55.1368 106.644 55.6618 107.373 55.7618L117.254 57.6118C117.395 57.6368 117.513 57.6368 117.63 57.6368Z" fill="#7B0000"/>
    <path d="M0.993705 33.6363C0.805506 34.7863 1.53478 35.9113 2.61692 36.1113L12.4974 37.9613C12.615 37.9863 12.7326 37.9863 12.8503 37.9863C13.8854 37.9863 14.7558 37.1363 14.8499 36.0363C14.944 34.9363 14.2382 33.9363 13.2031 33.7613L3.32267 31.9113C2.217 31.7113 1.1819 32.4863 0.993705 33.6363Z" fill="#7B0000"/>
    <path d="M8.14376 76.7615C8.70836 77.7865 9.93165 78.1364 10.8962 77.5364L19.5769 72.2114C20.5179 71.6114 20.8472 70.3114 20.3061 69.3114C19.7651 68.2864 18.5418 67.9365 17.5772 68.5115L8.89656 73.8364C7.90851 74.4364 7.57916 75.7365 8.14376 76.7615Z" fill="#7B0000"/>
    <path d="M102.033 21.287C102.385 21.287 102.738 21.187 103.044 21.012L111.725 15.687C112.666 15.087 112.995 13.787 112.454 12.787C111.913 11.762 110.69 11.412 109.725 11.987L101.044 17.312C100.268 17.787 99.8682 18.787 100.103 19.712C100.339 20.637 101.115 21.287 102.033 21.287Z" fill="#7B0000"/>
    <path d="M101.021 72.2114L109.702 77.5364C110.667 78.1114 111.89 77.7614 112.431 76.7364C112.972 75.7114 112.666 74.4114 111.702 73.8364L103.021 68.5114C102.409 68.1364 101.633 68.1114 100.998 68.5114C100.363 68.8864 99.9863 69.6114 99.9863 70.3614C100.01 71.1364 100.386 71.8364 101.021 72.2114Z" fill="#7B0000"/>
    <path d="M19.5797 17.312L10.899 11.987C10.2873 11.612 9.511 11.587 8.87583 11.987C8.24066 12.362 7.86426 13.087 7.86426 13.837C7.86426 14.612 8.26418 15.312 8.87583 15.687L17.5565 21.012C18.1682 21.387 18.9445 21.412 19.5797 21.012C20.2148 20.612 20.5912 19.912 20.5912 19.162C20.5912 18.412 20.2148 17.687 19.5797 17.312Z" fill="#7B0000"/>
</svg>
