<svg width="32" height="23" viewBox="0 0 32 23" fill="none" xmlns="http://www.w3.org/2000/svg">
<path d="M30.8952 4.24295C30.5409 2.89379 29.5007 1.83495 28.1793 1.47631C25.7839 0.821655 16.1799 0.821655 16.1799 0.821655C16.1799 0.821655 6.57589 0.821655 4.18051 1.47631C2.85912 1.83495 1.81887 2.89379 1.46462 4.24295C0.823608 6.68511 0.823608 11.7744 0.823608 11.7744C0.823608 11.7744 0.823608 16.8636 1.46462 19.3058C1.81887 20.6549 2.85912 21.6682 4.18051 22.0269C6.57589 22.6815 16.1799 22.6815 16.1799 22.6815C16.1799 22.6815 25.7839 22.6815 28.1793 22.0269C29.5007 21.6682 30.5409 20.6493 30.8952 19.3058C31.5362 16.8636 31.5362 11.7744 31.5362 11.7744C31.5362 11.7744 31.5362 6.68511 30.8952 4.24295ZM13.0423 16.3968V7.15191L21.0662 11.7744L13.0423 16.3968Z" fill="white"/>
</svg>
